<svg xmlns="http://www.w3.org/2000/svg" viewBox="0 0 67 50"><g fill="#fff" opacity=".18"><path d="M49.4 7.3v10.212h10.21v-9.29l-.927-.922zm9.77 1.1v8.673h-9.34V7.737h8.67z"/><path d="M50.01 7.92v8.97h8.973V8.7l-.017-.042-.72-.72-.046-.017zm8.828.81v8.018h-8.68v-8.68h8.016z"/><path d="M55.665 10.806a.29.29 0 0 1 .288.294v2.618a.29.29 0 0 1-.29.29h-2.33a.29.29 0 0 1-.29-.29V11.1a.29.29 0 0 1 .29-.29h2.332z"/><path d="M53.078 10.387a.428.428 0 0 0-.428.428V14a.428.428 0 0 0 .428.428h2.84a.428.428 0 0 0 .427-.428v-3.185a.428.428 0 0 0-.428-.428zm3.12.428V14a.282.282 0 0 1-.28.282h-2.84A.282.282 0 0 1 52.8 14v-3.185a.282.282 0 0 1 .282-.282h2.84a.282.282 0 0 1 .278.282zM57.7 8.768a.146.146 0 1 1 .146-.146.146.146 0 0 1-.146.146zm-.437-.144a.145.145 0 0 1-.146.144.146.146 0 1 1 .146-.146zm-1.31.144a.146.146 0 1 1 .146-.146.146.146 0 0 1-.147.146zm.582 0a.146.146 0 1 1 .146-.146.146.146 0 0 1-.145.146zm-1.165 0a.146.146 0 1 1 .146-.146.146.146 0 0 1-.146.146zm-.582 0a.146.146 0 1 1 .146-.146.146.146 0 0 1-.146.146zm-1.165 0a.146.146 0 1 1 .146-.146.146.146 0 0 1-.147.146zm.583 0a.146.146 0 1 1 .146-.146.146.146 0 0 1-.146.146zm-1.166 0a.146.146 0 1 1 .147-.146.146.146 0 0 1-.146.146zm-.434-.144a.145.145 0 0 1-.146.144.146.146 0 1 1 .146-.146zm-1.312.144a.146.146 0 1 1 .146-.146.146.146 0 0 1-.146.146zm.582 0a.146.146 0 1 1 .146-.146.146.146 0 0 1-.146.146zm-1.019-.144a.145.145 0 0 1-.146.144.146.146 0 1 1 .147-.146zm6.843.722a.146.146 0 1 1 .146-.146.146.146 0 0 1-.146.146zm-.583 0a.146.146 0 1 1 .146-.146.146.146 0 0 1-.146.146zm-1.164 0A.146.146 0 1 1 56.1 9.2a.146.146 0 0 1-.147.146zm.582 0a.146.146 0 1 1 .146-.146.146.146 0 0 1-.145.146zm-1.165 0a.146.146 0 1 1 .146-.146.146.146 0 0 1-.146.146zm-.582 0a.146.146 0 1 1 .146-.146.146.146 0 0 1-.146.146zm-1.165 0a.146.146 0 1 1 .146-.146.146.146 0 0 1-.147.146zm.583 0a.146.146 0 1 1 .146-.146.146.146 0 0 1-.146.146zm-1.166 0a.146.146 0 1 1 .147-.146.146.146 0 0 1-.146.146zm-.58 0a.146.146 0 1 1 .146-.146.146.146 0 0 1-.146.146zm-1.166 0a.146.146 0 1 1 .146-.146.146.146 0 0 1-.146.146zm.582 0a.146.146 0 1 1 .146-.146.146.146 0 0 1-.146.146zm-1.166 0a.146.146 0 1 1 .147-.146.146.146 0 0 1-.146.146zm7.572 0a.146.146 0 1 1 .146-.146.146.146 0 0 1-.146.146zm-.582.586a.146.146 0 1 1 .146-.146.146.146 0 0 1-.146.146zm-.583 0a.146.146 0 1 1 .146-.146.146.146 0 0 1-.146.146zm-1.164 0a.146.146 0 1 1 .146-.146.146.146 0 0 1-.147.146zm.582 0a.146.146 0 1 1 .146-.146.146.146 0 0 1-.145.146zm-1.165 0a.146.146 0 1 1 .146-.146.146.146 0 0 1-.146.146zm-.582 0a.146.146 0 1 1 .146-.146.146.146 0 0 1-.146.146zm-1.165 0a.146.146 0 1 1 .146-.146.146.146 0 0 1-.147.146zm.583 0a.146.146 0 1 1 .146-.146.146.146 0 0 1-.146.146zm-1.166 0a.146.146 0 1 1 .147-.146.146.146 0 0 1-.146.146zm-.58 0a.146.146 0 1 1 .146-.146.146.146 0 0 1-.146.146zm-1.166 0a.146.146 0 1 1 .146-.146.146.146 0 0 1-.146.146zm.582 0a.146.146 0 1 1 .146-.146.146.146 0 0 1-.146.146zm-1.166 0a.146.146 0 1 1 .147-.146.146.146 0 0 1-.146.146zm7.572 0a.146.146 0 1 1 .146-.146.146.146 0 0 1-.146.146zm-6.988.583a.146.146 0 1 1 .146-.146.146.146 0 0 1-.146.145zm.582 0a.146.146 0 1 1 .146-.146.146.146 0 0 1-.146.145zm-1.166 0a.146.146 0 1 1 .147-.146.146.146 0 0 1-.146.145zm.584.585a.146.146 0 1 1 .146-.146.146.146 0 0 1-.146.146zm.582 0a.146.146 0 1 1 .146-.146.146.146 0 0 1-.146.146zm-1.166 0a.146.146 0 1 1 .147-.146.146.146 0 0 1-.146.146zm.584.58a.146.146 0 1 1 .146-.146.146.146 0 0 1-.146.146zm.582 0a.146.146 0 1 1 .146-.146.146.146 0 0 1-.146.146zm-1.166 0a.146.146 0 1 1 .147-.146.146.146 0 0 1-.146.146z"/><path d="M51.294 11.68a.146.146 0 1 1 .146-.146.146.146 0 0 1-.146.146zm.582 0a.146.146 0 1 1 .146-.146.146.146 0 0 1-.146.146zm-1.166 0a.146.146 0 1 1 .147-.146.146.146 0 0 1-.146.146zm.584.582a.146.146 0 1 1 .146-.146.146.146 0 0 1-.146.146zm.582 0a.146.146 0 1 1 .146-.146.146.146 0 0 1-.146.146zm-1.166 0a.146.146 0 1 1 .147-.146.146.146 0 0 1-.146.146zm.584.584a.146.146 0 1 1 .146-.146.146.146 0 0 1-.146.146zm.582 0a.146.146 0 1 1 .146-.146.146.146 0 0 1-.146.146zm-1.166 0a.146.146 0 1 1 .147-.146.146.146 0 0 1-.146.146zm.584.581a.146.146 0 1 1 .146-.146.146.146 0 0 1-.146.147zm.582 0a.146.146 0 1 1 .146-.146.146.146 0 0 1-.146.147zm-1.166 0a.146.146 0 1 1 .147-.146.146.146 0 0 1-.146.147zm.584.583a.146.146 0 1 1 .146-.147.146.146 0 0 1-.146.146zm.582 0a.146.146 0 1 1 .146-.147.146.146 0 0 1-.146.146zm-1.166 0a.146.146 0 1 1 .147-.147.146.146 0 0 1-.146.146zm.584.58a.146.146 0 1 1 .146-.145.146.146 0 0 1-.146.146zm.582 0a.146.146 0 1 1 .146-.145.146.146 0 0 1-.146.146zm-1.166 0a.146.146 0 1 1 .147-.145.146.146 0 0 1-.146.146zm.584.584a.146.146 0 1 1 .146-.146.146.146 0 0 1-.146.146zm.582 0a.146.146 0 1 1 .146-.146.146.146 0 0 1-.146.146zm-1.019-.144a.145.145 0 0 1-.146.144.146.146 0 1 1 .147-.146zm.437.726a.146.146 0 1 1 .146-.146.146.146 0 0 1-.146.146zm.582 0a.146.146 0 1 1 .146-.146.146.146 0 0 1-.146.146zm-1.166 0a.146.146 0 1 1 .147-.146.146.146 0 0 1-.146.146zm.584.582a.146.146 0 1 1 .146-.146.146.146 0 0 1-.146.146zm.582 0a.146.146 0 1 1 .146-.146.146.146 0 0 1-.146.146zm-1.166 0a.146.146 0 1 1 .147-.146.146.146 0 0 1-.146.146zm6.99-5.823a.146.146 0 1 1 .146-.146.146.146 0 0 1-.146.145zm.582 0a.146.146 0 1 1 .146-.146.146.146 0 0 1-.146.145zm-1.165 0a.146.146 0 1 1 .146-.146.146.146 0 0 1-.146.145zm.583.585a.146.146 0 1 1 .146-.146.146.146 0 0 1-.146.146zm.582 0a.146.146 0 1 1 .146-.146.146.146 0 0 1-.146.146zm-1.165 0a.146.146 0 1 1 .146-.146.146.146 0 0 1-.146.146zm.583.58a.146.146 0 1 1 .146-.146.146.146 0 0 1-.146.146zm.582 0a.146.146 0 1 1 .146-.146.146.146 0 0 1-.146.146zm-1.165 0a.146.146 0 1 1 .146-.146.146.146 0 0 1-.146.146z"/><path d="M57.7 11.68a.146.146 0 1 1 .146-.146.146.146 0 0 1-.146.146zm.582 0a.146.146 0 1 1 .146-.146.146.146 0 0 1-.146.146zm-1.165 0a.146.146 0 1 1 .146-.146.146.146 0 0 1-.146.146zm.583.582a.146.146 0 1 1 .146-.146.146.146 0 0 1-.146.146zm.582 0a.146.146 0 1 1 .146-.146.146.146 0 0 1-.146.146zm-1.165 0a.146.146 0 1 1 .146-.146.146.146 0 0 1-.146.146zm.583.584a.146.146 0 1 1 .146-.146.146.146 0 0 1-.146.146zm.582 0a.146.146 0 1 1 .146-.146.146.146 0 0 1-.146.146zm-1.165 0a.146.146 0 1 1 .146-.146.146.146 0 0 1-.146.146zm.583.581a.146.146 0 1 1 .146-.146.146.146 0 0 1-.146.147zm.582 0a.146.146 0 1 1 .146-.146.146.146 0 0 1-.146.147zm-1.165 0a.146.146 0 1 1 .146-.146.146.146 0 0 1-.146.147zm.583.583a.146.146 0 1 1 .146-.147.146.146 0 0 1-.146.146zm.582 0a.146.146 0 1 1 .146-.147.146.146 0 0 1-.146.146zm-1.165 0a.146.146 0 1 1 .146-.147.146.146 0 0 1-.146.146zm.583.58a.146.146 0 1 1 .146-.145.146.146 0 0 1-.146.146zm.582 0a.146.146 0 1 1 .146-.145.146.146 0 0 1-.146.146zm-1.165 0a.146.146 0 1 1 .146-.145.146.146 0 0 1-.146.146zm.583.584a.146.146 0 1 1 .146-.146.146.146 0 0 1-.146.146zm.582 0a.146.146 0 1 1 .146-.146.146.146 0 0 1-.146.146zm-1.019-.144a.145.145 0 0 1-.146.144.146.146 0 1 1 .146-.146zm.437.726a.146.146 0 1 1 .146-.146.146.146 0 0 1-.146.146zm.582 0a.146.146 0 1 1 .146-.146.146.146 0 0 1-.146.146zm-1.165 0a.146.146 0 1 1 .146-.146.146.146 0 0 1-.146.146zm.583.582a.146.146 0 1 1 .146-.146.146.146 0 0 1-.146.146zm.582 0a.146.146 0 1 1 .146-.146.146.146 0 0 1-.146.146zm-1.165 0a.146.146 0 1 1 .146-.146.146.146 0 0 1-.146.146zm-1.164-1.164a.146.146 0 1 1 .146-.146.146.146 0 0 1-.147.146zm.582 0a.146.146 0 1 1 .146-.146.146.146 0 0 1-.145.146zm-1.165 0a.146.146 0 1 1 .146-.146.146.146 0 0 1-.146.146zm-.582 0a.146.146 0 1 1 .146-.146.146.146 0 0 1-.146.146zm-1.165 0a.146.146 0 1 1 .146-.146.146.146 0 0 1-.147.146zm.583 0a.146.146 0 1 1 .146-.146.146.146 0 0 1-.146.146zm-1.166 0a.146.146 0 1 1 .147-.146.146.146 0 0 1-.146.146zm-.434-.144a.145.145 0 0 1-.146.144.146.146 0 1 1 .146-.146zm3.347.726a.146.146 0 1 1 .146-.146.146.146 0 0 1-.147.146zm.582 0a.146.146 0 1 1 .146-.146.146.146 0 0 1-.145.146zm-1.165 0a.146.146 0 1 1 .146-.146.146.146 0 0 1-.146.146zm-.582 0a.146.146 0 1 1 .146-.146.146.146 0 0 1-.146.146zm-1.165 0a.146.146 0 1 1 .146-.146.146.146 0 0 1-.147.146zm.583 0a.146.146 0 1 1 .146-.146.146.146 0 0 1-.146.146zm-1.166 0a.146.146 0 1 1 .147-.146.146.146 0 0 1-.146.146zm-.58 0a.146.146 0 1 1 .146-.146.146.146 0 0 1-.146.146zm3.493.582a.146.146 0 1 1 .146-.146.146.146 0 0 1-.147.146zm.582 0a.146.146 0 1 1 .146-.146.146.146 0 0 1-.145.146zm-1.165 0a.146.146 0 1 1 .146-.146.146.146 0 0 1-.146.146zm-.582 0a.146.146 0 1 1 .146-.146.146.146 0 0 1-.146.146zm-1.165 0a.146.146 0 1 1 .146-.146.146.146 0 0 1-.147.146zm.583 0a.146.146 0 1 1 .146-.146.146.146 0 0 1-.146.146zm-1.166 0a.146.146 0 1 1 .147-.146.146.146 0 0 1-.146.146zm-.58 0a.146.146 0 1 1 .146-.146.146.146 0 0 1-.146.146z"/><path d="M46.665 4.574V20.45H62.54V4.573zM61.54 19.45H47.665V5.573H61.54z"/><path d="M48.006 5.918v13.188H61.2V5.918zM60.7 18.606H48.506V6.418H60.7zM45.335 6.55a.7.7 0 0 0-.713.687v4.312c0 .118.164.118.22.218v5.626h1V11.77c.054-.1.218-.1.218-.22V7.23a.7.7 0 0 0-.72-.68zm-27.229-.976v1.92h23.516v-1.92zm23.036 1.44h-.48v-.96h.48zm-.96 0H39.7v-.96h.48zm-.96 0h-.48v-.96h.48zm-.96 0h-.48v-.96h.48zm-.956 0h-.484v-.96h.48zm-.964 0h-.48v-.96h.48zm-.96 0H34.9v-.96h.48zm-.96 0h-.48v-.96h.48zm-.96 0h-.48v-.96h.48zm-.956 0h-.484v-.96h.48zm-.964 0h-.48v-.96h.48zm-.96 0H30.1v-.96h.48zm-.96 0h-.48v-.96h.48zm-.96 0h-.48v-.96h.48zm-.956 0h-.484v-.96h.48zm-.964 0h-.48v-.96h.48zm-.96 0H25.3v-.96h.48zm-.96 0h-.48v-.96h.48zm-.96 0h-.48v-.96h.48zm-.956 0h-.484v-.96h.48zm-.964 0h-.48v-.96h.48zm-.96 0H20.5v-.96h.48zm-.96 0h-.48v-.96h.48zm-.96 0h-.48v-.96h.48zM8.03 5.574v1.92h9.118v-1.92zm8.638 1.44h-.48v-.96h.48zm-.962 0h-.478v-.96h.48zm-.958 0h-.48v-.96h.48zm-.96 0h-.48v-.96h.48zm-.96 0h-.48v-.96h.48zm-.96 0h-.48v-.96h.48zm-.962 0h-.478v-.96h.48zm-.958 0h-.48v-.96h.48zm-.96 0h-.48v-.96h.48zm9.118 1.56v1.92h23.516v-1.92zm23.036 1.44h-.48v-.96h.48zm-.96 0H39.7v-.96h.48zm-.96 0h-.48v-.96h.48zm-.96 0h-.48v-.96h.48zm-.956 0h-.484v-.96h.48zm-.964 0h-.48v-.96h.48zm-.96 0H34.9v-.96h.48zm-.96 0h-.48v-.96h.48zm-.96 0h-.48v-.96h.48zm-.956 0h-.484v-.96h.48zm-.964 0h-.48v-.96h.48zm-.96 0H30.1v-.96h.48zm-.96 0h-.48v-.96h.48zm-.96 0h-.48v-.96h.48zm-.956 0h-.484v-.96h.48zm-.964 0h-.48v-.96h.48zm-.96 0H25.3v-.96h.48zm-.96 0h-.48v-.96h.48zm-.96 0h-.48v-.96h.48zm-.956 0h-.484v-.96h.48zm-.964 0h-.48v-.96h.48zm-.96 0H20.5v-.96h.48zm-.96 0h-.48v-.96h.48zm-.96 0h-.48v-.96h.48zM8.03 8.574v1.92h9.118v-1.92zm8.638 1.44h-.48v-.96h.48zm-.962 0h-.478v-.96h.48zm-.958 0h-.48v-.96h.48zm-.96 0h-.48v-.96h.48zm-.96 0h-.48v-.96h.48zm-.96 0h-.48v-.96h.48zm-.962 0h-.478v-.96h.48zm-.958 0h-.48v-.96h.48zm-.96 0h-.48v-.96h.48zm9.118 2.641v1.92h23.516v-1.92zm23.036 1.44h-.48v-.96h.48zm-.96 0H39.7v-.96h.48zm-.96 0h-.48v-.96h.48zm-.96 0h-.48v-.96h.48zm-.956 0h-.484v-.96h.48zm-.964 0h-.48v-.96h.48zm-.96 0H34.9v-.96h.48zm-.96 0h-.48v-.96h.48zm-.96 0h-.48v-.96h.48zm-.956 0h-.484v-.96h.48zm-.964 0h-.48v-.96h.48zm-.96 0H30.1v-.96h.48zm-.96 0h-.48v-.96h.48zm-.96 0h-.48v-.96h.48zm-.956 0h-.484v-.96h.48zm-.964 0h-.48v-.96h.48zm-.96 0H25.3v-.96h.48zm-.96 0h-.48v-.96h.48zm-.96 0h-.48v-.96h.48zm-.956 0h-.484v-.96h.48zm-.964 0h-.48v-.96h.48zm-.96 0H20.5v-.96h.48zm-.96 0h-.48v-.96h.48zm-.96 0h-.48v-.96h.48zM8.03 12.655v1.92h9.118v-1.92zm8.638 1.44h-.48v-.96h.48zm-.962 0h-.478v-.96h.48zm-.958 0h-.48v-.96h.48zm-.96 0h-.48v-.96h.48zm-.96 0h-.48v-.96h.48zm-.96 0h-.48v-.96h.48zm-.962 0h-.478v-.96h.48zm-.958 0h-.48v-.96h.48zm-.96 0h-.48v-.96h.48zm9.118 1.56v1.92h23.516v-1.92zm23.036 1.44h-.48v-.96h.48zm-.96 0H39.7v-.96h.48zm-.96 0h-.48v-.96h.48zm-.96 0h-.48v-.96h.48zm-.956 0h-.484v-.96h.48zm-.964 0h-.48v-.96h.48zm-.96 0H34.9v-.96h.48zm-.96 0h-.48v-.96h.48zm-.96 0h-.48v-.96h.48zm-.956 0h-.484v-.96h.48zm-.964 0h-.48v-.96h.48zm-.96 0H30.1v-.96h.48zm-.96 0h-.48v-.96h.48zm-.96 0h-.48v-.96h.48zm-.956 0h-.484v-.96h.48zm-.964 0h-.48v-.96h.48zm-.96 0H25.3v-.96h.48zm-.96 0h-.48v-.96h.48zm-.96 0h-.48v-.96h.48zm-.956 0h-.484v-.96h.48zm-.964 0h-.48v-.96h.48zm-.96 0H20.5v-.96h.48zm-.96 0h-.48v-.96h.48zm-.96 0h-.48v-.96h.48zM8.03 15.655v1.92h9.118v-1.92zm8.638 1.44h-.48v-.96h.48zm-.962 0h-.478v-.96h.48zm-.958 0h-.48v-.96h.48zm-.96 0h-.48v-.96h.48zm-.96 0h-.48v-.96h.48zm-.96 0h-.48v-.96h.48zm-.962 0h-.478v-.96h.48zm-.958 0h-.48v-.96h.48zm-.96 0h-.48v-.96h.48zM1.56 20.934v3.64h40.06v-3.64zm39.166 2.692h-.452v-1.792h.448zm-.9 0h-.448v-1.792h.448zm-.9 0h-.448v-1.792h.448zm-.9 0h-.448v-1.792h.448zm-.9 0h-.448v-1.792h.448zm-.9 0h-.448v-1.792h.448zm-.9 0h-.448v-1.792h.448zm-.868 0h-.448v-1.792h.416zm-.9 0h-.45v-1.792h.416zm-.934 0h-.448v-1.792h.448zm-.9 0h-.448v-1.792h.448zm-.9 0h-.448v-1.792h.448zm-.9 0h-.448v-1.792h.448zm-.9 0h-.448v-1.792h.448zm-.9 0h-.448v-1.792h.448zm-.9 0h-.448v-1.792h.448zm-.9 0h-.448v-1.792h.448zm-.9 0h-.448v-1.792h.448zm-.9 0h-.448v-1.792h.448zm-.9 0h-.448v-1.792h.448zm-.816 0h-.532v-1.792h.448zm-.9 0h-.532v-1.792h.448zm-.9 0h-.532v-1.792h.448zm-.984 0h-.448v-1.792h.448zm-.9 0h-.448v-1.792h.448zm-.9 0h-.448v-1.792h.448zm-3.486 0h-.547v-1.792h.45zm-1 0h-.448v-1.792h.448zm-.9 0h-.448v-1.792h.448zm-.9 0h-.448v-1.792h.448zm-.783 0h-.448v-1.792h.33zm-.9 0h-.45v-1.792h.332zm-.9 0h-.45v-1.792h.332zm-1.017 0h-.45v-1.792h.45zm-.77 0h-.58v-1.792h.45zm-1.03 0h-.45v-1.792h.45zm-.9 0h-.45v-1.792h.45zm-.9 0h-.45v-1.792h.45zm-.9 0h-.45v-1.792h.45zm-.9 0h-.45v-1.792h.45zM1.56 26.934v3.64h40.06v-3.64zm39.166 2.692h-.452v-1.792h.448zm-.9 0h-.448v-1.792h.448zm-.9 0h-.448v-1.792h.448zm-.9 0h-.448v-1.792h.448zm-.9 0h-.448v-1.792h.448zm-.9 0h-.448v-1.792h.448zm-.9 0h-.448v-1.792h.448zm-.868 0h-.448v-1.792h.416zm-.9 0h-.45v-1.792h.416zm-.934 0h-.448v-1.792h.448zm-.9 0h-.448v-1.792h.448zm-.9 0h-.448v-1.792h.448zm-.9 0h-.448v-1.792h.448zm-.9 0h-.448v-1.792h.448zm-.9 0h-.448v-1.792h.448zm-.9 0h-.448v-1.792h.448zm-.9 0h-.448v-1.792h.448zm-.9 0h-.448v-1.792h.448zm-.9 0h-.448v-1.792h.448zm-.9 0h-.448v-1.792h.448zm-.816 0h-.532v-1.792h.448zm-.9 0h-.532v-1.792h.448zm-.9 0h-.532v-1.792h.448zm-.984 0h-.448v-1.792h.448zm-.9 0h-.448v-1.792h.448zm-.9 0h-.448v-1.792h.448zm-3.486 0h-.547v-1.792h.45zm-1 0h-.448v-1.792h.448zm-.9 0h-.448v-1.792h.448zm-.9 0h-.448v-1.792h.448zm-.783 0h-.448v-1.792h.33zm-.9 0h-.45v-1.792h.332zm-.9 0h-.45v-1.792h.332zm-1.017 0h-.45v-1.792h.45zm-.77 0h-.58v-1.792h.45zm-1.03 0h-.45v-1.792h.45zm-.9 0h-.45v-1.792h.45zm-.9 0h-.45v-1.792h.45zm-.9 0h-.45v-1.792h.45zm-.9 0h-.45v-1.792h.45zM1.56 33.574v3.64h40.06v-3.64zm39.166 2.692h-.452v-1.792h.448zm-.9 0h-.448v-1.792h.448zm-.9 0h-.448v-1.792h.448zm-.9 0h-.448v-1.792h.448zm-.9 0h-.448v-1.792h.448zm-.9 0h-.448v-1.792h.448zm-.9 0h-.448v-1.792h.448zm-.868 0h-.448v-1.792h.416zm-.9 0h-.45v-1.792h.416zm-.934 0h-.448v-1.792h.448zm-.9 0h-.448v-1.792h.448zm-.9 0h-.448v-1.792h.448zm-.9 0h-.448v-1.792h.448zm-.9 0h-.448v-1.792h.448zm-.9 0h-.448v-1.792h.448zm-.9 0h-.448v-1.792h.448zm-.9 0h-.448v-1.792h.448zm-.9 0h-.448v-1.792h.448zm-.9 0h-.448v-1.792h.448zm-.9 0h-.448v-1.792h.448zm-.816 0h-.532v-1.792h.448zm-.9 0h-.532v-1.792h.448zm-.9 0h-.532v-1.792h.448zm-.984 0h-.448v-1.792h.448zm-.9 0h-.448v-1.792h.448zm-.9 0h-.448v-1.792h.448zm-3.486 0h-.547v-1.792h.45zm-1 0h-.448v-1.792h.448zm-.9 0h-.448v-1.792h.448zm-.9 0h-.448v-1.792h.448zm-.783 0h-.448v-1.792h.33zm-.9 0h-.45v-1.792h.332zm-.9 0h-.45v-1.792h.332zm-1.017 0h-.45v-1.792h.45zm-.77 0h-.58v-1.792h.45zm-1.03 0h-.45v-1.792h.45zm-.9 0h-.45v-1.792h.45zm-.9 0h-.45v-1.792h.45zm-.9 0h-.45v-1.792h.45zm-.9 0h-.45v-1.792h.45zM1.56 39.574v3.64h40.06v-3.64zm39.166 2.692h-.452v-1.792h.448zm-.9 0h-.448v-1.792h.448zm-.9 0h-.448v-1.792h.448zm-.9 0h-.448v-1.792h.448zm-.9 0h-.448v-1.792h.448zm-.9 0h-.448v-1.792h.448zm-.9 0h-.448v-1.792h.448zm-.868 0h-.448v-1.792h.416zm-.9 0h-.45v-1.792h.416zm-.934 0h-.448v-1.792h.448zm-.9 0h-.448v-1.792h.448zm-.9 0h-.448v-1.792h.448zm-.9 0h-.448v-1.792h.448zm-.9 0h-.448v-1.792h.448zm-.9 0h-.448v-1.792h.448zm-.9 0h-.448v-1.792h.448zm-.9 0h-.448v-1.792h.448zm-.9 0h-.448v-1.792h.448zm-.9 0h-.448v-1.792h.448zm-.9 0h-.448v-1.792h.448zm-.816 0h-.532v-1.792h.448zm-.9 0h-.532v-1.792h.448zm-.9 0h-.532v-1.792h.448zm-.984 0h-.448v-1.792h.448zm-.9 0h-.448v-1.792h.448zm-.9 0h-.448v-1.792h.448zm-3.486 0h-.547v-1.792h.45zm-1 0h-.448v-1.792h.448zm-.9 0h-.448v-1.792h.448zm-.9 0h-.448v-1.792h.448zm-.783 0h-.448v-1.792h.33zm-.9 0h-.45v-1.792h.332zm-.9 0h-.45v-1.792h.332zm-1.017 0h-.45v-1.792h.45zm-.77 0h-.58v-1.792h.45zm-1.03 0h-.45v-1.792h.45zm-.9 0h-.45v-1.792h.45zm-.9 0h-.45v-1.792h.45zm-.9 0h-.45v-1.792h.45zm-.9 0h-.45v-1.792h.45zM44.677 32.5v.87h.29v-.87zm-.145 1.155a.29.29 0 0 0-.29.29v1.744a.29.29 0 0 0 .29.29h.58a.29.29 0 0 0 .29-.29v-1.74a.29.29 0 0 0-.29-.29zm.145 2.614v.87h.29v-.87zM53.97 23.63h.87v-.29h-.87zm1.16.15a.29.29 0 0 0 .288.29h1.74a.29.29 0 0 0 .29-.29v-.58a.29.29 0 0 0-.29-.29H55.42a.29.29 0 0 0-.29.288zm2.608-.14h.87v-.29h-.87zm1.419-.39a.166.166 0 0 0-.166.166v1.994l.043.1 2.032 2.717h5.39a.166.166 0 1 0 0-.332h-5.224l-1.907-2.53v-1.95a.166.166 0 0 0-.166-.165z"/><path d="M53.852 25.9a.166.166 0 0 0 0 .332h3.9l2.654 3.98h6.05a.166.166 0 1 0 0-.33h-5.89L57.914 25.9zm1.328 5.976l-.125.04-1.95 1.95h-3.9a.166.166 0 1 0 0 .332h3.977l.124-.04 1.95-1.95h11.2a.166.166 0 1 0 0-.332zm1.326 2.654l-.128.04-1.99 1.992-.042.124v1.992a.166.166 0 1 0 .332 0V36.77l1.908-1.908h9.87a.166.166 0 1 0 0-.332zm-9.652-11.27l-.122.04-1.958 1.958-.04.123v5.877a.163.163 0 0 0 .325 0v-5.8l1.876-1.877h5.8a.163.163 0 0 0 0-.326zm5.428 1.876a1.1 1.1 0 1 0 1.1 1.1 1.1 1.1 0 0 0-1.1-1.1zm0 .245a.857.857 0 1 1-.857.858.857.857 0 0 1 .857-.857zm-.765.858a.765.765 0 1 0 .765-.765.765.765 0 0 0-.765.765z"/><path d="M48.08 25.87l-1.368 2.04-.02.082V38.44a.163.163 0 0 0 .326 0V28.052l1.224-1.853h1.877a.163.163 0 1 0 0-.326zm13.14 12.12a1.1 1.1 0 1 0 1.1-1.1 1.1 1.1 0 0 0-1.1 1.1zm1.957 0a.857.857 0 1 1-.857-.858.857.857 0 0 1 .857.86zm-1.622 0a.765.765 0 1 0 .765-.766.765.765 0 0 0-.765.767z"/><path d="M48.65 28.482v4.244h4.244V29.3l-.04-.122-.654-.653-.122-.04zm3.917.9V32.4h-3.59v-3.592H52zm5.387 8.894a.163.163 0 1 0 0 .326h2.612a.163.163 0 0 0 0-.326zm4.521-16.353a.166.166 0 0 0-.166.166v1.986l.04.124 1.992 1.99.124.042h1.99a.166.166 0 1 0 0-.332h-1.908L62.64 24v-1.91a.166.166 0 0 0-.165-.167zM48.647 35.33v4.244h4.244v-3.428l-.04-.122-.653-.653-.123-.04zm6.533 5.546l-.125.04-1.95 1.95h-3.9a.166.166 0 1 0 0 .332h3.977l.124-.04 1.95-1.95h11.2a.166.166 0 1 0 0-.332zm1.326 2.654l-.128.04-1.99 1.992-.042.124v1.992a.166.166 0 1 0 .332 0V45.77l1.908-1.908h9.87a.166.166 0 1 0 0-.332zm4.714 3.46a1.1 1.1 0 1 0 1.1-1.1 1.1 1.1 0 0 0-1.1 1.1zm1.957 0a.857.857 0 1 1-.857-.858.857.857 0 0 1 .857.86zm-1.622 0a.765.765 0 1 0 .765-.766.765.765 0 0 0-.765.767zM37.38 45.33v4.244h4.243v-3.428l-.04-.122-.654-.653-.124-.04zm20.574 1.946a.163.163 0 1 0 0 .326h2.612a.163.163 0 0 0 0-.326zm-9.307-2.946v4.244h4.244v-3.428l-.04-.122-.653-.653-.123-.04zm3.917.9v3.02h-3.592v-3.594h3.02zm-8.144-5.556a1.1 1.1 0 1 0 1.1-1.1 1.1 1.1 0 0 0-1.1 1.1zm1.957 0a.857.857 0 1 1-.857-.857.857.857 0 0 1 .857.86zm-1.622 0a.765.765 0 1 0 .765-.765.765.765 0 0 0-.765.766zm-.335 3a1.1 1.1 0 1 0 1.1-1.1 1.1 1.1 0 0 0-1.1 1.1zm1.957 0a.857.857 0 1 1-.857-.857.857.857 0 0 1 .857.86zm-1.622 0a.765.765 0 1 0 .765-.765.765.765 0 0 0-.765.766zm-.335 3a1.1 1.1 0 1 0 1.1-1.1 1.1 1.1 0 0 0-1.1 1.1zm1.957 0a.857.857 0 1 1-.857-.857.857.857 0 0 1 .857.86zm-1.622 0a.765.765 0 1 0 .765-.765.765.765 0 0 0-.765.766zm-.335 2.796a1.1 1.1 0 1 0 1.1-1.1 1.1 1.1 0 0 0-1.1 1.1zm1.957 0a.857.857 0 1 1-.857-.856.857.857 0 0 1 .857.86zm-1.622 0a.765.765 0 1 0 .765-.764.765.765 0 0 0-.765.767zM24.76 46.25l-.125.043-1.95 1.95h-3.9a.166.166 0 0 0 0 .33h3.982l.124-.04 1.95-1.95h11.2a.166.166 0 1 0 0-.33zM4.778 44.575l-.124.04-1.99 1.992-.042.124v1.992a.166.166 0 0 0 .332 0v-1.908l1.908-1.908h9.87a.166.166 0 1 0 0-.332zm12.845 1.555h.87v-.29h-.87zm1.16.15a.29.29 0 0 0 .29.29h1.738a.29.29 0 0 0 .292-.29v-.58a.29.29 0 0 0-.29-.29h-1.738a.29.29 0 0 0-.29.288zm2.61-.14h.87v-.29h-.87zM3.623 49.3h.87v-.29h-.87zm1.16.148a.29.29 0 0 0 .29.29H6.81a.29.29 0 0 0 .292-.288v-.58a.29.29 0 0 0-.29-.29H5.075a.29.29 0 0 0-.29.288zm2.61-.138h.87v-.29h-.87zM20.984 3.3h.87v-.295h-.87zm1.16.143a.29.29 0 0 0 .29.29h1.738a.29.29 0 0 0 .29-.288v-.58a.29.29 0 0 0-.288-.29h-1.74a.29.29 0 0 0-.29.288zm2.608-.138h.87v-.29h-.87zM1.56 3.574v15h5.06v-15zm4.218 13.782H2.406V4.793h3.372zM2.906 5.293v11.563h2.372V5.293zM1.184 7.317h-.4a.4.4 0 0 1-.4-.4v-1.19a.4.4 0 0 1 .4-.4h.4zm0 3h-.4a.4.4 0 0 1-.4-.4v-1.19a.4.4 0 0 1 .4-.4h.4zm0 3.003h-.4a.4.4 0 0 1-.4-.4v-1.192a.4.4 0 0 1 .4-.4h.4zm0 3h-.4a.4.4 0 0 1-.4-.4v-1.192a.4.4 0 0 1 .4-.4h.4zM30.78.26l-.126.04-1.99 1.994-.042.124v1.99a.166.166 0 0 0 .332 0V2.5L30.862.593h9.87a.166.166 0 0 0 0-.332zM15.466.258L15.59.3l1.99 1.994.042.124v1.99a.166.166 0 1 1-.332 0V2.5L15.383.593h-9.87a.166.166 0 1 1 0-.332zm48.769.584l1.365 2.04.02.082V13.41a.163.163 0 0 1-.326 0V3.026L64.07 1.168h-1.876a.163.163 0 0 1 0-.326zm-9.612.458h.87V1h-.87zm1.164.148a.29.29 0 0 0 .29.29h1.738a.29.29 0 0 0 .29-.288V.86a.29.29 0 0 0-.292-.286h-1.74a.29.29 0 0 0-.29.29zm2.605-.148h.87v-.29h-.87zM50.52.37a1.1 1.1 0 1 0 1.1 1.1 1.1 1.1 0 0 0-1.1-1.1zm0 .246a.857.857 0 1 1-.857.857.857.857 0 0 1 .857-.857zm-.765.857a.765.765 0 1 0 .765-.765.765.765 0 0 0-.765.765zM47.52.37a1.1 1.1 0 1 0 1.1 1.1 1.1 1.1 0 0 0-1.1-1.1zm0 .246a.857.857 0 1 1-.857.857.857.857 0 0 1 .857-.857zm-.765.857a.765.765 0 1 0 .765-.765.765.765 0 0 0-.765.765zM44.52.37a1.1 1.1 0 1 0 1.1 1.1 1.1 1.1 0 0 0-1.1-1.1zm0 .246a.857.857 0 1 1-.857.857.857.857 0 0 1 .857-.857zm-.765.857a.765.765 0 1 0 .765-.765.765.765 0 0 0-.765.765z"/></g></svg>