<svg width="722" height="502" viewBox="0 0 722 502" fill="none" xmlns="http://www.w3.org/2000/svg">
<rect width="722" height="502" fill="white"/>
<path d="M85.1367 76.3438V78.1719C82.6523 78.3125 81.0586 78.5 80.3555 78.7344C79.6523 78.9688 79.3008 79.4609 79.3008 80.2109C79.3008 80.5391 79.3594 80.9023 79.4766 81.3008C79.6172 81.6758 79.9219 82.3672 80.3906 83.375L89.3906 100.672H89.9883L97.7227 88.0156C98.2148 87.2422 98.7305 86.293 99.2695 85.168C100.09 83.457 100.5 82.1914 100.5 81.3711C100.5 80.1055 99.9961 79.2617 98.9883 78.8398C98.3086 78.5586 96.8086 78.3359 94.4883 78.1719V76.3438H110.309V78.1719C109.16 78.3828 108.246 78.6289 107.566 78.9102C106.699 79.3555 105.973 80.0352 105.387 80.9492L91.6406 103.344V116.598C91.6406 119.34 92.1094 121.109 93.0469 121.906C93.9844 122.68 95.7422 123.102 98.3203 123.172V125H73.3242V123.172C75.9961 123.102 77.7656 122.645 78.6328 121.801C79.5234 120.957 79.9688 119.223 79.9688 116.598V106.016L66.8203 82.1094C65.9531 80.5391 64.8867 79.4375 63.6211 78.8047C62.7773 78.4062 61.9219 78.1953 61.0547 78.1719V76.3438H85.1367Z" fill="black"/>
<path d="M105.598 108.512C105.598 103.496 107.133 99.3125 110.203 95.9609C113.297 92.6094 117.176 90.9336 121.84 90.9336C126.598 90.9336 130.488 92.6445 133.512 96.0664C136.559 99.4883 138.082 103.637 138.082 108.512C138.082 113.316 136.582 117.453 133.582 120.922C130.582 124.367 126.668 126.09 121.84 126.09C117.152 126.09 113.273 124.414 110.203 121.062C107.133 117.688 105.598 113.504 105.598 108.512ZM116.18 108.512C116.18 113.551 116.438 117.078 116.953 119.094C117.773 122.211 119.402 123.77 121.84 123.77C124.16 123.77 125.684 122.574 126.41 120.184C127.137 117.793 127.5 113.902 127.5 108.512C127.5 103.145 127.113 99.2656 126.34 96.875C125.59 94.4609 124.102 93.2539 121.875 93.2539C119.438 93.2539 117.809 94.8125 116.988 97.9297C116.449 100.016 116.18 103.543 116.18 108.512Z" fill="black"/>
<path d="M154.746 91.8477V116.281C154.746 117.734 154.922 118.801 155.273 119.48C155.883 120.676 157.09 121.273 158.895 121.273C160.043 121.273 161.168 120.91 162.27 120.184C162.902 119.785 163.699 119.117 164.66 118.18V97.7539C164.66 96.2539 164.355 95.2109 163.746 94.625C163.16 94.0156 161.965 93.6758 160.16 93.6055V91.8477H174.504V117.758C174.504 119.258 174.785 120.301 175.348 120.887C175.91 121.449 177.012 121.801 178.652 121.941V123.594C174.199 124.016 171.387 124.332 170.215 124.543C169.066 124.73 167.215 125.223 164.66 126.02V121.273C162.949 122.75 161.531 123.793 160.406 124.402C158.438 125.48 156.387 126.02 154.254 126.02C151.934 126.02 149.766 125.281 147.75 123.805C145.758 122.328 144.762 119.703 144.762 115.93V97.7539C144.762 96.2305 144.516 95.2344 144.023 94.7656C143.531 94.2969 142.582 93.9102 141.176 93.6055V91.8477H154.746Z" fill="black"/>
<path d="M181.395 123.277C182.777 123.113 183.738 122.785 184.277 122.293C184.816 121.801 185.109 120.852 185.156 119.445L185.227 117.336V97.7539C185.227 96.2539 184.969 95.2344 184.453 94.6953C183.938 94.1562 182.918 93.793 181.395 93.6055V91.8477H195.07V97.5078C196.594 95.5156 198.105 93.9336 199.605 92.7617C201.105 91.5898 202.84 91.0039 204.809 91.0039C206.285 91.0039 207.609 91.4844 208.781 92.4453C209.977 93.3828 210.574 94.7656 210.574 96.5938C210.574 98 210.152 99.1602 209.309 100.074C208.488 100.988 207.41 101.445 206.074 101.445C204.551 101.445 203.227 100.73 202.102 99.3008C201 97.8711 200.227 97.1562 199.781 97.1562C198.82 97.1562 197.848 97.7539 196.863 98.9492C195.902 100.121 195.422 101.809 195.422 104.012V117.617C195.422 120.008 195.762 121.508 196.441 122.117C197.145 122.703 198.527 123.09 200.59 123.277V125H181.395V123.277Z" fill="black"/>
<path d="M233.145 80.8438C233.145 79.2969 233.684 77.9844 234.762 76.9062C235.863 75.8047 237.188 75.2539 238.734 75.2539C240.258 75.2539 241.559 75.8047 242.637 76.9062C243.738 77.9844 244.289 79.2969 244.289 80.8438C244.289 82.3906 243.738 83.7148 242.637 84.8164C241.559 85.8945 240.258 86.4336 238.734 86.4336C237.188 86.4336 235.863 85.8945 234.762 84.8164C233.684 83.7148 233.145 82.3906 233.145 80.8438ZM229.98 123.277C231.246 123.066 232.113 122.75 232.582 122.328C233.285 121.695 233.637 120.559 233.637 118.918V97.7539C233.637 96.3008 233.391 95.3164 232.898 94.8008C232.406 94.2617 231.434 93.8633 229.98 93.6055V91.8477H243.797V119.199C243.797 120.77 244.031 121.777 244.5 122.223C244.969 122.668 245.848 123.02 247.137 123.277V125H229.98V123.277Z" fill="black"/>
<path d="M250.02 123.277C251.332 123.113 252.293 122.762 252.902 122.223C253.535 121.66 253.852 120.559 253.852 118.918V97.7539C253.852 96.3008 253.594 95.293 253.078 94.7305C252.586 94.168 251.566 93.793 250.02 93.6055V91.8477H263.66V97.0156C264.809 95.2812 266.262 93.8516 268.02 92.7266C269.801 91.5781 271.77 91.0039 273.926 91.0039C277.02 91.0039 279.41 91.8008 281.098 93.3945C282.809 94.9883 283.664 97.7891 283.664 101.797V119.199C283.664 120.816 283.934 121.859 284.473 122.328C285.035 122.797 285.961 123.113 287.25 123.277V125H270.34V123.277C271.629 123.02 272.508 122.668 272.977 122.223C273.445 121.777 273.68 120.77 273.68 119.199V101.762C273.68 100.121 273.516 98.8906 273.188 98.0703C272.625 96.5938 271.512 95.8555 269.848 95.8555C268.605 95.8555 267.457 96.3125 266.402 97.2266C265.371 98.1172 264.574 99.0195 264.012 99.9336V119.199C264.012 120.77 264.246 121.777 264.715 122.223C265.184 122.668 266.062 123.02 267.352 123.277V125H250.02V123.277Z" fill="black"/>
<path d="M308.098 91.8477V93.6055C306.832 93.6523 305.871 93.793 305.215 94.0273C304.582 94.2617 304.266 94.7656 304.266 95.5391C304.266 95.7266 304.348 96.0781 304.512 96.5938C304.699 97.0859 304.84 97.4492 304.934 97.6836L310.348 111.5H310.91L315.762 99.1953C315.996 98.6094 316.184 98.0117 316.324 97.4023C316.488 96.793 316.57 96.3125 316.57 95.9609C316.57 94.9531 316.23 94.3203 315.551 94.0625C314.871 93.7812 313.887 93.6289 312.598 93.6055V91.8477H323.496V93.6055C322.535 93.6758 321.75 93.9922 321.141 94.5547C320.531 95.0938 319.934 96.0781 319.348 97.5078L307.746 126.02H305.918L297.27 104.68C296.66 103.18 296.062 101.773 295.477 100.461C294.914 99.1484 294.316 97.8711 293.684 96.6289C293.027 95.3633 292.512 94.5664 292.137 94.2383C291.762 93.9102 291.082 93.6992 290.098 93.6055V91.8477H308.098Z" fill="black"/>
<path d="M326.52 108.512C326.52 103.496 328.055 99.3125 331.125 95.9609C334.219 92.6094 338.098 90.9336 342.762 90.9336C347.52 90.9336 351.41 92.6445 354.434 96.0664C357.48 99.4883 359.004 103.637 359.004 108.512C359.004 113.316 357.504 117.453 354.504 120.922C351.504 124.367 347.59 126.09 342.762 126.09C338.074 126.09 334.195 124.414 331.125 121.062C328.055 117.688 326.52 113.504 326.52 108.512ZM337.102 108.512C337.102 113.551 337.359 117.078 337.875 119.094C338.695 122.211 340.324 123.77 342.762 123.77C345.082 123.77 346.605 122.574 347.332 120.184C348.059 117.793 348.422 113.902 348.422 108.512C348.422 103.145 348.035 99.2656 347.262 96.875C346.512 94.4609 345.023 93.2539 342.797 93.2539C340.359 93.2539 338.73 94.8125 337.91 97.9297C337.371 100.016 337.102 103.543 337.102 108.512Z" fill="black"/>
<path d="M365.262 80.8438C365.262 79.2969 365.801 77.9844 366.879 76.9062C367.98 75.8047 369.305 75.2539 370.852 75.2539C372.375 75.2539 373.676 75.8047 374.754 76.9062C375.855 77.9844 376.406 79.2969 376.406 80.8438C376.406 82.3906 375.855 83.7148 374.754 84.8164C373.676 85.8945 372.375 86.4336 370.852 86.4336C369.305 86.4336 367.98 85.8945 366.879 84.8164C365.801 83.7148 365.262 82.3906 365.262 80.8438ZM362.098 123.277C363.363 123.066 364.23 122.75 364.699 122.328C365.402 121.695 365.754 120.559 365.754 118.918V97.7539C365.754 96.3008 365.508 95.3164 365.016 94.8008C364.523 94.2617 363.551 93.8633 362.098 93.6055V91.8477H375.914V119.199C375.914 120.77 376.148 121.777 376.617 122.223C377.086 122.668 377.965 123.02 379.254 123.277V125H362.098V123.277Z" fill="black"/>
<path d="M399.539 90.9336C402.562 90.9336 405.176 91.6719 407.379 93.1484C409.605 94.625 410.719 96.5234 410.719 98.8438C410.719 100.086 410.273 101.164 409.383 102.078C408.516 102.992 407.402 103.449 406.043 103.449C405.129 103.449 404.332 103.238 403.652 102.816C402.363 102.066 401.719 100.707 401.719 98.7383C401.719 98.5273 401.73 98.2227 401.754 97.8242C401.777 97.4023 401.789 96.957 401.789 96.4883C401.789 95.2227 401.496 94.3555 400.91 93.8867C400.301 93.418 399.609 93.1836 398.836 93.1836C396.609 93.1836 395.027 94.4141 394.09 96.875C393.152 99.3125 392.684 102.113 392.684 105.277C392.684 109.777 393.574 113.551 395.355 116.598C397.137 119.645 399.539 121.168 402.562 121.168C404.461 121.168 406.078 120.746 407.414 119.902C408.211 119.41 409.195 118.508 410.367 117.195L411.703 118.426C409.359 121.684 406.617 123.922 403.477 125.141C401.812 125.773 400.043 126.09 398.168 126.09C393.551 126.09 389.777 124.438 386.848 121.133C383.918 117.828 382.453 113.797 382.453 109.039C382.453 104.023 384 99.7578 387.094 96.2422C390.211 92.7031 394.359 90.9336 399.539 90.9336Z" fill="black"/>
<path d="M414.586 108.477C414.586 102.945 416.051 98.6562 418.98 95.6094C421.934 92.5391 425.484 91.0039 429.633 91.0039C432 91.0039 434.227 91.625 436.312 92.8672C438.398 94.1094 440.004 95.832 441.129 98.0352C441.973 99.6992 442.559 101.855 442.887 104.504C443.051 105.746 443.133 106.695 443.133 107.352H424.781C424.945 110.234 425.414 112.73 426.188 114.84C427.594 118.801 430.066 120.781 433.605 120.781C435.293 120.781 436.887 120.254 438.387 119.199C439.301 118.566 440.438 117.5 441.797 116L443.449 117.02C441.223 120.676 438.645 123.219 435.715 124.648C433.816 125.562 431.637 126.02 429.176 126.02C425.637 126.02 422.32 124.625 419.227 121.836C416.133 119.047 414.586 114.594 414.586 108.477ZM434.273 104.68C434.227 100.438 433.898 97.4727 433.289 95.7852C432.68 94.0977 431.461 93.2539 429.633 93.2539C427.758 93.2539 426.469 94.2266 425.766 96.1719C425.086 98.1172 424.699 100.953 424.605 104.68H434.273Z" fill="black"/>
<rect x="60.75" y="183.75" width="124.301" height="58.5" rx="9.25" fill="url(#paint0_linear_36_681)"/>
<path d="M90 216.838L92.6807 216.604C92.8076 217.678 93.1006 218.562 93.5596 219.255C94.0283 219.938 94.751 220.495 95.7275 220.925C96.7041 221.345 97.8027 221.555 99.0234 221.555C100.107 221.555 101.064 221.394 101.895 221.071C102.725 220.749 103.34 220.31 103.74 219.753C104.15 219.187 104.355 218.571 104.355 217.907C104.355 217.233 104.16 216.647 103.77 216.149C103.379 215.642 102.734 215.217 101.836 214.875C101.26 214.65 99.9854 214.304 98.0127 213.835C96.04 213.356 94.6582 212.907 93.8672 212.487C92.8418 211.95 92.0752 211.286 91.5674 210.495C91.0693 209.694 90.8203 208.801 90.8203 207.814C90.8203 206.73 91.1279 205.72 91.7432 204.782C92.3584 203.835 93.2568 203.117 94.4385 202.629C95.6201 202.141 96.9336 201.896 98.3789 201.896C99.9707 201.896 101.372 202.155 102.583 202.673C103.804 203.181 104.741 203.933 105.396 204.929C106.05 205.925 106.401 207.053 106.45 208.312L103.726 208.518C103.579 207.16 103.081 206.135 102.231 205.441C101.392 204.748 100.146 204.401 98.4961 204.401C96.7773 204.401 95.5225 204.719 94.7314 205.354C93.9502 205.979 93.5596 206.735 93.5596 207.624C93.5596 208.396 93.8379 209.03 94.3945 209.528C94.9414 210.026 96.3672 210.539 98.6719 211.066C100.986 211.584 102.573 212.038 103.433 212.429C104.683 213.005 105.605 213.737 106.201 214.626C106.797 215.505 107.095 216.521 107.095 217.673C107.095 218.815 106.768 219.895 106.113 220.91C105.459 221.916 104.517 222.702 103.286 223.269C102.065 223.825 100.688 224.104 99.1553 224.104C97.2119 224.104 95.5811 223.82 94.2627 223.254C92.9541 222.688 91.9238 221.838 91.1719 220.705C90.4297 219.562 90.0391 218.273 90 216.838Z" fill="black"/>
<path d="M120.791 221.818C119.814 222.648 118.872 223.234 117.964 223.576C117.065 223.918 116.099 224.089 115.063 224.089C113.354 224.089 112.041 223.674 111.123 222.844C110.205 222.004 109.746 220.935 109.746 219.636C109.746 218.874 109.917 218.181 110.259 217.556C110.61 216.921 111.064 216.413 111.621 216.032C112.188 215.651 112.822 215.363 113.525 215.168C114.043 215.031 114.824 214.899 115.869 214.772C117.998 214.519 119.565 214.216 120.571 213.864C120.581 213.503 120.586 213.273 120.586 213.176C120.586 212.102 120.337 211.345 119.839 210.905C119.165 210.31 118.164 210.012 116.836 210.012C115.596 210.012 114.678 210.231 114.082 210.671C113.496 211.101 113.062 211.867 112.778 212.971L110.2 212.619C110.435 211.516 110.82 210.627 111.357 209.953C111.895 209.27 112.671 208.747 113.687 208.386C114.702 208.015 115.879 207.829 117.217 207.829C118.545 207.829 119.624 207.985 120.454 208.298C121.284 208.61 121.895 209.006 122.285 209.484C122.676 209.953 122.949 210.549 123.105 211.271C123.193 211.721 123.237 212.531 123.237 213.703V217.219C123.237 219.67 123.291 221.223 123.398 221.877C123.516 222.521 123.74 223.142 124.072 223.737H121.318C121.045 223.19 120.869 222.551 120.791 221.818ZM120.571 215.93C119.614 216.32 118.179 216.652 116.265 216.926C115.181 217.082 114.414 217.258 113.965 217.453C113.516 217.648 113.169 217.937 112.925 218.317C112.681 218.688 112.559 219.104 112.559 219.562C112.559 220.266 112.822 220.852 113.35 221.32C113.887 221.789 114.668 222.023 115.693 222.023C116.709 222.023 117.612 221.804 118.403 221.364C119.194 220.915 119.775 220.305 120.146 219.533C120.43 218.938 120.571 218.059 120.571 216.896V215.93Z" fill="black"/>
<path d="M131.66 223.737L125.742 208.181H128.525L131.865 217.497C132.227 218.503 132.559 219.548 132.861 220.632C133.096 219.812 133.423 218.825 133.843 217.673L137.3 208.181H140.01L134.121 223.737H131.66Z" fill="black"/>
<path d="M152.988 218.728L155.713 219.064C155.283 220.656 154.487 221.892 153.325 222.771C152.163 223.649 150.679 224.089 148.872 224.089C146.597 224.089 144.79 223.391 143.452 221.994C142.124 220.588 141.46 218.62 141.46 216.091C141.46 213.474 142.134 211.442 143.481 209.997C144.829 208.552 146.577 207.829 148.726 207.829C150.806 207.829 152.505 208.537 153.823 209.953C155.142 211.369 155.801 213.361 155.801 215.93C155.801 216.086 155.796 216.32 155.786 216.633H144.185C144.282 218.342 144.766 219.65 145.635 220.559C146.504 221.467 147.588 221.921 148.887 221.921C149.854 221.921 150.679 221.667 151.362 221.159C152.046 220.651 152.588 219.841 152.988 218.728ZM144.331 214.465H153.018C152.9 213.156 152.568 212.175 152.021 211.521C151.182 210.505 150.093 209.997 148.755 209.997C147.544 209.997 146.523 210.402 145.693 211.213C144.873 212.023 144.419 213.107 144.331 214.465Z" fill="black"/>
<rect x="60.75" y="183.75" width="124.301" height="58.5" rx="9.25" stroke="#767676" stroke-width="1.5"/>
<rect x="60.75" y="273.75" width="117.68" height="58.5" rx="9.25" fill="url(#paint1_linear_36_681)"/>
<path d="M90 313.635V292.16H98.1006C99.5264 292.16 100.615 292.229 101.367 292.365C102.422 292.541 103.306 292.878 104.019 293.376C104.731 293.864 105.303 294.553 105.732 295.441C106.172 296.33 106.392 297.307 106.392 298.371C106.392 300.197 105.811 301.745 104.648 303.015C103.486 304.274 101.387 304.904 98.3496 304.904H92.8418V313.635H90ZM92.8418 302.37H98.3936C100.229 302.37 101.533 302.028 102.305 301.345C103.076 300.661 103.462 299.699 103.462 298.459C103.462 297.561 103.232 296.794 102.773 296.159C102.324 295.515 101.729 295.09 100.986 294.885C100.508 294.758 99.624 294.694 98.335 294.694H92.8418V302.37Z" fill="black"/>
<path d="M109.644 313.635V298.078H112.017V300.437C112.622 299.333 113.179 298.605 113.687 298.254C114.204 297.902 114.771 297.727 115.386 297.727C116.274 297.727 117.178 298.01 118.096 298.576L117.188 301.022C116.543 300.642 115.898 300.451 115.254 300.451C114.678 300.451 114.16 300.627 113.701 300.979C113.242 301.32 112.915 301.799 112.72 302.414C112.427 303.352 112.28 304.377 112.28 305.49V313.635H109.644Z" fill="black"/>
<path d="M119.678 295.192V292.16H122.314V295.192H119.678ZM119.678 313.635V298.078H122.314V313.635H119.678Z" fill="black"/>
<path d="M126.343 313.635V298.078H128.716V300.29C129.858 298.581 131.509 297.727 133.667 297.727C134.604 297.727 135.464 297.897 136.245 298.239C137.036 298.571 137.627 299.011 138.018 299.558C138.408 300.104 138.682 300.754 138.838 301.506C138.936 301.994 138.984 302.849 138.984 304.069V313.635H136.348V304.172C136.348 303.098 136.245 302.297 136.04 301.77C135.835 301.232 135.469 300.808 134.941 300.495C134.424 300.173 133.813 300.012 133.11 300.012C131.987 300.012 131.016 300.368 130.195 301.081C129.385 301.794 128.979 303.146 128.979 305.139V313.635H126.343Z" fill="black"/>
<path d="M148.799 311.276L149.18 313.605C148.438 313.762 147.773 313.84 147.188 313.84C146.23 313.84 145.488 313.688 144.961 313.386C144.434 313.083 144.062 312.688 143.848 312.199C143.633 311.701 143.525 310.661 143.525 309.079V300.129H141.592V298.078H143.525V294.226L146.147 292.644V298.078H148.799V300.129H146.147V309.226C146.147 309.978 146.191 310.461 146.279 310.676C146.377 310.891 146.528 311.062 146.733 311.188C146.948 311.315 147.251 311.379 147.642 311.379C147.935 311.379 148.32 311.345 148.799 311.276Z" fill="black"/>
<rect x="60.75" y="273.75" width="117.68" height="58.5" rx="9.25" stroke="#767676" stroke-width="1.5"/>
<rect x="60.75" y="363.75" width="135.99" height="58.5" rx="9.25" fill="url(#paint2_linear_36_681)"/>
<path d="M90 396.838L92.6807 396.604C92.8076 397.678 93.1006 398.562 93.5596 399.255C94.0283 399.938 94.751 400.495 95.7275 400.925C96.7041 401.345 97.8027 401.555 99.0234 401.555C100.107 401.555 101.064 401.394 101.895 401.071C102.725 400.749 103.34 400.31 103.74 399.753C104.15 399.187 104.355 398.571 104.355 397.907C104.355 397.233 104.16 396.647 103.77 396.149C103.379 395.642 102.734 395.217 101.836 394.875C101.26 394.65 99.9854 394.304 98.0127 393.835C96.04 393.356 94.6582 392.907 93.8672 392.487C92.8418 391.95 92.0752 391.286 91.5674 390.495C91.0693 389.694 90.8203 388.801 90.8203 387.814C90.8203 386.73 91.1279 385.72 91.7432 384.782C92.3584 383.835 93.2568 383.117 94.4385 382.629C95.6201 382.141 96.9336 381.896 98.3789 381.896C99.9707 381.896 101.372 382.155 102.583 382.673C103.804 383.181 104.741 383.933 105.396 384.929C106.05 385.925 106.401 387.053 106.45 388.312L103.726 388.518C103.579 387.16 103.081 386.135 102.231 385.441C101.392 384.748 100.146 384.401 98.4961 384.401C96.7773 384.401 95.5225 384.719 94.7314 385.354C93.9502 385.979 93.5596 386.735 93.5596 387.624C93.5596 388.396 93.8379 389.03 94.3945 389.528C94.9414 390.026 96.3672 390.539 98.6719 391.066C100.986 391.584 102.573 392.038 103.433 392.429C104.683 393.005 105.605 393.737 106.201 394.626C106.797 395.505 107.095 396.521 107.095 397.673C107.095 398.815 106.768 399.895 106.113 400.91C105.459 401.916 104.517 402.702 103.286 403.269C102.065 403.825 100.688 404.104 99.1553 404.104C97.2119 404.104 95.5811 403.82 94.2627 403.254C92.9541 402.688 91.9238 401.838 91.1719 400.705C90.4297 399.562 90.0391 398.273 90 396.838Z" fill="black"/>
<path d="M110.64 403.737V382.263H113.276V389.968C114.507 388.542 116.06 387.829 117.935 387.829C119.087 387.829 120.088 388.059 120.938 388.518C121.787 388.967 122.393 389.592 122.754 390.393C123.125 391.193 123.311 392.355 123.311 393.879V403.737H120.674V393.879C120.674 392.561 120.386 391.604 119.81 391.008C119.243 390.402 118.438 390.1 117.393 390.1C116.611 390.1 115.874 390.305 115.181 390.715C114.497 391.115 114.009 391.662 113.716 392.355C113.423 393.049 113.276 394.006 113.276 395.227V403.737H110.64Z" fill="black"/>
<path d="M137.49 401.818C136.514 402.648 135.571 403.234 134.663 403.576C133.765 403.918 132.798 404.089 131.763 404.089C130.054 404.089 128.74 403.674 127.822 402.844C126.904 402.004 126.445 400.935 126.445 399.636C126.445 398.874 126.616 398.181 126.958 397.556C127.31 396.921 127.764 396.413 128.32 396.032C128.887 395.651 129.521 395.363 130.225 395.168C130.742 395.031 131.523 394.899 132.568 394.772C134.697 394.519 136.265 394.216 137.271 393.864C137.28 393.503 137.285 393.273 137.285 393.176C137.285 392.102 137.036 391.345 136.538 390.905C135.864 390.31 134.863 390.012 133.535 390.012C132.295 390.012 131.377 390.231 130.781 390.671C130.195 391.101 129.761 391.867 129.478 392.971L126.899 392.619C127.134 391.516 127.52 390.627 128.057 389.953C128.594 389.27 129.37 388.747 130.386 388.386C131.401 388.015 132.578 387.829 133.916 387.829C135.244 387.829 136.323 387.985 137.153 388.298C137.983 388.61 138.594 389.006 138.984 389.484C139.375 389.953 139.648 390.549 139.805 391.271C139.893 391.721 139.937 392.531 139.937 393.703V397.219C139.937 399.67 139.99 401.223 140.098 401.877C140.215 402.521 140.439 403.142 140.771 403.737H138.018C137.744 403.19 137.568 402.551 137.49 401.818ZM137.271 395.93C136.313 396.32 134.878 396.652 132.964 396.926C131.88 397.082 131.113 397.258 130.664 397.453C130.215 397.648 129.868 397.937 129.624 398.317C129.38 398.688 129.258 399.104 129.258 399.562C129.258 400.266 129.521 400.852 130.049 401.32C130.586 401.789 131.367 402.023 132.393 402.023C133.408 402.023 134.312 401.804 135.103 401.364C135.894 400.915 136.475 400.305 136.846 399.533C137.129 398.938 137.271 398.059 137.271 396.896V395.93Z" fill="black"/>
<path d="M144.009 403.737V388.181H146.382V390.539C146.987 389.436 147.544 388.708 148.052 388.356C148.569 388.005 149.136 387.829 149.751 387.829C150.64 387.829 151.543 388.112 152.461 388.679L151.553 391.125C150.908 390.744 150.264 390.554 149.619 390.554C149.043 390.554 148.525 390.729 148.066 391.081C147.607 391.423 147.28 391.901 147.085 392.517C146.792 393.454 146.646 394.479 146.646 395.593V403.737H144.009Z" fill="black"/>
<path d="M164.678 398.728L167.402 399.064C166.973 400.656 166.177 401.892 165.015 402.771C163.853 403.649 162.368 404.089 160.562 404.089C158.286 404.089 156.479 403.391 155.142 401.994C153.813 400.588 153.149 398.62 153.149 396.091C153.149 393.474 153.823 391.442 155.171 389.997C156.519 388.552 158.267 387.829 160.415 387.829C162.495 387.829 164.194 388.537 165.513 389.953C166.831 391.369 167.49 393.361 167.49 395.93C167.49 396.086 167.485 396.32 167.476 396.633H155.874C155.972 398.342 156.455 399.65 157.324 400.559C158.193 401.467 159.277 401.921 160.576 401.921C161.543 401.921 162.368 401.667 163.052 401.159C163.735 400.651 164.277 399.841 164.678 398.728ZM156.021 394.465H164.707C164.59 393.156 164.258 392.175 163.711 391.521C162.871 390.505 161.782 389.997 160.444 389.997C159.233 389.997 158.213 390.402 157.383 391.213C156.562 392.023 156.108 393.107 156.021 394.465Z" fill="black"/>
<rect x="60.75" y="363.75" width="135.99" height="58.5" rx="9.25" stroke="#767676" stroke-width="1.5"/>
<defs>
<linearGradient id="paint0_linear_36_681" x1="122.9" y1="183" x2="122.9" y2="243" gradientUnits="userSpaceOnUse">
<stop stop-color="#E6E6E6"/>
<stop offset="1" stop-color="#EFEFEF"/>
</linearGradient>
<linearGradient id="paint1_linear_36_681" x1="119.59" y1="273" x2="119.59" y2="333" gradientUnits="userSpaceOnUse">
<stop stop-color="#E6E6E6"/>
<stop offset="1" stop-color="#EFEFEF"/>
</linearGradient>
<linearGradient id="paint2_linear_36_681" x1="128.745" y1="363" x2="128.745" y2="423" gradientUnits="userSpaceOnUse">
<stop stop-color="#E6E6E6"/>
<stop offset="1" stop-color="#EFEFEF"/>
</linearGradient>
</defs>
</svg>
