<svg width="722" height="552" viewBox="0 0 722 552" fill="none" xmlns="http://www.w3.org/2000/svg">
<rect width="722" height="552" fill="#2B2B2B"/>
<path d="M83.5118 61.8554L84.8185 63.9087L74.8103 70.0113L84.8185 76.1282L83.3969 78.1385L72.441 71.2892V68.7046L83.5118 61.8554Z" fill="white"/>
<path d="M92.7261 65.761C93.2621 65.0527 93.8891 64.5022 94.6071 64.1097C95.3346 63.7077 96.1243 63.5067 96.9763 63.5067C98.3165 63.5067 99.403 63.8369 100.236 64.4974C101.069 65.1484 101.676 66.0674 102.059 67.2544C102.442 68.4318 102.634 69.8198 102.634 71.4185C102.634 72.9501 102.404 74.3142 101.945 75.5108C101.485 76.7074 100.81 77.6503 99.9199 78.3395C99.0296 79.0191 97.9336 79.359 96.6317 79.359C94.8991 79.359 93.5445 78.7272 92.5681 77.4636L92.3958 79H89.9691V57.7774L92.7261 57.4472V65.761ZM95.9568 77.1908C97.1438 77.1908 98.058 76.7217 98.6994 75.7836C99.3503 74.8359 99.6758 73.3809 99.6758 71.4185C99.6758 69.4561 99.3838 68.0106 98.7999 67.0821C98.2255 66.1439 97.3927 65.6749 96.3014 65.6749C95.5165 65.6749 94.8225 65.9142 94.2194 66.3928C93.6163 66.8619 93.1185 67.398 92.7261 68.001V75.3241C93.109 75.8985 93.578 76.3532 94.1332 76.6882C94.6885 77.0233 95.2963 77.1908 95.9568 77.1908Z" fill="#F1A381"/>
<path d="M109.953 63.8656V74.52C109.953 75.4773 110.144 76.1665 110.527 76.5877C110.919 76.9993 111.523 77.2051 112.336 77.2051C113.102 77.2051 113.834 76.9802 114.533 76.5303C115.242 76.0803 115.792 75.5443 116.184 74.9221V63.8656H118.941V79H116.572L116.371 77.0041C115.787 77.7699 115.06 78.3538 114.189 78.7559C113.327 79.158 112.451 79.359 111.561 79.359C110.096 79.359 109 78.9617 108.273 78.1672C107.555 77.3727 107.196 76.2718 107.196 74.8646V63.8656H109.953Z" fill="#F1A381"/>
<path d="M136.714 78.2246C136.177 78.5692 135.531 78.8421 134.775 79.0431C134.028 79.2537 133.272 79.359 132.506 79.359C130.822 79.359 129.529 78.9186 128.629 78.038C127.739 77.1573 127.294 76.0133 127.294 74.6062V65.9333H123.862V63.8656H127.294V60.4482L130.051 60.1179V63.8656H135.22L134.904 65.9333H130.051V74.5774C130.051 75.4103 130.262 76.0373 130.683 76.4585C131.114 76.8797 131.827 77.0903 132.822 77.0903C133.377 77.0903 133.89 77.028 134.359 76.9036C134.837 76.7696 135.278 76.5925 135.68 76.3723L136.714 78.2246Z" fill="#F1A381"/>
<path d="M153.94 78.2246C153.404 78.5692 152.758 78.8421 152.002 79.0431C151.255 79.2537 150.499 79.359 149.733 79.359C148.048 79.359 146.756 78.9186 145.856 78.038C144.966 77.1573 144.521 76.0133 144.521 74.6062V65.9333H141.089V63.8656H144.521V60.4482L147.278 60.1179V63.8656H152.447L152.131 65.9333H147.278V74.5774C147.278 75.4103 147.488 76.0373 147.909 76.4585C148.34 76.8797 149.053 77.0903 150.049 77.0903C150.604 77.0903 151.116 77.028 151.585 76.9036C152.064 76.7696 152.504 76.5925 152.906 76.3723L153.94 78.2246Z" fill="#F1A381"/>
<path d="M164.777 63.5067C166.94 63.5067 168.582 64.2246 169.702 65.6605C170.832 67.0964 171.396 69.0157 171.396 71.4185C171.396 72.9788 171.138 74.3573 170.621 75.5538C170.114 76.7504 169.367 77.6838 168.381 78.3538C167.395 79.0239 166.184 79.359 164.748 79.359C162.585 79.359 160.934 78.641 159.794 77.2051C158.665 75.7692 158.1 73.8499 158.1 71.4472C158.1 69.8773 158.354 68.4988 158.861 67.3118C159.378 66.1152 160.129 65.1819 161.115 64.5118C162.111 63.8417 163.331 63.5067 164.777 63.5067ZM164.777 65.7036C163.532 65.7036 162.594 66.1727 161.963 67.1108C161.331 68.0393 161.015 69.4848 161.015 71.4472C161.015 73.3904 161.326 74.8311 161.948 75.7692C162.57 76.6978 163.504 77.1621 164.748 77.1621C165.993 77.1621 166.926 76.6978 167.548 75.7692C168.17 74.8311 168.482 73.3809 168.482 71.4185C168.482 69.4656 168.17 68.025 167.548 67.0964C166.926 66.1679 166.002 65.7036 164.777 65.7036Z" fill="#F1A381"/>
<path d="M176.102 79V63.8656H178.471L178.672 65.9046C179.294 65.1292 180.051 64.5357 180.941 64.1241C181.841 63.7125 182.736 63.5067 183.626 63.5067C185.081 63.5067 186.153 63.9039 186.842 64.6985C187.532 65.4834 187.876 66.5795 187.876 67.9867V79H185.119V69.681C185.119 68.7238 185.062 67.9484 184.947 67.3549C184.842 66.7614 184.617 66.3306 184.272 66.0626C183.928 65.785 183.406 65.6462 182.707 65.6462C181.884 65.6462 181.137 65.8998 180.467 66.4072C179.797 66.9145 179.261 67.4602 178.859 68.0441V79H176.102Z" fill="#F1A381"/>
<path d="M222.846 78.2246C222.31 78.5692 221.664 78.8421 220.908 79.0431C220.161 79.2537 219.405 79.359 218.639 79.359C216.954 79.359 215.662 78.9186 214.762 78.038C213.872 77.1573 213.427 76.0133 213.427 74.6062V65.9333H209.995V63.8656H213.427V60.4482L216.184 60.1179V63.8656H221.353L221.037 65.9333H216.184V74.5774C216.184 75.4103 216.394 76.0373 216.816 76.4585C217.246 76.8797 217.96 77.0903 218.955 77.0903C219.51 77.0903 220.022 77.028 220.491 76.9036C220.97 76.7696 221.41 76.5925 221.813 76.3723L222.846 78.2246Z" fill="#B2DE57"/>
<path d="M240.662 63.8656L235.378 79.0862C235.014 80.1583 234.545 81.1251 233.97 81.9867C233.396 82.8578 232.654 83.5662 231.745 84.1118C230.845 84.6574 229.711 84.9973 228.342 85.1313L227.954 82.9918C228.988 82.8291 229.806 82.5802 230.409 82.2451C231.022 81.9101 231.501 81.4745 231.845 80.9385C232.199 80.4024 232.515 79.7562 232.793 79H231.86L226.647 63.8656H229.591L233.712 76.9897L237.819 63.8656H240.662Z" fill="#B2DE57"/>
<path d="M252.044 63.5067C253.384 63.5067 254.456 63.8369 255.261 64.4974C256.065 65.1484 256.644 66.0674 256.998 67.2544C257.352 68.4318 257.529 69.8198 257.529 71.4185C257.529 72.9501 257.314 74.3142 256.883 75.5108C256.452 76.7074 255.806 77.6503 254.945 78.3395C254.083 79.0191 253.001 79.359 251.699 79.359C250.072 79.359 248.761 78.7846 247.765 77.6359V84.801L245.008 85.1313V63.8656H247.377L247.578 65.9046C248.746 64.306 250.235 63.5067 252.044 63.5067ZM251.341 65.6749C250.556 65.6749 249.862 65.9142 249.258 66.3928C248.655 66.8619 248.158 67.398 247.765 68.001V75.3241C248.148 75.8889 248.617 76.334 249.172 76.6595C249.728 76.9754 250.345 77.1333 251.025 77.1333C252.212 77.1333 253.107 76.6738 253.71 75.7549C254.313 74.8263 254.614 73.3809 254.614 71.4185C254.614 69.4561 254.346 68.0106 253.81 67.0821C253.274 66.1439 252.451 65.6749 251.341 65.6749Z" fill="#B2DE57"/>
<path d="M264.46 72.3662C264.537 74.0318 264.987 75.2427 265.81 75.999C266.643 76.7552 267.629 77.1333 268.768 77.1333C269.524 77.1333 270.218 77.0185 270.85 76.7887C271.482 76.559 272.123 76.2239 272.774 75.7836L274.023 77.521C273.315 78.0858 272.497 78.5357 271.568 78.8708C270.64 79.1962 269.678 79.359 268.682 79.359C267.169 79.359 265.882 79.0287 264.819 78.3682C263.766 77.6981 262.962 76.7696 262.407 75.5826C261.861 74.3956 261.589 73.0171 261.589 71.4472C261.589 69.9251 261.861 68.5658 262.407 67.3692C262.962 66.1727 263.742 65.2297 264.748 64.5405C265.753 63.8513 266.949 63.5067 268.337 63.5067C270.29 63.5067 271.827 64.1768 272.947 65.5169C274.076 66.8475 274.641 68.6711 274.641 70.9877C274.641 71.2462 274.636 71.495 274.627 71.7344C274.617 71.9737 274.603 72.1843 274.583 72.3662H264.46ZM268.366 65.6605C267.284 65.6605 266.389 66.0434 265.681 66.8092C264.973 67.575 264.566 68.7573 264.46 70.3559H271.985C271.956 68.8243 271.621 67.6612 270.979 66.8667C270.348 66.0626 269.476 65.6605 268.366 65.6605Z" fill="#B2DE57"/>
<path d="M291.078 66.1344V68.4605H279.591V66.1344H291.078ZM291.078 71.6769V74.0031H279.591V71.6769H291.078Z" fill="white"/>
<path d="M298.957 65.3303L298.483 57.7774H301.714L301.254 65.3303H298.957ZM303.867 65.3303L303.408 57.7774H306.639L306.165 65.3303H303.867Z" fill="white"/>
<path d="M316.671 65.761C317.207 65.0527 317.834 64.5022 318.552 64.1097C319.28 63.7077 320.07 63.5067 320.922 63.5067C322.262 63.5067 323.348 63.8369 324.181 64.4974C325.014 65.1484 325.622 66.0674 326.005 67.2544C326.388 68.4318 326.579 69.8198 326.579 71.4185C326.579 72.9501 326.349 74.3142 325.89 75.5108C325.43 76.7074 324.755 77.6503 323.865 78.3395C322.975 79.0191 321.879 79.359 320.577 79.359C318.844 79.359 317.49 78.7272 316.513 77.4636L316.341 79H313.914V57.7774L316.671 57.4472V65.761ZM319.902 77.1908C321.089 77.1908 322.003 76.7217 322.645 75.7836C323.296 74.8359 323.621 73.3809 323.621 71.4185C323.621 69.4561 323.329 68.0106 322.745 67.0821C322.171 66.1439 321.338 65.6749 320.247 65.6749C319.462 65.6749 318.768 65.9142 318.165 66.3928C317.562 66.8619 317.064 67.398 316.671 68.001V75.3241C317.054 75.8985 317.523 76.3532 318.079 76.6882C318.634 77.0233 319.242 77.1908 319.902 77.1908Z" fill="#F9D749"/>
<path d="M333.898 63.8656V74.52C333.898 75.4773 334.089 76.1665 334.472 76.5877C334.865 76.9993 335.468 77.2051 336.282 77.2051C337.047 77.2051 337.78 76.9802 338.478 76.5303C339.187 76.0803 339.737 75.5443 340.13 74.9221V63.8656H342.887V79H340.517L340.316 77.0041C339.732 77.7699 339.005 78.3538 338.134 78.7559C337.272 79.158 336.396 79.359 335.506 79.359C334.042 79.359 332.945 78.9617 332.218 78.1672C331.5 77.3727 331.141 76.2718 331.141 74.8646V63.8656H333.898Z" fill="#F9D749"/>
<path d="M360.659 78.2246C360.123 78.5692 359.477 78.8421 358.72 79.0431C357.974 79.2537 357.217 79.359 356.452 79.359C354.767 79.359 353.475 78.9186 352.575 78.038C351.684 77.1573 351.239 76.0133 351.239 74.6062V65.9333H347.808V63.8656H351.239V60.4482L353.996 60.1179V63.8656H359.166L358.85 65.9333H353.996V74.5774C353.996 75.4103 354.207 76.0373 354.628 76.4585C355.059 76.8797 355.772 77.0903 356.768 77.0903C357.323 77.0903 357.835 77.028 358.304 76.9036C358.783 76.7696 359.223 76.5925 359.625 76.3723L360.659 78.2246Z" fill="#F9D749"/>
<path d="M377.885 78.2246C377.349 78.5692 376.703 78.8421 375.947 79.0431C375.2 79.2537 374.444 79.359 373.678 79.359C371.993 79.359 370.701 78.9186 369.801 78.038C368.911 77.1573 368.466 76.0133 368.466 74.6062V65.9333H365.034V63.8656H368.466V60.4482L371.223 60.1179V63.8656H376.392L376.076 65.9333H371.223V74.5774C371.223 75.4103 371.433 76.0373 371.855 76.4585C372.285 76.8797 372.999 77.0903 373.994 77.0903C374.549 77.0903 375.061 77.028 375.531 76.9036C376.009 76.7696 376.45 76.5925 376.852 76.3723L377.885 78.2246Z" fill="#F9D749"/>
<path d="M388.722 63.5067C390.886 63.5067 392.527 64.2246 393.647 65.6605C394.777 67.0964 395.342 69.0157 395.342 71.4185C395.342 72.9788 395.083 74.3573 394.566 75.5538C394.059 76.7504 393.312 77.6838 392.326 78.3538C391.34 79.0239 390.129 79.359 388.694 79.359C386.53 79.359 384.879 78.641 383.74 77.2051C382.61 75.7692 382.045 73.8499 382.045 71.4472C382.045 69.8773 382.299 68.4988 382.806 67.3118C383.323 66.1152 384.075 65.1819 385.061 64.5118C386.056 63.8417 387.277 63.5067 388.722 63.5067ZM388.722 65.7036C387.478 65.7036 386.54 66.1727 385.908 67.1108C385.276 68.0393 384.96 69.4848 384.96 71.4472C384.96 73.3904 385.271 74.8311 385.894 75.7692C386.516 76.6978 387.449 77.1621 388.694 77.1621C389.938 77.1621 390.871 76.6978 391.493 75.7692C392.116 74.8311 392.427 73.3809 392.427 71.4185C392.427 69.4656 392.116 68.025 391.493 67.0964C390.871 66.1679 389.948 65.7036 388.722 65.7036Z" fill="#F9D749"/>
<path d="M400.047 79V63.8656H402.416L402.617 65.9046C403.24 65.1292 403.996 64.5357 404.886 64.1241C405.786 63.7125 406.681 63.5067 407.571 63.5067C409.026 63.5067 410.099 63.9039 410.788 64.6985C411.477 65.4834 411.822 66.5795 411.822 67.9867V79H409.065V69.681C409.065 68.7238 409.007 67.9484 408.892 67.3549C408.787 66.7614 408.562 66.3306 408.217 66.0626C407.873 65.785 407.351 65.6462 406.652 65.6462C405.829 65.6462 405.082 65.8998 404.412 66.4072C403.742 66.9145 403.206 67.4602 402.804 68.0441V79H400.047Z" fill="#F9D749"/>
<path d="M419.543 65.3303L419.069 57.7774H422.299L421.84 65.3303H419.543ZM424.453 65.3303L423.994 57.7774H427.225L426.751 65.3303H424.453Z" fill="white"/>
<path d="M435.505 61.8554L446.576 68.6903V71.2892L435.62 78.1385L434.199 76.1426L444.207 70.0113L434.199 63.9087L435.505 61.8554Z" fill="white"/>
<path d="M120.004 113.472C120.004 114.621 119.712 115.64 119.128 116.53C118.554 117.411 117.716 118.105 116.615 118.612C115.524 119.11 114.198 119.359 112.638 119.359C111.125 119.359 109.776 119.129 108.589 118.67C107.402 118.21 106.392 117.578 105.559 116.774L107.181 114.951C107.871 115.592 108.66 116.099 109.551 116.473C110.441 116.846 111.479 117.033 112.666 117.033C113.442 117.033 114.16 116.908 114.82 116.659C115.49 116.401 116.026 116.018 116.429 115.511C116.84 114.994 117.046 114.348 117.046 113.572C117.046 112.96 116.922 112.438 116.673 112.007C116.433 111.567 116.007 111.179 115.395 110.844C114.782 110.509 113.925 110.179 112.824 109.853C111.484 109.461 110.336 109.016 109.378 108.518C108.431 108.011 107.703 107.403 107.196 106.694C106.698 105.976 106.449 105.096 106.449 104.052C106.449 103.028 106.731 102.128 107.296 101.353C107.861 100.568 108.636 99.9552 109.622 99.5149C110.608 99.0745 111.743 98.8544 113.025 98.8544C114.413 98.8544 115.624 99.0554 116.658 99.4574C117.702 99.8595 118.64 100.429 119.473 101.166L117.893 102.947C117.185 102.324 116.424 101.875 115.61 101.597C114.806 101.31 113.987 101.166 113.155 101.166C112.102 101.166 111.207 101.396 110.47 101.855C109.732 102.305 109.364 102.995 109.364 103.923C109.364 104.478 109.512 104.952 109.809 105.345C110.106 105.728 110.604 106.082 111.302 106.407C112.011 106.733 112.978 107.077 114.203 107.441C115.265 107.757 116.232 108.145 117.103 108.604C117.984 109.054 118.688 109.667 119.214 110.442C119.741 111.208 120.004 112.218 120.004 113.472Z" fill="white"/>
<path d="M135.579 115.525C135.579 116.128 135.675 116.569 135.866 116.846C136.058 117.114 136.359 117.315 136.771 117.449L136.125 119.345C135.436 119.258 134.833 119.053 134.316 118.727C133.808 118.402 133.435 117.904 133.196 117.234C132.65 117.942 131.961 118.474 131.128 118.828C130.295 119.182 129.39 119.359 128.414 119.359C126.892 119.359 125.691 118.928 124.81 118.067C123.929 117.205 123.489 116.071 123.489 114.664C123.489 113.094 124.102 111.888 125.327 111.045C126.562 110.193 128.333 109.767 130.64 109.767H132.837V108.618C132.837 107.575 132.526 106.833 131.903 106.393C131.291 105.952 130.434 105.732 129.333 105.732C128.826 105.732 128.227 105.795 127.538 105.919C126.859 106.043 126.131 106.24 125.356 106.508L124.652 104.497C125.581 104.143 126.476 103.89 127.337 103.736C128.199 103.583 129.003 103.507 129.749 103.507C131.693 103.507 133.148 103.952 134.115 104.842C135.091 105.732 135.579 106.943 135.579 108.475V115.525ZM129.189 117.291C129.888 117.291 130.563 117.109 131.214 116.746C131.875 116.382 132.415 115.875 132.837 115.224V111.562H130.826C129.228 111.562 128.093 111.835 127.423 112.381C126.753 112.917 126.418 113.654 126.418 114.592C126.418 116.391 127.342 117.291 129.189 117.291Z" fill="white"/>
<path d="M154.543 103.866L149.115 119H145.899L140.5 103.866H143.429L147.579 116.602L151.714 103.866H154.543Z" fill="white"/>
<path d="M161.101 112.366C161.178 114.032 161.628 115.243 162.451 115.999C163.284 116.755 164.27 117.133 165.409 117.133C166.165 117.133 166.859 117.018 167.491 116.789C168.123 116.559 168.764 116.224 169.415 115.784L170.664 117.521C169.956 118.086 169.137 118.536 168.209 118.871C167.28 119.196 166.318 119.359 165.323 119.359C163.81 119.359 162.523 119.029 161.46 118.368C160.407 117.698 159.603 116.77 159.048 115.583C158.502 114.396 158.229 113.017 158.229 111.447C158.229 109.925 158.502 108.566 159.048 107.369C159.603 106.173 160.383 105.23 161.388 104.541C162.393 103.851 163.59 103.507 164.978 103.507C166.931 103.507 168.467 104.177 169.587 105.517C170.717 106.848 171.282 108.671 171.282 110.988C171.282 111.246 171.277 111.495 171.267 111.734C171.258 111.974 171.243 112.184 171.224 112.366H161.101ZM165.007 105.661C163.925 105.661 163.03 106.043 162.322 106.809C161.613 107.575 161.206 108.757 161.101 110.356H168.625C168.596 108.824 168.261 107.661 167.62 106.867C166.988 106.063 166.117 105.661 165.007 105.661Z" fill="white"/>
<path d="M87.2984 163.379L85.0871 162.389L86.2932 159.905L72.4368 151.289V148.705L83.5076 141.855L84.8143 143.909L74.8061 150.011L87.3558 157.708L98.0102 135.724L100.193 136.772L87.2984 163.379Z" fill="white"/>
<path d="M109.953 145.761C110.489 145.053 111.116 144.502 111.834 144.11C112.561 143.708 113.351 143.507 114.203 143.507C115.543 143.507 116.63 143.837 117.462 144.497C118.295 145.148 118.903 146.067 119.286 147.254C119.669 148.432 119.86 149.82 119.86 151.418C119.86 152.95 119.631 154.314 119.171 155.511C118.712 156.707 118.037 157.65 117.146 158.339C116.256 159.019 115.16 159.359 113.858 159.359C112.126 159.359 110.771 158.727 109.795 157.464L109.622 159H107.196V137.777L109.953 137.447V145.761ZM113.183 157.191C114.37 157.191 115.285 156.722 115.926 155.784C116.577 154.836 116.902 153.381 116.902 151.418C116.902 149.456 116.61 148.011 116.026 147.082C115.452 146.144 114.619 145.675 113.528 145.675C112.743 145.675 112.049 145.914 111.446 146.393C110.843 146.862 110.345 147.398 109.953 148.001V155.324C110.336 155.898 110.805 156.353 111.36 156.688C111.915 157.023 112.523 157.191 113.183 157.191Z" fill="#F1A381"/>
<path d="M127.179 143.866V154.52C127.179 155.477 127.371 156.166 127.754 156.588C128.146 156.999 128.749 157.205 129.563 157.205C130.329 157.205 131.061 156.98 131.76 156.53C132.468 156.08 133.018 155.544 133.411 154.922V143.866H136.168V159H133.799L133.598 157.004C133.014 157.77 132.286 158.354 131.415 158.756C130.554 159.158 129.678 159.359 128.787 159.359C127.323 159.359 126.227 158.962 125.499 158.167C124.781 157.373 124.422 156.272 124.422 154.865V143.866H127.179Z" fill="#F1A381"/>
<path d="M153.94 158.225C153.404 158.569 152.758 158.842 152.002 159.043C151.255 159.254 150.499 159.359 149.733 159.359C148.048 159.359 146.756 158.919 145.856 158.038C144.966 157.157 144.521 156.013 144.521 154.606V145.933H141.089V143.866H144.521V140.448L147.278 140.118V143.866H152.447L152.131 145.933H147.278V154.577C147.278 155.41 147.488 156.037 147.909 156.458C148.34 156.88 149.053 157.09 150.049 157.09C150.604 157.09 151.116 157.028 151.585 156.904C152.064 156.77 152.504 156.592 152.906 156.372L153.94 158.225Z" fill="#F1A381"/>
<path d="M171.167 158.225C170.631 158.569 169.984 158.842 169.228 159.043C168.482 159.254 167.725 159.359 166.959 159.359C165.275 159.359 163.982 158.919 163.083 158.038C162.192 157.157 161.747 156.013 161.747 154.606V145.933H158.315V143.866H161.747V140.448L164.504 140.118V143.866H169.673L169.357 145.933H164.504V154.577C164.504 155.41 164.715 156.037 165.136 156.458C165.567 156.88 166.28 157.09 167.275 157.09C167.831 157.09 168.343 157.028 168.812 156.904C169.29 156.77 169.731 156.592 170.133 156.372L171.167 158.225Z" fill="#F1A381"/>
<path d="M182.003 143.507C184.167 143.507 185.809 144.225 186.929 145.661C188.058 147.096 188.623 149.016 188.623 151.418C188.623 152.979 188.365 154.357 187.848 155.554C187.34 156.75 186.594 157.684 185.608 158.354C184.622 159.024 183.411 159.359 181.975 159.359C179.811 159.359 178.16 158.641 177.021 157.205C175.891 155.769 175.327 153.85 175.327 151.447C175.327 149.877 175.58 148.499 176.088 147.312C176.605 146.115 177.356 145.182 178.342 144.512C179.338 143.842 180.558 143.507 182.003 143.507ZM182.003 145.704C180.759 145.704 179.821 146.173 179.189 147.111C178.557 148.039 178.241 149.485 178.241 151.447C178.241 153.39 178.553 154.831 179.175 155.769C179.797 156.698 180.73 157.162 181.975 157.162C183.219 157.162 184.153 156.698 184.775 155.769C185.397 154.831 185.708 153.381 185.708 151.418C185.708 149.466 185.397 148.025 184.775 147.096C184.153 146.168 183.229 145.704 182.003 145.704Z" fill="#F1A381"/>
<path d="M193.329 159V143.866H195.698L195.899 145.905C196.521 145.129 197.277 144.536 198.167 144.124C199.067 143.712 199.962 143.507 200.853 143.507C202.308 143.507 203.38 143.904 204.069 144.698C204.758 145.483 205.103 146.579 205.103 147.987V159H202.346V149.681C202.346 148.724 202.289 147.948 202.174 147.355C202.068 146.761 201.843 146.331 201.499 146.063C201.154 145.785 200.632 145.646 199.934 145.646C199.11 145.646 198.364 145.9 197.694 146.407C197.024 146.915 196.487 147.46 196.085 148.044V159H193.329Z" fill="#F1A381"/>
<path d="M211.56 141.855L222.631 148.69V151.289L211.675 158.138L210.254 156.143L220.262 150.011L210.254 143.909L211.56 141.855Z" fill="white"/>
<path d="M83.5118 221.855L84.8185 223.909L74.8103 230.011L84.8185 236.128L83.3969 238.138L72.441 231.289V228.705L83.5118 221.855Z" fill="white"/>
<path d="M95.842 216.629C96.4163 216.629 96.8758 216.806 97.2204 217.16C97.5746 217.514 97.7517 217.945 97.7517 218.452C97.7517 218.979 97.5746 219.424 97.2204 219.788C96.8758 220.142 96.4163 220.319 95.842 220.319C95.2772 220.319 94.8177 220.142 94.4635 219.788C94.1189 219.424 93.9466 218.979 93.9466 218.452C93.9466 217.945 94.1189 217.514 94.4635 217.16C94.8177 216.806 95.2772 216.629 95.842 216.629ZM97.8953 223.866V236.904H102.102V239H90.5291V236.904H95.1384V225.962H90.6727V223.866H97.8953Z" fill="#F1A381"/>
<path d="M116.256 217.447C117.118 217.447 117.893 217.524 118.582 217.677C119.272 217.821 119.923 218.026 120.535 218.294L119.674 220.276C119.185 220.056 118.664 219.898 118.109 219.802C117.563 219.697 117.003 219.644 116.429 219.644C114.38 219.644 113.356 220.463 113.356 222.099V225H118.467L118.166 227.096H113.356V239H110.613V227.096H107.066V225H110.613V222.114C110.613 221.176 110.852 220.357 111.331 219.658C111.819 218.96 112.485 218.419 113.327 218.036C114.179 217.643 115.155 217.447 116.256 217.447Z" fill="#F1A381"/>
<path d="M124.566 239V236.961H126.863V225.905H124.566V223.866H128.974L129.477 227.412C130.051 226.158 130.755 225.196 131.587 224.526C132.43 223.847 133.521 223.507 134.861 223.507C135.302 223.507 135.689 223.54 136.024 223.607C136.369 223.674 136.718 223.76 137.073 223.866L136.642 229.178H134.517V226.019H134.502C132.234 226.019 130.606 227.642 129.62 230.887V236.961H132.693V239H124.566Z" fill="#F1A381"/>
<path d="M152.806 235.525C152.806 236.128 152.901 236.569 153.093 236.846C153.284 237.114 153.586 237.315 153.998 237.449L153.351 239.345C152.662 239.258 152.059 239.053 151.542 238.727C151.035 238.402 150.661 237.904 150.422 237.234C149.877 237.942 149.187 238.474 148.354 238.828C147.522 239.182 146.617 239.359 145.641 239.359C144.119 239.359 142.917 238.928 142.037 238.067C141.156 237.205 140.715 236.071 140.715 234.664C140.715 233.094 141.328 231.888 142.553 231.045C143.788 230.193 145.559 229.767 147.866 229.767H150.063V228.618C150.063 227.575 149.752 226.833 149.13 226.393C148.517 225.952 147.66 225.732 146.56 225.732C146.052 225.732 145.454 225.795 144.765 225.919C144.085 226.043 143.358 226.24 142.582 226.508L141.879 224.497C142.807 224.143 143.702 223.89 144.564 223.736C145.425 223.583 146.229 223.507 146.976 223.507C148.919 223.507 150.374 223.952 151.341 224.842C152.318 225.732 152.806 226.943 152.806 228.475V235.525ZM146.416 237.291C147.115 237.291 147.79 237.109 148.441 236.746C149.101 236.382 149.642 235.875 150.063 235.224V231.562H148.053C146.454 231.562 145.32 231.835 144.65 232.381C143.98 232.917 143.645 233.654 143.645 234.592C143.645 236.391 144.568 237.291 146.416 237.291Z" fill="#F1A381"/>
<path d="M169.056 223.507C169.573 223.507 170.056 223.622 170.506 223.851C170.966 224.081 171.334 224.502 171.612 225.115C171.889 225.718 172.028 226.594 172.028 227.743V239H169.515V228.145C169.515 227.264 169.458 226.632 169.343 226.249C169.238 225.857 168.931 225.661 168.424 225.661C168.003 225.661 167.582 225.79 167.161 226.048C166.749 226.307 166.347 226.737 165.954 227.341V239H163.542V228.145C163.542 227.264 163.485 226.632 163.37 226.249C163.264 225.857 162.958 225.661 162.451 225.661C162.02 225.661 161.599 225.79 161.187 226.048C160.776 226.307 160.374 226.737 159.981 227.341V239H157.468V223.866H159.593L159.766 225.56C160.187 224.976 160.651 224.488 161.158 224.095C161.675 223.703 162.302 223.507 163.039 223.507C163.614 223.507 164.145 223.645 164.633 223.923C165.131 224.201 165.495 224.718 165.725 225.474C166.136 224.89 166.605 224.416 167.132 224.052C167.658 223.689 168.3 223.507 169.056 223.507Z" fill="#F1A381"/>
<path d="M178.328 232.366C178.404 234.032 178.854 235.243 179.677 235.999C180.51 236.755 181.496 237.133 182.635 237.133C183.392 237.133 184.086 237.018 184.717 236.789C185.349 236.559 185.99 236.224 186.641 235.784L187.891 237.521C187.182 238.086 186.364 238.536 185.435 238.871C184.507 239.196 183.545 239.359 182.549 239.359C181.037 239.359 179.749 239.029 178.687 238.368C177.634 237.698 176.829 236.77 176.274 235.583C175.729 234.396 175.456 233.017 175.456 231.447C175.456 229.925 175.729 228.566 176.274 227.369C176.829 226.173 177.61 225.23 178.615 224.541C179.62 223.851 180.816 223.507 182.205 223.507C184.157 223.507 185.694 224.177 186.814 225.517C187.943 226.848 188.508 228.671 188.508 230.988C188.508 231.246 188.503 231.495 188.494 231.734C188.484 231.974 188.47 232.184 188.451 232.366H178.328ZM182.233 225.661C181.152 225.661 180.256 226.043 179.548 226.809C178.84 227.575 178.433 228.757 178.328 230.356H185.852C185.823 228.824 185.488 227.661 184.847 226.867C184.215 226.063 183.344 225.661 182.233 225.661Z" fill="#F1A381"/>
<path d="M119.487 278.225C118.951 278.569 118.305 278.842 117.549 279.043C116.802 279.254 116.046 279.359 115.28 279.359C113.595 279.359 112.303 278.919 111.403 278.038C110.513 277.157 110.067 276.013 110.067 274.606V265.933H106.636V263.866H110.067V260.448L112.824 260.118V263.866H117.994L117.678 265.933H112.824V274.577C112.824 275.41 113.035 276.037 113.456 276.458C113.887 276.88 114.6 277.09 115.596 277.09C116.151 277.09 116.663 277.028 117.132 276.904C117.611 276.77 118.051 276.592 118.453 276.372L119.487 278.225Z" fill="#B2DE57"/>
<path d="M130.295 256.629C130.869 256.629 131.329 256.806 131.674 257.16C132.028 257.514 132.205 257.945 132.205 258.452C132.205 258.979 132.028 259.424 131.674 259.788C131.329 260.142 130.869 260.319 130.295 260.319C129.73 260.319 129.271 260.142 128.917 259.788C128.572 259.424 128.4 258.979 128.4 258.452C128.4 257.945 128.572 257.514 128.917 257.16C129.271 256.806 129.73 256.629 130.295 256.629ZM132.348 263.866V276.904H136.556V279H124.982V276.904H129.591V265.962H125.126V263.866H132.348Z" fill="#B2DE57"/>
<path d="M153.94 278.225C153.404 278.569 152.758 278.842 152.002 279.043C151.255 279.254 150.499 279.359 149.733 279.359C148.048 279.359 146.756 278.919 145.856 278.038C144.966 277.157 144.521 276.013 144.521 274.606V265.933H141.089V263.866H144.521V260.448L147.278 260.118V263.866H152.447L152.131 265.933H147.278V274.577C147.278 275.41 147.488 276.037 147.909 276.458C148.34 276.88 149.053 277.09 150.049 277.09C150.604 277.09 151.116 277.028 151.585 276.904C152.064 276.77 152.504 276.592 152.906 276.372L153.94 278.225Z" fill="#B2DE57"/>
<path d="M165.093 257.777V275.094C165.093 275.822 165.318 276.339 165.768 276.645C166.218 276.942 166.797 277.09 167.505 277.09C167.955 277.09 168.381 277.047 168.783 276.961C169.195 276.865 169.597 276.736 169.989 276.573L170.707 278.541C170.286 278.761 169.759 278.952 169.128 279.115C168.496 279.278 167.783 279.359 166.988 279.359C165.562 279.359 164.428 278.962 163.585 278.167C162.752 277.373 162.336 276.281 162.336 274.893V259.874H157.727V257.777H165.093Z" fill="#B2DE57"/>
<path d="M178.328 272.366C178.404 274.032 178.854 275.243 179.677 275.999C180.51 276.755 181.496 277.133 182.635 277.133C183.392 277.133 184.086 277.018 184.717 276.789C185.349 276.559 185.99 276.224 186.641 275.784L187.891 277.521C187.182 278.086 186.364 278.536 185.435 278.871C184.507 279.196 183.545 279.359 182.549 279.359C181.037 279.359 179.749 279.029 178.687 278.368C177.634 277.698 176.829 276.77 176.274 275.583C175.729 274.396 175.456 273.017 175.456 271.447C175.456 269.925 175.729 268.566 176.274 267.369C176.829 266.173 177.61 265.23 178.615 264.541C179.62 263.851 180.816 263.507 182.205 263.507C184.157 263.507 185.694 264.177 186.814 265.517C187.943 266.848 188.508 268.671 188.508 270.988C188.508 271.246 188.503 271.495 188.494 271.734C188.484 271.974 188.47 272.184 188.451 272.366H178.328ZM182.233 265.661C181.152 265.661 180.256 266.043 179.548 266.809C178.84 267.575 178.433 268.757 178.328 270.356H185.852C185.823 268.824 185.488 267.661 184.847 266.867C184.215 266.063 183.344 265.661 182.233 265.661Z" fill="#B2DE57"/>
<path d="M204.945 266.134V268.461H193.458V266.134H204.945ZM204.945 271.677V274.003H193.458V271.677H204.945Z" fill="white"/>
<path d="M212.824 265.33L212.35 257.777H215.581L215.121 265.33H212.824ZM217.735 265.33L217.275 257.777H220.506L220.032 265.33H217.735Z" fill="white"/>
<path d="M235.09 271.404V279H232.219V271.433L225.57 259.213H228.715L233.712 268.891L238.766 259.213H241.739L235.09 271.404Z" fill="#F9D749"/>
<path d="M250.91 263.507C253.073 263.507 254.715 264.225 255.835 265.661C256.964 267.096 257.529 269.016 257.529 271.418C257.529 272.979 257.271 274.357 256.754 275.554C256.246 276.75 255.5 277.684 254.514 278.354C253.528 279.024 252.317 279.359 250.881 279.359C248.718 279.359 247.066 278.641 245.927 277.205C244.798 275.769 244.233 273.85 244.233 271.447C244.233 269.877 244.487 268.499 244.994 267.312C245.511 266.115 246.262 265.182 247.248 264.512C248.244 263.842 249.464 263.507 250.91 263.507ZM250.91 265.704C249.665 265.704 248.727 266.173 248.095 267.111C247.464 268.039 247.148 269.485 247.148 271.447C247.148 273.39 247.459 274.831 248.081 275.769C248.703 276.698 249.637 277.162 250.881 277.162C252.125 277.162 253.059 276.698 253.681 275.769C254.303 274.831 254.614 273.381 254.614 271.418C254.614 269.466 254.303 268.025 253.681 267.096C253.059 266.168 252.135 265.704 250.91 265.704Z" fill="#F9D749"/>
<path d="M264.992 263.866V274.52C264.992 275.477 265.183 276.167 265.566 276.588C265.959 276.999 266.562 277.205 267.375 277.205C268.141 277.205 268.873 276.98 269.572 276.53C270.281 276.08 270.831 275.544 271.223 274.922V263.866H273.98V279H271.611L271.41 277.004C270.826 277.77 270.099 278.354 269.228 278.756C268.366 279.158 267.49 279.359 266.6 279.359C265.135 279.359 264.039 278.962 263.312 278.167C262.594 277.373 262.235 276.272 262.235 274.865V263.866H264.992Z" fill="#F9D749"/>
<path d="M286.713 261.583V279H283.87V261.583H277.781V259.213H292.901L292.6 261.583H286.713Z" fill="#F9D749"/>
<path d="M299.445 263.866V274.52C299.445 275.477 299.636 276.167 300.019 276.588C300.412 276.999 301.015 277.205 301.828 277.205C302.594 277.205 303.327 276.98 304.025 276.53C304.734 276.08 305.284 275.544 305.677 274.922V263.866H308.434V279H306.064L305.863 277.004C305.279 277.77 304.552 278.354 303.681 278.756C302.819 279.158 301.943 279.359 301.053 279.359C299.588 279.359 298.492 278.962 297.765 278.167C297.047 277.373 296.688 276.272 296.688 274.865V263.866H299.445Z" fill="#F9D749"/>
<path d="M316.671 265.761C317.207 265.053 317.834 264.502 318.552 264.11C319.28 263.708 320.07 263.507 320.922 263.507C322.262 263.507 323.348 263.837 324.181 264.497C325.014 265.148 325.622 266.067 326.005 267.254C326.388 268.432 326.579 269.82 326.579 271.418C326.579 272.95 326.349 274.314 325.89 275.511C325.43 276.707 324.755 277.65 323.865 278.34C322.975 279.019 321.879 279.359 320.577 279.359C318.844 279.359 317.49 278.727 316.513 277.464L316.341 279H313.914V257.777L316.671 257.447V265.761ZM319.902 277.191C321.089 277.191 322.003 276.722 322.645 275.784C323.296 274.836 323.621 273.381 323.621 271.418C323.621 269.456 323.329 268.011 322.745 267.082C322.171 266.144 321.338 265.675 320.247 265.675C319.462 265.675 318.768 265.914 318.165 266.393C317.562 266.862 317.064 267.398 316.671 268.001V275.324C317.054 275.898 317.523 276.353 318.079 276.688C318.634 277.023 319.242 277.191 319.902 277.191Z" fill="#F9D749"/>
<path d="M333.367 272.366C333.443 274.032 333.893 275.243 334.716 275.999C335.549 276.755 336.535 277.133 337.674 277.133C338.431 277.133 339.125 277.018 339.756 276.789C340.388 276.559 341.03 276.224 341.68 275.784L342.93 277.521C342.221 278.086 341.403 278.536 340.474 278.871C339.546 279.196 338.584 279.359 337.588 279.359C336.076 279.359 334.788 279.029 333.726 278.368C332.673 277.698 331.869 276.77 331.313 275.583C330.768 274.396 330.495 273.017 330.495 271.447C330.495 269.925 330.768 268.566 331.313 267.369C331.869 266.173 332.649 265.23 333.654 264.541C334.659 263.851 335.856 263.507 337.244 263.507C339.196 263.507 340.733 264.177 341.853 265.517C342.982 266.848 343.547 268.671 343.547 270.988C343.547 271.246 343.542 271.495 343.533 271.734C343.523 271.974 343.509 272.184 343.49 272.366H333.367ZM337.272 265.661C336.191 265.661 335.296 266.043 334.587 266.809C333.879 267.575 333.472 268.757 333.367 270.356H340.891C340.862 268.824 340.527 267.661 339.886 266.867C339.254 266.063 338.383 265.661 337.272 265.661Z" fill="#F9D749"/>
<path d="M351.785 266.623C351.785 265.952 352.02 265.383 352.489 264.914C352.958 264.435 353.532 264.196 354.212 264.196C354.91 264.196 355.494 264.435 355.963 264.914C356.433 265.383 356.667 265.952 356.667 266.623C356.667 267.293 356.433 267.867 355.963 268.346C355.494 268.824 354.91 269.064 354.212 269.064C353.532 269.064 352.958 268.824 352.489 268.346C352.02 267.867 351.785 267.293 351.785 266.623ZM351.785 276.904C351.785 276.253 352.02 275.688 352.489 275.209C352.958 274.731 353.532 274.491 354.212 274.491C354.91 274.491 355.494 274.731 355.963 275.209C356.433 275.688 356.667 276.253 356.667 276.904C356.667 277.583 356.433 278.162 355.963 278.641C355.494 279.12 354.91 279.359 354.212 279.359C353.532 279.359 352.958 279.12 352.489 278.641C352.02 278.162 351.785 277.583 351.785 276.904Z" fill="#F9D749"/>
<path d="M390.359 258.854C391.671 258.854 392.771 259.022 393.662 259.357C394.562 259.692 395.404 260.18 396.189 260.822L394.652 262.631C394.04 262.123 393.389 261.755 392.7 261.525C392.01 261.286 391.288 261.166 390.531 261.166C389.488 261.166 388.526 261.42 387.645 261.927C386.765 262.435 386.056 263.267 385.52 264.426C384.984 265.584 384.716 267.14 384.716 269.092C384.716 270.997 384.97 272.529 385.477 273.687C385.994 274.836 386.688 275.674 387.559 276.2C388.44 276.717 389.421 276.975 390.503 276.975C391.584 276.975 392.479 276.808 393.188 276.473C393.906 276.128 394.528 275.736 395.055 275.295L396.476 277.119C395.854 277.732 395.045 278.258 394.049 278.698C393.063 279.139 391.857 279.359 390.431 279.359C388.794 279.359 387.32 278.966 386.008 278.182C384.707 277.397 383.673 276.243 382.907 274.721C382.141 273.189 381.758 271.313 381.758 269.092C381.758 266.871 382.146 265 382.921 263.478C383.706 261.956 384.75 260.807 386.051 260.032C387.363 259.247 388.799 258.854 390.359 258.854Z" fill="#F9D749"/>
<path d="M400.191 279V276.961H402.488V265.905H400.191V263.866H404.599L405.102 267.412C405.676 266.158 406.38 265.196 407.212 264.526C408.055 263.847 409.146 263.507 410.486 263.507C410.927 263.507 411.314 263.54 411.649 263.607C411.994 263.674 412.343 263.76 412.698 263.866L412.267 269.178H410.142V266.019H410.127C407.859 266.019 406.231 267.642 405.245 270.887V276.961H408.318V279H400.191Z" fill="#F9D749"/>
<path d="M428.431 275.525C428.431 276.128 428.526 276.569 428.718 276.846C428.909 277.114 429.211 277.315 429.623 277.449L428.976 279.345C428.287 279.258 427.684 279.053 427.167 278.727C426.66 278.402 426.286 277.904 426.047 277.234C425.502 277.942 424.812 278.474 423.979 278.828C423.147 279.182 422.242 279.359 421.266 279.359C419.744 279.359 418.542 278.928 417.661 278.067C416.781 277.205 416.34 276.071 416.34 274.664C416.34 273.094 416.953 271.888 418.178 271.045C419.413 270.193 421.184 269.767 423.491 269.767H425.688V268.618C425.688 267.575 425.377 266.833 424.755 266.393C424.142 265.952 423.285 265.732 422.185 265.732C421.677 265.732 421.079 265.795 420.39 265.919C419.71 266.043 418.983 266.24 418.207 266.508L417.504 264.497C418.432 264.143 419.327 263.89 420.189 263.736C421.05 263.583 421.854 263.507 422.601 263.507C424.544 263.507 425.999 263.952 426.966 264.842C427.943 265.732 428.431 266.943 428.431 268.475V275.525ZM422.041 277.291C422.74 277.291 423.415 277.109 424.066 276.746C424.726 276.382 425.267 275.875 425.688 275.224V271.562H423.678C422.079 271.562 420.945 271.835 420.275 272.381C419.605 272.917 419.27 273.654 419.27 274.592C419.27 276.391 420.193 277.291 422.041 277.291Z" fill="#F9D749"/>
<path d="M437.257 265.761C437.793 265.053 438.42 264.502 439.138 264.11C439.866 263.708 440.656 263.507 441.508 263.507C442.848 263.507 443.934 263.837 444.767 264.497C445.6 265.148 446.208 266.067 446.591 267.254C446.974 268.432 447.165 269.82 447.165 271.418C447.165 272.95 446.935 274.314 446.476 275.511C446.016 276.707 445.341 277.65 444.451 278.34C443.561 279.019 442.465 279.359 441.163 279.359C439.43 279.359 438.076 278.727 437.099 277.464L436.927 279H434.5V257.777L437.257 257.447V265.761ZM440.488 277.191C441.675 277.191 442.589 276.722 443.231 275.784C443.882 274.836 444.207 273.381 444.207 271.418C444.207 269.456 443.915 268.011 443.331 267.082C442.757 266.144 441.924 265.675 440.833 265.675C440.048 265.675 439.354 265.914 438.751 266.393C438.148 266.862 437.65 267.398 437.257 268.001V275.324C437.64 275.898 438.109 276.353 438.664 276.688C439.22 277.023 439.828 277.191 440.488 277.191Z" fill="#F9D749"/>
<path d="M469.097 279V276.961H471.395V265.905H469.097V263.866H473.505L474.008 267.412C474.582 266.158 475.286 265.196 476.119 264.526C476.961 263.847 478.052 263.507 479.392 263.507C479.833 263.507 480.22 263.54 480.556 263.607C480.9 263.674 481.25 263.76 481.604 263.866L481.173 269.178H479.048V266.019H479.034C476.765 266.019 475.137 267.642 474.151 270.887V276.961H477.224V279H469.097Z" fill="#F9D749"/>
<path d="M497.337 275.525C497.337 276.128 497.433 276.569 497.624 276.846C497.816 277.114 498.117 277.315 498.529 277.449L497.883 279.345C497.193 279.258 496.59 279.053 496.073 278.727C495.566 278.402 495.193 277.904 494.953 277.234C494.408 277.942 493.719 278.474 492.886 278.828C492.053 279.182 491.148 279.359 490.172 279.359C488.65 279.359 487.448 278.928 486.568 278.067C485.687 277.205 485.247 276.071 485.247 274.664C485.247 273.094 485.859 271.888 487.085 271.045C488.32 270.193 490.09 269.767 492.397 269.767H494.594V268.618C494.594 267.575 494.283 266.833 493.661 266.393C493.048 265.952 492.192 265.732 491.091 265.732C490.583 265.732 489.985 265.795 489.296 265.919C488.616 266.043 487.889 266.24 487.113 266.508L486.41 264.497C487.338 264.143 488.233 263.89 489.095 263.736C489.956 263.583 490.761 263.507 491.507 263.507C493.45 263.507 494.906 263.952 495.872 264.842C496.849 265.732 497.337 266.943 497.337 268.475V275.525ZM490.947 277.291C491.646 277.291 492.321 277.109 492.972 276.746C493.632 276.382 494.173 275.875 494.594 275.224V271.562H492.584C490.986 271.562 489.851 271.835 489.181 272.381C488.511 272.917 488.176 273.654 488.176 274.592C488.176 276.391 489.1 277.291 490.947 277.291Z" fill="#F9D749"/>
<path d="M516.301 263.866L510.873 279H507.657L502.258 263.866H505.187L509.337 276.602L513.472 263.866H516.301Z" fill="#F9D749"/>
<path d="M522.859 272.366C522.935 274.032 523.385 275.243 524.209 275.999C525.041 276.755 526.027 277.133 527.167 277.133C527.923 277.133 528.617 277.018 529.249 276.789C529.88 276.559 530.522 276.224 531.173 275.784L532.422 277.521C531.714 278.086 530.895 278.536 529.967 278.871C529.038 279.196 528.076 279.359 527.08 279.359C525.568 279.359 524.28 279.029 523.218 278.368C522.165 277.698 521.361 276.77 520.806 275.583C520.26 274.396 519.987 273.017 519.987 271.447C519.987 269.925 520.26 268.566 520.806 267.369C521.361 266.173 522.141 265.23 523.146 264.541C524.151 263.851 525.348 263.507 526.736 263.507C528.689 263.507 530.225 264.177 531.345 265.517C532.475 266.848 533.039 268.671 533.039 270.988C533.039 271.246 533.035 271.495 533.025 271.734C533.015 271.974 533.001 272.184 532.982 272.366H522.859ZM526.764 265.661C525.683 265.661 524.788 266.043 524.079 266.809C523.371 267.575 522.964 268.757 522.859 270.356H530.383C530.354 268.824 530.019 267.661 529.378 266.867C528.746 266.063 527.875 265.661 526.764 265.661Z" fill="#F9D749"/>
<path d="M540.128 265.33L539.655 257.777H542.885L542.426 265.33H540.128ZM545.039 265.33L544.58 257.777H547.811L547.337 265.33H545.039Z" fill="white"/>
<path d="M112.494 317.162C113.595 317.162 114.461 316.961 115.093 316.559C115.734 316.157 116.055 315.611 116.055 314.922C116.055 314.482 115.969 314.108 115.797 313.802C115.634 313.486 115.289 313.199 114.763 312.941C114.246 312.672 113.461 312.404 112.408 312.136C111.374 311.878 110.474 311.576 109.709 311.232C108.952 310.887 108.364 310.437 107.942 309.882C107.531 309.327 107.325 308.609 107.325 307.728C107.325 306.445 107.861 305.421 108.933 304.655C110.005 303.89 111.427 303.507 113.198 303.507C114.442 303.507 115.524 303.674 116.443 304.009C117.362 304.335 118.147 304.737 118.798 305.215L117.62 307.01C117.036 306.627 116.395 306.311 115.696 306.063C115.007 305.804 114.193 305.675 113.255 305.675C112.135 305.675 111.336 305.847 110.857 306.192C110.388 306.527 110.154 306.972 110.154 307.527C110.154 307.948 110.269 308.298 110.498 308.575C110.738 308.843 111.144 309.092 111.719 309.322C112.293 309.542 113.088 309.791 114.102 310.069C115.088 310.337 115.95 310.653 116.687 311.016C117.424 311.38 117.994 311.859 118.396 312.452C118.807 313.036 119.013 313.807 119.013 314.764C119.013 315.846 118.702 316.727 118.08 317.406C117.458 318.076 116.649 318.569 115.653 318.885C114.667 319.201 113.614 319.359 112.494 319.359C111.116 319.359 109.929 319.158 108.933 318.756C107.947 318.354 107.119 317.861 106.449 317.277L107.971 315.525C108.555 316.013 109.23 316.411 109.996 316.717C110.771 317.014 111.604 317.162 112.494 317.162Z" fill="#B2DE57"/>
<path d="M124.566 319V316.961H126.863V305.905H124.566V303.866H128.974L129.477 307.412C130.051 306.158 130.755 305.196 131.587 304.526C132.43 303.847 133.521 303.507 134.861 303.507C135.302 303.507 135.689 303.54 136.024 303.607C136.369 303.674 136.718 303.76 137.073 303.866L136.642 309.178H134.517V306.02H134.502C132.234 306.02 130.606 307.642 129.62 310.887V316.961H132.693V319H124.566Z" fill="#B2DE57"/>
<path d="M148.685 317.033C149.422 317.033 150.106 316.913 150.738 316.674C151.379 316.425 151.978 316.104 152.533 315.712L153.854 317.507C153.184 318.062 152.38 318.512 151.442 318.856C150.513 319.191 149.58 319.359 148.642 319.359C147.12 319.359 145.818 319.034 144.736 318.383C143.664 317.732 142.845 316.817 142.281 315.64C141.716 314.463 141.433 313.084 141.433 311.505C141.433 309.973 141.716 308.609 142.281 307.412C142.855 306.206 143.683 305.254 144.765 304.555C145.846 303.856 147.153 303.507 148.685 303.507C150.657 303.507 152.37 304.1 153.825 305.287L152.519 307.082C151.245 306.201 149.972 305.761 148.699 305.761C147.435 305.761 146.402 306.23 145.598 307.168C144.793 308.106 144.391 309.552 144.391 311.505C144.391 313.467 144.793 314.879 145.598 315.741C146.411 316.602 147.44 317.033 148.685 317.033Z" fill="#B2DE57"/>
<path d="M170.492 306.134V308.461H159.005V306.134H170.492ZM170.492 311.677V314.003H159.005V311.677H170.492Z" fill="white"/>
<path d="M178.371 305.33L177.897 297.777H181.128L180.668 305.33H178.371ZM183.281 305.33L182.822 297.777H186.053L185.579 305.33H183.281Z" fill="white"/>
<path d="M191.419 317.32C191.419 316.765 191.61 316.291 191.993 315.898C192.386 315.506 192.864 315.31 193.429 315.31C194.013 315.31 194.496 315.506 194.879 315.898C195.272 316.291 195.468 316.765 195.468 317.32C195.468 317.885 195.272 318.368 194.879 318.77C194.496 319.163 194.013 319.359 193.429 319.359C192.864 319.359 192.386 319.163 191.993 318.77C191.61 318.368 191.419 317.885 191.419 317.32ZM197.162 317.32C197.162 316.765 197.359 316.291 197.751 315.898C198.153 315.506 198.637 315.31 199.201 315.31C199.766 315.31 200.24 315.506 200.623 315.898C201.015 316.291 201.212 316.765 201.212 317.32C201.212 317.885 201.015 318.368 200.623 318.77C200.24 319.163 199.766 319.359 199.201 319.359C198.637 319.359 198.153 319.163 197.751 318.77C197.359 318.368 197.162 317.885 197.162 317.32ZM202.935 317.32C202.935 316.765 203.126 316.291 203.509 315.898C203.902 315.506 204.38 315.31 204.945 315.31C205.529 315.31 206.012 315.506 206.395 315.898C206.788 316.291 206.984 316.765 206.984 317.32C206.984 317.885 206.788 318.368 206.395 318.77C206.012 319.163 205.529 319.359 204.945 319.359C204.38 319.359 203.902 319.163 203.509 318.77C203.126 318.368 202.935 317.885 202.935 317.32Z" fill="#F9D749"/>
<path d="M212.824 305.33L212.35 297.777H215.581L215.121 305.33H212.824ZM217.735 305.33L217.275 297.777H220.506L220.032 305.33H217.735Z" fill="white"/>
<path d="M228.787 301.855L239.858 308.69V311.289L228.902 318.138L227.48 316.143L237.488 310.011L227.48 303.909L228.787 301.855Z" fill="white"/>
<path d="M87.2984 363.379L85.0871 362.389L86.2932 359.905L72.4368 351.289V348.705L83.5076 341.855L84.8143 343.909L74.8061 350.011L87.3558 357.708L98.0102 335.724L100.193 336.772L87.2984 363.379Z" fill="white"/>
<path d="M113.069 336.629C113.643 336.629 114.102 336.806 114.447 337.16C114.801 337.514 114.978 337.945 114.978 338.452C114.978 338.979 114.801 339.424 114.447 339.788C114.102 340.142 113.643 340.319 113.069 340.319C112.504 340.319 112.044 340.142 111.69 339.788C111.345 339.424 111.173 338.979 111.173 338.452C111.173 337.945 111.345 337.514 111.69 337.16C112.044 336.806 112.504 336.629 113.069 336.629ZM115.122 343.866V356.904H119.329V359H107.756V356.904H112.365V345.962H107.899V343.866H115.122Z" fill="#F1A381"/>
<path d="M133.483 337.447C134.344 337.447 135.12 337.524 135.809 337.677C136.498 337.821 137.149 338.026 137.762 338.294L136.9 340.276C136.412 340.056 135.89 339.898 135.335 339.802C134.789 339.697 134.229 339.644 133.655 339.644C131.607 339.644 130.582 340.463 130.582 342.099V345H135.694L135.393 347.096H130.582V359H127.84V347.096H124.293V345H127.84V342.114C127.84 341.176 128.079 340.357 128.558 339.658C129.046 338.96 129.711 338.419 130.554 338.036C131.406 337.643 132.382 337.447 133.483 337.447Z" fill="#F1A381"/>
<path d="M141.792 359V356.961H144.09V345.905H141.792V343.866H146.201L146.703 347.412C147.278 346.158 147.981 345.196 148.814 344.526C149.656 343.847 150.748 343.507 152.088 343.507C152.528 343.507 152.916 343.54 153.251 343.607C153.595 343.674 153.945 343.76 154.299 343.866L153.868 349.178H151.743V346.02H151.729C149.46 346.02 147.833 347.642 146.847 350.887V356.961H149.92V359H141.792Z" fill="#F1A381"/>
<path d="M170.032 355.525C170.032 356.128 170.128 356.569 170.319 356.846C170.511 357.114 170.812 357.315 171.224 357.449L170.578 359.345C169.889 359.258 169.286 359.053 168.769 358.727C168.261 358.402 167.888 357.904 167.649 357.234C167.103 357.942 166.414 358.474 165.581 358.828C164.748 359.182 163.844 359.359 162.867 359.359C161.345 359.359 160.144 358.928 159.263 358.067C158.382 357.205 157.942 356.071 157.942 354.664C157.942 353.094 158.555 351.888 159.78 351.045C161.015 350.193 162.786 349.767 165.093 349.767H167.29V348.618C167.29 347.575 166.979 346.833 166.356 346.393C165.744 345.952 164.887 345.732 163.786 345.732C163.279 345.732 162.681 345.795 161.991 345.919C161.312 346.043 160.584 346.24 159.809 346.508L159.105 344.497C160.034 344.143 160.929 343.89 161.79 343.736C162.652 343.583 163.456 343.507 164.203 343.507C166.146 343.507 167.601 343.952 168.568 344.842C169.544 345.732 170.032 346.943 170.032 348.475V355.525ZM163.643 357.291C164.341 357.291 165.016 357.109 165.667 356.746C166.328 356.382 166.869 355.875 167.29 355.224V351.562H165.279C163.681 351.562 162.546 351.835 161.876 352.381C161.206 352.917 160.871 353.654 160.871 354.592C160.871 356.391 161.795 357.291 163.643 357.291Z" fill="#F1A381"/>
<path d="M186.282 343.507C186.799 343.507 187.283 343.622 187.733 343.851C188.192 344.081 188.561 344.502 188.838 345.115C189.116 345.718 189.255 346.594 189.255 347.743V359H186.742V348.145C186.742 347.264 186.685 346.632 186.57 346.249C186.464 345.857 186.158 345.661 185.651 345.661C185.229 345.661 184.808 345.79 184.387 346.048C183.975 346.307 183.573 346.737 183.181 347.341V359H180.769V348.145C180.769 347.264 180.711 346.632 180.596 346.249C180.491 345.857 180.185 345.661 179.677 345.661C179.247 345.661 178.825 345.79 178.414 346.048C178.002 346.307 177.6 346.737 177.208 347.341V359H174.695V343.866H176.82L176.992 345.56C177.413 344.976 177.878 344.488 178.385 344.095C178.902 343.703 179.529 343.507 180.266 343.507C180.84 343.507 181.372 343.645 181.86 343.923C182.358 344.201 182.721 344.718 182.951 345.474C183.363 344.89 183.832 344.416 184.358 344.052C184.885 343.689 185.526 343.507 186.282 343.507Z" fill="#F1A381"/>
<path d="M195.554 352.366C195.631 354.032 196.081 355.243 196.904 355.999C197.737 356.755 198.723 357.133 199.862 357.133C200.618 357.133 201.312 357.018 201.944 356.789C202.576 356.559 203.217 356.224 203.868 355.784L205.117 357.521C204.409 358.086 203.59 358.536 202.662 358.871C201.733 359.196 200.771 359.359 199.776 359.359C198.263 359.359 196.976 359.029 195.913 358.368C194.86 357.698 194.056 356.77 193.501 355.583C192.955 354.396 192.682 353.017 192.682 351.447C192.682 349.925 192.955 348.566 193.501 347.369C194.056 346.173 194.836 345.23 195.841 344.541C196.846 343.851 198.043 343.507 199.431 343.507C201.384 343.507 202.92 344.177 204.04 345.517C205.17 346.848 205.735 348.671 205.735 350.988C205.735 351.246 205.73 351.495 205.72 351.734C205.711 351.974 205.696 352.184 205.677 352.366H195.554ZM199.46 345.661C198.378 345.661 197.483 346.043 196.775 346.809C196.066 347.575 195.659 348.757 195.554 350.356H203.078C203.05 348.824 202.715 347.661 202.073 346.867C201.441 346.063 200.57 345.661 199.46 345.661Z" fill="#F1A381"/>
<path d="M211.56 341.855L222.631 348.69V351.289L211.675 358.138L210.254 356.143L220.262 350.011L210.254 343.909L211.56 341.855Z" fill="white"/>
<rect y="401" width="722" height="151" fill="#F2F2F2"/>
<path d="M83.3292 502.262C83.3292 503.246 83.079 504.12 82.5785 504.883C82.0862 505.638 81.3682 506.233 80.4246 506.668C79.4892 507.094 78.3528 507.308 77.0154 507.308C75.719 507.308 74.5621 507.111 73.5446 506.717C72.5272 506.323 71.6615 505.782 70.9477 505.092L72.3385 503.529C72.9292 504.079 73.6062 504.514 74.3692 504.834C75.1323 505.154 76.0226 505.314 77.04 505.314C77.7046 505.314 78.32 505.207 78.8862 504.994C79.4605 504.772 79.92 504.444 80.2646 504.009C80.6174 503.566 80.7938 503.012 80.7938 502.348C80.7938 501.823 80.6872 501.375 80.4738 501.006C80.2687 500.629 79.9036 500.296 79.3785 500.009C78.8533 499.722 78.119 499.439 77.1754 499.16C76.0267 498.824 75.0421 498.442 74.2215 498.015C73.4092 497.581 72.7856 497.059 72.3508 496.452C71.9241 495.837 71.7108 495.082 71.7108 494.188C71.7108 493.31 71.9528 492.538 72.4369 491.874C72.921 491.201 73.5856 490.676 74.4308 490.298C75.2759 489.921 76.2482 489.732 77.3477 489.732C78.5374 489.732 79.5754 489.905 80.4615 490.249C81.3559 490.594 82.16 491.082 82.8738 491.714L81.52 493.24C80.9128 492.707 80.2605 492.321 79.5631 492.083C78.8738 491.837 78.1723 491.714 77.4585 491.714C76.5559 491.714 75.7887 491.911 75.1569 492.305C74.5251 492.69 74.2092 493.281 74.2092 494.077C74.2092 494.553 74.3364 494.959 74.5908 495.295C74.8451 495.624 75.2718 495.927 75.8708 496.206C76.4779 496.485 77.3067 496.781 78.3569 497.092C79.2677 497.363 80.0964 497.695 80.8431 498.089C81.5979 498.475 82.201 499 82.6523 499.665C83.1036 500.321 83.3292 501.187 83.3292 502.262Z" fill="#4A4A4A"/>
<path d="M96.6795 504.022C96.6795 504.538 96.7615 504.916 96.9256 505.154C97.0897 505.384 97.3482 505.556 97.701 505.671L97.1472 507.295C96.5564 507.222 96.0395 507.045 95.5964 506.766C95.1615 506.487 94.8415 506.061 94.6364 505.486C94.1687 506.093 93.5779 506.549 92.8641 506.852C92.1502 507.156 91.3749 507.308 90.5379 507.308C89.2333 507.308 88.2036 506.938 87.4487 506.2C86.6938 505.462 86.3164 504.489 86.3164 503.283C86.3164 501.937 86.8415 500.904 87.8918 500.182C88.9502 499.451 90.4682 499.086 92.4456 499.086H94.3287V498.102C94.3287 497.207 94.062 496.571 93.5287 496.194C93.0036 495.816 92.2692 495.628 91.3256 495.628C90.8908 495.628 90.3779 495.681 89.7872 495.788C89.2046 495.894 88.581 496.063 87.9164 496.292L87.3133 494.569C88.1092 494.266 88.8764 494.048 89.6149 493.917C90.3533 493.786 91.0425 493.72 91.6825 493.72C93.3482 493.72 94.5954 494.102 95.4241 494.865C96.261 495.628 96.6795 496.666 96.6795 497.978V504.022ZM91.2025 505.535C91.8015 505.535 92.38 505.379 92.9379 505.068C93.5041 504.756 93.9677 504.321 94.3287 503.763V500.625H92.6056C91.2354 500.625 90.2631 500.858 89.6887 501.326C89.1143 501.786 88.8272 502.417 88.8272 503.222C88.8272 504.764 89.619 505.535 91.2025 505.535Z" fill="#4A4A4A"/>
<path d="M112.934 494.028L108.282 507H105.525L100.897 494.028H103.408L106.965 504.945L110.51 494.028H112.934Z" fill="#4A4A4A"/>
<path d="M118.555 501.314C118.621 502.742 119.007 503.779 119.712 504.428C120.426 505.076 121.271 505.4 122.248 505.4C122.896 505.4 123.491 505.302 124.032 505.105C124.574 504.908 125.124 504.621 125.681 504.243L126.752 505.732C126.145 506.216 125.444 506.602 124.648 506.889C123.852 507.168 123.027 507.308 122.174 507.308C120.877 507.308 119.774 507.025 118.863 506.458C117.96 505.884 117.271 505.088 116.795 504.071C116.328 503.053 116.094 501.872 116.094 500.526C116.094 499.222 116.328 498.056 116.795 497.031C117.271 496.005 117.94 495.197 118.801 494.606C119.663 494.015 120.689 493.72 121.878 493.72C123.552 493.72 124.869 494.294 125.829 495.443C126.797 496.584 127.281 498.147 127.281 500.132C127.281 500.354 127.277 500.567 127.269 500.772C127.261 500.977 127.249 501.158 127.232 501.314H118.555ZM121.903 495.566C120.976 495.566 120.209 495.894 119.601 496.551C118.994 497.207 118.646 498.221 118.555 499.591H125.005C124.98 498.278 124.693 497.281 124.143 496.6C123.601 495.911 122.855 495.566 121.903 495.566Z" fill="#4A4A4A"/>
<path d="M394.615 500.489V507H392.154V500.514L386.455 490.04H389.151L393.434 498.335L397.766 490.04H400.314L394.615 500.489Z" fill="#4A4A4A"/>
<path d="M408.175 493.72C410.029 493.72 411.436 494.335 412.396 495.566C413.365 496.797 413.849 498.442 413.849 500.502C413.849 501.839 413.627 503.021 413.184 504.046C412.749 505.072 412.109 505.872 411.264 506.446C410.419 507.021 409.381 507.308 408.15 507.308C406.296 507.308 404.88 506.692 403.904 505.462C402.936 504.231 402.452 502.586 402.452 500.526C402.452 499.181 402.669 497.999 403.104 496.982C403.547 495.956 404.191 495.156 405.036 494.582C405.89 494.007 406.936 493.72 408.175 493.72ZM408.175 495.603C407.108 495.603 406.304 496.005 405.762 496.809C405.221 497.605 404.95 498.844 404.95 500.526C404.95 502.192 405.217 503.427 405.75 504.231C406.284 505.027 407.084 505.425 408.15 505.425C409.217 505.425 410.017 505.027 410.55 504.231C411.084 503.427 411.35 502.184 411.35 500.502C411.35 498.828 411.084 497.593 410.55 496.797C410.017 496.001 409.225 495.603 408.175 495.603Z" fill="#4A4A4A"/>
<path d="M420.245 494.028V503.16C420.245 503.981 420.409 504.571 420.737 504.932C421.074 505.285 421.591 505.462 422.288 505.462C422.945 505.462 423.572 505.269 424.171 504.883C424.778 504.497 425.25 504.038 425.587 503.505V494.028H427.95V507H425.919L425.747 505.289C425.246 505.946 424.622 506.446 423.876 506.791C423.137 507.135 422.387 507.308 421.623 507.308C420.368 507.308 419.429 506.967 418.805 506.286C418.19 505.605 417.882 504.662 417.882 503.455V494.028H420.245Z" fill="#4A4A4A"/>
<path d="M443.183 506.335C442.723 506.631 442.17 506.865 441.521 507.037C440.881 507.217 440.233 507.308 439.577 507.308C438.133 507.308 437.025 506.93 436.254 506.175C435.491 505.421 435.109 504.44 435.109 503.234V495.8H432.168V494.028H435.109V491.098L437.472 490.815V494.028H441.903L441.632 495.8H437.472V503.209C437.472 503.923 437.653 504.461 438.014 504.822C438.383 505.183 438.994 505.363 439.848 505.363C440.323 505.363 440.762 505.31 441.165 505.203C441.575 505.088 441.952 504.936 442.297 504.748L443.183 506.335Z" fill="#4A4A4A"/>
<path d="M449.776 494.028V503.16C449.776 503.981 449.94 504.571 450.269 504.932C450.605 505.285 451.122 505.462 451.819 505.462C452.476 505.462 453.103 505.269 453.702 504.883C454.31 504.497 454.781 504.038 455.118 503.505V494.028H457.481V507H455.45L455.278 505.289C454.777 505.946 454.154 506.446 453.407 506.791C452.669 507.135 451.918 507.308 451.155 507.308C449.899 507.308 448.96 506.967 448.336 506.286C447.721 505.605 447.413 504.662 447.413 503.455V494.028H449.776Z" fill="#4A4A4A"/>
<path d="M464.542 495.652C465.001 495.045 465.539 494.573 466.154 494.237C466.778 493.892 467.455 493.72 468.185 493.72C469.334 493.72 470.265 494.003 470.979 494.569C471.693 495.127 472.214 495.915 472.542 496.932C472.87 497.942 473.034 499.131 473.034 500.502C473.034 501.814 472.837 502.984 472.443 504.009C472.05 505.035 471.471 505.843 470.708 506.434C469.945 507.016 469.006 507.308 467.89 507.308C466.404 507.308 465.243 506.766 464.407 505.683L464.259 507H462.179V488.809L464.542 488.526V495.652ZM467.311 505.449C468.329 505.449 469.112 505.047 469.662 504.243C470.22 503.431 470.499 502.184 470.499 500.502C470.499 498.819 470.249 497.581 469.748 496.785C469.256 495.981 468.542 495.578 467.607 495.578C466.934 495.578 466.339 495.784 465.822 496.194C465.305 496.596 464.878 497.055 464.542 497.572V503.849C464.87 504.342 465.272 504.731 465.748 505.018C466.224 505.306 466.745 505.449 467.311 505.449Z" fill="#4A4A4A"/>
<path d="M478.852 501.314C478.918 502.742 479.303 503.779 480.009 504.428C480.723 505.076 481.568 505.4 482.544 505.4C483.193 505.4 483.788 505.302 484.329 505.105C484.871 504.908 485.42 504.621 485.978 504.243L487.049 505.732C486.442 506.216 485.74 506.602 484.944 506.889C484.149 507.168 483.324 507.308 482.471 507.308C481.174 507.308 480.071 507.025 479.16 506.458C478.257 505.884 477.568 505.088 477.092 504.071C476.624 503.053 476.391 501.872 476.391 500.526C476.391 499.222 476.624 498.056 477.092 497.031C477.568 496.005 478.237 495.197 479.098 494.606C479.96 494.015 480.985 493.72 482.175 493.72C483.849 493.72 485.166 494.294 486.126 495.443C487.094 496.584 487.578 498.147 487.578 500.132C487.578 500.354 487.574 500.567 487.566 500.772C487.558 500.977 487.545 501.158 487.529 501.314H478.852ZM482.2 495.566C481.273 495.566 480.505 495.894 479.898 496.551C479.291 497.207 478.942 498.221 478.852 499.591H485.301C485.277 498.278 484.99 497.281 484.44 496.6C483.898 495.911 483.152 495.566 482.2 495.566Z" fill="#4A4A4A"/>
<path d="M494.639 496.391C494.639 495.816 494.84 495.328 495.242 494.926C495.644 494.516 496.137 494.311 496.719 494.311C497.318 494.311 497.819 494.516 498.221 494.926C498.623 495.328 498.824 495.816 498.824 496.391C498.824 496.965 498.623 497.457 498.221 497.868C497.819 498.278 497.318 498.483 496.719 498.483C496.137 498.483 495.644 498.278 495.242 497.868C494.84 497.457 494.639 496.965 494.639 496.391ZM494.639 505.203C494.639 504.645 494.84 504.161 495.242 503.751C495.644 503.341 496.137 503.135 496.719 503.135C497.318 503.135 497.819 503.341 498.221 503.751C498.623 504.161 498.824 504.645 498.824 505.203C498.824 505.786 498.623 506.282 498.221 506.692C497.819 507.103 497.318 507.308 496.719 507.308C496.137 507.308 495.644 507.103 495.242 506.692C494.84 506.282 494.639 505.786 494.639 505.203Z" fill="#4A4A4A"/>
<path d="M527.703 489.732C528.827 489.732 529.771 489.876 530.534 490.163C531.305 490.45 532.027 490.869 532.7 491.418L531.383 492.969C530.858 492.534 530.3 492.218 529.709 492.022C529.118 491.816 528.499 491.714 527.851 491.714C526.956 491.714 526.132 491.931 525.377 492.366C524.622 492.801 524.015 493.515 523.555 494.508C523.096 495.501 522.866 496.834 522.866 498.508C522.866 500.141 523.083 501.453 523.518 502.446C523.961 503.431 524.556 504.149 525.303 504.6C526.058 505.043 526.899 505.265 527.826 505.265C528.753 505.265 529.52 505.121 530.127 504.834C530.743 504.538 531.276 504.202 531.727 503.825L532.946 505.388C532.413 505.913 531.719 506.364 530.866 506.742C530.021 507.119 528.987 507.308 527.764 507.308C526.361 507.308 525.098 506.971 523.974 506.298C522.858 505.626 521.972 504.637 521.315 503.332C520.659 502.019 520.331 500.411 520.331 498.508C520.331 496.604 520.663 495 521.327 493.695C522 492.391 522.895 491.406 524.011 490.742C525.135 490.069 526.365 489.732 527.703 489.732Z" fill="#4A4A4A"/>
<path d="M536.13 507V505.252H538.099V495.775H536.13V494.028H539.908L540.339 497.068C540.832 495.993 541.435 495.168 542.148 494.594C542.871 494.011 543.806 493.72 544.955 493.72C545.332 493.72 545.664 493.749 545.952 493.806C546.247 493.864 546.546 493.937 546.85 494.028L546.481 498.582H544.659V495.874H544.647C542.702 495.874 541.307 497.265 540.462 500.046V505.252H543.096V507H536.13Z" fill="#4A4A4A"/>
<path d="M560.336 504.022C560.336 504.538 560.418 504.916 560.582 505.154C560.746 505.384 561.004 505.556 561.357 505.671L560.803 507.295C560.213 507.222 559.696 507.045 559.253 506.766C558.818 506.487 558.498 506.061 558.293 505.486C557.825 506.093 557.234 506.549 556.52 506.852C555.806 507.156 555.031 507.308 554.194 507.308C552.89 507.308 551.86 506.938 551.105 506.2C550.35 505.462 549.973 504.489 549.973 503.283C549.973 501.937 550.498 500.904 551.548 500.182C552.606 499.451 554.124 499.086 556.102 499.086H557.985V498.102C557.985 497.207 557.718 496.571 557.185 496.194C556.66 495.816 555.925 495.628 554.982 495.628C554.547 495.628 554.034 495.681 553.443 495.788C552.861 495.894 552.237 496.063 551.573 496.292L550.97 494.569C551.765 494.266 552.533 494.048 553.271 493.917C554.01 493.786 554.699 493.72 555.339 493.72C557.004 493.72 558.252 494.102 559.08 494.865C559.917 495.628 560.336 496.666 560.336 497.978V504.022ZM554.859 505.535C555.458 505.535 556.036 505.379 556.594 505.068C557.16 504.756 557.624 504.321 557.985 503.763V500.625H556.262C554.892 500.625 553.919 500.858 553.345 501.326C552.771 501.786 552.483 502.417 552.483 503.222C552.483 504.764 553.275 505.535 554.859 505.535Z" fill="#4A4A4A"/>
<path d="M567.901 495.652C568.361 495.045 568.898 494.573 569.514 494.237C570.137 493.892 570.814 493.72 571.544 493.72C572.693 493.72 573.624 494.003 574.338 494.569C575.052 495.127 575.573 495.915 575.901 496.932C576.229 497.942 576.394 499.131 576.394 500.502C576.394 501.814 576.197 502.984 575.803 504.009C575.409 505.035 574.831 505.843 574.067 506.434C573.304 507.016 572.365 507.308 571.249 507.308C569.764 507.308 568.603 506.766 567.766 505.683L567.618 507H565.538V488.809L567.901 488.526V495.652ZM570.671 505.449C571.688 505.449 572.472 505.047 573.021 504.243C573.579 503.431 573.858 502.184 573.858 500.502C573.858 498.819 573.608 497.581 573.107 496.785C572.615 495.981 571.901 495.578 570.966 495.578C570.293 495.578 569.698 495.784 569.181 496.194C568.664 496.596 568.238 497.055 567.901 497.572V503.849C568.229 504.342 568.632 504.731 569.107 505.018C569.583 505.306 570.104 505.449 570.671 505.449Z" fill="#4A4A4A"/>
<path d="M595.193 507V505.252H597.162V495.775H595.193V494.028H598.971L599.402 497.068C599.894 495.993 600.497 495.168 601.211 494.594C601.933 494.011 602.868 493.72 604.017 493.72C604.395 493.72 604.727 493.749 605.014 493.806C605.309 493.864 605.609 493.937 605.913 494.028L605.543 498.582H603.722V495.874H603.709C601.765 495.874 600.37 497.265 599.525 500.046V505.252H602.159V507H595.193Z" fill="#4A4A4A"/>
<path d="M619.398 504.022C619.398 504.538 619.48 504.916 619.644 505.154C619.808 505.384 620.067 505.556 620.42 505.671L619.866 507.295C619.275 507.222 618.758 507.045 618.315 506.766C617.88 506.487 617.56 506.061 617.355 505.486C616.887 506.093 616.297 506.549 615.583 506.852C614.869 507.156 614.094 507.308 613.257 507.308C611.952 507.308 610.922 506.938 610.167 506.2C609.413 505.462 609.035 504.489 609.035 503.283C609.035 501.937 609.56 500.904 610.61 500.182C611.669 499.451 613.187 499.086 615.164 499.086H617.047V498.102C617.047 497.207 616.781 496.571 616.247 496.194C615.722 495.816 614.988 495.628 614.044 495.628C613.609 495.628 613.097 495.681 612.506 495.788C611.923 495.894 611.3 496.063 610.635 496.292L610.032 494.569C610.828 494.266 611.595 494.048 612.334 493.917C613.072 493.786 613.761 493.72 614.401 493.72C616.067 493.72 617.314 494.102 618.143 494.865C618.98 495.628 619.398 496.666 619.398 497.978V504.022ZM613.921 505.535C614.52 505.535 615.099 505.379 615.657 505.068C616.223 504.756 616.686 504.321 617.047 503.763V500.625H615.324C613.954 500.625 612.982 500.858 612.407 501.326C611.833 501.786 611.546 502.417 611.546 503.222C611.546 504.764 612.338 505.535 613.921 505.535Z" fill="#4A4A4A"/>
<path d="M635.653 494.028L631.001 507H628.244L623.616 494.028H626.127L629.684 504.945L633.228 494.028H635.653Z" fill="#4A4A4A"/>
<path d="M641.274 501.314C641.34 502.742 641.725 503.779 642.431 504.428C643.145 505.076 643.99 505.4 644.966 505.4C645.615 505.4 646.209 505.302 646.751 505.105C647.292 504.908 647.842 504.621 648.4 504.243L649.471 505.732C648.864 506.216 648.162 506.602 647.366 506.889C646.57 507.168 645.746 507.308 644.892 507.308C643.596 507.308 642.492 507.025 641.582 506.458C640.679 505.884 639.99 505.088 639.514 504.071C639.046 503.053 638.812 501.872 638.812 500.526C638.812 499.222 639.046 498.056 639.514 497.031C639.99 496.005 640.659 495.197 641.52 494.606C642.382 494.015 643.407 493.72 644.597 493.72C646.271 493.72 647.588 494.294 648.548 495.443C649.516 496.584 650 498.147 650 500.132C650 500.354 649.996 500.567 649.988 500.772C649.98 500.977 649.967 501.158 649.951 501.314H641.274ZM644.622 495.566C643.695 495.566 642.927 495.894 642.32 496.551C641.713 497.207 641.364 498.221 641.274 499.591H647.723C647.699 498.278 647.411 497.281 646.862 496.6C646.32 495.911 645.573 495.566 644.622 495.566Z" fill="#4A4A4A"/>
<path d="M70.144 446.148H80.548V448.092H76.462V459H74.212V448.092H70.144V446.148Z" fill="#2E2E2E"/>
<path d="M82.5779 446.148H91.8299V448.092H84.8279V451.458H91.3079V453.294H84.8279V457.056H91.9559V459H82.5779V446.148Z" fill="#2E2E2E"/>
<path d="M93.3398 446.148H96.0218L98.9378 450.684L101.98 446.148H104.5L100.252 452.34L104.806 459H102.07L98.8658 454.086L95.6078 459H93.0338L97.5878 452.34L93.3398 446.148Z" fill="#2E2E2E"/>
<path d="M105.444 446.148H115.848V448.092H111.762V459H109.512V448.092H105.444V446.148Z" fill="#2E2E2E"/>
<path d="M132.103 450.234C132.007 449.862 131.875 449.52 131.707 449.208C131.539 448.896 131.323 448.626 131.059 448.398C130.795 448.17 130.483 447.996 130.123 447.876C129.775 447.744 129.367 447.678 128.899 447.678C128.215 447.678 127.621 447.816 127.117 448.092C126.625 448.368 126.223 448.74 125.911 449.208C125.599 449.664 125.365 450.186 125.209 450.774C125.065 451.362 124.993 451.962 124.993 452.574C124.993 453.186 125.065 453.786 125.209 454.374C125.365 454.962 125.599 455.49 125.911 455.958C126.223 456.414 126.625 456.78 127.117 457.056C127.621 457.332 128.215 457.47 128.899 457.47C129.403 457.47 129.847 457.386 130.231 457.218C130.615 457.038 130.945 456.798 131.221 456.498C131.497 456.186 131.713 455.826 131.869 455.418C132.025 455.01 132.127 454.572 132.175 454.104H134.371C134.323 454.872 134.155 455.574 133.867 456.21C133.591 456.846 133.213 457.398 132.733 457.866C132.253 458.322 131.689 458.676 131.041 458.928C130.393 459.18 129.679 459.306 128.899 459.306C127.939 459.306 127.075 459.132 126.307 458.784C125.551 458.424 124.909 457.938 124.381 457.326C123.853 456.714 123.445 456 123.157 455.184C122.881 454.368 122.743 453.498 122.743 452.574C122.743 451.662 122.881 450.798 123.157 449.982C123.445 449.166 123.853 448.452 124.381 447.84C124.909 447.228 125.551 446.742 126.307 446.382C127.075 446.022 127.939 445.842 128.899 445.842C129.619 445.842 130.297 445.944 130.933 446.148C131.569 446.34 132.127 446.628 132.607 447.012C133.099 447.384 133.495 447.84 133.795 448.38C134.095 448.92 134.281 449.538 134.353 450.234H132.103Z" fill="#2E2E2E"/>
<path d="M142.43 447.678C141.746 447.678 141.152 447.816 140.648 448.092C140.156 448.368 139.754 448.74 139.442 449.208C139.13 449.664 138.896 450.186 138.74 450.774C138.596 451.362 138.524 451.962 138.524 452.574C138.524 453.186 138.596 453.786 138.74 454.374C138.896 454.962 139.13 455.49 139.442 455.958C139.754 456.414 140.156 456.78 140.648 457.056C141.152 457.332 141.746 457.47 142.43 457.47C143.114 457.47 143.702 457.332 144.194 457.056C144.698 456.78 145.106 456.414 145.418 455.958C145.73 455.49 145.958 454.962 146.102 454.374C146.258 453.786 146.336 453.186 146.336 452.574C146.336 451.962 146.258 451.362 146.102 450.774C145.958 450.186 145.73 449.664 145.418 449.208C145.106 448.74 144.698 448.368 144.194 448.092C143.702 447.816 143.114 447.678 142.43 447.678ZM142.43 445.842C143.39 445.842 144.248 446.022 145.004 446.382C145.772 446.742 146.42 447.228 146.948 447.84C147.476 448.452 147.878 449.166 148.154 449.982C148.442 450.798 148.586 451.662 148.586 452.574C148.586 453.498 148.442 454.368 148.154 455.184C147.878 456 147.476 456.714 146.948 457.326C146.42 457.938 145.772 458.424 145.004 458.784C144.248 459.132 143.39 459.306 142.43 459.306C141.47 459.306 140.606 459.132 139.838 458.784C139.082 458.424 138.44 457.938 137.912 457.326C137.384 456.714 136.976 456 136.688 455.184C136.412 454.368 136.274 453.498 136.274 452.574C136.274 451.662 136.412 450.798 136.688 449.982C136.976 449.166 137.384 448.452 137.912 447.84C138.44 447.228 139.082 446.742 139.838 446.382C140.606 446.022 141.47 445.842 142.43 445.842Z" fill="#2E2E2E"/>
<path d="M151.083 446.148H153.459L159.327 455.616H159.363V446.148H161.505V459H159.129L153.279 449.55H153.225V459H151.083V446.148Z" fill="#2E2E2E"/>
<path d="M163.48 446.148H173.884V448.092H169.798V459H167.548V448.092H163.48V446.148Z" fill="#2E2E2E"/>
<path d="M175.914 446.148H185.166V448.092H178.164V451.458H184.644V453.294H178.164V457.056H185.292V459H175.914V446.148Z" fill="#2E2E2E"/>
<path d="M187.701 446.148H190.077L195.945 455.616H195.981V446.148H198.123V459H195.747L189.897 449.55H189.843V459H187.701V446.148Z" fill="#2E2E2E"/>
<path d="M200.098 446.148H210.502V448.092H206.416V459H204.166V448.092H200.098V446.148Z" fill="#2E2E2E"/>
<path d="M390.806 446.148H393.2L398.15 459H395.738L394.532 455.598H389.402L388.196 459H385.874L390.806 446.148ZM390.014 453.888H393.938L392.012 448.362H391.958L390.014 453.888Z" fill="#2E2E2E"/>
<path d="M397.038 446.148H407.442V448.092H403.356V459H401.106V448.092H397.038V446.148Z" fill="#2E2E2E"/>
<path d="M408.247 446.148H418.651V448.092H414.565V459H412.315V448.092H408.247V446.148Z" fill="#2E2E2E"/>
<path d="M420.681 446.148H426.819C428.235 446.148 429.297 446.454 430.005 447.066C430.713 447.678 431.067 448.53 431.067 449.622C431.067 450.234 430.977 450.744 430.797 451.152C430.617 451.548 430.407 451.872 430.167 452.124C429.927 452.364 429.687 452.538 429.447 452.646C429.219 452.754 429.051 452.826 428.943 452.862V452.898C429.135 452.922 429.339 452.982 429.555 453.078C429.783 453.174 429.993 453.33 430.185 453.546C430.377 453.75 430.533 454.02 430.653 454.356C430.785 454.692 430.851 455.112 430.851 455.616C430.851 456.372 430.905 457.062 431.013 457.686C431.133 458.298 431.313 458.736 431.553 459H429.141C428.973 458.724 428.871 458.418 428.835 458.082C428.811 457.746 428.799 457.422 428.799 457.11C428.799 456.522 428.763 456.018 428.691 455.598C428.619 455.166 428.487 454.812 428.295 454.536C428.103 454.248 427.839 454.038 427.503 453.906C427.179 453.774 426.759 453.708 426.243 453.708H422.931V459H420.681V446.148ZM422.931 451.998H426.621C427.341 451.998 427.887 451.83 428.259 451.494C428.631 451.146 428.817 450.63 428.817 449.946C428.817 449.538 428.757 449.208 428.637 448.956C428.517 448.692 428.349 448.488 428.133 448.344C427.929 448.2 427.689 448.104 427.413 448.056C427.149 448.008 426.873 447.984 426.585 447.984H422.931V451.998Z" fill="#2E2E2E"/>
<path d="M433.895 446.148H436.145V459H433.895V446.148Z" fill="#2E2E2E"/>
<path d="M441.695 451.53H445.367C445.907 451.53 446.357 451.38 446.717 451.08C447.077 450.768 447.257 450.324 447.257 449.748C447.257 449.1 447.095 448.644 446.771 448.38C446.447 448.116 445.979 447.984 445.367 447.984H441.695V451.53ZM439.445 446.148H445.691C446.843 446.148 447.767 446.412 448.463 446.94C449.159 447.468 449.507 448.266 449.507 449.334C449.507 449.982 449.345 450.54 449.021 451.008C448.709 451.464 448.259 451.818 447.671 452.07V452.106C448.463 452.274 449.063 452.652 449.471 453.24C449.879 453.816 450.083 454.542 450.083 455.418C450.083 455.922 449.993 456.396 449.813 456.84C449.633 457.272 449.351 457.65 448.967 457.974C448.583 458.286 448.091 458.538 447.491 458.73C446.891 458.91 446.177 459 445.349 459H439.445V446.148ZM441.695 457.164H445.673C446.357 457.164 446.885 456.99 447.257 456.642C447.641 456.282 447.833 455.778 447.833 455.13C447.833 454.494 447.641 454.008 447.257 453.672C446.885 453.324 446.357 453.15 445.673 453.15H441.695V457.164Z" fill="#2E2E2E"/>
<path d="M452.515 446.148H454.765V453.636C454.765 454.068 454.783 454.506 454.819 454.95C454.867 455.394 454.987 455.796 455.179 456.156C455.383 456.504 455.683 456.792 456.079 457.02C456.487 457.248 457.057 457.362 457.789 457.362C458.521 457.362 459.085 457.248 459.481 457.02C459.889 456.792 460.189 456.504 460.381 456.156C460.585 455.796 460.705 455.394 460.741 454.95C460.789 454.506 460.813 454.068 460.813 453.636V446.148H463.063V454.374C463.063 455.202 462.937 455.922 462.685 456.534C462.433 457.146 462.073 457.662 461.605 458.082C461.149 458.49 460.597 458.796 459.949 459C459.301 459.204 458.581 459.306 457.789 459.306C456.997 459.306 456.277 459.204 455.629 459C454.981 458.796 454.423 458.49 453.955 458.082C453.499 457.662 453.145 457.146 452.893 456.534C452.641 455.922 452.515 455.202 452.515 454.374V446.148Z" fill="#2E2E2E"/>
<path d="M464.965 446.148H475.369V448.092H471.283V459H469.033V448.092H464.965V446.148Z" fill="#2E2E2E"/>
<path d="M477.399 446.148H486.651V448.092H479.649V451.458H486.129V453.294H479.649V457.056H486.777V459H477.399V446.148Z" fill="#2E2E2E"/>
<path d="M503.503 450.234C503.407 449.862 503.275 449.52 503.107 449.208C502.939 448.896 502.723 448.626 502.459 448.398C502.195 448.17 501.883 447.996 501.523 447.876C501.175 447.744 500.767 447.678 500.299 447.678C499.615 447.678 499.021 447.816 498.517 448.092C498.025 448.368 497.623 448.74 497.311 449.208C496.999 449.664 496.765 450.186 496.609 450.774C496.465 451.362 496.393 451.962 496.393 452.574C496.393 453.186 496.465 453.786 496.609 454.374C496.765 454.962 496.999 455.49 497.311 455.958C497.623 456.414 498.025 456.78 498.517 457.056C499.021 457.332 499.615 457.47 500.299 457.47C500.803 457.47 501.247 457.386 501.631 457.218C502.015 457.038 502.345 456.798 502.621 456.498C502.897 456.186 503.113 455.826 503.269 455.418C503.425 455.01 503.527 454.572 503.575 454.104H505.771C505.723 454.872 505.555 455.574 505.267 456.21C504.991 456.846 504.613 457.398 504.133 457.866C503.653 458.322 503.089 458.676 502.441 458.928C501.793 459.18 501.079 459.306 500.299 459.306C499.339 459.306 498.475 459.132 497.707 458.784C496.951 458.424 496.309 457.938 495.781 457.326C495.253 456.714 494.845 456 494.557 455.184C494.281 454.368 494.143 453.498 494.143 452.574C494.143 451.662 494.281 450.798 494.557 449.982C494.845 449.166 495.253 448.452 495.781 447.84C496.309 447.228 496.951 446.742 497.707 446.382C498.475 446.022 499.339 445.842 500.299 445.842C501.019 445.842 501.697 445.944 502.333 446.148C502.969 446.34 503.527 446.628 504.007 447.012C504.499 447.384 504.895 447.84 505.195 448.38C505.495 448.92 505.681 449.538 505.753 450.234H503.503Z" fill="#2E2E2E"/>
<path d="M513.829 447.678C513.145 447.678 512.551 447.816 512.047 448.092C511.555 448.368 511.153 448.74 510.841 449.208C510.529 449.664 510.295 450.186 510.139 450.774C509.995 451.362 509.923 451.962 509.923 452.574C509.923 453.186 509.995 453.786 510.139 454.374C510.295 454.962 510.529 455.49 510.841 455.958C511.153 456.414 511.555 456.78 512.047 457.056C512.551 457.332 513.145 457.47 513.829 457.47C514.513 457.47 515.101 457.332 515.593 457.056C516.097 456.78 516.505 456.414 516.817 455.958C517.129 455.49 517.357 454.962 517.501 454.374C517.657 453.786 517.735 453.186 517.735 452.574C517.735 451.962 517.657 451.362 517.501 450.774C517.357 450.186 517.129 449.664 516.817 449.208C516.505 448.74 516.097 448.368 515.593 448.092C515.101 447.816 514.513 447.678 513.829 447.678ZM513.829 445.842C514.789 445.842 515.647 446.022 516.403 446.382C517.171 446.742 517.819 447.228 518.347 447.84C518.875 448.452 519.277 449.166 519.553 449.982C519.841 450.798 519.985 451.662 519.985 452.574C519.985 453.498 519.841 454.368 519.553 455.184C519.277 456 518.875 456.714 518.347 457.326C517.819 457.938 517.171 458.424 516.403 458.784C515.647 459.132 514.789 459.306 513.829 459.306C512.869 459.306 512.005 459.132 511.237 458.784C510.481 458.424 509.839 457.938 509.311 457.326C508.783 456.714 508.375 456 508.087 455.184C507.811 454.368 507.673 453.498 507.673 452.574C507.673 451.662 507.811 450.798 508.087 449.982C508.375 449.166 508.783 448.452 509.311 447.84C509.839 447.228 510.481 446.742 511.237 446.382C512.005 446.022 512.869 445.842 513.829 445.842Z" fill="#2E2E2E"/>
<path d="M522.483 446.148H524.859L530.727 455.616H530.763V446.148H532.905V459H530.529L524.679 449.55H524.625V459H522.483V446.148Z" fill="#2E2E2E"/>
<path d="M534.879 446.148H545.283V448.092H541.197V459H538.947V448.092H534.879V446.148Z" fill="#2E2E2E"/>
<path d="M547.313 446.148H556.565V448.092H549.563V451.458H556.043V453.294H549.563V457.056H556.691V459H547.313V446.148Z" fill="#2E2E2E"/>
<path d="M559.101 446.148H561.477L567.345 455.616H567.381V446.148H569.523V459H567.147L561.297 449.55H561.243V459H559.101V446.148Z" fill="#2E2E2E"/>
<path d="M571.497 446.148H581.901V448.092H577.815V459H575.565V448.092H571.497V446.148Z" fill="#2E2E2E"/>
<line x1="60" y1="473.5" x2="346" y2="473.5" stroke="#DDDDDD"/>
<line x1="376" y1="473.5" x2="662" y2="473.5" stroke="#DDDDDD"/>
<path d="M93 109H35V401" stroke="#61D3D1" stroke-width="2"/>
<path d="M563 269H686V401" stroke="#F9D749" stroke-width="2"/>
<path d="M57 499H35V401" stroke="#007299" stroke-width="2"/>
<path d="M664 499H686V401" stroke="#AA5D00" stroke-width="2"/>
<circle cx="93" cy="109" r="3" fill="#61D3D1"/>
<circle cx="563" cy="269" r="3" fill="#F9D749"/>
<circle cx="57" cy="499" r="3" fill="#007299"/>
<circle cx="664" cy="499" r="3" fill="#AA5D00"/>
</svg>
