<svg width="500" height="500" viewBox="0 0 500 500" fill="none" xmlns="http://www.w3.org/2000/svg">
<rect width="500" height="500" fill="white"/>
<rect width="500" height="500" fill="url(#paint0_linear)"/>
<path d="M365.847 242.671C366.066 245.298 366.176 247.926 366.176 250.663C366.176 315.365 313.735 367.805 249.033 367.805C184.331 367.805 132 315.365 132 250.663C132 186.07 184.331 133.629 249.033 133.629C271.695 133.629 292.825 140.089 310.779 151.256" fill="#FDFBFD"/>
<path d="M336.287 238.508C337.163 252.084 337.711 273.108 336.069 273.984C333.222 275.297 317.567 264.788 317.567 264.788L319.892 233.106" fill="#496399"/>
<path d="M163.793 194.383C163.793 194.383 197.532 142.315 265.518 150.088C269.24 150.417 272.634 150.417 274.605 153.811C274.933 154.468 281.721 160.379 281.721 160.489H262.781L258.84 163.992L276.138 174.283C272.306 175.269 262.453 178.444 262.453 178.444L252.426 190.4L252.288 203.397L267.051 209.974C267.708 209.974 269.788 203.186 269.788 203.186L292.923 189.407C293.332 189.407 295.096 208.848 295.096 208.848C295.972 208.958 301.427 206.361 305.15 204.281C303.909 208.9 295.187 226.724 295.187 226.724L284.567 237.453L287.633 242.708L244.128 265.347C242.293 266.114 240.658 267.435 240.119 269.421C238.367 275.989 243.403 285.843 244.06 287.923C244.717 289.893 238.805 295.915 238.258 296.243C237.71 296.571 226.653 290.441 224.792 289.565C224.792 289.565 196.381 263.28 194.684 235.138L203.983 202.787L183.737 196.508C183.737 196.508 167.402 194.909 163.793 194.383Z" fill="#496399"/>
<path d="M279.726 286.541C279.726 286.541 290.213 287.626 292.203 287.626C294.192 287.626 300.159 279.85 300.159 279.85C300.159 279.85 297.447 274.788 295.819 274.606C294.192 274.426 277.015 276.958 277.015 276.958L279.726 286.541Z" fill="#496399"/>
<path d="M261.664 286.526C261.664 286.526 275.12 299.912 276.584 300.709C278.049 301.506 275.168 308.941 275.168 308.941L265.945 319.77L255.894 297.839C255.894 297.839 261.504 287.948 261.664 286.526Z" fill="#496399"/>
<path d="M298.403 313.229V305.322L331.24 301.435C331.24 301.435 318.641 338.829 291.165 344.725L274.278 335.88L298.403 313.229Z" fill="#496399"/>
<path opacity="0.1" d="M366.129 250.62C366.129 253.685 366.019 256.641 365.8 259.597H332.19C326.826 259.597 322.009 257.626 318.286 254.451C313.688 250.51 310.842 244.708 310.842 238.249V221.279C310.842 228.286 319.464 225.759 324.719 229.7C328.223 232.328 326.578 233.105 331.394 233.105L365.8 242.628C366.019 245.255 366.129 247.883 366.129 250.62Z" fill="black"/>
<path d="M414.374 242.315C413.17 242.534 411.966 242.643 410.652 242.643H409.667H376.932H332.156C320.332 242.643 310.807 233.009 310.807 221.295V113.348C310.807 101.525 320.332 92 332.156 92H410.652C422.366 92 432 101.525 432 113.348V151.228V221.295C432 231.695 424.337 240.563 414.374 242.315Z" fill="#F43734"/>
<path d="M376.973 129.826C375.331 133.11 372.594 136.394 368.762 139.788C364.931 143.292 360.442 146.138 355.296 148.547V157.414C358.143 156.429 361.427 154.787 364.931 152.707C368.542 150.627 371.499 148.547 373.689 146.357V204.819H382.884V129.826H376.973V129.826Z" fill="white"/>
<defs>
<linearGradient id="paint0_linear" x1="250" y1="0" x2="250" y2="500" gradientUnits="userSpaceOnUse">
<stop stop-color="#50699C"/>
<stop offset="1" stop-color="#425C96"/>
</linearGradient>
</defs>
</svg>
