<svg xmlns="http://www.w3.org/2000/svg" viewBox="0 0 690.4 800"><defs><style>.cls-1,.cls-3{fill:#fff;}.cls-2,.cls-3{fill-rule:evenodd;}</style></defs><g id="Layer_1_1"><polygon points="344.9 102.84 77.83 8.58 77.83 589.85 344.9 503.44 344.9 102.84"/><polygon class="cls-1" points="338.49 102.55 615.78 8.29 615.78 589.56 338.49 503.15 338.49 102.55"/><polygon class="cls-1" points="8.58 691.61 338.49 581.64 338.49 102.48 8.58 212.45 8.58 691.61"/><polygon points="488.82 698.84 535.58 775.77 560.24 704.31 488.82 698.84"/><path d="M120.76,267.64c-1.76-1.72,2.28,14.07,7.89,19.74,10,10.05,17.74,11.34,21.88,11.51,9.16.37,20.46-2.28,27.18-5.1,6.5-2.77,17.88-8.58,22.19-17.06.91-1.81,3.41-4.86,1.84-12.37-1.19-5.79-4.87-7.81-9.36-7.49s-18.08,3.93-24.65,5.95-20.13,6.12-26,7.4S122.82,269.62,120.76,267.64Z"/><path d="M287.22,456.31c-2.6-.94-56.39-23.22-64-26.88-6.24-3-21.54-9.46-28.73-12.4,20.27-31.26,33.07-54.85,34.77-58.45,3.16-6.57,24.62-48.56,25.12-51.15s1.09-12.3.62-14.6-8.34,2.16-19,5.79-31,16.83-38.89,18.49-33.08,11.18-46,15.46S113.83,344.29,103.8,347,85,349.92,79.37,351.63c0,0,.75,7.87,2.24,10.23s6.79,8.14,13,9.75,16.4,1,21.06-.09,12.72-5,13.81-6.74-.57-7.14,1.27-8.77,26.41-7.35,35.68-10.15,44.75-15.07,49.56-14.44c-1.53,5.05-30.06,61.58-39.26,78.44s-62.6,91.05-74,104.12C94.1,523.92,73.19,549.35,66,555.09c1.82.5,14.77-.61,17.13-2.07,14.71-9,39.2-39.54,47.08-48.83,23.44-27.48,44-56.36,60.36-81.13h0c3.18,1.32,28.9,22.28,35.61,26.92s33.2,19.42,38.94,21.87,27.79,12.65,28.72,9.21S289.82,457.3,287.22,456.31Z"/><path class="cls-2" d="M162.92,736.44a162.88,162.88,0,0,0,15.46,8.3,347.74,347.74,0,0,0,34.93,15.46,384.88,384.88,0,0,0,48.11,14.6c8.87,2,18.61,3.73,28.06,5.16.86,0,26.34,3.15,31.49,3.15h25.77c10-.86,19.47-1.43,29.49-2.87,8-1.14,16.9-2.57,25.49-4.58,6.3-1.43,12.88-2.86,19.18-4.87,6-1.71,12.89-4,19.47-6.29,4.3-1.44,8.88-3.44,13.46-5.16,3.72-1.72,8.3-3.72,12.6-5.44,5.15-2.29,11.16-5.44,16.89-8.3,4.58-2.29,9.74-5.16,14.6-8,3.73-2,12.32-8.59,16.9-8.59a8.8,8.8,0,0,1,8.59,8.59c0,8.3-11.17,10.88-16.32,14.6-5.44,3.73-12,6.59-17.76,9.74A325.68,325.68,0,0,1,455,777.38a405.1,405.1,0,0,1-45,14c-5.44,1.15-10.88,2.58-16.32,3.44-2.86.57-32.64,5.15-40.94,5.15H315c-10-.86-20.61-2-30.64-3.44-8.87-1.43-18.32-3.15-27.2-5.15-6.87-1.43-14.31-3.44-20.9-5.44a331,331,0,0,1-33.5-11.45,300.3,300.3,0,0,1-59.84-30.07c-3.44-2.29-3.72-4.58-3.72-7.16a8.12,8.12,0,0,1,8.3-8.3C152,729,161.2,735.58,162.92,736.44Z"/><path class="cls-2" d="M329.56,575.23,17.47,679.17V218.75L329.56,114.82ZM347,101.36v481a9.89,9.89,0,0,1-2,4.3,6.67,6.67,0,0,1-2.58,2.29C335.29,591.84,12.88,700.07,8.59,700.07c-3.44,0-6.59-2.29-8.3-6,0-.29-.29-.57-.29-1.15V211.6c.57-1.44.86-3.44,2-4.58,2.29-3.15,6.3-3.73,8.88-4.59,4.87-1.71,322.41-108.23,327-108.23C340.73,94.2,347,96.21,347,101.36Z"/><path class="cls-2" d="M607,577.52l-259.7-80.74v-388L607,20.62ZM624.48,9.16V588.4c-.29,6.59-4.87,9.45-9.16,9.45-3.72,0-30.64-9.16-35.22-10.59-36.08-11.17-72.44-22.34-108.23-33.5-8-2.58-16.32-5.16-24.05-7.73-6.88-2-14.32-4.3-21.19-6.59-30.64-9.45-61.85-18.9-92.49-29.2-1.14-.29-4-4.3-4-5.16V100.5a9.56,9.56,0,0,1,2.57-4.29C335,93.63,433.21,61,471.87,48.1,482.18,44.38,611.31,0,615.32,0A8.87,8.87,0,0,1,624.48,9.16Z"/><polygon points="690.4 698.84 343.45 588.26 344.9 106.86 690.4 216.82 690.4 698.84"/><path class="cls-3" d="M515.49,322,481.44,404.3l62.6,19Zm-20.43-77.7,44.69,13.54,81.44,293.49-45.91-13.93-16.5-60.25L463.9,448.38l-20.41,49.09-45.92-13.94Z"/></g></svg>