<svg width="710" height="94" viewBox="0 0 710 94" fill="none" xmlns="http://www.w3.org/2000/svg">
<path d="M38.4118 19.3399V25.3879H13.8958V42.0199H33.6599V47.8519H13.8958V64.9519H38.4478L38.4118 70.9999H6.44385V19.3399H38.4118Z" fill="#244D6C"/>
<path d="M45.5382 70.9999V34.4599H49.6422C50.6022 34.4599 51.2022 34.9159 51.4422 35.8279L51.9462 39.6079C53.5302 37.9039 55.2942 36.5239 57.2382 35.4679C59.1822 34.4119 61.4262 33.8839 63.9702 33.8839C65.9622 33.8839 67.7142 34.2199 69.2262 34.8919C70.7622 35.5639 72.0462 36.5119 73.0782 37.7359C74.1102 38.9359 74.8902 40.3879 75.4182 42.0919C75.9462 43.7719 76.2102 45.6439 76.2102 47.7079V70.9999H69.3702V47.7079C69.3702 45.0679 68.7582 43.0159 67.5342 41.5519C66.3102 40.0639 64.4502 39.3199 61.9542 39.3199C60.1062 39.3199 58.3902 39.7519 56.8062 40.6159C55.2222 41.4799 53.7462 42.6679 52.3782 44.1799V70.9999H45.5382Z" fill="#244D6C"/>
<path d="M98.5729 33.8479C100.157 33.8479 101.621 34.0279 102.965 34.3879C104.333 34.7239 105.593 35.2159 106.745 35.8639H116.825V38.3839C116.825 39.2479 116.297 39.7879 115.241 40.0039L111.245 40.5799C111.989 42.1159 112.361 43.7959 112.361 45.6199C112.361 47.4199 112.013 49.0399 111.317 50.4799C110.645 51.9199 109.697 53.1559 108.473 54.1879C107.249 55.2199 105.785 56.0119 104.081 56.5639C102.401 57.1159 100.565 57.3919 98.5729 57.3919C96.8929 57.3919 95.3329 57.2119 93.8929 56.8519C92.3809 57.7639 91.6249 58.7719 91.6249 59.8759C91.6249 60.7159 91.9729 61.3519 92.6689 61.7839C93.3889 62.1919 94.3249 62.4919 95.4769 62.6839C96.6289 62.8759 97.9369 62.9959 99.4009 63.0439C100.865 63.0919 102.365 63.1759 103.901 63.2959C105.437 63.3919 106.937 63.5719 108.401 63.8359C109.865 64.0999 111.173 64.5439 112.325 65.1679C113.477 65.7679 114.401 66.5959 115.097 67.6519C115.817 68.7079 116.177 70.0879 116.177 71.7919C116.177 73.3759 115.781 74.8999 114.989 76.3639C114.221 77.8519 113.093 79.1599 111.605 80.2879C110.141 81.4399 108.341 82.3639 106.205 83.0599C104.069 83.7559 101.657 84.1039 98.9689 84.1039C96.2809 84.1039 93.9289 83.8399 91.9129 83.3119C89.9209 82.7839 88.2529 82.0759 86.9089 81.1879C85.5889 80.2999 84.5929 79.2679 83.9209 78.0919C83.2729 76.9399 82.9489 75.7279 82.9489 74.4559C82.9489 72.6559 83.5009 71.1439 84.6049 69.9199C85.7329 68.6719 87.2689 67.6999 89.2129 67.0039C88.1329 66.5239 87.2809 65.8759 86.6569 65.0599C86.0329 64.2199 85.7209 63.1159 85.7209 61.7479C85.7209 61.2199 85.8169 60.6799 86.0089 60.1279C86.2009 59.5519 86.4889 58.9879 86.8729 58.4359C87.2809 57.8599 87.7729 57.3199 88.3489 56.8159C88.9489 56.3119 89.6329 55.8679 90.4009 55.4839C88.6009 54.4759 87.1849 53.1439 86.1529 51.4879C85.1209 49.8079 84.6049 47.8519 84.6049 45.6199C84.6049 43.8199 84.9529 42.1999 85.6489 40.7599C86.3449 39.3199 87.3049 38.0839 88.5289 37.0519C89.7769 36.0199 91.2529 35.2279 92.9569 34.6759C94.6609 34.1239 96.5329 33.8479 98.5729 33.8479ZM109.877 72.9079C109.877 72.0439 109.625 71.3479 109.121 70.8199C108.641 70.2919 107.981 69.8719 107.141 69.5599C106.301 69.2479 105.329 69.0319 104.225 68.9119C103.121 68.7919 101.957 68.6959 100.733 68.6239C99.5089 68.5519 98.2489 68.4799 96.9529 68.4079C95.6809 68.3359 94.4569 68.2159 93.2809 68.0479C91.9849 68.6719 90.9289 69.4399 90.1129 70.3519C89.2969 71.2639 88.8889 72.3319 88.8889 73.5559C88.8889 74.3479 89.0929 75.0799 89.5009 75.7519C89.9089 76.4479 90.5209 77.0359 91.3369 77.5159C92.1769 78.0199 93.2329 78.4159 94.5049 78.7039C95.8009 78.9919 97.3249 79.1359 99.0769 79.1359C100.805 79.1359 102.341 78.9799 103.685 78.6679C105.029 78.3559 106.157 77.9239 107.069 77.3719C107.981 76.8199 108.677 76.1599 109.157 75.3919C109.637 74.6479 109.877 73.8199 109.877 72.9079ZM98.5729 52.8919C99.8449 52.8919 100.961 52.7239 101.921 52.3879C102.881 52.0279 103.685 51.5359 104.333 50.9119C104.981 50.2879 105.461 49.5439 105.773 48.6799C106.109 47.8159 106.277 46.8559 106.277 45.7999C106.277 43.6399 105.617 41.9239 104.297 40.6519C103.001 39.3559 101.093 38.7079 98.5729 38.7079C96.0529 38.7079 94.1329 39.3559 92.8129 40.6519C91.5169 41.9239 90.8689 43.6399 90.8689 45.7999C90.8689 46.8319 91.0369 47.7799 91.3729 48.6439C91.7089 49.5079 92.2009 50.2639 92.8489 50.9119C93.4969 51.5359 94.3009 52.0279 95.2609 52.3879C96.2209 52.7239 97.3249 52.8919 98.5729 52.8919Z" fill="#244D6C"/>
<path d="M130.324 17.8999V70.9999H123.484V17.8999H130.324Z" fill="#244D6C"/>
<path d="M147.624 34.4599V70.9999H140.784V34.4599H147.624ZM148.956 23.1199C148.956 23.7679 148.824 24.3799 148.56 24.9559C148.32 25.5079 147.972 25.9999 147.516 26.4319C147.084 26.8639 146.568 27.2119 145.968 27.4759C145.392 27.7159 144.78 27.8359 144.132 27.8359C143.508 27.8359 142.908 27.7159 142.332 27.4759C141.78 27.2119 141.288 26.8639 140.856 26.4319C140.424 25.9999 140.076 25.5079 139.812 24.9559C139.572 24.3799 139.452 23.7679 139.452 23.1199C139.452 22.4719 139.572 21.8599 139.812 21.2839C140.076 20.6839 140.424 20.1679 140.856 19.7359C141.288 19.3039 141.78 18.9679 142.332 18.7279C142.908 18.4639 143.508 18.3319 144.132 18.3319C144.78 18.3319 145.392 18.4639 145.968 18.7279C146.568 18.9679 147.084 19.3039 147.516 19.7359C147.972 20.1679 148.32 20.6839 148.56 21.2839C148.824 21.8599 148.956 22.4719 148.956 23.1199Z" fill="#244D6C"/>
<path d="M179.354 40.6519C179.018 41.2279 178.55 41.5159 177.95 41.5159C177.566 41.5159 177.134 41.3839 176.654 41.1199C176.198 40.8559 175.646 40.5679 174.998 40.2559C174.35 39.9199 173.57 39.6199 172.658 39.3559C171.77 39.0919 170.714 38.9599 169.49 38.9599C168.458 38.9599 167.522 39.0919 166.682 39.3559C165.842 39.6199 165.122 39.9799 164.522 40.4359C163.946 40.8919 163.49 41.4319 163.154 42.0559C162.842 42.6559 162.686 43.3159 162.686 44.0359C162.686 44.9479 162.95 45.7159 163.478 46.3399C164.03 46.9399 164.738 47.4679 165.602 47.9239C166.49 48.3559 167.498 48.7519 168.626 49.1119C169.754 49.4479 170.906 49.8079 172.082 50.1919C173.258 50.5759 174.41 51.0199 175.538 51.5239C176.666 52.0039 177.662 52.6039 178.526 53.3239C179.414 54.0439 180.122 54.9319 180.65 55.9879C181.202 57.0199 181.478 58.2679 181.478 59.7319C181.478 61.4359 181.166 63.0079 180.542 64.4479C179.942 65.8879 179.042 67.1359 177.842 68.1919C176.666 69.2479 175.214 70.0759 173.486 70.6759C171.758 71.2759 169.766 71.5759 167.51 71.5759C164.966 71.5759 162.638 71.1559 160.526 70.3159C158.438 69.4759 156.674 68.4079 155.234 67.1119L156.818 64.5199C157.01 64.1839 157.25 63.9319 157.538 63.7639C157.826 63.5719 158.186 63.4759 158.618 63.4759C159.074 63.4759 159.542 63.6439 160.022 63.9799C160.502 64.3159 161.078 64.6879 161.75 65.0959C162.446 65.4799 163.274 65.8399 164.234 66.1759C165.218 66.5119 166.43 66.6799 167.87 66.6799C169.094 66.6799 170.15 66.5239 171.038 66.2119C171.95 65.8999 172.706 65.4919 173.306 64.9879C173.906 64.4599 174.35 63.8479 174.638 63.1519C174.926 62.4559 175.07 61.7239 175.07 60.9559C175.07 59.9719 174.794 59.1559 174.242 58.5079C173.714 57.8599 173.006 57.3079 172.118 56.8519C171.254 56.3959 170.258 55.9999 169.13 55.6639C168.002 55.3279 166.838 54.9679 165.638 54.5839C164.462 54.1999 163.31 53.7679 162.182 53.2879C161.054 52.7839 160.046 52.1479 159.158 51.3799C158.294 50.6119 157.586 49.6879 157.034 48.6079C156.506 47.5039 156.242 46.1599 156.242 44.5759C156.242 43.1599 156.53 41.8039 157.106 40.5079C157.682 39.2119 158.522 38.0719 159.626 37.0879C160.754 36.1039 162.134 35.3239 163.766 34.7479C165.398 34.1719 167.258 33.8839 169.346 33.8839C171.746 33.8839 173.918 34.2679 175.862 35.0359C177.83 35.7799 179.498 36.8239 180.866 38.1679L179.354 40.6519Z" fill="#244D6C"/>
<path d="M189.116 70.9999V17.8999H195.956V39.1399C197.492 37.5559 199.196 36.2839 201.068 35.3239C202.94 34.3639 205.1 33.8839 207.548 33.8839C209.54 33.8839 211.292 34.2199 212.804 34.8919C214.34 35.5639 215.624 36.5119 216.656 37.7359C217.688 38.9359 218.468 40.3879 218.996 42.0919C219.524 43.7719 219.788 45.6439 219.788 47.7079V70.9999H212.948V47.7079C212.948 45.0679 212.336 43.0159 211.112 41.5519C209.888 40.0639 208.028 39.3199 205.532 39.3199C203.684 39.3199 201.968 39.7519 200.384 40.6159C198.8 41.4799 197.324 42.6679 195.956 44.1799V70.9999H189.116Z" fill="#244D6C"/>
<path d="M317.623 19.3399V25.3879H293.107V42.0199H312.871V47.8519H293.107V64.9519H317.659L317.623 70.9999H285.655V19.3399H317.623Z" fill="#244D6C"/>
<path d="M346.627 40.6519C346.291 41.2279 345.823 41.5159 345.223 41.5159C344.839 41.5159 344.407 41.3839 343.927 41.1199C343.471 40.8559 342.919 40.5679 342.271 40.2559C341.623 39.9199 340.843 39.6199 339.931 39.3559C339.043 39.0919 337.987 38.9599 336.763 38.9599C335.731 38.9599 334.795 39.0919 333.955 39.3559C333.115 39.6199 332.395 39.9799 331.795 40.4359C331.219 40.8919 330.763 41.4319 330.427 42.0559C330.115 42.6559 329.959 43.3159 329.959 44.0359C329.959 44.9479 330.223 45.7159 330.751 46.3399C331.303 46.9399 332.011 47.4679 332.875 47.9239C333.763 48.3559 334.771 48.7519 335.899 49.1119C337.027 49.4479 338.179 49.8079 339.355 50.1919C340.531 50.5759 341.683 51.0199 342.811 51.5239C343.939 52.0039 344.935 52.6039 345.799 53.3239C346.687 54.0439 347.395 54.9319 347.923 55.9879C348.475 57.0199 348.751 58.2679 348.751 59.7319C348.751 61.4359 348.439 63.0079 347.815 64.4479C347.215 65.8879 346.315 67.1359 345.115 68.1919C343.939 69.2479 342.487 70.0759 340.759 70.6759C339.031 71.2759 337.039 71.5759 334.783 71.5759C332.239 71.5759 329.911 71.1559 327.799 70.3159C325.711 69.4759 323.947 68.4079 322.507 67.1119L324.091 64.5199C324.283 64.1839 324.523 63.9319 324.811 63.7639C325.099 63.5719 325.459 63.4759 325.891 63.4759C326.347 63.4759 326.815 63.6439 327.295 63.9799C327.775 64.3159 328.351 64.6879 329.023 65.0959C329.719 65.4799 330.547 65.8399 331.507 66.1759C332.491 66.5119 333.703 66.6799 335.143 66.6799C336.367 66.6799 337.423 66.5239 338.311 66.2119C339.223 65.8999 339.979 65.4919 340.579 64.9879C341.179 64.4599 341.623 63.8479 341.911 63.1519C342.199 62.4559 342.343 61.7239 342.343 60.9559C342.343 59.9719 342.067 59.1559 341.515 58.5079C340.987 57.8599 340.279 57.3079 339.391 56.8519C338.527 56.3959 337.531 55.9999 336.403 55.6639C335.275 55.3279 334.111 54.9679 332.911 54.5839C331.735 54.1999 330.583 53.7679 329.455 53.2879C328.327 52.7839 327.319 52.1479 326.431 51.3799C325.567 50.6119 324.859 49.6879 324.307 48.6079C323.779 47.5039 323.515 46.1599 323.515 44.5759C323.515 43.1599 323.803 41.8039 324.379 40.5079C324.955 39.2119 325.795 38.0719 326.899 37.0879C328.027 36.1039 329.407 35.3239 331.039 34.7479C332.671 34.1719 334.531 33.8839 336.619 33.8839C339.019 33.8839 341.191 34.2679 343.135 35.0359C345.103 35.7799 346.771 36.8239 348.139 38.1679L346.627 40.6519Z" fill="#244D6C"/>
<path d="M356.39 83.2759V34.4599H360.494C361.454 34.4599 362.054 34.9159 362.294 35.8279L362.87 40.0039C364.406 38.1559 366.17 36.6679 368.162 35.5399C370.178 34.3879 372.482 33.8119 375.074 33.8119C377.162 33.8119 379.046 34.2199 380.726 35.0359C382.43 35.8279 383.882 37.0159 385.082 38.5999C386.306 40.1839 387.242 42.1399 387.89 44.4679C388.538 46.7719 388.862 49.4359 388.862 52.4599C388.862 55.1719 388.502 57.6919 387.782 60.0199C387.062 62.3239 386.018 64.3279 384.65 66.0319C383.282 67.7359 381.626 69.0799 379.682 70.0639C377.738 71.0239 375.542 71.5039 373.094 71.5039C370.862 71.5039 368.966 71.1439 367.406 70.4239C365.846 69.7039 364.454 68.6719 363.23 67.3279V83.2759H356.39ZM372.842 39.3199C370.778 39.3199 368.978 39.7879 367.442 40.7239C365.93 41.6359 364.526 42.9439 363.23 44.6479V62.1079C364.382 63.6199 365.63 64.6879 366.974 65.3119C368.342 65.9119 369.866 66.2119 371.546 66.2119C374.834 66.2119 377.366 65.0359 379.142 62.6839C380.918 60.3319 381.806 56.9239 381.806 52.4599C381.806 50.1319 381.602 48.1399 381.194 46.4839C380.786 44.8279 380.198 43.4719 379.43 42.4159C378.662 41.3359 377.726 40.5559 376.622 40.0759C375.518 39.5719 374.258 39.3199 372.842 39.3199Z" fill="#244D6C"/>
<path d="M420.183 70.9999C419.511 70.9999 418.995 70.8919 418.635 70.6759C418.275 70.4599 417.987 70.0399 417.771 69.4159L417.015 66.1399C416.079 67.0039 415.155 67.7839 414.243 68.4799C413.331 69.1519 412.371 69.7159 411.363 70.1719C410.379 70.6279 409.323 70.9759 408.195 71.2159C407.067 71.4559 405.807 71.5759 404.415 71.5759C402.975 71.5759 401.631 71.3839 400.383 70.9999C399.135 70.5919 398.043 69.9799 397.107 69.1639C396.195 68.3479 395.463 67.3399 394.911 66.1399C394.383 64.9159 394.119 63.4759 394.119 61.8199C394.119 60.3799 394.503 58.9999 395.271 57.6799C396.063 56.3599 397.335 55.1839 399.087 54.1519C400.863 53.0959 403.167 52.2319 405.999 51.5599C408.855 50.8879 412.359 50.5039 416.511 50.4079V47.6719C416.511 44.9119 415.911 42.8359 414.711 41.4439C413.535 40.0279 411.795 39.3199 409.491 39.3199C407.931 39.3199 406.623 39.5239 405.567 39.9319C404.535 40.3159 403.635 40.7479 402.867 41.2279C402.123 41.6839 401.463 42.1039 400.887 42.4879C400.311 42.8719 399.735 43.0639 399.159 43.0639C398.679 43.0639 398.271 42.9439 397.935 42.7039C397.623 42.4399 397.347 42.1399 397.107 41.8039L395.883 39.5719C397.923 37.6519 400.119 36.2119 402.471 35.2519C404.847 34.2919 407.463 33.8119 410.319 33.8119C412.383 33.8119 414.219 34.1479 415.827 34.8199C417.435 35.4919 418.779 36.4399 419.859 37.6639C420.963 38.8639 421.791 40.3159 422.343 42.0199C422.919 43.7239 423.207 45.6079 423.207 47.6719V70.9999H420.183ZM406.467 66.7879C407.547 66.7879 408.543 66.6799 409.455 66.4639C410.391 66.2479 411.255 65.9359 412.047 65.5279C412.863 65.1199 413.631 64.6279 414.351 64.0519C415.071 63.4519 415.791 62.7799 416.511 62.0359V54.6919C413.631 54.7879 411.183 55.0159 409.167 55.3759C407.151 55.7359 405.507 56.2039 404.235 56.7799C402.987 57.3559 402.075 58.0519 401.499 58.8679C400.923 59.6599 400.635 60.5359 400.635 61.4959C400.635 62.4319 400.779 63.2359 401.067 63.9079C401.379 64.5799 401.799 65.1319 402.327 65.5639C402.855 65.9719 403.467 66.2839 404.163 66.4999C404.883 66.6919 405.651 66.7879 406.467 66.7879Z" fill="#244D6C"/>
<path d="M432.749 70.9999V34.4599H436.853C437.813 34.4599 438.413 34.9159 438.653 35.8279L439.157 39.6079C440.741 37.9039 442.505 36.5239 444.449 35.4679C446.393 34.4119 448.637 33.8839 451.181 33.8839C453.173 33.8839 454.925 34.2199 456.437 34.8919C457.973 35.5639 459.257 36.5119 460.289 37.7359C461.321 38.9359 462.101 40.3879 462.629 42.0919C463.157 43.7719 463.421 45.6439 463.421 47.7079V70.9999H456.581V47.7079C456.581 45.0679 455.969 43.0159 454.745 41.5519C453.521 40.0639 451.661 39.3199 449.165 39.3199C447.317 39.3199 445.601 39.7519 444.017 40.6159C442.433 41.4799 440.957 42.6679 439.589 44.1799V70.9999H432.749ZM452.117 23.0839C452.957 23.0839 453.593 22.8439 454.025 22.3639C454.481 21.8839 454.721 21.1039 454.745 20.0239H458.921C458.921 21.1999 458.765 22.2799 458.453 23.2639C458.141 24.2239 457.697 25.0519 457.121 25.7479C456.545 26.4439 455.849 26.9839 455.033 27.3679C454.241 27.7519 453.353 27.9439 452.369 27.9439C451.529 27.9439 450.737 27.7759 449.993 27.4399C449.273 27.1039 448.589 26.7319 447.941 26.3239C447.293 25.8919 446.669 25.5079 446.069 25.1719C445.493 24.8359 444.941 24.6679 444.413 24.6679C442.733 24.6679 441.869 25.6999 441.821 27.7639H437.573C437.573 26.5879 437.729 25.5199 438.041 24.5599C438.377 23.5759 438.833 22.7359 439.409 22.0399C440.009 21.3439 440.705 20.8039 441.497 20.4199C442.313 20.0359 443.201 19.8439 444.161 19.8439C445.025 19.8439 445.817 20.0119 446.537 20.3479C447.281 20.6839 447.977 21.0559 448.625 21.4639C449.273 21.8719 449.873 22.2439 450.425 22.5799C451.001 22.9159 451.565 23.0839 452.117 23.0839Z" fill="#244D6C"/>
<path d="M488.484 33.8839C491.172 33.8839 493.596 34.3279 495.756 35.2159C497.916 36.0799 499.752 37.3279 501.264 38.9599C502.776 40.5919 503.94 42.5719 504.756 44.8999C505.572 47.2039 505.98 49.7959 505.98 52.6759C505.98 55.5559 505.572 58.1599 504.756 60.4879C503.94 62.8159 502.776 64.7959 501.264 66.4279C499.752 68.0599 497.916 69.3199 495.756 70.2079C493.596 71.0719 491.172 71.5039 488.484 71.5039C485.796 71.5039 483.36 71.0719 481.176 70.2079C479.016 69.3199 477.168 68.0599 475.632 66.4279C474.12 64.7959 472.956 62.8159 472.14 60.4879C471.324 58.1599 470.916 55.5559 470.916 52.6759C470.916 49.7959 471.324 47.2039 472.14 44.8999C472.956 42.5719 474.12 40.5919 475.632 38.9599C477.168 37.3279 479.016 36.0799 481.176 35.2159C483.36 34.3279 485.796 33.8839 488.484 33.8839ZM488.484 66.1759C491.988 66.1759 494.604 64.9999 496.332 62.6479C498.06 60.2959 498.924 56.9839 498.924 52.7119C498.924 48.4639 498.06 45.1519 496.332 42.7759C494.604 40.3999 491.988 39.2119 488.484 39.2119C484.932 39.2119 482.28 40.3999 480.528 42.7759C478.8 45.1519 477.936 48.4639 477.936 52.7119C477.936 56.9839 478.8 60.2959 480.528 62.6479C482.28 64.9999 484.932 66.1759 488.484 66.1759Z" fill="#244D6C"/>
<path d="M520.91 17.8999V70.9999H514.07V17.8999H520.91Z" fill="#244D6C"/>
<path d="M623.042 19.6639H606.914V11.7439H601.01V19.6639H584.954V24.4159H623.042V19.6639ZM594.17 39.9679C594.17 35.5039 598.13 32.6239 603.962 32.6239C609.794 32.6239 613.826 35.5039 613.826 39.9679C613.826 44.5039 609.794 47.3839 603.962 47.3839C598.13 47.3839 594.17 44.5039 594.17 39.9679ZM619.442 39.9679C619.442 32.7679 613.106 28.0159 603.962 28.0159C594.818 28.0159 588.554 32.7679 588.554 39.9679C588.554 47.2399 594.818 51.9919 603.962 51.9919C613.106 51.9919 619.442 47.2399 619.442 39.9679ZM600.578 56.3839H594.674V74.8879H637.73V70.0639H600.578V56.3839ZM634.85 33.0559V11.7439H628.946V60.1999H634.85V38.0239H644.354V33.0559H634.85Z" fill="#244D6C"/>
<path d="M663.932 63.2959H702.236V47.0239H657.884V51.7039H696.332V58.8319H658.1V75.5359H703.82V70.8559H663.932V63.2959ZM700.58 35.7919C702.02 28.5199 702.02 22.9759 702.02 18.5839V14.4799H658.46V19.2319H696.188C696.188 23.4799 696.116 28.6639 694.676 35.7919H650.972V40.5439H709.58V35.7919H700.58Z" fill="#244D6C"/>
<rect x="581" y="90" width="129" height="4" fill="#ED6B59"/>
<rect x="286" y="90" width="235" height="4" fill="#ED6B59"/>
<rect x="6" y="90" width="214" height="4" fill="#ED6B59"/>
</svg>
