<svg width="784" height="201" viewBox="0 0 784 201" fill="none" xmlns="http://www.w3.org/2000/svg">
<rect y="16" width="784" height="185" rx="18" fill="#072338"/>
<rect width="784" height="185" rx="22" fill="#244D6C"/>
<path d="M242.444 35.764V44.476H227.18V88H216.344V44.476H201.08V35.764H242.444Z" fill="white"/>
<path d="M242.036 88V50.884H247.904C248.912 50.884 249.608 51.064 249.992 51.424C250.376 51.784 250.652 52.408 250.82 53.296L251.324 57.004C252.5 54.892 253.856 53.224 255.392 52C256.952 50.776 258.764 50.164 260.828 50.164C262.508 50.164 263.876 50.56 264.932 51.352L264.284 58.696C264.164 59.176 263.972 59.512 263.708 59.704C263.468 59.872 263.132 59.956 262.7 59.956C262.316 59.956 261.764 59.908 261.044 59.812C260.324 59.692 259.652 59.632 259.028 59.632C257.204 59.632 255.752 60.136 254.672 61.144C253.616 62.128 252.716 63.508 251.972 65.284V88H242.036Z" fill="white"/>
<path d="M294.747 88C293.811 88 293.091 87.868 292.587 87.604C292.107 87.34 291.711 86.788 291.399 85.948L290.607 83.608C289.671 84.424 288.759 85.144 287.871 85.768C287.007 86.368 286.095 86.884 285.135 87.316C284.199 87.724 283.191 88.036 282.111 88.252C281.055 88.468 279.879 88.576 278.583 88.576C276.951 88.576 275.463 88.36 274.119 87.928C272.775 87.496 271.611 86.86 270.627 86.02C269.667 85.156 268.923 84.088 268.395 82.816C267.867 81.544 267.603 80.08 267.603 78.424C267.603 77.056 267.951 75.7 268.647 74.356C269.343 72.988 270.531 71.752 272.211 70.648C273.915 69.52 276.171 68.584 278.979 67.84C281.811 67.096 285.351 66.676 289.599 66.58V64.672C289.599 62.344 289.107 60.64 288.123 59.56C287.139 58.456 285.723 57.904 283.875 57.904C282.507 57.904 281.367 58.072 280.455 58.408C279.543 58.72 278.739 59.068 278.043 59.452C277.371 59.812 276.735 60.16 276.135 60.496C275.535 60.808 274.839 60.964 274.047 60.964C273.351 60.964 272.763 60.796 272.283 60.46C271.827 60.1 271.443 59.68 271.131 59.2L269.367 56.032C271.551 54.064 273.963 52.6 276.603 51.64C279.243 50.656 282.099 50.164 285.171 50.164C287.379 50.164 289.347 50.524 291.075 51.244C292.827 51.964 294.303 52.972 295.503 54.268C296.727 55.54 297.663 57.064 298.311 58.84C298.959 60.616 299.283 62.56 299.283 64.672V88H294.747ZM281.679 81.88C283.311 81.88 284.739 81.592 285.963 81.016C287.187 80.416 288.399 79.504 289.599 78.28V72.52C287.175 72.616 285.159 72.82 283.551 73.132C281.943 73.444 280.659 73.84 279.699 74.32C278.763 74.776 278.091 75.316 277.683 75.94C277.299 76.54 277.107 77.2 277.107 77.92C277.107 79.36 277.503 80.38 278.295 80.98C279.111 81.58 280.239 81.88 281.679 81.88Z" fill="white"/>
<path d="M308.479 88V50.884H314.599C315.847 50.884 316.675 51.46 317.083 52.612L317.695 55.204C318.439 54.484 319.207 53.824 319.999 53.224C320.815 52.624 321.667 52.108 322.555 51.676C323.467 51.244 324.439 50.908 325.471 50.668C326.527 50.428 327.667 50.308 328.891 50.308C330.907 50.308 332.695 50.656 334.255 51.352C335.815 52.048 337.123 53.02 338.179 54.268C339.259 55.516 340.063 57.004 340.591 58.732C341.143 60.46 341.419 62.356 341.419 64.42V88H331.519V64.42C331.519 62.356 331.039 60.76 330.079 59.632C329.119 58.48 327.703 57.904 325.831 57.904C324.415 57.904 323.095 58.216 321.871 58.84C320.671 59.44 319.519 60.268 318.415 61.324V88H308.479Z" fill="white"/>
<path d="M373.846 58.516C373.582 58.924 373.306 59.224 373.018 59.416C372.754 59.584 372.382 59.668 371.902 59.668C371.422 59.668 370.93 59.548 370.426 59.308C369.922 59.068 369.358 58.816 368.734 58.552C368.11 58.264 367.39 58 366.574 57.76C365.782 57.52 364.858 57.4 363.802 57.4C362.194 57.4 360.946 57.736 360.058 58.408C359.17 59.056 358.726 59.92 358.726 61C358.726 61.744 358.978 62.368 359.482 62.872C359.986 63.376 360.646 63.82 361.462 64.204C362.302 64.564 363.25 64.912 364.306 65.248C365.362 65.56 366.442 65.908 367.546 66.292C368.674 66.676 369.766 67.12 370.822 67.624C371.878 68.128 372.814 68.764 373.63 69.532C374.47 70.276 375.142 71.188 375.646 72.268C376.15 73.324 376.402 74.608 376.402 76.12C376.402 77.92 376.066 79.588 375.394 81.124C374.746 82.636 373.786 83.944 372.514 85.048C371.242 86.152 369.658 87.016 367.762 87.64C365.866 88.264 363.682 88.576 361.21 88.576C359.938 88.576 358.678 88.456 357.43 88.216C356.182 88 354.994 87.688 353.866 87.28C352.738 86.848 351.682 86.356 350.698 85.804C349.714 85.252 348.862 84.652 348.142 84.004L350.446 80.296C350.71 79.864 351.034 79.528 351.418 79.288C351.826 79.048 352.342 78.928 352.966 78.928C353.566 78.928 354.118 79.084 354.622 79.396C355.126 79.684 355.69 80.008 356.314 80.368C356.938 80.704 357.67 81.028 358.51 81.34C359.374 81.628 360.442 81.772 361.714 81.772C362.674 81.772 363.502 81.664 364.198 81.448C364.894 81.232 365.458 80.944 365.89 80.584C366.322 80.2 366.634 79.78 366.826 79.324C367.042 78.844 367.15 78.352 367.15 77.848C367.15 77.032 366.886 76.372 366.358 75.868C365.854 75.34 365.182 74.884 364.342 74.5C363.526 74.116 362.578 73.768 361.498 73.456C360.418 73.144 359.314 72.796 358.186 72.412C357.082 72.028 355.99 71.572 354.91 71.044C353.854 70.516 352.906 69.856 352.066 69.064C351.25 68.248 350.578 67.252 350.05 66.076C349.546 64.9 349.294 63.472 349.294 61.792C349.294 60.256 349.594 58.804 350.194 57.436C350.794 56.044 351.694 54.82 352.894 53.764C354.094 52.708 355.582 51.868 357.358 51.244C359.158 50.62 361.234 50.308 363.586 50.308C366.226 50.308 368.626 50.74 370.786 51.604C372.946 52.468 374.722 53.596 376.114 54.988L373.846 58.516Z" fill="white"/>
<path d="M394.07 34.324V88H384.134V34.324H394.07Z" fill="white"/>
<path d="M428.335 88C427.399 88 426.679 87.868 426.175 87.604C425.695 87.34 425.299 86.788 424.987 85.948L424.195 83.608C423.259 84.424 422.347 85.144 421.459 85.768C420.595 86.368 419.683 86.884 418.723 87.316C417.787 87.724 416.779 88.036 415.699 88.252C414.643 88.468 413.467 88.576 412.171 88.576C410.539 88.576 409.051 88.36 407.707 87.928C406.363 87.496 405.199 86.86 404.215 86.02C403.255 85.156 402.511 84.088 401.983 82.816C401.455 81.544 401.191 80.08 401.191 78.424C401.191 77.056 401.539 75.7 402.235 74.356C402.931 72.988 404.119 71.752 405.799 70.648C407.503 69.52 409.759 68.584 412.567 67.84C415.399 67.096 418.939 66.676 423.187 66.58V64.672C423.187 62.344 422.695 60.64 421.711 59.56C420.727 58.456 419.311 57.904 417.463 57.904C416.095 57.904 414.955 58.072 414.043 58.408C413.131 58.72 412.327 59.068 411.631 59.452C410.959 59.812 410.323 60.16 409.723 60.496C409.123 60.808 408.427 60.964 407.635 60.964C406.939 60.964 406.351 60.796 405.871 60.46C405.415 60.1 405.031 59.68 404.719 59.2L402.955 56.032C405.139 54.064 407.551 52.6 410.191 51.64C412.831 50.656 415.687 50.164 418.759 50.164C420.967 50.164 422.935 50.524 424.663 51.244C426.415 51.964 427.891 52.972 429.091 54.268C430.315 55.54 431.251 57.064 431.899 58.84C432.547 60.616 432.871 62.56 432.871 64.672V88H428.335ZM415.267 81.88C416.899 81.88 418.327 81.592 419.551 81.016C420.775 80.416 421.987 79.504 423.187 78.28V72.52C420.763 72.616 418.747 72.82 417.139 73.132C415.531 73.444 414.247 73.84 413.287 74.32C412.351 74.776 411.679 75.316 411.271 75.94C410.887 76.54 410.695 77.2 410.695 77.92C410.695 79.36 411.091 80.38 411.883 80.98C412.699 81.58 413.827 81.88 415.267 81.88Z" fill="white"/>
<path d="M454.32 88.576C452.64 88.576 451.152 88.336 449.856 87.856C448.56 87.352 447.468 86.644 446.58 85.732C445.692 84.82 445.02 83.716 444.564 82.42C444.108 81.124 443.88 79.66 443.88 78.028V58.012H440.388C439.86 58.012 439.404 57.844 439.02 57.508C438.66 57.172 438.48 56.668 438.48 55.996V52.108L444.42 51.028L446.436 41.416C446.7 40.336 447.432 39.796 448.632 39.796H453.816V51.1H463.392V58.012H453.816V77.38C453.816 78.412 454.056 79.228 454.536 79.828C455.04 80.428 455.748 80.728 456.66 80.728C457.14 80.728 457.548 80.68 457.884 80.584C458.22 80.464 458.508 80.344 458.748 80.224C458.988 80.08 459.204 79.96 459.396 79.864C459.612 79.744 459.828 79.684 460.044 79.684C460.332 79.684 460.572 79.756 460.764 79.9C460.956 80.02 461.148 80.236 461.34 80.548L464.328 85.3C462.96 86.38 461.412 87.196 459.684 87.748C457.956 88.3 456.168 88.576 454.32 88.576Z" fill="white"/>
<path d="M486.247 50.308C488.623 50.308 490.807 50.692 492.799 51.46C494.815 52.204 496.543 53.296 497.983 54.736C499.447 56.176 500.575 57.952 501.367 60.064C502.183 62.152 502.591 64.54 502.591 67.228C502.591 67.972 502.555 68.584 502.483 69.064C502.411 69.544 502.291 69.928 502.123 70.216C501.955 70.504 501.727 70.708 501.439 70.828C501.151 70.924 500.779 70.972 500.323 70.972H478.039C478.351 74.452 479.335 76.996 480.991 78.604C482.671 80.212 484.867 81.016 487.579 81.016C488.947 81.016 490.123 80.86 491.107 80.548C492.115 80.212 492.991 79.852 493.735 79.468C494.503 79.06 495.187 78.7 495.787 78.388C496.411 78.052 497.023 77.884 497.623 77.884C498.391 77.884 498.991 78.172 499.423 78.748L502.303 82.348C501.247 83.572 500.083 84.592 498.811 85.408C497.539 86.2 496.219 86.836 494.851 87.316C493.483 87.772 492.103 88.084 490.711 88.252C489.319 88.444 487.975 88.54 486.679 88.54C484.087 88.54 481.663 88.12 479.407 87.28C477.175 86.416 475.219 85.156 473.539 83.5C471.883 81.82 470.575 79.744 469.615 77.272C468.655 74.8 468.175 71.932 468.175 68.668C468.175 66.148 468.583 63.772 469.399 61.54C470.239 59.308 471.439 57.364 472.999 55.708C474.559 54.052 476.455 52.744 478.687 51.784C480.919 50.8 483.439 50.308 486.247 50.308ZM486.427 57.292C484.051 57.292 482.191 57.976 480.847 59.344C479.503 60.688 478.627 62.596 478.219 65.068H493.699C493.699 64.036 493.555 63.052 493.267 62.116C493.003 61.18 492.571 60.352 491.971 59.632C491.371 58.912 490.615 58.348 489.703 57.94C488.791 57.508 487.699 57.292 486.427 57.292Z" fill="white"/>
<path d="M220.273 113.735V116.927H207.334V125.705H217.765V128.783H207.334V137.808H220.292L220.273 141H203.401V113.735H220.273Z" fill="white"/>
<path d="M235.581 124.983C235.403 125.287 235.156 125.439 234.84 125.439C234.637 125.439 234.409 125.369 234.156 125.23C233.915 125.091 233.624 124.939 233.282 124.774C232.94 124.597 232.528 124.438 232.047 124.299C231.578 124.16 231.021 124.09 230.375 124.09C229.83 124.09 229.336 124.16 228.893 124.299C228.449 124.438 228.069 124.628 227.753 124.869C227.449 125.11 227.208 125.395 227.031 125.724C226.866 126.041 226.784 126.389 226.784 126.769C226.784 127.25 226.923 127.656 227.202 127.985C227.493 128.302 227.867 128.58 228.323 128.821C228.791 129.049 229.323 129.258 229.919 129.448C230.514 129.625 231.122 129.815 231.743 130.018C232.363 130.221 232.971 130.455 233.567 130.721C234.162 130.974 234.688 131.291 235.144 131.671C235.612 132.051 235.986 132.52 236.265 133.077C236.556 133.622 236.702 134.28 236.702 135.053C236.702 135.952 236.537 136.782 236.208 137.542C235.891 138.302 235.416 138.961 234.783 139.518C234.162 140.075 233.396 140.512 232.484 140.829C231.572 141.146 230.52 141.304 229.33 141.304C227.987 141.304 226.758 141.082 225.644 140.639C224.542 140.196 223.611 139.632 222.851 138.948L223.687 137.58C223.788 137.403 223.915 137.27 224.067 137.181C224.219 137.08 224.409 137.029 224.637 137.029C224.877 137.029 225.124 137.118 225.378 137.295C225.631 137.472 225.935 137.669 226.29 137.884C226.657 138.087 227.094 138.277 227.601 138.454C228.12 138.631 228.76 138.72 229.52 138.72C230.166 138.72 230.723 138.638 231.192 138.473C231.673 138.308 232.072 138.093 232.389 137.827C232.705 137.548 232.94 137.225 233.092 136.858C233.244 136.491 233.32 136.104 233.32 135.699C233.32 135.18 233.174 134.749 232.883 134.407C232.604 134.065 232.23 133.774 231.762 133.533C231.306 133.292 230.78 133.083 230.185 132.906C229.589 132.729 228.975 132.539 228.342 132.336C227.721 132.133 227.113 131.905 226.518 131.652C225.922 131.386 225.39 131.05 224.922 130.645C224.466 130.24 224.092 129.752 223.801 129.182C223.522 128.599 223.383 127.89 223.383 127.054C223.383 126.307 223.535 125.591 223.839 124.907C224.143 124.223 224.586 123.621 225.169 123.102C225.764 122.583 226.492 122.171 227.354 121.867C228.215 121.563 229.197 121.411 230.299 121.411C231.565 121.411 232.712 121.614 233.738 122.019C234.776 122.412 235.657 122.963 236.379 123.672L235.581 124.983Z" fill="white"/>
<path d="M240.733 147.479V121.715H242.899C243.406 121.715 243.723 121.956 243.849 122.437L244.153 124.641C244.964 123.666 245.895 122.88 246.946 122.285C248.01 121.677 249.226 121.373 250.594 121.373C251.696 121.373 252.691 121.588 253.577 122.019C254.477 122.437 255.243 123.064 255.876 123.9C256.522 124.736 257.016 125.768 257.358 126.997C257.7 128.213 257.871 129.619 257.871 131.215C257.871 132.646 257.681 133.976 257.301 135.205C256.921 136.421 256.37 137.479 255.648 138.378C254.926 139.277 254.052 139.987 253.026 140.506C252 141.013 250.841 141.266 249.549 141.266C248.371 141.266 247.371 141.076 246.547 140.696C245.724 140.316 244.989 139.771 244.343 139.062V147.479H240.733ZM249.416 124.28C248.327 124.28 247.377 124.527 246.566 125.021C245.768 125.502 245.027 126.193 244.343 127.092V136.307C244.951 137.105 245.61 137.669 246.319 137.998C247.041 138.315 247.846 138.473 248.732 138.473C250.468 138.473 251.804 137.852 252.741 136.611C253.679 135.37 254.147 133.571 254.147 131.215C254.147 129.986 254.04 128.935 253.824 128.061C253.609 127.187 253.299 126.471 252.893 125.914C252.488 125.344 251.994 124.932 251.411 124.679C250.829 124.413 250.164 124.28 249.416 124.28Z" fill="white"/>
<path d="M274.402 141C274.047 141 273.775 140.943 273.585 140.829C273.395 140.715 273.243 140.493 273.129 140.164L272.73 138.435C272.236 138.891 271.748 139.303 271.267 139.67C270.786 140.025 270.279 140.322 269.747 140.563C269.228 140.804 268.67 140.987 268.075 141.114C267.48 141.241 266.815 141.304 266.08 141.304C265.32 141.304 264.611 141.203 263.952 141C263.293 140.785 262.717 140.462 262.223 140.031C261.742 139.6 261.355 139.068 261.064 138.435C260.785 137.789 260.646 137.029 260.646 136.155C260.646 135.395 260.849 134.667 261.254 133.97C261.672 133.273 262.343 132.653 263.268 132.108C264.205 131.551 265.421 131.095 266.916 130.74C268.423 130.385 270.273 130.183 272.464 130.132V128.688C272.464 127.231 272.147 126.136 271.514 125.401C270.893 124.654 269.975 124.28 268.759 124.28C267.936 124.28 267.245 124.388 266.688 124.603C266.143 124.806 265.668 125.034 265.263 125.287C264.87 125.528 264.522 125.749 264.218 125.952C263.914 126.155 263.61 126.256 263.306 126.256C263.053 126.256 262.837 126.193 262.66 126.066C262.495 125.927 262.35 125.768 262.223 125.591L261.577 124.413C262.654 123.4 263.813 122.64 265.054 122.133C266.308 121.626 267.689 121.373 269.196 121.373C270.285 121.373 271.254 121.55 272.103 121.905C272.952 122.26 273.661 122.76 274.231 123.406C274.814 124.039 275.251 124.806 275.542 125.705C275.846 126.604 275.998 127.599 275.998 128.688V141H274.402ZM267.163 138.777C267.733 138.777 268.259 138.72 268.74 138.606C269.234 138.492 269.69 138.327 270.108 138.112C270.539 137.897 270.944 137.637 271.324 137.333C271.704 137.016 272.084 136.662 272.464 136.269V132.393C270.944 132.444 269.652 132.564 268.588 132.754C267.524 132.944 266.656 133.191 265.985 133.495C265.326 133.799 264.845 134.166 264.541 134.597C264.237 135.015 264.085 135.477 264.085 135.984C264.085 136.478 264.161 136.902 264.313 137.257C264.478 137.612 264.699 137.903 264.978 138.131C265.257 138.346 265.58 138.511 265.947 138.625C266.327 138.726 266.732 138.777 267.163 138.777Z" fill="white"/>
<path d="M281.034 141V121.715H283.2C283.707 121.715 284.023 121.956 284.15 122.437L284.416 124.432C285.252 123.533 286.183 122.804 287.209 122.247C288.235 121.69 289.419 121.411 290.762 121.411C291.813 121.411 292.738 121.588 293.536 121.943C294.347 122.298 295.024 122.798 295.569 123.444C296.114 124.077 296.525 124.844 296.804 125.743C297.083 126.63 297.222 127.618 297.222 128.707V141H293.612V128.707C293.612 127.314 293.289 126.231 292.643 125.458C291.997 124.673 291.015 124.28 289.698 124.28C288.723 124.28 287.817 124.508 286.981 124.964C286.145 125.42 285.366 126.047 284.644 126.845V141H281.034ZM291.256 115.711C291.699 115.711 292.035 115.584 292.263 115.331C292.504 115.078 292.63 114.666 292.643 114.096H294.847C294.847 114.717 294.765 115.287 294.6 115.806C294.435 116.313 294.201 116.75 293.897 117.117C293.593 117.484 293.226 117.769 292.795 117.972C292.377 118.175 291.908 118.276 291.389 118.276C290.946 118.276 290.528 118.187 290.135 118.01C289.755 117.833 289.394 117.636 289.052 117.421C288.71 117.193 288.381 116.99 288.064 116.813C287.76 116.636 287.469 116.547 287.19 116.547C286.303 116.547 285.847 117.092 285.822 118.181H283.58C283.58 117.56 283.662 116.997 283.827 116.49C284.004 115.971 284.245 115.527 284.549 115.16C284.866 114.793 285.233 114.508 285.651 114.305C286.082 114.102 286.55 114.001 287.057 114.001C287.513 114.001 287.931 114.09 288.311 114.267C288.704 114.444 289.071 114.641 289.413 114.856C289.755 115.071 290.072 115.268 290.363 115.445C290.667 115.622 290.965 115.711 291.256 115.711Z" fill="white"/>
<path d="M310.45 121.411C311.868 121.411 313.148 121.645 314.288 122.114C315.428 122.57 316.397 123.229 317.195 124.09C317.993 124.951 318.607 125.996 319.038 127.225C319.468 128.441 319.684 129.809 319.684 131.329C319.684 132.849 319.468 134.223 319.038 135.452C318.607 136.681 317.993 137.726 317.195 138.587C316.397 139.448 315.428 140.113 314.288 140.582C313.148 141.038 311.868 141.266 310.45 141.266C309.031 141.266 307.745 141.038 306.593 140.582C305.453 140.113 304.477 139.448 303.667 138.587C302.869 137.726 302.254 136.681 301.824 135.452C301.393 134.223 301.178 132.849 301.178 131.329C301.178 129.809 301.393 128.441 301.824 127.225C302.254 125.996 302.869 124.951 303.667 124.09C304.477 123.229 305.453 122.57 306.593 122.114C307.745 121.645 309.031 121.411 310.45 121.411ZM310.45 138.454C312.299 138.454 313.68 137.833 314.592 136.592C315.504 135.351 315.96 133.603 315.96 131.348C315.96 129.106 315.504 127.358 314.592 126.104C313.68 124.85 312.299 124.223 310.45 124.223C308.575 124.223 307.175 124.85 306.251 126.104C305.339 127.358 304.883 129.106 304.883 131.348C304.883 133.603 305.339 135.351 306.251 136.592C307.175 137.833 308.575 138.454 310.45 138.454Z" fill="white"/>
<path d="M327.563 112.975V141H323.953V112.975H327.563Z" fill="white"/>
<path d="M332.267 138.568C332.267 137.947 332.476 137.422 332.894 136.991C333.325 136.56 333.895 136.345 334.604 136.345C334.997 136.345 335.345 136.421 335.649 136.573C335.953 136.712 336.206 136.909 336.409 137.162C336.624 137.415 336.783 137.713 336.884 138.055C336.985 138.397 337.036 138.758 337.036 139.138C337.036 139.708 336.954 140.31 336.789 140.943C336.624 141.564 336.384 142.178 336.067 142.786C335.75 143.407 335.358 144.008 334.889 144.591C334.433 145.174 333.914 145.706 333.331 146.187L332.723 145.617C332.622 145.516 332.552 145.421 332.514 145.332C332.476 145.256 332.457 145.161 332.457 145.047C332.457 144.87 332.552 144.686 332.742 144.496C332.869 144.357 333.027 144.173 333.217 143.945C333.42 143.717 333.622 143.451 333.825 143.147C334.028 142.843 334.211 142.507 334.376 142.14C334.541 141.785 334.661 141.405 334.737 141H334.566C334.224 141 333.907 140.943 333.616 140.829C333.337 140.702 333.097 140.531 332.894 140.316C332.704 140.088 332.552 139.828 332.438 139.537C332.324 139.233 332.267 138.91 332.267 138.568Z" fill="white"/>
<path d="M368.954 128.802V118.732H379.86V128.802H368.954ZM355.16 128.802V118.732H366.028V128.802H355.16ZM368.954 115.958V109.194H366.028V115.958H352.386V133.932H355.16V131.576H366.028V143.888H368.954V131.576H379.86V133.742H382.748V115.958H368.954Z" fill="white"/>
<path d="M413.604 118.39C411.666 123.748 409.006 128.118 405.51 131.652C401.9 127.966 399.202 123.482 397.34 118.39H413.604ZM422.724 118.39V115.616H406.954V109.194H404.104V115.616H388.638V118.39H394.224C396.39 124.432 399.354 129.562 403.268 133.704C399.202 137.048 394.224 139.48 388.182 141.228C388.79 141.874 389.702 143.242 389.968 143.926C396.086 141.95 401.216 139.328 405.396 135.756C409.576 139.518 414.744 142.254 421.09 143.888C421.508 143.09 422.42 141.798 423.104 141.152C416.948 139.708 411.818 137.124 407.676 133.628C411.628 129.638 414.63 124.622 416.872 118.39H422.724Z" fill="white"/>
<path d="M426.562 138.568C426.562 137.947 426.771 137.422 427.189 136.991C427.619 136.56 428.189 136.345 428.899 136.345C429.291 136.345 429.64 136.421 429.944 136.573C430.248 136.712 430.501 136.909 430.704 137.162C430.919 137.415 431.077 137.713 431.179 138.055C431.28 138.397 431.331 138.758 431.331 139.138C431.331 139.708 431.248 140.31 431.084 140.943C430.919 141.564 430.678 142.178 430.362 142.786C430.045 143.407 429.652 144.008 429.184 144.591C428.728 145.174 428.208 145.706 427.626 146.187L427.018 145.617C426.916 145.516 426.847 145.421 426.809 145.332C426.771 145.256 426.752 145.161 426.752 145.047C426.752 144.87 426.847 144.686 427.037 144.496C427.163 144.357 427.322 144.173 427.512 143.945C427.714 143.717 427.917 143.451 428.12 143.147C428.322 142.843 428.506 142.507 428.671 142.14C428.835 141.785 428.956 141.405 429.032 141H428.861C428.519 141 428.202 140.943 427.911 140.829C427.632 140.702 427.391 140.531 427.189 140.316C426.999 140.088 426.847 139.828 426.733 139.537C426.619 139.233 426.562 138.91 426.562 138.568Z" fill="white"/>
<path d="M463.675 113.735V117.022H454.954V141H451.04V117.022H442.3V113.735H463.675Z" fill="white"/>
<path d="M470.622 121.715V141H467.012V121.715H470.622ZM471.325 115.73C471.325 116.072 471.255 116.395 471.116 116.699C470.989 116.99 470.805 117.25 470.565 117.478C470.337 117.706 470.064 117.89 469.748 118.029C469.444 118.156 469.121 118.219 468.779 118.219C468.449 118.219 468.133 118.156 467.829 118.029C467.537 117.89 467.278 117.706 467.05 117.478C466.822 117.25 466.638 116.99 466.499 116.699C466.372 116.395 466.309 116.072 466.309 115.73C466.309 115.388 466.372 115.065 466.499 114.761C466.638 114.444 466.822 114.172 467.05 113.944C467.278 113.716 467.537 113.539 467.829 113.412C468.133 113.273 468.449 113.203 468.779 113.203C469.121 113.203 469.444 113.273 469.748 113.412C470.064 113.539 470.337 113.716 470.565 113.944C470.805 114.172 470.989 114.444 471.116 114.761C471.255 115.065 471.325 115.388 471.325 115.73Z" fill="white"/>
<path d="M484.005 121.411C485.17 121.411 486.247 121.607 487.235 122C488.223 122.38 489.078 122.937 489.8 123.672C490.522 124.407 491.085 125.312 491.491 126.389C491.896 127.453 492.099 128.675 492.099 130.056C492.099 130.613 492.035 130.987 491.909 131.177C491.795 131.367 491.573 131.462 491.244 131.462H478.514C478.552 132.64 478.716 133.666 479.008 134.54C479.312 135.414 479.717 136.142 480.224 136.725C480.743 137.295 481.364 137.726 482.086 138.017C482.808 138.296 483.612 138.435 484.499 138.435C485.335 138.435 486.05 138.34 486.646 138.15C487.254 137.96 487.773 137.751 488.204 137.523C488.647 137.295 489.021 137.086 489.325 136.896C489.629 136.706 489.895 136.611 490.123 136.611C490.427 136.611 490.648 136.725 490.788 136.953L491.814 138.264C491.37 138.796 490.857 139.252 490.275 139.632C489.692 139.999 489.065 140.31 488.394 140.563C487.722 140.804 487.026 140.981 486.304 141.095C485.594 141.209 484.891 141.266 484.195 141.266C482.865 141.266 481.63 141.044 480.49 140.601C479.362 140.145 478.387 139.486 477.564 138.625C476.74 137.751 476.094 136.674 475.626 135.395C475.17 134.103 474.942 132.621 474.942 130.949C474.942 129.606 475.151 128.359 475.569 127.206C475.987 126.041 476.582 125.034 477.355 124.185C478.14 123.324 479.09 122.646 480.205 122.152C481.332 121.658 482.599 121.411 484.005 121.411ZM484.062 124.052C482.478 124.052 481.231 124.514 480.319 125.439C479.419 126.351 478.856 127.618 478.628 129.239H488.869C488.869 128.479 488.761 127.782 488.546 127.149C488.33 126.516 488.014 125.971 487.596 125.515C487.19 125.059 486.69 124.704 486.095 124.451C485.499 124.185 484.822 124.052 484.062 124.052ZM490.047 118.789H487.634C487.33 118.789 487.064 118.694 486.836 118.504L484.48 115.996C484.378 115.907 484.271 115.787 484.157 115.635L483.834 115.996L481.44 118.504C481.364 118.58 481.25 118.65 481.098 118.713C480.958 118.764 480.813 118.789 480.661 118.789H478.153L482.428 113.735H485.772L490.047 118.789ZM495.88 110.752L491.301 114.856C490.908 115.261 490.528 115.451 490.161 115.426C489.793 115.401 489.464 115.204 489.173 114.837L488.66 114.229L490.807 111.607C490.908 111.468 491.003 111.347 491.092 111.246C491.193 111.132 491.301 111.043 491.415 110.98C491.529 110.904 491.662 110.847 491.814 110.809C491.966 110.771 492.149 110.752 492.365 110.752H495.88Z" fill="white"/>
<path d="M496.157 141V121.715H498.323C498.83 121.715 499.146 121.956 499.273 122.437L499.539 124.432C500.375 123.533 501.306 122.804 502.332 122.247C503.358 121.69 504.542 121.411 505.885 121.411C506.936 121.411 507.861 121.588 508.659 121.943C509.47 122.298 510.147 122.798 510.692 123.444C511.237 124.077 511.648 124.844 511.927 125.743C512.206 126.63 512.345 127.618 512.345 128.707V141H508.735V128.707C508.735 127.314 508.412 126.231 507.766 125.458C507.12 124.673 506.138 124.28 504.821 124.28C503.846 124.28 502.94 124.508 502.104 124.964C501.268 125.42 500.489 126.047 499.767 126.845V141H496.157Z" fill="white"/>
<path d="M524.148 121.392C524.984 121.392 525.756 121.487 526.466 121.677C527.188 121.854 527.853 122.114 528.461 122.456H533.781V123.786C533.781 124.242 533.502 124.527 532.945 124.641L530.836 124.945C531.228 125.756 531.425 126.642 531.425 127.605C531.425 128.555 531.241 129.41 530.874 130.17C530.519 130.93 530.019 131.582 529.373 132.127C528.727 132.672 527.954 133.09 527.055 133.381C526.168 133.672 525.199 133.818 524.148 133.818C523.261 133.818 522.438 133.723 521.678 133.533C520.88 134.014 520.481 134.546 520.481 135.129C520.481 135.572 520.664 135.908 521.032 136.136C521.412 136.351 521.906 136.51 522.514 136.611C523.122 136.712 523.812 136.776 524.585 136.801C525.357 136.826 526.149 136.871 526.96 136.934C527.77 136.985 528.562 137.08 529.335 137.219C530.107 137.358 530.798 137.593 531.406 137.922C532.014 138.239 532.501 138.676 532.869 139.233C533.249 139.79 533.439 140.519 533.439 141.418C533.439 142.254 533.23 143.058 532.812 143.831C532.406 144.616 531.811 145.307 531.026 145.902C530.253 146.51 529.303 146.998 528.176 147.365C527.048 147.732 525.775 147.916 524.357 147.916C522.938 147.916 521.697 147.777 520.633 147.498C519.581 147.219 518.701 146.846 517.992 146.377C517.295 145.908 516.769 145.364 516.415 144.743C516.073 144.135 515.902 143.495 515.902 142.824C515.902 141.874 516.193 141.076 516.776 140.43C517.371 139.771 518.182 139.258 519.208 138.891C518.638 138.638 518.188 138.296 517.859 137.865C517.529 137.422 517.365 136.839 517.365 136.117C517.365 135.838 517.415 135.553 517.517 135.262C517.618 134.958 517.77 134.66 517.973 134.369C518.188 134.065 518.448 133.78 518.752 133.514C519.068 133.248 519.429 133.014 519.835 132.811C518.885 132.279 518.137 131.576 517.593 130.702C517.048 129.815 516.776 128.783 516.776 127.605C516.776 126.655 516.959 125.8 517.327 125.04C517.694 124.28 518.201 123.628 518.847 123.083C519.505 122.538 520.284 122.12 521.184 121.829C522.083 121.538 523.071 121.392 524.148 121.392ZM530.114 142.007C530.114 141.551 529.981 141.184 529.715 140.905C529.461 140.626 529.113 140.405 528.67 140.24C528.226 140.075 527.713 139.961 527.131 139.898C526.548 139.835 525.934 139.784 525.288 139.746C524.642 139.708 523.977 139.67 523.293 139.632C522.621 139.594 521.975 139.531 521.355 139.442C520.671 139.771 520.113 140.177 519.683 140.658C519.252 141.139 519.037 141.703 519.037 142.349C519.037 142.767 519.144 143.153 519.36 143.508C519.575 143.875 519.898 144.186 520.329 144.439C520.772 144.705 521.329 144.914 522.001 145.066C522.685 145.218 523.489 145.294 524.414 145.294C525.326 145.294 526.136 145.212 526.846 145.047C527.555 144.882 528.15 144.654 528.632 144.363C529.113 144.072 529.48 143.723 529.734 143.318C529.987 142.925 530.114 142.488 530.114 142.007ZM524.148 131.443C524.819 131.443 525.408 131.354 525.915 131.177C526.421 130.987 526.846 130.727 527.188 130.398C527.53 130.069 527.783 129.676 527.948 129.22C528.125 128.764 528.214 128.257 528.214 127.7C528.214 126.56 527.865 125.654 527.169 124.983C526.485 124.299 525.478 123.957 524.148 123.957C522.818 123.957 521.804 124.299 521.108 124.983C520.424 125.654 520.082 126.56 520.082 127.7C520.082 128.245 520.17 128.745 520.348 129.201C520.525 129.657 520.785 130.056 521.127 130.398C521.469 130.727 521.893 130.987 522.4 131.177C522.906 131.354 523.489 131.443 524.148 131.443Z" fill="white"/>
<path d="M542.91 113.735H546.045C546.387 113.735 546.666 113.824 546.881 114.001C547.109 114.166 547.274 114.387 547.375 114.666L554.861 133.419C555.039 133.862 555.203 134.356 555.355 134.901C555.52 135.433 555.672 135.99 555.811 136.573C555.938 135.99 556.071 135.433 556.21 134.901C556.362 134.356 556.527 133.862 556.704 133.419L564.171 114.666C564.247 114.425 564.399 114.21 564.627 114.02C564.868 113.83 565.153 113.735 565.482 113.735H568.636L557.54 141H554.006L542.91 113.735Z" fill="white"/>
<path d="M575.085 121.715V141H571.475V121.715H575.085ZM575.788 115.73C575.788 116.072 575.718 116.395 575.579 116.699C575.452 116.99 575.268 117.25 575.028 117.478C574.8 117.706 574.527 117.89 574.211 118.029C573.907 118.156 573.584 118.219 573.242 118.219C572.912 118.219 572.596 118.156 572.292 118.029C572 117.89 571.741 117.706 571.513 117.478C571.285 117.25 571.101 116.99 570.962 116.699C570.835 116.395 570.772 116.072 570.772 115.73C570.772 115.388 570.835 115.065 570.962 114.761C571.101 114.444 571.285 114.172 571.513 113.944C571.741 113.716 572 113.539 572.292 113.412C572.596 113.273 572.912 113.203 573.242 113.203C573.584 113.203 573.907 113.273 574.211 113.412C574.527 113.539 574.8 113.716 575.028 113.944C575.268 114.172 575.452 114.444 575.579 114.761C575.718 115.065 575.788 115.388 575.788 115.73Z" fill="white"/>
<path d="M588.468 121.411C589.633 121.411 590.71 121.607 591.698 122C592.686 122.38 593.541 122.937 594.263 123.672C594.985 124.407 595.548 125.312 595.954 126.389C596.359 127.453 596.562 128.675 596.562 130.056C596.562 130.613 596.498 130.987 596.372 131.177C596.258 131.367 596.036 131.462 595.707 131.462H582.977C583.015 132.64 583.179 133.666 583.471 134.54C583.775 135.414 584.18 136.142 584.687 136.725C585.206 137.295 585.827 137.726 586.549 138.017C587.271 138.296 588.075 138.435 588.962 138.435C589.798 138.435 590.513 138.34 591.109 138.15C591.717 137.96 592.236 137.751 592.667 137.523C593.11 137.295 593.484 137.086 593.788 136.896C594.092 136.706 594.358 136.611 594.586 136.611C594.89 136.611 595.111 136.725 595.251 136.953L596.277 138.264C595.833 138.796 595.32 139.252 594.738 139.632C594.155 139.999 593.528 140.31 592.857 140.563C592.185 140.804 591.489 140.981 590.767 141.095C590.057 141.209 589.354 141.266 588.658 141.266C587.328 141.266 586.093 141.044 584.953 140.601C583.825 140.145 582.85 139.486 582.027 138.625C581.203 137.751 580.557 136.674 580.089 135.395C579.633 134.103 579.405 132.621 579.405 130.949C579.405 129.606 579.614 128.359 580.032 127.206C580.45 126.041 581.045 125.034 581.818 124.185C582.603 123.324 583.553 122.646 584.668 122.152C585.795 121.658 587.062 121.411 588.468 121.411ZM588.525 124.052C586.941 124.052 585.694 124.514 584.782 125.439C583.882 126.351 583.319 127.618 583.091 129.239H593.332C593.332 128.479 593.224 127.782 593.009 127.149C592.793 126.516 592.477 125.971 592.059 125.515C591.653 125.059 591.153 124.704 590.558 124.451C589.962 124.185 589.285 124.052 588.525 124.052ZM594.491 118.789H592.078C591.926 118.789 591.774 118.764 591.622 118.713C591.482 118.662 591.337 118.561 591.185 118.409L588.924 115.996C588.822 115.907 588.715 115.787 588.601 115.635L588.278 115.996L585.998 118.409C585.719 118.662 585.421 118.789 585.105 118.789H582.597L586.872 113.735H590.216L594.491 118.789ZM590.9 145.693C590.9 145.997 590.836 146.282 590.71 146.548C590.596 146.814 590.431 147.048 590.216 147.251C590.013 147.454 589.772 147.612 589.494 147.726C589.228 147.853 588.943 147.916 588.639 147.916C588.335 147.916 588.05 147.853 587.784 147.726C587.518 147.612 587.283 147.454 587.081 147.251C586.891 147.048 586.732 146.814 586.606 146.548C586.492 146.282 586.435 145.997 586.435 145.693C586.435 145.389 586.492 145.098 586.606 144.819C586.732 144.54 586.891 144.3 587.081 144.097C587.283 143.894 587.518 143.73 587.784 143.603C588.05 143.489 588.335 143.432 588.639 143.432C588.943 143.432 589.228 143.489 589.494 143.603C589.772 143.73 590.013 143.894 590.216 144.097C590.431 144.3 590.596 144.54 590.71 144.819C590.836 145.098 590.9 145.389 590.9 145.693Z" fill="white"/>
<path d="M606.438 141.304C604.893 141.304 603.702 140.873 602.866 140.012C602.03 139.151 601.612 137.909 601.612 136.288V124.66H599.351C599.136 124.66 598.959 124.597 598.819 124.47C598.68 124.331 598.61 124.134 598.61 123.881V122.437L601.745 122.019L602.562 116.186C602.613 115.983 602.708 115.825 602.847 115.711C602.987 115.584 603.17 115.521 603.398 115.521H605.222V122.038H610.713V124.66H605.222V136.041C605.222 136.814 605.406 137.396 605.773 137.789C606.153 138.169 606.647 138.359 607.255 138.359C607.597 138.359 607.895 138.315 608.148 138.226C608.402 138.137 608.617 138.036 608.794 137.922C608.972 137.808 609.124 137.707 609.25 137.618C609.39 137.529 609.51 137.485 609.611 137.485C609.725 137.485 609.814 137.51 609.877 137.561C609.953 137.612 610.029 137.7 610.105 137.827L611.169 139.556C610.561 140.113 609.839 140.544 609.003 140.848C608.18 141.152 607.325 141.304 606.438 141.304Z" fill="white"/>
<path d="M630.352 124.648V130.598H636.008V132.614H630.352V138.578H628.182V132.614H622.554V130.598H628.182V124.648H630.352Z" fill="white"/>
<path d="M651.186 122.058C651.186 122.441 651.065 122.753 650.822 122.996C650.589 123.239 650.192 123.36 649.632 123.36H643.444L642.562 128.442C643.58 128.218 644.522 128.106 645.39 128.106C646.436 128.106 647.36 128.265 648.162 128.582C648.965 128.89 649.637 129.319 650.178 129.87C650.72 130.411 651.126 131.055 651.396 131.802C651.676 132.539 651.816 133.337 651.816 134.196C651.816 135.26 651.63 136.226 651.256 137.094C650.883 137.962 650.37 138.704 649.716 139.32C649.072 139.927 648.307 140.398 647.42 140.734C646.534 141.061 645.577 141.224 644.55 141.224C643.953 141.224 643.379 141.163 642.828 141.042C642.287 140.93 641.778 140.776 641.302 140.58C640.826 140.375 640.388 140.141 639.986 139.88C639.585 139.619 639.226 139.348 638.908 139.068L639.72 137.92C639.898 137.668 640.131 137.542 640.42 137.542C640.616 137.542 640.831 137.617 641.064 137.766C641.298 137.906 641.578 138.065 641.904 138.242C642.24 138.419 642.632 138.583 643.08 138.732C643.538 138.872 644.074 138.942 644.69 138.942C645.372 138.942 645.988 138.835 646.538 138.62C647.089 138.396 647.556 138.083 647.938 137.682C648.33 137.271 648.629 136.781 648.834 136.212C649.04 135.643 649.142 135.013 649.142 134.322C649.142 133.706 649.049 133.155 648.862 132.67C648.685 132.175 648.419 131.755 648.064 131.41C647.71 131.055 647.262 130.785 646.72 130.598C646.179 130.411 645.554 130.318 644.844 130.318C643.846 130.318 642.777 130.495 641.638 130.85L639.972 130.36L641.596 120.91H651.186V122.058Z" fill="white"/>
<path d="M662.68 141V126.79H664.276C664.649 126.79 664.883 126.967 664.976 127.322L665.158 128.708C665.681 128.083 666.264 127.569 666.908 127.168C667.552 126.767 668.303 126.566 669.162 126.566C670.114 126.566 670.884 126.827 671.472 127.35C672.06 127.863 672.485 128.563 672.746 129.45C672.951 128.946 673.217 128.512 673.544 128.148C673.871 127.784 674.235 127.485 674.636 127.252C675.037 127.019 675.462 126.846 675.91 126.734C676.367 126.622 676.829 126.566 677.296 126.566C678.817 126.566 679.993 127.033 680.824 127.966C681.655 128.89 682.07 130.215 682.07 131.942V141H679.41V131.942C679.41 130.869 679.172 130.057 678.696 129.506C678.229 128.955 677.548 128.68 676.652 128.68C676.251 128.68 675.868 128.75 675.504 128.89C675.149 129.03 674.837 129.235 674.566 129.506C674.295 129.777 674.081 130.117 673.922 130.528C673.763 130.939 673.684 131.41 673.684 131.942V141H671.024V131.942C671.024 130.841 670.8 130.024 670.352 129.492C669.913 128.951 669.265 128.68 668.406 128.68C667.818 128.68 667.263 128.839 666.74 129.156C666.227 129.464 665.76 129.893 665.34 130.444V141H662.68Z" fill="white"/>
<path d="M691.819 126.566C692.865 126.566 693.807 126.739 694.647 127.084C695.487 127.42 696.201 127.905 696.789 128.54C697.377 129.175 697.83 129.945 698.147 130.85C698.465 131.746 698.623 132.754 698.623 133.874C698.623 134.994 698.465 136.007 698.147 136.912C697.83 137.817 697.377 138.587 696.789 139.222C696.201 139.857 695.487 140.347 694.647 140.692C693.807 141.028 692.865 141.196 691.819 141.196C690.774 141.196 689.827 141.028 688.977 140.692C688.137 140.347 687.419 139.857 686.821 139.222C686.233 138.587 685.781 137.817 685.463 136.912C685.146 136.007 684.987 134.994 684.987 133.874C684.987 132.754 685.146 131.746 685.463 130.85C685.781 129.945 686.233 129.175 686.821 128.54C687.419 127.905 688.137 127.42 688.977 127.084C689.827 126.739 690.774 126.566 691.819 126.566ZM691.819 139.124C693.182 139.124 694.199 138.667 694.871 137.752C695.543 136.837 695.879 135.549 695.879 133.888C695.879 132.236 695.543 130.948 694.871 130.024C694.199 129.1 693.182 128.638 691.819 128.638C690.438 128.638 689.407 129.1 688.725 130.024C688.053 130.948 687.717 132.236 687.717 133.888C687.717 135.549 688.053 136.837 688.725 137.752C689.407 138.667 690.438 139.124 691.819 139.124Z" fill="white"/>
<path d="M701.699 141V126.79H703.225C703.515 126.79 703.711 126.841 703.813 126.944C703.925 127.047 704 127.233 704.037 127.504L704.205 129.576C704.653 128.633 705.204 127.891 705.857 127.35C706.511 126.809 707.295 126.538 708.209 126.538C708.517 126.538 708.807 126.571 709.077 126.636C709.357 126.701 709.6 126.804 709.805 126.944L709.623 128.932C709.567 129.184 709.418 129.31 709.175 129.31C709.045 129.31 708.849 129.282 708.587 129.226C708.335 129.17 708.055 129.142 707.747 129.142C707.309 129.142 706.917 129.207 706.571 129.338C706.235 129.469 705.932 129.66 705.661 129.912C705.391 130.164 705.148 130.472 704.933 130.836C704.728 131.2 704.537 131.615 704.359 132.082V141H701.699Z" fill="white"/>
<path d="M717.218 126.566C718.076 126.566 718.87 126.711 719.598 127C720.326 127.28 720.956 127.691 721.488 128.232C722.02 128.773 722.435 129.441 722.734 130.234C723.032 131.018 723.182 131.919 723.182 132.936C723.182 133.347 723.135 133.622 723.042 133.762C722.958 133.902 722.794 133.972 722.552 133.972H713.172C713.2 134.84 713.321 135.596 713.536 136.24C713.76 136.884 714.058 137.421 714.432 137.85C714.814 138.27 715.272 138.587 715.804 138.802C716.336 139.007 716.928 139.11 717.582 139.11C718.198 139.11 718.725 139.04 719.164 138.9C719.612 138.76 719.994 138.606 720.312 138.438C720.638 138.27 720.914 138.116 721.138 137.976C721.362 137.836 721.558 137.766 721.726 137.766C721.95 137.766 722.113 137.85 722.216 138.018L722.972 138.984C722.645 139.376 722.267 139.712 721.838 139.992C721.408 140.263 720.946 140.491 720.452 140.678C719.957 140.855 719.444 140.986 718.912 141.07C718.389 141.154 717.871 141.196 717.358 141.196C716.378 141.196 715.468 141.033 714.628 140.706C713.797 140.37 713.078 139.885 712.472 139.25C711.865 138.606 711.389 137.813 711.044 136.87C710.708 135.918 710.54 134.826 710.54 133.594C710.54 132.605 710.694 131.685 711.002 130.836C711.31 129.977 711.748 129.235 712.318 128.61C712.896 127.975 713.596 127.476 714.418 127.112C715.248 126.748 716.182 126.566 717.218 126.566ZM717.26 128.512C716.093 128.512 715.174 128.853 714.502 129.534C713.839 130.206 713.424 131.139 713.256 132.334H720.802C720.802 131.774 720.722 131.261 720.564 130.794C720.405 130.327 720.172 129.926 719.864 129.59C719.565 129.254 719.196 128.993 718.758 128.806C718.319 128.61 717.82 128.512 717.26 128.512Z" fill="white"/>
<path d="M122.5 155C156.93 155 185 126.93 185 92.5C185 58.0702 156.93 30 122.5 30C88.0702 30 60 58.0702 60 92.5C60 126.93 88.0702 155 122.5 155ZM102.763 95.3509C102.982 94.693 103.202 94.0351 103.202 93.8158C103.202 93.3772 104.956 92.9386 107.588 92.9386C108.246 92.9386 109.342 92.7193 110.219 92.7193C111.096 92.5 111.974 92.5 112.412 92.5C112.851 92.5 113.509 93.3772 113.947 94.0351C114.605 94.9123 115.263 95.7895 115.921 95.5702C117.018 95.3509 116.798 94.0351 116.798 93.1579C116.798 92.9386 116.798 92.5 116.798 92.2807C116.798 91.6228 118.114 89.4298 119.211 88.7719C120.526 87.8947 122.281 85.4825 121.842 84.386C121.842 83.9474 124.035 82.4123 124.912 81.7544C125.351 81.5351 125.57 81.3158 125.789 81.0965C126.009 80.8772 126.228 80.8772 126.667 80.6579C127.544 80.2193 128.421 79.7807 128.421 78.4649C128.421 77.5877 130.833 77.3684 132.368 77.1491C132.807 77.1491 133.026 77.1491 133.246 76.9298C134.123 76.7105 134.781 76.4912 135 76.0526C135.219 75.614 135 74.9561 134.781 74.2982C134.781 74.0789 134.561 73.8597 134.561 73.6404C134.123 72.3246 134.342 71.6667 135.439 70.7895C135.877 70.3509 136.974 70.3509 137.851 70.1316C138.947 69.9123 140.044 69.9123 140.921 69.4737C141.579 69.2544 142.018 68.8158 142.237 68.3772C142.456 67.7193 142.018 67.2807 141.579 66.6228C141.36 66.4035 141.36 66.1842 141.14 65.9649C140.702 64.8684 139.605 63.9912 138.947 63.5526C138.509 63.3333 138.289 61.7982 138.07 60.921C137.851 60.4825 137.851 60.0439 137.632 59.6053C137.412 59.1667 137.193 58.9474 136.974 58.9474C136.096 58.7281 134.781 59.1667 134.123 59.386C134.123 59.1667 134.123 58.9474 133.904 58.7281C133.904 58.0702 133.684 57.6316 133.465 57.4123C133.246 57.193 132.807 56.7544 132.368 56.3158C131.491 55.6579 130.614 54.7807 129.956 54.1228C129.518 53.6842 129.079 53.6842 128.86 53.6842C127.982 53.9035 127.105 55 126.447 56.0965C126.447 56.3158 126.228 56.3158 126.228 56.5351C125.132 58.2895 124.912 59.6053 125.789 60.2632C125.789 60.2632 126.009 60.4825 125.789 61.1404C125.57 62.0175 124.912 62.6754 124.474 62.6754C123.377 62.6754 123.158 63.9912 122.939 65.307C122.939 65.7456 122.719 66.6228 122.5 66.8421C122.281 66.6228 122.061 65.7456 122.061 63.3333V63.114C122.061 62.8947 122.061 62.4561 121.842 62.4561C121.623 62.2368 120.965 62.2368 120.746 62.2368C120.307 62.2368 120.088 62.2368 119.868 62.0175C119.211 61.1403 116.36 60.0439 115.263 59.6053C115.263 58.0702 115.263 56.5351 115.263 56.3158C115.702 55.8772 120.088 52.807 121.184 52.3684C122.5 51.9298 126.228 49.5175 126.886 49.0789C127.544 48.6404 127.544 48.2018 127.544 47.7632C127.325 46.6667 125.351 45.7895 124.474 45.5702C123.816 44.0351 122.719 44.0351 121.404 44.0351C120.746 44.0351 120.088 44.0351 119.211 43.8158C115.921 43.1579 113.07 43.1579 110.877 43.3772C109.342 43.5965 107.368 43.1579 105.833 42.9386C105.395 42.9386 104.956 42.7193 104.518 42.7193C110.219 40.5263 116.36 39.4298 122.939 39.4298C130.395 39.4298 137.412 40.9649 143.772 43.5965C143.991 44.0351 143.991 44.4737 144.211 44.9123C144.868 46.4474 146.184 49.0789 146.184 51.2719C146.184 53.2456 146.404 55.4386 146.184 56.0965C145.965 56.7544 150.132 61.579 151.228 61.579C152.105 61.7982 152.763 61.1403 153.421 60.2632C154.079 59.386 154.737 58.2895 156.491 56.9737C157.588 56.0965 160.219 56.0965 161.754 56.3158C163.509 58.2895 165.263 60.2632 166.798 62.4561C166.579 62.6754 166.36 62.8947 166.36 62.8947C165.482 63.7719 163.509 65.7456 163.728 67.5C163.947 69.2544 165.702 71.2281 167.895 72.3246C170.088 73.4211 170.307 75.614 170.307 76.0526C170.307 76.4912 173.377 78.4649 173.377 78.4649C173.377 78.4649 172.061 81.0965 171.404 81.0965C170.746 81.0965 170.307 83.7281 170.307 84.6053C170.307 85.7018 171.623 87.4561 172.939 88.5526C174.035 89.4298 175.351 87.8947 176.009 87.2368C176.228 88.7719 176.228 90.307 176.228 91.8421C174.912 92.0614 172.939 92.9386 172.281 93.3772C171.404 94.2544 169.43 100.395 168.553 101.053C167.675 101.711 165.921 110.263 165.702 111.14C165.482 112.018 167.895 118.158 169.43 119.035C162.193 131.974 149.693 141.404 134.781 144.693C135 144.254 135.219 144.035 135.439 144.035C135.439 143.816 136.096 143.596 136.316 143.377C137.193 142.939 138.07 142.5 138.509 141.842C139.167 140.965 140.921 138.991 141.798 138.553C142.895 138.114 149.254 132.193 149.693 131.316C150.789 128.904 152.105 126.272 152.763 125.614C154.079 124.518 152.982 122.325 152.325 121.667V121.447C151.886 120.57 148.158 120.132 147.5 120.351C146.842 120.351 143.772 118.596 143.553 118.158C143.553 117.061 140.482 114.211 139.825 114.211C139.386 114.211 137.632 113.772 136.754 112.675C135.658 111.14 131.272 110.263 130.175 110.263C129.079 110.263 127.325 110.044 126.228 109.386C125.132 108.947 123.377 109.605 121.404 110.482C120.965 110.702 120.746 110.702 120.526 110.921C119.868 111.14 116.36 110.263 115.482 110.044C115.263 109.825 115.044 108.509 115.044 107.851C115.044 106.974 114.825 106.316 114.825 106.096C114.605 105.658 113.728 105.439 112.193 105C111.754 105 111.316 104.781 110.877 104.781C110.877 104.561 111.096 104.123 111.316 103.684C111.974 102.368 112.193 101.491 111.974 100.833C111.754 100.614 111.754 100.395 111.316 100.395C110.439 100.175 109.342 101.053 108.246 101.93C107.807 102.368 106.93 102.807 106.711 102.807C106.053 102.807 104.518 102.149 102.982 101.272C101.228 99.9561 102.325 96.886 102.763 95.3509ZM83.6842 56.3158C83.9035 56.5351 84.3421 56.7544 84.7807 56.9737C85 57.4123 85.2193 59.8246 85 62.6754V62.8947C85 62.8947 87.193 68.3772 85.2193 72.7632C83.0263 77.3684 83.4649 85.0439 84.5614 86.7982C85.6579 88.3333 90.7018 94.9123 91.3596 95.5702C92.0175 96.2281 93.7719 100.833 93.7719 101.711C93.9912 102.368 97.2807 106.535 100.789 106.316C102.763 106.316 105.175 107.412 106.711 108.289C107.588 108.728 108.026 108.947 108.465 108.947C108.684 108.947 108.904 109.386 109.123 109.605C109.561 110.482 110.439 111.798 112.193 112.895C112.632 113.114 113.289 113.553 113.728 113.772C115.482 114.868 118.114 116.184 118.333 116.623C118.333 116.842 117.895 117.281 117.675 117.5C116.579 118.816 114.605 121.009 115.263 123.86C115.921 127.807 121.623 132.632 123.596 133.947C124.693 134.825 124.254 142.939 123.596 144.474C123.377 144.912 123.377 145.351 123.377 146.009C123.158 146.009 122.939 146.009 122.719 146.009C93.3333 146.009 69.6491 122.105 69.6491 92.9386C69.4298 78.4649 74.9123 65.7456 83.6842 56.3158Z" fill="white"/>
</svg>
