<svg width="960" height="712" viewBox="0 0 960 712" fill="none" xmlns="http://www.w3.org/2000/svg">
<rect width="960" height="712" fill="white"/>
<rect x="2" y="2" width="956" height="708" fill="white" stroke="#E5E5E5" stroke-width="4"/>
<path d="M79.6221 238.272L88.9658 211.297H93.6826L81.5537 244H77.7354L65.6289 211.297H70.3232L79.6221 238.272Z" fill="#333333"/>
<path d="M111.404 244C111.165 243.521 110.97 242.667 110.82 241.439C108.889 243.446 106.583 244.449 103.902 244.449C101.507 244.449 99.5374 243.775 97.9951 242.428C96.4678 241.065 95.7041 239.343 95.7041 237.262C95.7041 234.731 96.6624 232.77 98.5791 231.377C100.511 229.969 103.221 229.266 106.71 229.266H110.753V227.356C110.753 225.904 110.319 224.751 109.45 223.897C108.582 223.029 107.301 222.595 105.609 222.595C104.127 222.595 102.884 222.969 101.881 223.718C100.878 224.466 100.376 225.372 100.376 226.436H96.1982C96.1982 225.223 96.625 224.055 97.4785 222.932C98.347 221.794 99.515 220.895 100.982 220.236C102.465 219.577 104.09 219.248 105.856 219.248C108.657 219.248 110.85 219.952 112.438 221.359C114.025 222.752 114.848 224.676 114.908 227.132V238.317C114.908 240.549 115.193 242.323 115.762 243.641V244H111.404ZM104.509 240.833C105.812 240.833 107.047 240.496 108.215 239.822C109.383 239.148 110.229 238.272 110.753 237.194V232.208H107.496C102.405 232.208 99.8594 233.698 99.8594 236.678C99.8594 237.98 100.294 238.999 101.162 239.732C102.031 240.466 103.146 240.833 104.509 240.833Z" fill="#333333"/>
<path d="M133.169 223.426C132.54 223.321 131.859 223.269 131.125 223.269C128.4 223.269 126.55 224.429 125.577 226.75V244H121.422V219.697H125.465L125.532 222.505C126.895 220.334 128.826 219.248 131.327 219.248C132.136 219.248 132.75 219.353 133.169 219.562V223.426Z" fill="#333333"/>
<path d="M141.524 244H137.369V219.697H141.524V244ZM137.032 213.251C137.032 212.577 137.234 212.008 137.639 211.544C138.058 211.08 138.672 210.848 139.48 210.848C140.289 210.848 140.903 211.08 141.322 211.544C141.742 212.008 141.951 212.577 141.951 213.251C141.951 213.925 141.742 214.486 141.322 214.936C140.903 215.385 140.289 215.609 139.48 215.609C138.672 215.609 138.058 215.385 137.639 214.936C137.234 214.486 137.032 213.925 137.032 213.251Z" fill="#333333"/>
<path d="M163.199 244C162.96 243.521 162.765 242.667 162.615 241.439C160.684 243.446 158.378 244.449 155.697 244.449C153.301 244.449 151.332 243.775 149.79 242.428C148.263 241.065 147.499 239.343 147.499 237.262C147.499 234.731 148.457 232.77 150.374 231.377C152.306 229.969 155.016 229.266 158.505 229.266H162.548V227.356C162.548 225.904 162.114 224.751 161.245 223.897C160.377 223.029 159.096 222.595 157.404 222.595C155.922 222.595 154.679 222.969 153.676 223.718C152.673 224.466 152.171 225.372 152.171 226.436H147.993C147.993 225.223 148.42 224.055 149.273 222.932C150.142 221.794 151.31 220.895 152.777 220.236C154.26 219.577 155.884 219.248 157.651 219.248C160.451 219.248 162.645 219.952 164.232 221.359C165.82 222.752 166.643 224.676 166.703 227.132V238.317C166.703 240.549 166.988 242.323 167.557 243.641V244H163.199ZM156.304 240.833C157.606 240.833 158.842 240.496 160.01 239.822C161.178 239.148 162.024 238.272 162.548 237.194V232.208H159.291C154.2 232.208 151.654 233.698 151.654 236.678C151.654 237.98 152.089 238.999 152.957 239.732C153.826 240.466 154.941 240.833 156.304 240.833Z" fill="#333333"/>
<path d="M177.147 219.697L177.282 222.752C179.139 220.416 181.565 219.248 184.56 219.248C189.696 219.248 192.286 222.146 192.331 227.94V244H188.176V227.918C188.161 226.166 187.757 224.871 186.963 224.032C186.184 223.194 184.964 222.774 183.302 222.774C181.954 222.774 180.771 223.134 179.753 223.853C178.735 224.571 177.941 225.515 177.372 226.683V244H173.217V219.697H177.147Z" fill="#333333"/>
<path d="M204.235 213.812V219.697H208.772V222.909H204.235V237.98C204.235 238.954 204.438 239.688 204.842 240.182C205.246 240.661 205.935 240.9 206.908 240.9C207.387 240.9 208.046 240.811 208.885 240.631V244C207.792 244.299 206.729 244.449 205.695 244.449C203.839 244.449 202.438 243.888 201.495 242.765C200.552 241.642 200.08 240.047 200.08 237.98V222.909H195.655V219.697H200.08V213.812H204.235Z" fill="#333333"/>
<path d="M213.512 241.821C213.512 241.103 213.721 240.504 214.141 240.024C214.575 239.545 215.219 239.306 216.072 239.306C216.926 239.306 217.57 239.545 218.004 240.024C218.453 240.504 218.678 241.103 218.678 241.821C218.678 242.51 218.453 243.087 218.004 243.551C217.57 244.015 216.926 244.247 216.072 244.247C215.219 244.247 214.575 244.015 214.141 243.551C213.721 243.087 213.512 242.51 213.512 241.821ZM213.534 221.988C213.534 221.27 213.744 220.671 214.163 220.191C214.597 219.712 215.241 219.473 216.095 219.473C216.948 219.473 217.592 219.712 218.026 220.191C218.476 220.671 218.7 221.27 218.7 221.988C218.7 222.677 218.476 223.254 218.026 223.718C217.592 224.182 216.948 224.414 216.095 224.414C215.241 224.414 214.597 224.182 214.163 223.718C213.744 223.254 213.534 222.677 213.534 221.988Z" fill="#333333"/>
<path d="M177.593 105.106C177.338 108.625 176.035 111.396 173.685 113.417C171.349 115.438 168.264 116.449 164.431 116.449C160.238 116.449 156.936 115.042 154.525 112.227C152.13 109.396 150.932 105.518 150.932 100.592V98.5928C150.932 95.4482 151.486 92.6781 152.594 90.2822C153.702 87.8864 155.282 86.0521 157.333 84.7793C159.399 83.4915 161.795 82.8477 164.521 82.8477C168.294 82.8477 171.334 83.8584 173.64 85.8799C175.946 87.9014 177.278 90.7389 177.638 94.3926H170.899C170.735 92.2812 170.143 90.7539 169.125 89.8105C168.122 88.8522 166.587 88.373 164.521 88.373C162.274 88.373 160.59 89.1816 159.467 90.7988C158.359 92.401 157.79 94.8942 157.76 98.2783V100.749C157.76 104.283 158.291 106.866 159.354 108.498C160.433 110.13 162.125 110.946 164.431 110.946C166.512 110.946 168.062 110.475 169.08 109.531C170.113 108.573 170.705 107.098 170.854 105.106H177.593Z" fill="#333333"/>
<path d="M181.5 103.624C181.5 101.213 181.964 99.0645 182.893 97.1777C183.821 95.291 185.154 93.8311 186.891 92.7979C188.643 91.7646 190.672 91.248 192.978 91.248C196.257 91.248 198.93 92.2513 200.996 94.2578C203.078 96.2643 204.238 98.9896 204.478 102.434L204.523 104.096C204.523 107.824 203.482 110.819 201.4 113.08C199.319 115.326 196.526 116.449 193.023 116.449C189.519 116.449 186.719 115.326 184.622 113.08C182.541 110.834 181.5 107.779 181.5 103.916V103.624ZM187.991 104.096C187.991 106.402 188.426 108.169 189.294 109.396C190.163 110.609 191.405 111.216 193.023 111.216C194.595 111.216 195.823 110.617 196.706 109.419C197.59 108.206 198.031 106.274 198.031 103.624C198.031 101.363 197.59 99.611 196.706 98.3682C195.823 97.1253 194.58 96.5039 192.978 96.5039C191.39 96.5039 190.163 97.1253 189.294 98.3682C188.426 99.596 187.991 101.505 187.991 104.096Z" fill="#333333"/>
<path d="M215.527 91.6973L215.73 94.415C217.452 92.3037 219.78 91.248 222.715 91.248C225.845 91.248 227.993 92.4834 229.161 94.9541C230.868 92.4834 233.302 91.248 236.461 91.248C239.097 91.248 241.058 92.0192 242.346 93.5615C243.634 95.0889 244.277 97.3949 244.277 100.479V116H237.764V100.502C237.764 99.1243 237.494 98.1211 236.955 97.4922C236.416 96.8483 235.465 96.5264 234.103 96.5264C232.156 96.5264 230.808 97.4548 230.06 99.3115L230.082 116H223.591V100.524C223.591 99.1169 223.314 98.0986 222.76 97.4697C222.206 96.8408 221.263 96.5264 219.93 96.5264C218.088 96.5264 216.755 97.29 215.932 98.8174V116H209.441V91.6973H215.527Z" fill="#333333"/>
<path d="M272.083 104.073C272.083 107.817 271.23 110.819 269.523 113.08C267.831 115.326 265.54 116.449 262.65 116.449C260.194 116.449 258.21 115.596 256.698 113.889V125.344H250.206V91.6973H256.226L256.45 94.0781C258.023 92.1914 260.074 91.248 262.605 91.248C265.6 91.248 267.928 92.3561 269.59 94.5723C271.252 96.7884 272.083 99.8431 272.083 103.736V104.073ZM265.592 103.602C265.592 101.34 265.188 99.596 264.379 98.3682C263.586 97.1403 262.425 96.5264 260.898 96.5264C258.861 96.5264 257.461 97.305 256.698 98.8623V108.812C257.491 110.415 258.906 111.216 260.943 111.216C264.042 111.216 265.592 108.678 265.592 103.602Z" fill="#333333"/>
<path d="M276.035 103.624C276.035 101.213 276.5 99.0645 277.428 97.1777C278.356 95.291 279.689 93.8311 281.426 92.7979C283.178 91.7646 285.207 91.248 287.513 91.248C290.792 91.248 293.465 92.2513 295.532 94.2578C297.613 96.2643 298.773 98.9896 299.013 102.434L299.058 104.096C299.058 107.824 298.017 110.819 295.936 113.08C293.854 115.326 291.062 116.449 287.558 116.449C284.054 116.449 281.254 115.326 279.158 113.08C277.076 110.834 276.035 107.779 276.035 103.916V103.624ZM282.527 104.096C282.527 106.402 282.961 108.169 283.829 109.396C284.698 110.609 285.941 111.216 287.558 111.216C289.13 111.216 290.358 110.617 291.242 109.419C292.125 108.206 292.567 106.274 292.567 103.624C292.567 101.363 292.125 99.611 291.242 98.3682C290.358 97.1253 289.115 96.5039 287.513 96.5039C285.926 96.5039 284.698 97.1253 283.829 98.3682C282.961 99.596 282.527 101.505 282.527 104.096Z" fill="#333333"/>
<path d="M309.951 91.6973L310.153 94.5049C311.89 92.3337 314.218 91.248 317.138 91.248C319.714 91.248 321.63 92.0042 322.888 93.5166C324.146 95.029 324.79 97.29 324.82 100.3V116H318.329V100.457C318.329 99.0794 318.029 98.0837 317.43 97.4697C316.831 96.8408 315.835 96.5264 314.443 96.5264C312.616 96.5264 311.246 97.305 310.332 98.8623V116H303.841V91.6973H309.951Z" fill="#333333"/>
<path d="M341.867 116.449C338.303 116.449 335.398 115.356 333.152 113.17C330.921 110.984 329.805 108.071 329.805 104.433V103.804C329.805 101.363 330.277 99.1842 331.22 97.2676C332.164 95.3359 333.496 93.8535 335.218 92.8203C336.955 91.7721 338.932 91.248 341.148 91.248C344.472 91.248 347.085 92.2962 348.987 94.3926C350.903 96.4889 351.862 99.4613 351.862 103.31V105.96H336.386C336.596 107.547 337.225 108.82 338.273 109.778C339.336 110.737 340.676 111.216 342.293 111.216C344.794 111.216 346.748 110.31 348.156 108.498L351.345 112.069C350.372 113.447 349.054 114.525 347.392 115.304C345.73 116.067 343.888 116.449 341.867 116.449ZM341.125 96.5039C339.838 96.5039 338.79 96.9382 337.981 97.8066C337.187 98.6751 336.678 99.918 336.454 101.535H345.483V101.019C345.453 99.5811 345.064 98.473 344.315 97.6943C343.566 96.9007 342.503 96.5039 341.125 96.5039Z" fill="#333333"/>
<path d="M362.462 91.6973L362.665 94.5049C364.402 92.3337 366.73 91.248 369.65 91.248C372.225 91.248 374.142 92.0042 375.4 93.5166C376.658 95.029 377.302 97.29 377.332 100.3V116H370.84V100.457C370.84 99.0794 370.541 98.0837 369.942 97.4697C369.343 96.8408 368.347 96.5264 366.955 96.5264C365.128 96.5264 363.758 97.305 362.844 98.8623V116H356.353V91.6973H362.462Z" fill="#333333"/>
<path d="M390.964 85.7227V91.6973H395.12V96.459H390.964V108.588C390.964 109.486 391.137 110.13 391.481 110.52C391.825 110.909 392.484 111.104 393.458 111.104C394.176 111.104 394.813 111.051 395.367 110.946V115.865C394.094 116.255 392.784 116.449 391.436 116.449C386.884 116.449 384.563 114.151 384.473 109.554V96.459H380.924V91.6973H384.473V85.7227H390.964Z" fill="#333333"/>
<path d="M439.674 232.118C439.674 235.817 438.828 238.797 437.136 241.058C435.444 243.319 433.153 244.449 430.263 244.449C427.313 244.449 424.992 243.513 423.3 241.642V253.344H419.145V219.697H422.94L423.143 222.393C424.835 220.296 427.186 219.248 430.195 219.248C433.115 219.248 435.421 220.349 437.113 222.55C438.82 224.751 439.674 227.813 439.674 231.736V232.118ZM435.519 231.646C435.519 228.906 434.935 226.743 433.767 225.155C432.599 223.568 430.996 222.774 428.96 222.774C426.444 222.774 424.558 223.89 423.3 226.121V237.733C424.543 239.95 426.444 241.058 429.005 241.058C430.996 241.058 432.576 240.271 433.744 238.699C434.927 237.112 435.519 234.761 435.519 231.646Z" fill="#3A3A3A"/>
<path d="M456.722 223.426C456.093 223.321 455.411 223.269 454.678 223.269C451.952 223.269 450.103 224.429 449.13 226.75V244H444.975V219.697H449.018L449.085 222.505C450.448 220.334 452.379 219.248 454.88 219.248C455.688 219.248 456.302 219.353 456.722 219.562V223.426Z" fill="#3A3A3A"/>
<path d="M465.077 244H460.922V219.697H465.077V244ZM460.585 213.251C460.585 212.577 460.787 212.008 461.191 211.544C461.611 211.08 462.225 210.848 463.033 210.848C463.842 210.848 464.456 211.08 464.875 211.544C465.294 212.008 465.504 212.577 465.504 213.251C465.504 213.925 465.294 214.486 464.875 214.936C464.456 215.385 463.842 215.609 463.033 215.609C462.225 215.609 461.611 215.385 461.191 214.936C460.787 214.486 460.585 213.925 460.585 213.251Z" fill="#3A3A3A"/>
<path d="M475.656 219.697L475.769 222.393C477.55 220.296 479.954 219.248 482.979 219.248C486.378 219.248 488.691 220.551 489.919 223.156C490.728 221.988 491.776 221.045 493.063 220.326C494.366 219.607 495.901 219.248 497.668 219.248C502.999 219.248 505.709 222.071 505.799 227.716V244H501.644V227.963C501.644 226.226 501.247 224.931 500.453 224.077C499.66 223.209 498.327 222.774 496.455 222.774C494.913 222.774 493.632 223.239 492.614 224.167C491.596 225.08 491.005 226.316 490.84 227.873V244H486.662V228.075C486.662 224.541 484.933 222.774 481.474 222.774C478.748 222.774 476.884 223.935 475.881 226.256V244H471.726V219.697H475.656Z" fill="#3A3A3A"/>
<path d="M527.092 244C526.852 243.521 526.658 242.667 526.508 241.439C524.576 243.446 522.27 244.449 519.59 244.449C517.194 244.449 515.225 243.775 513.683 242.428C512.155 241.065 511.392 239.343 511.392 237.262C511.392 234.731 512.35 232.77 514.267 231.377C516.198 229.969 518.909 229.266 522.397 229.266H526.44V227.356C526.44 225.904 526.006 224.751 525.138 223.897C524.269 223.029 522.989 222.595 521.297 222.595C519.814 222.595 518.572 222.969 517.568 223.718C516.565 224.466 516.063 225.372 516.063 226.436H511.886C511.886 225.223 512.312 224.055 513.166 222.932C514.035 221.794 515.202 220.895 516.67 220.236C518.152 219.577 519.777 219.248 521.544 219.248C524.344 219.248 526.538 219.952 528.125 221.359C529.712 222.752 530.536 224.676 530.596 227.132V238.317C530.596 240.549 530.88 242.323 531.449 243.641V244H527.092ZM520.196 240.833C521.499 240.833 522.734 240.496 523.902 239.822C525.07 239.148 525.916 238.272 526.44 237.194V232.208H523.184C518.092 232.208 515.547 233.698 515.547 236.678C515.547 237.98 515.981 238.999 516.85 239.732C517.718 240.466 518.834 240.833 520.196 240.833Z" fill="#3A3A3A"/>
<path d="M548.856 223.426C548.228 223.321 547.546 223.269 546.812 223.269C544.087 223.269 542.238 224.429 541.265 226.75V244H537.109V219.697H541.152L541.22 222.505C542.582 220.334 544.514 219.248 547.015 219.248C547.823 219.248 548.437 219.353 548.856 219.562V223.426Z" fill="#3A3A3A"/>
<path d="M561.053 237.913L566.713 219.697H571.16L561.39 247.751C559.877 251.794 557.474 253.815 554.18 253.815L553.394 253.748L551.844 253.456V250.087L552.967 250.177C554.374 250.177 555.467 249.892 556.246 249.323C557.04 248.754 557.691 247.714 558.2 246.201L559.121 243.73L550.451 219.697H554.988L561.053 237.913Z" fill="#3A3A3A"/>
<path d="M423.659 372H419.504V337.5H423.659V372Z" fill="#3A3A3A"/>
<path d="M434.845 372H430.689V347.697H434.845V372ZM430.353 341.251C430.353 340.577 430.555 340.008 430.959 339.544C431.378 339.08 431.992 338.848 432.801 338.848C433.609 338.848 434.223 339.08 434.643 339.544C435.062 340.008 435.271 340.577 435.271 341.251C435.271 341.925 435.062 342.486 434.643 342.936C434.223 343.385 433.609 343.609 432.801 343.609C431.992 343.609 431.378 343.385 430.959 342.936C430.555 342.486 430.353 341.925 430.353 341.251Z" fill="#3A3A3A"/>
<path d="M440.527 359.646C440.527 355.858 441.403 352.848 443.155 350.617C444.907 348.371 447.228 347.248 450.118 347.248C453.083 347.248 455.396 348.296 457.059 350.393L457.261 347.697H461.057V371.416C461.057 374.561 460.121 377.039 458.249 378.851C456.392 380.662 453.892 381.568 450.747 381.568C448.995 381.568 447.281 381.194 445.604 380.445C443.926 379.697 442.646 378.671 441.763 377.368L443.919 374.875C445.701 377.076 447.88 378.177 450.455 378.177C452.477 378.177 454.049 377.608 455.172 376.47C456.31 375.332 456.879 373.729 456.879 371.663V369.574C455.217 371.491 452.948 372.449 450.073 372.449C447.228 372.449 444.922 371.304 443.155 369.013C441.403 366.722 440.527 363.6 440.527 359.646ZM444.705 360.118C444.705 362.858 445.267 365.015 446.39 366.587C447.513 368.144 449.085 368.923 451.106 368.923C453.727 368.923 455.651 367.732 456.879 365.352V354.256C455.606 351.935 453.697 350.774 451.151 350.774C449.13 350.774 447.55 351.561 446.412 353.133C445.274 354.705 444.705 357.034 444.705 360.118Z" fill="#3A3A3A"/>
<path d="M471.501 350.64C473.343 348.379 475.739 347.248 478.688 347.248C483.825 347.248 486.415 350.146 486.46 355.94V372H482.305V355.918C482.29 354.166 481.885 352.871 481.092 352.032C480.313 351.194 479.093 350.774 477.431 350.774C476.083 350.774 474.9 351.134 473.882 351.853C472.864 352.571 472.07 353.515 471.501 354.683V372H467.346V337.5H471.501V350.64Z" fill="#3A3A3A"/>
<path d="M498.319 341.812V347.697H502.856V350.909H498.319V365.98C498.319 366.954 498.521 367.688 498.926 368.182C499.33 368.661 500.019 368.9 500.992 368.9C501.471 368.9 502.13 368.811 502.969 368.631V372C501.876 372.299 500.812 372.449 499.779 372.449C497.923 372.449 496.522 371.888 495.579 370.765C494.636 369.642 494.164 368.047 494.164 365.98V350.909H489.739V347.697H494.164V341.812H498.319Z" fill="#3A3A3A"/>
<path d="M418.134 487.646C418.134 483.918 419.017 480.923 420.784 478.662C422.551 476.386 424.865 475.248 427.725 475.248C430.57 475.248 432.823 476.221 434.485 478.168V465.5H438.641V500H434.822L434.62 497.395C432.958 499.431 430.645 500.449 427.68 500.449C424.865 500.449 422.566 499.296 420.784 496.99C419.017 494.684 418.134 491.674 418.134 487.961V487.646ZM422.289 488.118C422.289 490.873 422.858 493.03 423.996 494.587C425.134 496.144 426.706 496.923 428.713 496.923C431.348 496.923 433.272 495.74 434.485 493.374V482.211C433.243 479.92 431.333 478.774 428.758 478.774C426.721 478.774 425.134 479.561 423.996 481.133C422.858 482.705 422.289 485.034 422.289 488.118Z" fill="#3A3A3A"/>
<path d="M455.194 500.449C451.9 500.449 449.22 499.371 447.153 497.215C445.087 495.044 444.054 492.146 444.054 488.522V487.759C444.054 485.348 444.51 483.199 445.424 481.312C446.352 479.411 447.64 477.928 449.287 476.865C450.949 475.787 452.746 475.248 454.678 475.248C457.837 475.248 460.293 476.289 462.045 478.37C463.797 480.451 464.673 483.431 464.673 487.31V489.039H448.209C448.269 491.435 448.965 493.374 450.298 494.856C451.646 496.324 453.353 497.058 455.419 497.058C456.886 497.058 458.129 496.758 459.147 496.159C460.166 495.56 461.057 494.767 461.82 493.778L464.358 495.755C462.322 498.884 459.267 500.449 455.194 500.449ZM454.678 478.662C453.001 478.662 451.593 479.276 450.455 480.504C449.317 481.717 448.613 483.424 448.344 485.625H460.518V485.311C460.398 483.199 459.829 481.567 458.811 480.414C457.792 479.246 456.415 478.662 454.678 478.662Z" fill="#3A3A3A"/>
<path d="M471.546 500V478.909H467.705V475.697H471.546V473.204C471.546 470.599 472.242 468.585 473.635 467.162C475.027 465.74 476.996 465.028 479.542 465.028C480.5 465.028 481.451 465.156 482.395 465.41L482.17 468.779C481.466 468.645 480.717 468.577 479.924 468.577C478.576 468.577 477.535 468.974 476.802 469.768C476.068 470.546 475.701 471.669 475.701 473.137V475.697H480.89V478.909H475.701V500H471.546Z" fill="#3A3A3A"/>
<path d="M500.498 500C500.258 499.521 500.064 498.667 499.914 497.439C497.982 499.446 495.676 500.449 492.996 500.449C490.6 500.449 488.631 499.775 487.089 498.428C485.562 497.065 484.798 495.343 484.798 493.262C484.798 490.731 485.756 488.77 487.673 487.377C489.604 485.969 492.315 485.266 495.804 485.266H499.847V483.356C499.847 481.904 499.412 480.751 498.544 479.897C497.675 479.029 496.395 478.595 494.703 478.595C493.221 478.595 491.978 478.969 490.975 479.718C489.971 480.466 489.47 481.372 489.47 482.436H485.292C485.292 481.223 485.719 480.055 486.572 478.932C487.441 477.794 488.609 476.895 490.076 476.236C491.559 475.577 493.183 475.248 494.95 475.248C497.75 475.248 499.944 475.952 501.531 477.359C503.118 478.752 503.942 480.676 504.002 483.132V494.317C504.002 496.549 504.286 498.323 504.855 499.641V500H500.498ZM493.603 496.833C494.905 496.833 496.141 496.496 497.309 495.822C498.477 495.148 499.323 494.272 499.847 493.194V488.208H496.59C491.499 488.208 488.953 489.698 488.953 492.678C488.953 493.98 489.387 494.999 490.256 495.732C491.124 496.466 492.24 496.833 493.603 496.833Z" fill="#3A3A3A"/>
<path d="M525.52 497.597C523.902 499.498 521.529 500.449 518.399 500.449C515.809 500.449 513.832 499.701 512.47 498.203C511.122 496.691 510.441 494.46 510.426 491.51V475.697H514.581V491.397C514.581 495.081 516.078 496.923 519.073 496.923C522.248 496.923 524.359 495.74 525.407 493.374V475.697H529.562V500H525.609L525.52 497.597Z" fill="#3A3A3A"/>
<path d="M540.411 500H536.256V465.5H540.411V500Z" fill="#3A3A3A"/>
<path d="M552.72 469.812V475.697H557.257V478.909H552.72V493.98C552.72 494.954 552.922 495.688 553.326 496.182C553.73 496.661 554.419 496.9 555.393 496.9C555.872 496.9 556.531 496.811 557.369 496.631V500C556.276 500.299 555.213 500.449 554.18 500.449C552.323 500.449 550.923 499.888 549.979 498.765C549.036 497.642 548.564 496.047 548.564 493.98V478.909H544.14V475.697H548.564V469.812H552.72Z" fill="#3A3A3A"/>
<path d="M433.295 621.554C433.295 620.431 432.868 619.562 432.015 618.948C431.176 618.319 429.701 617.78 427.59 617.331C425.493 616.882 423.824 616.343 422.581 615.714C421.353 615.085 420.44 614.336 419.841 613.468C419.257 612.599 418.965 611.566 418.965 610.368C418.965 608.377 419.803 606.692 421.48 605.314C423.173 603.937 425.329 603.248 427.949 603.248C430.704 603.248 432.936 603.959 434.643 605.382C436.365 606.804 437.226 608.624 437.226 610.84H433.048C433.048 609.702 432.561 608.721 431.588 607.897C430.63 607.074 429.417 606.662 427.949 606.662C426.437 606.662 425.254 606.992 424.4 607.65C423.547 608.309 423.12 609.17 423.12 610.233C423.12 611.237 423.517 611.993 424.311 612.502C425.104 613.011 426.534 613.498 428.601 613.962C430.682 614.426 432.367 614.98 433.654 615.624C434.942 616.268 435.893 617.047 436.507 617.96C437.136 618.858 437.45 619.959 437.45 621.262C437.45 623.433 436.582 625.177 434.845 626.495C433.108 627.798 430.854 628.449 428.084 628.449C426.137 628.449 424.415 628.105 422.918 627.416C421.421 626.727 420.245 625.769 419.392 624.541C418.553 623.298 418.134 621.958 418.134 620.521H422.289C422.364 621.913 422.918 623.021 423.951 623.845C424.999 624.653 426.377 625.058 428.084 625.058C429.656 625.058 430.914 624.743 431.857 624.114C432.816 623.47 433.295 622.617 433.295 621.554Z" fill="#3A3A3A"/>
<path d="M446.771 603.697L446.884 606.393C448.666 604.296 451.069 603.248 454.094 603.248C457.493 603.248 459.806 604.551 461.034 607.156C461.843 605.988 462.891 605.045 464.179 604.326C465.481 603.607 467.016 603.248 468.783 603.248C474.114 603.248 476.824 606.071 476.914 611.716V628H472.759V611.963C472.759 610.226 472.362 608.931 471.568 608.077C470.775 607.209 469.442 606.774 467.57 606.774C466.028 606.774 464.748 607.239 463.729 608.167C462.711 609.08 462.12 610.316 461.955 611.873V628H457.777V612.075C457.777 608.541 456.048 606.774 452.589 606.774C449.864 606.774 447.999 607.935 446.996 610.256V628H442.841V603.697H446.771Z" fill="#3A3A3A"/>
<path d="M498.207 628C497.967 627.521 497.773 626.667 497.623 625.439C495.691 627.446 493.385 628.449 490.705 628.449C488.309 628.449 486.34 627.775 484.798 626.428C483.271 625.065 482.507 623.343 482.507 621.262C482.507 618.731 483.465 616.77 485.382 615.377C487.313 613.969 490.024 613.266 493.513 613.266H497.556V611.356C497.556 609.904 497.121 608.751 496.253 607.897C495.384 607.029 494.104 606.595 492.412 606.595C490.93 606.595 489.687 606.969 488.684 607.718C487.68 608.466 487.179 609.372 487.179 610.436H483.001C483.001 609.223 483.428 608.055 484.281 606.932C485.15 605.794 486.318 604.895 487.785 604.236C489.268 603.577 490.892 603.248 492.659 603.248C495.459 603.248 497.653 603.952 499.24 605.359C500.827 606.752 501.651 608.676 501.711 611.132V622.317C501.711 624.549 501.995 626.323 502.564 627.641V628H498.207ZM491.312 624.833C492.614 624.833 493.85 624.496 495.018 623.822C496.186 623.148 497.032 622.272 497.556 621.194V616.208H494.299C489.208 616.208 486.662 617.698 486.662 620.678C486.662 621.98 487.096 622.999 487.965 623.732C488.833 624.466 489.949 624.833 491.312 624.833Z" fill="#3A3A3A"/>
<path d="M512.739 628H508.584V593.5H512.739V628Z" fill="#3A3A3A"/>
<path d="M523.925 628H519.77V593.5H523.925V628Z" fill="#3A3A3A"/>
<path d="M74.3662 339.297L85.0576 365.98L95.749 339.297H101.342V372H97.0293V359.265L97.4336 345.519L86.6973 372H83.3955L72.6816 345.586L73.1084 359.265V372H68.7959V339.297H74.3662Z" fill="#333333"/>
<path d="M107.204 359.624C107.204 357.243 107.668 355.102 108.597 353.2C109.54 351.299 110.843 349.831 112.505 348.798C114.182 347.765 116.091 347.248 118.232 347.248C121.542 347.248 124.215 348.394 126.251 350.685C128.302 352.976 129.328 356.023 129.328 359.826V360.118C129.328 362.484 128.871 364.61 127.958 366.497C127.06 368.369 125.764 369.829 124.072 370.877C122.395 371.925 120.464 372.449 118.277 372.449C114.983 372.449 112.31 371.304 110.259 369.013C108.222 366.722 107.204 363.689 107.204 359.916V359.624ZM111.382 360.118C111.382 362.813 112.003 364.977 113.246 366.609C114.504 368.242 116.181 369.058 118.277 369.058C120.389 369.058 122.066 368.234 123.309 366.587C124.551 364.925 125.173 362.604 125.173 359.624C125.173 356.959 124.536 354.802 123.264 353.155C122.006 351.493 120.329 350.662 118.232 350.662C116.181 350.662 114.526 351.478 113.269 353.11C112.011 354.743 111.382 357.078 111.382 360.118Z" fill="#333333"/>
<path d="M133.528 359.646C133.528 355.918 134.412 352.923 136.179 350.662C137.946 348.386 140.259 347.248 143.119 347.248C145.964 347.248 148.218 348.221 149.88 350.168V337.5H154.035V372H150.217L150.015 369.395C148.353 371.431 146.039 372.449 143.074 372.449C140.259 372.449 137.961 371.296 136.179 368.99C134.412 366.684 133.528 363.674 133.528 359.961V359.646ZM137.684 360.118C137.684 362.873 138.253 365.03 139.391 366.587C140.529 368.144 142.101 368.923 144.107 368.923C146.743 368.923 148.667 367.74 149.88 365.374V354.211C148.637 351.92 146.728 350.774 144.152 350.774C142.116 350.774 140.529 351.561 139.391 353.133C138.253 354.705 137.684 357.034 137.684 360.118Z" fill="#333333"/>
<path d="M170.589 372.449C167.295 372.449 164.614 371.371 162.548 369.215C160.481 367.044 159.448 364.146 159.448 360.522V359.759C159.448 357.348 159.905 355.199 160.818 353.312C161.747 351.411 163.035 349.928 164.682 348.865C166.344 347.787 168.141 347.248 170.072 347.248C173.232 347.248 175.688 348.289 177.439 350.37C179.191 352.451 180.067 355.431 180.067 359.31V361.039H163.604C163.663 363.435 164.36 365.374 165.692 366.856C167.04 368.324 168.747 369.058 170.813 369.058C172.281 369.058 173.524 368.758 174.542 368.159C175.56 367.56 176.451 366.767 177.215 365.778L179.753 367.755C177.716 370.884 174.662 372.449 170.589 372.449ZM170.072 350.662C168.395 350.662 166.988 351.276 165.85 352.504C164.712 353.717 164.008 355.424 163.738 357.625H175.912V357.311C175.792 355.199 175.223 353.567 174.205 352.414C173.187 351.246 171.809 350.662 170.072 350.662Z" fill="#333333"/>
<path d="M184.762 369.821C184.762 369.103 184.971 368.504 185.391 368.024C185.825 367.545 186.469 367.306 187.322 367.306C188.176 367.306 188.82 367.545 189.254 368.024C189.703 368.504 189.928 369.103 189.928 369.821C189.928 370.51 189.703 371.087 189.254 371.551C188.82 372.015 188.176 372.247 187.322 372.247C186.469 372.247 185.825 372.015 185.391 371.551C184.971 371.087 184.762 370.51 184.762 369.821ZM184.784 349.988C184.784 349.27 184.994 348.671 185.413 348.191C185.847 347.712 186.491 347.473 187.345 347.473C188.198 347.473 188.842 347.712 189.276 348.191C189.726 348.671 189.95 349.27 189.95 349.988C189.95 350.677 189.726 351.254 189.276 351.718C188.842 352.182 188.198 352.414 187.345 352.414C186.491 352.414 185.847 352.182 185.413 351.718C184.994 351.254 184.784 350.677 184.784 349.988Z" fill="#333333"/>
<path d="M78.4316 485.423C74.7331 484.36 72.0378 483.057 70.3457 481.515C68.6686 479.957 67.8301 478.041 67.8301 475.765C67.8301 473.189 68.8558 471.063 70.9072 469.386C72.9736 467.694 75.654 466.848 78.9482 466.848C81.1943 466.848 83.1934 467.282 84.9453 468.15C86.7122 469.019 88.0749 470.217 89.0332 471.744C90.0065 473.271 90.4932 474.941 90.4932 476.753H86.1582C86.1582 474.776 85.5293 473.227 84.2715 472.104C83.0137 470.965 81.2393 470.396 78.9482 470.396C76.8219 470.396 75.1598 470.868 73.9619 471.812C72.779 472.74 72.1875 474.035 72.1875 475.697C72.1875 477.03 72.749 478.16 73.8721 479.089C75.0101 480.002 76.9342 480.841 79.6445 481.604C82.3698 482.368 84.4961 483.214 86.0234 484.143C87.5658 485.056 88.7038 486.127 89.4375 487.354C90.1862 488.582 90.5605 490.027 90.5605 491.689C90.5605 494.34 89.5273 496.466 87.4609 498.068C85.3945 499.656 82.6318 500.449 79.1729 500.449C76.9268 500.449 74.8304 500.022 72.8838 499.169C70.9372 498.3 69.4323 497.118 68.3691 495.62C67.321 494.123 66.7969 492.423 66.7969 490.521H71.1318C71.1318 492.498 71.8581 494.063 73.3105 495.216C74.778 496.354 76.7321 496.923 79.1729 496.923C81.4489 496.923 83.1934 496.459 84.4062 495.53C85.6191 494.602 86.2256 493.337 86.2256 491.734C86.2256 490.132 85.6641 488.897 84.541 488.028C83.418 487.145 81.3815 486.276 78.4316 485.423Z" fill="#333333"/>
<path d="M101.095 469.812V475.697H105.632V478.909H101.095V493.98C101.095 494.954 101.297 495.688 101.701 496.182C102.105 496.661 102.794 496.9 103.768 496.9C104.247 496.9 104.906 496.811 105.744 496.631V500C104.651 500.299 103.588 500.449 102.555 500.449C100.698 500.449 99.2979 499.888 98.3545 498.765C97.4111 497.642 96.9395 496.047 96.9395 493.98V478.909H92.5146V475.697H96.9395V469.812H101.095Z" fill="#333333"/>
<path d="M125.51 500C125.27 499.521 125.076 498.667 124.926 497.439C122.994 499.446 120.688 500.449 118.008 500.449C115.612 500.449 113.643 499.775 112.101 498.428C110.573 497.065 109.81 495.343 109.81 493.262C109.81 490.731 110.768 488.77 112.685 487.377C114.616 485.969 117.326 485.266 120.815 485.266H124.858V483.356C124.858 481.904 124.424 480.751 123.556 479.897C122.687 479.029 121.407 478.595 119.715 478.595C118.232 478.595 116.99 478.969 115.986 479.718C114.983 480.466 114.481 481.372 114.481 482.436H110.304C110.304 481.223 110.73 480.055 111.584 478.932C112.452 477.794 113.62 476.895 115.088 476.236C116.57 475.577 118.195 475.248 119.962 475.248C122.762 475.248 124.956 475.952 126.543 477.359C128.13 478.752 128.954 480.676 129.014 483.132V494.317C129.014 496.549 129.298 498.323 129.867 499.641V500H125.51ZM118.614 496.833C119.917 496.833 121.152 496.496 122.32 495.822C123.488 495.148 124.334 494.272 124.858 493.194V488.208H121.602C116.51 488.208 113.965 489.698 113.965 492.678C113.965 493.98 114.399 494.999 115.268 495.732C116.136 496.466 117.252 496.833 118.614 496.833Z" fill="#333333"/>
<path d="M141.165 469.812V475.697H145.702V478.909H141.165V493.98C141.165 494.954 141.367 495.688 141.771 496.182C142.176 496.661 142.865 496.9 143.838 496.9C144.317 496.9 144.976 496.811 145.814 496.631V500C144.721 500.299 143.658 500.449 142.625 500.449C140.768 500.449 139.368 499.888 138.425 498.765C137.481 497.642 137.01 496.047 137.01 493.98V478.909H132.585V475.697H137.01V469.812H141.165Z" fill="#333333"/>
<path d="M160.661 500.449C157.367 500.449 154.687 499.371 152.62 497.215C150.554 495.044 149.521 492.146 149.521 488.522V487.759C149.521 485.348 149.977 483.199 150.891 481.312C151.819 479.411 153.107 477.928 154.754 476.865C156.416 475.787 158.213 475.248 160.145 475.248C163.304 475.248 165.76 476.289 167.512 478.37C169.264 480.451 170.14 483.431 170.14 487.31V489.039H153.676C153.736 491.435 154.432 493.374 155.765 494.856C157.112 496.324 158.819 497.058 160.886 497.058C162.353 497.058 163.596 496.758 164.614 496.159C165.632 495.56 166.523 494.767 167.287 493.778L169.825 495.755C167.789 498.884 164.734 500.449 160.661 500.449ZM160.145 478.662C158.467 478.662 157.06 479.276 155.922 480.504C154.784 481.717 154.08 483.424 153.811 485.625H165.984V485.311C165.865 483.199 165.296 481.567 164.277 480.414C163.259 479.246 161.882 478.662 160.145 478.662Z" fill="#333333"/>
<path d="M174.834 497.821C174.834 497.103 175.044 496.504 175.463 496.024C175.897 495.545 176.541 495.306 177.395 495.306C178.248 495.306 178.892 495.545 179.326 496.024C179.775 496.504 180 497.103 180 497.821C180 498.51 179.775 499.087 179.326 499.551C178.892 500.015 178.248 500.247 177.395 500.247C176.541 500.247 175.897 500.015 175.463 499.551C175.044 499.087 174.834 498.51 174.834 497.821ZM174.856 477.988C174.856 477.27 175.066 476.671 175.485 476.191C175.92 475.712 176.563 475.473 177.417 475.473C178.271 475.473 178.914 475.712 179.349 476.191C179.798 476.671 180.022 477.27 180.022 477.988C180.022 478.677 179.798 479.254 179.349 479.718C178.914 480.182 178.271 480.414 177.417 480.414C176.563 480.414 175.92 480.182 175.485 479.718C175.066 479.254 174.856 478.677 174.856 477.988Z" fill="#333333"/>
<path d="M78.4316 613.423C74.7331 612.36 72.0378 611.057 70.3457 609.515C68.6686 607.957 67.8301 606.041 67.8301 603.765C67.8301 601.189 68.8558 599.063 70.9072 597.386C72.9736 595.694 75.654 594.848 78.9482 594.848C81.1943 594.848 83.1934 595.282 84.9453 596.15C86.7122 597.019 88.0749 598.217 89.0332 599.744C90.0065 601.271 90.4932 602.941 90.4932 604.753H86.1582C86.1582 602.776 85.5293 601.227 84.2715 600.104C83.0137 598.965 81.2393 598.396 78.9482 598.396C76.8219 598.396 75.1598 598.868 73.9619 599.812C72.779 600.74 72.1875 602.035 72.1875 603.697C72.1875 605.03 72.749 606.16 73.8721 607.089C75.0101 608.002 76.9342 608.841 79.6445 609.604C82.3698 610.368 84.4961 611.214 86.0234 612.143C87.5658 613.056 88.7038 614.127 89.4375 615.354C90.1862 616.582 90.5605 618.027 90.5605 619.689C90.5605 622.34 89.5273 624.466 87.4609 626.068C85.3945 627.656 82.6318 628.449 79.1729 628.449C76.9268 628.449 74.8304 628.022 72.8838 627.169C70.9372 626.3 69.4323 625.118 68.3691 623.62C67.321 622.123 66.7969 620.423 66.7969 618.521H71.1318C71.1318 620.498 71.8581 622.063 73.3105 623.216C74.778 624.354 76.7321 624.923 79.1729 624.923C81.4489 624.923 83.1934 624.459 84.4062 623.53C85.6191 622.602 86.2256 621.337 86.2256 619.734C86.2256 618.132 85.6641 616.897 84.541 616.028C83.418 615.145 81.3815 614.276 78.4316 613.423Z" fill="#333333"/>
<path d="M115.986 616.118C115.986 619.817 115.14 622.797 113.448 625.058C111.756 627.319 109.465 628.449 106.575 628.449C103.625 628.449 101.304 627.513 99.6123 625.642V637.344H95.457V603.697H99.2529L99.4551 606.393C101.147 604.296 103.498 603.248 106.508 603.248C109.428 603.248 111.734 604.349 113.426 606.55C115.133 608.751 115.986 611.813 115.986 615.736V616.118ZM111.831 615.646C111.831 612.906 111.247 610.743 110.079 609.155C108.911 607.568 107.309 606.774 105.272 606.774C102.757 606.774 100.87 607.89 99.6123 610.121V621.733C100.855 623.95 102.757 625.058 105.317 625.058C107.309 625.058 108.889 624.271 110.057 622.699C111.24 621.112 111.831 618.761 111.831 615.646Z" fill="#333333"/>
<path d="M136.291 628C136.051 627.521 135.857 626.667 135.707 625.439C133.775 627.446 131.469 628.449 128.789 628.449C126.393 628.449 124.424 627.775 122.882 626.428C121.354 625.065 120.591 623.343 120.591 621.262C120.591 618.731 121.549 616.77 123.466 615.377C125.397 613.969 128.108 613.266 131.597 613.266H135.64V611.356C135.64 609.904 135.205 608.751 134.337 607.897C133.468 607.029 132.188 606.595 130.496 606.595C129.014 606.595 127.771 606.969 126.768 607.718C125.764 608.466 125.263 609.372 125.263 610.436H121.085C121.085 609.223 121.512 608.055 122.365 606.932C123.234 605.794 124.402 604.895 125.869 604.236C127.352 603.577 128.976 603.248 130.743 603.248C133.543 603.248 135.737 603.952 137.324 605.359C138.911 606.752 139.735 608.676 139.795 611.132V622.317C139.795 624.549 140.079 626.323 140.648 627.641V628H136.291ZM129.396 624.833C130.698 624.833 131.934 624.496 133.102 623.822C134.27 623.148 135.116 622.272 135.64 621.194V616.208H132.383C127.292 616.208 124.746 617.698 124.746 620.678C124.746 621.98 125.18 622.999 126.049 623.732C126.917 624.466 128.033 624.833 129.396 624.833Z" fill="#333333"/>
<path d="M156.057 625.058C157.539 625.058 158.834 624.608 159.942 623.71C161.05 622.812 161.664 621.688 161.784 620.341H165.715C165.64 621.733 165.161 623.059 164.277 624.316C163.394 625.574 162.211 626.577 160.729 627.326C159.261 628.075 157.704 628.449 156.057 628.449C152.747 628.449 150.112 627.349 148.15 625.147C146.204 622.931 145.23 619.907 145.23 616.073V615.377C145.23 613.011 145.665 610.907 146.533 609.065C147.402 607.224 148.645 605.794 150.262 604.775C151.894 603.757 153.818 603.248 156.034 603.248C158.759 603.248 161.021 604.064 162.817 605.696C164.629 607.328 165.595 609.447 165.715 612.053H161.784C161.664 610.48 161.065 609.193 159.987 608.189C158.924 607.171 157.606 606.662 156.034 606.662C153.923 606.662 152.283 607.426 151.115 608.953C149.962 610.465 149.386 612.659 149.386 615.534V616.32C149.386 619.12 149.962 621.277 151.115 622.789C152.268 624.301 153.915 625.058 156.057 625.058Z" fill="#333333"/>
<path d="M174.901 628H170.746V603.697H174.901V628ZM170.409 597.251C170.409 596.577 170.611 596.008 171.016 595.544C171.435 595.08 172.049 594.848 172.857 594.848C173.666 594.848 174.28 595.08 174.699 595.544C175.118 596.008 175.328 596.577 175.328 597.251C175.328 597.925 175.118 598.486 174.699 598.936C174.28 599.385 173.666 599.609 172.857 599.609C172.049 599.609 171.435 599.385 171.016 598.936C170.611 598.486 170.409 597.925 170.409 597.251Z" fill="#333333"/>
<path d="M185.503 603.697L185.638 606.752C187.494 604.416 189.92 603.248 192.915 603.248C198.051 603.248 200.642 606.146 200.687 611.94V628H196.531V611.918C196.516 610.166 196.112 608.871 195.318 608.032C194.54 607.194 193.319 606.774 191.657 606.774C190.31 606.774 189.127 607.134 188.108 607.853C187.09 608.571 186.297 609.515 185.728 610.683V628H181.572V603.697H185.503Z" fill="#333333"/>
<path d="M205.965 615.646C205.965 611.858 206.841 608.848 208.593 606.617C210.345 604.371 212.666 603.248 215.556 603.248C218.521 603.248 220.834 604.296 222.496 606.393L222.698 603.697H226.494V627.416C226.494 630.561 225.558 633.039 223.687 634.851C221.83 636.662 219.329 637.568 216.185 637.568C214.433 637.568 212.718 637.194 211.041 636.445C209.364 635.697 208.084 634.671 207.2 633.368L209.356 630.875C211.138 633.076 213.317 634.177 215.893 634.177C217.914 634.177 219.486 633.608 220.609 632.47C221.747 631.332 222.316 629.729 222.316 627.663V625.574C220.654 627.491 218.386 628.449 215.511 628.449C212.666 628.449 210.36 627.304 208.593 625.013C206.841 622.722 205.965 619.6 205.965 615.646ZM210.143 616.118C210.143 618.858 210.704 621.015 211.827 622.587C212.95 624.144 214.522 624.923 216.544 624.923C219.164 624.923 221.089 623.732 222.316 621.352V610.256C221.044 607.935 219.134 606.774 216.589 606.774C214.567 606.774 212.988 607.561 211.85 609.133C210.712 610.705 210.143 613.034 210.143 616.118Z" fill="#333333"/>
<path d="M232.648 625.821C232.648 625.103 232.858 624.504 233.277 624.024C233.712 623.545 234.355 623.306 235.209 623.306C236.062 623.306 236.706 623.545 237.141 624.024C237.59 624.504 237.814 625.103 237.814 625.821C237.814 626.51 237.59 627.087 237.141 627.551C236.706 628.015 236.062 628.247 235.209 628.247C234.355 628.247 233.712 628.015 233.277 627.551C232.858 627.087 232.648 626.51 232.648 625.821ZM232.671 605.988C232.671 605.27 232.881 604.671 233.3 604.191C233.734 603.712 234.378 603.473 235.231 603.473C236.085 603.473 236.729 603.712 237.163 604.191C237.612 604.671 237.837 605.27 237.837 605.988C237.837 606.677 237.612 607.254 237.163 607.718C236.729 608.182 236.085 608.414 235.231 608.414C234.378 608.414 233.734 608.182 233.3 607.718C232.881 607.254 232.671 606.677 232.671 605.988Z" fill="#333333"/>
<circle cx="840" cy="100" r="7" fill="#333333"/>
<circle cx="864" cy="100" r="7" fill="#333333"/>
<circle cx="888" cy="100" r="7" fill="#333333"/>
<rect x="726" y="86.728" width="14.6568" height="14.6568" transform="rotate(-45 726 86.728)" fill="#333333"/>
<rect x="726" y="112.364" width="14.6568" height="14.6568" transform="rotate(-45 726 112.364)" fill="#333333"/>
<rect x="739" y="99.364" width="14.6568" height="14.6568" transform="rotate(-45 739 99.364)" fill="#333333"/>
<rect x="713" y="99.364" width="14.6568" height="14.6568" transform="rotate(-45 713 99.364)" fill="#333333"/>
<rect x="69.2426" y="100.184" width="31.6066" height="31.6066" transform="rotate(-45 69.2426 100.184)" stroke="#333333" stroke-width="6"/>
<path d="M432.071 95L445.536 108L459 95" stroke="#B6B6B6" stroke-width="5" stroke-linecap="round" stroke-linejoin="round"/>
<path d="M601 225L612 236L623 225" stroke="#B6B6B6" stroke-width="5" stroke-linecap="round" stroke-linejoin="round"/>
<path d="M529 353L540 364L551 353" stroke="#B6B6B6" stroke-width="5" stroke-linecap="round" stroke-linejoin="round"/>
<path d="M585 481L596 492L607 481" stroke="#B6B6B6" stroke-width="5" stroke-linecap="round" stroke-linejoin="round"/>
<path d="M550 609L561 620L572 609" stroke="#B6B6B6" stroke-width="5" stroke-linecap="round" stroke-linejoin="round"/>
</svg>
