<svg width="1390" height="270" viewBox="0 0 1390 270" fill="none" xmlns="http://www.w3.org/2000/svg">
<g clip-path="url(#clip0_25_47)">
<g filter="url(#filter0_d_25_47)">
<rect x="20" y="108" width="264" height="54" rx="12" fill="#ECECEC"/>
<path d="M50 136C50.4295 136.574 50.9774 137.049 51.6066 137.393C52.2357 137.737 52.9315 137.941 53.6467 137.992C54.3618 138.044 55.0796 137.94 55.7513 137.69C56.4231 137.439 57.0331 137.047 57.54 136.54L60.54 133.54C61.4508 132.597 61.9548 131.334 61.9434 130.023C61.932 128.712 61.4061 127.458 60.4791 126.531C59.5521 125.604 58.298 125.078 56.987 125.067C55.676 125.055 54.413 125.559 53.47 126.47L51.75 128.18" stroke="#222222" stroke-width="2" stroke-linecap="round" stroke-linejoin="round"/>
<path d="M54.0002 134C53.5707 133.426 53.0228 132.951 52.3936 132.607C51.7645 132.263 51.0687 132.059 50.3535 132.008C49.6384 131.956 48.9206 132.06 48.2489 132.31C47.5771 132.561 46.9671 132.953 46.4602 133.46L43.4602 136.46C42.5494 137.403 42.0454 138.666 42.0568 139.977C42.0682 141.288 42.5941 142.542 43.5211 143.469C44.4481 144.396 45.7022 144.922 47.0132 144.933C48.3242 144.945 49.5872 144.441 50.5302 143.53L52.2402 141.82" stroke="#222222" stroke-width="2" stroke-linecap="round" stroke-linejoin="round"/>
<path d="M77.9766 128.337V143H82.8965C87.6875 143 89.374 139.885 89.374 135.652C89.374 131.355 87.623 128.337 82.8965 128.337H77.9766ZM80.1895 130.346H82.6924C85.9258 130.346 87.0967 132.505 87.0967 135.685C87.0967 139.315 85.668 140.98 82.6924 140.98H80.1895V130.346Z" fill="#222222"/>
<path d="M96.5395 143.193C99.4936 143.193 100.869 141.313 101.03 140.014H98.8598C98.6772 140.712 97.8071 141.303 96.518 141.303C94.7455 141.303 93.7573 140.078 93.7573 138.435V137.887H101.169V136.544C101.169 133.429 99.1821 131.463 96.3891 131.463C93.6498 131.463 91.6088 133.343 91.6088 136.544V138.102C91.6088 141.292 93.4672 143.193 96.5395 143.193ZM93.7573 136.351V136.189C93.7573 134.46 94.81 133.3 96.3998 133.3C97.9897 133.3 99.0317 134.46 99.0317 136.189V136.351H93.7573Z" fill="#222222"/>
<path d="M103.34 134.943C103.34 137.178 105.037 137.747 107.121 138.166C108.679 138.467 109.957 138.66 109.957 139.853C109.957 140.755 109.259 141.475 107.572 141.475C106.058 141.475 105.381 140.884 105.241 139.96H103.125C103.125 141.979 104.854 143.193 107.465 143.193C110.258 143.193 112.073 141.872 112.073 139.584C112.073 137.436 110.376 136.77 108.27 136.404C107.003 136.179 105.424 136.018 105.424 134.739C105.424 133.751 106.315 133.16 107.583 133.16C109.022 133.16 109.721 133.955 109.796 134.707H111.772C111.772 132.709 110.107 131.463 107.647 131.463C105.391 131.463 103.34 132.494 103.34 134.943Z" fill="#222222"/>
<path d="M114.963 143H117.133V131.656H114.963V143ZM114.566 128.229C114.566 129.057 115.189 129.658 116.037 129.658C116.929 129.658 117.541 129.057 117.541 128.229C117.541 127.392 116.929 126.79 116.037 126.79C115.178 126.79 114.566 127.392 114.566 128.229Z" fill="#222222"/>
<path d="M124.868 145.396C123.45 145.396 122.569 144.815 122.408 144.042H120.238C120.378 145.75 121.753 147.232 124.782 147.232C127.693 147.232 129.874 145.965 129.874 142.785V131.656H127.779V133.375H127.682C127.306 132.419 126.093 131.495 124.406 131.495C121.903 131.495 119.991 133.3 119.991 136.383V137.919C119.991 141.002 121.914 142.796 124.417 142.796C125.996 142.796 127.156 142.001 127.596 141.013H127.715V142.699C127.715 144.386 126.769 145.396 124.868 145.396ZM125.029 133.407C126.705 133.407 127.715 134.804 127.715 136.437V137.973C127.715 139.573 126.759 140.948 125.051 140.948C123.375 140.948 122.182 139.659 122.182 137.683V136.694C122.182 134.707 123.278 133.407 125.029 133.407Z" fill="#222222"/>
<path d="M133.14 143H135.31V136.673C135.31 134.814 136.255 133.439 138.135 133.439C139.564 133.439 140.466 134.245 140.466 135.985V143H142.647V135.319C142.647 132.741 141.1 131.484 138.812 131.484C136.481 131.484 135.686 132.806 135.396 133.687H135.288V131.656H133.14V143Z" fill="#222222"/>
<path d="M149.458 138.939C149.512 140.916 150.865 143.301 154.872 143.301C158.084 143.301 160.447 141.689 160.447 138.8C160.447 136.318 158.825 135.276 156.602 134.739L154.142 134.138C152.767 133.815 152.101 133.128 152.101 132.161C152.101 130.775 153.315 129.98 155.044 129.98C157.01 129.98 158.009 131.022 158.127 132.279H160.275C160.222 129.529 157.794 128.015 155.076 128.015C152.326 128.015 149.866 129.54 149.866 132.344C149.866 134.718 151.564 135.835 153.39 136.286L155.871 136.888C157.461 137.274 158.224 137.887 158.224 139.015C158.224 140.422 157.021 141.313 155.066 141.313C152.917 141.313 151.768 140.229 151.639 138.939H149.458Z" fill="#222222"/>
<path d="M172.372 131.656H170.073L167.215 140.862H167.119L164.272 131.656H161.876L165.969 143.097L165.819 143.602C165.54 144.665 165.013 145.277 163.649 145.277C163.37 145.277 162.961 145.256 162.779 145.213V146.985C163.069 147.039 163.584 147.093 164.068 147.093C166.603 147.093 167.484 145.514 168.15 143.655L168.44 142.871C168.461 142.807 172.372 131.656 172.372 131.656Z" fill="#222222"/>
<path d="M174.037 134.943C174.037 137.178 175.734 137.747 177.818 138.166C179.376 138.467 180.654 138.66 180.654 139.853C180.654 140.755 179.956 141.475 178.269 141.475C176.755 141.475 176.078 140.884 175.938 139.96H173.822C173.822 141.979 175.552 143.193 178.162 143.193C180.955 143.193 182.77 141.872 182.77 139.584C182.77 137.436 181.073 136.77 178.968 136.404C177.7 136.179 176.121 136.018 176.121 134.739C176.121 133.751 177.013 133.16 178.28 133.16C179.72 133.16 180.418 133.955 180.493 134.707H182.47C182.47 132.709 180.805 131.463 178.345 131.463C176.089 131.463 174.037 132.494 174.037 134.943Z" fill="#222222"/>
<path d="M186.058 131.721H184.307V133.579H186.037V139.81C186.037 142.087 186.703 143.086 189.431 143.086C189.914 143.086 190.709 143.021 190.881 142.979V141.185C190.699 141.206 190.269 141.228 189.968 141.228C188.647 141.228 188.196 140.884 188.196 139.638V133.579H190.742V131.721H188.196V128.885H186.058V131.721Z" fill="#222222"/>
<path d="M197.671 143.193C200.625 143.193 202 141.313 202.161 140.014H199.991C199.808 140.712 198.938 141.303 197.649 141.303C195.877 141.303 194.889 140.078 194.889 138.435V137.887H202.301V136.544C202.301 133.429 200.313 131.463 197.52 131.463C194.781 131.463 192.74 133.343 192.74 136.544V138.102C192.74 141.292 194.598 143.193 197.671 143.193ZM194.889 136.351V136.189C194.889 134.46 195.941 133.3 197.531 133.3C199.121 133.3 200.163 134.46 200.163 136.189V136.351H194.889Z" fill="#222222"/>
<path d="M204.976 143H207.146V135.899C207.146 134.374 208.134 133.418 209.488 133.418C210.873 133.418 211.776 134.299 211.776 135.771V143H213.903V135.921C213.903 134.406 214.934 133.418 216.277 133.418C217.716 133.418 218.522 134.267 218.522 135.706V143H220.692V135.051C220.692 132.795 219.295 131.484 216.986 131.484C215.063 131.484 213.978 132.526 213.537 133.611H213.441C213.086 132.397 212.023 131.484 210.304 131.484C208.231 131.484 207.49 132.677 207.232 133.493H207.124V131.656H204.976V143Z" fill="#222222"/>
<path d="M245.25 142.5L252.75 135L245.25 127.5" stroke="#222222" stroke-width="2" stroke-linecap="round" stroke-linejoin="round"/>
<rect x="20.5" y="108.5" width="263" height="53" rx="11.5" stroke="#C2C2C2"/>
</g>
<g filter="url(#filter1_d_25_47)">
<rect x="278" y="108" width="234" height="54" rx="12" fill="#ECECEC"/>
<path d="M319 139V131C319 130.649 318.907 130.305 318.732 130.001C318.556 129.698 318.304 129.445 318 129.27L311 125.27C310.696 125.094 310.351 125.002 310 125.002C309.649 125.002 309.304 125.094 309 125.27L302 129.27C301.696 129.445 301.444 129.698 301.268 130.001C301.093 130.305 301 130.649 301 131V139C301 139.351 301.093 139.695 301.268 139.999C301.444 140.303 301.696 140.555 302 140.73L309 144.73C309.304 144.906 309.649 144.998 310 144.998C310.351 144.998 310.696 144.906 311 144.73L318 140.73C318.304 140.555 318.556 140.303 318.732 139.999C318.907 139.695 319 139.351 319 139Z" stroke="#222222" stroke-width="2" stroke-linecap="round" stroke-linejoin="round"/>
<path d="M337.62 134.729C337.62 131.667 339.103 130.099 341.283 130.099C343.464 130.099 344.635 131.678 344.635 133.246H346.794V133.085C346.794 130.518 344.871 128.047 341.272 128.047C337.685 128.047 335.396 130.507 335.396 134.707V136.694C335.396 140.959 337.642 143.301 341.251 143.301C345 143.301 346.794 140.776 346.794 138.456V138.295H344.635C344.635 139.874 343.507 141.228 341.326 141.228C339.092 141.228 337.62 139.788 337.62 136.684V134.729Z" fill="#222222"/>
<path d="M353.938 131.463C351.038 131.463 348.964 133.472 348.964 136.565V138.059C348.964 141.356 351.005 143.193 353.938 143.193C356.828 143.193 358.901 141.335 358.901 138.059V136.565C358.901 133.375 356.828 131.463 353.938 131.463ZM353.938 133.343C355.689 133.343 356.709 134.761 356.709 136.684V137.962C356.709 139.896 355.743 141.292 353.938 141.292C352.112 141.292 351.134 139.896 351.134 137.962V136.684C351.134 134.761 352.187 133.343 353.938 133.343Z" fill="#222222"/>
<path d="M361.63 143H363.8V135.899C363.8 134.374 364.788 133.418 366.141 133.418C367.527 133.418 368.43 134.299 368.43 135.771V143H370.557V135.921C370.557 134.406 371.588 133.418 372.931 133.418C374.37 133.418 375.176 134.267 375.176 135.706V143H377.346V135.051C377.346 132.795 375.949 131.484 373.64 131.484C371.717 131.484 370.632 132.526 370.191 133.611H370.095C369.74 132.397 368.677 131.484 366.958 131.484C364.885 131.484 364.143 132.677 363.886 133.493H363.778V131.656H361.63V143Z" fill="#222222"/>
<path d="M386.101 143.161C388.733 143.161 390.462 141.356 390.462 138.209V136.437C390.462 133.311 388.754 131.495 386.165 131.495C384.318 131.495 383.19 132.397 382.792 133.45H382.685V131.646H380.579V146.867H382.749V141.292H382.857C383.286 142.291 384.264 143.161 386.101 143.161ZM385.564 141.238C383.877 141.238 382.749 140.035 382.749 138.295V136.544C382.749 134.589 383.791 133.407 385.521 133.407C387.218 133.407 388.271 134.557 388.271 136.78V137.887C388.271 140.164 387.154 141.238 385.564 141.238Z" fill="#222222"/>
<path d="M397.649 131.463C394.749 131.463 392.676 133.472 392.676 136.565V138.059C392.676 141.356 394.717 143.193 397.649 143.193C400.539 143.193 402.612 141.335 402.612 138.059V136.565C402.612 133.375 400.539 131.463 397.649 131.463ZM397.649 133.343C399.4 133.343 400.421 134.761 400.421 136.684V137.962C400.421 139.896 399.454 141.292 397.649 141.292C395.823 141.292 394.845 139.896 394.845 137.962V136.684C394.845 134.761 395.898 133.343 397.649 133.343Z" fill="#222222"/>
<path d="M405.341 143H407.511V136.673C407.511 134.814 408.456 133.439 410.336 133.439C411.765 133.439 412.667 134.245 412.667 135.985V143H414.848V135.319C414.848 132.741 413.301 131.484 411.013 131.484C408.682 131.484 407.887 132.806 407.597 133.687H407.489V131.656H405.341V143Z" fill="#222222"/>
<path d="M422.443 143.193C425.397 143.193 426.772 141.313 426.933 140.014H424.763C424.581 140.712 423.711 141.303 422.422 141.303C420.649 141.303 419.661 140.078 419.661 138.435V137.887H427.073V136.544C427.073 133.429 425.086 131.463 422.293 131.463C419.553 131.463 417.512 133.343 417.512 136.544V138.102C417.512 141.292 419.371 143.193 422.443 143.193ZM419.661 136.351V136.189C419.661 134.46 420.714 133.3 422.303 133.3C423.893 133.3 424.935 134.46 424.935 136.189V136.351H419.661Z" fill="#222222"/>
<path d="M429.748 143H431.918V136.673C431.918 134.814 432.863 133.439 434.743 133.439C436.172 133.439 437.074 134.245 437.074 135.985V143H439.255V135.319C439.255 132.741 437.708 131.484 435.42 131.484C433.089 131.484 432.294 132.806 432.004 133.687H431.897V131.656H429.748V143Z" fill="#222222"/>
<path d="M443.112 131.721H441.361V133.579H443.09V139.81C443.09 142.087 443.756 143.086 446.485 143.086C446.968 143.086 447.763 143.021 447.935 142.979V141.185C447.752 141.206 447.323 141.228 447.022 141.228C445.701 141.228 445.25 140.884 445.25 139.638V133.579H447.795V131.721H445.25V128.885H443.112V131.721Z" fill="#222222"/>
<path d="M473.25 142.5L480.75 135L473.25 127.5" stroke="#222222" stroke-width="2" stroke-linecap="round" stroke-linejoin="round"/>
<rect x="278.5" y="108.5" width="233" height="53" rx="11.5" stroke="#C2C2C2"/>
</g>
<g filter="url(#filter2_d_25_47)">
<rect x="506" y="108" width="190" height="54" rx="12" fill="#ECECEC"/>
<g clip-path="url(#clip1_25_47)">
<path d="M542 126L534 126C533.649 126 533.305 126.093 533.001 126.268C532.697 126.444 532.445 126.696 532.27 127L528.27 134C528.094 134.304 528.002 134.649 528.002 135C528.002 135.351 528.094 135.696 528.27 136L532.27 143C532.445 143.304 532.697 143.556 533.001 143.732C533.305 143.907 533.649 144 534 144L542 144C542.351 144 542.695 143.907 542.999 143.732C543.302 143.556 543.555 143.304 543.73 143L547.73 136C547.905 135.696 547.998 135.351 547.998 135C547.998 134.649 547.905 134.304 547.73 134L543.73 127C543.555 126.696 543.302 126.444 542.999 126.268C542.695 126.093 542.351 126 542 126Z" stroke="#222222" stroke-width="2" stroke-linecap="round" stroke-linejoin="round"/>
</g>
<path d="M570.024 143L575.181 128.337H572.688L568.907 140.314H568.789L564.976 128.337H562.44L567.586 143H570.024Z" fill="#222222"/>
<path d="M579.467 143.183C581.143 143.183 582.142 142.398 582.668 141.528H582.765V143H584.838V135.309C584.838 132.483 582.873 131.484 580.488 131.484C577.813 131.484 576.341 132.741 576.191 134.632H578.264C578.468 133.88 579.059 133.364 580.423 133.364C581.798 133.364 582.668 133.955 582.668 135.276V136.351H579.757C577.147 136.351 575.761 137.704 575.761 139.702C575.761 141.818 577.276 143.183 579.467 143.183ZM580.112 141.378C578.984 141.378 577.953 140.787 577.953 139.584C577.953 138.639 578.576 137.93 580.026 137.93H582.668V139.176C582.668 140.433 581.551 141.378 580.112 141.378Z" fill="#222222"/>
<path d="M588.201 143H590.403V136.211C590.403 134.686 591.359 133.536 593.304 133.536C593.68 133.536 594.077 133.558 594.27 133.611V131.549C594.056 131.517 593.798 131.484 593.518 131.484C591.574 131.484 590.747 132.655 590.478 133.418H590.371V131.656H588.201V143Z" fill="#222222"/>
<path d="M596.602 143H598.772V131.656H596.602V143ZM596.204 128.229C596.204 129.057 596.827 129.658 597.676 129.658C598.568 129.658 599.18 129.057 599.18 128.229C599.18 127.392 598.568 126.79 597.676 126.79C596.817 126.79 596.204 127.392 596.204 128.229Z" fill="#222222"/>
<path d="M605.368 143.183C607.044 143.183 608.043 142.398 608.569 141.528H608.666V143H610.739V135.309C610.739 132.483 608.773 131.484 606.388 131.484C603.714 131.484 602.242 132.741 602.092 134.632H604.165C604.369 133.88 604.96 133.364 606.324 133.364C607.699 133.364 608.569 133.955 608.569 135.276V136.351H605.658C603.048 136.351 601.662 137.704 601.662 139.702C601.662 141.818 603.177 143.183 605.368 143.183ZM606.012 141.378C604.885 141.378 603.853 140.787 603.853 139.584C603.853 138.639 604.476 137.93 605.927 137.93H608.569V139.176C608.569 140.433 607.452 141.378 606.012 141.378Z" fill="#222222"/>
<path d="M613.941 143H616.111V136.673C616.111 134.814 617.056 133.439 618.936 133.439C620.364 133.439 621.267 134.245 621.267 135.985V143H623.447V135.319C623.447 132.741 621.901 131.484 619.612 131.484C617.281 131.484 616.487 132.806 616.196 133.687H616.089V131.656H613.941V143Z" fill="#222222"/>
<path d="M627.304 131.721H625.553V133.579H627.283V139.81C627.283 142.087 627.949 143.086 630.677 143.086C631.161 143.086 631.956 143.021 632.128 142.979V141.185C631.945 141.206 631.515 141.228 631.214 141.228C629.893 141.228 629.442 140.884 629.442 139.638V133.579H631.988V131.721H629.442V128.885H627.304V131.721Z" fill="#222222"/>
<path d="M657.25 142.5L664.75 135L657.25 127.5" stroke="#222222" stroke-width="2" stroke-linecap="round" stroke-linejoin="round"/>
<rect x="506.5" y="108.5" width="189" height="53" rx="11.5" stroke="#C2C2C2"/>
</g>
<g filter="url(#filter3_d_25_47)">
<rect x="690" y="108" width="281" height="54" rx="12" fill="#ECECEC"/>
<g clip-path="url(#clip2_25_47)">
<g clip-path="url(#clip3_25_47)">
<path d="M726 126L718 126C717.649 126 717.305 126.093 717.001 126.268C716.697 126.444 716.445 126.696 716.27 127L712.27 134C712.094 134.304 712.002 134.649 712.002 135C712.002 135.351 712.094 135.696 712.27 136L716.27 143C716.445 143.304 716.697 143.556 717.001 143.732C717.305 143.907 717.649 144 718 144L726 144C726.351 144 726.695 143.907 726.999 143.732C727.302 143.556 727.555 143.304 727.73 143L731.73 136C731.905 135.696 731.998 135.351 731.998 135C731.998 134.649 731.905 134.304 731.73 134L727.73 127C727.555 126.696 727.302 126.444 726.999 126.268C726.695 126.093 726.351 126 726 126Z" stroke="white" stroke-width="2" stroke-linecap="round" stroke-linejoin="round"/>
</g>
</g>
<path d="M756.774 140.927H750.189V128.337H747.977V143H756.774V140.927Z" fill="#222222"/>
<path d="M759.246 143H761.415V131.656H759.246V143ZM758.848 128.229C758.848 129.057 759.471 129.658 760.32 129.658C761.211 129.658 761.824 129.057 761.824 128.229C761.824 127.392 761.211 126.79 760.32 126.79C759.46 126.79 758.848 127.392 758.848 128.229Z" fill="#222222"/>
<path d="M769.15 145.396C767.732 145.396 766.851 144.815 766.69 144.042H764.52C764.66 145.75 766.035 147.232 769.064 147.232C771.975 147.232 774.156 145.965 774.156 142.785V131.656H772.061V133.375H771.965C771.589 132.419 770.375 131.495 768.688 131.495C766.185 131.495 764.273 133.3 764.273 136.383V137.919C764.273 141.002 766.196 142.796 768.699 142.796C770.278 142.796 771.438 142.001 771.879 141.013H771.997V142.699C771.997 144.386 771.052 145.396 769.15 145.396ZM769.311 133.407C770.987 133.407 771.997 134.804 771.997 136.437V137.973C771.997 139.573 771.041 140.948 769.333 140.948C767.657 140.948 766.465 139.659 766.465 137.683V136.694C766.465 134.707 767.56 133.407 769.311 133.407Z" fill="#222222"/>
<path d="M777.573 143H779.732V136.673C779.732 134.814 780.731 133.439 782.546 133.439C783.975 133.439 784.942 134.267 784.942 136.007V143H787.112V135.341C787.112 132.752 785.511 131.484 783.32 131.484C780.999 131.484 780.076 132.892 779.85 133.687H779.732V127.563H777.573V143Z" fill="#222222"/>
<path d="M790.979 131.721H789.228V133.579H790.958V139.81C790.958 142.087 791.624 143.086 794.352 143.086C794.836 143.086 795.631 143.021 795.803 142.979V141.185C795.62 141.206 795.19 141.228 794.889 141.228C793.568 141.228 793.117 140.884 793.117 139.638V133.579H795.663V131.721H793.117V128.885H790.979V131.721Z" fill="#222222"/>
<path d="M798.768 146.212L804.031 127.563H802.098L796.845 146.212H798.768Z" fill="#222222"/>
<path d="M805.965 128.337V143H810.885C815.676 143 817.363 139.885 817.363 135.652C817.363 131.355 815.612 128.337 810.885 128.337H805.965ZM808.178 130.346H810.681C813.915 130.346 815.086 132.505 815.086 135.685C815.086 139.315 813.657 140.98 810.681 140.98H808.178V130.346Z" fill="#222222"/>
<path d="M823.046 143.183C824.722 143.183 825.721 142.398 826.247 141.528H826.344V143H828.417V135.309C828.417 132.483 826.451 131.484 824.066 131.484C821.392 131.484 819.92 132.741 819.77 134.632H821.843C822.047 133.88 822.638 133.364 824.002 133.364C825.377 133.364 826.247 133.955 826.247 135.276V136.351H823.336C820.726 136.351 819.34 137.704 819.34 139.702C819.34 141.818 820.855 143.183 823.046 143.183ZM823.691 141.378C822.563 141.378 821.531 140.787 821.531 139.584C821.531 138.639 822.154 137.93 823.605 137.93H826.247V139.176C826.247 140.433 825.13 141.378 823.691 141.378Z" fill="#222222"/>
<path d="M831.78 143H833.982V136.211C833.982 134.686 834.938 133.536 836.882 133.536C837.258 133.536 837.656 133.558 837.849 133.611V131.549C837.634 131.517 837.376 131.484 837.097 131.484C835.153 131.484 834.326 132.655 834.057 133.418H833.95V131.656H831.78V143Z" fill="#222222"/>
<path d="M842.125 138.929L843.092 137.951L846.787 143H849.354L844.714 136.565L849.064 131.656H846.572L842.211 136.598H842.125V127.563H839.955V143H842.125V138.929Z" fill="#222222"/>
<path d="M857.928 143V132.73H858.035L861.945 141.475H863.632L867.52 132.73H867.639V143H869.647V128.337H867.445L862.837 138.832H862.751L858.132 128.337H855.93V143H857.928Z" fill="#222222"/>
<path d="M877.522 131.463C874.621 131.463 872.548 133.472 872.548 136.565V138.059C872.548 141.356 874.589 143.193 877.522 143.193C880.411 143.193 882.485 141.335 882.485 138.059V136.565C882.485 133.375 880.411 131.463 877.522 131.463ZM877.522 133.343C879.273 133.343 880.293 134.761 880.293 136.684V137.962C880.293 139.896 879.326 141.292 877.522 141.292C875.696 141.292 874.718 139.896 874.718 137.962V136.684C874.718 134.761 875.771 133.343 877.522 133.343Z" fill="#222222"/>
<path d="M889.049 131.484C886.384 131.484 884.687 133.375 884.687 136.329V138.316C884.687 141.324 886.406 143.15 889.006 143.15C890.918 143.15 892.099 142.173 892.389 141.195H892.497V143H894.592V127.563H892.422V133.343H892.314C891.938 132.365 890.875 131.484 889.049 131.484ZM889.575 133.418C891.24 133.418 892.422 134.61 892.422 136.361V138.112C892.422 140.057 891.315 141.238 889.629 141.238C887.953 141.238 886.879 140.078 886.879 137.962V136.684C886.879 134.6 887.921 133.418 889.575 133.418Z" fill="#222222"/>
<path d="M902.294 143.193C905.248 143.193 906.623 141.313 906.784 140.014H904.614C904.432 140.712 903.562 141.303 902.273 141.303C900.5 141.303 899.512 140.078 899.512 138.435V137.887H906.924V136.544C906.924 133.429 904.937 131.463 902.144 131.463C899.404 131.463 897.363 133.343 897.363 136.544V138.102C897.363 141.292 899.222 143.193 902.294 143.193ZM899.512 136.351V136.189C899.512 134.46 900.565 133.3 902.154 133.3C903.744 133.3 904.786 134.46 904.786 136.189V136.351H899.512Z" fill="#222222"/>
<path d="M932.25 142.5L939.75 135L932.25 127.5" stroke="#222222" stroke-width="2" stroke-linecap="round" stroke-linejoin="round"/>
<rect x="690.5" y="108.5" width="280" height="53" rx="11.5" stroke="#C2C2C2"/>
</g>
<g filter="url(#filter4_d_25_47)">
<rect x="965" y="108" width="171" height="54" rx="12" fill="#ECECEC"/>
<g clip-path="url(#clip4_25_47)">
<g clip-path="url(#clip5_25_47)">
<path d="M1002 126H992.5L987 135.5L992 144H1002L1007 135L1002 126Z" fill="#FAAFE1"/>
<path d="M1001 126L993 126C992.649 126 992.305 126.093 992.001 126.268C991.697 126.444 991.445 126.696 991.27 127L987.27 134C987.094 134.304 987.002 134.649 987.002 135C987.002 135.351 987.094 135.696 987.27 136L991.27 143C991.445 143.304 991.697 143.556 992.001 143.732C992.305 143.907 992.649 144 993 144L1001 144C1001.35 144 1001.7 143.907 1002 143.732C1002.3 143.556 1002.55 143.304 1002.73 143L1006.73 136C1006.91 135.696 1007 135.351 1007 135C1007 134.649 1006.91 134.304 1006.73 134L1002.73 127C1002.55 126.696 1002.3 126.444 1002 126.268C1001.7 126.093 1001.35 126 1001 126Z" stroke="#FAAFE1" stroke-width="2" stroke-linecap="round" stroke-linejoin="round"/>
</g>
</g>
<path d="M1021.93 138.939C1021.99 140.916 1023.34 143.301 1027.35 143.301C1030.56 143.301 1032.92 141.689 1032.92 138.8C1032.92 136.318 1031.3 135.276 1029.08 134.739L1026.62 134.138C1025.24 133.815 1024.58 133.128 1024.58 132.161C1024.58 130.775 1025.79 129.98 1027.52 129.98C1029.49 129.98 1030.49 131.022 1030.6 132.279H1032.75C1032.7 129.529 1030.27 128.015 1027.55 128.015C1024.8 128.015 1022.34 129.54 1022.34 132.344C1022.34 134.718 1024.04 135.835 1025.87 136.286L1028.35 136.888C1029.94 137.274 1030.7 137.887 1030.7 139.015C1030.7 140.422 1029.5 141.313 1027.54 141.313C1025.39 141.313 1024.24 140.229 1024.12 138.939H1021.93ZM1036.45 131.721H1034.7V133.579H1036.43V139.81C1036.43 142.087 1037.09 143.086 1039.82 143.086C1040.3 143.086 1041.1 143.021 1041.27 142.979V141.185C1041.09 141.206 1040.66 141.228 1040.36 141.228C1039.04 141.228 1038.59 140.884 1038.59 139.638V133.579H1041.13V131.721H1038.59V128.885H1036.45V131.721ZM1046.84 143.183C1048.51 143.183 1049.51 142.398 1050.04 141.528H1050.13V143H1052.21V135.309C1052.21 132.483 1050.24 131.484 1047.86 131.484C1045.18 131.484 1043.71 132.741 1043.56 134.632H1045.63C1045.84 133.88 1046.43 133.364 1047.79 133.364C1049.17 133.364 1050.04 133.955 1050.04 135.276V136.351H1047.13C1044.52 136.351 1043.13 137.704 1043.13 139.702C1043.13 141.818 1044.64 143.183 1046.84 143.183ZM1047.48 141.378C1046.35 141.378 1045.32 140.787 1045.32 139.584C1045.32 138.639 1045.94 137.93 1047.39 137.93H1050.04V139.176C1050.04 140.433 1048.92 141.378 1047.48 141.378ZM1056.06 131.721H1054.31V133.579H1056.04V139.81C1056.04 142.087 1056.71 143.086 1059.44 143.086C1059.92 143.086 1060.72 143.021 1060.89 142.979V141.185C1060.7 141.206 1060.27 141.228 1059.97 141.228C1058.65 141.228 1058.2 140.884 1058.2 139.638V133.579H1060.75V131.721H1058.2V128.885H1056.06V131.721ZM1067.68 143.193C1070.63 143.193 1072.01 141.313 1072.17 140.014H1070C1069.81 140.712 1068.94 141.303 1067.66 141.303C1065.88 141.303 1064.89 140.078 1064.89 138.435V137.887H1072.31V136.544C1072.31 133.429 1070.32 131.463 1067.53 131.463C1064.79 131.463 1062.75 133.343 1062.75 136.544V138.102C1062.75 141.292 1064.6 143.193 1067.68 143.193ZM1064.89 136.351V136.189C1064.89 134.46 1065.95 133.3 1067.54 133.3C1069.13 133.3 1070.17 134.46 1070.17 136.189V136.351H1064.89Z" fill="#222222"/>
<path d="M1097.25 142.5L1104.75 135L1097.25 127.5" stroke="#222222" stroke-width="2" stroke-linecap="round" stroke-linejoin="round"/>
<rect x="965.5" y="108.5" width="170" height="53" rx="11.5" stroke="#C2C2C2"/>
</g>
<g filter="url(#filter5_d_25_47)">
<rect x="1130" y="20" width="240" height="230" rx="12" fill="#ECECEC"/>
<g clip-path="url(#clip6_25_47)">
<path d="M1167 38H1157.5L1152 47.5L1157 56H1167L1172 47L1167 38Z" fill="#FAAFE1"/>
<path d="M1166 38L1158 38C1157.65 38.0004 1157.3 38.0929 1157 38.2685C1156.7 38.444 1156.45 38.6963 1156.27 39L1152.27 46C1152.09 46.304 1152 46.6489 1152 47C1152 47.3511 1152.09 47.696 1152.27 48L1156.27 55C1156.45 55.3037 1156.7 55.556 1157 55.7315C1157.3 55.9071 1157.65 55.9996 1158 56L1166 56C1166.35 55.9996 1166.7 55.9071 1167 55.7315C1167.3 55.556 1167.55 55.3037 1167.73 55L1171.73 48C1171.91 47.696 1172 47.3511 1172 47C1172 46.6489 1171.91 46.304 1171.73 46L1167.73 39C1167.55 38.6963 1167.3 38.444 1167 38.2685C1166.7 38.0929 1166.35 38.0004 1166 38Z" stroke="#FAAFE1" stroke-width="2" stroke-linecap="round" stroke-linejoin="round"/>
</g>
<path d="M1186.93 50.9395C1186.99 52.916 1188.34 55.3008 1192.35 55.3008C1195.56 55.3008 1197.92 53.6895 1197.92 50.7998C1197.92 48.3184 1196.3 47.2764 1194.08 46.7393L1191.62 46.1377C1190.24 45.8154 1189.58 45.1279 1189.58 44.1611C1189.58 42.7754 1190.79 41.9805 1192.52 41.9805C1194.49 41.9805 1195.49 43.0225 1195.6 44.2793H1197.75C1197.7 41.5293 1195.27 40.0146 1192.55 40.0146C1189.8 40.0146 1187.34 41.54 1187.34 44.3438C1187.34 46.7178 1189.04 47.835 1190.87 48.2861L1193.35 48.8877C1194.94 49.2744 1195.7 49.8867 1195.7 51.0146C1195.7 52.4219 1194.5 53.3135 1192.54 53.3135C1190.39 53.3135 1189.24 52.2285 1189.12 50.9395H1186.93ZM1206.11 55.1611C1208.74 55.1611 1210.47 53.3564 1210.47 50.209V48.4365C1210.47 45.3105 1208.76 43.4951 1206.17 43.4951C1204.33 43.4951 1203.2 44.3975 1202.8 45.4502H1202.69V43.6455H1200.59V58.8672H1202.76V53.292H1202.87C1203.3 54.291 1204.27 55.1611 1206.11 55.1611ZM1205.57 53.2383C1203.89 53.2383 1202.76 52.0352 1202.76 50.2949V48.5439C1202.76 46.5889 1203.8 45.4072 1205.53 45.4072C1207.23 45.4072 1208.28 46.5566 1208.28 48.7803V49.8867C1208.28 52.1641 1207.16 53.2383 1205.57 53.2383ZM1216.3 55.1826C1217.98 55.1826 1218.98 54.3984 1219.51 53.5283H1219.6V55H1221.68V47.3086C1221.68 44.4834 1219.71 43.4844 1217.33 43.4844C1214.65 43.4844 1213.18 44.7412 1213.03 46.6318H1215.1C1215.31 45.8799 1215.9 45.3643 1217.26 45.3643C1218.64 45.3643 1219.51 45.9551 1219.51 47.2764V48.3506H1216.59C1213.98 48.3506 1212.6 49.7041 1212.6 51.7021C1212.6 53.8184 1214.11 55.1826 1216.3 55.1826ZM1216.95 53.3779C1215.82 53.3779 1214.79 52.7871 1214.79 51.584C1214.79 50.6387 1215.41 49.9297 1216.86 49.9297H1219.51V51.1758C1219.51 52.4326 1218.39 53.3779 1216.95 53.3779ZM1224.34 50.1338C1224.34 53.3027 1226.21 55.1934 1229.14 55.1934C1232.07 55.1934 1233.59 53.625 1233.65 51.6377H1231.57C1231.4 52.4648 1230.82 53.2168 1229.2 53.2168C1227.53 53.2168 1226.5 52.0566 1226.5 50.1338V48.5225C1226.5 46.6211 1227.43 45.3643 1229.2 45.3643C1230.87 45.3643 1231.4 46.4385 1231.51 47.1367H1233.58C1233.54 45.2461 1232.02 43.4629 1229.15 43.4629C1226.18 43.4629 1224.34 45.4502 1224.34 48.4688V50.1338ZM1236.45 55H1238.62V43.6562H1236.45V55ZM1236.05 40.2295C1236.05 41.0566 1236.67 41.6582 1237.52 41.6582C1238.41 41.6582 1239.03 41.0566 1239.03 40.2295C1239.03 39.3916 1238.41 38.79 1237.52 38.79C1236.66 38.79 1236.05 39.3916 1236.05 40.2295ZM1242.13 55H1244.3V48.6729C1244.3 46.8145 1245.25 45.4395 1247.13 45.4395C1248.55 45.4395 1249.46 46.2451 1249.46 47.9854V55H1251.64V47.3193C1251.64 44.7412 1250.09 43.4844 1247.8 43.4844C1245.47 43.4844 1244.68 44.8057 1244.39 45.6865H1244.28V43.6562H1242.13V55ZM1259.06 57.3955C1257.64 57.3955 1256.76 56.8154 1256.6 56.042H1254.43C1254.57 57.75 1255.94 59.2324 1258.97 59.2324C1261.89 59.2324 1264.07 57.9648 1264.07 54.7852V43.6562H1261.97V45.375H1261.87C1261.5 44.4189 1260.28 43.4951 1258.6 43.4951C1256.1 43.4951 1254.18 45.2998 1254.18 48.3828V49.9189C1254.18 53.002 1256.11 54.7959 1258.61 54.7959C1260.19 54.7959 1261.35 54.001 1261.79 53.0127H1261.91V54.6992C1261.91 56.3857 1260.96 57.3955 1259.06 57.3955ZM1259.22 45.4072C1260.9 45.4072 1261.91 46.8037 1261.91 48.4365V49.9727C1261.91 51.5732 1260.95 52.9482 1259.24 52.9482C1257.57 52.9482 1256.37 51.6592 1256.37 49.6826V48.6943C1256.37 46.707 1257.47 45.4072 1259.22 45.4072ZM1273.96 55V44.3545H1274.06L1281.11 55H1283.12V40.3369H1280.98V50.9502H1280.87L1273.82 40.3369H1271.81V55H1273.96ZM1290.96 43.4629C1288.05 43.4629 1285.98 45.4717 1285.98 48.5654V50.0586C1285.98 53.3564 1288.02 55.1934 1290.96 55.1934C1293.84 55.1934 1295.92 53.335 1295.92 50.0586V48.5654C1295.92 45.375 1293.84 43.4629 1290.96 43.4629ZM1290.96 45.3428C1292.71 45.3428 1293.73 46.7607 1293.73 48.6836V49.9619C1293.73 51.8955 1292.76 53.292 1290.96 53.292C1289.13 53.292 1288.15 51.8955 1288.15 49.9619V48.6836C1288.15 46.7607 1289.2 45.3428 1290.96 45.3428ZM1298.65 55H1300.82V48.6729C1300.82 46.8145 1301.76 45.4395 1303.64 45.4395C1305.07 45.4395 1305.97 46.2451 1305.97 47.9854V55H1308.15V47.3193C1308.15 44.7412 1306.61 43.4844 1304.32 43.4844C1301.99 43.4844 1301.19 44.8057 1300.9 45.6865H1300.8V43.6562H1298.65V55ZM1315.75 55.1934C1318.7 55.1934 1320.08 53.3135 1320.24 52.0137H1318.07C1317.89 52.7119 1317.02 53.3027 1315.73 53.3027C1313.95 53.3027 1312.97 52.0781 1312.97 50.4346V49.8867H1320.38V48.5439C1320.38 45.4287 1318.39 43.4629 1315.6 43.4629C1312.86 43.4629 1310.82 45.3428 1310.82 48.5439V50.1016C1310.82 53.292 1312.68 55.1934 1315.75 55.1934ZM1312.97 48.3506V48.1895C1312.97 46.46 1314.02 45.2998 1315.61 45.2998C1317.2 45.2998 1318.24 46.46 1318.24 48.1895V48.3506H1312.97Z" fill="#222222"/>
<g clip-path="url(#clip7_25_47)">
<g clip-path="url(#clip8_25_47)">
<path d="M1167 82L1157.5 82L1152 91.5L1157 100L1167 100L1172 91L1167 82Z" fill="#FAAFE1"/>
<path d="M1166 82L1158 82C1157.65 82.0004 1157.3 82.0929 1157 82.2685C1156.7 82.444 1156.45 82.6963 1156.27 83L1152.27 90C1152.09 90.304 1152 90.6489 1152 91C1152 91.3511 1152.09 91.696 1152.27 92L1156.27 99C1156.45 99.3037 1156.7 99.556 1157 99.7315C1157.3 99.9071 1157.65 99.9996 1158 100L1166 100C1166.35 99.9996 1166.7 99.9071 1167 99.7315C1167.3 99.556 1167.55 99.3037 1167.73 99L1171.73 92C1171.91 91.696 1172 91.3511 1172 91C1172 90.6489 1171.91 90.304 1171.73 90L1167.73 83C1167.55 82.6963 1167.3 82.444 1167 82.2685C1166.7 82.0929 1166.35 82.0004 1166 82Z" stroke="#FAAFE1" stroke-width="2" stroke-linecap="round" stroke-linejoin="round"/>
</g>
<rect x="1151" y="80" width="22" height="1" fill="#48D7E7"/>
</g>
<path d="M1186.93 94.9395C1186.99 96.916 1188.34 99.3008 1192.35 99.3008C1195.56 99.3008 1197.92 97.6895 1197.92 94.7998C1197.92 92.3184 1196.3 91.2764 1194.08 90.7393L1191.62 90.1377C1190.24 89.8154 1189.58 89.1279 1189.58 88.1611C1189.58 86.7754 1190.79 85.9805 1192.52 85.9805C1194.49 85.9805 1195.49 87.0225 1195.6 88.2793H1197.75C1197.7 85.5293 1195.27 84.0146 1192.55 84.0146C1189.8 84.0146 1187.34 85.54 1187.34 88.3438C1187.34 90.7178 1189.04 91.835 1190.87 92.2861L1193.35 92.8877C1194.94 93.2744 1195.7 93.8867 1195.7 95.0146C1195.7 96.4219 1194.5 97.3135 1192.54 97.3135C1190.39 97.3135 1189.24 96.2285 1189.12 94.9395H1186.93Z" fill="#222222"/>
<path d="M1206.11 99.1611C1208.74 99.1611 1210.47 97.3564 1210.47 94.209V92.4365C1210.47 89.3105 1208.76 87.4951 1206.17 87.4951C1204.33 87.4951 1203.2 88.3975 1202.8 89.4502H1202.69V87.6455H1200.59V102.867H1202.76V97.292H1202.87C1203.3 98.291 1204.27 99.1611 1206.11 99.1611ZM1205.57 97.2383C1203.89 97.2383 1202.76 96.0352 1202.76 94.2949V92.5439C1202.76 90.5889 1203.8 89.4072 1205.53 89.4072C1207.23 89.4072 1208.28 90.5566 1208.28 92.7803V93.8867C1208.28 96.1641 1207.16 97.2383 1205.57 97.2383Z" fill="#222222"/>
<path d="M1216.3 99.1826C1217.98 99.1826 1218.98 98.3984 1219.51 97.5283H1219.6V99H1221.68V91.3086C1221.68 88.4834 1219.71 87.4844 1217.33 87.4844C1214.65 87.4844 1213.18 88.7412 1213.03 90.6318H1215.1C1215.31 89.8799 1215.9 89.3643 1217.26 89.3643C1218.64 89.3643 1219.51 89.9551 1219.51 91.2764V92.3506H1216.59C1213.98 92.3506 1212.6 93.7041 1212.6 95.7021C1212.6 97.8184 1214.11 99.1826 1216.3 99.1826ZM1216.95 97.3779C1215.82 97.3779 1214.79 96.7871 1214.79 95.584C1214.79 94.6387 1215.41 93.9297 1216.86 93.9297H1219.51V95.1758C1219.51 96.4326 1218.39 97.3779 1216.95 97.3779Z" fill="#222222"/>
<path d="M1224.34 94.1338C1224.34 97.3027 1226.21 99.1934 1229.14 99.1934C1232.07 99.1934 1233.59 97.625 1233.65 95.6377H1231.57C1231.4 96.4648 1230.82 97.2168 1229.2 97.2168C1227.53 97.2168 1226.5 96.0566 1226.5 94.1338V92.5225C1226.5 90.6211 1227.43 89.3643 1229.2 89.3643C1230.87 89.3643 1231.4 90.4385 1231.51 91.1367H1233.58C1233.54 89.2461 1232.02 87.4629 1229.15 87.4629C1226.18 87.4629 1224.34 89.4502 1224.34 92.4688V94.1338Z" fill="#222222"/>
<path d="M1236.45 99H1238.62V87.6562H1236.45V99ZM1236.05 84.2295C1236.05 85.0566 1236.67 85.6582 1237.52 85.6582C1238.41 85.6582 1239.03 85.0566 1239.03 84.2295C1239.03 83.3916 1238.41 82.79 1237.52 82.79C1236.66 82.79 1236.05 83.3916 1236.05 84.2295Z" fill="#222222"/>
<path d="M1242.13 99H1244.3V92.6729C1244.3 90.8145 1245.25 89.4395 1247.13 89.4395C1248.55 89.4395 1249.46 90.2451 1249.46 91.9854V99H1251.64V91.3193C1251.64 88.7412 1250.09 87.4844 1247.8 87.4844C1245.47 87.4844 1244.68 88.8057 1244.39 89.6865H1244.28V87.6562H1242.13V99Z" fill="#222222"/>
<path d="M1259.06 101.396C1257.64 101.396 1256.76 100.815 1256.6 100.042H1254.43C1254.57 101.75 1255.94 103.232 1258.97 103.232C1261.89 103.232 1264.07 101.965 1264.07 98.7852V87.6562H1261.97V89.375H1261.87C1261.5 88.4189 1260.28 87.4951 1258.6 87.4951C1256.1 87.4951 1254.18 89.2998 1254.18 92.3828V93.9189C1254.18 97.002 1256.11 98.7959 1258.61 98.7959C1260.19 98.7959 1261.35 98.001 1261.79 97.0127H1261.91V98.6992C1261.91 100.386 1260.96 101.396 1259.06 101.396ZM1259.22 89.4072C1260.9 89.4072 1261.91 90.8037 1261.91 92.4365V93.9727C1261.91 95.5732 1260.95 96.9482 1259.24 96.9482C1257.57 96.9482 1256.37 95.6592 1256.37 93.6826V92.6943C1256.37 90.707 1257.47 89.4072 1259.22 89.4072Z" fill="#222222"/>
<path d="M1276.88 99V86.3779H1281.24V84.3369H1270.32V86.3779H1274.67V99H1276.88Z" fill="#222222"/>
<path d="M1283.1 99H1285.27V87.6562H1283.1V99ZM1282.71 84.2295C1282.71 85.0566 1283.33 85.6582 1284.18 85.6582C1285.07 85.6582 1285.68 85.0566 1285.68 84.2295C1285.68 83.3916 1285.07 82.79 1284.18 82.79C1283.32 82.79 1282.71 83.3916 1282.71 84.2295Z" fill="#222222"/>
<path d="M1288.79 99H1290.96V92.6729C1290.96 90.8145 1291.9 89.4395 1293.78 89.4395C1295.21 89.4395 1296.11 90.2451 1296.11 91.9854V99H1298.29V91.3193C1298.29 88.7412 1296.75 87.4844 1294.46 87.4844C1292.13 87.4844 1291.33 88.8057 1291.04 89.6865H1290.93V87.6562H1288.79V99Z" fill="#222222"/>
<path d="M1310.76 87.6562H1308.47L1305.61 96.8623H1305.51L1302.66 87.6562H1300.27L1304.36 99.0967L1304.21 99.6016C1303.93 100.665 1303.41 101.277 1302.04 101.277C1301.76 101.277 1301.35 101.256 1301.17 101.213V102.985C1301.46 103.039 1301.98 103.093 1302.46 103.093C1305 103.093 1305.88 101.514 1306.54 99.6553L1306.83 98.8711C1306.85 98.8066 1310.76 87.6562 1310.76 87.6562Z" fill="#222222"/>
<g clip-path="url(#clip9_25_47)">
<g clip-path="url(#clip10_25_47)">
<path d="M1167 126L1157.5 126L1152 135.5L1157 144L1167 144L1172 135L1167 126Z" fill="#FAAFE1"/>
<path d="M1166 126L1158 126C1157.65 126 1157.3 126.093 1157 126.268C1156.7 126.444 1156.45 126.696 1156.27 127L1152.27 134C1152.09 134.304 1152 134.649 1152 135C1152 135.351 1152.09 135.696 1152.27 136L1156.27 143C1156.45 143.304 1156.7 143.556 1157 143.732C1157.3 143.907 1157.65 144 1158 144L1166 144C1166.35 144 1166.7 143.907 1167 143.732C1167.3 143.556 1167.55 143.304 1167.73 143L1171.73 136C1171.91 135.696 1172 135.351 1172 135C1172 134.649 1171.91 134.304 1171.73 134L1167.73 127C1167.55 126.696 1167.3 126.444 1167 126.268C1166.7 126.093 1166.35 126 1166 126Z" stroke="#FAAFE1" stroke-width="2" stroke-linecap="round" stroke-linejoin="round"/>
</g>
<rect x="1151" y="123" width="22" height="2" fill="#48D7E7"/>
</g>
<path d="M1186.93 138.939C1186.99 140.916 1188.34 143.301 1192.35 143.301C1195.56 143.301 1197.92 141.689 1197.92 138.8C1197.92 136.318 1196.3 135.276 1194.08 134.739L1191.62 134.138C1190.24 133.815 1189.58 133.128 1189.58 132.161C1189.58 130.775 1190.79 129.98 1192.52 129.98C1194.49 129.98 1195.49 131.022 1195.6 132.279H1197.75C1197.7 129.529 1195.27 128.015 1192.55 128.015C1189.8 128.015 1187.34 129.54 1187.34 132.344C1187.34 134.718 1189.04 135.835 1190.87 136.286L1193.35 136.888C1194.94 137.274 1195.7 137.887 1195.7 139.015C1195.7 140.422 1194.5 141.313 1192.54 141.313C1190.39 141.313 1189.24 140.229 1189.12 138.939H1186.93Z" fill="#222222"/>
<path d="M1206.11 143.161C1208.74 143.161 1210.47 141.356 1210.47 138.209V136.437C1210.47 133.311 1208.76 131.495 1206.17 131.495C1204.33 131.495 1203.2 132.397 1202.8 133.45H1202.69V131.646H1200.59V146.867H1202.76V141.292H1202.87C1203.3 142.291 1204.27 143.161 1206.11 143.161ZM1205.57 141.238C1203.89 141.238 1202.76 140.035 1202.76 138.295V136.544C1202.76 134.589 1203.8 133.407 1205.53 133.407C1207.23 133.407 1208.28 134.557 1208.28 136.78V137.887C1208.28 140.164 1207.16 141.238 1205.57 141.238Z" fill="#222222"/>
<path d="M1216.3 143.183C1217.98 143.183 1218.98 142.398 1219.51 141.528H1219.6V143H1221.68V135.309C1221.68 132.483 1219.71 131.484 1217.33 131.484C1214.65 131.484 1213.18 132.741 1213.03 134.632H1215.1C1215.31 133.88 1215.9 133.364 1217.26 133.364C1218.64 133.364 1219.51 133.955 1219.51 135.276V136.351H1216.59C1213.98 136.351 1212.6 137.704 1212.6 139.702C1212.6 141.818 1214.11 143.183 1216.3 143.183ZM1216.95 141.378C1215.82 141.378 1214.79 140.787 1214.79 139.584C1214.79 138.639 1215.41 137.93 1216.86 137.93H1219.51V139.176C1219.51 140.433 1218.39 141.378 1216.95 141.378Z" fill="#222222"/>
<path d="M1224.34 138.134C1224.34 141.303 1226.21 143.193 1229.14 143.193C1232.07 143.193 1233.59 141.625 1233.65 139.638H1231.57C1231.4 140.465 1230.82 141.217 1229.2 141.217C1227.53 141.217 1226.5 140.057 1226.5 138.134V136.522C1226.5 134.621 1227.43 133.364 1229.2 133.364C1230.87 133.364 1231.4 134.438 1231.51 135.137H1233.58C1233.54 133.246 1232.02 131.463 1229.15 131.463C1226.18 131.463 1224.34 133.45 1224.34 136.469V138.134Z" fill="#222222"/>
<path d="M1236.45 143H1238.62V131.656H1236.45V143ZM1236.05 128.229C1236.05 129.057 1236.67 129.658 1237.52 129.658C1238.41 129.658 1239.03 129.057 1239.03 128.229C1239.03 127.392 1238.41 126.79 1237.52 126.79C1236.66 126.79 1236.05 127.392 1236.05 128.229Z" fill="#222222"/>
<path d="M1242.13 143H1244.3V136.673C1244.3 134.814 1245.25 133.439 1247.13 133.439C1248.55 133.439 1249.46 134.245 1249.46 135.985V143H1251.64V135.319C1251.64 132.741 1250.09 131.484 1247.8 131.484C1245.47 131.484 1244.68 132.806 1244.39 133.687H1244.28V131.656H1242.13V143Z" fill="#222222"/>
<path d="M1259.06 145.396C1257.64 145.396 1256.76 144.815 1256.6 144.042H1254.43C1254.57 145.75 1255.94 147.232 1258.97 147.232C1261.89 147.232 1264.07 145.965 1264.07 142.785V131.656H1261.97V133.375H1261.87C1261.5 132.419 1260.28 131.495 1258.6 131.495C1256.1 131.495 1254.18 133.3 1254.18 136.383V137.919C1254.18 141.002 1256.11 142.796 1258.61 142.796C1260.19 142.796 1261.35 142.001 1261.79 141.013H1261.91V142.699C1261.91 144.386 1260.96 145.396 1259.06 145.396ZM1259.22 133.407C1260.9 133.407 1261.91 134.804 1261.91 136.437V137.973C1261.91 139.573 1260.95 140.948 1259.24 140.948C1257.57 140.948 1256.37 139.659 1256.37 137.683V136.694C1256.37 134.707 1257.47 133.407 1259.22 133.407Z" fill="#222222"/>
<path d="M1270.77 138.939C1270.82 140.916 1272.18 143.301 1276.18 143.301C1279.4 143.301 1281.76 141.689 1281.76 138.8C1281.76 136.318 1280.14 135.276 1277.91 134.739L1275.45 134.138C1274.08 133.815 1273.41 133.128 1273.41 132.161C1273.41 130.775 1274.63 129.98 1276.36 129.98C1278.32 129.98 1279.32 131.022 1279.44 132.279H1281.59C1281.53 129.529 1279.11 128.015 1276.39 128.015C1273.64 128.015 1271.18 129.54 1271.18 132.344C1271.18 134.718 1272.88 135.835 1274.7 136.286L1277.18 136.888C1278.77 137.274 1279.54 137.887 1279.54 139.015C1279.54 140.422 1278.33 141.313 1276.38 141.313C1274.23 141.313 1273.08 140.229 1272.95 138.939H1270.77Z" fill="#222222"/>
<path d="M1284.41 143H1286.58V135.899C1286.58 134.374 1287.57 133.418 1288.92 133.418C1290.31 133.418 1291.21 134.299 1291.21 135.771V143H1293.34V135.921C1293.34 134.406 1294.37 133.418 1295.71 133.418C1297.15 133.418 1297.96 134.267 1297.96 135.706V143H1300.13V135.051C1300.13 132.795 1298.73 131.484 1296.42 131.484C1294.5 131.484 1293.42 132.526 1292.97 133.611H1292.88C1292.52 132.397 1291.46 131.484 1289.74 131.484C1287.67 131.484 1286.93 132.677 1286.67 133.493H1286.56V131.656H1284.41V143Z" fill="#222222"/>
<path d="M1306.43 143.183C1308.11 143.183 1309.11 142.398 1309.64 141.528H1309.73V143H1311.81V135.309C1311.81 132.483 1309.84 131.484 1307.46 131.484C1304.78 131.484 1303.31 132.741 1303.16 134.632H1305.23C1305.44 133.88 1306.03 133.364 1307.39 133.364C1308.77 133.364 1309.64 133.955 1309.64 135.276V136.351H1306.72C1304.11 136.351 1302.73 137.704 1302.73 139.702C1302.73 141.818 1304.24 143.183 1306.43 143.183ZM1307.08 141.378C1305.95 141.378 1304.92 140.787 1304.92 139.584C1304.92 138.639 1305.54 137.93 1306.99 137.93H1309.64V139.176C1309.64 140.433 1308.52 141.378 1307.08 141.378Z" fill="#222222"/>
<path d="M1315.08 143H1317.25V127.563H1315.08V143Z" fill="#222222"/>
<path d="M1320.66 143H1322.83V127.563H1320.66V143Z" fill="#222222"/>
<g clip-path="url(#clip11_25_47)">
<g clip-path="url(#clip12_25_47)">
<g clip-path="url(#clip13_25_47)">
<path d="M1166.17 173.5L1158.25 173.5L1153.67 181.417L1157.83 188.5L1166.17 188.5L1170.33 181L1166.17 173.5Z" fill="#FAAFE1"/>
<path d="M1165.33 173.5L1158.67 173.5C1158.37 173.5 1158.09 173.577 1157.83 173.724C1157.58 173.87 1157.37 174.08 1157.23 174.333L1153.89 180.167C1153.75 180.42 1153.67 180.707 1153.67 181C1153.67 181.293 1153.75 181.58 1153.89 181.833L1157.23 187.667C1157.37 187.92 1157.58 188.13 1157.83 188.276C1158.09 188.423 1158.37 188.5 1158.67 188.5L1165.33 188.5C1165.63 188.5 1165.91 188.423 1166.17 188.276C1166.42 188.13 1166.63 187.92 1166.78 187.667L1170.11 181.833C1170.25 181.58 1170.33 181.293 1170.33 181C1170.33 180.707 1170.25 180.42 1170.11 180.167L1166.78 174.333C1166.63 174.08 1166.42 173.87 1166.17 173.724C1165.91 173.577 1165.63 173.5 1165.33 173.5Z" stroke="#FAAFE1" stroke-width="2" stroke-linecap="round" stroke-linejoin="round"/>
</g>
</g>
<rect x="1152" y="167" width="19" height="5.5" fill="#48D7E7"/>
</g>
<path d="M1186.93 182.939C1186.99 184.916 1188.34 187.301 1192.35 187.301C1195.56 187.301 1197.92 185.689 1197.92 182.8C1197.92 180.318 1196.3 179.276 1194.08 178.739L1191.62 178.138C1190.24 177.815 1189.58 177.128 1189.58 176.161C1189.58 174.775 1190.79 173.98 1192.52 173.98C1194.49 173.98 1195.49 175.022 1195.6 176.279H1197.75C1197.7 173.529 1195.27 172.015 1192.55 172.015C1189.8 172.015 1187.34 173.54 1187.34 176.344C1187.34 178.718 1189.04 179.835 1190.87 180.286L1193.35 180.888C1194.94 181.274 1195.7 181.887 1195.7 183.015C1195.7 184.422 1194.5 185.313 1192.54 185.313C1190.39 185.313 1189.24 184.229 1189.12 182.939H1186.93Z" fill="#222222"/>
<path d="M1206.11 187.161C1208.74 187.161 1210.47 185.356 1210.47 182.209V180.437C1210.47 177.311 1208.76 175.495 1206.17 175.495C1204.33 175.495 1203.2 176.397 1202.8 177.45H1202.69V175.646H1200.59V190.867H1202.76V185.292H1202.87C1203.3 186.291 1204.27 187.161 1206.11 187.161ZM1205.57 185.238C1203.89 185.238 1202.76 184.035 1202.76 182.295V180.544C1202.76 178.589 1203.8 177.407 1205.53 177.407C1207.23 177.407 1208.28 178.557 1208.28 180.78V181.887C1208.28 184.164 1207.16 185.238 1205.57 185.238Z" fill="#222222"/>
<path d="M1216.3 187.183C1217.98 187.183 1218.98 186.398 1219.51 185.528H1219.6V187H1221.68V179.309C1221.68 176.483 1219.71 175.484 1217.33 175.484C1214.65 175.484 1213.18 176.741 1213.03 178.632H1215.1C1215.31 177.88 1215.9 177.364 1217.26 177.364C1218.64 177.364 1219.51 177.955 1219.51 179.276V180.351H1216.59C1213.98 180.351 1212.6 181.704 1212.6 183.702C1212.6 185.818 1214.11 187.183 1216.3 187.183ZM1216.95 185.378C1215.82 185.378 1214.79 184.787 1214.79 183.584C1214.79 182.639 1215.41 181.93 1216.86 181.93H1219.51V183.176C1219.51 184.433 1218.39 185.378 1216.95 185.378Z" fill="#222222"/>
<path d="M1224.34 182.134C1224.34 185.303 1226.21 187.193 1229.14 187.193C1232.07 187.193 1233.59 185.625 1233.65 183.638H1231.57C1231.4 184.465 1230.82 185.217 1229.2 185.217C1227.53 185.217 1226.5 184.057 1226.5 182.134V180.522C1226.5 178.621 1227.43 177.364 1229.2 177.364C1230.87 177.364 1231.4 178.438 1231.51 179.137H1233.58C1233.54 177.246 1232.02 175.463 1229.15 175.463C1226.18 175.463 1224.34 177.45 1224.34 180.469V182.134Z" fill="#222222"/>
<path d="M1236.45 187H1238.62V175.656H1236.45V187ZM1236.05 172.229C1236.05 173.057 1236.67 173.658 1237.52 173.658C1238.41 173.658 1239.03 173.057 1239.03 172.229C1239.03 171.392 1238.41 170.79 1237.52 170.79C1236.66 170.79 1236.05 171.392 1236.05 172.229Z" fill="#222222"/>
<path d="M1242.13 187H1244.3V180.673C1244.3 178.814 1245.25 177.439 1247.13 177.439C1248.55 177.439 1249.46 178.245 1249.46 179.985V187H1251.64V179.319C1251.64 176.741 1250.09 175.484 1247.8 175.484C1245.47 175.484 1244.68 176.806 1244.39 177.687H1244.28V175.656H1242.13V187Z" fill="#222222"/>
<path d="M1259.06 189.396C1257.64 189.396 1256.76 188.815 1256.6 188.042H1254.43C1254.57 189.75 1255.94 191.232 1258.97 191.232C1261.89 191.232 1264.07 189.965 1264.07 186.785V175.656H1261.97V177.375H1261.87C1261.5 176.419 1260.28 175.495 1258.6 175.495C1256.1 175.495 1254.18 177.3 1254.18 180.383V181.919C1254.18 185.002 1256.11 186.796 1258.61 186.796C1260.19 186.796 1261.35 186.001 1261.79 185.013H1261.91V186.699C1261.91 188.386 1260.96 189.396 1259.06 189.396ZM1259.22 177.407C1260.9 177.407 1261.91 178.804 1261.91 180.437V181.973C1261.91 183.573 1260.95 184.948 1259.24 184.948C1257.57 184.948 1256.37 183.659 1256.37 181.683V180.694C1256.37 178.707 1257.47 177.407 1259.22 177.407Z" fill="#222222"/>
<path d="M1273.85 187V176.73H1273.96L1277.87 185.475H1279.56L1283.45 176.73H1283.56V187H1285.57V172.337H1283.37L1278.76 182.832H1278.68L1274.06 172.337H1271.86V187H1273.85Z" fill="#222222"/>
<path d="M1293.4 187.193C1296.36 187.193 1297.73 185.313 1297.89 184.014H1295.72C1295.54 184.712 1294.67 185.303 1293.38 185.303C1291.61 185.303 1290.62 184.078 1290.62 182.435V181.887H1298.03V180.544C1298.03 177.429 1296.05 175.463 1293.25 175.463C1290.51 175.463 1288.47 177.343 1288.47 180.544V182.102C1288.47 185.292 1290.33 187.193 1293.4 187.193ZM1290.62 180.351V180.189C1290.62 178.46 1291.67 177.3 1293.26 177.3C1294.85 177.3 1295.9 178.46 1295.9 180.189V180.351H1290.62Z" fill="#222222"/>
<path d="M1304.54 175.484C1301.88 175.484 1300.18 177.375 1300.18 180.329V182.316C1300.18 185.324 1301.9 187.15 1304.5 187.15C1306.41 187.15 1307.6 186.173 1307.89 185.195H1307.99V187H1310.09V171.563H1307.92V177.343H1307.81C1307.43 176.365 1306.37 175.484 1304.54 175.484ZM1305.07 177.418C1306.74 177.418 1307.92 178.61 1307.92 180.361V182.112C1307.92 184.057 1306.81 185.238 1305.12 185.238C1303.45 185.238 1302.37 184.078 1302.37 181.962V180.684C1302.37 178.6 1303.42 177.418 1305.07 177.418Z" fill="#222222"/>
<path d="M1313.65 187H1315.82V175.656H1313.65V187ZM1313.26 172.229C1313.26 173.057 1313.88 173.658 1314.73 173.658C1315.62 173.658 1316.23 173.057 1316.23 172.229C1316.23 171.392 1315.62 170.79 1314.73 170.79C1313.87 170.79 1313.26 171.392 1313.26 172.229Z" fill="#222222"/>
<path d="M1328.73 175.656H1326.56V182.682C1326.56 184.11 1325.35 185.217 1323.8 185.217C1322.52 185.217 1321.43 184.669 1321.43 182.854V175.656H1319.26V183.444C1319.26 186.098 1320.85 187.183 1323.12 187.183C1325.11 187.183 1326.15 186.022 1326.47 185.109H1326.58V187H1328.73V175.656Z" fill="#222222"/>
<path d="M1332 187H1334.17V179.899C1334.17 178.374 1335.16 177.418 1336.51 177.418C1337.9 177.418 1338.8 178.299 1338.8 179.771V187H1340.93V179.921C1340.93 178.406 1341.96 177.418 1343.3 177.418C1344.74 177.418 1345.55 178.267 1345.55 179.706V187H1347.72V179.051C1347.72 176.795 1346.32 175.484 1344.01 175.484C1342.09 175.484 1341 176.526 1340.56 177.611H1340.47C1340.11 176.397 1339.05 175.484 1337.33 175.484C1335.26 175.484 1334.52 176.677 1334.26 177.493H1334.15V175.656H1332V187Z" fill="#222222"/>
<g clip-path="url(#clip14_25_47)">
<g clip-path="url(#clip15_25_47)">
<g clip-path="url(#clip16_25_47)">
<path d="M1164.63 221.875L1158.69 221.875L1155.25 227.812L1158.38 233.125L1164.63 233.125L1167.75 227.5L1164.63 221.875Z" fill="#FAAFE1"/>
<path d="M1164 221.875L1159 221.875C1158.78 221.875 1158.57 221.933 1158.38 222.043C1158.19 222.152 1158.03 222.31 1157.92 222.5L1155.42 226.875C1155.31 227.065 1155.25 227.281 1155.25 227.5C1155.25 227.719 1155.31 227.935 1155.42 228.125L1157.92 232.5C1158.03 232.69 1158.19 232.848 1158.38 232.957C1158.57 233.067 1158.78 233.125 1159 233.125L1164 233.125C1164.22 233.125 1164.43 233.067 1164.62 232.957C1164.81 232.848 1164.97 232.69 1165.08 232.5L1167.58 228.125C1167.69 227.935 1167.75 227.719 1167.75 227.5C1167.75 227.281 1167.69 227.065 1167.58 226.875L1165.08 222.5C1164.97 222.31 1164.81 222.152 1164.62 222.043C1164.43 221.933 1164.22 221.875 1164 221.875Z" stroke="#FAAFE1" stroke-width="2" stroke-linecap="round" stroke-linejoin="round"/>
</g>
</g>
<rect x="1154" y="211" width="15" height="10" fill="#48D7E7"/>
</g>
<path d="M1186.93 226.939C1186.99 228.916 1188.34 231.301 1192.35 231.301C1195.56 231.301 1197.92 229.689 1197.92 226.8C1197.92 224.318 1196.3 223.276 1194.08 222.739L1191.62 222.138C1190.24 221.815 1189.58 221.128 1189.58 220.161C1189.58 218.775 1190.79 217.98 1192.52 217.98C1194.49 217.98 1195.49 219.022 1195.6 220.279H1197.75C1197.7 217.529 1195.27 216.015 1192.55 216.015C1189.8 216.015 1187.34 217.54 1187.34 220.344C1187.34 222.718 1189.04 223.835 1190.87 224.286L1193.35 224.888C1194.94 225.274 1195.7 225.887 1195.7 227.015C1195.7 228.422 1194.5 229.313 1192.54 229.313C1190.39 229.313 1189.24 228.229 1189.12 226.939H1186.93Z" fill="#222222"/>
<path d="M1206.11 231.161C1208.74 231.161 1210.47 229.356 1210.47 226.209V224.437C1210.47 221.311 1208.76 219.495 1206.17 219.495C1204.33 219.495 1203.2 220.397 1202.8 221.45H1202.69V219.646H1200.59V234.867H1202.76V229.292H1202.87C1203.3 230.291 1204.27 231.161 1206.11 231.161ZM1205.57 229.238C1203.89 229.238 1202.76 228.035 1202.76 226.295V224.544C1202.76 222.589 1203.8 221.407 1205.53 221.407C1207.23 221.407 1208.28 222.557 1208.28 224.78V225.887C1208.28 228.164 1207.16 229.238 1205.57 229.238Z" fill="#222222"/>
<path d="M1216.3 231.183C1217.98 231.183 1218.98 230.398 1219.51 229.528H1219.6V231H1221.68V223.309C1221.68 220.483 1219.71 219.484 1217.33 219.484C1214.65 219.484 1213.18 220.741 1213.03 222.632H1215.1C1215.31 221.88 1215.9 221.364 1217.26 221.364C1218.64 221.364 1219.51 221.955 1219.51 223.276V224.351H1216.59C1213.98 224.351 1212.6 225.704 1212.6 227.702C1212.6 229.818 1214.11 231.183 1216.3 231.183ZM1216.95 229.378C1215.82 229.378 1214.79 228.787 1214.79 227.584C1214.79 226.639 1215.41 225.93 1216.86 225.93H1219.51V227.176C1219.51 228.433 1218.39 229.378 1216.95 229.378Z" fill="#222222"/>
<path d="M1224.34 226.134C1224.34 229.303 1226.21 231.193 1229.14 231.193C1232.07 231.193 1233.59 229.625 1233.65 227.638H1231.57C1231.4 228.465 1230.82 229.217 1229.2 229.217C1227.53 229.217 1226.5 228.057 1226.5 226.134V224.522C1226.5 222.621 1227.43 221.364 1229.2 221.364C1230.87 221.364 1231.4 222.438 1231.51 223.137H1233.58C1233.54 221.246 1232.02 219.463 1229.15 219.463C1226.18 219.463 1224.34 221.45 1224.34 224.469V226.134Z" fill="#222222"/>
<path d="M1236.45 231H1238.62V219.656H1236.45V231ZM1236.05 216.229C1236.05 217.057 1236.67 217.658 1237.52 217.658C1238.41 217.658 1239.03 217.057 1239.03 216.229C1239.03 215.392 1238.41 214.79 1237.52 214.79C1236.66 214.79 1236.05 215.392 1236.05 216.229Z" fill="#222222"/>
<path d="M1242.13 231H1244.3V224.673C1244.3 222.814 1245.25 221.439 1247.13 221.439C1248.55 221.439 1249.46 222.245 1249.46 223.985V231H1251.64V223.319C1251.64 220.741 1250.09 219.484 1247.8 219.484C1245.47 219.484 1244.68 220.806 1244.39 221.687H1244.28V219.656H1242.13V231Z" fill="#222222"/>
<path d="M1259.06 233.396C1257.64 233.396 1256.76 232.815 1256.6 232.042H1254.43C1254.57 233.75 1255.94 235.232 1258.97 235.232C1261.89 235.232 1264.07 233.965 1264.07 230.785V219.656H1261.97V221.375H1261.87C1261.5 220.419 1260.28 219.495 1258.6 219.495C1256.1 219.495 1254.18 221.3 1254.18 224.383V225.919C1254.18 229.002 1256.11 230.796 1258.61 230.796C1260.19 230.796 1261.35 230.001 1261.79 229.013H1261.91V230.699C1261.91 232.386 1260.96 233.396 1259.06 233.396ZM1259.22 221.407C1260.9 221.407 1261.91 222.804 1261.91 224.437V225.973C1261.91 227.573 1260.95 228.948 1259.24 228.948C1257.57 228.948 1256.37 227.659 1256.37 225.683V224.694C1256.37 222.707 1257.47 221.407 1259.22 221.407Z" fill="#222222"/>
<path d="M1280.61 228.927H1274.02V216.337H1271.81V231H1280.61V228.927Z" fill="#222222"/>
<path d="M1285.63 231.183C1287.3 231.183 1288.3 230.398 1288.83 229.528H1288.92V231H1291V223.309C1291 220.483 1289.03 219.484 1286.65 219.484C1283.97 219.484 1282.5 220.741 1282.35 222.632H1284.42C1284.63 221.88 1285.22 221.364 1286.58 221.364C1287.96 221.364 1288.83 221.955 1288.83 223.276V224.351H1285.92C1283.31 224.351 1281.92 225.704 1281.92 227.702C1281.92 229.818 1283.44 231.183 1285.63 231.183ZM1286.27 229.378C1285.14 229.378 1284.11 228.787 1284.11 227.584C1284.11 226.639 1284.74 225.93 1286.19 225.93H1288.83V227.176C1288.83 228.433 1287.71 229.378 1286.27 229.378Z" fill="#222222"/>
<path d="M1294.36 231H1296.56V224.211C1296.56 222.686 1297.52 221.536 1299.46 221.536C1299.84 221.536 1300.24 221.558 1300.43 221.611V219.549C1300.22 219.517 1299.96 219.484 1299.68 219.484C1297.73 219.484 1296.91 220.655 1296.64 221.418H1296.53V219.656H1294.36V231Z" fill="#222222"/>
<path d="M1306.66 233.396C1305.24 233.396 1304.36 232.815 1304.2 232.042H1302.03C1302.17 233.75 1303.55 235.232 1306.58 235.232C1309.49 235.232 1311.67 233.965 1311.67 230.785V219.656H1309.57V221.375H1309.48C1309.1 220.419 1307.89 219.495 1306.2 219.495C1303.7 219.495 1301.78 221.3 1301.78 224.383V225.919C1301.78 229.002 1303.71 230.796 1306.21 230.796C1307.79 230.796 1308.95 230.001 1309.39 229.013H1309.51V230.699C1309.51 232.386 1308.56 233.396 1306.66 233.396ZM1306.82 221.407C1308.5 221.407 1309.51 222.804 1309.51 224.437V225.973C1309.51 227.573 1308.55 228.948 1306.84 228.948C1305.17 228.948 1303.98 227.659 1303.98 225.683V224.694C1303.98 222.707 1305.07 221.407 1306.82 221.407Z" fill="#222222"/>
<path d="M1319.33 231.193C1322.28 231.193 1323.66 229.313 1323.82 228.014H1321.65C1321.46 228.712 1320.59 229.303 1319.3 229.303C1317.53 229.303 1316.54 228.078 1316.54 226.435V225.887H1323.96V224.544C1323.96 221.429 1321.97 219.463 1319.18 219.463C1316.44 219.463 1314.4 221.343 1314.4 224.544V226.102C1314.4 229.292 1316.25 231.193 1319.33 231.193ZM1316.54 224.351V224.189C1316.54 222.46 1317.6 221.3 1319.19 221.3C1320.78 221.3 1321.82 222.46 1321.82 224.189V224.351H1316.54Z" fill="#222222"/>
<rect x="1130.5" y="20.5" width="239" height="229" rx="11.5" stroke="#C2C2C2"/>
</g>
</g>
<defs>
<filter id="filter0_d_25_47" x="2" y="93" width="300" height="90" filterUnits="userSpaceOnUse" color-interpolation-filters="sRGB">
<feFlood flood-opacity="0" result="BackgroundImageFix"/>
<feColorMatrix in="SourceAlpha" type="matrix" values="0 0 0 0 0 0 0 0 0 0 0 0 0 0 0 0 0 0 127 0" result="hardAlpha"/>
<feOffset dy="3"/>
<feGaussianBlur stdDeviation="9"/>
<feComposite in2="hardAlpha" operator="out"/>
<feColorMatrix type="matrix" values="0 0 0 0 0 0 0 0 0 0 0 0 0 0 0 0 0 0 0.12 0"/>
<feBlend mode="normal" in2="BackgroundImageFix" result="effect1_dropShadow_25_47"/>
<feBlend mode="normal" in="SourceGraphic" in2="effect1_dropShadow_25_47" result="shape"/>
</filter>
<filter id="filter1_d_25_47" x="260" y="93" width="270" height="90" filterUnits="userSpaceOnUse" color-interpolation-filters="sRGB">
<feFlood flood-opacity="0" result="BackgroundImageFix"/>
<feColorMatrix in="SourceAlpha" type="matrix" values="0 0 0 0 0 0 0 0 0 0 0 0 0 0 0 0 0 0 127 0" result="hardAlpha"/>
<feOffset dy="3"/>
<feGaussianBlur stdDeviation="9"/>
<feComposite in2="hardAlpha" operator="out"/>
<feColorMatrix type="matrix" values="0 0 0 0 0 0 0 0 0 0 0 0 0 0 0 0 0 0 0.12 0"/>
<feBlend mode="normal" in2="BackgroundImageFix" result="effect1_dropShadow_25_47"/>
<feBlend mode="normal" in="SourceGraphic" in2="effect1_dropShadow_25_47" result="shape"/>
</filter>
<filter id="filter2_d_25_47" x="488" y="93" width="226" height="90" filterUnits="userSpaceOnUse" color-interpolation-filters="sRGB">
<feFlood flood-opacity="0" result="BackgroundImageFix"/>
<feColorMatrix in="SourceAlpha" type="matrix" values="0 0 0 0 0 0 0 0 0 0 0 0 0 0 0 0 0 0 127 0" result="hardAlpha"/>
<feOffset dy="3"/>
<feGaussianBlur stdDeviation="9"/>
<feComposite in2="hardAlpha" operator="out"/>
<feColorMatrix type="matrix" values="0 0 0 0 0 0 0 0 0 0 0 0 0 0 0 0 0 0 0.12 0"/>
<feBlend mode="normal" in2="BackgroundImageFix" result="effect1_dropShadow_25_47"/>
<feBlend mode="normal" in="SourceGraphic" in2="effect1_dropShadow_25_47" result="shape"/>
</filter>
<filter id="filter3_d_25_47" x="672" y="93" width="317" height="90" filterUnits="userSpaceOnUse" color-interpolation-filters="sRGB">
<feFlood flood-opacity="0" result="BackgroundImageFix"/>
<feColorMatrix in="SourceAlpha" type="matrix" values="0 0 0 0 0 0 0 0 0 0 0 0 0 0 0 0 0 0 127 0" result="hardAlpha"/>
<feOffset dy="3"/>
<feGaussianBlur stdDeviation="9"/>
<feComposite in2="hardAlpha" operator="out"/>
<feColorMatrix type="matrix" values="0 0 0 0 0 0 0 0 0 0 0 0 0 0 0 0 0 0 0.12 0"/>
<feBlend mode="normal" in2="BackgroundImageFix" result="effect1_dropShadow_25_47"/>
<feBlend mode="normal" in="SourceGraphic" in2="effect1_dropShadow_25_47" result="shape"/>
</filter>
<filter id="filter4_d_25_47" x="947" y="93" width="207" height="90" filterUnits="userSpaceOnUse" color-interpolation-filters="sRGB">
<feFlood flood-opacity="0" result="BackgroundImageFix"/>
<feColorMatrix in="SourceAlpha" type="matrix" values="0 0 0 0 0 0 0 0 0 0 0 0 0 0 0 0 0 0 127 0" result="hardAlpha"/>
<feOffset dy="3"/>
<feGaussianBlur stdDeviation="9"/>
<feComposite in2="hardAlpha" operator="out"/>
<feColorMatrix type="matrix" values="0 0 0 0 0 0 0 0 0 0 0 0 0 0 0 0 0 0 0.12 0"/>
<feBlend mode="normal" in2="BackgroundImageFix" result="effect1_dropShadow_25_47"/>
<feBlend mode="normal" in="SourceGraphic" in2="effect1_dropShadow_25_47" result="shape"/>
</filter>
<filter id="filter5_d_25_47" x="1112" y="5" width="276" height="266" filterUnits="userSpaceOnUse" color-interpolation-filters="sRGB">
<feFlood flood-opacity="0" result="BackgroundImageFix"/>
<feColorMatrix in="SourceAlpha" type="matrix" values="0 0 0 0 0 0 0 0 0 0 0 0 0 0 0 0 0 0 127 0" result="hardAlpha"/>
<feOffset dy="3"/>
<feGaussianBlur stdDeviation="9"/>
<feComposite in2="hardAlpha" operator="out"/>
<feColorMatrix type="matrix" values="0 0 0 0 0 0 0 0 0 0 0 0 0 0 0 0 0 0 0.12 0"/>
<feBlend mode="normal" in2="BackgroundImageFix" result="effect1_dropShadow_25_47"/>
<feBlend mode="normal" in="SourceGraphic" in2="effect1_dropShadow_25_47" result="shape"/>
</filter>
<clipPath id="clip0_25_47">
<rect width="1390" height="270" fill="white"/>
</clipPath>
<clipPath id="clip1_25_47">
<rect width="24" height="24" fill="white" transform="translate(526 147) rotate(-90)"/>
</clipPath>
<clipPath id="clip2_25_47">
<rect width="24" height="24" fill="white" transform="translate(710 123)"/>
</clipPath>
<clipPath id="clip3_25_47">
<rect width="24" height="24" fill="white" transform="translate(710 147) rotate(-90)"/>
</clipPath>
<clipPath id="clip4_25_47">
<rect width="24" height="24" fill="white" transform="translate(985 123)"/>
</clipPath>
<clipPath id="clip5_25_47">
<rect width="24" height="24" fill="white" transform="translate(985 147) rotate(-90)"/>
</clipPath>
<clipPath id="clip6_25_47">
<rect width="24" height="24" fill="white" transform="translate(1150 35)"/>
</clipPath>
<clipPath id="clip7_25_47">
<rect width="24" height="24" fill="white" transform="translate(1150 79)"/>
</clipPath>
<clipPath id="clip8_25_47">
<rect width="24" height="24" fill="white" transform="translate(1150 103) rotate(-90)"/>
</clipPath>
<clipPath id="clip9_25_47">
<rect width="24" height="24" fill="white" transform="translate(1150 123)"/>
</clipPath>
<clipPath id="clip10_25_47">
<rect width="24" height="24" fill="white" transform="translate(1150 147) rotate(-90)"/>
</clipPath>
<clipPath id="clip11_25_47">
<rect width="24" height="24" fill="white" transform="translate(1150 167)"/>
</clipPath>
<clipPath id="clip12_25_47">
<rect width="24" height="24" fill="white" transform="translate(1150 191) rotate(-90)"/>
</clipPath>
<clipPath id="clip13_25_47">
<rect width="20" height="20" fill="white" transform="translate(1152 191) rotate(-90)"/>
</clipPath>
<clipPath id="clip14_25_47">
<rect width="24" height="24" fill="white" transform="translate(1150 211)"/>
</clipPath>
<clipPath id="clip15_25_47">
<rect width="24" height="24" fill="white" transform="translate(1150 235) rotate(-90)"/>
</clipPath>
<clipPath id="clip16_25_47">
<rect width="15" height="15" fill="white" transform="translate(1154 235) rotate(-90)"/>
</clipPath>
</defs>
</svg>
