<svg width="200" height="326" viewBox="0 0 200 326" fill="none" xmlns="http://www.w3.org/2000/svg">
<g clip-path="url(#clip0_9_136)">
<path d="M81.9005 77.5498L64.6074 42.6374C62.1681 37.5846 57.7684 33.7294 52.4544 31.9218C47.1838 30.2666 41.4556 30.7022 36.5117 33.1633C26.1446 38.3033 21.8977 50.8918 27.0378 61.2589L54.5887 116.796L81.9005 77.5498Z" fill="white"/>
<path d="M34.8324 303.12L45.7654 310.808V310.83C63.7772 323.527 86.1011 328.536 107.816 324.747C129.529 320.957 148.848 308.695 161.502 290.64L196.523 240.569C202.599 231.879 200.508 219.922 191.84 213.824C183.194 207.703 171.215 209.751 165.073 218.376L145.123 246.928C144.339 248.061 143.033 248.736 141.661 248.714C140.833 248.714 140.027 248.475 139.308 248.039C137.392 246.711 136.891 244.075 138.198 242.137L141.421 237.672L158.148 213.693L165.727 202.869H165.749C171.781 194.157 169.647 182.2 160.957 176.123C156.797 173.183 151.657 172.029 146.648 172.9C141.639 173.771 137.196 176.624 134.299 180.806L114.35 209.359V209.337C113.522 210.448 112.259 211.101 110.887 211.123C110.016 211.101 109.166 210.818 108.426 210.339C107.511 209.729 106.901 208.749 106.705 207.66C106.531 206.571 106.792 205.46 107.424 204.546L110.538 199.972L127.374 175.993L134.953 165.168L134.975 165.19C141.007 156.457 138.873 144.5 130.183 138.423L114.459 127.381L86.6897 167.085C85.3611 169.001 82.7476 169.459 80.8309 168.152C78.9143 166.823 78.4351 164.188 79.7637 162.293L109.994 119.148L172.328 30.051V30.0293C175.551 25.3902 176.575 19.5534 175.116 14.0648C173.657 8.59819 169.867 4.04615 164.749 1.60686C155.797 -2.20452 145.431 0.95346 140.094 9.07696L14.8622 188.04C2.38252 206.009 -2.51782 228.158 1.22838 249.7C4.95267 271.24 17.0386 290.422 34.8324 303.12Z" fill="white"/>
</g>
<defs>
<clipPath id="clip0_9_136">
<rect width="200" height="326" fill="white"/>
</clipPath>
</defs>
</svg>
