<svg width="140" height="228" viewBox="0 0 140 228" fill="none" xmlns="http://www.w3.org/2000/svg">
<g clip-path="url(#clip0_9_136)">
<path d="M57.3304 54.2849L45.2252 29.8463C43.5177 26.3093 40.438 23.6107 36.7181 22.3453C33.0287 21.1867 29.0189 21.4916 25.5583 23.2144C18.3013 26.8123 15.3284 35.6243 18.9265 42.8813L38.2122 81.7574L57.3304 54.2849Z" fill="white"/>
<path d="M24.3827 212.184L32.0358 217.565V217.581C44.644 226.469 60.2708 229.975 75.4709 227.323C90.6706 224.67 104.194 216.087 113.051 203.448L137.566 168.398C141.819 162.315 140.356 153.945 134.288 149.677C128.236 145.392 119.851 146.826 115.551 152.863L101.586 172.85C101.038 173.643 100.123 174.115 99.1624 174.1C98.583 174.1 98.0189 173.932 97.5158 173.627C96.1742 172.697 95.8236 170.853 96.7383 169.496L98.9947 166.37L110.703 149.585L116.009 142.008H116.024C120.247 135.91 118.753 127.54 112.67 123.286C109.758 121.228 106.16 120.42 102.654 121.03C99.1472 121.64 96.0372 123.637 94.0096 126.564L80.0448 146.551V146.536C79.4654 147.314 78.5812 147.771 77.6207 147.786C77.0109 147.771 76.4163 147.573 75.8979 147.237C75.2576 146.81 74.8307 146.124 74.6936 145.362C74.5716 144.6 74.7545 143.822 75.1967 143.182L77.3768 139.98L89.1615 123.195L94.4671 115.618L94.4823 115.633C98.7052 109.52 97.2113 101.15 91.1283 96.8962L80.121 89.1666L60.6828 116.959C59.7528 118.301 57.9233 118.621 56.5816 117.706C55.24 116.776 54.9046 114.932 55.8346 113.605L76.9955 83.4036L120.63 21.0357V21.0205C122.886 17.7732 123.603 13.6874 122.581 9.84539C121.56 6.01874 118.907 2.83231 115.324 1.1248C109.058 -1.54316 101.801 0.667422 98.066 6.35387L10.4036 131.628C1.66777 144.206 -1.76247 159.711 0.859867 174.79C3.46687 189.868 11.927 203.296 24.3827 212.184Z" fill="white"/>
</g>
<defs>
<clipPath id="clip0_9_136">
<rect width="140" height="228" fill="white"/>
</clipPath>
</defs>
</svg>
