<svg width="110" height="170" viewBox="0 0 110 170" fill="none" xmlns="http://www.w3.org/2000/svg">
<g clip-path="url(#clip0_15_248)">
<path d="M45.0455 33.5147L35.5343 14.313C34.1927 11.5339 31.7728 9.41355 28.8501 8.41938C25.9513 7.50899 22.8007 7.74857 20.0816 9.10218C14.3797 11.9292 12.0439 18.8529 14.871 24.5548L30.024 55.1003L45.0455 33.5147Z" fill="white"/>
<path d="M19.1578 157.578L25.171 161.807V161.819C35.0775 168.802 47.3556 171.557 59.2985 169.473C71.2412 167.389 81.8665 160.645 88.826 150.714L108.088 123.175C111.429 118.396 110.28 111.82 105.512 108.465C100.757 105.099 94.1684 106.225 90.7903 110.969L79.8179 126.673C79.3867 127.296 78.6679 127.667 77.9133 127.655C77.4581 127.655 77.0149 127.524 76.6196 127.284C75.5654 126.553 75.2899 125.104 76.0087 124.038L77.7815 121.582L86.9811 108.393L91.1498 102.44H91.1618C94.4798 97.6486 93.306 91.0724 88.5265 87.7302C86.2385 86.113 83.4115 85.4782 80.6565 85.9573C77.9014 86.4365 75.4578 88.0057 73.8647 90.3057L62.8923 106.01V105.998C62.4371 106.609 61.7423 106.968 60.9877 106.98C60.5086 106.968 60.0414 106.812 59.6341 106.549C59.131 106.213 58.7956 105.674 58.6878 105.075C58.592 104.477 58.7357 103.866 59.0831 103.363L60.796 100.847L70.0555 87.6584L74.2241 81.705L74.2361 81.717C77.5541 76.9136 76.3803 70.3374 71.6008 66.9951L62.9522 60.9218L47.6793 82.759C46.9486 83.8131 45.5112 84.0647 44.457 83.346C43.4029 82.6153 43.1393 81.1658 43.87 80.1236L60.4965 56.3938L83.6786 19.9303L85.6429 16.5161C87.4157 13.9646 87.9787 10.7544 87.1761 7.73565C86.3736 4.729 84.2893 2.22538 81.4742 0.883766C76.5509 -1.21249 70.8492 0.524397 67.9143 4.99232L8.17423 94.2846C1.31039 104.167 -1.3848 116.349 0.67561 128.198C2.72397 140.045 9.37124 150.595 19.1578 157.578Z" fill="white"/>
</g>
<defs>
<clipPath id="clip0_15_248">
<rect width="110" height="170" fill="white"/>
</clipPath>
</defs>
</svg>
