<svg width="369" height="600" viewBox="0 0 369 600" fill="none" xmlns="http://www.w3.org/2000/svg">
<g clip-path="url(#clip0_9_121)">
<path d="M150.745 142.737L118.916 78.4782C114.426 69.178 106.328 62.0821 96.547 58.7551C86.8459 55.7084 76.3026 56.5102 67.203 61.0401C48.1214 70.5007 40.3046 93.671 49.7654 112.753L100.475 214.974L150.745 142.737Z" fill="#4A4A4A"/>
<path d="M64.1122 557.92L84.2355 572.07V572.11C117.388 595.481 158.477 604.701 198.444 597.726C238.411 590.751 273.969 568.182 297.259 534.95L361.718 442.789C372.902 426.794 369.054 404.787 353.1 393.562C337.185 382.297 315.137 386.066 303.833 401.94L267.113 454.494C265.67 456.579 263.265 457.822 260.739 457.782C259.216 457.782 257.733 457.341 256.41 456.539C252.882 454.094 251.96 449.243 254.365 445.675L260.298 437.457L291.085 393.321L305.036 373.398H305.076C316.18 357.363 312.251 335.356 296.257 324.171C288.6 318.759 279.139 316.635 269.919 318.238C260.699 319.842 252.522 325.093 247.191 332.79L210.471 385.344V385.304C208.948 387.349 206.623 388.551 204.097 388.591C202.494 388.551 200.93 388.03 199.567 387.148C197.884 386.026 196.761 384.222 196.401 382.218C196.08 380.213 196.561 378.169 197.723 376.485L203.456 368.067L234.443 323.931L248.393 304.008L248.433 304.048C259.537 287.973 255.609 265.965 239.614 254.781L210.672 234.456L159.56 307.535C157.115 311.063 152.305 311.904 148.777 309.499C145.249 307.054 144.367 302.203 146.812 298.716L202.453 219.303L317.186 55.3117V55.2716C323.119 46.7331 325.003 35.9898 322.317 25.8876C319.631 15.8258 312.656 7.44732 303.235 2.95757C286.759 -4.05762 267.678 1.75493 257.856 16.707L27.3553 346.106C4.38525 379.178 -4.63428 419.946 2.26095 459.596C9.11585 499.243 31.3611 534.549 64.1122 557.92Z" fill="#4A4A4A"/>
</g>
<defs>
<clipPath id="clip0_9_121">
<rect width="368.118" height="600" fill="white"/>
</clipPath>
</defs>
</svg>
