<svg width="1907" height="1844" viewBox="0 0 1907 1844" fill="none" xmlns="http://www.w3.org/2000/svg">
<rect width="1907" height="1844" fill="#652763"/>
<mask id="path-1-inside-1_1_2" fill="white">
<rect x="128" y="796" width="91" height="91" rx="2"/>
</mask>
<rect x="128" y="796" width="91" height="91" rx="2" stroke="white" stroke-width="20" mask="url(#path-1-inside-1_1_2)"/>
<path d="M168.528 861C167.074 861.002 165.677 860.424 164.651 859.391L148.608 843.331C146.464 841.185 146.464 837.709 148.608 835.563C150.749 833.419 154.224 833.419 156.365 835.563L168.528 847.739L191.636 824.609C192.665 823.579 194.059 823 195.513 823C196.969 823 198.363 823.579 199.392 824.609C201.536 826.755 201.536 830.231 199.392 832.377L172.407 859.391C171.381 860.424 169.984 861.002 168.528 861Z" fill="white"/>
<path d="M291.457 831.895H281.23C280.939 830.217 280.401 828.732 279.617 827.437C278.833 826.125 277.858 825.013 276.691 824.102C275.525 823.19 274.194 822.507 272.699 822.051C271.223 821.577 269.628 821.34 267.914 821.34C264.87 821.34 262.172 822.105 259.82 823.637C257.469 825.15 255.628 827.374 254.297 830.309C252.966 833.225 252.301 836.789 252.301 841C252.301 845.284 252.966 848.893 254.297 851.828C255.646 854.745 257.487 856.951 259.82 858.445C262.172 859.922 264.861 860.66 267.887 860.66C269.564 860.66 271.132 860.441 272.59 860.004C274.066 859.548 275.388 858.883 276.555 858.008C277.74 857.133 278.733 856.057 279.535 854.781C280.355 853.505 280.921 852.047 281.23 850.406L291.457 850.461C291.074 853.122 290.245 855.62 288.969 857.953C287.711 860.286 286.061 862.346 284.02 864.133C281.978 865.901 279.59 867.286 276.855 868.289C274.121 869.273 271.086 869.766 267.75 869.766C262.828 869.766 258.435 868.626 254.57 866.348C250.706 864.069 247.661 860.779 245.438 856.477C243.214 852.174 242.102 847.016 242.102 841C242.102 834.966 243.223 829.807 245.465 825.523C247.707 821.221 250.76 817.931 254.625 815.652C258.49 813.374 262.865 812.234 267.75 812.234C270.867 812.234 273.766 812.672 276.445 813.547C279.125 814.422 281.513 815.707 283.609 817.402C285.706 819.079 287.428 821.139 288.777 823.582C290.145 826.007 291.038 828.777 291.457 831.895ZM310.208 844.391V869H300.31V813H309.989V834.137H310.481C311.466 831.767 312.988 829.898 315.048 828.531C317.126 827.146 319.769 826.453 322.978 826.453C325.894 826.453 328.437 827.064 330.606 828.285C332.776 829.507 334.453 831.293 335.638 833.645C336.841 835.996 337.442 838.867 337.442 842.258V869H327.544V843.789C327.544 840.964 326.815 838.767 325.356 837.199C323.916 835.613 321.893 834.82 319.286 834.82C317.536 834.82 315.968 835.203 314.583 835.969C313.216 836.716 312.14 837.801 311.356 839.223C310.591 840.645 310.208 842.367 310.208 844.391ZM366.126 869.82C361.915 869.82 358.278 868.945 355.216 867.195C352.172 865.427 349.829 862.93 348.188 859.703C346.548 856.458 345.728 852.639 345.728 848.246C345.728 843.926 346.548 840.134 348.188 836.871C349.847 833.59 352.162 831.038 355.134 829.215C358.105 827.374 361.596 826.453 365.606 826.453C368.195 826.453 370.638 826.872 372.935 827.711C375.25 828.531 377.291 829.807 379.06 831.539C380.846 833.271 382.25 835.477 383.271 838.156C384.291 840.818 384.802 843.99 384.802 847.672V850.707H350.376V844.035H375.313C375.295 842.139 374.885 840.453 374.083 838.977C373.281 837.482 372.16 836.306 370.72 835.449C369.298 834.592 367.639 834.164 365.743 834.164C363.72 834.164 361.942 834.656 360.411 835.641C358.88 836.607 357.686 837.883 356.829 839.469C355.991 841.036 355.562 842.759 355.544 844.637V850.461C355.544 852.904 355.991 855 356.884 856.75C357.777 858.482 359.026 859.812 360.63 860.742C362.234 861.654 364.112 862.109 366.263 862.109C367.703 862.109 369.006 861.909 370.173 861.508C371.34 861.089 372.351 860.478 373.208 859.676C374.065 858.874 374.712 857.88 375.149 856.695L384.392 857.734C383.808 860.177 382.696 862.31 381.056 864.133C379.433 865.937 377.355 867.341 374.821 868.344C372.287 869.328 369.389 869.82 366.126 869.82ZM411.496 869.82C407.303 869.82 403.703 868.9 400.695 867.059C397.706 865.217 395.4 862.674 393.777 859.43C392.173 856.167 391.371 852.411 391.371 848.164C391.371 843.898 392.191 840.134 393.832 836.871C395.473 833.59 397.788 831.038 400.777 829.215C403.785 827.374 407.34 826.453 411.441 826.453C414.85 826.453 417.867 827.082 420.492 828.34C423.135 829.579 425.241 831.339 426.809 833.617C428.376 835.878 429.27 838.521 429.488 841.547H420.027C419.645 839.523 418.733 837.837 417.293 836.488C415.871 835.121 413.966 834.437 411.578 834.437C409.555 834.437 407.777 834.984 406.246 836.078C404.715 837.154 403.521 838.703 402.664 840.727C401.826 842.75 401.406 845.174 401.406 848C401.406 850.862 401.826 853.323 402.664 855.383C403.503 857.424 404.678 859.001 406.191 860.113C407.723 861.207 409.518 861.754 411.578 861.754C413.036 861.754 414.34 861.48 415.488 860.934C416.655 860.368 417.63 859.557 418.414 858.5C419.198 857.443 419.736 856.158 420.027 854.645H429.488C429.251 857.616 428.376 860.25 426.863 862.547C425.35 864.826 423.29 866.612 420.684 867.906C418.077 869.182 415.014 869.82 411.496 869.82ZM446.64 855.82L446.612 843.871H448.198L463.292 827H474.858L456.292 847.672H454.241L446.64 855.82ZM437.616 869V813H447.515V869H437.616ZM463.976 869L450.304 849.887L456.976 842.914L475.815 869H463.976ZM481.893 869V813H491.791V833.945H492.201C492.712 832.924 493.432 831.84 494.361 830.691C495.291 829.525 496.549 828.531 498.135 827.711C499.721 826.872 501.744 826.453 504.205 826.453C507.45 826.453 510.376 827.283 512.982 828.941C515.607 830.582 517.686 833.016 519.217 836.242C520.766 839.451 521.541 843.388 521.541 848.055C521.541 852.667 520.785 856.586 519.271 859.812C517.758 863.039 515.699 865.5 513.092 867.195C510.485 868.891 507.532 869.738 504.232 869.738C501.826 869.738 499.83 869.337 498.244 868.535C496.658 867.733 495.382 866.767 494.416 865.637C493.468 864.488 492.73 863.404 492.201 862.383H491.627V869H481.893ZM491.6 848C491.6 850.716 491.982 853.095 492.748 855.137C493.532 857.178 494.653 858.773 496.111 859.922C497.588 861.052 499.374 861.617 501.471 861.617C503.658 861.617 505.49 861.034 506.967 859.867C508.443 858.682 509.555 857.069 510.303 855.027C511.068 852.967 511.451 850.625 511.451 848C511.451 845.393 511.077 843.078 510.33 841.055C509.583 839.031 508.471 837.445 506.994 836.297C505.518 835.148 503.676 834.574 501.471 834.574C499.356 834.574 497.561 835.13 496.084 836.242C494.607 837.354 493.486 838.913 492.721 840.918C491.973 842.923 491.6 845.284 491.6 848ZM548.276 869.82C544.175 869.82 540.62 868.918 537.612 867.113C534.604 865.309 532.271 862.784 530.612 859.539C528.972 856.294 528.151 852.503 528.151 848.164C528.151 843.826 528.972 840.025 530.612 836.762C532.271 833.499 534.604 830.965 537.612 829.16C540.62 827.355 544.175 826.453 548.276 826.453C552.378 826.453 555.933 827.355 558.94 829.16C561.948 830.965 564.272 833.499 565.913 836.762C567.572 840.025 568.401 843.826 568.401 848.164C568.401 852.503 567.572 856.294 565.913 859.539C564.272 862.784 561.948 865.309 558.94 867.113C555.933 868.918 552.378 869.82 548.276 869.82ZM548.331 861.891C550.555 861.891 552.414 861.28 553.909 860.059C555.404 858.819 556.516 857.16 557.245 855.082C557.993 853.004 558.366 850.689 558.366 848.137C558.366 845.566 557.993 843.242 557.245 841.164C556.516 839.068 555.404 837.4 553.909 836.16C552.414 834.921 550.555 834.301 548.331 834.301C546.052 834.301 544.157 834.921 542.644 836.16C541.149 837.4 540.028 839.068 539.28 841.164C538.551 843.242 538.187 845.566 538.187 848.137C538.187 850.689 538.551 853.004 539.28 855.082C540.028 857.16 541.149 858.819 542.644 860.059C544.157 861.28 546.052 861.891 548.331 861.891ZM583.317 827L591.794 842.504L600.407 827H610.88L598.22 848L611.099 869H600.681L591.794 853.879L582.989 869H572.489L585.286 848L572.817 827H583.317ZM635.551 869.82C631.34 869.82 627.703 868.945 624.641 867.195C621.596 865.427 619.254 862.93 617.613 859.703C615.973 856.458 615.152 852.639 615.152 848.246C615.152 843.926 615.973 840.134 617.613 836.871C619.272 833.59 621.587 831.038 624.559 829.215C627.53 827.374 631.021 826.453 635.031 826.453C637.62 826.453 640.063 826.872 642.359 827.711C644.674 828.531 646.716 829.807 648.484 831.539C650.271 833.271 651.674 835.477 652.695 838.156C653.716 840.818 654.227 843.99 654.227 847.672V850.707H619.801V844.035H644.738C644.72 842.139 644.31 840.453 643.508 838.977C642.706 837.482 641.585 836.306 640.145 835.449C638.723 834.592 637.064 834.164 635.168 834.164C633.145 834.164 631.367 834.656 629.836 835.641C628.305 836.607 627.111 837.883 626.254 839.469C625.415 841.036 624.987 842.759 624.969 844.637V850.461C624.969 852.904 625.415 855 626.309 856.75C627.202 858.482 628.451 859.812 630.055 860.742C631.659 861.654 633.536 862.109 635.688 862.109C637.128 862.109 638.431 861.909 639.598 861.508C640.764 861.089 641.776 860.478 642.633 859.676C643.49 858.874 644.137 857.88 644.574 856.695L653.816 857.734C653.233 860.177 652.121 862.31 650.48 864.133C648.858 865.937 646.78 867.341 644.246 868.344C641.712 869.328 638.814 869.82 635.551 869.82ZM695.796 838.102L686.772 839.086C686.517 838.174 686.071 837.318 685.433 836.516C684.813 835.714 683.974 835.066 682.917 834.574C681.86 834.082 680.565 833.836 679.034 833.836C676.974 833.836 675.243 834.283 673.839 835.176C672.453 836.069 671.77 837.227 671.788 838.648C671.77 839.87 672.216 840.863 673.128 841.629C674.058 842.395 675.589 843.023 677.722 843.516L684.886 845.047C688.86 845.904 691.813 847.262 693.745 849.121C695.696 850.98 696.68 853.414 696.698 856.422C696.68 859.065 695.905 861.398 694.374 863.422C692.861 865.427 690.756 866.995 688.058 868.125C685.36 869.255 682.261 869.82 678.761 869.82C673.62 869.82 669.482 868.745 666.347 866.594C663.211 864.424 661.343 861.408 660.741 857.543L670.394 856.613C670.831 858.509 671.761 859.94 673.183 860.906C674.604 861.872 676.455 862.355 678.733 862.355C681.085 862.355 682.972 861.872 684.394 860.906C685.834 859.94 686.554 858.746 686.554 857.324C686.554 856.121 686.089 855.128 685.159 854.344C684.248 853.56 682.826 852.958 680.894 852.539L673.729 851.035C669.701 850.197 666.72 848.784 664.788 846.797C662.856 844.792 661.899 842.258 661.917 839.195C661.899 836.607 662.601 834.365 664.022 832.469C665.463 830.555 667.459 829.078 670.011 828.039C672.581 826.982 675.543 826.453 678.897 826.453C683.819 826.453 687.693 827.501 690.519 829.598C693.362 831.694 695.121 834.529 695.796 838.102Z" fill="white"/>
<rect x="1038" y="221" width="741" height="140" rx="6" fill="white"/>
<path d="M1060.04 136.818V187H1050.95V136.818H1060.04ZM1078.36 164.947V187H1069.49V149.364H1077.97V155.759H1078.41C1079.28 153.652 1080.66 151.977 1082.55 150.736C1084.46 149.494 1086.82 148.874 1089.63 148.874C1092.23 148.874 1094.49 149.429 1096.42 150.54C1098.36 151.651 1099.87 153.26 1100.93 155.367C1102.01 157.474 1102.54 160.031 1102.52 163.036V187H1093.65V164.408C1093.65 161.893 1093 159.924 1091.69 158.503C1090.4 157.082 1088.61 156.371 1086.33 156.371C1084.77 156.371 1083.39 156.714 1082.18 157.401C1080.99 158.07 1080.05 159.042 1079.37 160.316C1078.7 161.591 1078.36 163.134 1078.36 164.947ZM1111.54 201.114V149.364H1120.26V155.587H1120.78C1121.23 154.673 1121.88 153.701 1122.71 152.672C1123.55 151.626 1124.67 150.736 1126.09 150.001C1127.51 149.249 1129.33 148.874 1131.53 148.874C1134.44 148.874 1137.06 149.617 1139.4 151.103C1141.75 152.574 1143.61 154.754 1144.99 157.646C1146.37 160.521 1147.07 164.049 1147.07 168.231C1147.07 172.364 1146.39 175.876 1145.03 178.767C1143.68 181.658 1141.83 183.864 1139.5 185.383C1137.16 186.902 1134.51 187.662 1131.56 187.662C1129.4 187.662 1127.61 187.302 1126.19 186.583C1124.77 185.865 1123.63 184.999 1122.76 183.986C1121.91 182.957 1121.25 181.985 1120.78 181.07H1120.41V201.114H1111.54ZM1120.24 168.182C1120.24 170.616 1120.58 172.748 1121.27 174.577C1121.97 176.407 1122.97 177.836 1124.28 178.865C1125.6 179.878 1127.2 180.384 1129.08 180.384C1131.04 180.384 1132.68 179.862 1134.01 178.816C1135.33 177.754 1136.33 176.309 1137 174.479C1137.68 172.633 1138.03 170.534 1138.03 168.182C1138.03 165.846 1137.69 163.771 1137.02 161.958C1136.35 160.145 1135.36 158.724 1134.03 157.695C1132.71 156.665 1131.06 156.151 1129.08 156.151C1127.19 156.151 1125.58 156.649 1124.26 157.646C1122.93 158.642 1121.93 160.039 1121.24 161.836C1120.57 163.632 1120.24 165.748 1120.24 168.182ZM1178.65 171.171V149.364H1187.52V187H1178.92V180.311H1178.53C1177.68 182.418 1176.28 184.141 1174.34 185.481C1172.41 186.82 1170.04 187.49 1167.21 187.49C1164.74 187.49 1162.56 186.943 1160.67 185.848C1158.79 184.738 1157.32 183.129 1156.26 181.021C1155.19 178.898 1154.66 176.333 1154.66 173.327V149.364H1163.53V171.955C1163.53 174.34 1164.19 176.235 1165.49 177.64C1166.8 179.045 1168.52 179.747 1170.64 179.747C1171.95 179.747 1173.21 179.429 1174.44 178.792C1175.66 178.154 1176.67 177.207 1177.45 175.949C1178.25 174.675 1178.65 173.082 1178.65 171.171ZM1215.44 149.364V156.224H1193.8V149.364H1215.44ZM1199.14 140.347H1208.01V175.68C1208.01 176.872 1208.19 177.787 1208.55 178.424C1208.93 179.045 1209.42 179.469 1210.02 179.698C1210.63 179.927 1211.3 180.041 1212.03 180.041C1212.59 180.041 1213.09 180 1213.55 179.919C1214.02 179.837 1214.38 179.763 1214.63 179.698L1216.12 186.632C1215.65 186.796 1214.97 186.975 1214.09 187.172C1213.22 187.368 1212.16 187.482 1210.9 187.515C1208.68 187.58 1206.68 187.245 1204.9 186.51C1203.12 185.759 1201.71 184.599 1200.66 183.031C1199.63 181.462 1199.13 179.502 1199.14 177.15V140.347ZM1252.06 159.312L1243.98 160.194C1243.75 159.377 1243.35 158.609 1242.78 157.891C1242.22 157.172 1241.47 156.592 1240.52 156.151C1239.57 155.71 1238.41 155.489 1237.04 155.489C1235.2 155.489 1233.64 155.89 1232.39 156.69C1231.15 157.49 1230.53 158.528 1230.55 159.802C1230.53 160.896 1230.93 161.787 1231.75 162.473C1232.58 163.159 1233.96 163.722 1235.87 164.163L1242.29 165.536C1245.85 166.303 1248.49 167.52 1250.23 169.186C1251.97 170.853 1252.86 173.033 1252.87 175.729C1252.86 178.097 1252.16 180.188 1250.79 182.001C1249.43 183.798 1247.55 185.203 1245.13 186.216C1242.71 187.229 1239.93 187.735 1236.8 187.735C1232.19 187.735 1228.48 186.771 1225.67 184.844C1222.86 182.9 1221.19 180.196 1220.65 176.733L1229.3 175.9C1229.69 177.599 1230.52 178.881 1231.8 179.747C1233.07 180.613 1234.73 181.046 1236.77 181.046C1238.88 181.046 1240.57 180.613 1241.85 179.747C1243.14 178.881 1243.78 177.811 1243.78 176.537C1243.78 175.459 1243.36 174.569 1242.53 173.866C1241.71 173.164 1240.44 172.625 1238.71 172.249L1232.29 170.902C1228.68 170.15 1226.01 168.884 1224.28 167.104C1222.55 165.307 1221.69 163.036 1221.7 160.292C1221.69 157.972 1222.32 155.963 1223.59 154.264C1224.88 152.549 1226.67 151.226 1228.96 150.295C1231.26 149.347 1233.91 148.874 1236.92 148.874C1241.33 148.874 1244.8 149.813 1247.33 151.691C1249.88 153.57 1251.46 156.11 1252.06 159.312Z" fill="white"/>
<rect x="128" y="1104" width="741" height="140" rx="6" fill="white"/>
<path d="M789.464 1196C787.924 1198.67 784.076 1198.67 782.536 1196L759.153 1155.5C757.614 1152.83 759.538 1149.5 762.617 1149.5L809.383 1149.5C812.462 1149.5 814.386 1152.83 812.847 1155.5L789.464 1196Z" fill="#652763"/>
<path d="M168.221 1033.61C167.993 1031.47 167.029 1029.81 165.33 1028.61C163.647 1027.42 161.458 1026.83 158.763 1026.83C156.868 1026.83 155.243 1027.11 153.887 1027.68C152.531 1028.26 151.494 1029.03 150.775 1030.01C150.056 1030.99 149.689 1032.11 149.673 1033.37C149.673 1034.41 149.909 1035.32 150.383 1036.09C150.873 1036.86 151.535 1037.51 152.368 1038.05C153.201 1038.57 154.124 1039.01 155.137 1039.37C156.15 1039.73 157.17 1040.03 158.2 1040.28L162.904 1041.45C164.799 1041.9 166.62 1042.49 168.368 1043.24C170.132 1043.99 171.709 1044.94 173.097 1046.09C174.502 1047.23 175.613 1048.61 176.43 1050.23C177.246 1051.84 177.655 1053.74 177.655 1055.91C177.655 1058.85 176.903 1061.44 175.401 1063.68C173.898 1065.9 171.725 1067.64 168.883 1068.9C166.057 1070.14 162.635 1070.76 158.616 1070.76C154.712 1070.76 151.322 1070.16 148.447 1068.95C145.589 1067.74 143.351 1065.97 141.734 1063.65C140.133 1061.33 139.267 1058.51 139.136 1055.18H148.08C148.211 1056.92 148.75 1058.38 149.697 1059.54C150.645 1060.7 151.878 1061.56 153.397 1062.13C154.933 1062.71 156.648 1062.99 158.543 1062.99C160.519 1062.99 162.251 1062.7 163.737 1062.11C165.24 1061.51 166.416 1060.67 167.266 1059.61C168.115 1058.53 168.548 1057.27 168.564 1055.84C168.548 1054.53 168.164 1053.45 167.413 1052.6C166.661 1051.74 165.608 1051.02 164.252 1050.45C162.912 1049.86 161.344 1049.34 159.547 1048.88L153.838 1047.41C149.705 1046.35 146.438 1044.74 144.037 1042.58C141.652 1040.41 140.46 1037.53 140.46 1033.93C140.46 1030.98 141.26 1028.39 142.861 1026.16C144.478 1023.94 146.675 1022.22 149.452 1020.99C152.229 1019.75 155.374 1019.13 158.886 1019.13C162.447 1019.13 165.567 1019.75 168.246 1020.99C170.941 1022.22 173.056 1023.93 174.592 1026.12C176.127 1028.29 176.92 1030.79 176.969 1033.61H168.221ZM202.029 1070.74C198.256 1070.74 194.997 1069.95 192.252 1068.38C189.524 1066.8 187.425 1064.56 185.955 1061.67C184.485 1058.76 183.75 1055.34 183.75 1051.4C183.75 1047.53 184.485 1044.13 185.955 1041.21C187.442 1038.27 189.516 1035.98 192.179 1034.35C194.842 1032.7 197.97 1031.87 201.563 1031.87C203.883 1031.87 206.072 1032.25 208.13 1033C210.205 1033.74 212.034 1034.88 213.619 1036.43C215.22 1037.98 216.478 1039.96 217.392 1042.36C218.307 1044.75 218.764 1047.59 218.764 1050.89V1053.61H187.915V1047.63H210.262C210.246 1045.93 209.878 1044.42 209.159 1043.1C208.441 1041.76 207.436 1040.7 206.146 1039.94C204.871 1039.17 203.385 1038.78 201.686 1038.78C199.873 1038.78 198.28 1039.22 196.908 1040.11C195.536 1040.97 194.466 1042.12 193.698 1043.54C192.947 1044.94 192.563 1046.49 192.546 1048.17V1053.39C192.546 1055.58 192.947 1057.45 193.747 1059.02C194.547 1060.57 195.666 1061.77 197.104 1062.6C198.541 1063.42 200.224 1063.83 202.152 1063.83C203.442 1063.83 204.61 1063.65 205.655 1063.29C206.701 1062.91 207.608 1062.36 208.375 1061.64C209.143 1060.93 209.723 1060.04 210.115 1058.97L218.397 1059.9C217.874 1062.09 216.878 1064 215.408 1065.64C213.954 1067.26 212.092 1068.51 209.821 1069.41C207.55 1070.29 204.953 1070.74 202.029 1070.74ZM235.138 1019.82V1070H226.268V1019.82H235.138ZM260.922 1070.74C257.148 1070.74 253.889 1069.95 251.145 1068.38C248.417 1066.8 246.318 1064.56 244.848 1061.67C243.378 1058.76 242.642 1055.34 242.642 1051.4C242.642 1047.53 243.378 1044.13 244.848 1041.21C246.334 1038.27 248.409 1035.98 251.071 1034.35C253.734 1032.7 256.862 1031.87 260.456 1031.87C262.776 1031.87 264.965 1032.25 267.023 1033C269.097 1033.74 270.927 1034.88 272.511 1036.43C274.112 1037.98 275.37 1039.96 276.285 1042.36C277.2 1044.75 277.657 1047.59 277.657 1050.89V1053.61H246.808V1047.63H269.155C269.138 1045.93 268.771 1044.42 268.052 1043.1C267.333 1041.76 266.329 1040.7 265.038 1039.94C263.764 1039.17 262.277 1038.78 260.579 1038.78C258.765 1038.78 257.173 1039.22 255.801 1040.11C254.428 1040.97 253.358 1042.12 252.591 1043.54C251.839 1044.94 251.455 1046.49 251.439 1048.17V1053.39C251.439 1055.58 251.839 1057.45 252.64 1059.02C253.44 1060.57 254.559 1061.77 255.997 1062.6C257.434 1063.42 259.117 1063.83 261.044 1063.83C262.335 1063.83 263.503 1063.65 264.548 1063.29C265.593 1062.91 266.5 1062.36 267.268 1061.64C268.036 1060.93 268.616 1060.04 269.008 1058.97L277.29 1059.9C276.767 1062.09 275.77 1064 274.3 1065.64C272.846 1067.26 270.984 1068.51 268.714 1069.41C266.443 1070.29 263.846 1070.74 260.922 1070.74ZM301.578 1070.74C297.821 1070.74 294.595 1069.91 291.899 1068.26C289.22 1066.61 287.154 1064.33 285.7 1061.42C284.263 1058.5 283.544 1055.13 283.544 1051.33C283.544 1047.51 284.279 1044.13 285.749 1041.21C287.219 1038.27 289.294 1035.98 291.973 1034.35C294.668 1032.7 297.854 1031.87 301.529 1031.87C304.584 1031.87 307.287 1032.44 309.639 1033.56C312.008 1034.68 313.895 1036.25 315.3 1038.29C316.704 1040.32 317.505 1042.69 317.701 1045.4H309.223C308.88 1043.59 308.063 1042.07 306.773 1040.87C305.498 1039.64 303.791 1039.03 301.651 1039.03C299.838 1039.03 298.246 1039.52 296.873 1040.5C295.501 1041.46 294.431 1042.85 293.664 1044.66C292.912 1046.48 292.536 1048.65 292.536 1051.18C292.536 1053.75 292.912 1055.95 293.664 1057.8C294.415 1059.63 295.469 1061.04 296.824 1062.04C298.197 1063.02 299.806 1063.51 301.651 1063.51C302.958 1063.51 304.126 1063.26 305.155 1062.77C306.201 1062.27 307.075 1061.54 307.777 1060.59C308.48 1059.64 308.961 1058.49 309.223 1057.14H317.701C317.488 1059.8 316.704 1062.16 315.349 1064.22C313.993 1066.26 312.147 1067.86 309.811 1069.02C307.475 1070.16 304.731 1070.74 301.578 1070.74ZM343.778 1032.36V1039.22H322.142V1032.36H343.778ZM327.484 1023.35H336.354V1058.68C336.354 1059.87 336.533 1060.79 336.893 1061.42C337.268 1062.04 337.758 1062.47 338.363 1062.7C338.967 1062.93 339.637 1063.04 340.372 1063.04C340.927 1063.04 341.434 1063 341.891 1062.92C342.365 1062.84 342.724 1062.76 342.969 1062.7L344.464 1069.63C343.99 1069.8 343.312 1069.98 342.43 1070.17C341.565 1070.37 340.503 1070.48 339.245 1070.51C337.023 1070.58 335.022 1070.25 333.242 1069.51C331.461 1068.76 330.048 1067.6 329.003 1066.03C327.974 1064.46 327.467 1062.5 327.484 1060.15V1023.35ZM380.404 1042.31L372.318 1043.19C372.089 1042.38 371.689 1041.61 371.117 1040.89C370.562 1040.17 369.81 1039.59 368.863 1039.15C367.915 1038.71 366.756 1038.49 365.383 1038.49C363.537 1038.49 361.986 1038.89 360.728 1039.69C359.486 1040.49 358.874 1041.53 358.89 1042.8C358.874 1043.9 359.274 1044.79 360.091 1045.47C360.924 1046.16 362.296 1046.72 364.207 1047.16L370.627 1048.54C374.188 1049.3 376.834 1050.52 378.566 1052.19C380.314 1053.85 381.196 1056.03 381.212 1058.73C381.196 1061.1 380.502 1063.19 379.129 1065C377.774 1066.8 375.887 1068.2 373.469 1069.22C371.052 1070.23 368.275 1070.74 365.138 1070.74C360.532 1070.74 356.824 1069.77 354.014 1067.84C351.204 1065.9 349.53 1063.2 348.991 1059.73L357.64 1058.9C358.032 1060.6 358.866 1061.88 360.14 1062.75C361.414 1063.61 363.072 1064.05 365.114 1064.05C367.221 1064.05 368.912 1063.61 370.186 1062.75C371.476 1061.88 372.122 1060.81 372.122 1059.54C372.122 1058.46 371.705 1057.57 370.872 1056.87C370.055 1056.16 368.781 1055.62 367.05 1055.25L360.63 1053.9C357.02 1053.15 354.349 1051.88 352.617 1050.1C350.886 1048.31 350.028 1046.04 350.045 1043.29C350.028 1040.97 350.657 1038.96 351.931 1037.26C353.222 1035.55 355.01 1034.23 357.297 1033.29C359.601 1032.35 362.255 1031.87 365.261 1031.87C369.671 1031.87 373.143 1032.81 375.675 1034.69C378.223 1036.57 379.799 1039.11 380.404 1042.31Z" fill="white"/>
<path d="M128 1591C128 1577.75 138.745 1567 152 1567H340.775C354.03 1567 364.775 1577.75 364.775 1591V1707H128V1591Z" fill="white"/>
<path d="M167.744 1619.44V1611.82H207.782V1619.44H192.272V1662H183.255V1619.44H167.744ZM220.817 1662.76C218.433 1662.76 216.284 1662.33 214.373 1661.49C212.478 1660.62 210.975 1659.35 209.865 1657.66C208.77 1655.98 208.223 1653.91 208.223 1651.44C208.223 1649.32 208.615 1647.56 209.399 1646.17C210.183 1644.78 211.253 1643.67 212.609 1642.84C213.965 1642.01 215.492 1641.38 217.191 1640.95C218.906 1640.51 220.679 1640.19 222.508 1640C224.713 1639.77 226.502 1639.56 227.874 1639.38C229.246 1639.19 230.243 1638.89 230.864 1638.5C231.501 1638.09 231.819 1637.46 231.819 1636.62V1636.47C231.819 1634.62 231.272 1633.19 230.178 1632.18C229.083 1631.17 227.507 1630.66 225.449 1630.66C223.276 1630.66 221.553 1631.13 220.278 1632.08C219.021 1633.03 218.171 1634.15 217.73 1635.44L209.448 1634.26C210.102 1631.98 211.18 1630.06 212.683 1628.53C214.185 1626.98 216.023 1625.82 218.196 1625.05C220.368 1624.27 222.77 1623.87 225.4 1623.87C227.213 1623.87 229.018 1624.09 230.815 1624.51C232.612 1624.94 234.253 1625.64 235.74 1626.62C237.226 1627.58 238.419 1628.9 239.317 1630.56C240.232 1632.23 240.689 1634.31 240.689 1636.81V1662H232.162V1656.83H231.868C231.329 1657.88 230.57 1658.86 229.589 1659.77C228.626 1660.67 227.409 1661.4 225.939 1661.95C224.485 1662.49 222.778 1662.76 220.817 1662.76ZM223.121 1656.24C224.901 1656.24 226.445 1655.89 227.752 1655.19C229.059 1654.47 230.063 1653.52 230.766 1652.35C231.484 1651.17 231.844 1649.89 231.844 1648.5V1644.06C231.566 1644.29 231.092 1644.5 230.423 1644.7C229.769 1644.9 229.034 1645.07 228.217 1645.22C227.401 1645.36 226.592 1645.49 225.792 1645.61C224.991 1645.72 224.297 1645.82 223.709 1645.9C222.386 1646.08 221.201 1646.38 220.156 1646.78C219.11 1647.19 218.286 1647.76 217.681 1648.5C217.077 1649.22 216.775 1650.15 216.775 1651.29C216.775 1652.93 217.371 1654.16 218.563 1654.99C219.756 1655.83 221.275 1656.24 223.121 1656.24ZM250 1662V1611.82H258.87V1630.59H259.238C259.695 1629.67 260.341 1628.7 261.174 1627.67C262.007 1626.63 263.134 1625.74 264.555 1625C265.976 1624.25 267.789 1623.87 269.995 1623.87C272.902 1623.87 275.524 1624.62 277.86 1626.1C280.212 1627.57 282.075 1629.75 283.447 1632.65C284.835 1635.52 285.529 1639.05 285.529 1643.23C285.529 1647.36 284.852 1650.88 283.496 1653.77C282.14 1656.66 280.294 1658.86 277.958 1660.38C275.622 1661.9 272.976 1662.66 270.019 1662.66C267.863 1662.66 266.074 1662.3 264.653 1661.58C263.232 1660.86 262.088 1660 261.223 1658.99C260.373 1657.96 259.712 1656.99 259.238 1656.07H258.723V1662H250ZM258.699 1643.18C258.699 1645.62 259.042 1647.75 259.728 1649.58C260.43 1651.41 261.435 1652.84 262.742 1653.87C264.065 1654.88 265.666 1655.38 267.544 1655.38C269.505 1655.38 271.146 1654.86 272.469 1653.82C273.793 1652.75 274.789 1651.31 275.459 1649.48C276.145 1647.63 276.488 1645.53 276.488 1643.18C276.488 1640.85 276.153 1638.77 275.483 1636.96C274.814 1635.14 273.817 1633.72 272.494 1632.69C271.171 1631.67 269.521 1631.15 267.544 1631.15C265.65 1631.15 264.04 1631.65 262.717 1632.65C261.394 1633.64 260.39 1635.04 259.703 1636.84C259.034 1638.63 258.699 1640.75 258.699 1643.18ZM322.817 1634.31L314.731 1635.19C314.502 1634.38 314.102 1633.61 313.53 1632.89C312.975 1632.17 312.223 1631.59 311.276 1631.15C310.328 1630.71 309.169 1630.49 307.796 1630.49C305.951 1630.49 304.399 1630.89 303.141 1631.69C301.899 1632.49 301.287 1633.53 301.303 1634.8C301.287 1635.9 301.687 1636.79 302.504 1637.47C303.337 1638.16 304.709 1638.72 306.62 1639.16L313.04 1640.54C316.601 1641.3 319.247 1642.52 320.979 1644.19C322.727 1645.85 323.609 1648.03 323.625 1650.73C323.609 1653.1 322.915 1655.19 321.543 1657C320.187 1658.8 318.3 1660.2 315.882 1661.22C313.465 1662.23 310.688 1662.74 307.551 1662.74C302.945 1662.74 299.237 1661.77 296.427 1659.84C293.617 1657.9 291.943 1655.2 291.404 1651.73L300.054 1650.9C300.446 1652.6 301.279 1653.88 302.553 1654.75C303.827 1655.61 305.485 1656.05 307.527 1656.05C309.634 1656.05 311.325 1655.61 312.599 1654.75C313.889 1653.88 314.535 1652.81 314.535 1651.54C314.535 1650.46 314.118 1649.57 313.285 1648.87C312.468 1648.16 311.194 1647.62 309.463 1647.25L303.043 1645.9C299.433 1645.15 296.762 1643.88 295.03 1642.1C293.299 1640.31 292.441 1638.04 292.458 1635.29C292.441 1632.97 293.07 1630.96 294.344 1629.26C295.635 1627.55 297.424 1626.23 299.71 1625.29C302.014 1624.35 304.668 1623.87 307.674 1623.87C312.084 1623.87 315.556 1624.81 318.088 1626.69C320.636 1628.57 322.212 1631.11 322.817 1634.31Z" fill="#652763"/>
<path d="M380.113 1629C380.113 1615.75 390.858 1605 404.113 1605H592.887C606.142 1605 616.887 1615.75 616.887 1629V1707H380.113V1629Z" fill="white"/>
<path d="M632.225 1629C632.225 1615.75 642.97 1605 656.225 1605H845C858.255 1605 869 1615.75 869 1629V1707H632.225V1629Z" fill="white"/>
<rect x="1038" y="561" width="741" height="326" rx="6" fill="white"/>
<path d="M1048.74 484.439V476.818H1088.78V484.439H1073.27V527H1064.25V484.439H1048.74ZM1107.31 527.735C1103.54 527.735 1100.28 526.951 1097.54 525.383C1094.81 523.798 1092.71 521.56 1091.24 518.669C1089.77 515.761 1089.03 512.339 1089.03 508.402C1089.03 504.531 1089.77 501.133 1091.24 498.209C1092.72 495.269 1094.8 492.982 1097.46 491.348C1100.12 489.699 1103.25 488.874 1106.85 488.874C1109.17 488.874 1111.36 489.249 1113.41 490.001C1115.49 490.736 1117.32 491.879 1118.9 493.431C1120.5 494.983 1121.76 496.96 1122.68 499.361C1123.59 501.746 1124.05 504.588 1124.05 507.888V510.608H1093.2V504.629H1115.55C1115.53 502.93 1115.16 501.419 1114.44 500.096C1113.72 498.756 1112.72 497.703 1111.43 496.935C1110.15 496.167 1108.67 495.783 1106.97 495.783C1105.16 495.783 1103.56 496.224 1102.19 497.107C1100.82 497.972 1099.75 499.116 1098.98 500.537C1098.23 501.942 1097.85 503.485 1097.83 505.168V510.387C1097.83 512.576 1098.23 514.455 1099.03 516.023C1099.83 517.575 1100.95 518.767 1102.39 519.6C1103.82 520.417 1105.51 520.825 1107.43 520.825C1108.73 520.825 1109.89 520.646 1110.94 520.286C1111.98 519.911 1112.89 519.363 1113.66 518.645C1114.43 517.926 1115.01 517.036 1115.4 515.974L1123.68 516.905C1123.16 519.094 1122.16 521.005 1120.69 522.638C1119.24 524.256 1117.37 525.513 1115.1 526.412C1112.83 527.294 1110.24 527.735 1107.31 527.735ZM1138 489.364L1145.59 503.257L1153.31 489.364H1162.69L1151.35 508.182L1162.89 527H1153.56L1145.59 513.45L1137.7 527H1128.29L1139.76 508.182L1128.59 489.364H1138ZM1188.35 489.364V496.224H1166.71V489.364H1188.35ZM1172.05 480.347H1180.92V515.68C1180.92 516.872 1181.1 517.787 1181.46 518.424C1181.84 519.045 1182.33 519.469 1182.93 519.698C1183.54 519.927 1184.21 520.041 1184.94 520.041C1185.5 520.041 1186.01 520 1186.46 519.919C1186.94 519.837 1187.3 519.763 1187.54 519.698L1189.04 526.632C1188.56 526.796 1187.88 526.975 1187 527.172C1186.14 527.368 1185.07 527.482 1183.82 527.515C1181.59 527.58 1179.59 527.245 1177.81 526.51C1176.03 525.759 1174.62 524.599 1173.57 523.031C1172.54 521.462 1172.04 519.502 1172.05 517.15V480.347ZM1206.6 527.76C1204.21 527.76 1202.06 527.335 1200.15 526.485C1198.26 525.62 1196.76 524.346 1195.64 522.663C1194.55 520.98 1194 518.906 1194 516.439C1194 514.316 1194.4 512.56 1195.18 511.171C1195.96 509.783 1197.03 508.672 1198.39 507.839C1199.75 507.006 1201.27 506.377 1202.97 505.952C1204.69 505.511 1206.46 505.192 1208.29 504.996C1210.49 504.768 1212.28 504.564 1213.65 504.384C1215.03 504.188 1216.02 503.894 1216.64 503.502C1217.28 503.093 1217.6 502.464 1217.6 501.615V501.468C1217.6 499.622 1217.05 498.193 1215.96 497.18C1214.86 496.167 1213.29 495.661 1211.23 495.661C1209.06 495.661 1207.33 496.135 1206.06 497.082C1204.8 498.029 1203.95 499.148 1203.51 500.439L1195.23 499.263C1195.88 496.976 1196.96 495.065 1198.46 493.529C1199.97 491.977 1201.8 490.817 1203.98 490.05C1206.15 489.266 1208.55 488.874 1211.18 488.874C1212.99 488.874 1214.8 489.086 1216.59 489.511C1218.39 489.935 1220.03 490.638 1221.52 491.618C1223.01 492.582 1224.2 493.897 1225.1 495.563C1226.01 497.229 1226.47 499.312 1226.47 501.811V527H1217.94V521.83H1217.65C1217.11 522.875 1216.35 523.855 1215.37 524.77C1214.41 525.669 1213.19 526.396 1211.72 526.951C1210.27 527.49 1208.56 527.76 1206.6 527.76ZM1208.9 521.242C1210.68 521.242 1212.23 520.891 1213.53 520.188C1214.84 519.469 1215.84 518.522 1216.55 517.346C1217.26 516.17 1217.62 514.887 1217.62 513.499V509.064C1217.35 509.293 1216.87 509.505 1216.2 509.701C1215.55 509.897 1214.81 510.069 1214 510.216C1213.18 510.363 1212.37 510.493 1211.57 510.608C1210.77 510.722 1210.08 510.82 1209.49 510.902C1208.17 511.081 1206.98 511.375 1205.94 511.784C1204.89 512.192 1204.07 512.764 1203.46 513.499C1202.86 514.218 1202.55 515.149 1202.55 516.292C1202.55 517.926 1203.15 519.159 1204.34 519.992C1205.54 520.825 1207.06 521.242 1208.9 521.242ZM1235.39 527V489.364H1243.99V495.636H1244.38C1245.07 493.464 1246.24 491.789 1247.91 490.613C1249.59 489.421 1251.51 488.825 1253.67 488.825C1254.16 488.825 1254.7 488.849 1255.31 488.898C1255.93 488.931 1256.44 488.988 1256.85 489.07V497.229C1256.48 497.098 1255.88 496.984 1255.06 496.886C1254.26 496.772 1253.49 496.714 1252.74 496.714C1251.12 496.714 1249.67 497.066 1248.38 497.768C1247.1 498.454 1246.1 499.41 1245.36 500.635C1244.63 501.86 1244.26 503.273 1244.26 504.874V527H1235.39ZM1277.86 527.735C1274.08 527.735 1270.83 526.951 1268.08 525.383C1265.35 523.798 1263.25 521.56 1261.78 518.669C1260.31 515.761 1259.58 512.339 1259.58 508.402C1259.58 504.531 1260.31 501.133 1261.78 498.209C1263.27 495.269 1265.35 492.982 1268.01 491.348C1270.67 489.699 1273.8 488.874 1277.39 488.874C1279.71 488.874 1281.9 489.249 1283.96 490.001C1286.03 490.736 1287.86 491.879 1289.45 493.431C1291.05 494.983 1292.31 496.96 1293.22 499.361C1294.14 501.746 1294.59 504.588 1294.59 507.888V510.608H1263.74V504.629H1286.09C1286.07 502.93 1285.71 501.419 1284.99 500.096C1284.27 498.756 1283.27 497.703 1281.97 496.935C1280.7 496.167 1279.21 495.783 1277.52 495.783C1275.7 495.783 1274.11 496.224 1272.74 497.107C1271.36 497.972 1270.29 499.116 1269.53 500.537C1268.78 501.942 1268.39 503.485 1268.38 505.168V510.387C1268.38 512.576 1268.78 514.455 1269.58 516.023C1270.38 517.575 1271.5 518.767 1272.93 519.6C1274.37 520.417 1276.05 520.825 1277.98 520.825C1279.27 520.825 1280.44 520.646 1281.48 520.286C1282.53 519.911 1283.44 519.363 1284.2 518.645C1284.97 517.926 1285.55 517.036 1285.94 515.974L1294.23 516.905C1293.7 519.094 1292.71 521.005 1291.24 522.638C1289.78 524.256 1287.92 525.513 1285.65 526.412C1283.38 527.294 1280.78 527.735 1277.86 527.735ZM1312.93 527.76C1310.54 527.76 1308.39 527.335 1306.48 526.485C1304.59 525.62 1303.09 524.346 1301.98 522.663C1300.88 520.98 1300.33 518.906 1300.33 516.439C1300.33 514.316 1300.73 512.56 1301.51 511.171C1302.29 509.783 1303.36 508.672 1304.72 507.839C1306.08 507.006 1307.6 506.377 1309.3 505.952C1311.02 505.511 1312.79 505.192 1314.62 504.996C1316.82 504.768 1318.61 504.564 1319.98 504.384C1321.36 504.188 1322.35 503.894 1322.97 503.502C1323.61 503.093 1323.93 502.464 1323.93 501.615V501.468C1323.93 499.622 1323.38 498.193 1322.29 497.18C1321.19 496.167 1319.62 495.661 1317.56 495.661C1315.39 495.661 1313.66 496.135 1312.39 497.082C1311.13 498.029 1310.28 499.148 1309.84 500.439L1301.56 499.263C1302.21 496.976 1303.29 495.065 1304.79 493.529C1306.3 491.977 1308.13 490.817 1310.31 490.05C1312.48 489.266 1314.88 488.874 1317.51 488.874C1319.32 488.874 1321.13 489.086 1322.92 489.511C1324.72 489.935 1326.36 490.638 1327.85 491.618C1329.34 492.582 1330.53 493.897 1331.43 495.563C1332.34 497.229 1332.8 499.312 1332.8 501.811V527H1324.27V521.83H1323.98C1323.44 522.875 1322.68 523.855 1321.7 524.77C1320.74 525.669 1319.52 526.396 1318.05 526.951C1316.6 527.49 1314.89 527.76 1312.93 527.76ZM1315.23 521.242C1317.01 521.242 1318.56 520.891 1319.86 520.188C1321.17 519.469 1322.17 518.522 1322.88 517.346C1323.59 516.17 1323.95 514.887 1323.95 513.499V509.064C1323.68 509.293 1323.2 509.505 1322.53 509.701C1321.88 509.897 1321.14 510.069 1320.33 510.216C1319.51 510.363 1318.7 510.493 1317.9 510.608C1317.1 510.722 1316.41 510.82 1315.82 510.902C1314.5 511.081 1313.31 511.375 1312.27 511.784C1311.22 512.192 1310.4 512.764 1309.79 513.499C1309.19 514.218 1308.88 515.149 1308.88 516.292C1308.88 517.926 1309.48 519.159 1310.67 519.992C1311.87 520.825 1313.39 521.242 1315.23 521.242ZM1371.47 499.312L1363.38 500.194C1363.15 499.377 1362.75 498.609 1362.18 497.891C1361.62 497.172 1360.87 496.592 1359.92 496.151C1358.98 495.71 1357.82 495.489 1356.44 495.489C1354.6 495.489 1353.05 495.89 1351.79 496.69C1350.55 497.49 1349.94 498.528 1349.95 499.802C1349.94 500.896 1350.34 501.787 1351.15 502.473C1351.99 503.159 1353.36 503.722 1355.27 504.163L1361.69 505.536C1365.25 506.303 1367.9 507.52 1369.63 509.186C1371.38 510.853 1372.26 513.033 1372.27 515.729C1372.26 518.097 1371.56 520.188 1370.19 522.001C1368.84 523.798 1366.95 525.203 1364.53 526.216C1362.11 527.229 1359.34 527.735 1356.2 527.735C1351.59 527.735 1347.89 526.771 1345.08 524.844C1342.27 522.9 1340.59 520.196 1340.05 516.733L1348.7 515.9C1349.09 517.599 1349.93 518.881 1351.2 519.747C1352.48 520.613 1354.13 521.046 1356.18 521.046C1358.28 521.046 1359.97 520.613 1361.25 519.747C1362.54 518.881 1363.18 517.811 1363.18 516.537C1363.18 515.459 1362.77 514.569 1361.93 513.866C1361.12 513.164 1359.84 512.625 1358.11 512.249L1351.69 510.902C1348.08 510.15 1345.41 508.884 1343.68 507.104C1341.95 505.307 1341.09 503.036 1341.11 500.292C1341.09 497.972 1341.72 495.963 1342.99 494.264C1344.28 492.549 1346.07 491.226 1348.36 490.295C1350.66 489.347 1353.32 488.874 1356.32 488.874C1360.73 488.874 1364.2 489.813 1366.74 491.691C1369.28 493.57 1370.86 496.11 1371.47 499.312Z" fill="white"/>
<circle cx="173.5" cy="631.5" r="41.5" fill="#652763" stroke="white" stroke-width="8"/>
<circle cx="174" cy="632" r="28" fill="white"/>
<path d="M243.523 660V604H264.523C268.826 604 272.435 604.747 275.352 606.242C278.286 607.737 280.501 609.833 281.996 612.531C283.509 615.211 284.266 618.337 284.266 621.91C284.266 625.501 283.5 628.618 281.969 631.262C280.456 633.887 278.223 635.919 275.27 637.359C272.316 638.781 268.689 639.492 264.387 639.492H249.43V631.07H263.02C265.535 631.07 267.595 630.724 269.199 630.031C270.803 629.32 271.988 628.29 272.754 626.941C273.538 625.574 273.93 623.897 273.93 621.91C273.93 619.923 273.538 618.228 272.754 616.824C271.97 615.402 270.776 614.327 269.172 613.598C267.568 612.85 265.499 612.477 262.965 612.477H253.668V660H243.523ZM272.453 634.625L286.316 660H274.996L261.379 634.625H272.453ZM305.252 660.848C302.59 660.848 300.193 660.374 298.061 659.426C295.946 658.46 294.269 657.038 293.029 655.16C291.808 653.283 291.197 650.967 291.197 648.215C291.197 645.845 291.635 643.885 292.51 642.336C293.385 640.786 294.579 639.547 296.092 638.617C297.605 637.687 299.309 636.986 301.205 636.512C303.119 636.02 305.097 635.664 307.139 635.445C309.6 635.19 311.596 634.962 313.127 634.762C314.658 634.543 315.77 634.215 316.463 633.777C317.174 633.322 317.529 632.62 317.529 631.672V631.508C317.529 629.448 316.919 627.853 315.697 626.723C314.476 625.592 312.717 625.027 310.42 625.027C307.995 625.027 306.072 625.556 304.65 626.613C303.247 627.671 302.299 628.919 301.807 630.359L292.564 629.047C293.294 626.495 294.497 624.362 296.174 622.648C297.851 620.917 299.902 619.622 302.326 618.766C304.751 617.891 307.43 617.453 310.365 617.453C312.389 617.453 314.403 617.69 316.408 618.164C318.413 618.638 320.245 619.422 321.904 620.516C323.563 621.591 324.894 623.059 325.896 624.918C326.917 626.777 327.428 629.102 327.428 631.891V660H317.912V654.23H317.584C316.982 655.397 316.135 656.491 315.041 657.512C313.965 658.514 312.607 659.326 310.967 659.945C309.344 660.547 307.439 660.848 305.252 660.848ZM307.822 653.574C309.809 653.574 311.532 653.182 312.99 652.398C314.449 651.596 315.57 650.539 316.354 649.227C317.156 647.914 317.557 646.483 317.557 644.934V639.984C317.247 640.24 316.718 640.477 315.971 640.695C315.242 640.914 314.421 641.105 313.51 641.27C312.598 641.434 311.696 641.579 310.803 641.707C309.91 641.835 309.135 641.944 308.479 642.035C307.002 642.236 305.68 642.564 304.514 643.02C303.347 643.475 302.426 644.113 301.752 644.934C301.077 645.736 300.74 646.775 300.74 648.051C300.74 649.874 301.406 651.25 302.736 652.18C304.067 653.109 305.762 653.574 307.822 653.574ZM352.967 660.738C349.667 660.738 346.714 659.891 344.107 658.195C341.501 656.5 339.441 654.039 337.928 650.812C336.415 647.586 335.658 643.667 335.658 639.055C335.658 634.388 336.424 630.451 337.955 627.242C339.505 624.016 341.592 621.582 344.217 619.941C346.842 618.283 349.768 617.453 352.994 617.453C355.455 617.453 357.479 617.872 359.064 618.711C360.65 619.531 361.908 620.525 362.838 621.691C363.768 622.84 364.488 623.924 364.998 624.945H365.408V604H375.334V660H365.6V653.383H364.998C364.488 654.404 363.749 655.488 362.783 656.637C361.817 657.767 360.541 658.733 358.955 659.535C357.369 660.337 355.373 660.738 352.967 660.738ZM355.729 652.617C357.825 652.617 359.611 652.052 361.088 650.922C362.564 649.773 363.686 648.178 364.451 646.137C365.217 644.095 365.6 641.716 365.6 639C365.6 636.284 365.217 633.923 364.451 631.918C363.704 629.913 362.592 628.354 361.115 627.242C359.657 626.13 357.861 625.574 355.729 625.574C353.523 625.574 351.682 626.148 350.205 627.297C348.729 628.445 347.617 630.031 346.869 632.055C346.122 634.078 345.748 636.393 345.748 639C345.748 641.625 346.122 643.967 346.869 646.027C347.635 648.069 348.756 649.682 350.232 650.867C351.727 652.034 353.559 652.617 355.729 652.617ZM385.882 660V618H395.78V660H385.882ZM390.858 612.039C389.291 612.039 387.942 611.52 386.812 610.48C385.681 609.423 385.116 608.156 385.116 606.68C385.116 605.185 385.681 603.918 386.812 602.879C387.942 601.822 389.291 601.293 390.858 601.293C392.444 601.293 393.793 601.822 394.905 602.879C396.035 603.918 396.601 605.185 396.601 606.68C396.601 608.156 396.035 609.423 394.905 610.48C393.793 611.52 392.444 612.039 390.858 612.039ZM424.279 660.82C420.178 660.82 416.623 659.918 413.615 658.113C410.607 656.309 408.274 653.784 406.615 650.539C404.975 647.294 404.154 643.503 404.154 639.164C404.154 634.826 404.975 631.025 406.615 627.762C408.274 624.499 410.607 621.965 413.615 620.16C416.623 618.355 420.178 617.453 424.279 617.453C428.381 617.453 431.936 618.355 434.943 620.16C437.951 621.965 440.275 624.499 441.916 627.762C443.575 631.025 444.404 634.826 444.404 639.164C444.404 643.503 443.575 647.294 441.916 650.539C440.275 653.784 437.951 656.309 434.943 658.113C431.936 659.918 428.381 660.82 424.279 660.82ZM424.334 652.891C426.558 652.891 428.417 652.28 429.912 651.059C431.407 649.819 432.519 648.16 433.248 646.082C433.995 644.004 434.369 641.689 434.369 639.137C434.369 636.566 433.995 634.242 433.248 632.164C432.519 630.068 431.407 628.4 429.912 627.16C428.417 625.921 426.558 625.301 424.334 625.301C422.055 625.301 420.16 625.921 418.646 627.16C417.152 628.4 416.031 630.068 415.283 632.164C414.554 634.242 414.189 636.566 414.189 639.137C414.189 641.689 414.554 644.004 415.283 646.082C416.031 648.16 417.152 649.819 418.646 651.059C420.16 652.28 422.055 652.891 424.334 652.891ZM472.343 660V604H482.241V624.945H482.651C483.162 623.924 483.882 622.84 484.812 621.691C485.741 620.525 486.999 619.531 488.585 618.711C490.171 617.872 492.194 617.453 494.655 617.453C497.9 617.453 500.826 618.283 503.433 619.941C506.058 621.582 508.136 624.016 509.667 627.242C511.216 630.451 511.991 634.388 511.991 639.055C511.991 643.667 511.235 647.586 509.722 650.812C508.209 654.039 506.149 656.5 503.542 658.195C500.935 659.891 497.982 660.738 494.683 660.738C492.276 660.738 490.28 660.337 488.694 659.535C487.108 658.733 485.832 657.767 484.866 656.637C483.918 655.488 483.18 654.404 482.651 653.383H482.077V660H472.343ZM482.05 639C482.05 641.716 482.433 644.095 483.198 646.137C483.982 648.178 485.103 649.773 486.562 650.922C488.038 652.052 489.825 652.617 491.921 652.617C494.108 652.617 495.94 652.034 497.417 650.867C498.894 649.682 500.006 648.069 500.753 646.027C501.519 643.967 501.901 641.625 501.901 639C501.901 636.393 501.528 634.078 500.78 632.055C500.033 630.031 498.921 628.445 497.444 627.297C495.968 626.148 494.127 625.574 491.921 625.574C489.806 625.574 488.011 626.13 486.534 627.242C485.058 628.354 483.937 629.913 483.171 631.918C482.424 633.923 482.05 636.284 482.05 639ZM547.176 642.336V618H557.074V660H547.477V652.535H547.039C546.091 654.887 544.533 656.81 542.363 658.305C540.212 659.799 537.56 660.547 534.406 660.547C531.654 660.547 529.22 659.936 527.105 658.715C525.009 657.475 523.368 655.68 522.184 653.328C520.999 650.958 520.406 648.096 520.406 644.742V618H530.305V643.211C530.305 645.872 531.034 647.987 532.492 649.555C533.951 651.122 535.865 651.906 538.234 651.906C539.693 651.906 541.105 651.551 542.473 650.84C543.84 650.129 544.961 649.072 545.836 647.668C546.729 646.246 547.176 644.469 547.176 642.336ZM588.226 618V625.656H564.081V618H588.226ZM570.042 607.937H579.94V647.367C579.94 648.698 580.141 649.719 580.542 650.43C580.961 651.122 581.508 651.596 582.183 651.852C582.857 652.107 583.604 652.234 584.425 652.234C585.045 652.234 585.61 652.189 586.12 652.098C586.649 652.007 587.05 651.924 587.323 651.852L588.991 659.59C588.463 659.772 587.706 659.973 586.722 660.191C585.756 660.41 584.571 660.538 583.167 660.574C580.688 660.647 578.455 660.273 576.468 659.453C574.481 658.615 572.904 657.32 571.737 655.57C570.589 653.82 570.024 651.633 570.042 649.008V607.937ZM617.477 618V625.656H593.332V618H617.477ZM599.293 607.937H609.191V647.367C609.191 648.698 609.392 649.719 609.793 650.43C610.212 651.122 610.759 651.596 611.434 651.852C612.108 652.107 612.855 652.234 613.676 652.234C614.296 652.234 614.861 652.189 615.371 652.098C615.9 652.007 616.301 651.924 616.574 651.852L618.242 659.59C617.714 659.772 616.957 659.973 615.973 660.191C615.007 660.41 613.822 660.538 612.418 660.574C609.939 660.647 607.706 660.273 605.719 659.453C603.732 658.615 602.155 657.32 600.988 655.57C599.84 653.82 599.275 651.633 599.293 649.008V607.937ZM643.624 660.82C639.522 660.82 635.968 659.918 632.96 658.113C629.952 656.309 627.619 653.784 625.96 650.539C624.319 647.294 623.499 643.503 623.499 639.164C623.499 634.826 624.319 631.025 625.96 627.762C627.619 624.499 629.952 621.965 632.96 620.16C635.968 618.355 639.522 617.453 643.624 617.453C647.726 617.453 651.28 618.355 654.288 620.16C657.296 621.965 659.62 624.499 661.261 627.762C662.92 631.025 663.749 634.826 663.749 639.164C663.749 643.503 662.92 647.294 661.261 650.539C659.62 653.784 657.296 656.309 654.288 658.113C651.28 659.918 647.726 660.82 643.624 660.82ZM643.679 652.891C645.903 652.891 647.762 652.28 649.257 651.059C650.752 649.819 651.864 648.16 652.593 646.082C653.34 644.004 653.714 641.689 653.714 639.137C653.714 636.566 653.34 634.242 652.593 632.164C651.864 630.068 650.752 628.4 649.257 627.16C647.762 625.921 645.903 625.301 643.679 625.301C641.4 625.301 639.504 625.921 637.991 627.16C636.496 628.4 635.375 630.068 634.628 632.164C633.899 634.242 633.534 636.566 633.534 639.137C633.534 641.689 633.899 644.004 634.628 646.082C635.375 648.16 636.496 649.819 637.991 651.059C639.504 652.28 641.4 652.891 643.679 652.891ZM682.049 635.391V660H672.15V618H681.611V625.137H682.104C683.07 622.785 684.61 620.917 686.725 619.531C688.857 618.146 691.492 617.453 694.627 617.453C697.525 617.453 700.05 618.073 702.201 619.312C704.37 620.552 706.048 622.348 707.232 624.699C708.436 627.051 709.028 629.904 709.01 633.258V660H699.111V634.789C699.111 631.982 698.382 629.785 696.924 628.199C695.484 626.613 693.488 625.82 690.936 625.82C689.204 625.82 687.663 626.203 686.314 626.969C684.984 627.716 683.936 628.801 683.17 630.223C682.423 631.645 682.049 633.367 682.049 635.391ZM752.268 629.102L743.244 630.086C742.989 629.174 742.542 628.318 741.904 627.516C741.285 626.714 740.446 626.066 739.389 625.574C738.331 625.082 737.037 624.836 735.506 624.836C733.446 624.836 731.714 625.283 730.311 626.176C728.925 627.069 728.242 628.227 728.26 629.648C728.242 630.87 728.688 631.863 729.6 632.629C730.529 633.395 732.061 634.023 734.193 634.516L741.357 636.047C745.331 636.904 748.285 638.262 750.217 640.121C752.167 641.98 753.152 644.414 753.17 647.422C753.152 650.065 752.377 652.398 750.846 654.422C749.333 656.427 747.227 657.995 744.529 659.125C741.831 660.255 738.732 660.82 735.232 660.82C730.092 660.82 725.954 659.745 722.818 657.594C719.683 655.424 717.814 652.408 717.213 648.543L726.865 647.613C727.303 649.509 728.232 650.94 729.654 651.906C731.076 652.872 732.926 653.355 735.205 653.355C737.557 653.355 739.443 652.872 740.865 651.906C742.305 650.94 743.025 649.746 743.025 648.324C743.025 647.121 742.561 646.128 741.631 645.344C740.719 644.56 739.298 643.958 737.365 643.539L730.201 642.035C726.173 641.197 723.192 639.784 721.26 637.797C719.327 635.792 718.37 633.258 718.389 630.195C718.37 627.607 719.072 625.365 720.494 623.469C721.934 621.555 723.93 620.078 726.482 619.039C729.053 617.982 732.015 617.453 735.369 617.453C740.291 617.453 744.165 618.501 746.99 620.598C749.834 622.694 751.593 625.529 752.268 629.102Z" fill="white"/>
<rect x="128" y="329" width="450" height="140" rx="70" fill="white"/>
<path d="M224.95 424V373.818H244.16C247.786 373.818 250.8 374.39 253.201 375.533C255.619 376.661 257.424 378.204 258.616 380.164C259.825 382.125 260.43 384.346 260.43 386.829C260.43 388.871 260.038 390.619 259.254 392.073C258.469 393.51 257.416 394.678 256.093 395.577C254.77 396.475 253.291 397.12 251.658 397.512V398.002C253.438 398.1 255.145 398.648 256.779 399.644C258.429 400.624 259.776 402.013 260.822 403.81C261.867 405.607 262.39 407.779 262.39 410.327C262.39 412.925 261.761 415.261 260.503 417.335C259.245 419.393 257.35 421.019 254.819 422.211C252.287 423.404 249.101 424 245.262 424H224.95ZM234.04 416.404H243.817C247.116 416.404 249.493 415.775 250.947 414.517C252.417 413.243 253.152 411.61 253.152 409.617C253.152 408.13 252.785 406.791 252.05 405.598C251.315 404.39 250.269 403.442 248.913 402.756C247.558 402.054 245.94 401.702 244.062 401.702H234.04V416.404ZM234.04 395.16H243.033C244.601 395.16 246.014 394.874 247.272 394.303C248.529 393.714 249.518 392.89 250.237 391.828C250.972 390.75 251.339 389.475 251.339 388.005C251.339 386.061 250.653 384.461 249.281 383.203C247.925 381.945 245.908 381.316 243.229 381.316H234.04V395.16ZM293.894 408.171V386.364H302.764V424H294.164V417.311H293.772C292.922 419.418 291.526 421.141 289.582 422.481C287.654 423.82 285.278 424.49 282.452 424.49C279.985 424.49 277.804 423.943 275.909 422.848C274.031 421.738 272.561 420.129 271.499 418.021C270.437 415.898 269.906 413.333 269.906 410.327V386.364H278.776V408.955C278.776 411.34 279.43 413.235 280.736 414.64C282.043 416.045 283.758 416.747 285.882 416.747C287.189 416.747 288.455 416.429 289.68 415.792C290.905 415.154 291.91 414.207 292.694 412.949C293.494 411.675 293.894 410.082 293.894 408.171ZM330.679 386.364V393.224H309.043V386.364H330.679ZM314.385 377.347H323.255V412.68C323.255 413.872 323.435 414.787 323.794 415.424C324.17 416.045 324.66 416.469 325.264 416.698C325.869 416.927 326.538 417.041 327.273 417.041C327.829 417.041 328.335 417 328.793 416.919C329.266 416.837 329.626 416.763 329.871 416.698L331.365 423.632C330.892 423.796 330.214 423.975 329.332 424.172C328.466 424.368 327.404 424.482 326.146 424.515C323.925 424.58 321.924 424.245 320.143 423.51C318.363 422.759 316.95 421.599 315.904 420.031C314.875 418.462 314.369 416.502 314.385 414.15V377.347ZM356.891 386.364V393.224H335.255V386.364H356.891ZM340.597 377.347H349.467V412.68C349.467 413.872 349.647 414.787 350.006 415.424C350.382 416.045 350.872 416.469 351.476 416.698C352.081 416.927 352.75 417.041 353.485 417.041C354.041 417.041 354.547 417 355.005 416.919C355.478 416.837 355.838 416.763 356.083 416.698L357.577 423.632C357.104 423.796 356.426 423.975 355.544 424.172C354.678 424.368 353.616 424.482 352.358 424.515C350.137 424.58 348.136 424.245 346.355 423.51C344.574 422.759 343.161 421.599 342.116 420.031C341.087 418.462 340.581 416.502 340.597 414.15V377.347ZM380.322 424.735C376.647 424.735 373.461 423.926 370.766 422.309C368.071 420.692 365.98 418.43 364.493 415.522C363.023 412.614 362.288 409.217 362.288 405.329C362.288 401.441 363.023 398.035 364.493 395.111C365.98 392.187 368.071 389.917 370.766 388.299C373.461 386.682 376.647 385.874 380.322 385.874C383.998 385.874 387.183 386.682 389.878 388.299C392.574 389.917 394.656 392.187 396.126 395.111C397.613 398.035 398.356 401.441 398.356 405.329C398.356 409.217 397.613 412.614 396.126 415.522C394.656 418.43 392.574 420.692 389.878 422.309C387.183 423.926 383.998 424.735 380.322 424.735ZM380.371 417.629C382.364 417.629 384.03 417.082 385.37 415.988C386.709 414.877 387.706 413.39 388.359 411.528C389.029 409.666 389.364 407.591 389.364 405.304C389.364 403.001 389.029 400.918 388.359 399.056C387.706 397.178 386.709 395.683 385.37 394.572C384.03 393.461 382.364 392.906 380.371 392.906C378.329 392.906 376.63 393.461 375.275 394.572C373.935 395.683 372.93 397.178 372.261 399.056C371.607 400.918 371.281 403.001 371.281 405.304C371.281 407.591 371.607 409.666 372.261 411.528C372.93 413.39 373.935 414.877 375.275 415.988C376.63 417.082 378.329 417.629 380.371 417.629ZM414.755 401.947V424H405.885V386.364H414.363V392.759H414.804C415.669 390.652 417.05 388.977 418.945 387.736C420.856 386.494 423.216 385.874 426.026 385.874C428.623 385.874 430.886 386.429 432.813 387.54C434.757 388.651 436.26 390.26 437.322 392.367C438.4 394.474 438.931 397.031 438.915 400.036V424H430.044V401.408C430.044 398.893 429.391 396.924 428.084 395.503C426.794 394.082 425.005 393.371 422.718 393.371C421.166 393.371 419.786 393.714 418.577 394.401C417.385 395.07 416.445 396.042 415.759 397.316C415.09 398.591 414.755 400.134 414.755 401.947ZM477.678 396.312L469.592 397.194C469.363 396.377 468.963 395.609 468.391 394.891C467.836 394.172 467.085 393.592 466.137 393.151C465.19 392.71 464.03 392.489 462.658 392.489C460.812 392.489 459.26 392.89 458.002 393.69C456.761 394.49 456.148 395.528 456.165 396.802C456.148 397.896 456.548 398.787 457.365 399.473C458.198 400.159 459.57 400.722 461.482 401.163L467.901 402.536C471.462 403.303 474.109 404.52 475.84 406.186C477.588 407.853 478.47 410.033 478.487 412.729C478.47 415.097 477.776 417.188 476.404 419.001C475.048 420.798 473.161 422.203 470.744 423.216C468.326 424.229 465.549 424.735 462.413 424.735C457.806 424.735 454.098 423.771 451.288 421.844C448.479 419.9 446.804 417.196 446.265 413.733L454.915 412.9C455.307 414.599 456.14 415.881 457.414 416.747C458.688 417.613 460.346 418.046 462.388 418.046C464.495 418.046 466.186 417.613 467.46 416.747C468.751 415.881 469.396 414.811 469.396 413.537C469.396 412.459 468.979 411.569 468.146 410.866C467.33 410.164 466.055 409.625 464.324 409.249L457.904 407.902C454.294 407.15 451.623 405.884 449.892 404.104C448.16 402.307 447.303 400.036 447.319 397.292C447.303 394.972 447.932 392.963 449.206 391.264C450.496 389.549 452.285 388.226 454.572 387.295C456.875 386.347 459.53 385.874 462.535 385.874C466.946 385.874 470.417 386.813 472.949 388.691C475.497 390.57 477.074 393.11 477.678 396.312Z" fill="#652763"/>
<path d="M133.523 195V139H143.668V186.496H168.332V195H133.523ZM176.699 195V153H186.598V195H176.699ZM181.676 147.039C180.108 147.039 178.759 146.52 177.629 145.48C176.499 144.423 175.934 143.156 175.934 141.68C175.934 140.185 176.499 138.918 177.629 137.879C178.759 136.822 180.108 136.293 181.676 136.293C183.262 136.293 184.611 136.822 185.723 137.879C186.853 138.918 187.418 140.185 187.418 141.68C187.418 143.156 186.853 144.423 185.723 145.48C184.611 146.52 183.262 147.039 181.676 147.039ZM206.675 170.391V195H196.776V153H206.237V160.137H206.729C207.696 157.785 209.236 155.917 211.351 154.531C213.483 153.146 216.118 152.453 219.253 152.453C222.151 152.453 224.676 153.073 226.827 154.312C228.996 155.552 230.674 157.348 231.858 159.699C233.062 162.051 233.654 164.904 233.636 168.258V195H223.737V169.789C223.737 166.982 223.008 164.785 221.55 163.199C220.11 161.613 218.114 160.82 215.562 160.82C213.83 160.82 212.289 161.203 210.94 161.969C209.61 162.716 208.562 163.801 207.796 165.223C207.049 166.645 206.675 168.367 206.675 170.391ZM252.722 181.82L252.694 169.871H254.28L269.374 153H280.94L262.374 173.672H260.323L252.722 181.82ZM243.698 195V139H253.597V195H243.698ZM270.058 195L256.386 175.887L263.058 168.914L281.897 195H270.058ZM320.732 164.102L311.709 165.086C311.454 164.174 311.007 163.318 310.369 162.516C309.749 161.714 308.911 161.066 307.854 160.574C306.796 160.082 305.502 159.836 303.971 159.836C301.911 159.836 300.179 160.283 298.775 161.176C297.39 162.069 296.706 163.227 296.725 164.648C296.706 165.87 297.153 166.863 298.064 167.629C298.994 168.395 300.525 169.023 302.658 169.516L309.822 171.047C313.796 171.904 316.749 173.262 318.682 175.121C320.632 176.98 321.617 179.414 321.635 182.422C321.617 185.065 320.842 187.398 319.311 189.422C317.798 191.427 315.692 192.995 312.994 194.125C310.296 195.255 307.197 195.82 303.697 195.82C298.557 195.82 294.419 194.745 291.283 192.594C288.148 190.424 286.279 187.408 285.678 183.543L295.33 182.613C295.768 184.509 296.697 185.94 298.119 186.906C299.541 187.872 301.391 188.355 303.67 188.355C306.021 188.355 307.908 187.872 309.33 186.906C310.77 185.94 311.49 184.746 311.49 183.324C311.49 182.121 311.025 181.128 310.096 180.344C309.184 179.56 307.762 178.958 305.83 178.539L298.666 177.035C294.637 176.197 291.657 174.784 289.725 172.797C287.792 170.792 286.835 168.258 286.854 165.195C286.835 162.607 287.537 160.365 288.959 158.469C290.399 156.555 292.395 155.078 294.947 154.039C297.518 152.982 300.48 152.453 303.834 152.453C308.756 152.453 312.63 153.501 315.455 155.598C318.299 157.694 320.058 160.529 320.732 164.102Z" fill="white"/>
<path d="M128 210.312H324.725V215.562H128V210.312Z" fill="white"/>
<path d="M1050.95 1070V1019.82H1069.77C1073.62 1019.82 1076.86 1020.49 1079.47 1021.83C1082.1 1023.17 1084.09 1025.05 1085.43 1027.46C1086.78 1029.86 1087.46 1032.67 1087.46 1035.87C1087.46 1039.09 1086.77 1041.88 1085.4 1044.25C1084.04 1046.6 1082.04 1048.42 1079.4 1049.71C1076.75 1050.99 1073.5 1051.62 1069.65 1051.62H1056.24V1044.08H1068.42C1070.67 1044.08 1072.52 1043.77 1073.96 1043.14C1075.4 1042.51 1076.46 1041.58 1077.14 1040.38C1077.85 1039.15 1078.2 1037.65 1078.2 1035.87C1078.2 1034.09 1077.85 1032.57 1077.14 1031.31C1076.44 1030.04 1075.37 1029.07 1073.93 1028.42C1072.5 1027.75 1070.64 1027.41 1068.37 1027.41H1060.04V1070H1050.95ZM1076.87 1047.26L1089.3 1070H1079.15L1066.95 1047.26H1076.87ZM1106.26 1070.76C1103.88 1070.76 1101.73 1070.33 1099.82 1069.49C1097.93 1068.62 1096.42 1067.35 1095.31 1065.66C1094.22 1063.98 1093.67 1061.91 1093.67 1059.44C1093.67 1057.32 1094.06 1055.56 1094.85 1054.17C1095.63 1052.78 1096.7 1051.67 1098.06 1050.84C1099.41 1050.01 1100.94 1049.38 1102.64 1048.95C1104.35 1048.51 1106.13 1048.19 1107.96 1048C1110.16 1047.77 1111.95 1047.56 1113.32 1047.38C1114.69 1047.19 1115.69 1046.89 1116.31 1046.5C1116.95 1046.09 1117.27 1045.46 1117.27 1044.62V1044.47C1117.27 1042.62 1116.72 1041.19 1115.62 1040.18C1114.53 1039.17 1112.95 1038.66 1110.9 1038.66C1108.72 1038.66 1107 1039.13 1105.73 1040.08C1104.47 1041.03 1103.62 1042.15 1103.18 1043.44L1094.9 1042.26C1095.55 1039.98 1096.63 1038.06 1098.13 1036.53C1099.63 1034.98 1101.47 1033.82 1103.64 1033.05C1105.82 1032.27 1108.22 1031.87 1110.85 1031.87C1112.66 1031.87 1114.47 1032.09 1116.26 1032.51C1118.06 1032.94 1119.7 1033.64 1121.19 1034.62C1122.67 1035.58 1123.87 1036.9 1124.76 1038.56C1125.68 1040.23 1126.14 1042.31 1126.14 1044.81V1070H1117.61V1064.83H1117.32C1116.78 1065.88 1116.02 1066.86 1115.04 1067.77C1114.07 1068.67 1112.86 1069.4 1111.39 1069.95C1109.93 1070.49 1108.22 1070.76 1106.26 1070.76ZM1108.57 1064.24C1110.35 1064.24 1111.89 1063.89 1113.2 1063.19C1114.51 1062.47 1115.51 1061.52 1116.21 1060.35C1116.93 1059.17 1117.29 1057.89 1117.29 1056.5V1052.06C1117.01 1052.29 1116.54 1052.5 1115.87 1052.7C1115.22 1052.9 1114.48 1053.07 1113.66 1053.22C1112.85 1053.36 1112.04 1053.49 1111.24 1053.61C1110.44 1053.72 1109.74 1053.82 1109.16 1053.9C1107.83 1054.08 1106.65 1054.38 1105.6 1054.78C1104.56 1055.19 1103.73 1055.76 1103.13 1056.5C1102.52 1057.22 1102.22 1058.15 1102.22 1059.29C1102.22 1060.93 1102.82 1062.16 1104.01 1062.99C1105.2 1063.83 1106.72 1064.24 1108.57 1064.24ZM1143.93 1047.95V1070H1135.06V1032.36H1143.53V1038.76H1143.97C1144.84 1036.65 1146.22 1034.98 1148.12 1033.74C1150.03 1032.49 1152.39 1031.87 1155.2 1031.87C1157.79 1031.87 1160.06 1032.43 1161.98 1033.54C1163.93 1034.65 1165.43 1036.26 1166.49 1038.37C1167.57 1040.47 1168.1 1043.03 1168.09 1046.04V1070H1159.22V1047.41C1159.22 1044.89 1158.56 1042.92 1157.26 1041.5C1155.96 1040.08 1154.18 1039.37 1151.89 1039.37C1150.34 1039.37 1148.96 1039.71 1147.75 1040.4C1146.56 1041.07 1145.62 1042.04 1144.93 1043.32C1144.26 1044.59 1143.93 1046.13 1143.93 1047.95ZM1193.47 1084.9C1190.28 1084.9 1187.55 1084.46 1185.26 1083.6C1182.97 1082.75 1181.14 1081.61 1179.75 1080.17C1178.36 1078.73 1177.4 1077.14 1176.86 1075.39L1184.85 1073.45C1185.2 1074.19 1185.73 1074.92 1186.41 1075.64C1187.1 1076.37 1188.02 1076.98 1189.18 1077.45C1190.36 1077.94 1191.84 1078.18 1193.62 1078.18C1196.13 1078.18 1198.22 1077.57 1199.87 1076.35C1201.52 1075.14 1202.34 1073.14 1202.34 1070.37V1063.24H1201.9C1201.44 1064.15 1200.77 1065.09 1199.89 1066.06C1199.02 1067.02 1197.87 1067.83 1196.44 1068.48C1195.01 1069.13 1193.23 1069.46 1191.07 1069.46C1188.18 1069.46 1185.56 1068.78 1183.2 1067.43C1180.87 1066.06 1179.01 1064.01 1177.62 1061.3C1176.24 1058.57 1175.56 1055.16 1175.56 1051.06C1175.56 1046.93 1176.24 1043.44 1177.62 1040.6C1179.01 1037.74 1180.88 1035.57 1183.23 1034.1C1185.58 1032.62 1188.2 1031.87 1191.09 1031.87C1193.3 1031.87 1195.11 1032.25 1196.53 1033C1197.97 1033.74 1199.11 1034.63 1199.96 1035.67C1200.81 1036.7 1201.46 1037.67 1201.9 1038.59H1202.39V1032.36H1211.14V1070.61C1211.14 1073.83 1210.37 1076.49 1208.83 1078.6C1207.3 1080.71 1205.2 1082.28 1202.54 1083.33C1199.87 1084.38 1196.85 1084.9 1193.47 1084.9ZM1193.54 1062.5C1195.42 1062.5 1197.02 1062.04 1198.35 1061.13C1199.67 1060.22 1200.67 1058.9 1201.36 1057.19C1202.05 1055.47 1202.39 1053.41 1202.39 1051.01C1202.39 1048.64 1202.05 1046.57 1201.36 1044.79C1200.69 1043.01 1199.69 1041.63 1198.37 1040.65C1197.06 1039.65 1195.46 1039.15 1193.54 1039.15C1191.57 1039.15 1189.92 1039.67 1188.59 1040.69C1187.27 1041.72 1186.27 1043.14 1185.6 1044.93C1184.94 1046.71 1184.6 1048.74 1184.6 1051.01C1184.6 1053.31 1184.94 1055.33 1185.6 1057.06C1186.29 1058.78 1187.3 1060.12 1188.62 1061.08C1189.96 1062.03 1191.6 1062.5 1193.54 1062.5ZM1236.89 1070.74C1233.12 1070.74 1229.86 1069.95 1227.11 1068.38C1224.38 1066.8 1222.29 1064.56 1220.82 1061.67C1219.35 1058.76 1218.61 1055.34 1218.61 1051.4C1218.61 1047.53 1219.35 1044.13 1220.82 1041.21C1222.3 1038.27 1224.38 1035.98 1227.04 1034.35C1229.7 1032.7 1232.83 1031.87 1236.42 1031.87C1238.74 1031.87 1240.93 1032.25 1242.99 1033C1245.07 1033.74 1246.89 1034.88 1248.48 1036.43C1250.08 1037.98 1251.34 1039.96 1252.25 1042.36C1253.17 1044.75 1253.62 1047.59 1253.62 1050.89V1053.61H1222.78V1047.63H1245.12C1245.11 1045.93 1244.74 1044.42 1244.02 1043.1C1243.3 1041.76 1242.3 1040.7 1241.01 1039.94C1239.73 1039.17 1238.25 1038.78 1236.55 1038.78C1234.73 1038.78 1233.14 1039.22 1231.77 1040.11C1230.4 1040.97 1229.33 1042.12 1228.56 1043.54C1227.81 1044.94 1227.42 1046.49 1227.41 1048.17V1053.39C1227.41 1055.58 1227.81 1057.45 1228.61 1059.02C1229.41 1060.57 1230.53 1061.77 1231.96 1062.6C1233.4 1063.42 1235.08 1063.83 1237.01 1063.83C1238.3 1063.83 1239.47 1063.65 1240.52 1063.29C1241.56 1062.91 1242.47 1062.36 1243.24 1061.64C1244 1060.93 1244.58 1060.04 1244.98 1058.97L1253.26 1059.9C1252.73 1062.09 1251.74 1064 1250.27 1065.64C1248.81 1067.26 1246.95 1068.51 1244.68 1069.41C1242.41 1070.29 1239.81 1070.74 1236.89 1070.74ZM1307.99 1042.31L1299.9 1043.19C1299.68 1042.38 1299.28 1041.61 1298.7 1040.89C1298.15 1040.17 1297.4 1039.59 1296.45 1039.15C1295.5 1038.71 1294.34 1038.49 1292.97 1038.49C1291.12 1038.49 1289.57 1038.89 1288.31 1039.69C1287.07 1040.49 1286.46 1041.53 1286.48 1042.8C1286.46 1043.9 1286.86 1044.79 1287.68 1045.47C1288.51 1046.16 1289.88 1046.72 1291.79 1047.16L1298.21 1048.54C1301.77 1049.3 1304.42 1050.52 1306.15 1052.19C1307.9 1053.85 1308.78 1056.03 1308.8 1058.73C1308.78 1061.1 1308.09 1063.19 1306.72 1065C1305.36 1066.8 1303.47 1068.2 1301.06 1069.22C1298.64 1070.23 1295.86 1070.74 1292.73 1070.74C1288.12 1070.74 1284.41 1069.77 1281.6 1067.84C1278.79 1065.9 1277.12 1063.2 1276.58 1059.73L1285.23 1058.9C1285.62 1060.6 1286.45 1061.88 1287.73 1062.75C1289 1063.61 1290.66 1064.05 1292.7 1064.05C1294.81 1064.05 1296.5 1063.61 1297.77 1062.75C1299.06 1061.88 1299.71 1060.81 1299.71 1059.54C1299.71 1058.46 1299.29 1057.57 1298.46 1056.87C1297.64 1056.16 1296.37 1055.62 1294.64 1055.25L1288.22 1053.9C1284.61 1053.15 1281.94 1051.88 1280.2 1050.1C1278.47 1048.31 1277.62 1046.04 1277.63 1043.29C1277.62 1040.97 1278.24 1038.96 1279.52 1037.26C1280.81 1035.55 1282.6 1034.23 1284.88 1033.29C1287.19 1032.35 1289.84 1031.87 1292.85 1031.87C1297.26 1031.87 1300.73 1032.81 1303.26 1034.69C1305.81 1036.57 1307.39 1039.11 1307.99 1042.31ZM1324.98 1019.82V1070H1316.11V1019.82H1324.98ZM1334.1 1070V1032.36H1342.97V1070H1334.1ZM1338.56 1027.02C1337.16 1027.02 1335.95 1026.56 1334.94 1025.63C1333.92 1024.68 1333.42 1023.54 1333.42 1022.22C1333.42 1020.88 1333.92 1019.74 1334.94 1018.81C1335.95 1017.87 1337.16 1017.39 1338.56 1017.39C1339.99 1017.39 1341.19 1017.87 1342.19 1018.81C1343.2 1019.74 1343.71 1020.88 1343.71 1022.22C1343.71 1023.54 1343.2 1024.68 1342.19 1025.63C1341.19 1026.56 1339.99 1027.02 1338.56 1027.02ZM1366.06 1070.66C1363.11 1070.66 1360.46 1069.9 1358.12 1068.38C1355.79 1066.86 1353.94 1064.66 1352.59 1061.77C1351.23 1058.88 1350.55 1055.36 1350.55 1051.23C1350.55 1047.05 1351.24 1043.52 1352.61 1040.65C1354 1037.75 1355.87 1035.57 1358.22 1034.1C1360.57 1032.62 1363.2 1031.87 1366.09 1031.87C1368.29 1031.87 1370.11 1032.25 1371.53 1033C1372.95 1033.74 1374.07 1034.63 1374.91 1035.67C1375.74 1036.7 1376.39 1037.67 1376.84 1038.59H1377.21V1019.82H1386.11V1070H1377.38V1064.07H1376.84C1376.39 1064.99 1375.72 1065.96 1374.86 1066.99C1373.99 1068 1372.85 1068.86 1371.43 1069.58C1370.01 1070.3 1368.22 1070.66 1366.06 1070.66ZM1368.54 1063.38C1370.42 1063.38 1372.02 1062.88 1373.34 1061.87C1374.66 1060.84 1375.67 1059.41 1376.35 1057.58C1377.04 1055.75 1377.38 1053.62 1377.38 1051.18C1377.38 1048.75 1377.04 1046.63 1376.35 1044.84C1375.68 1043.04 1374.69 1041.64 1373.36 1040.65C1372.06 1039.65 1370.45 1039.15 1368.54 1039.15C1366.56 1039.15 1364.91 1039.67 1363.59 1040.69C1362.26 1041.72 1361.27 1043.14 1360.6 1044.96C1359.93 1046.77 1359.59 1048.85 1359.59 1051.18C1359.59 1053.53 1359.93 1055.63 1360.6 1057.48C1361.28 1059.31 1362.29 1060.75 1363.61 1061.82C1364.95 1062.86 1366.59 1063.38 1368.54 1063.38ZM1412.22 1070.74C1408.45 1070.74 1405.19 1069.95 1402.44 1068.38C1399.71 1066.8 1397.62 1064.56 1396.15 1061.67C1394.68 1058.76 1393.94 1055.34 1393.94 1051.4C1393.94 1047.53 1394.68 1044.13 1396.15 1041.21C1397.63 1038.27 1399.71 1035.98 1402.37 1034.35C1405.03 1032.7 1408.16 1031.87 1411.75 1031.87C1414.07 1031.87 1416.26 1032.25 1418.32 1033C1420.4 1033.74 1422.22 1034.88 1423.81 1036.43C1425.41 1037.98 1426.67 1039.96 1427.58 1042.36C1428.5 1044.75 1428.95 1047.59 1428.95 1050.89V1053.61H1398.11V1047.63H1420.45C1420.44 1045.93 1420.07 1044.42 1419.35 1043.1C1418.63 1041.76 1417.63 1040.7 1416.34 1039.94C1415.06 1039.17 1413.58 1038.78 1411.88 1038.78C1410.06 1038.78 1408.47 1039.22 1407.1 1040.11C1405.73 1040.97 1404.66 1042.12 1403.89 1043.54C1403.14 1044.94 1402.75 1046.49 1402.74 1048.17V1053.39C1402.74 1055.58 1403.14 1057.45 1403.94 1059.02C1404.74 1060.57 1405.86 1061.77 1407.29 1062.6C1408.73 1063.42 1410.41 1063.83 1412.34 1063.83C1413.63 1063.83 1414.8 1063.65 1415.85 1063.29C1416.89 1062.91 1417.8 1062.36 1418.57 1061.64C1419.33 1060.93 1419.91 1060.04 1420.31 1058.97L1428.59 1059.9C1428.06 1062.09 1427.07 1064 1425.6 1065.64C1424.14 1067.26 1422.28 1068.51 1420.01 1069.41C1417.74 1070.29 1415.14 1070.74 1412.22 1070.74ZM1436.46 1070V1032.36H1445.06V1038.64H1445.45C1446.14 1036.46 1447.31 1034.79 1448.98 1033.61C1450.66 1032.42 1452.58 1031.82 1454.74 1031.82C1455.23 1031.82 1455.78 1031.85 1456.38 1031.9C1457 1031.93 1457.52 1031.99 1457.92 1032.07V1040.23C1457.55 1040.1 1456.95 1039.98 1456.13 1039.89C1455.33 1039.77 1454.56 1039.71 1453.81 1039.71C1452.19 1039.71 1450.74 1040.07 1449.45 1040.77C1448.17 1041.45 1447.17 1042.41 1446.43 1043.63C1445.7 1044.86 1445.33 1046.27 1445.33 1047.87V1070H1436.46ZM1493.56 1042.31L1485.48 1043.19C1485.25 1042.38 1484.85 1041.61 1484.28 1040.89C1483.72 1040.17 1482.97 1039.59 1482.02 1039.15C1481.07 1038.71 1479.91 1038.49 1478.54 1038.49C1476.7 1038.49 1475.14 1038.89 1473.89 1039.69C1472.65 1040.49 1472.03 1041.53 1472.05 1042.8C1472.03 1043.9 1472.43 1044.79 1473.25 1045.47C1474.08 1046.16 1475.46 1046.72 1477.37 1047.16L1483.79 1048.54C1487.35 1049.3 1489.99 1050.52 1491.73 1052.19C1493.47 1053.85 1494.36 1056.03 1494.37 1058.73C1494.36 1061.1 1493.66 1063.19 1492.29 1065C1490.93 1066.8 1489.05 1068.2 1486.63 1069.22C1484.21 1070.23 1481.43 1070.74 1478.3 1070.74C1473.69 1070.74 1469.98 1069.77 1467.17 1067.84C1464.36 1065.9 1462.69 1063.2 1462.15 1059.73L1470.8 1058.9C1471.19 1060.6 1472.02 1061.88 1473.3 1062.75C1474.57 1063.61 1476.23 1064.05 1478.27 1064.05C1480.38 1064.05 1482.07 1063.61 1483.35 1062.75C1484.64 1061.88 1485.28 1060.81 1485.28 1059.54C1485.28 1058.46 1484.86 1057.57 1484.03 1056.87C1483.21 1056.16 1481.94 1055.62 1480.21 1055.25L1473.79 1053.9C1470.18 1053.15 1467.51 1051.88 1465.78 1050.1C1464.05 1048.31 1463.19 1046.04 1463.2 1043.29C1463.19 1040.97 1463.82 1038.96 1465.09 1037.26C1466.38 1035.55 1468.17 1034.23 1470.46 1033.29C1472.76 1032.35 1475.41 1031.87 1478.42 1031.87C1482.83 1031.87 1486.3 1032.81 1488.83 1034.69C1491.38 1036.57 1492.96 1039.11 1493.56 1042.31Z" fill="white"/>
<path d="M1047 1174H1771" stroke="white" stroke-width="17" stroke-linecap="round"/>
<circle cx="1409" cy="1174" r="35" fill="white"/>
<path d="M1127.95 1431H1110.95V1380.82H1128.3C1133.28 1380.82 1137.56 1381.82 1141.14 1383.83C1144.73 1385.82 1147.49 1388.69 1149.42 1392.43C1151.35 1396.17 1152.31 1400.65 1152.31 1405.86C1152.31 1411.09 1151.34 1415.58 1149.39 1419.34C1147.47 1423.09 1144.68 1425.98 1141.04 1427.99C1137.41 1430 1133.05 1431 1127.95 1431ZM1120.04 1423.13H1127.51C1131.01 1423.13 1133.93 1422.5 1136.26 1421.22C1138.6 1419.93 1140.35 1418.01 1141.53 1415.47C1142.71 1412.9 1143.29 1409.7 1143.29 1405.86C1143.29 1402.02 1142.71 1398.84 1141.53 1396.3C1140.35 1393.76 1138.61 1391.85 1136.31 1390.59C1134.02 1389.32 1131.18 1388.68 1127.78 1388.68H1120.04V1423.13ZM1160.56 1431V1393.36H1169.43V1431H1160.56ZM1165.02 1388.02C1163.61 1388.02 1162.4 1387.56 1161.39 1386.63C1160.38 1385.68 1159.87 1384.54 1159.87 1383.22C1159.87 1381.88 1160.38 1380.74 1161.39 1379.81C1162.4 1378.87 1163.61 1378.39 1165.02 1378.39C1166.44 1378.39 1167.65 1378.87 1168.64 1379.81C1169.65 1380.74 1170.16 1381.88 1170.16 1383.22C1170.16 1384.54 1169.65 1385.68 1168.64 1386.63C1167.65 1387.56 1166.44 1388.02 1165.02 1388.02ZM1208.29 1403.31L1200.21 1404.19C1199.98 1403.38 1199.58 1402.61 1199.01 1401.89C1198.45 1401.17 1197.7 1400.59 1196.75 1400.15C1195.8 1399.71 1194.65 1399.49 1193.27 1399.49C1191.43 1399.49 1189.88 1399.89 1188.62 1400.69C1187.38 1401.49 1186.76 1402.53 1186.78 1403.8C1186.76 1404.9 1187.16 1405.79 1187.98 1406.47C1188.81 1407.16 1190.19 1407.72 1192.1 1408.16L1198.52 1409.54C1202.08 1410.3 1204.72 1411.52 1206.46 1413.19C1208.2 1414.85 1209.09 1417.03 1209.1 1419.73C1209.09 1422.1 1208.39 1424.19 1207.02 1426C1205.66 1427.8 1203.78 1429.2 1201.36 1430.22C1198.94 1431.23 1196.16 1431.74 1193.03 1431.74C1188.42 1431.74 1184.71 1430.77 1181.9 1428.84C1179.09 1426.9 1177.42 1424.2 1176.88 1420.73L1185.53 1419.9C1185.92 1421.6 1186.76 1422.88 1188.03 1423.75C1189.3 1424.61 1190.96 1425.05 1193 1425.05C1195.11 1425.05 1196.8 1424.61 1198.08 1423.75C1199.37 1422.88 1200.01 1421.81 1200.01 1420.54C1200.01 1419.46 1199.59 1418.57 1198.76 1417.87C1197.94 1417.16 1196.67 1416.62 1194.94 1416.25L1188.52 1414.9C1184.91 1414.15 1182.24 1412.88 1180.51 1411.1C1178.78 1409.31 1177.92 1407.04 1177.93 1404.29C1177.92 1401.97 1178.55 1399.96 1179.82 1398.26C1181.11 1396.55 1182.9 1395.23 1185.19 1394.29C1187.49 1393.35 1190.14 1392.87 1193.15 1392.87C1197.56 1392.87 1201.03 1393.81 1203.56 1395.69C1206.11 1397.57 1207.69 1400.11 1208.29 1403.31ZM1232.83 1431.74C1229.08 1431.74 1225.85 1430.91 1223.15 1429.26C1220.48 1427.61 1218.41 1425.33 1216.95 1422.42C1215.52 1419.5 1214.8 1416.13 1214.8 1412.33C1214.8 1408.51 1215.53 1405.13 1217 1402.21C1218.47 1399.27 1220.55 1396.98 1223.23 1395.35C1225.92 1393.7 1229.11 1392.87 1232.78 1392.87C1235.84 1392.87 1238.54 1393.44 1240.89 1394.56C1243.26 1395.68 1245.15 1397.25 1246.55 1399.29C1247.96 1401.32 1248.76 1403.69 1248.96 1406.4H1240.48C1240.13 1404.59 1239.32 1403.07 1238.03 1401.87C1236.75 1400.64 1235.05 1400.03 1232.91 1400.03C1231.09 1400.03 1229.5 1400.52 1228.13 1401.5C1226.76 1402.46 1225.69 1403.85 1224.92 1405.66C1224.17 1407.48 1223.79 1409.65 1223.79 1412.18C1223.79 1414.75 1224.17 1416.95 1224.92 1418.8C1225.67 1420.63 1226.72 1422.04 1228.08 1423.04C1229.45 1424.02 1231.06 1424.51 1232.91 1424.51C1234.21 1424.51 1235.38 1424.26 1236.41 1423.77C1237.46 1423.27 1238.33 1422.54 1239.03 1421.59C1239.73 1420.64 1240.22 1419.49 1240.48 1418.14H1248.96C1248.74 1420.8 1247.96 1423.16 1246.6 1425.22C1245.25 1427.26 1243.4 1428.86 1241.07 1430.02C1238.73 1431.16 1235.99 1431.74 1232.83 1431.74ZM1265.11 1380.82V1431H1256.24V1380.82H1265.11ZM1290.65 1431.74C1286.97 1431.74 1283.79 1430.93 1281.09 1429.31C1278.4 1427.69 1276.3 1425.43 1274.82 1422.52C1273.35 1419.61 1272.61 1416.22 1272.61 1412.33C1272.61 1408.44 1273.35 1405.04 1274.82 1402.11C1276.3 1399.19 1278.4 1396.92 1281.09 1395.3C1283.79 1393.68 1286.97 1392.87 1290.65 1392.87C1294.32 1392.87 1297.51 1393.68 1300.2 1395.3C1302.9 1396.92 1304.98 1399.19 1306.45 1402.11C1307.94 1405.04 1308.68 1408.44 1308.68 1412.33C1308.68 1416.22 1307.94 1419.61 1306.45 1422.52C1304.98 1425.43 1302.9 1427.69 1300.2 1429.31C1297.51 1430.93 1294.32 1431.74 1290.65 1431.74ZM1290.7 1424.63C1292.69 1424.63 1294.36 1424.08 1295.69 1422.99C1297.03 1421.88 1298.03 1420.39 1298.68 1418.53C1299.35 1416.67 1299.69 1414.59 1299.69 1412.3C1299.69 1410 1299.35 1407.92 1298.68 1406.06C1298.03 1404.18 1297.03 1402.68 1295.69 1401.57C1294.36 1400.46 1292.69 1399.91 1290.7 1399.91C1288.65 1399.91 1286.96 1400.46 1285.6 1401.57C1284.26 1402.68 1283.26 1404.18 1282.59 1406.06C1281.93 1407.92 1281.61 1410 1281.61 1412.3C1281.61 1414.59 1281.93 1416.67 1282.59 1418.53C1283.26 1420.39 1284.26 1421.88 1285.6 1422.99C1286.96 1424.08 1288.65 1424.63 1290.7 1424.63ZM1345.96 1403.31L1337.87 1404.19C1337.64 1403.38 1337.24 1402.61 1336.67 1401.89C1336.11 1401.17 1335.36 1400.59 1334.42 1400.15C1333.47 1399.71 1332.31 1399.49 1330.94 1399.49C1329.09 1399.49 1327.54 1399.89 1326.28 1400.69C1325.04 1401.49 1324.43 1402.53 1324.44 1403.8C1324.43 1404.9 1324.83 1405.79 1325.64 1406.47C1326.48 1407.16 1327.85 1407.72 1329.76 1408.16L1336.18 1409.54C1339.74 1410.3 1342.39 1411.52 1344.12 1413.19C1345.87 1414.85 1346.75 1417.03 1346.76 1419.73C1346.75 1422.1 1346.05 1424.19 1344.68 1426C1343.33 1427.8 1341.44 1429.2 1339.02 1430.22C1336.6 1431.23 1333.83 1431.74 1330.69 1431.74C1326.08 1431.74 1322.38 1430.77 1319.57 1428.84C1316.76 1426.9 1315.08 1424.2 1314.54 1420.73L1323.19 1419.9C1323.59 1421.6 1324.42 1422.88 1325.69 1423.75C1326.97 1424.61 1328.62 1425.05 1330.67 1425.05C1332.77 1425.05 1334.46 1424.61 1335.74 1423.75C1337.03 1422.88 1337.67 1421.81 1337.67 1420.54C1337.67 1419.46 1337.26 1418.57 1336.42 1417.87C1335.61 1417.16 1334.33 1416.62 1332.6 1416.25L1326.18 1414.9C1322.57 1414.15 1319.9 1412.88 1318.17 1411.1C1316.44 1409.31 1315.58 1407.04 1315.6 1404.29C1315.58 1401.97 1316.21 1399.96 1317.48 1398.26C1318.77 1396.55 1320.56 1395.23 1322.85 1394.29C1325.15 1393.35 1327.81 1392.87 1330.81 1392.87C1335.22 1392.87 1338.7 1393.81 1341.23 1395.69C1343.78 1397.57 1345.35 1400.11 1345.96 1403.31ZM1378.07 1415.17V1393.36H1386.94V1431H1378.34V1424.31H1377.94C1377.1 1426.42 1375.7 1428.14 1373.75 1429.48C1371.83 1430.82 1369.45 1431.49 1366.62 1431.49C1364.16 1431.49 1361.98 1430.94 1360.08 1429.85C1358.2 1428.74 1356.73 1427.13 1355.67 1425.02C1354.61 1422.9 1354.08 1420.33 1354.08 1417.33V1393.36H1362.95V1415.96C1362.95 1418.34 1363.6 1420.24 1364.91 1421.64C1366.22 1423.04 1367.93 1423.75 1370.05 1423.75C1371.36 1423.75 1372.63 1423.43 1373.85 1422.79C1375.08 1422.15 1376.08 1421.21 1376.87 1419.95C1377.67 1418.68 1378.07 1417.08 1378.07 1415.17ZM1396.06 1431V1393.36H1404.66V1399.64H1405.05C1405.74 1397.46 1406.91 1395.79 1408.58 1394.61C1410.26 1393.42 1412.18 1392.82 1414.34 1392.82C1414.83 1392.82 1415.37 1392.85 1415.98 1392.9C1416.6 1392.93 1417.11 1392.99 1417.52 1393.07V1401.23C1417.15 1401.1 1416.55 1400.98 1415.73 1400.89C1414.93 1400.77 1414.16 1400.71 1413.41 1400.71C1411.79 1400.71 1410.34 1401.07 1409.05 1401.77C1407.77 1402.45 1406.77 1403.41 1406.03 1404.63C1405.3 1405.86 1404.93 1407.27 1404.93 1408.87V1431H1396.06ZM1438.53 1431.74C1434.75 1431.74 1431.5 1430.95 1428.75 1429.38C1426.02 1427.8 1423.92 1425.56 1422.45 1422.67C1420.98 1419.76 1420.25 1416.34 1420.25 1412.4C1420.25 1408.53 1420.98 1405.13 1422.45 1402.21C1423.94 1399.27 1426.02 1396.98 1428.68 1395.35C1431.34 1393.7 1434.47 1392.87 1438.06 1392.87C1440.38 1392.87 1442.57 1393.25 1444.63 1394C1446.7 1394.74 1448.53 1395.88 1450.12 1397.43C1451.72 1398.98 1452.98 1400.96 1453.89 1403.36C1454.81 1405.75 1455.26 1408.59 1455.26 1411.89V1414.61H1424.41V1408.63H1446.76C1446.74 1406.93 1446.38 1405.42 1445.66 1404.1C1444.94 1402.76 1443.94 1401.7 1442.64 1400.94C1441.37 1400.17 1439.88 1399.78 1438.19 1399.78C1436.37 1399.78 1434.78 1400.22 1433.41 1401.11C1432.03 1401.97 1430.96 1403.12 1430.2 1404.54C1429.45 1405.94 1429.06 1407.49 1429.05 1409.17V1414.39C1429.05 1416.58 1429.45 1418.45 1430.25 1420.02C1431.05 1421.57 1432.17 1422.77 1433.6 1423.6C1435.04 1424.42 1436.72 1424.83 1438.65 1424.83C1439.94 1424.83 1441.11 1424.65 1442.15 1424.29C1443.2 1423.91 1444.11 1423.36 1444.87 1422.64C1445.64 1421.93 1446.22 1421.04 1446.61 1419.97L1454.9 1420.9C1454.37 1423.09 1453.38 1425 1451.91 1426.64C1450.45 1428.26 1448.59 1429.51 1446.32 1430.41C1444.05 1431.29 1441.45 1431.74 1438.53 1431.74ZM1492.51 1403.31L1484.43 1404.19C1484.2 1403.38 1483.8 1402.61 1483.23 1401.89C1482.67 1401.17 1481.92 1400.59 1480.97 1400.15C1480.03 1399.71 1478.87 1399.49 1477.49 1399.49C1475.65 1399.49 1474.1 1399.89 1472.84 1400.69C1471.6 1401.49 1470.98 1402.53 1471 1403.8C1470.98 1404.9 1471.38 1405.79 1472.2 1406.47C1473.03 1407.16 1474.41 1407.72 1476.32 1408.16L1482.74 1409.54C1486.3 1410.3 1488.94 1411.52 1490.68 1413.19C1492.42 1414.85 1493.31 1417.03 1493.32 1419.73C1493.31 1422.1 1492.61 1424.19 1491.24 1426C1489.88 1427.8 1488 1429.2 1485.58 1430.22C1483.16 1431.23 1480.39 1431.74 1477.25 1431.74C1472.64 1431.74 1468.93 1430.77 1466.12 1428.84C1463.31 1426.9 1461.64 1424.2 1461.1 1420.73L1469.75 1419.9C1470.14 1421.6 1470.98 1422.88 1472.25 1423.75C1473.52 1424.61 1475.18 1425.05 1477.22 1425.05C1479.33 1425.05 1481.02 1424.61 1482.3 1423.75C1483.59 1422.88 1484.23 1421.81 1484.23 1420.54C1484.23 1419.46 1483.82 1418.57 1482.98 1417.87C1482.17 1417.16 1480.89 1416.62 1479.16 1416.25L1472.74 1414.9C1469.13 1414.15 1466.46 1412.88 1464.73 1411.1C1463 1409.31 1462.14 1407.04 1462.15 1404.29C1462.14 1401.97 1462.77 1399.96 1464.04 1398.26C1465.33 1396.55 1467.12 1395.23 1469.41 1394.29C1471.71 1393.35 1474.37 1392.87 1477.37 1392.87C1481.78 1392.87 1485.25 1393.81 1487.78 1395.69C1490.33 1397.57 1491.91 1400.11 1492.51 1403.31Z" fill="white"/>
<path d="M1085 1402.54C1087.67 1404.08 1087.67 1407.92 1085 1409.46L1044.5 1432.85C1041.83 1434.39 1038.5 1432.46 1038.5 1429.38L1038.5 1382.62C1038.5 1379.54 1041.83 1377.61 1044.5 1379.15L1085 1402.54Z" fill="white"/>
<path d="M336.221 1394.61C335.993 1392.47 335.029 1390.81 333.33 1389.61C331.647 1388.42 329.458 1387.83 326.763 1387.83C324.868 1387.83 323.243 1388.11 321.887 1388.68C320.531 1389.26 319.494 1390.03 318.775 1391.01C318.056 1391.99 317.689 1393.11 317.673 1394.37C317.673 1395.41 317.909 1396.32 318.383 1397.09C318.873 1397.86 319.535 1398.51 320.368 1399.05C321.201 1399.57 322.124 1400.01 323.137 1400.37C324.15 1400.73 325.17 1401.03 326.2 1401.28L330.904 1402.45C332.799 1402.9 334.62 1403.49 336.368 1404.24C338.132 1404.99 339.709 1405.94 341.097 1407.09C342.502 1408.23 343.613 1409.61 344.43 1411.23C345.246 1412.84 345.655 1414.74 345.655 1416.91C345.655 1419.85 344.903 1422.44 343.401 1424.68C341.898 1426.9 339.725 1428.64 336.883 1429.9C334.057 1431.14 330.635 1431.76 326.616 1431.76C322.712 1431.76 319.322 1431.16 316.447 1429.95C313.589 1428.74 311.351 1426.97 309.734 1424.65C308.133 1422.33 307.267 1419.51 307.136 1416.18H316.08C316.211 1417.92 316.75 1419.38 317.697 1420.54C318.645 1421.7 319.878 1422.56 321.397 1423.13C322.933 1423.71 324.648 1423.99 326.543 1423.99C328.519 1423.99 330.251 1423.7 331.737 1423.11C333.24 1422.51 334.416 1421.67 335.266 1420.61C336.115 1419.53 336.548 1418.27 336.564 1416.84C336.548 1415.53 336.164 1414.45 335.413 1413.6C334.661 1412.74 333.608 1412.02 332.252 1411.45C330.912 1410.86 329.344 1410.34 327.547 1409.88L321.838 1408.41C317.705 1407.35 314.438 1405.74 312.037 1403.58C309.652 1401.41 308.46 1398.53 308.46 1394.93C308.46 1391.98 309.26 1389.39 310.861 1387.16C312.478 1384.94 314.675 1383.22 317.452 1381.99C320.229 1380.75 323.374 1380.13 326.886 1380.13C330.447 1380.13 333.567 1380.75 336.246 1381.99C338.941 1383.22 341.056 1384.93 342.592 1387.12C344.127 1389.29 344.92 1391.79 344.969 1394.61H336.221ZM361.135 1431L350.5 1393.36H359.542L366.158 1419.83H366.501L373.263 1393.36H382.207L388.97 1419.68H389.337L395.855 1393.36H404.921L394.262 1431H385.025L377.968 1405.57H377.453L370.397 1431H361.135ZM411.114 1431V1393.36H419.984V1431H411.114ZM415.574 1388.02C414.169 1388.02 412.96 1387.56 411.947 1386.63C410.934 1385.68 410.428 1384.54 410.428 1383.22C410.428 1381.88 410.934 1380.74 411.947 1379.81C412.96 1378.87 414.169 1378.39 415.574 1378.39C416.995 1378.39 418.204 1378.87 419.2 1379.81C420.213 1380.74 420.719 1381.88 420.719 1383.22C420.719 1384.54 420.213 1385.68 419.2 1386.63C418.204 1387.56 416.995 1388.02 415.574 1388.02ZM447.899 1393.36V1400.22H426.263V1393.36H447.899ZM431.605 1384.35H440.475V1419.68C440.475 1420.87 440.654 1421.79 441.014 1422.42C441.389 1423.04 441.88 1423.47 442.484 1423.7C443.088 1423.93 443.758 1424.04 444.493 1424.04C445.049 1424.04 445.555 1424 446.012 1423.92C446.486 1423.84 446.845 1423.76 447.09 1423.7L448.585 1430.63C448.111 1430.8 447.434 1430.98 446.551 1431.17C445.686 1431.37 444.624 1431.48 443.366 1431.51C441.144 1431.58 439.143 1431.25 437.363 1430.51C435.582 1429.76 434.169 1428.6 433.124 1427.03C432.095 1425.46 431.588 1423.5 431.605 1421.15V1384.35ZM471.33 1431.74C467.573 1431.74 464.347 1430.91 461.651 1429.26C458.972 1427.61 456.906 1425.33 455.452 1422.42C454.015 1419.5 453.296 1416.13 453.296 1412.33C453.296 1408.51 454.031 1405.13 455.501 1402.21C456.971 1399.27 459.046 1396.98 461.725 1395.35C464.42 1393.7 467.605 1392.87 471.281 1392.87C474.336 1392.87 477.039 1393.44 479.391 1394.56C481.76 1395.68 483.647 1397.25 485.051 1399.29C486.456 1401.32 487.257 1403.69 487.453 1406.4H478.975C478.632 1404.59 477.815 1403.07 476.525 1401.87C475.25 1400.64 473.543 1400.03 471.403 1400.03C469.59 1400.03 467.998 1400.52 466.625 1401.5C465.253 1402.46 464.183 1403.85 463.415 1405.66C462.664 1407.48 462.288 1409.65 462.288 1412.18C462.288 1414.75 462.664 1416.95 463.415 1418.8C464.167 1420.63 465.221 1422.04 466.576 1423.04C467.949 1424.02 469.558 1424.51 471.403 1424.51C472.71 1424.51 473.878 1424.26 474.907 1423.77C475.953 1423.27 476.827 1422.54 477.529 1421.59C478.232 1420.64 478.713 1419.49 478.975 1418.14H487.453C487.24 1420.8 486.456 1423.16 485.1 1425.22C483.745 1427.26 481.899 1428.86 479.563 1430.02C477.227 1431.16 474.483 1431.74 471.33 1431.74ZM503.606 1408.95V1431H494.736V1380.82H503.41V1399.76H503.851C504.733 1397.64 506.097 1395.96 507.943 1394.74C509.805 1393.49 512.174 1392.87 515.049 1392.87C517.663 1392.87 519.941 1393.42 521.885 1394.52C523.829 1395.61 525.332 1397.21 526.394 1399.32C527.472 1401.43 528.011 1404 528.011 1407.04V1431H519.141V1408.41C519.141 1405.88 518.488 1403.91 517.181 1402.5C515.89 1401.08 514.077 1400.37 511.741 1400.37C510.173 1400.37 508.768 1400.71 507.527 1401.4C506.302 1402.07 505.338 1403.04 504.635 1404.32C503.949 1405.59 503.606 1407.13 503.606 1408.95ZM553.715 1431.74C549.941 1431.74 546.682 1430.95 543.938 1429.38C541.21 1427.8 539.111 1425.56 537.641 1422.67C536.171 1419.76 535.435 1416.34 535.435 1412.4C535.435 1408.53 536.171 1405.13 537.641 1402.21C539.127 1399.27 541.202 1396.98 543.864 1395.35C546.527 1393.7 549.655 1392.87 553.249 1392.87C555.569 1392.87 557.758 1393.25 559.816 1394C561.89 1394.74 563.72 1395.88 565.304 1397.43C566.905 1398.98 568.163 1400.96 569.078 1403.36C569.993 1405.75 570.45 1408.59 570.45 1411.89V1414.61H539.601V1408.63H561.948C561.931 1406.93 561.564 1405.42 560.845 1404.1C560.126 1402.76 559.122 1401.7 557.831 1400.94C556.557 1400.17 555.07 1399.78 553.372 1399.78C551.558 1399.78 549.966 1400.22 548.593 1401.11C547.221 1401.97 546.151 1403.12 545.384 1404.54C544.632 1405.94 544.248 1407.49 544.232 1409.17V1414.39C544.232 1416.58 544.632 1418.45 545.433 1420.02C546.233 1421.57 547.352 1422.77 548.79 1423.6C550.227 1424.42 551.91 1424.83 553.837 1424.83C555.128 1424.83 556.296 1424.65 557.341 1424.29C558.386 1423.91 559.293 1423.36 560.061 1422.64C560.829 1421.93 561.408 1421.04 561.801 1419.97L570.082 1420.9C569.56 1423.09 568.563 1425 567.093 1426.64C565.639 1428.26 563.777 1429.51 561.506 1430.41C559.236 1431.29 556.639 1431.74 553.715 1431.74ZM607.7 1403.31L599.615 1404.19C599.386 1403.38 598.986 1402.61 598.414 1401.89C597.858 1401.17 597.107 1400.59 596.16 1400.15C595.212 1399.71 594.052 1399.49 592.68 1399.49C590.834 1399.49 589.282 1399.89 588.025 1400.69C586.783 1401.49 586.171 1402.53 586.187 1403.8C586.171 1404.9 586.571 1405.79 587.388 1406.47C588.221 1407.16 589.593 1407.72 591.504 1408.16L597.924 1409.54C601.485 1410.3 604.131 1411.52 605.863 1413.19C607.611 1414.85 608.493 1417.03 608.509 1419.73C608.493 1422.1 607.798 1424.19 606.426 1426C605.07 1427.8 603.184 1429.2 600.766 1430.22C598.349 1431.23 595.572 1431.74 592.435 1431.74C587.829 1431.74 584.121 1430.77 581.311 1428.84C578.501 1426.9 576.827 1424.2 576.288 1420.73L584.937 1419.9C585.329 1421.6 586.162 1422.88 587.437 1423.75C588.711 1424.61 590.369 1425.05 592.411 1425.05C594.518 1425.05 596.209 1424.61 597.483 1423.75C598.773 1422.88 599.419 1421.81 599.419 1420.54C599.419 1419.46 599.002 1418.57 598.169 1417.87C597.352 1417.16 596.078 1416.62 594.346 1416.25L587.927 1414.9C584.317 1414.15 581.646 1412.88 579.914 1411.1C578.183 1409.31 577.325 1407.04 577.341 1404.29C577.325 1401.97 577.954 1399.96 579.228 1398.26C580.519 1396.55 582.307 1395.23 584.594 1394.29C586.898 1393.35 589.552 1392.87 592.558 1392.87C596.968 1392.87 600.439 1393.81 602.971 1395.69C605.52 1397.57 607.096 1400.11 607.7 1403.31Z" fill="white"/>
<rect x="128" y="1360" width="148" height="91" rx="45.5" fill="white"/>
<circle cx="230" cy="1406" r="28" fill="#652763"/>
<path d="M1047.3 1707.39C1046.09 1707.39 1045.05 1706.96 1044.19 1706.09C1043.32 1705.23 1042.89 1704.19 1042.89 1702.98C1042.89 1701.77 1043.32 1700.74 1044.19 1699.87C1045.05 1699 1046.09 1698.57 1047.3 1698.57C1048.51 1698.57 1049.55 1699 1050.41 1699.87C1051.28 1700.74 1051.71 1701.77 1051.71 1702.98C1051.71 1703.78 1051.51 1704.52 1051.1 1705.19C1050.71 1705.86 1050.18 1706.4 1049.51 1706.8C1048.85 1707.2 1048.12 1707.39 1047.3 1707.39ZM1066.12 1707.39C1064.91 1707.39 1063.87 1706.96 1063.01 1706.09C1062.14 1705.23 1061.71 1704.19 1061.71 1702.98C1061.71 1701.77 1062.14 1700.74 1063.01 1699.87C1063.87 1699 1064.91 1698.57 1066.12 1698.57C1067.33 1698.57 1068.37 1699 1069.23 1699.87C1070.1 1700.74 1070.53 1701.77 1070.53 1702.98C1070.53 1703.78 1070.33 1704.52 1069.92 1705.19C1069.53 1705.86 1068.99 1706.4 1068.32 1706.8C1067.67 1707.2 1066.94 1707.39 1066.12 1707.39ZM1084.94 1707.39C1083.73 1707.39 1082.69 1706.96 1081.83 1706.09C1080.96 1705.23 1080.53 1704.19 1080.53 1702.98C1080.53 1701.77 1080.96 1700.74 1081.83 1699.87C1082.69 1699 1083.73 1698.57 1084.94 1698.57C1086.15 1698.57 1087.18 1699 1088.05 1699.87C1088.92 1700.74 1089.35 1701.77 1089.35 1702.98C1089.35 1703.78 1089.14 1704.52 1088.74 1705.19C1088.34 1705.86 1087.81 1706.4 1087.14 1706.8C1086.49 1707.2 1085.75 1707.39 1084.94 1707.39ZM1110.83 1707.88C1108.45 1707.88 1106.28 1707.43 1104.34 1706.53C1102.39 1705.62 1100.85 1704.3 1099.71 1702.59C1098.56 1700.86 1097.99 1698.77 1097.99 1696.32C1097.99 1694.16 1098.42 1692.41 1099.27 1691.07C1100.11 1689.72 1101.25 1688.66 1102.67 1687.89C1104.09 1687.12 1105.66 1686.55 1107.38 1686.17C1109.11 1685.78 1110.85 1685.47 1112.59 1685.24C1114.88 1684.95 1116.74 1684.73 1118.16 1684.58C1119.59 1684.42 1120.64 1684.15 1121.29 1683.77C1121.96 1683.4 1122.3 1682.74 1122.3 1681.81V1681.62C1122.3 1679.2 1121.64 1677.32 1120.31 1675.98C1119.01 1674.64 1117.02 1673.97 1114.36 1673.97C1111.6 1673.97 1109.43 1674.57 1107.87 1675.78C1106.3 1676.99 1105.2 1678.28 1104.56 1679.65L1099.07 1677.69C1100.05 1675.41 1101.36 1673.63 1102.99 1672.35C1104.64 1671.06 1106.44 1670.16 1108.38 1669.66C1110.34 1669.13 1112.27 1668.87 1114.16 1668.87C1115.37 1668.87 1116.76 1669.02 1118.33 1669.31C1119.91 1669.59 1121.44 1670.17 1122.91 1671.05C1124.4 1671.94 1125.63 1673.27 1126.61 1675.05C1127.59 1676.83 1128.08 1679.21 1128.08 1682.2V1707H1122.3V1701.9H1122C1121.61 1702.72 1120.96 1703.59 1120.04 1704.53C1119.13 1705.46 1117.91 1706.25 1116.39 1706.9C1114.87 1707.56 1113.02 1707.88 1110.83 1707.88ZM1111.71 1702.69C1114 1702.69 1115.93 1702.24 1117.5 1701.34C1119.08 1700.44 1120.27 1699.28 1121.07 1697.86C1121.89 1696.44 1122.3 1694.94 1122.3 1693.38V1688.08C1122.05 1688.38 1121.51 1688.65 1120.68 1688.89C1119.86 1689.12 1118.92 1689.33 1117.84 1689.5C1116.78 1689.67 1115.74 1689.82 1114.73 1689.95C1113.73 1690.06 1112.92 1690.16 1112.3 1690.24C1110.8 1690.44 1109.39 1690.75 1108.09 1691.2C1106.8 1691.62 1105.75 1692.27 1104.95 1693.13C1104.17 1693.98 1103.77 1695.14 1103.77 1696.61C1103.77 1698.62 1104.52 1700.14 1106 1701.17C1107.51 1702.18 1109.41 1702.69 1111.71 1702.69ZM1144.42 1684.36V1707H1138.64V1669.36H1144.22V1675.24H1144.71C1145.59 1673.33 1146.93 1671.8 1148.73 1670.64C1150.53 1669.46 1152.85 1668.87 1155.69 1668.87C1158.24 1668.87 1160.47 1669.4 1162.38 1670.44C1164.29 1671.47 1165.78 1673.04 1166.84 1675.15C1167.9 1677.24 1168.43 1679.88 1168.43 1683.09V1707H1162.65V1683.48C1162.65 1680.52 1161.88 1678.22 1160.34 1676.57C1158.81 1674.9 1156.7 1674.07 1154.02 1674.07C1152.18 1674.07 1150.53 1674.47 1149.07 1675.27C1147.64 1676.07 1146.5 1677.24 1145.67 1678.77C1144.83 1680.31 1144.42 1682.17 1144.42 1684.36ZM1193.21 1707.78C1190.07 1707.78 1187.3 1706.99 1184.9 1705.41C1182.5 1703.81 1180.62 1701.55 1179.27 1698.64C1177.91 1695.72 1177.23 1692.27 1177.23 1688.28C1177.23 1684.33 1177.91 1680.9 1179.27 1677.99C1180.62 1675.08 1182.51 1672.83 1184.93 1671.25C1187.34 1669.67 1190.14 1668.87 1193.31 1668.87C1195.76 1668.87 1197.69 1669.28 1199.11 1670.1C1200.55 1670.9 1201.65 1671.81 1202.4 1672.84C1203.17 1673.86 1203.76 1674.69 1204.19 1675.34H1204.68V1656.82H1210.46V1707H1204.87V1701.22H1204.19C1203.76 1701.9 1203.16 1702.77 1202.37 1703.81C1201.59 1704.84 1200.47 1705.77 1199.02 1706.58C1197.56 1707.38 1195.63 1707.78 1193.21 1707.78ZM1193.99 1702.59C1196.31 1702.59 1198.27 1701.99 1199.87 1700.78C1201.47 1699.55 1202.69 1697.86 1203.53 1695.7C1204.36 1693.53 1204.77 1691.02 1204.77 1688.18C1204.77 1685.37 1204.37 1682.91 1203.55 1680.81C1202.73 1678.68 1201.52 1677.03 1199.92 1675.86C1198.32 1674.66 1196.35 1674.07 1193.99 1674.07C1191.54 1674.07 1189.5 1674.7 1187.87 1675.95C1186.25 1677.2 1185.03 1678.89 1184.22 1681.03C1183.42 1683.15 1183.02 1685.54 1183.02 1688.18C1183.02 1690.86 1183.42 1693.29 1184.24 1695.48C1185.07 1697.66 1186.3 1699.39 1187.92 1700.68C1189.55 1701.95 1191.58 1702.59 1193.99 1702.59ZM1241.26 1707V1669.36H1246.85V1675.24H1247.34C1248.12 1673.24 1249.39 1671.68 1251.13 1670.56C1252.88 1669.44 1254.98 1668.87 1257.43 1668.87C1259.91 1668.87 1261.98 1669.44 1263.63 1670.56C1265.3 1671.68 1266.6 1673.24 1267.53 1675.24H1267.92C1268.88 1673.3 1270.33 1671.76 1272.26 1670.61C1274.18 1669.45 1276.49 1668.87 1279.19 1668.87C1282.55 1668.87 1285.31 1669.93 1287.45 1672.03C1289.59 1674.13 1290.66 1677.38 1290.66 1681.81V1707H1284.87V1681.81C1284.87 1679.03 1284.11 1677.05 1282.6 1675.86C1281.08 1674.66 1279.29 1674.07 1277.23 1674.07C1274.58 1674.07 1272.53 1674.87 1271.08 1676.47C1269.63 1678.05 1268.9 1680.06 1268.9 1682.5V1707H1263.02V1681.22C1263.02 1679.08 1262.32 1677.36 1260.94 1676.05C1259.55 1674.73 1257.76 1674.07 1255.57 1674.07C1254.07 1674.07 1252.66 1674.47 1251.35 1675.27C1250.06 1676.07 1249.02 1677.18 1248.22 1678.6C1247.43 1680.01 1247.04 1681.63 1247.04 1683.48V1707H1241.26ZM1316.52 1707.78C1313.12 1707.78 1310.14 1706.98 1307.58 1705.36C1305.03 1703.74 1303.04 1701.48 1301.6 1698.57C1300.18 1695.66 1299.47 1692.27 1299.47 1688.38C1299.47 1684.46 1300.18 1681.04 1301.6 1678.11C1303.04 1675.19 1305.03 1672.92 1307.58 1671.3C1310.14 1669.68 1313.12 1668.87 1316.52 1668.87C1319.92 1668.87 1322.89 1669.68 1325.44 1671.3C1328 1672.92 1330 1675.19 1331.42 1678.11C1332.86 1681.04 1333.57 1684.46 1333.57 1688.38C1333.57 1692.27 1332.86 1695.66 1331.42 1698.57C1330 1701.48 1328 1703.74 1325.44 1705.36C1322.89 1706.98 1319.92 1707.78 1316.52 1707.78ZM1316.52 1702.59C1319.1 1702.59 1321.22 1701.93 1322.89 1700.6C1324.56 1699.28 1325.79 1697.54 1326.59 1695.39C1327.39 1693.23 1327.79 1690.89 1327.79 1688.38C1327.79 1685.86 1327.39 1683.52 1326.59 1681.35C1325.79 1679.17 1324.56 1677.42 1322.89 1676.08C1321.22 1674.74 1319.1 1674.07 1316.52 1674.07C1313.94 1674.07 1311.82 1674.74 1310.15 1676.08C1308.48 1677.42 1307.25 1679.17 1306.45 1681.35C1305.65 1683.52 1305.25 1685.86 1305.25 1688.38C1305.25 1690.89 1305.65 1693.23 1306.45 1695.39C1307.25 1697.54 1308.48 1699.28 1310.15 1700.6C1311.82 1701.93 1313.94 1702.59 1316.52 1702.59ZM1342.4 1707V1669.36H1347.99V1675.05H1348.38C1349.07 1673.19 1350.31 1671.68 1352.1 1670.52C1353.9 1669.36 1355.93 1668.78 1358.18 1668.78C1358.61 1668.78 1359.14 1668.78 1359.77 1668.8C1360.41 1668.82 1360.89 1668.84 1361.22 1668.87V1674.75C1361.02 1674.71 1360.57 1674.63 1359.87 1674.53C1359.19 1674.42 1358.46 1674.36 1357.69 1674.36C1355.86 1674.36 1354.23 1674.75 1352.79 1675.51C1351.37 1676.27 1350.24 1677.31 1349.41 1678.65C1348.59 1679.97 1348.18 1681.48 1348.18 1683.18V1707H1342.4ZM1382.71 1707.78C1379.08 1707.78 1375.95 1706.98 1373.32 1705.38C1370.71 1703.77 1368.69 1701.51 1367.27 1698.62C1365.87 1695.71 1365.16 1692.33 1365.16 1688.48C1365.16 1684.62 1365.87 1681.22 1367.27 1678.28C1368.69 1675.33 1370.67 1673.02 1373.2 1671.37C1375.75 1669.71 1378.72 1668.87 1382.12 1668.87C1384.08 1668.87 1386.02 1669.2 1387.93 1669.85C1389.84 1670.51 1391.58 1671.57 1393.15 1673.04C1394.71 1674.49 1395.96 1676.42 1396.9 1678.82C1397.83 1681.22 1398.29 1684.18 1398.29 1687.69V1690.14H1369.28V1685.14H1392.41C1392.41 1683.02 1391.99 1681.12 1391.14 1679.46C1390.3 1677.79 1389.11 1676.48 1387.56 1675.51C1386.02 1674.55 1384.21 1674.07 1382.12 1674.07C1379.82 1674.07 1377.82 1674.64 1376.14 1675.78C1374.48 1676.91 1373.19 1678.38 1372.29 1680.19C1371.4 1682.01 1370.95 1683.95 1370.95 1686.03V1689.36C1370.95 1692.2 1371.44 1694.61 1372.42 1696.59C1373.41 1698.55 1374.79 1700.04 1376.56 1701.07C1378.32 1702.08 1380.37 1702.59 1382.71 1702.59C1384.23 1702.59 1385.6 1702.38 1386.82 1701.95C1388.07 1701.51 1389.14 1700.86 1390.03 1699.99C1390.93 1699.11 1391.63 1698.02 1392.12 1696.71L1397.7 1698.28C1397.12 1700.17 1396.13 1701.84 1394.74 1703.28C1393.35 1704.7 1391.64 1705.81 1389.59 1706.61C1387.55 1707.39 1385.26 1707.78 1382.71 1707.78ZM1414.73 1656.82L1414.24 1692.89H1408.56L1408.07 1656.82H1414.73ZM1411.4 1707.39C1410.19 1707.39 1409.15 1706.96 1408.29 1706.09C1407.42 1705.23 1406.99 1704.19 1406.99 1702.98C1406.99 1701.77 1407.42 1700.74 1408.29 1699.87C1409.15 1699 1410.19 1698.57 1411.4 1698.57C1412.61 1698.57 1413.65 1699 1414.51 1699.87C1415.38 1700.74 1415.81 1701.77 1415.81 1702.98C1415.81 1703.78 1415.61 1704.52 1415.2 1705.19C1414.81 1705.86 1414.28 1706.4 1413.61 1706.8C1412.95 1707.2 1412.22 1707.39 1411.4 1707.39Z" fill="white"/>
</svg>
