<svg width="140" height="254" viewBox="0 0 140 254" fill="none" xmlns="http://www.w3.org/2000/svg">
<g clip-path="url(#clip0_9_161)">
<path d="M130.065 38.4193C126.582 33.9949 124.659 28.5414 124.598 22.9092V6.17872C124.598 4.54002 123.947 2.96844 122.789 1.8097C121.632 0.650974 120.061 5.35898e-06 118.424 0H60.397C58.7595 5.3591e-06 57.1892 0.650974 56.0313 1.80971C54.8734 2.96844 54.223 4.54002 54.2229 6.17872V14.9975C54.2397 16.7484 53.7915 18.4724 52.9243 19.9931C52.057 21.5139 50.8018 22.7769 49.287 23.653C41.4079 28.0288 34.6441 34.1651 29.5221 41.5846L1.99685 81.8804C-2.05792 87.8166 0.200936 95.6592 7.51527 99.1212C9.97063 100.215 12.657 100.687 15.3377 100.496C18.0184 100.306 20.6111 99.4582 22.8874 98.0285L42.9342 85.4444V168.102C42.9386 171.751 44.3902 175.249 46.9702 177.828C49.5502 180.407 53.0476 181.856 56.6941 181.856C60.3406 181.856 63.838 180.407 66.4181 177.828C68.9981 175.249 70.4498 171.751 70.4543 168.102L70.4555 120.612C70.456 126.589 76.4391 131.345 83.4793 130.608C86.1501 130.428 88.6611 129.269 90.5324 127.354C92.4036 125.438 93.504 122.9 93.6231 120.224L93.6275 111.155C93.6275 116.721 98.8152 121.232 105.271 121.232L105.601 121.232C111.786 121.233 116.802 116.872 116.802 111.491V102.038C116.824 107.423 121.844 111.78 128.098 111.781L128.388 111.78C129.952 111.816 131.507 111.528 132.955 110.935C134.402 110.341 135.712 109.454 136.8 108.329C137.889 107.205 138.734 105.867 139.282 104.401C139.829 102.934 140.068 101.37 139.983 99.8061L139.973 66.8998C139.923 56.5684 136.437 46.5479 130.065 38.4193Z" fill="white"/>
<path d="M116.907 248.247H23.0926C21.0539 248.247 19.2317 247.302 18.041 245.826V249.33C18.041 252.119 20.3034 254.381 23.0926 254.381H116.907C119.696 254.381 121.959 252.119 121.959 249.33V245.826C120.768 247.302 118.946 248.247 116.907 248.247Z" fill="white"/>
<path d="M116.907 193.402H23.0926C20.307 193.402 18.041 195.668 18.041 198.454V241.753C18.041 244.538 20.307 246.804 23.0926 246.804H116.907C119.693 246.804 121.959 244.538 121.959 241.753V198.454C121.959 195.668 119.693 193.402 116.907 193.402Z" fill="white"/>
<path d="M44.3281 235.258V224.761H45.8606V228.661H45.9529C46.0417 228.497 46.1698 228.308 46.3373 228.092C46.5047 227.877 46.737 227.689 47.0343 227.529C47.3316 227.365 47.7245 227.283 48.2131 227.283C48.8487 227.283 49.4159 227.443 49.9148 227.764C50.4136 228.086 50.8049 228.549 51.0885 229.153C51.3755 229.758 51.519 230.486 51.519 231.337C51.519 232.188 51.3772 232.917 51.0936 233.525C50.81 234.13 50.4205 234.597 49.925 234.925C49.4296 235.249 48.8641 235.411 48.2285 235.411C47.7502 235.411 47.3589 235.331 47.0548 235.171C46.7541 235.01 46.5184 234.822 46.3475 234.607C46.1767 234.392 46.0451 234.2 45.9529 234.033H45.8247V235.258H44.3281ZM45.8299 231.321C45.8299 231.875 45.9102 232.36 46.0707 232.777C46.2313 233.194 46.4637 233.52 46.7678 233.756C47.0719 233.988 47.4443 234.105 47.8851 234.105C48.343 234.105 48.7257 233.983 49.0332 233.741C49.3407 233.495 49.5731 233.161 49.7302 232.741C49.8908 232.321 49.9711 231.848 49.9711 231.321C49.9711 230.802 49.8925 230.336 49.7354 229.922C49.5816 229.509 49.3493 229.182 49.0383 228.943C48.7308 228.704 48.3464 228.585 47.8851 228.585C47.4409 228.585 47.0651 228.699 46.7575 228.928C46.4534 229.157 46.2228 229.476 46.0656 229.886C45.9084 230.296 45.8299 230.775 45.8299 231.321Z" fill="black"/>
<path d="M38.2787 235.432C37.7798 235.432 37.3288 235.34 36.9256 235.155C36.5224 234.967 36.2029 234.696 35.9672 234.34C35.7348 233.985 35.6187 233.549 35.6187 233.033C35.6187 232.589 35.7041 232.223 35.8749 231.936C36.0458 231.649 36.2764 231.422 36.5668 231.255C36.8573 231.087 37.1819 230.961 37.5407 230.876C37.8994 230.79 38.265 230.725 38.6375 230.681C39.109 230.626 39.4917 230.582 39.7856 230.548C40.0794 230.51 40.293 230.45 40.4262 230.368C40.5595 230.286 40.6261 230.153 40.6261 229.968V229.932C40.6261 229.485 40.4997 229.138 40.2468 228.892C39.9974 228.646 39.625 228.523 39.1295 228.523C38.6136 228.523 38.207 228.637 37.9097 228.866C37.6158 229.092 37.4125 229.343 37.2998 229.62L35.8595 229.292C36.0304 228.813 36.2798 228.427 36.6078 228.133C36.9393 227.836 37.3203 227.621 37.7508 227.488C38.1813 227.351 38.6341 227.283 39.109 227.283C39.4234 227.283 39.7565 227.32 40.1085 227.395C40.4638 227.467 40.7953 227.6 41.1028 227.795C41.4137 227.99 41.6683 228.268 41.8665 228.631C42.0646 228.989 42.1637 229.456 42.1637 230.03V235.258H40.6671V234.181H40.6056C40.5065 234.38 40.3579 234.574 40.1597 234.766C39.9615 234.957 39.707 235.116 39.396 235.242C39.0851 235.369 38.7127 235.432 38.2787 235.432ZM38.6119 234.202C39.0356 234.202 39.3977 234.118 39.6984 233.951C40.0025 233.783 40.2332 233.565 40.3904 233.295C40.5509 233.021 40.6312 232.729 40.6312 232.418V231.403C40.5766 231.458 40.4707 231.509 40.3135 231.557C40.1597 231.602 39.9837 231.641 39.7856 231.675C39.5874 231.706 39.3943 231.735 39.2064 231.762C39.0185 231.786 38.8613 231.807 38.7349 231.824C38.4376 231.861 38.166 231.925 37.9199 232.013C37.6773 232.102 37.4826 232.23 37.3356 232.398C37.1921 232.562 37.1204 232.78 37.1204 233.054C37.1204 233.433 37.2605 233.72 37.5407 233.915C37.8208 234.106 38.1779 234.202 38.6119 234.202Z" fill="black"/>
<path d="M34.2928 227.385V228.615H29.9927V227.385H34.2928ZM31.1459 225.499H32.6784V232.946C32.6784 233.243 32.7228 233.467 32.8116 233.618C32.9005 233.765 33.0149 233.865 33.155 233.92C33.2985 233.971 33.454 233.997 33.6214 233.997C33.7444 233.997 33.8521 233.988 33.9443 233.971C34.0366 233.954 34.1083 233.941 34.1596 233.93L34.4364 235.196C34.3475 235.23 34.2211 235.265 34.0571 235.299C33.8931 235.336 33.6881 235.357 33.442 235.36C33.0388 235.367 32.663 235.295 32.3145 235.145C31.9659 234.995 31.684 234.762 31.4688 234.448C31.2535 234.134 31.1459 233.739 31.1459 233.264V225.499Z" fill="black"/>
</g>
<defs>
<clipPath id="clip0_9_161">
<rect width="140" height="254" fill="white"/>
</clipPath>
</defs>
</svg>
