<svg width="230" height="418" viewBox="0 0 230 418" fill="none" xmlns="http://www.w3.org/2000/svg">
<g clip-path="url(#clip0_9_161)">
<path d="M213.678 63.1174C207.955 55.8488 204.797 46.8894 204.696 37.6365V10.1508C204.696 7.4586 203.628 4.87672 201.725 2.97309C199.823 1.06946 197.243 8.80404e-06 194.553 0H99.2236C96.5335 8.80424e-06 93.9536 1.06946 92.0514 2.97309C90.1492 4.87672 89.0806 7.4586 89.0805 10.1508V24.6388C89.108 27.5152 88.3717 30.3474 86.947 32.8458C85.5222 35.3442 83.4601 37.4191 80.9714 38.8585C68.0272 46.0472 56.9153 56.1285 48.5007 68.3175L3.28054 134.518C-3.38086 144.27 0.330108 157.154 12.3465 162.842C16.3803 164.638 20.7936 165.414 25.1976 165.101C29.6016 164.788 33.8611 163.396 37.6007 161.047L70.5347 140.373V276.167C70.5419 282.162 72.9267 287.909 77.1653 292.146C81.4039 296.383 87.1496 298.763 93.1403 298.763C99.131 298.763 104.877 296.383 109.115 292.147C113.354 287.91 115.739 282.163 115.746 276.167L115.748 198.149C115.749 207.968 125.578 215.78 137.145 214.57C141.532 214.274 145.658 212.371 148.732 209.224C151.806 206.077 153.614 201.907 153.809 197.51L153.817 182.612C153.817 191.756 162.339 199.166 172.945 199.166L173.487 199.166C183.648 199.169 191.888 192.004 191.888 183.164V167.635C191.926 176.48 200.172 183.639 210.446 183.64L210.923 183.639C213.493 183.699 216.047 183.225 218.425 182.25C220.804 181.274 222.955 179.817 224.744 177.969C226.532 176.122 227.92 173.925 228.82 171.515C229.72 169.106 230.112 166.536 229.972 163.967L229.956 109.907C229.873 92.9338 224.146 76.4716 213.678 63.1174Z" fill="white"/>
<path d="M192.062 407.835H37.9381C34.5889 407.835 31.5953 406.282 29.6392 403.857V409.613C29.6392 414.196 33.3559 417.912 37.9381 417.912H192.062C196.644 417.912 200.361 414.196 200.361 409.613V403.857C198.405 406.282 195.411 407.835 192.062 407.835Z" fill="white"/>
<path d="M192.062 317.732H37.9381C33.3618 317.732 29.6392 321.455 29.6392 326.031V397.165C29.6392 401.741 33.3618 405.464 37.9381 405.464H192.062C196.638 405.464 200.361 401.741 200.361 397.165V326.031C200.361 321.455 196.638 317.732 192.062 317.732Z" fill="white"/>
<path d="M72.8247 386.495V369.25H75.3424V375.658H75.4939C75.6399 375.389 75.8504 375.077 76.1254 374.723C76.4005 374.37 76.7822 374.061 77.2706 373.797C77.759 373.528 78.4045 373.393 79.2072 373.393C80.2513 373.393 81.1832 373.657 82.0027 374.184C82.8223 374.712 83.4651 375.473 83.931 376.466C84.4025 377.46 84.6383 378.656 84.6383 380.053C84.6383 381.451 84.4053 382.65 83.9394 383.649C83.4735 384.642 82.8335 385.409 82.0196 385.948C81.2056 386.481 80.2766 386.747 79.2325 386.747C78.4466 386.747 77.8039 386.616 77.3043 386.352C76.8103 386.088 76.4229 385.779 76.1423 385.425C75.8616 385.072 75.6455 384.757 75.4939 384.482H75.2834V386.495H72.8247ZM75.2918 380.028C75.2918 380.938 75.4238 381.735 75.6876 382.419C75.9514 383.104 76.3331 383.64 76.8327 384.028C77.3323 384.409 77.9442 384.6 78.6683 384.6C79.4205 384.6 80.0493 384.401 80.5545 384.002C81.0597 383.598 81.4414 383.051 81.6996 382.361C81.9635 381.67 82.0954 380.893 82.0954 380.028C82.0954 379.175 81.9663 378.409 81.708 377.729C81.4554 377.05 81.0737 376.514 80.5629 376.121C80.0577 375.728 79.4262 375.532 78.6683 375.532C77.9386 375.532 77.3211 375.72 76.8159 376.096C76.3163 376.472 75.9374 376.997 75.6792 377.67C75.4209 378.344 75.2918 379.13 75.2918 380.028Z" fill="black"/>
<path d="M62.8867 386.781C62.0671 386.781 61.3261 386.63 60.6638 386.326C60.0014 386.018 59.4765 385.571 59.0892 384.988C58.7075 384.404 58.5166 383.688 58.5166 382.84C58.5166 382.111 58.6569 381.51 58.9376 381.039C59.2183 380.567 59.5972 380.194 60.0743 379.919C60.5515 379.644 61.0848 379.436 61.6742 379.296C62.2636 379.155 62.8642 379.049 63.4761 378.976C64.2508 378.886 64.8795 378.813 65.3622 378.757C65.845 378.695 66.1958 378.597 66.4148 378.462C66.6337 378.327 66.7432 378.108 66.7432 377.805V377.746C66.7432 377.011 66.5355 376.441 66.1201 376.037C65.7103 375.633 65.0984 375.431 64.2845 375.431C63.4368 375.431 62.7688 375.619 62.2804 375.995C61.7977 376.365 61.4637 376.778 61.2784 377.233L58.9124 376.694C59.193 375.908 59.6028 375.273 60.1417 374.791C60.6862 374.302 61.3121 373.949 62.0194 373.73C62.7267 373.505 63.4705 373.393 64.2508 373.393C64.7672 373.393 65.3145 373.455 65.8927 373.578C66.4765 373.696 67.021 373.915 67.5262 374.235C68.0371 374.555 68.4553 375.012 68.7809 375.607C69.1064 376.197 69.2692 376.963 69.2692 377.906V386.495H66.8105V384.727H66.7095C66.5467 385.052 66.3025 385.372 65.9769 385.686C65.6513 386.001 65.2331 386.262 64.7223 386.47C64.2115 386.677 63.5996 386.781 62.8867 386.781ZM63.434 384.76C64.1301 384.76 64.7251 384.623 65.2191 384.348C65.7187 384.073 66.0976 383.713 66.3558 383.27C66.6197 382.821 66.7516 382.341 66.7516 381.83V380.163C66.6618 380.253 66.4877 380.337 66.2295 380.415C65.9769 380.488 65.6878 380.553 65.3622 380.609C65.0367 380.66 64.7195 380.707 64.4108 380.752C64.102 380.792 63.8438 380.825 63.6361 380.853C63.1477 380.915 62.7015 381.019 62.2973 381.165C61.8987 381.311 61.5788 381.521 61.3374 381.796C61.1016 382.066 60.9837 382.425 60.9837 382.874C60.9837 383.497 61.2139 383.969 61.6742 384.289C62.1345 384.603 62.7211 384.76 63.434 384.76Z" fill="black"/>
<path d="M56.338 373.561V375.582H49.2734V373.561H56.338ZM51.168 370.463H53.6856V382.697C53.6856 383.186 53.7586 383.553 53.9046 383.8C54.0505 384.042 54.2386 384.207 54.4687 384.297C54.7045 384.381 54.9599 384.423 55.235 384.423C55.437 384.423 55.6139 384.409 55.7654 384.381C55.917 384.353 56.0349 384.331 56.1191 384.314L56.5738 386.394C56.4278 386.45 56.2201 386.506 55.9507 386.562C55.6812 386.624 55.3444 386.658 54.9402 386.663C54.2779 386.674 53.6604 386.557 53.0878 386.31C52.5152 386.063 52.0521 385.681 51.6985 385.164C51.3448 384.648 51.168 384 51.168 383.219V370.463Z" fill="black"/>
</g>
<defs>
<clipPath id="clip0_9_161">
<rect width="230" height="418" fill="white"/>
</clipPath>
</defs>
</svg>
