<svg width="388" height="705" viewBox="0 0 388 705" fill="none" xmlns="http://www.w3.org/2000/svg">
<g clip-path="url(#clip0_9_65)">
<path d="M360.465 106.476C350.812 94.2146 345.484 79.1005 345.314 63.4911V17.1239C345.314 12.5823 343.511 8.22681 340.302 5.01547C337.093 1.80413 332.741 1.4852e-05 328.203 0H167.386C162.848 1.48524e-05 158.496 1.80413 155.287 5.01547C152.078 8.22681 150.275 12.5823 150.275 17.1239V41.5645C150.321 46.417 149.079 51.1948 146.676 55.4095C144.272 59.6241 140.794 63.1245 136.595 65.5526C114.759 77.6797 96.0137 94.6863 81.8185 115.249L5.53413 226.926C-5.70336 243.377 0.556879 265.113 20.828 274.707C27.6329 277.737 35.078 279.046 42.5073 278.518C49.9366 277.99 57.1221 275.641 63.4307 271.679L118.989 236.803V465.881C119.001 475.995 123.024 485.691 130.175 492.838C137.325 499.985 147.018 504 157.124 504C167.23 504 176.923 499.986 184.073 492.838C191.223 485.691 195.247 475.996 195.259 465.882L195.262 334.269C195.264 350.833 211.845 364.012 231.357 361.97C238.759 361.471 245.718 358.261 250.904 352.952C256.09 347.643 259.14 340.608 259.47 333.191L259.482 308.058C259.482 323.484 273.859 335.985 291.75 335.985L292.664 335.985C309.807 335.989 323.707 323.902 323.707 308.99V282.792C323.77 297.715 337.681 309.792 355.014 309.792L355.818 309.792C360.153 309.891 364.462 309.093 368.474 307.447C372.486 305.801 376.115 303.343 379.133 300.227C382.15 297.11 384.491 293.403 386.009 289.339C387.527 285.274 388.189 280.939 387.953 276.606L387.925 185.408C387.786 156.775 378.124 129.004 360.465 106.476Z" fill="#4A4A4A"/>
<path d="M324 688H64C58.35 688 53.3 685.38 50 681.29V691C50 698.73 56.27 705 64 705H324C331.73 705 338 698.73 338 691V681.29C334.7 685.38 329.65 688 324 688Z" fill="#4A4A4A"/>
<path d="M324 536H64C56.28 536 50 542.28 50 550V670C50 677.72 56.28 684 64 684H324C331.72 684 338 677.72 338 670V550C338 542.28 331.72 536 324 536Z" fill="#4A4A4A"/>
<path d="M94.5568 630.182V633.023H83.25V630.182H94.5568ZM86.5455 624.955H89.8977V645.75C89.8977 646.697 90.035 647.407 90.3097 647.881C90.5938 648.345 90.9536 648.657 91.3892 648.818C91.8343 648.97 92.303 649.045 92.7955 649.045C93.1648 649.045 93.4678 649.027 93.7045 648.989C93.9413 648.941 94.1307 648.903 94.2727 648.875L94.9545 651.886C94.7273 651.972 94.41 652.057 94.0028 652.142C93.5956 652.237 93.0795 652.284 92.4545 652.284C91.5076 652.284 90.5795 652.08 89.6705 651.673C88.7708 651.266 88.0227 650.646 87.4261 649.812C86.839 648.979 86.5455 647.928 86.5455 646.659V624.955ZM106.02 652.511C104.637 652.511 103.383 652.251 102.256 651.73C101.129 651.2 100.234 650.438 99.571 649.443C98.9081 648.439 98.5767 647.227 98.5767 645.807C98.5767 644.557 98.8229 643.544 99.3153 642.767C99.8078 641.981 100.466 641.366 101.29 640.92C102.114 640.475 103.023 640.144 104.017 639.926C105.021 639.699 106.029 639.519 107.043 639.386C108.368 639.216 109.443 639.088 110.267 639.003C111.1 638.908 111.706 638.752 112.085 638.534C112.473 638.316 112.668 637.937 112.668 637.398V637.284C112.668 635.883 112.284 634.794 111.517 634.017C110.759 633.241 109.609 632.852 108.065 632.852C106.465 632.852 105.21 633.203 104.301 633.903C103.392 634.604 102.753 635.352 102.384 636.148L99.2017 635.011C99.7699 633.686 100.527 632.653 101.474 631.915C102.431 631.167 103.473 630.646 104.599 630.352C105.736 630.049 106.853 629.898 107.952 629.898C108.652 629.898 109.457 629.983 110.366 630.153C111.285 630.314 112.17 630.651 113.023 631.162C113.884 631.673 114.599 632.445 115.168 633.477C115.736 634.509 116.02 635.892 116.02 637.625V652H112.668V649.045H112.497C112.27 649.519 111.891 650.026 111.361 650.565C110.83 651.105 110.125 651.564 109.244 651.943C108.364 652.322 107.289 652.511 106.02 652.511ZM106.531 649.5C107.857 649.5 108.974 649.24 109.884 648.719C110.802 648.198 111.493 647.526 111.957 646.702C112.431 645.878 112.668 645.011 112.668 644.102V641.034C112.526 641.205 112.213 641.361 111.73 641.503C111.257 641.635 110.707 641.754 110.082 641.858C109.467 641.953 108.866 642.038 108.278 642.114C107.701 642.18 107.232 642.237 106.872 642.284C106.001 642.398 105.187 642.582 104.429 642.838C103.681 643.084 103.075 643.458 102.611 643.96C102.156 644.453 101.929 645.125 101.929 645.977C101.929 647.142 102.36 648.023 103.222 648.619C104.093 649.206 105.196 649.5 106.531 649.5ZM122.593 652V622.909H125.945V633.648H126.229C126.476 633.269 126.817 632.786 127.252 632.199C127.697 631.602 128.332 631.072 129.156 630.608C129.989 630.134 131.116 629.898 132.536 629.898C134.373 629.898 135.993 630.357 137.394 631.276C138.796 632.194 139.889 633.496 140.675 635.182C141.461 636.867 141.854 638.856 141.854 641.148C141.854 643.458 141.461 645.461 140.675 647.156C139.889 648.842 138.8 650.149 137.408 651.077C136.016 651.995 134.411 652.455 132.593 652.455C131.192 652.455 130.069 652.223 129.227 651.759C128.384 651.285 127.735 650.75 127.281 650.153C126.826 649.547 126.476 649.045 126.229 648.648H125.832V652H122.593ZM125.888 641.091C125.888 642.739 126.13 644.192 126.613 645.452C127.096 646.702 127.801 647.682 128.729 648.392C129.657 649.093 130.794 649.443 132.138 649.443C133.54 649.443 134.71 649.074 135.647 648.335C136.594 647.587 137.304 646.583 137.778 645.324C138.261 644.055 138.502 642.644 138.502 641.091C138.502 639.557 138.265 638.174 137.792 636.943C137.328 635.703 136.622 634.723 135.675 634.003C134.738 633.274 133.559 632.909 132.138 632.909C130.775 632.909 129.629 633.255 128.701 633.946C127.773 634.628 127.072 635.584 126.599 636.815C126.125 638.037 125.888 639.462 125.888 641.091Z" fill="white"/>
</g>
<defs>
<clipPath id="clip0_9_65">
<rect width="388" height="705" fill="white"/>
</clipPath>
</defs>
</svg>
