<svg width="1138" height="1580" viewBox="0 0 1138 1580" fill="none" xmlns="http://www.w3.org/2000/svg">
<g clip-path="url(#clip0_86_2378)">
<path d="M624.79 227.781L623.944 227.883L624.79 227.765C624.684 226.921 624.303 226.136 623.707 225.53L588.48 190.253C588.286 190.055 588.07 189.879 587.837 189.728L587.668 189.626C587.487 189.52 587.3 189.424 587.109 189.339L586.804 189.237C586.644 189.176 586.48 189.125 586.313 189.085C586.04 189.031 585.762 189.002 585.484 189H528.945C527.824 189.004 526.75 189.452 525.958 190.244C525.165 191.037 524.718 192.111 524.713 193.232V238.683C524.713 239.805 525.159 240.882 525.953 241.675C526.747 242.469 527.823 242.915 528.945 242.915C530.068 242.915 531.144 242.469 531.938 241.675C532.731 240.882 533.177 239.805 533.177 238.683V197.464H581.252V228.171C581.252 229.29 581.696 230.364 582.486 231.157C583.276 231.95 584.348 232.398 585.467 232.403L616.377 232.572V314.536H533.177V307.968C533.177 306.846 532.731 305.769 531.938 304.976C531.144 304.182 530.068 303.736 528.945 303.736C527.823 303.736 526.747 304.182 525.953 304.976C525.159 305.769 524.713 306.846 524.713 307.968V318.768C524.718 319.889 525.165 320.963 525.958 321.756C526.75 322.548 527.824 322.996 528.945 323H620.609C621.73 322.996 622.804 322.548 623.597 321.756C624.389 320.963 624.837 319.889 624.841 318.768V228.374C624.841 228.175 624.824 227.977 624.79 227.781ZM589.716 223.973V203.524L610.334 224.074L589.716 223.973Z" fill="#4A4A4A"/>
<path fill-rule="evenodd" clip-rule="evenodd" d="M516.232 247.993H601.7C602.821 247.998 603.895 248.445 604.688 249.238C605.48 250.03 605.928 251.104 605.932 252.225V294.426C605.932 295.548 605.486 296.625 604.693 297.418C603.899 298.212 602.822 298.658 601.7 298.658H516.232C515.11 298.658 514.033 298.212 513.24 297.418C512.446 296.625 512 295.548 512 294.426V252.225C512.004 251.104 512.452 250.03 513.244 249.238C514.037 248.445 515.111 247.998 516.232 247.993ZM581.657 268.364C581.871 268.67 582.028 269.026 582.127 269.431H588.57C588.448 268.254 588.104 267.172 587.538 266.186C586.973 265.2 586.227 264.348 585.303 263.63C584.386 262.904 583.327 262.346 582.127 261.956C580.935 261.559 579.643 261.36 578.252 261.36C576.67 261.36 575.188 261.628 573.804 262.163C572.421 262.69 571.202 263.473 570.147 264.513C569.093 265.544 568.267 266.809 567.671 268.307C567.083 269.805 566.789 271.525 566.789 273.466C566.789 275.942 567.27 278.078 568.233 279.874C569.204 281.67 570.553 283.054 572.28 284.024C574.007 284.995 576.013 285.48 578.298 285.48C580.347 285.48 582.162 285.079 583.744 284.276C585.333 283.466 586.579 282.305 587.481 280.791C588.39 279.27 588.845 277.44 588.845 275.3V272.044H578.436V276.584H582.699C582.682 277.239 582.522 277.812 582.219 278.304C581.898 278.823 581.413 279.225 580.763 279.507C580.121 279.79 579.315 279.932 578.344 279.932C577.244 279.932 576.323 279.672 575.581 279.152C574.84 278.632 574.282 277.883 573.908 276.905C573.533 275.927 573.346 274.75 573.346 273.374C573.346 272.014 573.541 270.852 573.931 269.889C574.328 268.926 574.901 268.189 575.65 267.677C576.407 267.165 577.32 266.909 578.39 266.909C578.887 266.909 579.342 266.966 579.754 267.081C580.175 267.188 580.541 267.352 580.855 267.573C581.176 267.787 581.443 268.051 581.657 268.364ZM537.475 261.681H545.408L550.865 274.979H551.14L556.597 261.681H564.53V285.159H558.293V271.586H558.11L552.882 284.976H549.122L543.895 271.494H543.711V285.159H537.475V261.681ZM534.454 285.159V261.681H528.08V285.159H534.454Z" fill="#4A4A4A"/>
<path fill-rule="evenodd" clip-rule="evenodd" d="M534 4C534 1.79086 535.791 0 538 0H600C602.209 0 604 1.79086 604 4V66C604 68.2091 602.209 70 600 70H538C535.791 70 534 68.2091 534 66V4ZM547 17C547 15.3431 548.343 14 550 14H587C588.657 14 590 15.3431 590 17C590 18.6569 588.657 20 587 20H550C548.343 20 547 18.6569 547 17ZM550 26C548.343 26 547 27.3431 547 29C547 30.6569 548.343 32 550 32H579.456C581.113 32 582.456 30.6569 582.456 29C582.456 27.3431 581.113 26 579.456 26H550ZM547 41C547 39.3431 548.343 38 550 38H581.719C583.376 38 584.719 39.3431 584.719 41C584.719 42.6569 583.376 44 581.719 44H550C548.343 44 547 42.6569 547 41ZM550 50C548.343 50 547 51.3431 547 53C547 54.6569 548.343 56 550 56H587C588.657 56 590 54.6569 590 53C590 51.3431 588.657 50 587 50H550Z" fill="#6A6A6A"/>
<path fill-rule="evenodd" clip-rule="evenodd" d="M106.071 1269.43C143.35 1269.43 173.571 1239.21 173.571 1201.93C173.571 1164.66 143.35 1134.43 106.071 1134.43C68.7916 1134.43 38.5708 1164.66 38.5708 1201.93C38.5708 1239.21 68.7916 1269.43 106.071 1269.43ZM106.071 1167.08C117.421 1167.08 118.761 1167.12 123.241 1167.33C127.381 1167.52 129.631 1168.21 131.131 1168.79C133.111 1169.56 134.531 1170.48 136.021 1171.97C137.511 1173.46 138.431 1174.87 139.201 1176.86C139.781 1178.36 140.471 1180.61 140.661 1184.75C140.861 1189.23 140.911 1190.58 140.911 1201.92C140.911 1213.26 140.871 1214.61 140.661 1219.09C140.471 1223.23 139.781 1225.48 139.201 1226.98C138.431 1228.96 137.511 1230.38 136.021 1231.87C134.531 1233.36 133.121 1234.28 131.131 1235.05C129.631 1235.63 127.381 1236.32 123.241 1236.51C118.761 1236.71 117.421 1236.76 106.071 1236.76C94.7206 1236.76 93.3806 1236.72 88.9006 1236.51C84.7606 1236.32 82.5106 1235.63 81.0106 1235.05C79.0306 1234.28 77.6105 1233.36 76.1205 1231.87C74.6305 1230.38 73.7106 1228.97 72.9406 1226.98C72.3605 1225.48 71.6705 1223.23 71.4805 1219.09C71.2805 1214.61 71.2305 1213.26 71.2305 1201.92C71.2305 1190.58 71.2705 1189.23 71.4805 1184.75C71.6705 1180.61 72.3605 1178.36 72.9406 1176.86C73.7106 1174.88 74.6305 1173.46 76.1205 1171.97C77.6105 1170.48 79.0206 1169.56 81.0106 1168.79C82.5106 1168.21 84.7606 1167.52 88.9006 1167.33C93.3806 1167.13 94.7306 1167.08 106.071 1167.08ZM106.071 1159.43C94.5306 1159.43 93.0805 1159.48 88.5505 1159.69C84.0305 1159.9 80.9405 1160.61 78.2305 1161.67C75.4405 1162.76 73.0706 1164.21 70.7006 1166.57C68.3406 1168.93 66.8805 1171.3 65.8005 1174.1C64.7505 1176.8 64.0306 1179.89 63.8206 1184.42C63.6106 1188.95 63.5605 1190.4 63.5605 1201.94C63.5605 1213.48 63.6106 1214.93 63.8206 1219.46C64.0306 1223.98 64.7405 1227.07 65.8005 1229.78C66.8905 1232.57 68.3406 1234.94 70.7006 1237.31C73.0606 1239.67 75.4305 1241.13 78.2305 1242.21C80.9305 1243.26 84.0205 1243.98 88.5505 1244.19C93.0805 1244.4 94.5306 1244.45 106.071 1244.45C117.611 1244.45 119.061 1244.4 123.591 1244.19C128.111 1243.98 131.201 1243.27 133.911 1242.21C136.701 1241.12 139.071 1239.67 141.441 1237.31C143.801 1234.95 145.261 1232.58 146.341 1229.78C147.391 1227.08 148.111 1223.99 148.321 1219.46C148.531 1214.93 148.581 1213.48 148.581 1201.94C148.581 1190.4 148.531 1188.95 148.321 1184.42C148.111 1179.9 147.401 1176.81 146.341 1174.1C145.251 1171.31 143.801 1168.94 141.441 1166.57C139.081 1164.21 136.711 1162.75 133.911 1161.67C131.211 1160.62 128.121 1159.9 123.591 1159.69C119.061 1159.48 117.611 1159.43 106.071 1159.43ZM84.2505 1201.92C84.2505 1189.87 94.0205 1180.1 106.07 1180.1C118.12 1180.1 127.891 1189.87 127.891 1201.92C127.891 1213.97 118.12 1223.74 106.07 1223.74C94.0205 1223.74 84.2505 1213.97 84.2505 1201.92ZM91.9005 1201.92C91.9005 1209.75 98.2505 1216.09 106.07 1216.09C113.9 1216.09 120.24 1209.75 120.24 1201.92C120.24 1194.09 113.9 1187.75 106.07 1187.75C98.2405 1187.75 91.9005 1194.09 91.9005 1201.92Z" fill="#4A4A4A"/>
<path fill-rule="evenodd" clip-rule="evenodd" d="M106.071 753.435C143.351 753.435 173.571 783.655 173.571 820.935C173.571 854.625 148.891 882.555 116.621 887.615V840.445H132.341L132.341 840.445H132.351L135.341 820.935H116.621V808.275C116.621 802.981 119.195 797.826 127.402 797.736C127.471 797.735 127.541 797.735 127.611 797.735H136.121V797.735H136.131V781.125C136.131 781.125 128.411 779.805 121.021 779.805C120.88 779.805 120.739 779.805 120.599 779.807C105.412 779.972 95.5111 789.296 95.5111 806.065V820.935H78.3808V820.935H78.3711V840.445H95.5111V887.613C63.2458 882.549 38.5708 854.621 38.5708 820.935C38.5708 783.655 68.7908 753.435 106.071 753.435Z" fill="#4A4A4A"/>
<path fill-rule="evenodd" clip-rule="evenodd" d="M281.571 656.935C281.571 694.214 251.35 724.435 214.071 724.435C176.792 724.435 146.571 694.214 146.571 656.935C146.571 619.655 176.792 589.435 214.071 589.435C251.35 589.435 281.571 619.655 281.571 656.935ZM251.431 644.805C251.431 668.493 233.403 695.802 200.436 695.805C190.318 695.804 180.899 692.834 172.971 687.755C174.381 687.925 175.801 688.005 177.251 688.005C185.651 688.005 193.371 685.145 199.511 680.335C191.671 680.185 185.051 675.005 182.771 667.885C183.861 668.095 184.991 668.205 186.141 668.205C187.771 668.205 189.351 667.985 190.861 667.575C182.661 665.935 176.481 658.685 176.481 650.005V649.775C178.901 651.115 181.661 651.925 184.601 652.015C179.781 648.805 176.621 643.315 176.621 637.095C176.621 633.815 177.511 630.735 179.051 628.085C187.881 638.935 201.091 646.065 215.991 646.815C215.681 645.495 215.521 644.135 215.521 642.725C215.521 632.835 223.551 624.805 233.451 624.805C238.601 624.805 243.261 626.985 246.531 630.465C250.611 629.665 254.451 628.165 257.911 626.115C256.571 630.295 253.731 633.805 250.031 636.025C253.651 635.595 257.111 634.635 260.321 633.205C257.921 636.795 254.881 639.955 251.381 642.485C251.411 643.255 251.431 644.025 251.431 644.805ZM200.436 695.805C200.434 695.805 200.432 695.805 200.431 695.805H200.441C200.439 695.805 200.437 695.805 200.436 695.805Z" fill="#4A4A4A"/>
<path fill-rule="evenodd" clip-rule="evenodd" d="M1098.57 1202.93C1098.57 1240.21 1068.35 1270.43 1031.07 1270.43C993.792 1270.43 963.571 1240.21 963.571 1202.93C963.571 1165.66 993.792 1135.43 1031.07 1135.43C1068.35 1135.43 1098.57 1165.66 1098.57 1202.93ZM997.571 1179.33V1227.97L1040.33 1243.43L1063.57 1236.39V1170.92L1040.33 1163.43L997.571 1179.33ZM997.571 1227.97L1012.44 1221.42V1183.08L1040.33 1176.53V1233.15L997.571 1227.97Z" fill="#4A4A4A"/>
<path fill-rule="evenodd" clip-rule="evenodd" d="M636.571 509.935C636.571 547.214 606.35 577.435 569.071 577.435C531.792 577.435 501.571 547.214 501.571 509.935C501.571 472.655 531.792 442.435 569.071 442.435C606.35 442.435 636.571 472.655 636.571 509.935ZM527.571 506.344C527.571 486.545 546.185 470.435 569.071 470.435C591.956 470.435 610.571 486.545 610.571 506.344C610.571 526.143 591.956 542.253 569.071 542.253C565.624 542.253 562.206 541.888 558.9 541.166C556.722 543.459 550.097 549.435 540.3 549.435L536.734 549.421L538.728 546.608C542.52 541.25 543.479 536.67 543.718 534.783C533.59 528.008 527.571 517.453 527.571 506.344Z" fill="#4A4A4A"/>
<path fill-rule="evenodd" clip-rule="evenodd" d="M135.571 1010.93C135.571 1048.21 105.35 1078.43 68.0707 1078.43C30.7915 1078.43 0.570801 1048.21 0.570801 1010.93C0.570801 973.655 30.7915 943.435 68.0707 943.435C105.35 943.435 135.571 973.655 135.571 1010.93ZM88.8883 973.489C98.0906 974.835 105.854 981.778 107.052 990.589C107.574 995.83 107.315 1003.71 107.19 1007.53C107.158 1008.48 107.135 1009.18 107.135 1009.53C107.135 1010.05 107.059 1014.74 107.029 1015.24C106.223 1027.83 98.2866 1032.8 89.9473 1034.38C89.8567 1034.41 89.754 1034.43 89.6489 1034.45C89.6229 1034.46 89.5966 1034.46 89.5704 1034.47C84.2834 1035.49 78.6196 1035.76 73.246 1035.91C71.9612 1035.94 70.6803 1035.94 69.3956 1035.94H69.3947C64.0518 1035.94 58.7276 1035.32 53.5337 1034.08C53.5062 1034.07 53.4774 1034.07 53.4496 1034.08C53.4219 1034.08 53.3959 1034.1 53.3738 1034.11C53.3518 1034.13 53.3343 1034.15 53.3228 1034.18C53.3114 1034.2 53.3061 1034.23 53.3076 1034.26C53.4545 1035.93 53.8219 1037.58 54.4004 1039.16C55.1202 1040.98 57.6337 1045.37 66.9792 1045.37C72.4096 1045.38 77.8221 1044.76 83.104 1043.51C83.1308 1043.5 83.1586 1043.5 83.1855 1043.51C83.2124 1043.51 83.2376 1043.53 83.2592 1043.54C83.281 1043.56 83.2986 1043.58 83.3109 1043.6C83.3231 1043.63 83.3296 1043.66 83.33 1043.68V1049.86C83.329 1049.89 83.3214 1049.92 83.3077 1049.95C83.294 1049.97 83.2746 1049.99 83.2509 1050.01C81.6025 1051.19 79.3869 1051.89 77.4478 1052.5C77.3567 1052.53 77.2662 1052.55 77.1763 1052.58C76.2896 1052.86 75.3926 1053.1 74.4858 1053.31C66.2417 1055.17 57.6378 1054.72 49.6372 1052.01C42.1646 1049.42 34.5375 1043.06 32.6533 1035.42C31.6471 1031.28 30.9381 1027.08 30.5317 1022.85C30.1047 1018.21 29.962 1013.57 29.8191 1008.93C29.7653 1007.18 29.7115 1005.43 29.6424 1003.67C29.4653 999.209 29.567 994.342 30.5204 989.951C32.5026 981.036 40.6723 974.797 49.6184 973.489C49.8023 973.462 50.0054 973.427 50.2432 973.386C52.0137 973.078 55.7093 972.435 67.7253 972.435H67.8271C81.4535 972.435 87.3358 973.262 88.8883 973.489ZM85.4479 1022H94.2168L94.2243 1000.11C94.2243 995.64 93.07 992.087 90.7612 989.456C88.372 986.828 85.2482 985.479 81.3743 985.479C76.8937 985.479 73.5022 987.186 71.2412 990.596L69.0556 994.219L66.8736 990.596C64.6127 987.186 61.2211 985.479 56.7331 985.479C52.8554 985.479 49.7314 986.828 47.3499 989.456C45.0411 992.089 43.8867 995.642 43.8867 1000.11V1022H52.6481V1000.76C52.6519 996.287 54.5549 994.006 58.3648 994.006C62.5778 994.006 64.6918 996.705 64.6918 1002.03V1013.66H73.408V1002.03C73.408 996.705 75.5182 994.006 79.7312 994.006C83.5637 994.006 85.4479 996.287 85.4479 1000.76V1022Z" fill="#4A4A4A"/>
<path fill-rule="evenodd" clip-rule="evenodd" d="M1098.57 818.935C1098.57 856.214 1068.35 886.435 1031.07 886.435C993.792 886.435 963.571 856.214 963.571 818.935C963.571 781.655 993.792 751.435 1031.07 751.435C1068.35 751.435 1098.57 781.655 1098.57 818.935ZM1044.08 784.439C1050.59 785.562 1056.81 787.523 1062.61 790.184C1062.66 790.206 1062.7 790.242 1062.72 790.293C1073 805.408 1078.08 822.459 1076.18 842.088C1076.17 842.171 1076.13 842.247 1076.06 842.298C1068.28 848.014 1060.74 851.484 1053.3 853.784C1053.18 853.82 1053.05 853.777 1052.98 853.676C1051.26 851.285 1049.7 848.765 1048.34 846.118C1048.26 845.963 1048.33 845.775 1048.49 845.714C1050.97 844.778 1053.33 843.659 1055.59 842.334C1055.77 842.229 1055.78 841.973 1055.62 841.85C1055.14 841.492 1054.66 841.117 1054.21 840.741C1054.12 840.673 1054 840.658 1053.91 840.705C1039.19 847.505 1023.07 847.505 1008.17 840.705C1008.08 840.662 1007.96 840.676 1007.88 840.745C1007.43 841.12 1006.95 841.492 1006.47 841.85C1006.31 841.973 1006.32 842.229 1006.5 842.334C1008.77 843.634 1011.12 844.778 1013.6 845.717C1013.76 845.779 1013.84 845.963 1013.76 846.118C1012.42 848.768 1010.86 851.289 1009.11 853.679C1009.03 853.777 1008.91 853.82 1008.79 853.784C1001.39 851.484 993.849 848.014 986.065 842.298C986.001 842.247 985.954 842.168 985.947 842.085C984.361 825.106 987.593 807.914 999.391 790.289C999.419 790.242 999.462 790.206 999.513 790.184C1005.32 787.519 1011.54 785.559 1018.04 784.439C1018.15 784.421 1018.27 784.475 1018.33 784.58C1019.14 786.003 1020.05 787.826 1020.68 789.318C1027.53 788.27 1034.48 788.27 1041.48 789.318C1042.1 787.859 1042.99 786.003 1043.79 784.58C1043.85 784.472 1043.96 784.418 1044.08 784.439ZM1007.8 822.575C1007.8 827.63 1011.5 831.746 1015.98 831.746C1020.54 831.746 1024.16 827.63 1024.16 822.575C1024.23 817.555 1020.57 813.403 1015.98 813.403C1011.42 813.403 1007.8 817.519 1007.8 822.575ZM1038.04 822.575C1038.04 827.63 1041.73 831.746 1046.22 831.746C1050.81 831.746 1054.4 827.63 1054.4 822.575C1054.47 817.555 1050.81 813.403 1046.22 813.403C1041.66 813.403 1038.04 817.519 1038.04 822.575Z" fill="#4A4A4A"/>
<path d="M377.131 1406.43C339.821 1406.43 309.571 1436.68 309.571 1473.99C309.571 1502.62 327.361 1527.09 352.491 1536.93C351.881 1531.59 351.381 1523.36 352.711 1517.53C353.931 1512.25 360.611 1483.95 360.611 1483.95C360.611 1483.95 358.611 1479.89 358.611 1473.94C358.611 1464.54 364.061 1457.54 370.841 1457.54C376.621 1457.54 379.401 1461.88 379.401 1467.05C379.401 1472.83 375.731 1481.51 373.781 1489.57C372.171 1496.3 377.171 1501.8 383.791 1501.8C395.801 1501.8 405.031 1489.12 405.031 1470.89C405.031 1454.71 393.411 1443.42 376.781 1443.42C357.541 1443.42 346.261 1457.82 346.261 1472.72C346.261 1478.5 348.481 1484.73 351.261 1488.12C351.821 1488.79 351.871 1489.4 351.701 1490.07C351.201 1492.18 350.031 1496.8 349.811 1497.74C349.531 1498.96 348.811 1499.24 347.531 1498.63C339.081 1494.68 333.801 1482.39 333.801 1472.44C333.801 1451.14 349.261 1431.57 378.451 1431.57C401.861 1431.57 420.101 1448.25 420.101 1470.6C420.101 1492.95 405.421 1512.63 385.071 1512.63C378.231 1512.63 371.781 1509.07 369.611 1504.85C369.611 1504.85 366.221 1517.75 365.381 1520.92C363.881 1526.81 359.761 1534.15 356.981 1538.66C363.321 1540.61 369.991 1541.66 377.001 1541.66C414.311 1541.66 444.561 1511.41 444.561 1474.1C444.671 1436.68 414.421 1406.43 377.121 1406.43H377.131Z" fill="#4A4A4A"/>
<path fill-rule="evenodd" clip-rule="evenodd" d="M282.571 1364.93C282.571 1402.21 252.35 1432.43 215.071 1432.43C177.792 1432.43 147.571 1402.21 147.571 1364.93C147.571 1327.66 177.792 1297.43 215.071 1297.43C252.35 1297.43 282.571 1327.66 282.571 1364.93ZM221.399 1354.43L221.4 1354.43L221.4 1354.43L221.4 1354.43L221.4 1354.43C222.066 1353.63 222.71 1352.85 223.451 1352.15C226.951 1348.85 231.091 1347.19 235.931 1347.23C238.591 1347.25 241.211 1347.44 243.771 1348.18C249.631 1349.87 253.031 1353.91 254.661 1359.63C255.881 1363.92 256.101 1368.33 256.111 1372.75C256.12 1377.1 256.115 1381.45 256.109 1385.81V1385.81V1385.81C256.102 1390.78 256.095 1395.75 256.111 1400.72C256.111 1401.59 255.871 1401.82 255.011 1401.82C250.211 1401.78 245.401 1401.78 240.601 1401.82C239.751 1401.82 239.571 1401.57 239.571 1400.77C239.601 1391.9 239.601 1383.03 239.571 1374.15C239.571 1371.93 239.421 1369.7 238.801 1367.54C237.651 1363.56 234.801 1361.53 230.631 1361.75C224.931 1362.05 221.971 1364.87 221.251 1370.66C221.081 1372.04 220.991 1373.43 221.001 1374.82C221.001 1383.45 221.001 1392.08 221.021 1400.71C221.021 1401.57 220.811 1401.82 219.931 1401.82C215.091 1401.78 210.251 1401.78 205.411 1401.82C204.631 1401.82 204.411 1401.62 204.411 1400.83C204.431 1383.75 204.431 1366.66 204.411 1349.58C204.411 1348.73 204.691 1348.54 205.491 1348.54C210.081 1348.57 214.681 1348.58 219.271 1348.54C220.121 1348.54 220.331 1348.81 220.321 1349.61C220.285 1351.1 220.291 1352.58 220.297 1354.07L220.297 1354.07C220.299 1354.62 220.301 1355.17 220.301 1355.72C220.685 1355.29 221.045 1354.86 221.399 1354.43ZM193.971 1375.25C193.971 1376.94 193.97 1378.63 193.97 1380.32C193.968 1387.08 193.967 1393.84 193.991 1400.6C193.991 1401.54 193.761 1401.82 192.791 1401.81C187.991 1401.76 183.191 1401.77 178.381 1401.81C177.611 1401.81 177.381 1401.62 177.381 1400.83C177.401 1383.72 177.401 1366.61 177.381 1349.49C177.381 1348.78 177.551 1348.53 178.301 1348.53C183.171 1348.56 188.041 1348.57 192.911 1348.53C193.851 1348.53 193.971 1348.88 193.971 1349.69C193.956 1356.09 193.958 1362.48 193.96 1368.87C193.96 1371 193.961 1373.13 193.961 1375.25H193.971ZM185.691 1341.21C190.991 1341.21 195.291 1336.89 195.291 1331.58V1331.57C195.281 1326.34 190.961 1322.03 185.711 1322.03C180.421 1322.03 176.081 1326.38 176.101 1331.66C176.121 1336.89 180.461 1341.21 185.691 1341.21Z" fill="#4A4A4A"/>
<path fill-rule="evenodd" clip-rule="evenodd" d="M923.071 1433.43C960.35 1433.43 990.571 1403.21 990.571 1365.93C990.571 1328.66 960.35 1298.43 923.071 1298.43C885.792 1298.43 855.571 1328.66 855.571 1365.93C855.571 1403.21 885.792 1433.43 923.071 1433.43ZM923.061 1324.1C928.708 1324.1 934.184 1325.21 939.339 1327.39C941.816 1328.44 944.207 1329.74 946.442 1331.25C948.658 1332.74 950.74 1334.46 952.634 1336.35C954.527 1338.25 956.246 1340.33 957.742 1342.55C959.253 1344.78 960.549 1347.17 961.598 1349.65C963.778 1354.8 964.884 1360.28 964.884 1365.93C964.884 1371.57 963.779 1377.05 961.598 1382.21C960.55 1384.68 959.253 1387.07 957.742 1389.31C956.246 1391.52 954.527 1393.61 952.634 1395.5C950.741 1397.39 948.658 1399.11 946.442 1400.61C944.207 1402.12 941.818 1403.42 939.339 1404.46C934.184 1406.64 928.708 1407.75 923.061 1407.75C917.414 1407.75 911.937 1406.65 906.783 1404.46C904.305 1403.42 901.915 1402.12 899.679 1400.61C897.464 1399.11 895.382 1397.39 893.488 1395.5C891.595 1393.61 889.876 1391.52 888.38 1389.31C886.869 1387.07 885.573 1384.68 884.524 1382.21C882.344 1377.05 881.238 1371.57 881.238 1365.93C881.238 1360.28 882.343 1354.8 884.524 1349.65C885.571 1347.17 886.869 1344.78 888.38 1342.55C889.876 1340.33 891.595 1338.25 893.488 1336.35C895.38 1334.46 897.464 1332.74 899.679 1331.25C901.915 1329.74 904.304 1328.44 906.783 1327.39C911.937 1325.21 917.414 1324.1 923.061 1324.1ZM923.061 1321.43C898.49 1321.43 878.571 1341.35 878.571 1365.92C878.571 1390.5 898.49 1410.41 923.061 1410.41C947.632 1410.41 967.551 1390.5 967.551 1365.92C967.551 1341.35 947.632 1321.43 923.061 1321.43ZM906.881 1399.29C894.513 1393.28 885.985 1380.6 885.985 1365.92C885.985 1360.55 887.138 1355.45 889.195 1350.84L906.881 1399.29ZM945.033 1353.83C946.444 1356.3 948.089 1359.47 948.089 1364.05L948.092 1364.05C948.092 1367.22 947.096 1370.98 945.397 1376.27L941.572 1388.39L928.173 1348.54C930.404 1348.42 932.416 1348.19 932.416 1348.19C934.414 1347.95 934.178 1345.01 932.18 1345.13C932.18 1345.13 926.175 1345.6 922.297 1345.6C918.654 1345.6 912.533 1345.13 912.533 1345.13C910.533 1345.01 910.3 1348.07 912.298 1348.19C912.298 1348.19 914.188 1348.42 916.186 1348.54L921.961 1364.37L913.846 1388.7L900.345 1348.54C902.58 1348.42 904.588 1348.19 904.588 1348.19C906.585 1347.95 906.349 1345.01 904.351 1345.13C904.351 1345.13 898.347 1345.6 894.47 1345.6C893.775 1345.6 892.954 1345.59 892.083 1345.56C898.713 1335.49 910.107 1328.85 923.061 1328.85C932.712 1328.85 941.501 1332.54 948.097 1338.58C948.042 1338.58 947.987 1338.57 947.931 1338.57C947.828 1338.56 947.724 1338.55 947.617 1338.55C943.974 1338.55 941.39 1341.72 941.39 1345.13C941.39 1347.95 942.888 1350.36 944.593 1353.12C944.739 1353.35 944.885 1353.59 945.033 1353.83ZM912.586 1401.49L923.712 1369.17L935.108 1400.39C935.183 1400.57 935.275 1400.74 935.374 1400.9C931.52 1402.26 927.379 1403 923.061 1403C919.421 1403 915.908 1402.47 912.586 1401.49ZM955.845 1351.95C955.845 1350.58 955.755 1349.32 955.596 1348.14C958.489 1353.42 960.137 1359.48 960.137 1365.92C960.137 1379.6 952.724 1391.54 941.701 1397.97L953.025 1365.23C955.141 1359.94 955.845 1355.71 955.845 1351.95Z" fill="#4A4A4A"/>
<path fill-rule="evenodd" clip-rule="evenodd" d="M1137.57 1011.93C1137.57 1049.21 1107.35 1079.43 1070.07 1079.43C1032.79 1079.43 1002.57 1049.21 1002.57 1011.93C1002.57 974.655 1032.79 944.435 1070.07 944.435C1107.35 944.435 1137.57 974.655 1137.57 1011.93ZM1076.09 1054.52H1090.31V1037.77H1082.8C1077.51 1037.77 1074.18 1035.49 1074.18 1028.9V1006.91H1089.7V991.024H1074.18V969.344H1060.88C1060.26 978.894 1054.9 989.914 1042.09 993.244V1006.91H1053.73V1032.16C1053.73 1047.93 1063.28 1054.52 1076.09 1054.52Z" fill="#4A4A4A"/>
<path fill-rule="evenodd" clip-rule="evenodd" d="M828.571 548.935C828.571 586.214 798.35 616.435 761.071 616.435C723.792 616.435 693.571 586.214 693.571 548.935C693.571 511.655 723.792 481.435 761.071 481.435C798.35 481.435 828.571 511.655 828.571 548.935ZM796.211 539.094C801.641 539.094 806.051 543.494 806.051 548.934H806.071C806.071 552.954 803.661 556.404 800.211 557.934C800.361 558.904 800.441 559.894 800.441 560.894C800.441 576.034 782.811 588.314 761.061 588.314C739.311 588.314 721.681 576.034 721.681 560.894C721.681 559.884 721.761 558.894 721.911 557.914C718.481 556.374 716.091 552.934 716.091 548.934C716.091 543.504 720.491 539.094 725.931 539.094C728.581 539.094 730.971 540.134 732.741 541.834C739.551 536.924 748.971 533.784 759.451 533.494L764.461 509.954C764.551 509.494 764.831 509.094 765.221 508.844C765.611 508.594 766.081 508.494 766.541 508.594L782.901 512.074C784.051 509.764 786.421 508.154 789.181 508.154C793.061 508.154 796.211 511.304 796.211 515.184C796.211 519.064 792.951 522.214 789.181 522.214C785.411 522.214 782.361 519.234 782.181 515.514L767.531 512.404L763.051 533.504C773.381 533.864 782.651 536.994 789.381 541.854C791.151 540.154 793.561 539.094 796.211 539.094ZM745.601 548.934C741.731 548.934 738.571 552.084 738.571 555.964C738.571 559.844 741.721 562.994 745.601 562.994C749.481 562.994 752.631 559.844 752.631 555.964C752.631 552.084 749.471 548.934 745.601 548.934ZM761.071 579.704C763.781 579.704 772.971 579.334 777.771 574.544L777.781 574.534C778.491 573.824 778.491 572.664 777.781 571.954C777.071 571.244 775.911 571.244 775.201 571.954C772.171 574.984 765.701 576.054 761.081 576.054C756.461 576.054 749.981 574.974 746.961 571.954C746.251 571.244 745.091 571.244 744.381 571.954C743.671 572.664 743.671 573.824 744.381 574.534C749.171 579.334 758.361 579.704 761.071 579.704ZM769.501 555.964C769.501 559.844 772.651 562.994 776.531 562.994C780.411 562.994 783.561 559.834 783.561 555.964C783.561 552.094 780.411 548.934 776.531 548.934C772.651 548.934 769.501 552.084 769.501 555.964Z" fill="#4A4A4A"/>
<path fill-rule="evenodd" clip-rule="evenodd" d="M569.071 1579.43C606.35 1579.43 636.571 1549.21 636.571 1511.93C636.571 1474.66 606.35 1444.43 569.071 1444.43C531.792 1444.43 501.571 1474.66 501.571 1511.93C501.571 1549.21 531.792 1579.43 569.071 1579.43ZM544.429 1523.15C544.429 1528.06 540.414 1532.08 535.5 1532.08C530.585 1532.08 526.571 1528.06 526.571 1523.15C526.571 1518.23 530.585 1514.22 535.5 1514.22H544.429V1523.15ZM557.857 1514.22C552.943 1514.22 548.928 1518.23 548.928 1523.15V1545.51C548.928 1550.42 552.943 1554.43 557.857 1554.43C562.772 1554.43 566.786 1550.42 566.786 1545.51V1523.15C566.786 1518.23 562.772 1514.22 557.857 1514.22ZM557.857 1487.29C552.943 1487.29 548.928 1483.28 548.928 1478.36C548.928 1473.45 552.943 1469.43 557.857 1469.43C562.772 1469.43 566.786 1473.45 566.786 1478.36V1487.29H557.857ZM566.787 1500.72C566.787 1495.81 562.772 1491.79 557.857 1491.79H535.5C530.585 1491.79 526.571 1495.81 526.571 1500.72C526.571 1505.64 530.585 1509.65 535.5 1509.65H557.857C562.772 1509.65 566.787 1505.64 566.787 1500.72ZM593.713 1500.72C593.713 1495.81 597.727 1491.79 602.642 1491.79C607.556 1491.79 611.571 1495.81 611.571 1500.72C611.571 1505.64 607.556 1509.65 602.642 1509.65H593.713V1500.72ZM580.284 1509.65C585.198 1509.65 589.213 1505.64 589.213 1500.72V1478.36C589.213 1473.45 585.198 1469.43 580.284 1469.43C575.369 1469.43 571.355 1473.45 571.355 1478.36V1500.72C571.355 1505.64 575.369 1509.65 580.284 1509.65ZM580.284 1536.58C585.198 1536.58 589.213 1540.59 589.213 1545.51C589.213 1550.42 585.198 1554.43 580.284 1554.43C575.369 1554.43 571.355 1550.42 571.355 1545.51V1536.58H580.284ZM571.355 1523.15C571.355 1528.06 575.369 1532.08 580.284 1532.08H602.641C607.556 1532.08 611.571 1528.06 611.571 1523.15C611.571 1518.23 607.556 1514.22 602.641 1514.22H580.284C575.369 1514.22 571.355 1518.23 571.355 1523.15Z" fill="#4A4A4A"/>
<path fill-rule="evenodd" clip-rule="evenodd" d="M444.571 548.935C444.571 586.214 414.35 616.435 377.071 616.435C339.792 616.435 309.571 586.214 309.571 548.935C309.571 511.655 339.792 481.435 377.071 481.435C414.35 481.435 444.571 511.655 444.571 548.935ZM334.571 561.315L363.31 511.841L376.389 534.845L361.056 561.242L347.389 584.766L334.571 561.315ZM419.778 562.298L392.562 562.375L362.275 562.46L348.608 585.985L405.973 585.972L419.778 562.298ZM364.529 511.435L390.925 511.512L419.778 560.673L392.562 560.75L377.607 534.439L364.529 511.435Z" fill="#4A4A4A"/>
<path fill-rule="evenodd" clip-rule="evenodd" d="M761.071 1542.43C723.792 1542.43 693.571 1512.21 693.571 1474.93C693.571 1437.66 723.792 1407.43 761.071 1407.43C798.35 1407.43 828.571 1437.66 828.571 1474.93C828.571 1512.21 798.35 1542.43 761.071 1542.43ZM755.711 1489.67H768.094C779.758 1489.67 789.216 1480.46 789.216 1469.11C789.216 1457.75 779.76 1448.55 768.094 1448.55H750.222C743.494 1448.55 738.037 1453.86 738.037 1460.41V1506.58L755.711 1489.67Z" fill="#4A4A4A"/>
<path fill-rule="evenodd" clip-rule="evenodd" d="M924.071 725.435C961.35 725.435 991.571 695.214 991.571 657.935C991.571 620.655 961.35 590.435 924.071 590.435C886.792 590.435 856.571 620.655 856.571 657.935C856.571 695.214 886.792 725.435 924.071 725.435ZM947.187 656.056L947.157 656.047C945.887 655.662 945.024 655.401 945.687 653.724C947.148 650.056 947.302 646.892 945.713 644.625C942.752 640.39 934.635 640.616 925.333 644.511C925.333 644.511 922.409 645.785 923.165 643.476C924.59 638.874 924.374 635.032 922.156 632.801C917.115 627.747 903.693 632.991 892.183 644.498C883.575 653.106 878.571 662.244 878.571 670.147C878.571 685.247 897.942 694.435 916.887 694.435C941.728 694.435 958.252 680.003 958.252 668.546C958.265 661.615 952.428 657.681 947.185 656.056H947.187ZM916.218 690.579C899.14 690.579 885.289 681.958 885.289 671.32C885.289 660.681 899.14 652.061 916.218 652.061C933.296 652.061 947.148 660.681 947.148 671.32C947.148 681.958 933.296 690.579 916.218 690.579ZM937.984 625.114C937.581 623.237 938.779 621.37 940.669 620.967H940.672C948.838 619.228 957.685 621.76 963.685 628.415C969.686 635.058 971.311 644.121 968.739 652.048V652.061C968.147 653.888 966.181 654.897 964.341 654.304C962.5 653.711 961.491 651.746 962.084 649.905C963.912 644.259 962.752 637.819 958.491 633.092C954.23 628.366 947.941 626.564 942.13 627.799C940.24 628.202 938.387 627.004 937.984 625.114ZM953.135 650.194C954.724 650.698 956.414 649.84 956.929 648.252C958.176 644.383 957.394 639.971 954.472 636.732C951.547 633.493 947.237 632.258 943.267 633.116C941.642 633.456 940.607 635.068 940.948 636.696C941.301 638.321 942.9 639.355 944.515 639.002C946.457 638.586 948.573 639.192 949.997 640.767C951.422 642.355 951.812 644.511 951.196 646.401C950.692 647.976 951.55 649.676 953.138 650.194H953.135ZM899.996 668.762C903.123 662.421 911.253 658.83 918.449 660.707C925.897 662.637 929.704 669.656 926.654 676.488C923.565 683.458 914.692 687.189 907.156 684.756C899.894 682.411 896.806 675.227 899.996 668.762ZM905.999 679.501C908.354 680.573 911.495 679.551 912.956 677.219L912.958 677.221C914.393 674.863 913.637 672.18 911.268 671.159C908.923 670.173 905.9 671.182 904.449 673.452C902.985 675.732 903.68 678.443 905.999 679.501ZM915.173 671.998C916.081 672.378 917.251 671.949 917.781 671.042C918.285 670.121 917.958 669.1 917.05 668.772C916.156 668.418 915.036 668.847 914.505 669.729C913.988 670.613 914.266 671.632 915.173 671.998Z" fill="#4A4A4A"/>
<line x1="154.571" y1="1010.43" x2="982.571" y2="1010.43" stroke="#007299" stroke-width="2"/>
<path d="M154.571 1010.93L186.552 1170.24" stroke="#007299" stroke-width="2"/>
<line x1="155.495" y1="1011.05" x2="276.495" y2="1304.05" stroke="#007299" stroke-width="2"/>
<line x1="155.404" y1="1010.88" x2="410.404" y2="1394.88" stroke="#007299" stroke-width="2"/>
<path d="M155.278 1010.73L568.571 1425.43" stroke="#007299" stroke-width="2"/>
<line x1="155.128" y1="1010.6" x2="727.128" y2="1394.6" stroke="#007299" stroke-width="2"/>
<line x1="154.955" y1="1010.51" x2="860.955" y2="1304.51" stroke="#007299" stroke-width="2"/>
<line x1="154.768" y1="1010.45" x2="950.768" y2="1170.45" stroke="#007299" stroke-width="2"/>
<path d="M154.571 1011.43L185.591 853.236" stroke="#007299" stroke-width="2"/>
<path d="M154.571 1011.43L275.648 719.049" stroke="#007299" stroke-width="2"/>
<path d="M154.739 1010.88L408.739 628.879" stroke="#007299" stroke-width="2"/>
<path d="M154.571 1011.43L567.864 596.727" stroke="#007299" stroke-width="2"/>
<path d="M155.015 1010.6L726.015 628.603" stroke="#007299" stroke-width="2"/>
<path d="M155.189 1010.51L860.189 718.51" stroke="#007299" stroke-width="2"/>
<path d="M154.376 1010.45L950.376 852.454" stroke="#007299" stroke-width="2"/>
<line x1="186.01" y1="852.926" x2="951.55" y2="1168.41" stroke="#007299" stroke-width="2"/>
<path d="M185.82 853.388L154.689 1012.87" stroke="#007299" stroke-width="2"/>
<line x1="186.629" y1="853.85" x2="186.862" y2="1170.85" stroke="#007299" stroke-width="2"/>
<line x1="186.61" y1="853.657" x2="276.061" y2="1305.85" stroke="#007299" stroke-width="2"/>
<path d="M186.552 853.466L410.655 1394.36" stroke="#007299" stroke-width="2"/>
<line x1="186.461" y1="853.296" x2="568.999" y2="1426.27" stroke="#007299" stroke-width="2"/>
<line x1="186.337" y1="853.144" x2="727.059" y2="1393.97" stroke="#007299" stroke-width="2"/>
<line x1="186.185" y1="853.019" x2="861.175" y2="1304.24" stroke="#007299" stroke-width="2"/>
<path d="M185.629 853.851L274.587 719.405" stroke="#007299" stroke-width="2"/>
<path d="M185.629 853.851L408.979 629.655" stroke="#007299" stroke-width="2"/>
<path d="M185.996 853.402L566.387 596.998" stroke="#007299" stroke-width="2"/>
<path d="M185.629 853.851L725.759 627.901" stroke="#007299" stroke-width="2"/>
<path d="M186.357 853.251L859.835 717.632" stroke="#007299" stroke-width="2"/>
<path d="M186.553 853.232L949.63 851.88" stroke="#007299" stroke-width="2"/>
<path d="M185.823 852.87L981.979 1010.08" stroke="#007299" stroke-width="2"/>
<line x1="276.062" y1="718.308" x2="861.706" y2="1303.63" stroke="#007299" stroke-width="2"/>
<path d="M275.709 718.661L185.712 853.948" stroke="#007299" stroke-width="2"/>
<line x1="276.279" y1="719.398" x2="154.736" y2="1012.17" stroke="#007299" stroke-width="2"/>
<line x1="276.336" y1="719.213" x2="185.242" y2="1171.08" stroke="#007299" stroke-width="2"/>
<path d="M276.355 719.015L275.515 1304.5" stroke="#007299" stroke-width="2"/>
<line x1="276.337" y1="718.822" x2="409.457" y2="1394.78" stroke="#007299" stroke-width="2"/>
<line x1="276.28" y1="718.634" x2="567.8" y2="1425.66" stroke="#007299" stroke-width="2"/>
<line x1="276.188" y1="718.461" x2="726.092" y2="1394.33" stroke="#007299" stroke-width="2"/>
<path d="M275.356 719.015L409.129 629.05" stroke="#007299" stroke-width="2"/>
<path d="M275.356 719.015L567.685 597.802" stroke="#007299" stroke-width="2"/>
<path d="M275.867 718.741L725.562 628.109" stroke="#007299" stroke-width="2"/>
<path d="M275.356 719.015L860.84 717.856" stroke="#007299" stroke-width="2"/>
<path d="M276.258 718.741L950.167 852.201" stroke="#007299" stroke-width="2"/>
<path d="M276.446 718.798L981.511 1010.64" stroke="#007299" stroke-width="2"/>
<path d="M275.911 718.184L950.614 1169.13" stroke="#007299" stroke-width="2"/>
<line x1="410.558" y1="628.75" x2="727.174" y2="1393.82" stroke="#007299" stroke-width="2"/>
<path d="M410.096 628.941L275.124 719.409" stroke="#007299" stroke-width="2"/>
<line x1="410.34" y1="629.84" x2="185.876" y2="853.684" stroke="#007299" stroke-width="2"/>
<line x1="410.463" y1="629.69" x2="153.155" y2="1012.15" stroke="#007299" stroke-width="2"/>
<path d="M410.557 629.515L185.404 1169.98" stroke="#007299" stroke-width="2"/>
<line x1="410.614" y1="629.33" x2="274.522" y2="1304.7" stroke="#007299" stroke-width="2"/>
<line x1="410.634" y1="629.134" x2="408.942" y2="1393.9" stroke="#007299" stroke-width="2"/>
<line x1="410.615" y1="628.939" x2="567.154" y2="1425.63" stroke="#007299" stroke-width="2"/>
<path d="M409.634 629.132L567.671 597.302" stroke="#007299" stroke-width="2"/>
<path d="M409.634 629.132L726.097 629.204" stroke="#007299" stroke-width="2"/>
<path d="M410.211 629.075L860.306 717.7" stroke="#007299" stroke-width="2"/>
<path d="M409.634 629.132L950.862 852.437" stroke="#007299" stroke-width="2"/>
<path d="M410.572 629.225L981.884 1010.76" stroke="#007299" stroke-width="2"/>
<path d="M410.724 629.35L950.115 1169.11" stroke="#007299" stroke-width="2"/>
<path d="M410.465 628.577L860.837 1303.67" stroke="#007299" stroke-width="2"/>
<line x1="568.728" y1="597.571" x2="568.727" y2="1425.57" stroke="#007299" stroke-width="2"/>
<path d="M568.227 597.571L408.919 629.553" stroke="#007299" stroke-width="2"/>
<line x1="568.109" y1="598.495" x2="275.109" y2="719.495" stroke="#007299" stroke-width="2"/>
<line x1="568.281" y1="598.404" x2="184.281" y2="853.404" stroke="#007299" stroke-width="2"/>
<path d="M568.435 598.278L153.727 1011.57" stroke="#007299" stroke-width="2"/>
<line x1="568.558" y1="598.128" x2="184.558" y2="1170.13" stroke="#007299" stroke-width="2"/>
<line x1="568.651" y1="597.955" x2="274.651" y2="1303.96" stroke="#007299" stroke-width="2"/>
<line x1="568.708" y1="597.768" x2="408.708" y2="1393.77" stroke="#007299" stroke-width="2"/>
<path d="M567.727 597.571L725.926 628.591" stroke="#007299" stroke-width="2"/>
<path d="M567.728 597.571L860.113 718.648" stroke="#007299" stroke-width="2"/>
<path d="M568.283 597.739L950.283 851.739" stroke="#007299" stroke-width="2"/>
<path d="M567.728 597.571L982.435 1010.86" stroke="#007299" stroke-width="2"/>
<path d="M568.559 598.016L950.559 1169.02" stroke="#007299" stroke-width="2"/>
<path d="M568.652 598.189L860.652 1303.19" stroke="#007299" stroke-width="2"/>
<path d="M568.708 597.376L726.708 1393.38" stroke="#007299" stroke-width="2"/>
<line x1="726.236" y1="629.01" x2="410.748" y2="1394.55" stroke="#007299" stroke-width="2"/>
<path d="M725.773 628.82L566.296 597.689" stroke="#007299" stroke-width="2"/>
<line x1="725.312" y1="629.629" x2="408.31" y2="629.862" stroke="#007299" stroke-width="2"/>
<line x1="725.505" y1="629.61" x2="273.311" y2="719.061" stroke="#007299" stroke-width="2"/>
<path d="M725.695 629.552L184.797 853.656" stroke="#007299" stroke-width="2"/>
<line x1="725.866" y1="629.461" x2="152.888" y2="1012" stroke="#007299" stroke-width="2"/>
<line x1="726.018" y1="629.337" x2="185.193" y2="1170.06" stroke="#007299" stroke-width="2"/>
<line x1="726.142" y1="629.185" x2="274.917" y2="1304.18" stroke="#007299" stroke-width="2"/>
<path d="M725.311 628.629L859.757 717.587" stroke="#007299" stroke-width="2"/>
<path d="M725.311 628.629L949.507 851.979" stroke="#007299" stroke-width="2"/>
<path d="M725.76 628.997L982.164 1009.39" stroke="#007299" stroke-width="2"/>
<path d="M725.311 628.629L951.261 1168.76" stroke="#007299" stroke-width="2"/>
<path d="M725.911 629.357L861.53 1302.84" stroke="#007299" stroke-width="2"/>
<path d="M725.93 629.553L727.282 1392.63" stroke="#007299" stroke-width="2"/>
<path d="M726.292 628.823L569.079 1424.98" stroke="#007299" stroke-width="2"/>
<line x1="860.855" y1="719.063" x2="275.53" y2="1304.71" stroke="#007299" stroke-width="2"/>
<path d="M860.501 718.709L725.214 628.712" stroke="#007299" stroke-width="2"/>
<line x1="859.764" y1="719.279" x2="566.989" y2="597.737" stroke="#007299" stroke-width="2"/>
<line x1="859.95" y1="719.336" x2="408.084" y2="628.242" stroke="#007299" stroke-width="2"/>
<path d="M860.147 719.356L274.663 718.515" stroke="#007299" stroke-width="2"/>
<line x1="860.341" y1="719.337" x2="184.383" y2="852.457" stroke="#007299" stroke-width="2"/>
<line x1="860.529" y1="719.28" x2="153.501" y2="1010.8" stroke="#007299" stroke-width="2"/>
<line x1="860.702" y1="719.188" x2="184.83" y2="1169.09" stroke="#007299" stroke-width="2"/>
<path d="M860.147 718.356L950.112 852.129" stroke="#007299" stroke-width="2"/>
<path d="M860.147 718.356L981.36 1010.69" stroke="#007299" stroke-width="2"/>
<path d="M860.421 718.867L951.053 1168.56" stroke="#007299" stroke-width="2"/>
<path d="M860.148 718.356L861.307 1303.84" stroke="#007299" stroke-width="2"/>
<path d="M860.421 719.258L726.961 1393.17" stroke="#007299" stroke-width="2"/>
<path d="M860.364 719.446L568.521 1424.51" stroke="#007299" stroke-width="2"/>
<path d="M860.979 718.911L410.028 1393.61" stroke="#007299" stroke-width="2"/>
<line x1="950.413" y1="853.558" x2="185.339" y2="1170.17" stroke="#007299" stroke-width="2"/>
<path d="M950.221 853.096L859.753 718.123" stroke="#007299" stroke-width="2"/>
<line x1="949.322" y1="853.34" x2="725.479" y2="628.876" stroke="#007299" stroke-width="2"/>
<line x1="949.472" y1="853.463" x2="567.015" y2="596.155" stroke="#007299" stroke-width="2"/>
<path d="M949.647 853.557L409.185 628.405" stroke="#007299" stroke-width="2"/>
<line x1="949.833" y1="853.614" x2="274.467" y2="717.522" stroke="#007299" stroke-width="2"/>
<line x1="950.028" y1="853.634" x2="185.261" y2="851.942" stroke="#007299" stroke-width="2"/>
<line x1="950.223" y1="853.615" x2="153.535" y2="1010.15" stroke="#007299" stroke-width="2"/>
<path d="M950.03 852.634L981.861 1010.67" stroke="#007299" stroke-width="2"/>
<path d="M950.03 852.634L949.959 1169.1" stroke="#007299" stroke-width="2"/>
<path d="M950.087 853.211L861.462 1303.31" stroke="#007299" stroke-width="2"/>
<path d="M950.03 852.634L726.725 1393.86" stroke="#007299" stroke-width="2"/>
<path d="M949.937 853.572L568.403 1424.88" stroke="#007299" stroke-width="2"/>
<path d="M949.812 853.724L410.048 1393.11" stroke="#007299" stroke-width="2"/>
<path d="M950.585 853.466L275.496 1303.84" stroke="#007299" stroke-width="2"/>
<line x1="981.591" y1="1011.73" x2="153.591" y2="1011.73" stroke="#007299" stroke-width="2"/>
<path d="M981.591 1011.23L949.61 851.919" stroke="#007299" stroke-width="2"/>
<line x1="980.667" y1="1011.11" x2="859.667" y2="718.109" stroke="#007299" stroke-width="2"/>
<line x1="980.758" y1="1011.28" x2="725.758" y2="627.281" stroke="#007299" stroke-width="2"/>
<path d="M980.884 1011.43L567.591 596.727" stroke="#007299" stroke-width="2"/>
<line x1="981.034" y1="1011.56" x2="409.034" y2="627.558" stroke="#007299" stroke-width="2"/>
<line x1="981.207" y1="1011.65" x2="275.207" y2="717.651" stroke="#007299" stroke-width="2"/>
<line x1="981.394" y1="1011.71" x2="185.394" y2="851.708" stroke="#007299" stroke-width="2"/>
<path d="M981.591 1010.73L950.571 1168.93" stroke="#007299" stroke-width="2"/>
<path d="M981.591 1010.73L860.514 1303.11" stroke="#007299" stroke-width="2"/>
<path d="M981.423 1011.28L727.423 1393.28" stroke="#007299" stroke-width="2"/>
<path d="M981.591 1010.73L568.298 1425.43" stroke="#007299" stroke-width="2"/>
<path d="M981.147 1011.56L410.147 1393.56" stroke="#007299" stroke-width="2"/>
<path d="M980.974 1011.65L275.974 1303.65" stroke="#007299" stroke-width="2"/>
<path d="M981.786 1011.71L185.786 1169.71" stroke="#007299" stroke-width="2"/>
<line x1="950.152" y1="1169.24" x2="184.612" y2="853.748" stroke="#007299" stroke-width="2"/>
<path d="M950.342 1168.77L981.474 1009.3" stroke="#007299" stroke-width="2"/>
<line x1="949.533" y1="1168.31" x2="949.3" y2="851.31" stroke="#007299" stroke-width="2"/>
<line x1="949.552" y1="1168.51" x2="860.101" y2="716.311" stroke="#007299" stroke-width="2"/>
<path d="M949.61 1168.7L725.507 627.797" stroke="#007299" stroke-width="2"/>
<line x1="949.701" y1="1168.87" x2="567.163" y2="595.888" stroke="#007299" stroke-width="2"/>
<line x1="949.826" y1="1169.02" x2="409.103" y2="628.193" stroke="#007299" stroke-width="2"/>
<line x1="949.977" y1="1169.14" x2="274.987" y2="717.917" stroke="#007299" stroke-width="2"/>
<path d="M950.533 1168.31L861.575 1302.76" stroke="#007299" stroke-width="2"/>
<path d="M950.533 1168.31L727.183 1392.51" stroke="#007299" stroke-width="2"/>
<path d="M950.166 1168.76L569.775 1425.16" stroke="#007299" stroke-width="2"/>
<path d="M950.533 1168.31L410.403 1394.26" stroke="#007299" stroke-width="2"/>
<path d="M949.805 1168.91L276.327 1304.53" stroke="#007299" stroke-width="2"/>
<path d="M949.609 1168.93L186.532 1170.28" stroke="#007299" stroke-width="2"/>
<path d="M950.339 1169.29L154.183 1012.08" stroke="#007299" stroke-width="2"/>
<line x1="860.1" y1="1303.85" x2="274.456" y2="718.529" stroke="#007299" stroke-width="2"/>
<path d="M860.453 1303.5L950.45 1168.21" stroke="#007299" stroke-width="2"/>
<line x1="859.883" y1="1302.76" x2="981.426" y2="1009.99" stroke="#007299" stroke-width="2"/>
<line x1="859.826" y1="1302.95" x2="950.92" y2="851.083" stroke="#007299" stroke-width="2"/>
<path d="M859.807 1303.15L860.647 717.663" stroke="#007299" stroke-width="2"/>
<line x1="859.825" y1="1303.34" x2="726.705" y2="627.382" stroke="#007299" stroke-width="2"/>
<line x1="859.882" y1="1303.53" x2="568.362" y2="596.501" stroke="#007299" stroke-width="2"/>
<line x1="859.974" y1="1303.7" x2="410.07" y2="627.829" stroke="#007299" stroke-width="2"/>
<path d="M860.807 1303.15L727.033 1393.11" stroke="#007299" stroke-width="2"/>
<path d="M860.806 1303.15L568.477 1424.36" stroke="#007299" stroke-width="2"/>
<path d="M860.295 1303.42L410.6 1394.05" stroke="#007299" stroke-width="2"/>
<path d="M860.806 1303.15L275.322 1304.31" stroke="#007299" stroke-width="2"/>
<path d="M859.904 1303.42L185.995 1169.96" stroke="#007299" stroke-width="2"/>
<path d="M859.716 1303.36L154.651 1011.52" stroke="#007299" stroke-width="2"/>
<path d="M860.251 1303.98L185.548 853.028" stroke="#007299" stroke-width="2"/>
<line x1="725.604" y1="1393.41" x2="408.988" y2="628.338" stroke="#007299" stroke-width="2"/>
<path d="M726.066 1393.22L861.039 1302.75" stroke="#007299" stroke-width="2"/>
<line x1="725.822" y1="1392.32" x2="950.286" y2="1168.48" stroke="#007299" stroke-width="2"/>
<line x1="725.699" y1="1392.47" x2="983.007" y2="1010.01" stroke="#007299" stroke-width="2"/>
<path d="M725.605 1392.65L950.758 852.185" stroke="#007299" stroke-width="2"/>
<line x1="725.548" y1="1392.83" x2="861.64" y2="717.467" stroke="#007299" stroke-width="2"/>
<line x1="725.528" y1="1393.03" x2="727.22" y2="628.26" stroke="#007299" stroke-width="2"/>
<line x1="725.547" y1="1393.22" x2="569.008" y2="596.535" stroke="#007299" stroke-width="2"/>
<path d="M726.528 1393.03L568.491 1424.86" stroke="#007299" stroke-width="2"/>
<path d="M726.528 1393.03L410.065 1392.96" stroke="#007299" stroke-width="2"/>
<path d="M725.951 1393.09L275.856 1304.46" stroke="#007299" stroke-width="2"/>
<path d="M726.528 1393.03L185.301 1169.72" stroke="#007299" stroke-width="2"/>
<path d="M725.59 1392.94L154.278 1011.4" stroke="#007299" stroke-width="2"/>
<path d="M725.438 1392.81L186.047 853.048" stroke="#007299" stroke-width="2"/>
<path d="M725.697 1393.58L275.325 718.496" stroke="#007299" stroke-width="2"/>
<line x1="567.435" y1="1424.59" x2="567.435" y2="596.591" stroke="#007299" stroke-width="2"/>
<path d="M567.935 1424.59L727.243 1392.61" stroke="#007299" stroke-width="2"/>
<line x1="568.053" y1="1423.67" x2="861.053" y2="1302.67" stroke="#007299" stroke-width="2"/>
<line x1="567.881" y1="1423.76" x2="951.881" y2="1168.76" stroke="#007299" stroke-width="2"/>
<path d="M567.728 1423.88L982.435 1010.59" stroke="#007299" stroke-width="2"/>
<line x1="567.604" y1="1424.03" x2="951.604" y2="852.033" stroke="#007299" stroke-width="2"/>
<line x1="567.511" y1="1424.21" x2="861.511" y2="718.206" stroke="#007299" stroke-width="2"/>
<line x1="567.454" y1="1424.39" x2="727.454" y2="628.394" stroke="#007299" stroke-width="2"/>
<path d="M568.435 1424.59L410.236 1393.57" stroke="#007299" stroke-width="2"/>
<path d="M568.434 1424.59L276.049 1303.51" stroke="#007299" stroke-width="2"/>
<path d="M567.879 1424.42L185.879 1170.42" stroke="#007299" stroke-width="2"/>
<path d="M568.435 1424.59L153.728 1011.3" stroke="#007299" stroke-width="2"/>
<path d="M567.603 1424.15L185.603 853.146" stroke="#007299" stroke-width="2"/>
<path d="M567.51 1423.97L275.51 718.973" stroke="#007299" stroke-width="2"/>
<path d="M567.454 1424.79L409.454 628.786" stroke="#007299" stroke-width="2"/>
<line x1="409.927" y1="1393.15" x2="725.414" y2="627.611" stroke="#007299" stroke-width="2"/>
<path d="M410.389 1393.34L569.866 1424.47" stroke="#007299" stroke-width="2"/>
<line x1="410.85" y1="1392.53" x2="727.852" y2="1392.3" stroke="#007299" stroke-width="2"/>
<line x1="410.657" y1="1392.55" x2="862.851" y2="1303.1" stroke="#007299" stroke-width="2"/>
<path d="M410.467 1392.61L951.365 1168.51" stroke="#007299" stroke-width="2"/>
<line x1="410.296" y1="1392.7" x2="983.274" y2="1010.16" stroke="#007299" stroke-width="2"/>
<line x1="410.144" y1="1392.83" x2="950.969" y2="852.103" stroke="#007299" stroke-width="2"/>
<line x1="410.02" y1="1392.98" x2="861.245" y2="717.987" stroke="#007299" stroke-width="2"/>
<path d="M410.851 1393.53L276.405 1304.58" stroke="#007299" stroke-width="2"/>
<path d="M410.851 1393.53L186.655 1170.18" stroke="#007299" stroke-width="2"/>
<path d="M410.402 1393.17L153.998 1012.77" stroke="#007299" stroke-width="2"/>
<path d="M410.851 1393.53L184.901 853.403" stroke="#007299" stroke-width="2"/>
<path d="M410.252 1392.8L274.632 719.327" stroke="#007299" stroke-width="2"/>
<path d="M410.232 1392.61L408.88 629.532" stroke="#007299" stroke-width="2"/>
<path d="M409.87 1393.34L567.083 597.183" stroke="#007299" stroke-width="2"/>
<line x1="275.307" y1="1303.1" x2="860.632" y2="717.455" stroke="#007299" stroke-width="2"/>
<path d="M275.661 1303.45L410.948 1393.45" stroke="#007299" stroke-width="2"/>
<line x1="276.398" y1="1302.88" x2="569.173" y2="1424.43" stroke="#007299" stroke-width="2"/>
<line x1="276.212" y1="1302.83" x2="728.078" y2="1393.92" stroke="#007299" stroke-width="2"/>
<path d="M276.015 1302.81L861.499 1303.65" stroke="#007299" stroke-width="2"/>
<line x1="275.821" y1="1302.82" x2="951.779" y2="1169.7" stroke="#007299" stroke-width="2"/>
<line x1="275.633" y1="1302.88" x2="982.661" y2="1011.36" stroke="#007299" stroke-width="2"/>
<line x1="275.461" y1="1302.97" x2="951.332" y2="853.07" stroke="#007299" stroke-width="2"/>
<path d="M276.015 1303.81L186.05 1170.03" stroke="#007299" stroke-width="2"/>
<path d="M276.015 1303.81L154.802 1011.48" stroke="#007299" stroke-width="2"/>
<path d="M275.741 1303.29L185.109 853.599" stroke="#007299" stroke-width="2"/>
<path d="M276.015 1303.81L274.855 718.322" stroke="#007299" stroke-width="2"/>
<path d="M275.741 1302.9L409.201 628.994" stroke="#007299" stroke-width="2"/>
<path d="M275.798 1302.72L567.641 597.651" stroke="#007299" stroke-width="2"/>
<path d="M275.184 1303.25L726.134 628.548" stroke="#007299" stroke-width="2"/>
<line x1="185.749" y1="1168.6" x2="950.823" y2="851.988" stroke="#007299" stroke-width="2"/>
<path d="M185.941 1169.07L276.409 1304.04" stroke="#007299" stroke-width="2"/>
<line x1="186.84" y1="1168.82" x2="410.683" y2="1393.29" stroke="#007299" stroke-width="2"/>
<line x1="186.69" y1="1168.7" x2="569.147" y2="1426.01" stroke="#007299" stroke-width="2"/>
<path d="M186.515 1168.6L726.977 1393.76" stroke="#007299" stroke-width="2"/>
<line x1="186.329" y1="1168.55" x2="861.695" y2="1304.64" stroke="#007299" stroke-width="2"/>
<line x1="186.134" y1="1168.53" x2="950.901" y2="1170.22" stroke="#007299" stroke-width="2"/>
<line x1="185.939" y1="1168.55" x2="982.627" y2="1012.01" stroke="#007299" stroke-width="2"/>
<path d="M186.132 1169.53L154.301 1011.49" stroke="#007299" stroke-width="2"/>
<path d="M186.132 1169.53L186.203 853.065" stroke="#007299" stroke-width="2"/>
<path d="M186.075 1168.95L274.7 718.856" stroke="#007299" stroke-width="2"/>
<path d="M186.132 1169.53L409.437 628.3" stroke="#007299" stroke-width="2"/>
<path d="M186.225 1168.59L567.759 597.278" stroke="#007299" stroke-width="2"/>
<path d="M186.35 1168.44L726.115 629.047" stroke="#007299" stroke-width="2"/>
<path d="M185.577 1168.7L860.666 718.324" stroke="#007299" stroke-width="2"/>
<circle cx="568" cy="1425" r="5" fill="#007299"/>
<circle cx="409" cy="1394" r="5" fill="#007299"/>
<circle cx="275" cy="1304" r="5" fill="#007299"/>
<circle cx="185" cy="1170" r="5" fill="#007299"/>
<circle cx="154" cy="1011" r="5" fill="#007299"/>
<circle cx="185" cy="853" r="5" fill="#007299"/>
<circle cx="275" cy="719" r="5" fill="#007299"/>
<circle cx="409" cy="629" r="5" fill="#007299"/>
<circle cx="726" cy="629" r="5" fill="#007299"/>
<circle cx="860" cy="719" r="5" fill="#007299"/>
<circle cx="950" cy="853" r="5" fill="#007299"/>
<circle cx="950" cy="1170" r="5" fill="#007299"/>
<circle cx="860" cy="1304" r="5" fill="#007299"/>
<circle cx="726" cy="1394" r="5" fill="#007299"/>
<circle cx="568" cy="597" r="5" fill="#007299"/>
<circle cx="982" cy="1011" r="5" fill="#007299"/>
<path d="M568 412L582.434 387H553.566L568 412ZM565.5 353V389.5H570.5V353H565.5Z" fill="#007299"/>
<path d="M568 159L582.434 134H553.566L568 159ZM565.5 100V136.5H570.5V100H565.5Z" fill="#007299"/>
</g>
<defs>
<clipPath id="clip0_86_2378">
<rect width="1138" height="1580" fill="white"/>
</clipPath>
</defs>
</svg>
