<svg width="1558" height="1138" viewBox="0 0 1558 1138" fill="none" xmlns="http://www.w3.org/2000/svg">
<g clip-path="url(#clip0_77_120)">
<path d="M301.79 540.781L300.944 540.883L301.79 540.765C301.684 539.921 301.303 539.136 300.707 538.53L265.48 503.253C265.286 503.055 265.07 502.879 264.837 502.728L264.668 502.626C264.487 502.52 264.3 502.424 264.109 502.339L263.804 502.237C263.644 502.176 263.48 502.125 263.313 502.085C263.04 502.031 262.762 502.002 262.484 502H205.945C204.824 502.004 203.75 502.452 202.958 503.244C202.165 504.037 201.718 505.111 201.713 506.232V551.683C201.713 552.805 202.159 553.882 202.953 554.675C203.747 555.469 204.823 555.915 205.945 555.915C207.068 555.915 208.144 555.469 208.938 554.675C209.731 553.882 210.177 552.805 210.177 551.683V510.464H258.252V541.171C258.252 542.29 258.696 543.364 259.486 544.157C260.276 544.95 261.348 545.398 262.467 545.403L293.377 545.572V627.536H210.177V620.968C210.177 619.846 209.731 618.769 208.938 617.976C208.144 617.182 207.068 616.736 205.945 616.736C204.823 616.736 203.747 617.182 202.953 617.976C202.159 618.769 201.713 619.846 201.713 620.968V631.768C201.718 632.889 202.165 633.963 202.958 634.756C203.75 635.548 204.824 635.996 205.945 636H297.609C298.73 635.996 299.804 635.548 300.597 634.756C301.389 633.963 301.837 632.889 301.841 631.768V541.374C301.841 541.175 301.824 540.977 301.79 540.781ZM266.716 536.973V516.524L287.334 537.074L266.716 536.973Z" fill="#4A4A4A"/>
<path fill-rule="evenodd" clip-rule="evenodd" d="M193.232 560.993H278.7C279.821 560.998 280.895 561.445 281.688 562.238C282.48 563.03 282.928 564.104 282.932 565.225V607.426C282.932 608.548 282.486 609.625 281.693 610.418C280.899 611.212 279.822 611.658 278.7 611.658H193.232C192.11 611.658 191.033 611.212 190.24 610.418C189.446 609.625 189 608.548 189 607.426V565.225C189.004 564.104 189.452 563.03 190.244 562.238C191.037 561.445 192.111 560.998 193.232 560.993ZM258.657 581.364C258.871 581.67 259.028 582.026 259.127 582.431H265.57C265.448 581.254 265.104 580.172 264.538 579.186C263.973 578.2 263.227 577.348 262.303 576.63C261.386 575.904 260.327 575.346 259.127 574.956C257.935 574.559 256.643 574.36 255.252 574.36C253.67 574.36 252.188 574.628 250.804 575.162C249.421 575.69 248.202 576.473 247.147 577.513C246.093 578.544 245.267 579.809 244.671 581.307C244.083 582.805 243.789 584.525 243.789 586.466C243.789 588.942 244.27 591.078 245.233 592.874C246.204 594.67 247.553 596.053 249.28 597.024C251.007 597.995 253.013 598.48 255.298 598.48C257.347 598.48 259.162 598.079 260.744 597.276C262.333 596.466 263.579 595.305 264.481 593.791C265.39 592.27 265.845 590.44 265.845 588.3V585.044H255.436V589.584H259.699C259.682 590.239 259.522 590.812 259.219 591.304C258.898 591.823 258.413 592.225 257.763 592.507C257.121 592.79 256.315 592.931 255.344 592.931C254.244 592.931 253.323 592.672 252.581 592.152C251.84 591.632 251.282 590.883 250.908 589.905C250.533 588.927 250.346 587.75 250.346 586.374C250.346 585.014 250.541 583.852 250.931 582.889C251.328 581.926 251.901 581.189 252.65 580.677C253.407 580.165 254.32 579.909 255.39 579.909C255.887 579.909 256.342 579.966 256.754 580.08C257.175 580.187 257.541 580.352 257.855 580.573C258.176 580.787 258.443 581.051 258.657 581.364ZM214.475 574.681H222.408L227.865 587.979H228.14L233.597 574.681H241.53V598.159H235.293V584.586H235.11L229.882 597.976H226.122L220.895 584.494H220.711V598.159H214.475V574.681ZM211.454 598.159V574.681H205.08V598.159H211.454Z" fill="#4A4A4A"/>
<path fill-rule="evenodd" clip-rule="evenodd" d="M0 538C0 535.791 1.79086 534 4 534H66C68.2091 534 70 535.791 70 538V600C70 602.209 68.2091 604 66 604H4C1.79086 604 0 602.209 0 600V538ZM13 551C13 549.343 14.3431 548 16 548H53C54.6569 548 56 549.343 56 551C56 552.657 54.6569 554 53 554H16C14.3431 554 13 552.657 13 551ZM16 560C14.3431 560 13 561.343 13 563C13 564.657 14.3431 566 16 566H45.4561C47.113 566 48.4561 564.657 48.4561 563C48.4561 561.343 47.113 560 45.4561 560H16ZM13 575C13 573.343 14.3431 572 16 572H47.7193C49.3761 572 50.7193 573.343 50.7193 575C50.7193 576.657 49.3762 578 47.7193 578H16C14.3432 578 13 576.657 13 575ZM16 584C14.3431 584 13 585.343 13 587C13 588.657 14.3431 590 16 590H53C54.6569 590 56 588.657 56 587C56 585.343 54.6569 584 53 584H16Z" fill="#6A6A6A"/>
<path fill-rule="evenodd" clip-rule="evenodd" d="M526.071 827.435C563.35 827.435 593.571 797.214 593.571 759.935C593.571 722.655 563.35 692.435 526.071 692.435C488.792 692.435 458.571 722.655 458.571 759.935C458.571 797.214 488.792 827.435 526.071 827.435ZM526.071 725.085C537.421 725.085 538.761 725.125 543.241 725.335C547.381 725.525 549.631 726.215 551.131 726.795C553.111 727.565 554.531 728.485 556.021 729.975C557.511 731.465 558.431 732.875 559.201 734.865C559.781 736.365 560.471 738.615 560.661 742.755C560.861 747.235 560.911 748.585 560.911 759.925C560.911 771.265 560.871 772.615 560.661 777.095C560.471 781.235 559.781 783.485 559.201 784.985C558.431 786.965 557.511 788.385 556.021 789.875C554.531 791.365 553.121 792.285 551.131 793.055C549.631 793.635 547.381 794.325 543.241 794.515C538.761 794.715 537.421 794.765 526.071 794.765C514.721 794.765 513.381 794.725 508.901 794.515C504.761 794.325 502.511 793.635 501.011 793.055C499.031 792.285 497.611 791.365 496.121 789.875C494.631 788.385 493.711 786.975 492.941 784.985C492.361 783.485 491.671 781.235 491.481 777.095C491.281 772.615 491.231 771.265 491.231 759.925C491.231 748.585 491.271 747.235 491.481 742.755C491.671 738.615 492.361 736.365 492.941 734.865C493.711 732.885 494.631 731.465 496.121 729.975C497.611 728.485 499.021 727.565 501.011 726.795C502.511 726.215 504.761 725.525 508.901 725.335C513.381 725.135 514.731 725.085 526.071 725.085ZM526.071 717.435C514.531 717.435 513.081 717.485 508.551 717.695C504.031 717.905 500.941 718.615 498.231 719.675C495.441 720.765 493.071 722.215 490.701 724.575C488.341 726.935 486.881 729.305 485.801 732.105C484.751 734.805 484.031 737.895 483.821 742.425C483.611 746.955 483.561 748.405 483.561 759.945C483.561 771.485 483.611 772.935 483.821 777.465C484.031 781.985 484.741 785.075 485.801 787.785C486.891 790.575 488.341 792.945 490.701 795.315C493.061 797.675 495.431 799.135 498.231 800.215C500.931 801.265 504.021 801.985 508.551 802.195C513.081 802.405 514.531 802.455 526.071 802.455C537.611 802.455 539.061 802.405 543.591 802.195C548.111 801.985 551.201 801.275 553.911 800.215C556.701 799.125 559.071 797.675 561.441 795.315C563.801 792.955 565.261 790.585 566.341 787.785C567.391 785.085 568.111 781.995 568.321 777.465C568.531 772.935 568.581 771.485 568.581 759.945C568.581 748.405 568.531 746.955 568.321 742.425C568.111 737.905 567.401 734.815 566.341 732.105C565.251 729.315 563.801 726.945 561.441 724.575C559.081 722.215 556.711 720.755 553.911 719.675C551.211 718.625 548.121 717.905 543.591 717.695C539.061 717.485 537.611 717.435 526.071 717.435ZM504.25 759.925C504.25 747.875 514.02 738.105 526.07 738.105C538.12 738.105 547.891 747.875 547.891 759.925C547.891 771.975 538.12 781.745 526.07 781.745C514.02 781.745 504.25 771.975 504.25 759.925ZM511.901 759.925C511.901 767.755 518.25 774.095 526.07 774.095C533.9 774.095 540.24 767.755 540.24 759.925C540.24 752.095 533.9 745.755 526.07 745.755C518.24 745.755 511.901 752.095 511.901 759.925Z" fill="#4A4A4A"/>
<path fill-rule="evenodd" clip-rule="evenodd" d="M526.071 311.435C563.351 311.435 593.571 341.655 593.571 378.935C593.571 412.625 568.891 440.555 536.621 445.615V398.445H552.341L552.341 398.445H552.351L555.341 378.935H536.621V366.275C536.621 360.981 539.195 355.826 547.402 355.736C547.471 355.735 547.541 355.735 547.611 355.735H556.121V355.735H556.131V339.125C556.131 339.125 548.411 337.805 541.021 337.805C540.88 337.805 540.739 337.805 540.599 337.807C525.412 337.972 515.511 347.296 515.511 364.065V378.935H498.381V378.935H498.371V398.445H515.511V445.613C483.246 440.549 458.571 412.621 458.571 378.935C458.571 341.655 488.791 311.435 526.071 311.435Z" fill="#4A4A4A"/>
<path fill-rule="evenodd" clip-rule="evenodd" d="M701.571 214.935C701.571 252.214 671.35 282.435 634.071 282.435C596.792 282.435 566.571 252.214 566.571 214.935C566.571 177.655 596.792 147.435 634.071 147.435C671.35 147.435 701.571 177.655 701.571 214.935ZM671.431 202.805C671.431 226.493 653.403 253.802 620.436 253.805C610.318 253.804 600.899 250.834 592.971 245.755C594.381 245.925 595.801 246.005 597.251 246.005C605.651 246.005 613.371 243.145 619.511 238.335C611.671 238.185 605.051 233.005 602.771 225.885C603.861 226.095 604.991 226.205 606.141 226.205C607.771 226.205 609.351 225.985 610.861 225.575C602.661 223.935 596.481 216.685 596.481 208.005V207.775C598.901 209.115 601.661 209.925 604.601 210.015C599.781 206.805 596.621 201.315 596.621 195.095C596.621 191.815 597.511 188.735 599.051 186.085C607.881 196.935 621.091 204.065 635.991 204.815C635.681 203.495 635.521 202.135 635.521 200.725C635.521 190.835 643.551 182.805 653.451 182.805C658.601 182.805 663.261 184.985 666.531 188.465C670.611 187.665 674.451 186.165 677.911 184.115C676.571 188.295 673.731 191.805 670.031 194.025C673.651 193.595 677.111 192.635 680.321 191.205C677.921 194.795 674.881 197.955 671.381 200.485C671.411 201.255 671.431 202.025 671.431 202.805ZM620.436 253.805C620.434 253.805 620.432 253.805 620.431 253.805H620.441C620.439 253.805 620.437 253.805 620.436 253.805Z" fill="#4A4A4A"/>
<path fill-rule="evenodd" clip-rule="evenodd" d="M1518.57 760.935C1518.57 798.214 1488.35 828.435 1451.07 828.435C1413.79 828.435 1383.57 798.214 1383.57 760.935C1383.57 723.655 1413.79 693.435 1451.07 693.435C1488.35 693.435 1518.57 723.655 1518.57 760.935ZM1417.57 737.334V785.97L1460.33 801.435L1483.57 794.387V728.917L1460.33 721.435L1417.57 737.334ZM1417.57 785.97L1432.44 779.423V741.076L1460.33 734.529V791.147L1417.57 785.97Z" fill="#4A4A4A"/>
<path fill-rule="evenodd" clip-rule="evenodd" d="M1056.57 67.9346C1056.57 105.214 1026.35 135.435 989.071 135.435C951.792 135.435 921.571 105.214 921.571 67.9346C921.571 30.6554 951.792 0.43457 989.071 0.43457C1026.35 0.43457 1056.57 30.6554 1056.57 67.9346ZM947.571 64.3437C947.571 44.5446 966.185 28.4346 989.071 28.4346C1011.96 28.4346 1030.57 44.5446 1030.57 64.3437C1030.57 84.1428 1011.96 100.253 989.071 100.253C985.624 100.253 982.206 99.888 978.9 99.1657C976.722 101.459 970.097 107.435 960.3 107.435L956.734 107.421L958.728 104.608C962.52 99.2498 963.479 94.67 963.718 92.7834C953.59 86.0083 947.571 75.453 947.571 64.3437Z" fill="#4A4A4A"/>
<path fill-rule="evenodd" clip-rule="evenodd" d="M555.571 568.935C555.571 606.214 525.35 636.435 488.071 636.435C450.792 636.435 420.571 606.214 420.571 568.935C420.571 531.655 450.792 501.435 488.071 501.435C525.35 501.435 555.571 531.655 555.571 568.935ZM508.888 531.489C518.091 532.835 525.854 539.778 527.052 548.589C527.574 553.83 527.315 561.705 527.19 565.532C527.158 566.483 527.135 567.185 527.135 567.533C527.135 568.047 527.059 572.743 527.029 573.239C526.223 585.828 518.287 590.8 509.947 592.384C509.857 592.411 509.754 592.431 509.649 592.451C509.623 592.456 509.597 592.461 509.57 592.466C504.283 593.487 498.62 593.759 493.246 593.908C491.961 593.942 490.68 593.942 489.396 593.942H489.395C484.052 593.943 478.728 593.318 473.534 592.078C473.506 592.071 473.477 592.071 473.45 592.077C473.422 592.083 473.396 592.095 473.374 592.113C473.352 592.131 473.334 592.154 473.323 592.179C473.311 592.205 473.306 592.233 473.308 592.261C473.454 593.934 473.822 595.58 474.4 597.158C475.12 598.985 477.634 603.371 486.979 603.371C492.41 603.381 497.822 602.756 503.104 601.508C503.131 601.502 503.159 601.501 503.186 601.507C503.212 601.513 503.238 601.525 503.259 601.542C503.281 601.559 503.299 601.58 503.311 601.604C503.323 601.629 503.33 601.656 503.33 601.683V607.862C503.329 607.891 503.321 607.92 503.308 607.946C503.294 607.971 503.275 607.994 503.251 608.011C501.603 609.193 499.387 609.889 497.448 610.497C497.357 610.526 497.266 610.555 497.176 610.583C496.29 610.859 495.393 611.101 494.486 611.31C486.242 613.167 477.638 612.718 469.637 610.013C462.165 607.419 454.537 601.06 452.653 593.42C451.647 589.283 450.938 585.081 450.532 580.845C450.105 576.213 449.962 571.573 449.819 566.927C449.765 565.177 449.711 563.426 449.642 561.674C449.465 557.209 449.567 552.342 450.52 547.951C452.503 539.036 460.672 532.797 469.618 531.489C469.802 531.462 470.005 531.427 470.243 531.386C472.014 531.078 475.709 530.435 487.725 530.435H487.827C501.453 530.435 507.336 531.262 508.888 531.489ZM505.448 580.003H514.217L514.224 558.115C514.224 553.64 513.07 550.087 510.761 547.456C508.372 544.828 505.248 543.479 501.374 543.479C496.894 543.479 493.502 545.186 491.241 548.596L489.056 552.219L486.874 548.596C484.613 545.186 481.221 543.479 476.733 543.479C472.855 543.479 469.731 544.828 467.35 547.456C465.041 550.089 463.887 553.642 463.887 558.115V580.003H472.648V558.759C472.652 554.287 474.555 552.006 478.365 552.006C482.578 552.006 484.692 554.705 484.692 560.034V571.662H493.408V560.034C493.408 554.705 495.518 552.006 499.731 552.006C503.564 552.006 505.448 554.287 505.448 558.759V580.003Z" fill="#4A4A4A"/>
<path fill-rule="evenodd" clip-rule="evenodd" d="M1518.57 376.935C1518.57 414.214 1488.35 444.435 1451.07 444.435C1413.79 444.435 1383.57 414.214 1383.57 376.935C1383.57 339.655 1413.79 309.435 1451.07 309.435C1488.35 309.435 1518.57 339.655 1518.57 376.935ZM1464.08 342.439C1470.59 343.562 1476.81 345.523 1482.61 348.184C1482.66 348.206 1482.7 348.242 1482.72 348.293C1493 363.408 1498.08 380.459 1496.18 400.088C1496.17 400.171 1496.13 400.247 1496.06 400.298C1488.28 406.014 1480.74 409.484 1473.3 411.784C1473.18 411.82 1473.05 411.777 1472.98 411.676C1471.26 409.285 1469.7 406.765 1468.34 404.118C1468.26 403.963 1468.33 403.775 1468.49 403.714C1470.97 402.778 1473.33 401.659 1475.59 400.334C1475.77 400.229 1475.78 399.973 1475.62 399.85C1475.14 399.492 1474.66 399.117 1474.21 398.741C1474.12 398.673 1474 398.658 1473.91 398.705C1459.19 405.505 1443.07 405.505 1428.17 398.705C1428.08 398.662 1427.96 398.676 1427.88 398.745C1427.43 399.12 1426.95 399.492 1426.47 399.85C1426.31 399.973 1426.32 400.229 1426.5 400.334C1428.77 401.634 1431.12 402.778 1433.6 403.717C1433.76 403.779 1433.84 403.963 1433.76 404.118C1432.42 406.768 1430.86 409.289 1429.11 411.679C1429.03 411.777 1428.91 411.82 1428.79 411.784C1421.39 409.484 1413.85 406.014 1406.07 400.298C1406 400.247 1405.95 400.168 1405.95 400.085C1404.36 383.106 1407.59 365.914 1419.39 348.289C1419.42 348.242 1419.46 348.206 1419.51 348.184C1425.32 345.519 1431.54 343.559 1438.04 342.439C1438.15 342.421 1438.27 342.475 1438.33 342.58C1439.14 344.003 1440.05 345.826 1440.68 347.318C1447.53 346.27 1454.48 346.27 1461.48 347.318C1462.1 345.859 1462.99 344.003 1463.79 342.58C1463.85 342.472 1463.96 342.418 1464.08 342.439ZM1427.8 380.575C1427.8 385.63 1431.5 389.746 1435.98 389.746C1440.54 389.746 1444.16 385.63 1444.16 380.575C1444.23 375.555 1440.57 371.403 1435.98 371.403C1431.42 371.403 1427.8 375.519 1427.8 380.575ZM1458.04 380.575C1458.04 385.63 1461.73 389.746 1466.22 389.746C1470.81 389.746 1474.4 385.63 1474.4 380.575C1474.47 375.555 1470.81 371.403 1466.22 371.403C1461.66 371.403 1458.04 375.519 1458.04 380.575Z" fill="#4A4A4A"/>
<path d="M797.131 964.435C759.821 964.435 729.571 994.685 729.571 1031.99C729.571 1060.62 747.361 1085.09 772.491 1094.93C771.881 1089.59 771.381 1081.36 772.711 1075.53C773.931 1070.25 780.611 1041.95 780.611 1041.95C780.611 1041.95 778.611 1037.89 778.611 1031.94C778.611 1022.54 784.061 1015.54 790.841 1015.54C796.621 1015.54 799.401 1019.88 799.401 1025.05C799.401 1030.83 795.731 1039.51 793.781 1047.57C792.171 1054.3 797.171 1059.8 803.791 1059.8C815.801 1059.8 825.031 1047.12 825.031 1028.89C825.031 1012.71 813.411 1001.42 796.781 1001.42C777.541 1001.42 766.261 1015.82 766.261 1030.72C766.261 1036.5 768.481 1042.73 771.261 1046.12C771.821 1046.79 771.871 1047.4 771.701 1048.07C771.201 1050.18 770.031 1054.8 769.811 1055.74C769.531 1056.96 768.811 1057.24 767.531 1056.63C759.081 1052.68 753.801 1040.39 753.801 1030.44C753.801 1009.14 769.261 989.575 798.451 989.575C821.861 989.575 840.101 1006.25 840.101 1028.6C840.101 1050.95 825.421 1070.63 805.071 1070.63C798.231 1070.63 791.781 1067.07 789.611 1062.85C789.611 1062.85 786.221 1075.75 785.381 1078.92C783.881 1084.81 779.761 1092.15 776.981 1096.66C783.321 1098.61 789.991 1099.66 797.001 1099.66C834.311 1099.66 864.561 1069.41 864.561 1032.1C864.671 994.685 834.421 964.435 797.121 964.435H797.131Z" fill="#4A4A4A"/>
<path fill-rule="evenodd" clip-rule="evenodd" d="M702.571 922.935C702.571 960.214 672.35 990.435 635.071 990.435C597.792 990.435 567.571 960.214 567.571 922.935C567.571 885.655 597.792 855.435 635.071 855.435C672.35 855.435 702.571 885.655 702.571 922.935ZM641.399 912.431L641.4 912.429L641.4 912.429L641.4 912.429L641.4 912.428C642.066 911.627 642.71 910.85 643.451 910.155C646.951 906.855 651.091 905.195 655.931 905.235C658.591 905.255 661.211 905.445 663.771 906.185C669.631 907.875 673.031 911.915 674.661 917.635C675.881 921.925 676.101 926.335 676.111 930.755C676.12 935.104 676.115 939.455 676.109 943.806V943.806V943.807C676.102 948.78 676.095 953.754 676.111 958.725C676.111 959.595 675.871 959.825 675.011 959.825C670.211 959.785 665.401 959.785 660.601 959.825C659.751 959.825 659.571 959.575 659.571 958.775C659.601 949.905 659.601 941.035 659.571 932.155C659.571 929.935 659.421 927.705 658.801 925.545C657.651 921.565 654.801 919.535 650.631 919.755C644.931 920.055 641.971 922.875 641.251 928.665C641.081 930.045 640.991 931.435 641.001 932.825C641.001 941.455 641.001 950.085 641.021 958.715C641.021 959.575 640.811 959.825 639.931 959.825C635.091 959.785 630.251 959.785 625.411 959.825C624.631 959.825 624.411 959.625 624.411 958.835C624.431 941.755 624.431 924.665 624.411 907.585C624.411 906.735 624.691 906.545 625.491 906.545C630.081 906.575 634.681 906.585 639.271 906.545C640.121 906.545 640.331 906.815 640.321 907.615C640.285 909.097 640.291 910.58 640.297 912.067L640.297 912.071C640.299 912.621 640.301 913.172 640.301 913.723C640.685 913.291 641.045 912.857 641.399 912.431ZM613.971 933.255C613.971 934.943 613.97 936.631 613.97 938.318C613.968 945.081 613.967 951.843 613.991 958.605C613.991 959.545 613.761 959.825 612.791 959.815C607.991 959.765 603.191 959.775 598.381 959.815C597.611 959.815 597.381 959.625 597.381 958.835C597.401 941.725 597.401 924.615 597.381 907.495C597.381 906.785 597.551 906.535 598.301 906.535C603.171 906.565 608.041 906.575 612.911 906.535C613.851 906.535 613.971 906.885 613.971 907.695C613.956 914.086 613.958 920.477 613.96 926.868C613.96 928.997 613.961 931.126 613.961 933.255H613.971ZM605.691 899.215C610.991 899.215 615.291 894.895 615.291 889.585V889.575C615.281 884.345 610.961 880.035 605.711 880.035C600.421 880.035 596.081 884.385 596.101 889.665C596.121 894.895 600.461 899.215 605.691 899.215Z" fill="#4A4A4A"/>
<path fill-rule="evenodd" clip-rule="evenodd" d="M1343.07 991.435C1380.35 991.435 1410.57 961.214 1410.57 923.935C1410.57 886.655 1380.35 856.435 1343.07 856.435C1305.79 856.435 1275.57 886.655 1275.57 923.935C1275.57 961.214 1305.79 991.435 1343.07 991.435ZM1343.06 882.104C1348.71 882.104 1354.18 883.209 1359.34 885.39C1361.82 886.438 1364.21 887.735 1366.44 889.246C1368.66 890.742 1370.74 892.461 1372.63 894.354C1374.53 896.247 1376.25 898.33 1377.74 900.546C1379.25 902.781 1380.55 905.171 1381.6 907.649C1383.78 912.804 1384.88 918.28 1384.88 923.927C1384.88 929.574 1383.78 935.051 1381.6 940.205C1380.55 942.683 1379.25 945.073 1377.74 947.309C1376.25 949.524 1374.53 951.607 1372.63 953.501C1370.74 955.393 1368.66 957.112 1366.44 958.608C1364.21 960.119 1361.82 961.415 1359.34 962.464C1354.18 964.644 1348.71 965.751 1343.06 965.751C1337.41 965.751 1331.94 964.645 1326.78 962.464C1324.31 961.417 1321.91 960.119 1319.68 958.608C1317.46 957.112 1315.38 955.393 1313.49 953.501C1311.59 951.608 1309.88 949.524 1308.38 947.309C1306.87 945.073 1305.57 942.684 1304.52 940.205C1302.34 935.051 1301.24 929.574 1301.24 923.927C1301.24 918.28 1302.34 912.804 1304.52 907.649C1305.57 905.172 1306.87 902.781 1308.38 900.546C1309.88 898.33 1311.59 896.248 1313.49 894.354C1315.38 892.461 1317.46 890.742 1319.68 889.246C1321.91 887.735 1324.3 886.439 1326.78 885.39C1331.94 883.21 1337.41 882.104 1343.06 882.104ZM1343.06 879.435C1318.49 879.435 1298.57 899.354 1298.57 923.925C1298.57 948.495 1318.49 968.415 1343.06 968.415C1367.63 968.415 1387.55 948.495 1387.55 923.925C1387.55 899.354 1367.63 879.435 1343.06 879.435ZM1326.88 957.29C1314.51 951.281 1305.99 938.598 1305.99 923.923C1305.99 918.548 1307.14 913.446 1309.2 908.836L1326.88 957.29ZM1365.03 911.828C1366.44 914.297 1368.09 917.47 1368.09 922.053L1368.09 922.052C1368.09 925.225 1367.1 928.978 1365.4 934.274L1361.57 946.393L1348.17 906.54C1350.4 906.422 1352.42 906.188 1352.42 906.188C1354.41 905.951 1354.18 903.015 1352.18 903.132C1352.18 903.132 1346.17 903.604 1342.3 903.604C1338.65 903.604 1332.53 903.132 1332.53 903.132C1330.53 903.015 1330.3 906.07 1332.3 906.188C1332.3 906.188 1334.19 906.422 1336.19 906.54L1341.96 922.366L1333.85 946.699L1320.35 906.54C1322.58 906.422 1324.59 906.188 1324.59 906.188C1326.59 905.951 1326.35 903.015 1324.35 903.132C1324.35 903.132 1318.35 903.604 1314.47 903.604C1313.77 903.604 1312.95 903.586 1312.08 903.558C1318.71 893.494 1330.11 886.848 1343.06 886.848C1352.71 886.848 1361.5 890.538 1368.1 896.582C1368.04 896.578 1367.99 896.574 1367.93 896.569C1367.83 896.561 1367.72 896.552 1367.62 896.552C1363.97 896.552 1361.39 899.725 1361.39 903.132C1361.39 905.948 1362.89 908.364 1364.59 911.117C1364.74 911.351 1364.89 911.588 1365.03 911.828ZM1332.59 959.489L1343.71 927.167L1355.11 958.387C1355.18 958.571 1355.27 958.739 1355.37 958.898C1351.52 960.256 1347.38 961 1343.06 961C1339.42 961 1335.91 960.466 1332.59 959.489ZM1375.85 909.949C1375.85 908.585 1375.75 907.318 1375.6 906.137C1378.49 911.417 1380.14 917.478 1380.14 923.923C1380.14 937.601 1372.72 949.542 1361.7 955.968L1373.03 923.228C1375.14 917.938 1375.85 913.71 1375.85 909.949Z" fill="#4A4A4A"/>
<path fill-rule="evenodd" clip-rule="evenodd" d="M1557.57 569.935C1557.57 607.214 1527.35 637.435 1490.07 637.435C1452.79 637.435 1422.57 607.214 1422.57 569.935C1422.57 532.655 1452.79 502.435 1490.07 502.435C1527.35 502.435 1557.57 532.655 1557.57 569.935ZM1496.09 612.524H1510.31V595.774H1502.8C1497.51 595.774 1494.18 593.494 1494.18 586.904V564.914H1509.7V549.024H1494.18V527.344H1480.88C1480.26 536.894 1474.9 547.914 1462.09 551.244V564.914H1473.73V590.164C1473.73 605.934 1483.28 612.524 1496.09 612.524Z" fill="#4A4A4A"/>
<path fill-rule="evenodd" clip-rule="evenodd" d="M1248.57 106.935C1248.57 144.214 1218.35 174.435 1181.07 174.435C1143.79 174.435 1113.57 144.214 1113.57 106.935C1113.57 69.6553 1143.79 39.4346 1181.07 39.4346C1218.35 39.4346 1248.57 69.6553 1248.57 106.935ZM1216.21 97.0943C1221.64 97.0943 1226.05 101.494 1226.05 106.934H1226.07C1226.07 110.954 1223.66 114.404 1220.21 115.934C1220.36 116.904 1220.44 117.894 1220.44 118.894C1220.44 134.034 1202.81 146.314 1181.06 146.314C1159.31 146.314 1141.68 134.034 1141.68 118.894C1141.68 117.884 1141.76 116.894 1141.91 115.914C1138.48 114.374 1136.09 110.934 1136.09 106.934C1136.09 101.504 1140.49 97.0943 1145.93 97.0943C1148.58 97.0943 1150.97 98.1343 1152.74 99.8343C1159.55 94.9243 1168.97 91.7843 1179.45 91.4943L1184.46 67.9543C1184.55 67.4943 1184.83 67.0943 1185.22 66.8443C1185.61 66.5943 1186.08 66.4943 1186.54 66.5943L1202.9 70.0743C1204.05 67.7643 1206.42 66.1543 1209.18 66.1543C1213.06 66.1543 1216.21 69.3043 1216.21 73.1843C1216.21 77.0643 1212.95 80.2143 1209.18 80.2143C1205.41 80.2143 1202.36 77.2343 1202.18 73.5143L1187.53 70.4043L1183.05 91.5043C1193.38 91.8643 1202.65 94.9943 1209.38 99.8543C1211.15 98.1543 1213.56 97.0943 1216.21 97.0943ZM1165.6 106.934C1161.73 106.934 1158.57 110.084 1158.57 113.964C1158.57 117.844 1161.72 120.994 1165.6 120.994C1169.48 120.994 1172.63 117.844 1172.63 113.964C1172.63 110.084 1169.47 106.934 1165.6 106.934ZM1181.07 137.704C1183.78 137.704 1192.97 137.334 1197.77 132.544L1197.78 132.534C1198.49 131.824 1198.49 130.664 1197.78 129.954C1197.07 129.244 1195.91 129.244 1195.2 129.954C1192.17 132.984 1185.7 134.054 1181.08 134.054C1176.46 134.054 1169.98 132.974 1166.96 129.954C1166.25 129.244 1165.09 129.244 1164.38 129.954C1163.67 130.664 1163.67 131.824 1164.38 132.534C1169.17 137.334 1178.36 137.704 1181.07 137.704ZM1189.5 113.964C1189.5 117.844 1192.65 120.994 1196.53 120.994C1200.41 120.994 1203.56 117.834 1203.56 113.964C1203.56 110.094 1200.41 106.934 1196.53 106.934C1192.65 106.934 1189.5 110.084 1189.5 113.964Z" fill="#4A4A4A"/>
<path fill-rule="evenodd" clip-rule="evenodd" d="M989.071 1137.43C1026.35 1137.43 1056.57 1107.21 1056.57 1069.93C1056.57 1032.66 1026.35 1002.43 989.071 1002.43C951.792 1002.43 921.571 1032.66 921.571 1069.93C921.571 1107.21 951.792 1137.43 989.071 1137.43ZM964.429 1081.15C964.429 1086.06 960.414 1090.08 955.5 1090.08C950.585 1090.08 946.571 1086.06 946.571 1081.15C946.571 1076.23 950.585 1072.22 955.5 1072.22H964.429V1081.15ZM977.857 1072.22C972.943 1072.22 968.928 1076.23 968.928 1081.15V1103.51C968.928 1108.42 972.943 1112.43 977.857 1112.43C982.772 1112.43 986.786 1108.42 986.786 1103.51V1081.15C986.786 1076.23 982.772 1072.22 977.857 1072.22ZM977.857 1045.29C972.943 1045.29 968.928 1041.28 968.928 1036.36C968.928 1031.45 972.943 1027.43 977.857 1027.43C982.772 1027.43 986.786 1031.45 986.786 1036.36V1045.29H977.857ZM986.787 1058.72C986.787 1053.81 982.772 1049.79 977.857 1049.79H955.5C950.585 1049.79 946.571 1053.81 946.571 1058.72C946.571 1063.64 950.585 1067.65 955.5 1067.65H977.857C982.772 1067.65 986.787 1063.64 986.787 1058.72ZM1013.71 1058.72C1013.71 1053.81 1017.73 1049.79 1022.64 1049.79C1027.56 1049.79 1031.57 1053.81 1031.57 1058.72C1031.57 1063.64 1027.56 1067.65 1022.64 1067.65H1013.71V1058.72ZM1000.28 1067.65C1005.2 1067.65 1009.21 1063.64 1009.21 1058.72V1036.36C1009.21 1031.45 1005.2 1027.43 1000.28 1027.43C995.369 1027.43 991.355 1031.45 991.355 1036.36V1058.72C991.355 1063.64 995.369 1067.65 1000.28 1067.65ZM1000.28 1094.58C1005.2 1094.58 1009.21 1098.59 1009.21 1103.51C1009.21 1108.42 1005.2 1112.43 1000.28 1112.43C995.369 1112.43 991.355 1108.42 991.355 1103.51V1094.58H1000.28ZM991.355 1081.15C991.355 1086.06 995.369 1090.08 1000.28 1090.08H1022.64C1027.56 1090.08 1031.57 1086.06 1031.57 1081.15C1031.57 1076.23 1027.56 1072.22 1022.64 1072.22H1000.28C995.369 1072.22 991.355 1076.23 991.355 1081.15Z" fill="#4A4A4A"/>
<path fill-rule="evenodd" clip-rule="evenodd" d="M864.571 106.935C864.571 144.214 834.35 174.435 797.071 174.435C759.792 174.435 729.571 144.214 729.571 106.935C729.571 69.6554 759.792 39.4346 797.071 39.4346C834.35 39.4346 864.571 69.6554 864.571 106.935ZM754.571 119.315L783.31 69.8407L796.389 92.8454L781.056 119.242L767.389 142.766L754.571 119.315ZM839.778 120.298L812.562 120.375L782.275 120.46L768.608 143.985L825.973 143.972L839.778 120.298ZM784.529 69.4346L810.925 69.5117L839.778 118.673L812.562 118.75L797.607 92.4393L784.529 69.4346Z" fill="#4A4A4A"/>
<path fill-rule="evenodd" clip-rule="evenodd" d="M1181.07 1100.43C1143.79 1100.43 1113.57 1070.21 1113.57 1032.93C1113.57 995.656 1143.79 965.435 1181.07 965.435C1218.35 965.435 1248.57 995.656 1248.57 1032.93C1248.57 1070.21 1218.35 1100.43 1181.07 1100.43ZM1175.71 1047.67H1188.09C1199.76 1047.67 1209.22 1038.46 1209.22 1027.11C1209.22 1015.75 1199.76 1006.55 1188.09 1006.55H1170.22C1163.49 1006.55 1158.04 1011.86 1158.04 1018.41V1064.58L1175.71 1047.67Z" fill="#4A4A4A"/>
<path fill-rule="evenodd" clip-rule="evenodd" d="M1344.07 283.435C1381.35 283.435 1411.57 253.214 1411.57 215.935C1411.57 178.655 1381.35 148.435 1344.07 148.435C1306.79 148.435 1276.57 178.655 1276.57 215.935C1276.57 253.214 1306.79 283.435 1344.07 283.435ZM1367.19 214.056L1367.16 214.047C1365.89 213.662 1365.02 213.401 1365.69 211.724C1367.15 208.056 1367.3 204.892 1365.71 202.625C1362.75 198.39 1354.64 198.616 1345.33 202.511C1345.33 202.511 1342.41 203.785 1343.17 201.476C1344.59 196.874 1344.37 193.032 1342.16 190.801C1337.12 185.747 1323.69 190.991 1312.18 202.498C1303.58 211.106 1298.57 220.244 1298.57 228.147C1298.57 243.247 1317.94 252.435 1336.89 252.435C1361.73 252.435 1378.25 238.003 1378.25 226.546C1378.26 219.615 1372.43 215.681 1367.18 214.056H1367.19ZM1336.22 248.579C1319.14 248.579 1305.29 239.958 1305.29 229.32C1305.29 218.681 1319.14 210.061 1336.22 210.061C1353.3 210.061 1367.15 218.681 1367.15 229.32C1367.15 239.958 1353.3 248.579 1336.22 248.579ZM1357.98 183.114C1357.58 181.237 1358.78 179.37 1360.67 178.967H1360.67C1368.84 177.228 1377.69 179.76 1383.69 186.415C1389.69 193.058 1391.31 202.121 1388.74 210.048V210.061C1388.15 211.888 1386.18 212.897 1384.34 212.304C1382.5 211.711 1381.49 209.746 1382.08 207.905C1383.91 202.259 1382.75 195.819 1378.49 191.092C1374.23 186.366 1367.94 184.564 1362.13 185.799C1360.24 186.202 1358.39 185.004 1357.98 183.114ZM1373.14 208.194C1374.72 208.698 1376.41 207.84 1376.93 206.252C1378.18 202.383 1377.39 197.971 1374.47 194.732C1371.55 191.493 1367.24 190.258 1363.27 191.116C1361.64 191.456 1360.61 193.068 1360.95 194.696C1361.3 196.321 1362.9 197.355 1364.51 197.002C1366.46 196.586 1368.57 197.192 1370 198.767C1371.42 200.355 1371.81 202.511 1371.2 204.401C1370.69 205.976 1371.55 207.676 1373.14 208.194H1373.14ZM1320 226.762C1323.12 220.421 1331.25 216.83 1338.45 218.707C1345.9 220.637 1349.7 227.656 1346.65 234.488C1343.57 241.458 1334.69 245.189 1327.16 242.756C1319.89 240.411 1316.81 233.227 1320 226.762ZM1326 237.501C1328.35 238.573 1331.49 237.551 1332.96 235.219L1332.96 235.221C1334.39 232.863 1333.64 230.18 1331.27 229.159C1328.92 228.173 1325.9 229.182 1324.45 231.452C1322.99 233.732 1323.68 236.443 1326 237.501ZM1335.17 229.998C1336.08 230.378 1337.25 229.949 1337.78 229.042C1338.29 228.121 1337.96 227.1 1337.05 226.772C1336.16 226.418 1335.04 226.847 1334.51 227.729C1333.99 228.613 1334.27 229.632 1335.17 229.998Z" fill="#4A4A4A"/>
<line x1="574.571" y1="568.435" x2="1402.57" y2="568.435" stroke="#007299" stroke-width="2"/>
<path d="M574.571 568.934L606.552 728.243" stroke="#007299" stroke-width="2"/>
<line x1="575.495" y1="569.053" x2="696.495" y2="862.053" stroke="#007299" stroke-width="2"/>
<line x1="575.404" y1="568.881" x2="830.404" y2="952.881" stroke="#007299" stroke-width="2"/>
<path d="M575.278 568.727L988.571 983.435" stroke="#007299" stroke-width="2"/>
<line x1="575.128" y1="568.604" x2="1147.13" y2="952.604" stroke="#007299" stroke-width="2"/>
<line x1="574.955" y1="568.511" x2="1280.96" y2="862.511" stroke="#007299" stroke-width="2"/>
<line x1="574.768" y1="568.454" x2="1370.77" y2="728.454" stroke="#007299" stroke-width="2"/>
<path d="M574.571 569.435L605.591 411.236" stroke="#007299" stroke-width="2"/>
<path d="M574.571 569.434L695.648 277.049" stroke="#007299" stroke-width="2"/>
<path d="M574.739 568.879L828.739 186.879" stroke="#007299" stroke-width="2"/>
<path d="M574.571 569.434L987.864 154.727" stroke="#007299" stroke-width="2"/>
<path d="M575.015 568.603L1146.02 186.603" stroke="#007299" stroke-width="2"/>
<path d="M575.189 568.51L1280.19 276.51" stroke="#007299" stroke-width="2"/>
<path d="M574.376 568.454L1370.38 410.454" stroke="#007299" stroke-width="2"/>
<line x1="606.01" y1="410.926" x2="1371.55" y2="726.414" stroke="#007299" stroke-width="2"/>
<path d="M605.82 411.388L574.689 570.865" stroke="#007299" stroke-width="2"/>
<line x1="606.629" y1="411.85" x2="606.862" y2="728.852" stroke="#007299" stroke-width="2"/>
<line x1="606.61" y1="411.657" x2="696.061" y2="863.851" stroke="#007299" stroke-width="2"/>
<path d="M606.552 411.467L830.655 952.365" stroke="#007299" stroke-width="2"/>
<line x1="606.461" y1="411.296" x2="988.999" y2="984.274" stroke="#007299" stroke-width="2"/>
<line x1="606.337" y1="411.144" x2="1147.06" y2="951.969" stroke="#007299" stroke-width="2"/>
<line x1="606.185" y1="411.019" x2="1281.18" y2="862.245" stroke="#007299" stroke-width="2"/>
<path d="M605.629 411.851L694.587 277.405" stroke="#007299" stroke-width="2"/>
<path d="M605.629 411.851L828.979 187.655" stroke="#007299" stroke-width="2"/>
<path d="M605.996 411.402L986.387 154.998" stroke="#007299" stroke-width="2"/>
<path d="M605.629 411.851L1145.76 185.901" stroke="#007299" stroke-width="2"/>
<path d="M606.357 411.251L1279.84 275.632" stroke="#007299" stroke-width="2"/>
<path d="M606.553 411.232L1369.63 409.88" stroke="#007299" stroke-width="2"/>
<path d="M605.823 410.87L1401.98 568.083" stroke="#007299" stroke-width="2"/>
<line x1="696.062" y1="276.308" x2="1281.71" y2="861.633" stroke="#007299" stroke-width="2"/>
<path d="M695.709 276.661L605.712 411.948" stroke="#007299" stroke-width="2"/>
<line x1="696.279" y1="277.398" x2="574.736" y2="570.174" stroke="#007299" stroke-width="2"/>
<line x1="696.336" y1="277.213" x2="605.242" y2="729.079" stroke="#007299" stroke-width="2"/>
<path d="M696.355 277.015L695.515 862.499" stroke="#007299" stroke-width="2"/>
<line x1="696.337" y1="276.822" x2="829.457" y2="952.78" stroke="#007299" stroke-width="2"/>
<line x1="696.28" y1="276.634" x2="987.8" y2="983.661" stroke="#007299" stroke-width="2"/>
<line x1="696.188" y1="276.461" x2="1146.09" y2="952.333" stroke="#007299" stroke-width="2"/>
<path d="M695.356 277.015L829.129 187.05" stroke="#007299" stroke-width="2"/>
<path d="M695.356 277.015L987.685 155.802" stroke="#007299" stroke-width="2"/>
<path d="M695.867 276.741L1145.56 186.109" stroke="#007299" stroke-width="2"/>
<path d="M695.356 277.015L1280.84 275.856" stroke="#007299" stroke-width="2"/>
<path d="M696.258 276.741L1370.17 410.201" stroke="#007299" stroke-width="2"/>
<path d="M696.446 276.798L1401.51 568.641" stroke="#007299" stroke-width="2"/>
<path d="M695.911 276.184L1370.61 727.134" stroke="#007299" stroke-width="2"/>
<line x1="830.558" y1="186.75" x2="1147.17" y2="951.824" stroke="#007299" stroke-width="2"/>
<path d="M830.096 186.941L695.124 277.409" stroke="#007299" stroke-width="2"/>
<line x1="830.34" y1="187.84" x2="605.876" y2="411.684" stroke="#007299" stroke-width="2"/>
<line x1="830.463" y1="187.69" x2="573.155" y2="570.147" stroke="#007299" stroke-width="2"/>
<path d="M830.557 187.515L605.404 727.977" stroke="#007299" stroke-width="2"/>
<line x1="830.614" y1="187.33" x2="694.522" y2="862.695" stroke="#007299" stroke-width="2"/>
<line x1="830.634" y1="187.134" x2="828.942" y2="951.902" stroke="#007299" stroke-width="2"/>
<line x1="830.615" y1="186.939" x2="987.154" y2="983.627" stroke="#007299" stroke-width="2"/>
<path d="M829.634 187.132L987.671 155.302" stroke="#007299" stroke-width="2"/>
<path d="M829.634 187.132L1146.1 187.204" stroke="#007299" stroke-width="2"/>
<path d="M830.211 187.075L1280.31 275.7" stroke="#007299" stroke-width="2"/>
<path d="M829.634 187.132L1370.86 410.437" stroke="#007299" stroke-width="2"/>
<path d="M830.572 187.225L1401.88 568.759" stroke="#007299" stroke-width="2"/>
<path d="M830.724 187.349L1370.11 727.114" stroke="#007299" stroke-width="2"/>
<path d="M830.465 186.577L1280.84 861.666" stroke="#007299" stroke-width="2"/>
<line x1="988.728" y1="155.571" x2="988.727" y2="983.571" stroke="#007299" stroke-width="2"/>
<path d="M988.227 155.571L828.919 187.553" stroke="#007299" stroke-width="2"/>
<line x1="988.109" y1="156.495" x2="695.109" y2="277.495" stroke="#007299" stroke-width="2"/>
<line x1="988.281" y1="156.404" x2="604.281" y2="411.404" stroke="#007299" stroke-width="2"/>
<path d="M988.435 156.278L573.727 569.571" stroke="#007299" stroke-width="2"/>
<line x1="988.558" y1="156.128" x2="604.558" y2="728.128" stroke="#007299" stroke-width="2"/>
<line x1="988.651" y1="155.955" x2="694.651" y2="861.955" stroke="#007299" stroke-width="2"/>
<line x1="988.708" y1="155.768" x2="828.708" y2="951.768" stroke="#007299" stroke-width="2"/>
<path d="M987.727 155.571L1145.93 186.591" stroke="#007299" stroke-width="2"/>
<path d="M987.728 155.571L1280.11 276.648" stroke="#007299" stroke-width="2"/>
<path d="M988.283 155.739L1370.28 409.739" stroke="#007299" stroke-width="2"/>
<path d="M987.728 155.571L1402.43 568.864" stroke="#007299" stroke-width="2"/>
<path d="M988.559 156.016L1370.56 727.016" stroke="#007299" stroke-width="2"/>
<path d="M988.652 156.189L1280.65 861.189" stroke="#007299" stroke-width="2"/>
<path d="M988.708 155.376L1146.71 951.376" stroke="#007299" stroke-width="2"/>
<line x1="1146.24" y1="187.01" x2="830.748" y2="952.55" stroke="#007299" stroke-width="2"/>
<path d="M1145.77 186.82L986.296 155.689" stroke="#007299" stroke-width="2"/>
<line x1="1145.31" y1="187.629" x2="828.31" y2="187.862" stroke="#007299" stroke-width="2"/>
<line x1="1145.51" y1="187.61" x2="693.311" y2="277.061" stroke="#007299" stroke-width="2"/>
<path d="M1145.7 187.552L604.797 411.656" stroke="#007299" stroke-width="2"/>
<line x1="1145.87" y1="187.461" x2="572.888" y2="569.999" stroke="#007299" stroke-width="2"/>
<line x1="1146.02" y1="187.337" x2="605.193" y2="728.059" stroke="#007299" stroke-width="2"/>
<line x1="1146.14" y1="187.185" x2="694.917" y2="862.175" stroke="#007299" stroke-width="2"/>
<path d="M1145.31 186.629L1279.76 275.587" stroke="#007299" stroke-width="2"/>
<path d="M1145.31 186.629L1369.51 409.979" stroke="#007299" stroke-width="2"/>
<path d="M1145.76 186.997L1402.16 567.387" stroke="#007299" stroke-width="2"/>
<path d="M1145.31 186.629L1371.26 726.759" stroke="#007299" stroke-width="2"/>
<path d="M1145.91 187.357L1281.53 860.835" stroke="#007299" stroke-width="2"/>
<path d="M1145.93 187.553L1147.28 950.63" stroke="#007299" stroke-width="2"/>
<path d="M1146.29 186.823L989.079 982.979" stroke="#007299" stroke-width="2"/>
<line x1="1280.85" y1="277.063" x2="695.53" y2="862.706" stroke="#007299" stroke-width="2"/>
<path d="M1280.5 276.709L1145.21 186.712" stroke="#007299" stroke-width="2"/>
<line x1="1279.76" y1="277.279" x2="986.989" y2="155.737" stroke="#007299" stroke-width="2"/>
<line x1="1279.95" y1="277.336" x2="828.084" y2="186.242" stroke="#007299" stroke-width="2"/>
<path d="M1280.15 277.356L694.663 276.515" stroke="#007299" stroke-width="2"/>
<line x1="1280.34" y1="277.337" x2="604.383" y2="410.457" stroke="#007299" stroke-width="2"/>
<line x1="1280.53" y1="277.28" x2="573.501" y2="568.801" stroke="#007299" stroke-width="2"/>
<line x1="1280.7" y1="277.188" x2="604.83" y2="727.092" stroke="#007299" stroke-width="2"/>
<path d="M1280.15 276.356L1370.11 410.129" stroke="#007299" stroke-width="2"/>
<path d="M1280.15 276.356L1401.36 568.685" stroke="#007299" stroke-width="2"/>
<path d="M1280.42 276.867L1371.05 726.563" stroke="#007299" stroke-width="2"/>
<path d="M1280.15 276.356L1281.31 861.84" stroke="#007299" stroke-width="2"/>
<path d="M1280.42 277.258L1146.96 951.167" stroke="#007299" stroke-width="2"/>
<path d="M1280.36 277.446L988.521 982.511" stroke="#007299" stroke-width="2"/>
<path d="M1280.98 276.911L830.028 951.614" stroke="#007299" stroke-width="2"/>
<line x1="1370.41" y1="411.558" x2="605.339" y2="728.174" stroke="#007299" stroke-width="2"/>
<path d="M1370.22 411.096L1279.75 276.123" stroke="#007299" stroke-width="2"/>
<line x1="1369.32" y1="411.34" x2="1145.48" y2="186.876" stroke="#007299" stroke-width="2"/>
<line x1="1369.47" y1="411.463" x2="987.015" y2="154.155" stroke="#007299" stroke-width="2"/>
<path d="M1369.65 411.557L829.185 186.405" stroke="#007299" stroke-width="2"/>
<line x1="1369.83" y1="411.614" x2="694.467" y2="275.522" stroke="#007299" stroke-width="2"/>
<line x1="1370.03" y1="411.634" x2="605.261" y2="409.942" stroke="#007299" stroke-width="2"/>
<line x1="1370.22" y1="411.615" x2="573.535" y2="568.154" stroke="#007299" stroke-width="2"/>
<path d="M1370.03 410.634L1401.86 568.671" stroke="#007299" stroke-width="2"/>
<path d="M1370.03 410.634L1369.96 727.097" stroke="#007299" stroke-width="2"/>
<path d="M1370.09 411.211L1281.46 861.306" stroke="#007299" stroke-width="2"/>
<path d="M1370.03 410.634L1146.73 951.862" stroke="#007299" stroke-width="2"/>
<path d="M1369.94 411.572L988.403 982.884" stroke="#007299" stroke-width="2"/>
<path d="M1369.81 411.724L830.048 951.115" stroke="#007299" stroke-width="2"/>
<path d="M1370.58 411.466L695.496 861.838" stroke="#007299" stroke-width="2"/>
<line x1="1401.59" y1="569.727" x2="573.591" y2="569.727" stroke="#007299" stroke-width="2"/>
<path d="M1401.59 569.227L1369.61 409.919" stroke="#007299" stroke-width="2"/>
<line x1="1400.67" y1="569.109" x2="1279.67" y2="276.109" stroke="#007299" stroke-width="2"/>
<line x1="1400.76" y1="569.281" x2="1145.76" y2="185.281" stroke="#007299" stroke-width="2"/>
<path d="M1400.88 569.434L987.591 154.727" stroke="#007299" stroke-width="2"/>
<line x1="1401.03" y1="569.558" x2="829.034" y2="185.558" stroke="#007299" stroke-width="2"/>
<line x1="1401.21" y1="569.651" x2="695.207" y2="275.651" stroke="#007299" stroke-width="2"/>
<line x1="1401.39" y1="569.708" x2="605.394" y2="409.708" stroke="#007299" stroke-width="2"/>
<path d="M1401.59 568.727L1370.57 726.926" stroke="#007299" stroke-width="2"/>
<path d="M1401.59 568.727L1280.51 861.113" stroke="#007299" stroke-width="2"/>
<path d="M1401.42 569.283L1147.42 951.283" stroke="#007299" stroke-width="2"/>
<path d="M1401.59 568.727L988.298 983.434" stroke="#007299" stroke-width="2"/>
<path d="M1401.15 569.559L830.147 951.559" stroke="#007299" stroke-width="2"/>
<path d="M1400.97 569.651L695.974 861.652" stroke="#007299" stroke-width="2"/>
<path d="M1401.79 569.708L605.786 727.708" stroke="#007299" stroke-width="2"/>
<line x1="1370.15" y1="727.236" x2="604.612" y2="411.748" stroke="#007299" stroke-width="2"/>
<path d="M1370.34 726.773L1401.47 567.296" stroke="#007299" stroke-width="2"/>
<line x1="1369.53" y1="726.312" x2="1369.3" y2="409.31" stroke="#007299" stroke-width="2"/>
<line x1="1369.55" y1="726.505" x2="1280.1" y2="274.311" stroke="#007299" stroke-width="2"/>
<path d="M1369.61 726.695L1145.51 185.797" stroke="#007299" stroke-width="2"/>
<line x1="1369.7" y1="726.866" x2="987.163" y2="153.888" stroke="#007299" stroke-width="2"/>
<line x1="1369.83" y1="727.018" x2="829.103" y2="186.193" stroke="#007299" stroke-width="2"/>
<line x1="1369.98" y1="727.142" x2="694.987" y2="275.917" stroke="#007299" stroke-width="2"/>
<path d="M1370.53 726.311L1281.58 860.757" stroke="#007299" stroke-width="2"/>
<path d="M1370.53 726.311L1147.18 950.507" stroke="#007299" stroke-width="2"/>
<path d="M1370.17 726.76L989.775 983.164" stroke="#007299" stroke-width="2"/>
<path d="M1370.53 726.311L830.403 952.261" stroke="#007299" stroke-width="2"/>
<path d="M1369.8 726.911L696.327 862.53" stroke="#007299" stroke-width="2"/>
<path d="M1369.61 726.93L606.532 728.282" stroke="#007299" stroke-width="2"/>
<path d="M1370.34 727.292L574.183 570.079" stroke="#007299" stroke-width="2"/>
<line x1="1280.1" y1="861.854" x2="694.456" y2="276.529" stroke="#007299" stroke-width="2"/>
<path d="M1280.45 861.501L1370.45 726.214" stroke="#007299" stroke-width="2"/>
<line x1="1279.88" y1="860.764" x2="1401.43" y2="567.988" stroke="#007299" stroke-width="2"/>
<line x1="1279.83" y1="860.949" x2="1370.92" y2="409.083" stroke="#007299" stroke-width="2"/>
<path d="M1279.81 861.147L1280.65 275.663" stroke="#007299" stroke-width="2"/>
<line x1="1279.83" y1="861.34" x2="1146.71" y2="185.382" stroke="#007299" stroke-width="2"/>
<line x1="1279.88" y1="861.528" x2="988.362" y2="154.501" stroke="#007299" stroke-width="2"/>
<line x1="1279.97" y1="861.701" x2="830.07" y2="185.83" stroke="#007299" stroke-width="2"/>
<path d="M1280.81 861.147L1147.03 951.112" stroke="#007299" stroke-width="2"/>
<path d="M1280.81 861.147L988.477 982.36" stroke="#007299" stroke-width="2"/>
<path d="M1280.3 861.421L830.6 952.053" stroke="#007299" stroke-width="2"/>
<path d="M1280.81 861.147L695.322 862.306" stroke="#007299" stroke-width="2"/>
<path d="M1279.9 861.421L605.995 727.961" stroke="#007299" stroke-width="2"/>
<path d="M1279.72 861.364L574.651 569.521" stroke="#007299" stroke-width="2"/>
<path d="M1280.25 861.978L605.548 411.028" stroke="#007299" stroke-width="2"/>
<line x1="1145.6" y1="951.412" x2="828.988" y2="186.338" stroke="#007299" stroke-width="2"/>
<path d="M1146.07 951.221L1281.04 860.753" stroke="#007299" stroke-width="2"/>
<line x1="1145.82" y1="950.322" x2="1370.29" y2="726.478" stroke="#007299" stroke-width="2"/>
<line x1="1145.7" y1="950.472" x2="1403.01" y2="568.015" stroke="#007299" stroke-width="2"/>
<path d="M1145.6 950.647L1370.76 410.185" stroke="#007299" stroke-width="2"/>
<line x1="1145.55" y1="950.832" x2="1281.64" y2="275.466" stroke="#007299" stroke-width="2"/>
<line x1="1145.53" y1="951.028" x2="1147.22" y2="186.26" stroke="#007299" stroke-width="2"/>
<line x1="1145.55" y1="951.223" x2="989.008" y2="154.535" stroke="#007299" stroke-width="2"/>
<path d="M1146.53 951.03L988.491 982.86" stroke="#007299" stroke-width="2"/>
<path d="M1146.53 951.03L830.065 950.958" stroke="#007299" stroke-width="2"/>
<path d="M1145.95 951.087L695.856 862.462" stroke="#007299" stroke-width="2"/>
<path d="M1146.53 951.03L605.301 727.725" stroke="#007299" stroke-width="2"/>
<path d="M1145.59 950.937L574.278 569.403" stroke="#007299" stroke-width="2"/>
<path d="M1145.44 950.812L606.047 411.047" stroke="#007299" stroke-width="2"/>
<path d="M1145.7 951.585L695.325 276.496" stroke="#007299" stroke-width="2"/>
<line x1="987.435" y1="982.591" x2="987.435" y2="154.591" stroke="#007299" stroke-width="2"/>
<path d="M987.935 982.591L1147.24 950.609" stroke="#007299" stroke-width="2"/>
<line x1="988.053" y1="981.667" x2="1281.05" y2="860.667" stroke="#007299" stroke-width="2"/>
<line x1="987.881" y1="981.758" x2="1371.88" y2="726.758" stroke="#007299" stroke-width="2"/>
<path d="M987.728 981.884L1402.43 568.591" stroke="#007299" stroke-width="2"/>
<line x1="987.604" y1="982.033" x2="1371.6" y2="410.033" stroke="#007299" stroke-width="2"/>
<line x1="987.511" y1="982.206" x2="1281.51" y2="276.206" stroke="#007299" stroke-width="2"/>
<line x1="987.454" y1="982.394" x2="1147.45" y2="186.394" stroke="#007299" stroke-width="2"/>
<path d="M988.435 982.591L830.236 951.571" stroke="#007299" stroke-width="2"/>
<path d="M988.434 982.591L696.049 861.514" stroke="#007299" stroke-width="2"/>
<path d="M987.879 982.423L605.879 728.423" stroke="#007299" stroke-width="2"/>
<path d="M988.435 982.591L573.728 569.298" stroke="#007299" stroke-width="2"/>
<path d="M987.603 982.146L605.603 411.146" stroke="#007299" stroke-width="2"/>
<path d="M987.51 981.973L695.51 276.973" stroke="#007299" stroke-width="2"/>
<path d="M987.454 982.786L829.454 186.786" stroke="#007299" stroke-width="2"/>
<line x1="829.927" y1="951.151" x2="1145.41" y2="185.611" stroke="#007299" stroke-width="2"/>
<path d="M830.389 951.342L989.866 982.473" stroke="#007299" stroke-width="2"/>
<line x1="830.85" y1="950.532" x2="1147.85" y2="950.3" stroke="#007299" stroke-width="2"/>
<line x1="830.657" y1="950.551" x2="1282.85" y2="861.1" stroke="#007299" stroke-width="2"/>
<path d="M830.467 950.609L1371.36 726.506" stroke="#007299" stroke-width="2"/>
<line x1="830.296" y1="950.701" x2="1403.27" y2="568.162" stroke="#007299" stroke-width="2"/>
<line x1="830.144" y1="950.825" x2="1370.97" y2="410.103" stroke="#007299" stroke-width="2"/>
<line x1="830.02" y1="950.977" x2="1281.24" y2="275.987" stroke="#007299" stroke-width="2"/>
<path d="M830.851 951.533L696.405 862.575" stroke="#007299" stroke-width="2"/>
<path d="M830.851 951.532L606.655 728.183" stroke="#007299" stroke-width="2"/>
<path d="M830.402 951.165L573.998 570.775" stroke="#007299" stroke-width="2"/>
<path d="M830.851 951.532L604.901 411.403" stroke="#007299" stroke-width="2"/>
<path d="M830.252 950.805L694.632 277.327" stroke="#007299" stroke-width="2"/>
<path d="M830.232 950.609L828.88 187.532" stroke="#007299" stroke-width="2"/>
<path d="M829.87 951.339L987.083 155.183" stroke="#007299" stroke-width="2"/>
<line x1="695.307" y1="861.099" x2="1280.63" y2="275.455" stroke="#007299" stroke-width="2"/>
<path d="M695.661 861.453L830.948 951.45" stroke="#007299" stroke-width="2"/>
<line x1="696.398" y1="860.882" x2="989.173" y2="982.425" stroke="#007299" stroke-width="2"/>
<line x1="696.212" y1="860.826" x2="1148.08" y2="951.92" stroke="#007299" stroke-width="2"/>
<path d="M696.015 860.806L1281.5 861.647" stroke="#007299" stroke-width="2"/>
<line x1="695.821" y1="860.825" x2="1371.78" y2="727.705" stroke="#007299" stroke-width="2"/>
<line x1="695.633" y1="860.882" x2="1402.66" y2="569.361" stroke="#007299" stroke-width="2"/>
<line x1="695.461" y1="860.974" x2="1371.33" y2="411.07" stroke="#007299" stroke-width="2"/>
<path d="M696.015 861.806L606.05 728.033" stroke="#007299" stroke-width="2"/>
<path d="M696.015 861.806L574.802 569.477" stroke="#007299" stroke-width="2"/>
<path d="M695.741 861.295L605.109 411.599" stroke="#007299" stroke-width="2"/>
<path d="M696.015 861.806L694.855 276.322" stroke="#007299" stroke-width="2"/>
<path d="M695.741 860.904L829.201 186.995" stroke="#007299" stroke-width="2"/>
<path d="M695.798 860.716L987.641 155.651" stroke="#007299" stroke-width="2"/>
<path d="M695.184 861.25L1146.13 186.548" stroke="#007299" stroke-width="2"/>
<line x1="605.749" y1="726.604" x2="1370.82" y2="409.988" stroke="#007299" stroke-width="2"/>
<path d="M605.941 727.066L696.409 862.038" stroke="#007299" stroke-width="2"/>
<line x1="606.84" y1="726.822" x2="830.683" y2="951.286" stroke="#007299" stroke-width="2"/>
<line x1="606.69" y1="726.698" x2="989.147" y2="984.007" stroke="#007299" stroke-width="2"/>
<path d="M606.515 726.604L1146.98 951.757" stroke="#007299" stroke-width="2"/>
<line x1="606.329" y1="726.548" x2="1281.7" y2="862.64" stroke="#007299" stroke-width="2"/>
<line x1="606.134" y1="726.528" x2="1370.9" y2="728.22" stroke="#007299" stroke-width="2"/>
<line x1="605.939" y1="726.547" x2="1402.63" y2="570.008" stroke="#007299" stroke-width="2"/>
<path d="M606.132 727.528L574.301 569.491" stroke="#007299" stroke-width="2"/>
<path d="M606.132 727.528L606.203 411.065" stroke="#007299" stroke-width="2"/>
<path d="M606.075 726.951L694.7 276.856" stroke="#007299" stroke-width="2"/>
<path d="M606.132 727.528L829.437 186.3" stroke="#007299" stroke-width="2"/>
<path d="M606.225 726.59L987.759 155.278" stroke="#007299" stroke-width="2"/>
<path d="M606.35 726.438L1146.11 187.047" stroke="#007299" stroke-width="2"/>
<path d="M605.577 726.696L1280.67 276.324" stroke="#007299" stroke-width="2"/>
<circle cx="988" cy="983" r="5" fill="#007299"/>
<circle cx="829" cy="952" r="5" fill="#007299"/>
<circle cx="695" cy="862" r="5" fill="#007299"/>
<circle cx="605" cy="728" r="5" fill="#007299"/>
<circle cx="574" cy="569" r="5" fill="#007299"/>
<circle cx="605" cy="411" r="5" fill="#007299"/>
<circle cx="695" cy="277" r="5" fill="#007299"/>
<circle cx="829" cy="187" r="5" fill="#007299"/>
<circle cx="1146" cy="187" r="5" fill="#007299"/>
<circle cx="1280" cy="277" r="5" fill="#007299"/>
<circle cx="1370" cy="411" r="5" fill="#007299"/>
<circle cx="1370" cy="728" r="5" fill="#007299"/>
<circle cx="1280" cy="862" r="5" fill="#007299"/>
<circle cx="1146" cy="952" r="5" fill="#007299"/>
<circle cx="988" cy="155" r="5" fill="#007299"/>
<circle cx="1402" cy="569" r="5" fill="#007299"/>
<path d="M391 569L366 554.566V583.434L391 569ZM332 571.5H368.5V566.5H332V571.5Z" fill="#007299"/>
<path d="M159 569L134 554.566V583.434L159 569ZM100 571.5H136.5V566.5H100V571.5Z" fill="#007299"/>
</g>
<defs>
<clipPath id="clip0_77_120">
<rect width="1558" height="1138" fill="white"/>
</clipPath>
</defs>
</svg>
