<svg xmlns="http://www.w3.org/2000/svg" viewBox="0 0 180 180"><path fill="#000" fill-rule="evenodd" d="M121.965 105.824c-7.84 16.778-15.9 24.608-29.114 24.608-13.435 0-18.81-8.277-18.81-25.95v-4.25c6.718-.224 18.364-1.567 26.202-3.133C119.052 93.072 141 83.676 141 59.515 141 41.62 128.01 32 106.288 32 65.082 32 40 67.793 40 105.6c0 27.517 15.452 43.4 43.67 43.4 25.53 0 45.013-14.094 52.627-38.254l-14.332-4.922zM76.28 85.02c3.583-23.714 13.212-39.597 25.753-39.597 6.72 0 9.854 4.474 9.854 12.75 0 16.555-10.302 22.82-24.858 25.504-3.36.67-7.167 1.118-10.75 1.342z"/></svg>