<svg width="300" height="300" viewBox="0 0 300 300" fill="none" xmlns="http://www.w3.org/2000/svg">
<path d="M278.808 4.0406C275.705 1.91672 272.128 0.581565 268.389 0.151572C264.649 -0.278421 260.861 0.209805 257.354 1.57367C237.044 9.45053 196.034 22.6652 149.971 22.6652C103.908 22.6652 62.8824 9.45053 42.5434 1.57367C39.0342 0.216113 35.2458 -0.268598 31.5063 0.161506C27.7667 0.591609 24.1887 1.92356 21.0821 4.04205C17.9754 6.16054 15.4336 9.00172 13.6769 12.3196C11.9201 15.6375 11.0013 19.3321 11 23.0836V103.54C11 155.245 24.9694 204.021 50.346 240.851C76.6347 279.024 112.014 300 149.971 300C187.927 300 223.307 278.981 249.595 240.851C274.972 204.049 288.941 155.273 288.941 103.569V23.0836C288.934 19.3273 288.008 15.6294 286.242 12.3109C284.476 8.9924 281.924 6.15349 278.808 4.0406ZM265.779 103.583C265.779 150.671 253.243 194.802 230.501 227.839C208.657 259.534 180.066 276.99 149.971 276.99C119.875 276.99 91.2845 259.534 69.44 227.824C46.6981 194.759 34.1618 150.657 34.1618 103.569V23.0836C56.0352 31.5519 100.144 45.7476 149.971 45.7476C199.797 45.7476 243.92 31.5519 265.779 23.0836V103.598V103.583Z" fill="white"/>
<path d="M209.529 196.299C209.529 227.709 183.854 253.167 152.176 253.167C120.499 253.167 94.8235 227.709 94.8235 196.299C94.8235 164.89 120.499 183.824 152.176 183.824C183.854 183.824 209.529 164.89 209.529 196.299Z" fill="white"/>
<circle cx="103.647" cy="127.941" r="22.0588" fill="white"/>
<circle cx="200.706" cy="127.941" r="22.0588" fill="white"/>
</svg>
