<svg width="300" height="300" viewBox="0 0 300 300" fill="none" xmlns="http://www.w3.org/2000/svg">
<path d="M226.81 98.1C229.8 98.1 232.62 96.93 234.73 94.81C236.84 92.69 238.01 89.88 238.01 86.88C237.99 69.56 231.25 53.28 219.02 41.03C206.79 28.78 190.53 22.02 173.23 22H92.86C87.48 22 82.43 24.1 78.62 27.91C74.82 31.72 72.73 36.78 72.73 42.16V95.83C72.73 99.07 72.1 102.24 70.86 105.24C69.62 108.24 67.83 110.92 65.54 113.21C63.25 115.5 60.57 117.29 57.58 118.54C54.59 119.78 51.43 120.41 48.2 120.41C45.21 120.41 42.39 121.58 40.28 123.7C38.17 125.82 37 128.63 37 131.62C37 134.61 38.16 137.43 40.28 139.54C42.4 141.66 45.21 142.83 48.2 142.83C60.73 142.83 72.52 137.94 81.38 129.06C89.7 120.72 94.52 109.8 95.07 98.1H126.31V123.38C126.31 127.04 125.49 130.72 123.9 134.02C122.32 137.32 119.97 140.27 117.1 142.55L99.24 156.85C93.77 161.22 89.28 166.87 86.25 173.19C83.22 179.51 81.63 186.55 81.65 193.55V256.86C81.65 262.24 83.74 267.3 87.54 271.11C91.34 274.92 96.4 277.02 101.78 277.02H217.87C223.25 277.02 228.3 274.92 232.11 271.11C235.91 267.3 238 262.24 238 256.86V242.85C238 192.38 225.44 142.5 201.59 98.1H226.81ZM214.11 75.68H95.13V44.43H173.23C183.42 44.44 193.27 48.13 200.97 54.81C207.34 60.34 211.9 67.62 214.11 75.69V75.68ZM148.71 123.37V98.1H175.87C201.9 141.87 215.63 191.86 215.62 242.84V254.59H104.06V193.53C104.06 189.87 104.88 186.19 106.47 182.89C108.05 179.59 110.4 176.64 113.27 174.36L131.13 160.06C136.6 155.69 141.09 150.04 144.12 143.72C147.15 137.4 148.74 130.36 148.72 123.36L148.71 123.37Z" fill="white"/>
</svg>
