<svg width="468" height="393" viewBox="0 0 468 393" fill="none" xmlns="http://www.w3.org/2000/svg">
<rect width="468" height="393" fill="#2B2B2B"/>
<path d="M63.16 59.284L52.38 65.948V68.496L63.076 75.16L64.448 73.2L54.676 67.236L64.448 61.272L63.16 59.284ZM265.469 63.456H254.269V65.724H265.469V63.456ZM265.469 68.86H254.269V71.128H265.469V68.86ZM273.13 62.672H275.37L275.846 55.308H272.682L273.13 62.672ZM277.946 62.672H280.186L280.634 55.308H277.47L277.946 62.672ZM390.653 62.672H392.893L393.369 55.308H390.205L390.653 62.672ZM395.469 62.672H397.709L398.157 55.308H394.993L395.469 62.672ZM406.238 59.284L404.95 61.3L414.694 67.236L404.95 73.2L406.322 75.16L417.018 68.496V65.948L406.238 59.284ZM77.2891 121.32L66.9011 142.712L54.6651 135.236L64.4371 129.272L63.1491 127.284L52.3691 133.948V136.496L65.8651 144.896L64.6891 147.304L66.8451 148.256L79.4171 122.328L77.2891 121.32ZM187.981 127.284L186.693 129.3L196.437 135.236L186.693 141.2L188.065 143.16L198.761 136.496V133.948L187.981 127.284Z" fill="#E6E6E6"/>
<path d="M72.1371 63.092V54.972L69.4491 55.308V76H71.8291L71.9971 74.488C72.9771 75.748 74.2931 76.336 75.9451 76.336C79.7531 76.336 81.8251 73.088 81.8251 68.608C81.8251 63.932 80.2011 60.88 76.3091 60.88C74.6291 60.88 73.2011 61.692 72.1371 63.092ZM75.3011 74.236C74.0131 74.236 72.8931 73.536 72.1371 72.416V65.276C72.9211 64.1 74.0971 63.008 75.6371 63.008C77.7651 63.008 78.9411 64.772 78.9411 68.608C78.9411 72.444 77.5971 74.236 75.3011 74.236ZM88.9261 61.244H86.2381V71.968C86.2381 74.712 87.6381 76.336 90.4941 76.336C92.2301 76.336 94.0501 75.524 95.1981 74.04L95.3941 76H97.7181V61.244H95.0301V72.024C94.2461 73.228 92.7621 74.264 91.2501 74.264C89.6821 74.264 88.9261 73.48 88.9261 71.632V61.244ZM115.039 75.244L114.031 73.424C113.247 73.844 112.323 74.124 111.231 74.124C109.299 74.124 108.515 73.312 108.515 71.688V63.26H113.247L113.583 61.244H108.515V57.604L105.827 57.912V61.244H102.495V63.26H105.827V71.716C105.827 74.46 107.619 76.336 110.923 76.336C112.407 76.336 113.975 75.916 115.039 75.244ZM131.828 75.244L130.82 73.424C130.036 73.844 129.112 74.124 128.02 74.124C126.088 74.124 125.304 73.312 125.304 71.688V63.26H130.036L130.372 61.244H125.304V57.604L122.616 57.912V61.244H119.284V63.26H122.616V71.716C122.616 74.46 124.408 76.336 127.712 76.336C129.196 76.336 130.764 75.916 131.828 75.244ZM142.373 60.88C138.145 60.88 135.849 64.044 135.849 68.636C135.849 73.34 138.117 76.336 142.345 76.336C146.545 76.336 148.841 73.2 148.841 68.608C148.841 63.932 146.601 60.88 142.373 60.88ZM142.373 63.036C144.781 63.036 145.985 64.8 145.985 68.608C145.985 72.444 144.781 74.208 142.345 74.208C139.909 74.208 138.705 72.444 138.705 68.636C138.705 64.8 139.937 63.036 142.373 63.036ZM153.394 76H156.082V65.332C156.866 64.184 158.238 62.98 159.862 62.98C161.906 62.98 162.214 64.1 162.214 66.928V76H164.902V65.276C164.902 62.504 163.586 60.88 160.758 60.88C158.994 60.88 157.118 61.72 155.914 63.232L155.718 61.244H153.394V76ZM88.9261 131.092V122.972L86.2381 123.308V144H88.6181L88.7861 142.488C89.7661 143.748 91.0821 144.336 92.7341 144.336C96.5421 144.336 98.6141 141.088 98.6141 136.608C98.6141 131.932 96.9901 128.88 93.0981 128.88C91.4181 128.88 89.9901 129.692 88.9261 131.092ZM92.0901 142.236C90.8021 142.236 89.6821 141.536 88.9261 140.416V133.276C89.7101 132.1 90.8861 131.008 92.4261 131.008C94.5541 131.008 95.7301 132.772 95.7301 136.608C95.7301 140.444 94.3861 142.236 92.0901 142.236ZM105.715 129.244H103.027V139.968C103.027 142.712 104.427 144.336 107.283 144.336C109.019 144.336 110.839 143.524 111.987 142.04L112.183 144H114.507V129.244H111.819V140.024C111.035 141.228 109.551 142.264 108.039 142.264C106.471 142.264 105.715 141.48 105.715 139.632V129.244ZM131.828 143.244L130.82 141.424C130.036 141.844 129.112 142.124 128.02 142.124C126.088 142.124 125.304 141.312 125.304 139.688V131.26H130.036L130.372 129.244H125.304V125.604L122.616 125.912V129.244H119.284V131.26H122.616V139.716C122.616 142.46 124.408 144.336 127.712 144.336C129.196 144.336 130.764 143.916 131.828 143.244ZM148.617 143.244L147.609 141.424C146.825 141.844 145.901 142.124 144.809 142.124C142.877 142.124 142.093 141.312 142.093 139.688V131.26H146.825L147.161 129.244H142.093V125.604L139.405 125.912V129.244H136.073V131.26H139.405V139.716C139.405 142.46 141.197 144.336 144.501 144.336C145.985 144.336 147.553 143.916 148.617 143.244ZM159.162 128.88C154.934 128.88 152.638 132.044 152.638 136.636C152.638 141.34 154.906 144.336 159.134 144.336C163.334 144.336 165.63 141.2 165.63 136.608C165.63 131.932 163.39 128.88 159.162 128.88ZM159.162 131.036C161.57 131.036 162.774 132.8 162.774 136.608C162.774 140.444 161.57 142.208 159.134 142.208C156.698 142.208 155.494 140.444 155.494 136.636C155.494 132.8 156.726 131.036 159.162 131.036ZM170.183 144H172.871V133.332C173.655 132.184 175.027 130.98 176.651 130.98C178.695 130.98 179.003 132.1 179.003 134.928V144H181.691V133.276C181.691 130.504 180.375 128.88 177.547 128.88C175.783 128.88 173.907 129.72 172.703 131.232L172.507 129.244H170.183V144Z" fill="#F1A381"/>
<path d="M98.7541 104.596C98.7541 100.956 96.2061 99.64 93.0701 98.716C89.4861 97.68 88.3661 96.896 88.3661 95.3C88.3661 93.48 90.0181 92.612 92.0621 92.612C93.6861 92.612 95.3101 93.144 96.6821 94.348L98.2221 92.612C96.5981 91.184 94.6381 90.344 91.9501 90.344C88.1981 90.344 85.5381 92.416 85.5381 95.44C85.5381 98.464 87.8061 99.92 91.7541 101.096C94.9741 102.02 95.8421 102.916 95.8421 104.708C95.8421 106.976 93.8541 108.096 91.5861 108.096C89.2621 108.096 87.5821 107.312 86.2381 106.052L84.6421 107.844C86.2661 109.412 88.5901 110.336 91.5581 110.336C96.1221 110.336 98.7541 107.984 98.7541 104.596ZM113.919 106.612V99.724C113.919 96.728 112.043 94.88 108.235 94.88C106.779 94.88 105.099 95.188 103.251 95.86L103.951 97.82C105.463 97.288 106.863 97.064 107.843 97.064C109.971 97.064 111.231 97.848 111.231 99.892V100.984H109.103C104.623 100.984 102.131 102.72 102.131 105.772C102.131 108.516 103.951 110.336 106.947 110.336C108.851 110.336 110.531 109.636 111.595 108.264C112.071 109.58 113.107 110.168 114.451 110.336L115.095 108.488C114.283 108.236 113.919 107.788 113.919 106.612ZM107.675 108.348C105.883 108.348 104.987 107.424 104.987 105.716C104.987 103.868 106.163 102.748 109.271 102.748H111.231V106.332C110.419 107.592 109.075 108.348 107.675 108.348ZM132.416 95.244H129.644L125.612 107.676L121.58 95.244H118.696L123.988 110H127.096L132.416 95.244ZM138.789 103.532H148.673C148.701 103.196 148.729 102.692 148.729 102.188C148.729 97.68 146.377 94.88 142.569 94.88C138.509 94.88 135.989 98.184 135.989 102.636C135.989 107.228 138.481 110.336 142.905 110.336C144.837 110.336 146.741 109.664 148.113 108.572L146.909 106.864C145.621 107.732 144.445 108.18 142.989 108.18C140.777 108.18 138.957 106.78 138.789 103.532ZM142.597 96.98C144.753 96.98 146.069 98.576 146.125 101.572H138.789C138.985 98.464 140.497 96.98 142.597 96.98Z" fill="white"/>
<path d="M198.985 75.244L197.977 73.424C197.193 73.844 196.269 74.124 195.177 74.124C193.245 74.124 192.461 73.312 192.461 71.688V63.26H197.193L197.529 61.244H192.461V57.604L189.773 57.912V61.244H186.441V63.26H189.773V71.716C189.773 74.46 191.565 76.336 194.869 76.336C196.353 76.336 197.921 75.916 198.985 75.244ZM216.334 61.244H213.562L209.558 74.04L205.526 61.244H202.67L207.738 76H208.662C207.878 78.212 206.954 79.388 203.958 79.892L204.322 81.992C208.326 81.6 210.118 79.248 211.182 76.084L216.334 61.244ZM227.439 60.88C225.703 60.88 224.163 61.72 223.071 63.232L222.875 61.244H220.551V81.992L223.239 81.656V74.684C224.219 75.776 225.507 76.336 227.103 76.336C230.883 76.336 232.787 73.088 232.787 68.608C232.787 63.932 231.331 60.88 227.439 60.88ZM226.739 63.008C228.895 63.008 229.931 64.772 229.931 68.608C229.931 72.444 228.727 74.18 226.431 74.18C225.115 74.18 223.995 73.508 223.239 72.416V65.276C224.023 64.1 225.199 63.008 226.739 63.008ZM239.524 69.532H249.408C249.436 69.196 249.464 68.692 249.464 68.188C249.464 63.68 247.112 60.88 243.304 60.88C239.244 60.88 236.724 64.184 236.724 68.636C236.724 73.228 239.216 76.336 243.64 76.336C245.572 76.336 247.476 75.664 248.848 74.572L247.644 72.864C246.356 73.732 245.18 74.18 243.724 74.18C241.512 74.18 239.692 72.78 239.524 69.532ZM243.332 62.98C245.488 62.98 246.804 64.576 246.86 67.572H239.524C239.72 64.464 241.232 62.98 243.332 62.98Z" fill="#B2DE57"/>
<path d="M290.395 63.092V54.972L287.707 55.308V76H290.087L290.255 74.488C291.235 75.748 292.551 76.336 294.203 76.336C298.011 76.336 300.083 73.088 300.083 68.608C300.083 63.932 298.459 60.88 294.567 60.88C292.887 60.88 291.459 61.692 290.395 63.092ZM293.559 74.236C292.271 74.236 291.151 73.536 290.395 72.416V65.276C291.179 64.1 292.355 63.008 293.895 63.008C296.023 63.008 297.199 64.772 297.199 68.608C297.199 72.444 295.855 74.236 293.559 74.236ZM307.184 61.244H304.496V71.968C304.496 74.712 305.896 76.336 308.752 76.336C310.488 76.336 312.308 75.524 313.456 74.04L313.652 76H315.976V61.244H313.288V72.024C312.504 73.228 311.02 74.264 309.508 74.264C307.94 74.264 307.184 73.48 307.184 71.632V61.244ZM333.297 75.244L332.289 73.424C331.505 73.844 330.581 74.124 329.489 74.124C327.557 74.124 326.773 73.312 326.773 71.688V63.26H331.505L331.841 61.244H326.773V57.604L324.085 57.912V61.244H320.753V63.26H324.085V71.716C324.085 74.46 325.877 76.336 329.181 76.336C330.665 76.336 332.233 75.916 333.297 75.244ZM350.086 75.244L349.078 73.424C348.294 73.844 347.37 74.124 346.278 74.124C344.346 74.124 343.562 73.312 343.562 71.688V63.26H348.294L348.63 61.244H343.562V57.604L340.874 57.912V61.244H337.542V63.26H340.874V71.716C340.874 74.46 342.666 76.336 345.97 76.336C347.454 76.336 349.022 75.916 350.086 75.244ZM360.631 60.88C356.403 60.88 354.107 64.044 354.107 68.636C354.107 73.34 356.375 76.336 360.603 76.336C364.803 76.336 367.099 73.2 367.099 68.608C367.099 63.932 364.859 60.88 360.631 60.88ZM360.631 63.036C363.039 63.036 364.243 64.8 364.243 68.608C364.243 72.444 363.039 74.208 360.603 74.208C358.167 74.208 356.963 72.444 356.963 68.636C356.963 64.8 358.195 63.036 360.631 63.036ZM371.652 76H374.34V65.332C375.124 64.184 376.496 62.98 378.12 62.98C380.164 62.98 380.472 64.1 380.472 66.928V76H383.16V65.276C383.16 62.504 381.844 60.88 379.016 60.88C377.252 60.88 375.376 61.72 374.172 63.232L373.976 61.244H371.652V76Z" fill="#F9D749"/>
<rect y="194" width="468" height="199" fill="#F2F2F2"/>
<path d="M51.8281 283.785H54.582L63.2773 297.73V283.785H65.4922V301H62.8789L54.0547 287.066V301H51.8281V283.785ZM70.5078 297.66C70.5078 298.27 70.7305 298.75 71.1758 299.102C71.6211 299.453 72.1484 299.629 72.7578 299.629C73.5 299.629 74.2188 299.457 74.9141 299.113C76.0859 298.543 76.6719 297.609 76.6719 296.312V294.613C76.4141 294.777 76.082 294.914 75.6758 295.023C75.2695 295.133 74.8711 295.211 74.4805 295.258L73.2031 295.422C72.4375 295.523 71.8633 295.684 71.4805 295.902C70.832 296.27 70.5078 296.855 70.5078 297.66ZM75.6172 293.395C76.1016 293.332 76.4258 293.129 76.5898 292.785C76.6836 292.598 76.7305 292.328 76.7305 291.977C76.7305 291.258 76.4727 290.738 75.957 290.418C75.4492 290.09 74.7188 289.926 73.7656 289.926C72.6641 289.926 71.8828 290.223 71.4219 290.816C71.1641 291.145 70.9961 291.633 70.918 292.281H68.9492C68.9883 290.734 69.4883 289.66 70.4492 289.059C71.418 288.449 72.5391 288.145 73.8125 288.145C75.2891 288.145 76.4883 288.426 77.4102 288.988C78.3242 289.551 78.7812 290.426 78.7812 291.613V298.844C78.7812 299.062 78.8242 299.238 78.9102 299.371C79.0039 299.504 79.1953 299.57 79.4844 299.57C79.5781 299.57 79.6836 299.566 79.8008 299.559C79.918 299.543 80.043 299.523 80.1758 299.5V301.059C79.8477 301.152 79.5977 301.211 79.4258 301.234C79.2539 301.258 79.0195 301.27 78.7227 301.27C77.9961 301.27 77.4688 301.012 77.1406 300.496C76.9688 300.223 76.8477 299.836 76.7773 299.336C76.3477 299.898 75.7305 300.387 74.9258 300.801C74.1211 301.215 73.2344 301.422 72.2656 301.422C71.1016 301.422 70.1484 301.07 69.4062 300.367C68.6719 299.656 68.3047 298.77 68.3047 297.707C68.3047 296.543 68.668 295.641 69.3945 295C70.1211 294.359 71.0742 293.965 72.2539 293.816L75.6172 293.395ZM82.25 288.449H84.3359V290.23C84.8359 289.613 85.2891 289.164 85.6953 288.883C86.3906 288.406 87.1797 288.168 88.0625 288.168C89.0625 288.168 89.8672 288.414 90.4766 288.906C90.8203 289.188 91.1328 289.602 91.4141 290.148C91.8828 289.477 92.4336 288.98 93.0664 288.66C93.6992 288.332 94.4102 288.168 95.1992 288.168C96.8867 288.168 98.0352 288.777 98.6445 289.996C98.9727 290.652 99.1367 291.535 99.1367 292.645V301H96.9453V292.281C96.9453 291.445 96.7344 290.871 96.3125 290.559C95.8984 290.246 95.3906 290.09 94.7891 290.09C93.9609 290.09 93.2461 290.367 92.6445 290.922C92.0508 291.477 91.7539 292.402 91.7539 293.699V301H89.6094V292.809C89.6094 291.957 89.5078 291.336 89.3047 290.945C88.9844 290.359 88.3867 290.066 87.5117 290.066C86.7148 290.066 85.9883 290.375 85.332 290.992C84.6836 291.609 84.3594 292.727 84.3594 294.344V301H82.25V288.449ZM107.469 288.168C108.359 288.168 109.223 288.379 110.059 288.801C110.895 289.215 111.531 289.754 111.969 290.418C112.391 291.051 112.672 291.789 112.812 292.633C112.938 293.211 113 294.133 113 295.398H103.801C103.84 296.672 104.141 297.695 104.703 298.469C105.266 299.234 106.137 299.617 107.316 299.617C108.418 299.617 109.297 299.254 109.953 298.527C110.328 298.105 110.594 297.617 110.75 297.062H112.824C112.77 297.523 112.586 298.039 112.273 298.609C111.969 299.172 111.625 299.633 111.242 299.992C110.602 300.617 109.809 301.039 108.863 301.258C108.355 301.383 107.781 301.445 107.141 301.445C105.578 301.445 104.254 300.879 103.168 299.746C102.082 298.605 101.539 297.012 101.539 294.965C101.539 292.949 102.086 291.312 103.18 290.055C104.273 288.797 105.703 288.168 107.469 288.168ZM110.832 293.723C110.746 292.809 110.547 292.078 110.234 291.531C109.656 290.516 108.691 290.008 107.34 290.008C106.371 290.008 105.559 290.359 104.902 291.062C104.246 291.758 103.898 292.645 103.859 293.723H110.832ZM116.715 288.613H119.164V291.168H116.715V288.613ZM116.715 298.445H119.164V301H116.715V298.445ZM59.832 333.672C60.9258 333.672 61.7891 333.453 62.4219 333.016C63.0625 332.578 63.3828 331.789 63.3828 330.648C63.3828 329.422 62.9375 328.586 62.0469 328.141C61.5703 327.906 60.9336 327.789 60.1367 327.789H54.4414V333.672H59.832ZM52.1094 325.785H60.0781C61.3906 325.785 62.4727 325.977 63.3242 326.359C64.9414 327.094 65.75 328.449 65.75 330.426C65.75 331.457 65.5352 332.301 65.1055 332.957C64.6836 333.613 64.0898 334.141 63.3242 334.539C63.9961 334.812 64.5 335.172 64.8359 335.617C65.1797 336.062 65.3711 336.785 65.4102 337.785L65.4922 340.094C65.5156 340.75 65.5703 341.238 65.6562 341.559C65.7969 342.105 66.0469 342.457 66.4062 342.613V343H63.5469C63.4688 342.852 63.4062 342.66 63.3594 342.426C63.3125 342.191 63.2734 341.738 63.2422 341.066L63.1016 338.195C63.0469 337.07 62.6289 336.316 61.8477 335.934C61.4023 335.723 60.7031 335.617 59.75 335.617H54.4414V343H52.1094V325.785ZM73.8711 341.641C75.2695 341.641 76.2266 341.113 76.7422 340.059C77.2656 338.996 77.5273 337.816 77.5273 336.52C77.5273 335.348 77.3398 334.395 76.9648 333.66C76.3711 332.504 75.3477 331.926 73.8945 331.926C72.6055 331.926 71.668 332.418 71.082 333.402C70.4961 334.387 70.2031 335.574 70.2031 336.965C70.2031 338.301 70.4961 339.414 71.082 340.305C71.668 341.195 72.5977 341.641 73.8711 341.641ZM73.9531 330.086C75.5703 330.086 76.9375 330.625 78.0547 331.703C79.1719 332.781 79.7305 334.367 79.7305 336.461C79.7305 338.484 79.2383 340.156 78.2539 341.477C77.2695 342.797 75.7422 343.457 73.6719 343.457C71.9453 343.457 70.5742 342.875 69.5586 341.711C68.543 340.539 68.0352 338.969 68.0352 337C68.0352 334.891 68.5703 333.211 69.6406 331.961C70.7109 330.711 72.1484 330.086 73.9531 330.086ZM82.3086 325.785H84.418V343H82.3086V325.785ZM92.8203 330.168C93.7109 330.168 94.5742 330.379 95.4102 330.801C96.2461 331.215 96.8828 331.754 97.3203 332.418C97.7422 333.051 98.0234 333.789 98.1641 334.633C98.2891 335.211 98.3516 336.133 98.3516 337.398H89.1523C89.1914 338.672 89.4922 339.695 90.0547 340.469C90.6172 341.234 91.4883 341.617 92.668 341.617C93.7695 341.617 94.6484 341.254 95.3047 340.527C95.6797 340.105 95.9453 339.617 96.1016 339.062H98.1758C98.1211 339.523 97.9375 340.039 97.625 340.609C97.3203 341.172 96.9766 341.633 96.5938 341.992C95.9531 342.617 95.1602 343.039 94.2148 343.258C93.707 343.383 93.1328 343.445 92.4922 343.445C90.9297 343.445 89.6055 342.879 88.5195 341.746C87.4336 340.605 86.8906 339.012 86.8906 336.965C86.8906 334.949 87.4375 333.312 88.5312 332.055C89.625 330.797 91.0547 330.168 92.8203 330.168ZM96.1836 335.723C96.0977 334.809 95.8984 334.078 95.5859 333.531C95.0078 332.516 94.043 332.008 92.6914 332.008C91.7227 332.008 90.9102 332.359 90.2539 333.062C89.5977 333.758 89.25 334.645 89.2109 335.723H96.1836ZM102.066 330.613H104.516V333.168H102.066V330.613ZM102.066 340.445H104.516V343H102.066V340.445Z" fill="#4A4A4A"/>
<path d="M148.008 296.368C148.008 293.248 145.824 292.12 143.136 291.328C140.064 290.44 139.104 289.768 139.104 288.4C139.104 286.84 140.52 286.096 142.272 286.096C143.664 286.096 145.056 286.552 146.232 287.584L147.552 286.096C146.16 284.872 144.48 284.152 142.176 284.152C138.96 284.152 136.68 285.928 136.68 288.52C136.68 291.112 138.624 292.36 142.008 293.368C144.768 294.16 145.512 294.928 145.512 296.464C145.512 298.408 143.808 299.368 141.864 299.368C139.872 299.368 138.432 298.696 137.28 297.616L135.912 299.152C137.304 300.496 139.296 301.288 141.84 301.288C145.752 301.288 148.008 299.272 148.008 296.368ZM161.007 298.096V292.192C161.007 289.624 159.399 288.04 156.135 288.04C154.887 288.04 153.447 288.304 151.863 288.88L152.463 290.56C153.759 290.104 154.959 289.912 155.799 289.912C157.623 289.912 158.703 290.584 158.703 292.336V293.272H156.879C153.039 293.272 150.903 294.76 150.903 297.376C150.903 299.728 152.463 301.288 155.031 301.288C156.663 301.288 158.103 300.688 159.015 299.512C159.423 300.64 160.311 301.144 161.463 301.288L162.015 299.704C161.319 299.488 161.007 299.104 161.007 298.096ZM155.655 299.584C154.119 299.584 153.351 298.792 153.351 297.328C153.351 295.744 154.359 294.784 157.023 294.784H158.703V297.856C158.007 298.936 156.855 299.584 155.655 299.584ZM176.861 288.352H174.485L171.029 299.008L167.573 288.352H165.101L169.637 301H172.301L176.861 288.352ZM182.324 295.456H190.796C190.82 295.168 190.844 294.736 190.844 294.304C190.844 290.44 188.828 288.04 185.564 288.04C182.084 288.04 179.924 290.872 179.924 294.688C179.924 298.624 182.06 301.288 185.852 301.288C187.508 301.288 189.14 300.712 190.316 299.776L189.284 298.312C188.18 299.056 187.172 299.44 185.924 299.44C184.028 299.44 182.468 298.24 182.324 295.456ZM185.588 289.84C187.436 289.84 188.564 291.208 188.612 293.776H182.324C182.492 291.112 183.788 289.84 185.588 289.84ZM143.184 330.04C141.696 330.04 140.376 330.76 139.44 332.056L139.272 330.352H137.28V348.136L139.584 347.848V341.872C140.424 342.808 141.528 343.288 142.896 343.288C146.136 343.288 147.768 340.504 147.768 336.664C147.768 332.656 146.52 330.04 143.184 330.04ZM142.584 331.864C144.432 331.864 145.32 333.376 145.32 336.664C145.32 339.952 144.288 341.44 142.32 341.44C141.192 341.44 140.232 340.864 139.584 339.928V333.808C140.256 332.8 141.264 331.864 142.584 331.864ZM153.975 330.352H151.671V339.544C151.671 341.896 152.871 343.288 155.319 343.288C156.807 343.288 158.367 342.592 159.351 341.32L159.519 343H161.511V330.352H159.207V339.592C158.535 340.624 157.263 341.512 155.967 341.512C154.623 341.512 153.975 340.84 153.975 339.256V330.352ZM170.501 341.464C169.013 341.464 167.693 340.912 166.709 340.096L165.461 341.56C166.565 342.52 168.197 343.288 170.501 343.288C173.285 343.288 175.949 342.184 175.949 339.448C175.949 337.072 174.317 336.208 171.845 335.536C169.301 334.84 168.557 334.456 168.557 333.4C168.557 332.488 169.253 331.864 171.149 331.864C172.709 331.864 173.813 332.344 174.773 332.992L175.781 331.48C174.677 330.664 173.165 330.04 171.077 330.04C168.125 330.04 166.181 331.432 166.181 333.592C166.181 335.8 167.861 336.616 170.429 337.264C173.093 337.936 173.477 338.488 173.477 339.592C173.477 340.744 172.349 341.464 170.501 341.464ZM182.756 325.024L180.452 325.288V343H182.756V333.856C183.428 332.872 184.628 331.84 185.972 331.84C187.364 331.84 188.012 332.488 188.012 334V343H190.316V333.808C190.316 331.432 189.188 330.04 186.764 330.04C185.276 330.04 183.788 330.712 182.756 332.008V325.024ZM197.147 331.936V324.976L194.843 325.264V343H196.883L197.027 341.704C197.867 342.784 198.995 343.288 200.411 343.288C203.675 343.288 205.451 340.504 205.451 336.664C205.451 332.656 204.059 330.04 200.723 330.04C199.283 330.04 198.059 330.736 197.147 331.936ZM199.859 341.488C198.755 341.488 197.795 340.888 197.147 339.928V333.808C197.819 332.8 198.827 331.864 200.147 331.864C201.971 331.864 202.979 333.376 202.979 336.664C202.979 339.952 201.827 341.488 199.859 341.488ZM211.537 330.352H209.233V339.544C209.233 341.896 210.433 343.288 212.881 343.288C214.369 343.288 215.929 342.592 216.913 341.32L217.081 343H219.073V330.352H216.769V339.592C216.097 340.624 214.825 341.512 213.529 341.512C212.185 341.512 211.537 340.84 211.537 339.256V330.352ZM233.92 342.352L233.056 340.792C232.384 341.152 231.592 341.392 230.656 341.392C229 341.392 228.328 340.696 228.328 339.304V332.08H232.384L232.672 330.352H228.328V327.232L226.024 327.496V330.352H223.168V332.08H226.024V339.328C226.024 341.68 227.56 343.288 230.392 343.288C231.664 343.288 233.008 342.928 233.92 342.352ZM248.31 342.352L247.446 340.792C246.774 341.152 245.982 341.392 245.046 341.392C243.39 341.392 242.718 340.696 242.718 339.304V332.08H246.774L247.062 330.352H242.718V327.232L240.414 327.496V330.352H237.558V332.08H240.414V339.328C240.414 341.68 241.95 343.288 244.782 343.288C246.054 343.288 247.398 342.928 248.31 342.352ZM257.349 330.04C253.725 330.04 251.757 332.752 251.757 336.688C251.757 340.72 253.701 343.288 257.325 343.288C260.925 343.288 262.893 340.6 262.893 336.664C262.893 332.656 260.973 330.04 257.349 330.04ZM257.349 331.888C259.413 331.888 260.445 333.4 260.445 336.664C260.445 339.952 259.413 341.464 257.325 341.464C255.237 341.464 254.205 339.952 254.205 336.688C254.205 333.4 255.261 331.888 257.349 331.888ZM266.796 343H269.1V333.856C269.772 332.872 270.948 331.84 272.34 331.84C274.092 331.84 274.356 332.8 274.356 335.224V343H276.66V333.808C276.66 331.432 275.532 330.04 273.108 330.04C271.596 330.04 269.988 330.76 268.956 332.056L268.788 330.352H266.796V343Z" fill="#4A4A4A"/>
<path d="M60.044 243.234C59.948 242.862 59.816 242.52 59.648 242.208C59.48 241.896 59.264 241.626 59 241.398C58.736 241.17 58.424 240.996 58.064 240.876C57.716 240.744 57.308 240.678 56.84 240.678C56.156 240.678 55.562 240.816 55.058 241.092C54.566 241.368 54.164 241.74 53.852 242.208C53.54 242.664 53.306 243.186 53.15 243.774C53.006 244.362 52.934 244.962 52.934 245.574C52.934 246.186 53.006 246.786 53.15 247.374C53.306 247.962 53.54 248.49 53.852 248.958C54.164 249.414 54.566 249.78 55.058 250.056C55.562 250.332 56.156 250.47 56.84 250.47C57.344 250.47 57.788 250.386 58.172 250.218C58.556 250.038 58.886 249.798 59.162 249.498C59.438 249.186 59.654 248.826 59.81 248.418C59.966 248.01 60.068 247.572 60.116 247.104H62.312C62.264 247.872 62.096 248.574 61.808 249.21C61.532 249.846 61.154 250.398 60.674 250.866C60.194 251.322 59.63 251.676 58.982 251.928C58.334 252.18 57.62 252.306 56.84 252.306C55.88 252.306 55.016 252.132 54.248 251.784C53.492 251.424 52.85 250.938 52.322 250.326C51.794 249.714 51.386 249 51.098 248.184C50.822 247.368 50.684 246.498 50.684 245.574C50.684 244.662 50.822 243.798 51.098 242.982C51.386 242.166 51.794 241.452 52.322 240.84C52.85 240.228 53.492 239.742 54.248 239.382C55.016 239.022 55.88 238.842 56.84 238.842C57.56 238.842 58.238 238.944 58.874 239.148C59.51 239.34 60.068 239.628 60.548 240.012C61.04 240.384 61.436 240.84 61.736 241.38C62.036 241.92 62.222 242.538 62.294 243.234H60.044ZM70.3702 240.678C69.6862 240.678 69.0922 240.816 68.5882 241.092C68.0962 241.368 67.6942 241.74 67.3822 242.208C67.0702 242.664 66.8362 243.186 66.6802 243.774C66.5362 244.362 66.4642 244.962 66.4642 245.574C66.4642 246.186 66.5362 246.786 66.6802 247.374C66.8362 247.962 67.0702 248.49 67.3822 248.958C67.6942 249.414 68.0962 249.78 68.5882 250.056C69.0922 250.332 69.6862 250.47 70.3702 250.47C71.0542 250.47 71.6422 250.332 72.1342 250.056C72.6382 249.78 73.0462 249.414 73.3582 248.958C73.6702 248.49 73.8982 247.962 74.0422 247.374C74.1982 246.786 74.2762 246.186 74.2762 245.574C74.2762 244.962 74.1982 244.362 74.0422 243.774C73.8982 243.186 73.6702 242.664 73.3582 242.208C73.0462 241.74 72.6382 241.368 72.1342 241.092C71.6422 240.816 71.0542 240.678 70.3702 240.678ZM70.3702 238.842C71.3302 238.842 72.1882 239.022 72.9442 239.382C73.7122 239.742 74.3602 240.228 74.8882 240.84C75.4162 241.452 75.8182 242.166 76.0942 242.982C76.3822 243.798 76.5262 244.662 76.5262 245.574C76.5262 246.498 76.3822 247.368 76.0942 248.184C75.8182 249 75.4162 249.714 74.8882 250.326C74.3602 250.938 73.7122 251.424 72.9442 251.784C72.1882 252.132 71.3302 252.306 70.3702 252.306C69.4102 252.306 68.5462 252.132 67.7782 251.784C67.0222 251.424 66.3802 250.938 65.8522 250.326C65.3242 249.714 64.9162 249 64.6282 248.184C64.3522 247.368 64.2142 246.498 64.2142 245.574C64.2142 244.662 64.3522 243.798 64.6282 242.982C64.9162 242.166 65.3242 241.452 65.8522 240.84C66.3802 240.228 67.0222 239.742 67.7782 239.382C68.5462 239.022 69.4102 238.842 70.3702 238.842ZM79.078 239.148H82.246L85.792 249.21H85.828L89.284 239.148H92.416V252H90.274V242.082H90.238L86.674 252H84.82L81.256 242.082H81.22V252H79.078V239.148ZM95.6501 239.148H101.32C102.232 239.148 102.976 239.28 103.552 239.544C104.128 239.808 104.572 240.138 104.884 240.534C105.196 240.93 105.406 241.362 105.514 241.83C105.634 242.298 105.694 242.73 105.694 243.126C105.694 243.522 105.634 243.954 105.514 244.422C105.406 244.878 105.196 245.304 104.884 245.7C104.572 246.096 104.128 246.426 103.552 246.69C102.976 246.942 102.232 247.068 101.32 247.068H97.9001V252H95.6501V239.148ZM97.9001 245.232H101.194C101.446 245.232 101.704 245.196 101.968 245.124C102.232 245.052 102.472 244.938 102.688 244.782C102.916 244.614 103.096 244.398 103.228 244.134C103.372 243.858 103.444 243.516 103.444 243.108C103.444 242.688 103.384 242.34 103.264 242.064C103.144 241.788 102.982 241.572 102.778 241.416C102.574 241.248 102.34 241.134 102.076 241.074C101.812 241.014 101.53 240.984 101.23 240.984H97.9001V245.232ZM108.052 239.148H110.302V246.636C110.302 247.068 110.32 247.506 110.356 247.95C110.404 248.394 110.524 248.796 110.716 249.156C110.92 249.504 111.22 249.792 111.616 250.02C112.024 250.248 112.594 250.362 113.326 250.362C114.058 250.362 114.622 250.248 115.018 250.02C115.426 249.792 115.726 249.504 115.918 249.156C116.122 248.796 116.242 248.394 116.278 247.95C116.326 247.506 116.35 247.068 116.35 246.636V239.148H118.6V247.374C118.6 248.202 118.474 248.922 118.222 249.534C117.97 250.146 117.61 250.662 117.142 251.082C116.686 251.49 116.134 251.796 115.486 252C114.838 252.204 114.118 252.306 113.326 252.306C112.534 252.306 111.814 252.204 111.166 252C110.518 251.796 109.96 251.49 109.492 251.082C109.036 250.662 108.682 250.146 108.43 249.534C108.178 248.922 108.052 248.202 108.052 247.374V239.148ZM120.502 239.148H130.906V241.092H126.82V252H124.57V241.092H120.502V239.148ZM132.936 239.148H142.188V241.092H135.186V244.458H141.666V246.294H135.186V250.056H142.314V252H132.936V239.148ZM144.814 239.148H150.142C151.126 239.148 151.978 239.316 152.698 239.652C153.418 239.988 154.006 240.45 154.462 241.038C154.918 241.614 155.254 242.292 155.47 243.072C155.698 243.852 155.812 244.686 155.812 245.574C155.812 246.462 155.698 247.296 155.47 248.076C155.254 248.856 154.918 249.54 154.462 250.128C154.006 250.704 153.418 251.16 152.698 251.496C151.978 251.832 151.126 252 150.142 252H144.814V239.148ZM147.064 250.164H149.278C150.154 250.164 150.868 250.05 151.42 249.822C151.984 249.582 152.422 249.258 152.734 248.85C153.058 248.43 153.274 247.944 153.382 247.392C153.502 246.828 153.562 246.222 153.562 245.574C153.562 244.926 153.502 244.326 153.382 243.774C153.274 243.21 153.058 242.724 152.734 242.316C152.422 241.896 151.984 241.572 151.42 241.344C150.868 241.104 150.154 240.984 149.278 240.984H147.064V250.164ZM163.894 239.148H169.564C170.476 239.148 171.22 239.28 171.796 239.544C172.372 239.808 172.816 240.138 173.128 240.534C173.44 240.93 173.65 241.362 173.758 241.83C173.878 242.298 173.938 242.73 173.938 243.126C173.938 243.522 173.878 243.954 173.758 244.422C173.65 244.878 173.44 245.304 173.128 245.7C172.816 246.096 172.372 246.426 171.796 246.69C171.22 246.942 170.476 247.068 169.564 247.068H166.144V252H163.894V239.148ZM166.144 245.232H169.438C169.69 245.232 169.948 245.196 170.212 245.124C170.476 245.052 170.716 244.938 170.932 244.782C171.16 244.614 171.34 244.398 171.472 244.134C171.616 243.858 171.688 243.516 171.688 243.108C171.688 242.688 171.628 242.34 171.508 242.064C171.388 241.788 171.226 241.572 171.022 241.416C170.818 241.248 170.584 241.134 170.32 241.074C170.056 241.014 169.774 240.984 169.474 240.984H166.144V245.232ZM176.44 239.148H182.578C183.994 239.148 185.056 239.454 185.764 240.066C186.472 240.678 186.826 241.53 186.826 242.622C186.826 243.234 186.736 243.744 186.556 244.152C186.376 244.548 186.166 244.872 185.926 245.124C185.686 245.364 185.446 245.538 185.206 245.646C184.978 245.754 184.81 245.826 184.702 245.862V245.898C184.894 245.922 185.098 245.982 185.314 246.078C185.542 246.174 185.752 246.33 185.944 246.546C186.136 246.75 186.292 247.02 186.412 247.356C186.544 247.692 186.61 248.112 186.61 248.616C186.61 249.372 186.664 250.062 186.772 250.686C186.892 251.298 187.072 251.736 187.312 252H184.9C184.732 251.724 184.63 251.418 184.594 251.082C184.57 250.746 184.558 250.422 184.558 250.11C184.558 249.522 184.522 249.018 184.45 248.598C184.378 248.166 184.246 247.812 184.054 247.536C183.862 247.248 183.598 247.038 183.262 246.906C182.938 246.774 182.518 246.708 182.002 246.708H178.69V252H176.44V239.148ZM178.69 244.998H182.38C183.1 244.998 183.646 244.83 184.018 244.494C184.39 244.146 184.576 243.63 184.576 242.946C184.576 242.538 184.516 242.208 184.396 241.956C184.276 241.692 184.108 241.488 183.892 241.344C183.688 241.2 183.448 241.104 183.172 241.056C182.908 241.008 182.632 240.984 182.344 240.984H178.69V244.998ZM195.126 240.678C194.442 240.678 193.848 240.816 193.344 241.092C192.852 241.368 192.45 241.74 192.138 242.208C191.826 242.664 191.592 243.186 191.436 243.774C191.292 244.362 191.22 244.962 191.22 245.574C191.22 246.186 191.292 246.786 191.436 247.374C191.592 247.962 191.826 248.49 192.138 248.958C192.45 249.414 192.852 249.78 193.344 250.056C193.848 250.332 194.442 250.47 195.126 250.47C195.81 250.47 196.398 250.332 196.89 250.056C197.394 249.78 197.802 249.414 198.114 248.958C198.426 248.49 198.654 247.962 198.798 247.374C198.954 246.786 199.032 246.186 199.032 245.574C199.032 244.962 198.954 244.362 198.798 243.774C198.654 243.186 198.426 242.664 198.114 242.208C197.802 241.74 197.394 241.368 196.89 241.092C196.398 240.816 195.81 240.678 195.126 240.678ZM195.126 238.842C196.086 238.842 196.944 239.022 197.7 239.382C198.468 239.742 199.116 240.228 199.644 240.84C200.172 241.452 200.574 242.166 200.85 242.982C201.138 243.798 201.282 244.662 201.282 245.574C201.282 246.498 201.138 247.368 200.85 248.184C200.574 249 200.172 249.714 199.644 250.326C199.116 250.938 198.468 251.424 197.7 251.784C196.944 252.132 196.086 252.306 195.126 252.306C194.166 252.306 193.302 252.132 192.534 251.784C191.778 251.424 191.136 250.938 190.608 250.326C190.08 249.714 189.672 249 189.384 248.184C189.108 247.368 188.97 246.498 188.97 245.574C188.97 244.662 189.108 243.798 189.384 242.982C189.672 242.166 190.08 241.452 190.608 240.84C191.136 240.228 191.778 239.742 192.534 239.382C193.302 239.022 194.166 238.842 195.126 238.842ZM203.869 239.148H209.539C210.451 239.148 211.195 239.28 211.771 239.544C212.347 239.808 212.791 240.138 213.103 240.534C213.415 240.93 213.625 241.362 213.733 241.83C213.853 242.298 213.913 242.73 213.913 243.126C213.913 243.522 213.853 243.954 213.733 244.422C213.625 244.878 213.415 245.304 213.103 245.7C212.791 246.096 212.347 246.426 211.771 246.69C211.195 246.942 210.451 247.068 209.539 247.068H206.119V252H203.869V239.148ZM206.119 245.232H209.413C209.665 245.232 209.923 245.196 210.187 245.124C210.451 245.052 210.691 244.938 210.907 244.782C211.135 244.614 211.315 244.398 211.447 244.134C211.591 243.858 211.663 243.516 211.663 243.108C211.663 242.688 211.603 242.34 211.483 242.064C211.363 241.788 211.201 241.572 210.997 241.416C210.793 241.248 210.559 241.134 210.295 241.074C210.031 241.014 209.749 240.984 209.449 240.984H206.119V245.232ZM216.415 239.148H225.667V241.092H218.665V244.458H225.145V246.294H218.665V250.056H225.793V252H216.415V239.148ZM228.293 239.148H234.431C235.847 239.148 236.909 239.454 237.617 240.066C238.325 240.678 238.679 241.53 238.679 242.622C238.679 243.234 238.589 243.744 238.409 244.152C238.229 244.548 238.019 244.872 237.779 245.124C237.539 245.364 237.299 245.538 237.059 245.646C236.831 245.754 236.663 245.826 236.555 245.862V245.898C236.747 245.922 236.951 245.982 237.167 246.078C237.395 246.174 237.605 246.33 237.797 246.546C237.989 246.75 238.145 247.02 238.265 247.356C238.397 247.692 238.463 248.112 238.463 248.616C238.463 249.372 238.517 250.062 238.625 250.686C238.745 251.298 238.925 251.736 239.165 252H236.753C236.585 251.724 236.483 251.418 236.447 251.082C236.423 250.746 236.411 250.422 236.411 250.11C236.411 249.522 236.375 249.018 236.303 248.598C236.231 248.166 236.099 247.812 235.907 247.536C235.715 247.248 235.451 247.038 235.115 246.906C234.791 246.774 234.371 246.708 233.855 246.708H230.543V252H228.293V239.148ZM230.543 244.998H234.233C234.953 244.998 235.499 244.83 235.871 244.494C236.243 244.146 236.429 243.63 236.429 242.946C236.429 242.538 236.369 242.208 236.249 241.956C236.129 241.692 235.961 241.488 235.745 241.344C235.541 241.2 235.301 241.104 235.025 241.056C234.761 241.008 234.485 240.984 234.197 240.984H230.543V244.998ZM239.967 239.148H250.371V241.092H246.285V252H244.035V241.092H239.967V239.148ZM252.401 239.148H254.651V252H252.401V239.148ZM257.95 239.148H267.202V241.092H260.2V244.458H266.68V246.294H260.2V250.056H267.328V252H257.95V239.148ZM271.304 247.716C271.304 248.208 271.388 248.628 271.556 248.976C271.724 249.324 271.958 249.612 272.258 249.84C272.558 250.056 272.9 250.218 273.284 250.326C273.68 250.422 274.106 250.47 274.562 250.47C275.054 250.47 275.474 250.416 275.822 250.308C276.17 250.188 276.452 250.038 276.668 249.858C276.884 249.678 277.04 249.474 277.136 249.246C277.232 249.006 277.28 248.766 277.28 248.526C277.28 248.034 277.166 247.674 276.938 247.446C276.722 247.206 276.482 247.038 276.218 246.942C275.762 246.774 275.228 246.618 274.616 246.474C274.016 246.318 273.272 246.12 272.384 245.88C271.832 245.736 271.37 245.55 270.998 245.322C270.638 245.082 270.35 244.818 270.134 244.53C269.918 244.242 269.762 243.936 269.666 243.612C269.582 243.288 269.54 242.958 269.54 242.622C269.54 241.974 269.672 241.416 269.936 240.948C270.212 240.468 270.572 240.072 271.016 239.76C271.46 239.448 271.964 239.22 272.528 239.076C273.092 238.92 273.662 238.842 274.238 238.842C274.91 238.842 275.54 238.932 276.128 239.112C276.728 239.28 277.25 239.538 277.694 239.886C278.15 240.234 278.51 240.666 278.774 241.182C279.038 241.686 279.17 242.274 279.17 242.946H276.92C276.86 242.118 276.578 241.536 276.074 241.2C275.57 240.852 274.928 240.678 274.148 240.678C273.884 240.678 273.614 240.708 273.338 240.768C273.062 240.816 272.81 240.906 272.582 241.038C272.354 241.158 272.162 241.326 272.006 241.542C271.862 241.758 271.79 242.028 271.79 242.352C271.79 242.808 271.928 243.168 272.204 243.432C272.492 243.684 272.864 243.876 273.32 244.008C273.368 244.02 273.554 244.074 273.878 244.17C274.214 244.254 274.586 244.35 274.994 244.458C275.402 244.566 275.798 244.674 276.182 244.782C276.578 244.878 276.86 244.95 277.028 244.998C277.448 245.13 277.814 245.31 278.126 245.538C278.438 245.766 278.696 246.03 278.9 246.33C279.116 246.618 279.272 246.93 279.368 247.266C279.476 247.602 279.53 247.938 279.53 248.274C279.53 248.994 279.38 249.612 279.08 250.128C278.792 250.632 278.408 251.046 277.928 251.37C277.448 251.694 276.902 251.928 276.29 252.072C275.678 252.228 275.054 252.306 274.418 252.306C273.686 252.306 272.996 252.216 272.348 252.036C271.7 251.856 271.136 251.58 270.656 251.208C270.176 250.836 269.792 250.362 269.504 249.786C269.216 249.198 269.066 248.508 269.054 247.716H271.304Z" fill="#2E2E2E"/>
<line x1="40" y1="266.5" x2="428" y2="266.5" stroke="#DDDDDD"/>
<line x1="40" y1="313.5" x2="428" y2="313.5" stroke="#DDDDDD"/>
<path d="M163 103H338V194" stroke="#61D3D1" stroke-width="2"/>
<path d="M212.5 135H388V194" stroke="#F1A381" stroke-width="2"/>
<path d="M204 295H338V194" stroke="#007299" stroke-width="2"/>
<path d="M290 337H388V194" stroke="#D91E18" stroke-width="2"/>
<circle cx="163" cy="103" r="3" fill="#61D3D1"/>
<circle cx="213" cy="135" r="3" fill="#F1A381"/>
<circle cx="204" cy="295" r="3" fill="#007299"/>
<circle cx="290" cy="337" r="3" fill="#D91E18"/>
</svg>
