<svg viewBox="0 0 861 439" fill="none" xmlns="http://www.w3.org/2000/svg">
  <rect width="861" height="439" fill="white" />
  <rect y="203" width="861" height="236" fill="#F2F2F2" />
  <path
    d="M51.8281 296.785H54.582L63.2773 310.73V296.785H65.4922V314H62.8789L54.0547 300.066V314H51.8281V296.785ZM70.5078 310.66C70.5078 311.27 70.7305 311.75 71.1758 312.102C71.6211 312.453 72.1484 312.629 72.7578 312.629C73.5 312.629 74.2188 312.457 74.9141 312.113C76.0859 311.543 76.6719 310.609 76.6719 309.312V307.613C76.4141 307.777 76.082 307.914 75.6758 308.023C75.2695 308.133 74.8711 308.211 74.4805 308.258L73.2031 308.422C72.4375 308.523 71.8633 308.684 71.4805 308.902C70.832 309.27 70.5078 309.855 70.5078 310.66ZM75.6172 306.395C76.1016 306.332 76.4258 306.129 76.5898 305.785C76.6836 305.598 76.7305 305.328 76.7305 304.977C76.7305 304.258 76.4727 303.738 75.957 303.418C75.4492 303.09 74.7188 302.926 73.7656 302.926C72.6641 302.926 71.8828 303.223 71.4219 303.816C71.1641 304.145 70.9961 304.633 70.918 305.281H68.9492C68.9883 303.734 69.4883 302.66 70.4492 302.059C71.418 301.449 72.5391 301.145 73.8125 301.145C75.2891 301.145 76.4883 301.426 77.4102 301.988C78.3242 302.551 78.7812 303.426 78.7812 304.613V311.844C78.7812 312.062 78.8242 312.238 78.9102 312.371C79.0039 312.504 79.1953 312.57 79.4844 312.57C79.5781 312.57 79.6836 312.566 79.8008 312.559C79.918 312.543 80.043 312.523 80.1758 312.5V314.059C79.8477 314.152 79.5977 314.211 79.4258 314.234C79.2539 314.258 79.0195 314.27 78.7227 314.27C77.9961 314.27 77.4688 314.012 77.1406 313.496C76.9688 313.223 76.8477 312.836 76.7773 312.336C76.3477 312.898 75.7305 313.387 74.9258 313.801C74.1211 314.215 73.2344 314.422 72.2656 314.422C71.1016 314.422 70.1484 314.07 69.4062 313.367C68.6719 312.656 68.3047 311.77 68.3047 310.707C68.3047 309.543 68.668 308.641 69.3945 308C70.1211 307.359 71.0742 306.965 72.2539 306.816L75.6172 306.395ZM82.25 301.449H84.3359V303.23C84.8359 302.613 85.2891 302.164 85.6953 301.883C86.3906 301.406 87.1797 301.168 88.0625 301.168C89.0625 301.168 89.8672 301.414 90.4766 301.906C90.8203 302.188 91.1328 302.602 91.4141 303.148C91.8828 302.477 92.4336 301.98 93.0664 301.66C93.6992 301.332 94.4102 301.168 95.1992 301.168C96.8867 301.168 98.0352 301.777 98.6445 302.996C98.9727 303.652 99.1367 304.535 99.1367 305.645V314H96.9453V305.281C96.9453 304.445 96.7344 303.871 96.3125 303.559C95.8984 303.246 95.3906 303.09 94.7891 303.09C93.9609 303.09 93.2461 303.367 92.6445 303.922C92.0508 304.477 91.7539 305.402 91.7539 306.699V314H89.6094V305.809C89.6094 304.957 89.5078 304.336 89.3047 303.945C88.9844 303.359 88.3867 303.066 87.5117 303.066C86.7148 303.066 85.9883 303.375 85.332 303.992C84.6836 304.609 84.3594 305.727 84.3594 307.344V314H82.25V301.449ZM107.469 301.168C108.359 301.168 109.223 301.379 110.059 301.801C110.895 302.215 111.531 302.754 111.969 303.418C112.391 304.051 112.672 304.789 112.812 305.633C112.938 306.211 113 307.133 113 308.398H103.801C103.84 309.672 104.141 310.695 104.703 311.469C105.266 312.234 106.137 312.617 107.316 312.617C108.418 312.617 109.297 312.254 109.953 311.527C110.328 311.105 110.594 310.617 110.75 310.062H112.824C112.77 310.523 112.586 311.039 112.273 311.609C111.969 312.172 111.625 312.633 111.242 312.992C110.602 313.617 109.809 314.039 108.863 314.258C108.355 314.383 107.781 314.445 107.141 314.445C105.578 314.445 104.254 313.879 103.168 312.746C102.082 311.605 101.539 310.012 101.539 307.965C101.539 305.949 102.086 304.312 103.18 303.055C104.273 301.797 105.703 301.168 107.469 301.168ZM110.832 306.723C110.746 305.809 110.547 305.078 110.234 304.531C109.656 303.516 108.691 303.008 107.34 303.008C106.371 303.008 105.559 303.359 104.902 304.062C104.246 304.758 103.898 305.645 103.859 306.723H110.832ZM116.715 301.613H119.164V304.168H116.715V301.613ZM116.715 311.445H119.164V314H116.715V311.445ZM59.832 346.672C60.9258 346.672 61.7891 346.453 62.4219 346.016C63.0625 345.578 63.3828 344.789 63.3828 343.648C63.3828 342.422 62.9375 341.586 62.0469 341.141C61.5703 340.906 60.9336 340.789 60.1367 340.789H54.4414V346.672H59.832ZM52.1094 338.785H60.0781C61.3906 338.785 62.4727 338.977 63.3242 339.359C64.9414 340.094 65.75 341.449 65.75 343.426C65.75 344.457 65.5352 345.301 65.1055 345.957C64.6836 346.613 64.0898 347.141 63.3242 347.539C63.9961 347.812 64.5 348.172 64.8359 348.617C65.1797 349.062 65.3711 349.785 65.4102 350.785L65.4922 353.094C65.5156 353.75 65.5703 354.238 65.6562 354.559C65.7969 355.105 66.0469 355.457 66.4062 355.613V356H63.5469C63.4688 355.852 63.4062 355.66 63.3594 355.426C63.3125 355.191 63.2734 354.738 63.2422 354.066L63.1016 351.195C63.0469 350.07 62.6289 349.316 61.8477 348.934C61.4023 348.723 60.7031 348.617 59.75 348.617H54.4414V356H52.1094V338.785ZM73.8711 354.641C75.2695 354.641 76.2266 354.113 76.7422 353.059C77.2656 351.996 77.5273 350.816 77.5273 349.52C77.5273 348.348 77.3398 347.395 76.9648 346.66C76.3711 345.504 75.3477 344.926 73.8945 344.926C72.6055 344.926 71.668 345.418 71.082 346.402C70.4961 347.387 70.2031 348.574 70.2031 349.965C70.2031 351.301 70.4961 352.414 71.082 353.305C71.668 354.195 72.5977 354.641 73.8711 354.641ZM73.9531 343.086C75.5703 343.086 76.9375 343.625 78.0547 344.703C79.1719 345.781 79.7305 347.367 79.7305 349.461C79.7305 351.484 79.2383 353.156 78.2539 354.477C77.2695 355.797 75.7422 356.457 73.6719 356.457C71.9453 356.457 70.5742 355.875 69.5586 354.711C68.543 353.539 68.0352 351.969 68.0352 350C68.0352 347.891 68.5703 346.211 69.6406 344.961C70.7109 343.711 72.1484 343.086 73.9531 343.086ZM82.3086 338.785H84.418V356H82.3086V338.785ZM92.8203 343.168C93.7109 343.168 94.5742 343.379 95.4102 343.801C96.2461 344.215 96.8828 344.754 97.3203 345.418C97.7422 346.051 98.0234 346.789 98.1641 347.633C98.2891 348.211 98.3516 349.133 98.3516 350.398H89.1523C89.1914 351.672 89.4922 352.695 90.0547 353.469C90.6172 354.234 91.4883 354.617 92.668 354.617C93.7695 354.617 94.6484 354.254 95.3047 353.527C95.6797 353.105 95.9453 352.617 96.1016 352.062H98.1758C98.1211 352.523 97.9375 353.039 97.625 353.609C97.3203 354.172 96.9766 354.633 96.5938 354.992C95.9531 355.617 95.1602 356.039 94.2148 356.258C93.707 356.383 93.1328 356.445 92.4922 356.445C90.9297 356.445 89.6055 355.879 88.5195 354.746C87.4336 353.605 86.8906 352.012 86.8906 349.965C86.8906 347.949 87.4375 346.312 88.5312 345.055C89.625 343.797 91.0547 343.168 92.8203 343.168ZM96.1836 348.723C96.0977 347.809 95.8984 347.078 95.5859 346.531C95.0078 345.516 94.043 345.008 92.6914 345.008C91.7227 345.008 90.9102 345.359 90.2539 346.062C89.5977 346.758 89.25 347.645 89.2109 348.723H96.1836ZM102.066 343.613H104.516V346.168H102.066V343.613ZM102.066 353.445H104.516V356H102.066V353.445ZM53.1875 380.785L58.1328 395.445L63.0195 380.785H65.6328L59.3516 398H56.8789L50.6094 380.785H53.1875ZM67.3906 394.66C67.3906 395.27 67.6133 395.75 68.0586 396.102C68.5039 396.453 69.0312 396.629 69.6406 396.629C70.3828 396.629 71.1016 396.457 71.7969 396.113C72.9688 395.543 73.5547 394.609 73.5547 393.312V391.613C73.2969 391.777 72.9648 391.914 72.5586 392.023C72.1523 392.133 71.7539 392.211 71.3633 392.258L70.0859 392.422C69.3203 392.523 68.7461 392.684 68.3633 392.902C67.7148 393.27 67.3906 393.855 67.3906 394.66ZM72.5 390.395C72.9844 390.332 73.3086 390.129 73.4727 389.785C73.5664 389.598 73.6133 389.328 73.6133 388.977C73.6133 388.258 73.3555 387.738 72.8398 387.418C72.332 387.09 71.6016 386.926 70.6484 386.926C69.5469 386.926 68.7656 387.223 68.3047 387.816C68.0469 388.145 67.8789 388.633 67.8008 389.281H65.832C65.8711 387.734 66.3711 386.66 67.332 386.059C68.3008 385.449 69.4219 385.145 70.6953 385.145C72.1719 385.145 73.3711 385.426 74.293 385.988C75.207 386.551 75.6641 387.426 75.6641 388.613V395.844C75.6641 396.062 75.707 396.238 75.793 396.371C75.8867 396.504 76.0781 396.57 76.3672 396.57C76.4609 396.57 76.5664 396.566 76.6836 396.559C76.8008 396.543 76.9258 396.523 77.0586 396.5V398.059C76.7305 398.152 76.4805 398.211 76.3086 398.234C76.1367 398.258 75.9023 398.27 75.6055 398.27C74.8789 398.27 74.3516 398.012 74.0234 397.496C73.8516 397.223 73.7305 396.836 73.6602 396.336C73.2305 396.898 72.6133 397.387 71.8086 397.801C71.0039 398.215 70.1172 398.422 69.1484 398.422C67.9844 398.422 67.0312 398.07 66.2891 397.367C65.5547 396.656 65.1875 395.77 65.1875 394.707C65.1875 393.543 65.5508 392.641 66.2773 392C67.0039 391.359 67.957 390.965 69.1367 390.816L72.5 390.395ZM79.1914 380.785H81.3008V398H79.1914V380.785ZM86.5859 385.449V393.781C86.5859 394.422 86.6875 394.945 86.8906 395.352C87.2656 396.102 87.9648 396.477 88.9883 396.477C90.457 396.477 91.457 395.82 91.9883 394.508C92.2773 393.805 92.4219 392.84 92.4219 391.613V385.449H94.5312V398H92.5391L92.5625 396.148C92.2891 396.625 91.9492 397.027 91.543 397.355C90.7383 398.012 89.7617 398.34 88.6133 398.34C86.8242 398.34 85.6055 397.742 84.957 396.547C84.6055 395.906 84.4297 395.051 84.4297 393.98V385.449H86.5859ZM103.062 385.168C103.953 385.168 104.816 385.379 105.652 385.801C106.488 386.215 107.125 386.754 107.562 387.418C107.984 388.051 108.266 388.789 108.406 389.633C108.531 390.211 108.594 391.133 108.594 392.398H99.3945C99.4336 393.672 99.7344 394.695 100.297 395.469C100.859 396.234 101.73 396.617 102.91 396.617C104.012 396.617 104.891 396.254 105.547 395.527C105.922 395.105 106.188 394.617 106.344 394.062H108.418C108.363 394.523 108.18 395.039 107.867 395.609C107.562 396.172 107.219 396.633 106.836 396.992C106.195 397.617 105.402 398.039 104.457 398.258C103.949 398.383 103.375 398.445 102.734 398.445C101.172 398.445 99.8477 397.879 98.7617 396.746C97.6758 395.605 97.1328 394.012 97.1328 391.965C97.1328 389.949 97.6797 388.312 98.7734 387.055C99.8672 385.797 101.297 385.168 103.062 385.168ZM106.426 390.723C106.34 389.809 106.141 389.078 105.828 388.531C105.25 387.516 104.285 387.008 102.934 387.008C101.965 387.008 101.152 387.359 100.496 388.062C99.8398 388.758 99.4922 389.645 99.4531 390.723H106.426ZM112.309 385.613H114.758V388.168H112.309V385.613ZM112.309 395.445H114.758V398H112.309V395.445Z"
    fill="#4A4A4A" />
  <path
    d="M146.176 302.576H148.096L148.504 296.264H145.792L146.176 302.576ZM150.304 302.576H152.224L152.608 296.264H149.896L150.304 302.576ZM170.695 297.464H168.535L166.759 311.552L164.959 299.384H162.271L160.375 311.552L158.815 297.464H156.487L158.695 314H161.719L163.543 301.616L165.343 314H168.295L170.695 297.464ZM175.365 296.024L173.061 296.288V314H175.365V304.856C176.037 303.872 177.237 302.84 178.581 302.84C179.973 302.84 180.621 303.488 180.621 305V314H182.925V304.808C182.925 302.432 181.797 301.04 179.373 301.04C177.885 301.04 176.397 301.712 175.365 303.008V296.024ZM196.788 311.096V305.192C196.788 302.624 195.18 301.04 191.916 301.04C190.668 301.04 189.228 301.304 187.644 301.88L188.244 303.56C189.54 303.104 190.74 302.912 191.58 302.912C193.404 302.912 194.484 303.584 194.484 305.336V306.272H192.66C188.82 306.272 186.684 307.76 186.684 310.376C186.684 312.728 188.244 314.288 190.812 314.288C192.444 314.288 193.884 313.688 194.796 312.512C195.204 313.64 196.092 314.144 197.244 314.288L197.796 312.704C197.1 312.488 196.788 312.104 196.788 311.096ZM191.436 312.584C189.9 312.584 189.132 311.792 189.132 310.328C189.132 308.744 190.14 307.784 192.804 307.784H194.484V310.856C193.788 311.936 192.636 312.584 191.436 312.584ZM212.139 313.352L211.275 311.792C210.603 312.152 209.811 312.392 208.875 312.392C207.219 312.392 206.547 311.696 206.547 310.304V303.08H210.603L210.891 301.352H206.547V298.232L204.243 298.496V301.352H201.387V303.08H204.243V310.328C204.243 312.68 205.779 314.288 208.611 314.288C209.883 314.288 211.227 313.928 212.139 313.352ZM235.544 295.304C234.608 295.304 233.96 295.976 233.96 296.84C233.96 297.728 234.608 298.376 235.544 298.376C236.504 298.376 237.152 297.728 237.152 296.84C237.152 295.976 236.504 295.304 235.544 295.304ZM237.248 301.352H231.224V303.104H234.944V312.248H231.104V314H240.776V312.248H237.248V301.352ZM249.454 312.464C247.966 312.464 246.646 311.912 245.662 311.096L244.414 312.56C245.518 313.52 247.15 314.288 249.454 314.288C252.238 314.288 254.902 313.184 254.902 310.448C254.902 308.072 253.27 307.208 250.798 306.536C248.254 305.84 247.51 305.456 247.51 304.4C247.51 303.488 248.206 302.864 250.102 302.864C251.662 302.864 252.766 303.344 253.726 303.992L254.734 302.48C253.63 301.664 252.118 301.04 250.03 301.04C247.078 301.04 245.134 302.432 245.134 304.592C245.134 306.8 246.814 307.616 249.382 308.264C252.046 308.936 252.43 309.488 252.43 310.592C252.43 311.744 251.302 312.464 249.454 312.464ZM284.572 301.352H282.196L278.764 312.32L275.308 301.352H272.86L277.204 314H277.996C277.324 315.896 276.532 316.904 273.964 317.336L274.276 319.136C277.708 318.8 279.244 316.784 280.156 314.072L284.572 301.352ZM293.13 301.04C289.506 301.04 287.538 303.752 287.538 307.688C287.538 311.72 289.482 314.288 293.106 314.288C296.706 314.288 298.674 311.6 298.674 307.664C298.674 303.656 296.754 301.04 293.13 301.04ZM293.13 302.888C295.194 302.888 296.226 304.4 296.226 307.664C296.226 310.952 295.194 312.464 293.106 312.464C291.018 312.464 289.986 310.952 289.986 307.688C289.986 304.4 291.042 302.888 293.13 302.888ZM304.881 301.352H302.577V310.544C302.577 312.896 303.777 314.288 306.225 314.288C307.713 314.288 309.273 313.592 310.257 312.32L310.425 314H312.417V301.352H310.113V310.592C309.441 311.624 308.169 312.512 306.873 312.512C305.529 312.512 304.881 311.84 304.881 310.256V301.352ZM325.704 301.064C323.472 301.064 322.152 302.216 321.192 304.304L320.784 301.352H317.088V303.056H319.032V312.296H317.088V314H323.904V312.296H321.336V307.232C322.128 304.544 323.496 303.152 325.392 303.152H325.416V305.792H327.192L327.552 301.352C326.976 301.184 326.424 301.064 325.704 301.064ZM353.333 295.976C350.573 295.976 348.605 297.512 348.605 299.888V302.288H345.653V304.064H348.605V314H350.909V304.064H354.917L355.181 302.288H350.909V299.864C350.909 298.496 351.773 297.824 353.477 297.824C354.437 297.824 355.373 297.992 356.189 298.352L356.909 296.696C355.901 296.264 354.773 295.976 353.333 295.976ZM369.475 311.096V305.192C369.475 302.624 367.867 301.04 364.603 301.04C363.355 301.04 361.915 301.304 360.331 301.88L360.931 303.56C362.227 303.104 363.427 302.912 364.267 302.912C366.091 302.912 367.171 303.584 367.171 305.336V306.272H365.347C361.507 306.272 359.371 307.76 359.371 310.376C359.371 312.728 360.931 314.288 363.499 314.288C365.131 314.288 366.571 313.688 367.483 312.512C367.891 313.64 368.779 314.144 369.931 314.288L370.483 312.704C369.787 312.488 369.475 312.104 369.475 311.096ZM364.123 312.584C362.587 312.584 361.819 311.792 361.819 310.328C361.819 308.744 362.827 307.784 365.491 307.784H367.171V310.856C366.475 311.936 365.323 312.584 364.123 312.584ZM385.33 301.352H382.954L379.498 312.008L376.042 301.352H373.57L378.106 314H380.77L385.33 301.352ZM393.865 301.04C390.241 301.04 388.273 303.752 388.273 307.688C388.273 311.72 390.217 314.288 393.841 314.288C397.441 314.288 399.409 311.6 399.409 307.664C399.409 303.656 397.489 301.04 393.865 301.04ZM393.865 302.888C395.929 302.888 396.961 304.4 396.961 307.664C396.961 310.952 395.929 312.464 393.841 312.464C391.753 312.464 390.721 310.952 390.721 307.688C390.721 304.4 391.777 302.888 393.865 302.888ZM412.047 301.064C409.815 301.064 408.495 302.216 407.535 304.304L407.127 301.352H403.431V303.056H405.375V312.296H403.431V314H410.247V312.296H407.679V307.232C408.471 304.544 409.839 303.152 411.735 303.152H411.759V305.792H413.535L413.895 301.352C413.319 301.184 412.767 301.064 412.047 301.064ZM422.622 295.304C421.686 295.304 421.038 295.976 421.038 296.84C421.038 297.728 421.686 298.376 422.622 298.376C423.582 298.376 424.23 297.728 424.23 296.84C424.23 295.976 423.582 295.304 422.622 295.304ZM424.326 301.352H418.302V303.104H422.022V312.248H418.182V314H427.854V312.248H424.326V301.352ZM442.389 313.352L441.525 311.792C440.853 312.152 440.061 312.392 439.125 312.392C437.469 312.392 436.797 311.696 436.797 310.304V303.08H440.853L441.141 301.352H436.797V298.232L434.493 298.496V301.352H431.637V303.08H434.493V310.328C434.493 312.68 436.029 314.288 438.861 314.288C440.133 314.288 441.477 313.928 442.389 313.352ZM448.355 308.456H456.827C456.851 308.168 456.875 307.736 456.875 307.304C456.875 303.44 454.859 301.04 451.595 301.04C448.115 301.04 445.955 303.872 445.955 307.688C445.955 311.624 448.091 314.288 451.883 314.288C453.539 314.288 455.171 313.712 456.347 312.776L455.315 311.312C454.211 312.056 453.203 312.44 451.955 312.44C450.059 312.44 448.499 311.24 448.355 308.456ZM451.619 302.84C453.467 302.84 454.595 304.208 454.643 306.776H448.355C448.523 304.112 449.819 302.84 451.619 302.84ZM477.688 295.976L475.384 296.264V314H477.688V295.976ZM486.112 301.352H483.28L477.904 307.088L483.784 314H486.712L480.664 307.04L486.112 301.352ZM494.575 295.304C493.639 295.304 492.991 295.976 492.991 296.84C492.991 297.728 493.639 298.376 494.575 298.376C495.535 298.376 496.183 297.728 496.183 296.84C496.183 295.976 495.535 295.304 494.575 295.304ZM496.279 301.352H490.255V303.104H493.975V312.248H490.135V314H499.807V312.248H496.279V301.352ZM504.046 314H506.35V304.856C507.022 303.872 508.198 302.84 509.59 302.84C511.342 302.84 511.606 303.8 511.606 306.224V314H513.91V304.808C513.91 302.432 512.782 301.04 510.358 301.04C508.846 301.04 507.238 301.76 506.206 303.056L506.038 301.352H504.046V314ZM525.972 295.976V302.504C525.132 301.544 524.052 301.04 522.66 301.04C519.54 301.04 517.668 303.848 517.668 307.688C517.668 311.624 519.18 314.288 522.468 314.288C523.908 314.288 525.156 313.664 526.044 312.392L526.236 314H528.276V296.264L525.972 295.976ZM523.26 302.864C524.364 302.864 525.3 303.44 525.972 304.4V310.568C525.3 311.6 524.364 312.488 523.02 312.488C521.172 312.488 520.14 310.952 520.14 307.688C520.14 304.424 521.292 302.864 523.26 302.864ZM552.162 301.04C548.538 301.04 546.57 303.752 546.57 307.688C546.57 311.72 548.514 314.288 552.138 314.288C555.738 314.288 557.706 311.6 557.706 307.664C557.706 303.656 555.786 301.04 552.162 301.04ZM552.162 302.888C554.226 302.888 555.258 304.4 555.258 307.664C555.258 310.952 554.226 312.464 552.138 312.464C550.05 312.464 549.018 310.952 549.018 307.688C549.018 304.4 550.074 302.888 552.162 302.888ZM569.192 295.976C566.432 295.976 564.464 297.512 564.464 299.888V302.288H561.512V304.064H564.464V314H566.768V304.064H570.776L571.04 302.288H566.768V299.864C566.768 298.496 567.632 297.824 569.336 297.824C570.296 297.824 571.232 297.992 572.048 298.352L572.768 296.696C571.76 296.264 570.632 295.976 569.192 295.976ZM594.829 312.464C593.341 312.464 592.021 311.912 591.037 311.096L589.789 312.56C590.893 313.52 592.525 314.288 594.829 314.288C597.613 314.288 600.277 313.184 600.277 310.448C600.277 308.072 598.645 307.208 596.173 306.536C593.629 305.84 592.885 305.456 592.885 304.4C592.885 303.488 593.581 302.864 595.477 302.864C597.037 302.864 598.141 303.344 599.101 303.992L600.109 302.48C599.005 301.664 597.493 301.04 595.405 301.04C592.453 301.04 590.509 302.432 590.509 304.592C590.509 306.8 592.189 307.616 594.757 308.264C597.421 308.936 597.805 309.488 597.805 310.592C597.805 311.744 596.677 312.464 594.829 312.464ZM609.724 301.04C606.1 301.04 604.132 303.752 604.132 307.688C604.132 311.72 606.076 314.288 609.7 314.288C613.3 314.288 615.268 311.6 615.268 307.664C615.268 303.656 613.348 301.04 609.724 301.04ZM609.724 302.888C611.788 302.888 612.82 304.4 612.82 307.664C612.82 310.952 611.788 312.464 609.7 312.464C607.612 312.464 606.58 310.952 606.58 307.688C606.58 304.4 607.636 302.888 609.724 302.888ZM621.475 301.352H619.171V310.544C619.171 312.896 620.371 314.288 622.819 314.288C624.307 314.288 625.867 313.592 626.851 312.32L627.019 314H629.011V301.352H626.707V310.592C626.035 311.624 624.763 312.512 623.467 312.512C622.123 312.512 621.475 311.84 621.475 310.256V301.352ZM639.465 301.04C637.977 301.04 636.657 301.76 635.721 303.056L635.553 301.352H633.561V319.136L635.865 318.848V312.872C636.705 313.808 637.809 314.288 639.177 314.288C642.417 314.288 644.049 311.504 644.049 307.664C644.049 303.656 642.801 301.04 639.465 301.04ZM638.865 302.864C640.713 302.864 641.601 304.376 641.601 307.664C641.601 310.952 640.569 312.44 638.601 312.44C637.473 312.44 636.513 311.864 635.865 310.928V304.808C636.537 303.8 637.545 302.864 638.865 302.864ZM652.848 297.152C650.832 297.152 649.08 297.944 647.688 299.576L649.272 300.776C650.256 299.576 651.504 299.048 652.608 299.048C654.144 299.048 655.296 299.792 655.296 301.088C655.296 303.68 651.096 303.632 651.096 307.544V308.432H653.352V307.664C653.352 304.28 657.72 304.76 657.72 300.92C657.72 299 655.896 297.152 652.848 297.152ZM652.296 310.904C651.336 310.904 650.592 311.648 650.592 312.584C650.592 313.544 651.336 314.288 652.296 314.288C653.256 314.288 654 313.544 654 312.584C654 311.648 653.256 310.904 652.296 310.904ZM664.239 302.576H666.159L666.567 296.264H663.855L664.239 302.576ZM668.367 302.576H670.287L670.671 296.264H667.959L668.367 302.576ZM146.152 350.456H154.624C154.648 350.168 154.672 349.736 154.672 349.304C154.672 345.44 152.656 343.04 149.392 343.04C145.912 343.04 143.752 345.872 143.752 349.688C143.752 353.624 145.888 356.288 149.68 356.288C151.336 356.288 152.968 355.712 154.144 354.776L153.112 353.312C152.008 354.056 151 354.44 149.752 354.44C147.856 354.44 146.296 353.24 146.152 350.456ZM149.416 344.84C151.264 344.84 152.392 346.208 152.44 348.776H146.152C146.32 346.112 147.616 344.84 149.416 344.84ZM158.671 356H160.975V346.856C161.647 345.872 162.823 344.84 164.215 344.84C165.967 344.84 166.231 345.8 166.231 348.224V356H168.535V346.808C168.535 344.432 167.407 343.04 164.983 343.04C163.471 343.04 161.863 343.76 160.831 345.056L160.663 343.352H158.671V356ZM183.357 355.352L182.493 353.792C181.821 354.152 181.029 354.392 180.093 354.392C178.437 354.392 177.765 353.696 177.765 352.304V345.08H181.821L182.109 343.352H177.765V340.232L175.461 340.496V343.352H172.605V345.08H175.461V352.328C175.461 354.68 176.997 356.288 179.829 356.288C181.101 356.288 182.445 355.928 183.357 355.352ZM196.188 343.064C193.956 343.064 192.636 344.216 191.676 346.304L191.268 343.352H187.572V345.056H189.516V354.296H187.572V356H194.388V354.296H191.82V349.232C192.612 346.544 193.98 345.152 195.876 345.152H195.9V347.792H197.676L198.036 343.352C197.46 343.184 196.908 343.064 196.188 343.064ZM212.619 343.352H210.243L206.811 354.32L203.355 343.352H200.907L205.251 356H206.043C205.371 357.896 204.579 358.904 202.011 359.336L202.323 361.136C205.755 360.8 207.291 358.784 208.203 356.072L212.619 343.352ZM146.176 386.576H148.096L148.504 380.264H145.792L146.176 386.576ZM150.304 386.576H152.224L152.608 380.264H149.896L150.304 386.576ZM166.255 379.976C163.495 379.976 161.527 381.512 161.527 383.888V386.288H158.575V388.064H161.527V398H163.831V388.064H167.839L168.103 386.288H163.831V383.864C163.831 382.496 164.695 381.824 166.399 381.824C167.359 381.824 168.295 381.992 169.111 382.352L169.831 380.696C168.823 380.264 167.695 379.976 166.255 379.976ZM181.797 385.064C179.565 385.064 178.245 386.216 177.285 388.304L176.877 385.352H173.181V387.056H175.125V396.296H173.181V398H179.997V396.296H177.429V391.232C178.221 388.544 179.589 387.152 181.485 387.152H181.509V389.792H183.285L183.645 385.352C183.069 385.184 182.517 385.064 181.797 385.064ZM189.324 392.456H197.796C197.82 392.168 197.844 391.736 197.844 391.304C197.844 387.44 195.828 385.04 192.564 385.04C189.084 385.04 186.924 387.872 186.924 391.688C186.924 395.624 189.06 398.288 192.852 398.288C194.508 398.288 196.14 397.712 197.316 396.776L196.284 395.312C195.18 396.056 194.172 396.44 192.924 396.44C191.028 396.44 189.468 395.24 189.324 392.456ZM192.588 386.84C194.436 386.84 195.564 388.208 195.612 390.776H189.324C189.492 388.112 190.788 386.84 192.588 386.84ZM201.843 398H204.147V388.856C204.819 387.872 205.995 386.84 207.387 386.84C209.139 386.84 209.403 387.8 209.403 390.224V398H211.707V388.808C211.707 386.432 210.579 385.04 208.155 385.04C206.643 385.04 205.035 385.76 204.003 387.056L203.835 385.352H201.843V398ZM222.137 396.344C220.049 396.344 218.537 395.024 218.537 391.736C218.537 388.472 220.025 386.936 222.137 386.936C223.241 386.936 224.273 387.32 225.329 388.04L226.409 386.552C225.209 385.568 223.793 385.04 222.113 385.04C218.297 385.04 216.065 387.92 216.065 391.736C216.065 395.696 218.249 398.288 222.089 398.288C223.649 398.288 225.329 397.688 226.433 396.752L225.353 395.264C224.417 395.888 223.361 396.344 222.137 396.344ZM232.928 380.024L230.624 380.288V398H232.928V388.856C233.6 387.872 234.8 386.84 236.144 386.84C237.536 386.84 238.184 387.488 238.184 389V398H240.488V388.808C240.488 386.432 239.36 385.04 236.936 385.04C235.448 385.04 233.96 385.712 232.928 387.008V380.024ZM264.349 385.04C260.725 385.04 258.757 387.752 258.757 391.688C258.757 395.72 260.701 398.288 264.325 398.288C267.925 398.288 269.893 395.6 269.893 391.664C269.893 387.656 267.973 385.04 264.349 385.04ZM264.349 386.888C266.413 386.888 267.445 388.4 267.445 391.664C267.445 394.952 266.413 396.464 264.325 396.464C262.237 396.464 261.205 394.952 261.205 391.688C261.205 388.4 262.261 386.888 264.349 386.888ZM273.796 398H276.1V388.856C276.772 387.872 277.948 386.84 279.34 386.84C281.092 386.84 281.356 387.8 281.356 390.224V398H283.66V388.808C283.66 386.432 282.532 385.04 280.108 385.04C278.596 385.04 276.988 385.76 275.956 387.056L275.788 385.352H273.796V398ZM293.106 379.304C292.17 379.304 291.522 379.976 291.522 380.84C291.522 381.728 292.17 382.376 293.106 382.376C294.066 382.376 294.714 381.728 294.714 380.84C294.714 379.976 294.066 379.304 293.106 379.304ZM294.81 385.352H288.786V387.104H292.506V396.248H288.666V398H298.338V396.248H294.81V385.352ZM307.521 385.04C303.897 385.04 301.929 387.752 301.929 391.688C301.929 395.72 303.873 398.288 307.497 398.288C311.097 398.288 313.065 395.6 313.065 391.664C313.065 387.656 311.145 385.04 307.521 385.04ZM307.521 386.888C309.585 386.888 310.617 388.4 310.617 391.664C310.617 394.952 309.585 396.464 307.497 396.464C305.409 396.464 304.377 394.952 304.377 391.688C304.377 388.4 305.433 386.888 307.521 386.888ZM316.968 398H319.272V388.856C319.944 387.872 321.12 386.84 322.512 386.84C324.264 386.84 324.528 387.8 324.528 390.224V398H326.832V388.808C326.832 386.432 325.704 385.04 323.28 385.04C321.768 385.04 320.16 385.76 319.128 387.056L318.96 385.352H316.968V398ZM333.254 386.576H335.174L335.582 380.264H332.87L333.254 386.576ZM337.382 386.576H339.302L339.686 380.264H336.974L337.382 386.576Z"
    fill="#4A4A4A" />
  <path
    d="M60.044 252.234C59.948 251.862 59.816 251.52 59.648 251.208C59.48 250.896 59.264 250.626 59 250.398C58.736 250.17 58.424 249.996 58.064 249.876C57.716 249.744 57.308 249.678 56.84 249.678C56.156 249.678 55.562 249.816 55.058 250.092C54.566 250.368 54.164 250.74 53.852 251.208C53.54 251.664 53.306 252.186 53.15 252.774C53.006 253.362 52.934 253.962 52.934 254.574C52.934 255.186 53.006 255.786 53.15 256.374C53.306 256.962 53.54 257.49 53.852 257.958C54.164 258.414 54.566 258.78 55.058 259.056C55.562 259.332 56.156 259.47 56.84 259.47C57.344 259.47 57.788 259.386 58.172 259.218C58.556 259.038 58.886 258.798 59.162 258.498C59.438 258.186 59.654 257.826 59.81 257.418C59.966 257.01 60.068 256.572 60.116 256.104H62.312C62.264 256.872 62.096 257.574 61.808 258.21C61.532 258.846 61.154 259.398 60.674 259.866C60.194 260.322 59.63 260.676 58.982 260.928C58.334 261.18 57.62 261.306 56.84 261.306C55.88 261.306 55.016 261.132 54.248 260.784C53.492 260.424 52.85 259.938 52.322 259.326C51.794 258.714 51.386 258 51.098 257.184C50.822 256.368 50.684 255.498 50.684 254.574C50.684 253.662 50.822 252.798 51.098 251.982C51.386 251.166 51.794 250.452 52.322 249.84C52.85 249.228 53.492 248.742 54.248 248.382C55.016 248.022 55.88 247.842 56.84 247.842C57.56 247.842 58.238 247.944 58.874 248.148C59.51 248.34 60.068 248.628 60.548 249.012C61.04 249.384 61.436 249.84 61.736 250.38C62.036 250.92 62.222 251.538 62.294 252.234H60.044ZM70.3702 249.678C69.6862 249.678 69.0922 249.816 68.5882 250.092C68.0962 250.368 67.6942 250.74 67.3822 251.208C67.0702 251.664 66.8362 252.186 66.6802 252.774C66.5362 253.362 66.4642 253.962 66.4642 254.574C66.4642 255.186 66.5362 255.786 66.6802 256.374C66.8362 256.962 67.0702 257.49 67.3822 257.958C67.6942 258.414 68.0962 258.78 68.5882 259.056C69.0922 259.332 69.6862 259.47 70.3702 259.47C71.0542 259.47 71.6422 259.332 72.1342 259.056C72.6382 258.78 73.0462 258.414 73.3582 257.958C73.6702 257.49 73.8982 256.962 74.0422 256.374C74.1982 255.786 74.2762 255.186 74.2762 254.574C74.2762 253.962 74.1982 253.362 74.0422 252.774C73.8982 252.186 73.6702 251.664 73.3582 251.208C73.0462 250.74 72.6382 250.368 72.1342 250.092C71.6422 249.816 71.0542 249.678 70.3702 249.678ZM70.3702 247.842C71.3302 247.842 72.1882 248.022 72.9442 248.382C73.7122 248.742 74.3602 249.228 74.8882 249.84C75.4162 250.452 75.8182 251.166 76.0942 251.982C76.3822 252.798 76.5262 253.662 76.5262 254.574C76.5262 255.498 76.3822 256.368 76.0942 257.184C75.8182 258 75.4162 258.714 74.8882 259.326C74.3602 259.938 73.7122 260.424 72.9442 260.784C72.1882 261.132 71.3302 261.306 70.3702 261.306C69.4102 261.306 68.5462 261.132 67.7782 260.784C67.0222 260.424 66.3802 259.938 65.8522 259.326C65.3242 258.714 64.9162 258 64.6282 257.184C64.3522 256.368 64.2142 255.498 64.2142 254.574C64.2142 253.662 64.3522 252.798 64.6282 251.982C64.9162 251.166 65.3242 250.452 65.8522 249.84C66.3802 249.228 67.0222 248.742 67.7782 248.382C68.5462 248.022 69.4102 247.842 70.3702 247.842ZM79.078 248.148H82.246L85.792 258.21H85.828L89.284 248.148H92.416V261H90.274V251.082H90.238L86.674 261H84.82L81.256 251.082H81.22V261H79.078V248.148ZM95.6501 248.148H101.32C102.232 248.148 102.976 248.28 103.552 248.544C104.128 248.808 104.572 249.138 104.884 249.534C105.196 249.93 105.406 250.362 105.514 250.83C105.634 251.298 105.694 251.73 105.694 252.126C105.694 252.522 105.634 252.954 105.514 253.422C105.406 253.878 105.196 254.304 104.884 254.7C104.572 255.096 104.128 255.426 103.552 255.69C102.976 255.942 102.232 256.068 101.32 256.068H97.9001V261H95.6501V248.148ZM97.9001 254.232H101.194C101.446 254.232 101.704 254.196 101.968 254.124C102.232 254.052 102.472 253.938 102.688 253.782C102.916 253.614 103.096 253.398 103.228 253.134C103.372 252.858 103.444 252.516 103.444 252.108C103.444 251.688 103.384 251.34 103.264 251.064C103.144 250.788 102.982 250.572 102.778 250.416C102.574 250.248 102.34 250.134 102.076 250.074C101.812 250.014 101.53 249.984 101.23 249.984H97.9001V254.232ZM108.052 248.148H110.302V255.636C110.302 256.068 110.32 256.506 110.356 256.95C110.404 257.394 110.524 257.796 110.716 258.156C110.92 258.504 111.22 258.792 111.616 259.02C112.024 259.248 112.594 259.362 113.326 259.362C114.058 259.362 114.622 259.248 115.018 259.02C115.426 258.792 115.726 258.504 115.918 258.156C116.122 257.796 116.242 257.394 116.278 256.95C116.326 256.506 116.35 256.068 116.35 255.636V248.148H118.6V256.374C118.6 257.202 118.474 257.922 118.222 258.534C117.97 259.146 117.61 259.662 117.142 260.082C116.686 260.49 116.134 260.796 115.486 261C114.838 261.204 114.118 261.306 113.326 261.306C112.534 261.306 111.814 261.204 111.166 261C110.518 260.796 109.96 260.49 109.492 260.082C109.036 259.662 108.682 259.146 108.43 258.534C108.178 257.922 108.052 257.202 108.052 256.374V248.148ZM120.502 248.148H130.906V250.092H126.82V261H124.57V250.092H120.502V248.148ZM132.936 248.148H142.188V250.092H135.186V253.458H141.666V255.294H135.186V259.056H142.314V261H132.936V248.148ZM144.814 248.148H150.142C151.126 248.148 151.978 248.316 152.698 248.652C153.418 248.988 154.006 249.45 154.462 250.038C154.918 250.614 155.254 251.292 155.47 252.072C155.698 252.852 155.812 253.686 155.812 254.574C155.812 255.462 155.698 256.296 155.47 257.076C155.254 257.856 154.918 258.54 154.462 259.128C154.006 259.704 153.418 260.16 152.698 260.496C151.978 260.832 151.126 261 150.142 261H144.814V248.148ZM147.064 259.164H149.278C150.154 259.164 150.868 259.05 151.42 258.822C151.984 258.582 152.422 258.258 152.734 257.85C153.058 257.43 153.274 256.944 153.382 256.392C153.502 255.828 153.562 255.222 153.562 254.574C153.562 253.926 153.502 253.326 153.382 252.774C153.274 252.21 153.058 251.724 152.734 251.316C152.422 250.896 151.984 250.572 151.42 250.344C150.868 250.104 150.154 249.984 149.278 249.984H147.064V259.164ZM163.894 248.148H169.564C170.476 248.148 171.22 248.28 171.796 248.544C172.372 248.808 172.816 249.138 173.128 249.534C173.44 249.93 173.65 250.362 173.758 250.83C173.878 251.298 173.938 251.73 173.938 252.126C173.938 252.522 173.878 252.954 173.758 253.422C173.65 253.878 173.44 254.304 173.128 254.7C172.816 255.096 172.372 255.426 171.796 255.69C171.22 255.942 170.476 256.068 169.564 256.068H166.144V261H163.894V248.148ZM166.144 254.232H169.438C169.69 254.232 169.948 254.196 170.212 254.124C170.476 254.052 170.716 253.938 170.932 253.782C171.16 253.614 171.34 253.398 171.472 253.134C171.616 252.858 171.688 252.516 171.688 252.108C171.688 251.688 171.628 251.34 171.508 251.064C171.388 250.788 171.226 250.572 171.022 250.416C170.818 250.248 170.584 250.134 170.32 250.074C170.056 250.014 169.774 249.984 169.474 249.984H166.144V254.232ZM176.44 248.148H182.578C183.994 248.148 185.056 248.454 185.764 249.066C186.472 249.678 186.826 250.53 186.826 251.622C186.826 252.234 186.736 252.744 186.556 253.152C186.376 253.548 186.166 253.872 185.926 254.124C185.686 254.364 185.446 254.538 185.206 254.646C184.978 254.754 184.81 254.826 184.702 254.862V254.898C184.894 254.922 185.098 254.982 185.314 255.078C185.542 255.174 185.752 255.33 185.944 255.546C186.136 255.75 186.292 256.02 186.412 256.356C186.544 256.692 186.61 257.112 186.61 257.616C186.61 258.372 186.664 259.062 186.772 259.686C186.892 260.298 187.072 260.736 187.312 261H184.9C184.732 260.724 184.63 260.418 184.594 260.082C184.57 259.746 184.558 259.422 184.558 259.11C184.558 258.522 184.522 258.018 184.45 257.598C184.378 257.166 184.246 256.812 184.054 256.536C183.862 256.248 183.598 256.038 183.262 255.906C182.938 255.774 182.518 255.708 182.002 255.708H178.69V261H176.44V248.148ZM178.69 253.998H182.38C183.1 253.998 183.646 253.83 184.018 253.494C184.39 253.146 184.576 252.63 184.576 251.946C184.576 251.538 184.516 251.208 184.396 250.956C184.276 250.692 184.108 250.488 183.892 250.344C183.688 250.2 183.448 250.104 183.172 250.056C182.908 250.008 182.632 249.984 182.344 249.984H178.69V253.998ZM195.126 249.678C194.442 249.678 193.848 249.816 193.344 250.092C192.852 250.368 192.45 250.74 192.138 251.208C191.826 251.664 191.592 252.186 191.436 252.774C191.292 253.362 191.22 253.962 191.22 254.574C191.22 255.186 191.292 255.786 191.436 256.374C191.592 256.962 191.826 257.49 192.138 257.958C192.45 258.414 192.852 258.78 193.344 259.056C193.848 259.332 194.442 259.47 195.126 259.47C195.81 259.47 196.398 259.332 196.89 259.056C197.394 258.78 197.802 258.414 198.114 257.958C198.426 257.49 198.654 256.962 198.798 256.374C198.954 255.786 199.032 255.186 199.032 254.574C199.032 253.962 198.954 253.362 198.798 252.774C198.654 252.186 198.426 251.664 198.114 251.208C197.802 250.74 197.394 250.368 196.89 250.092C196.398 249.816 195.81 249.678 195.126 249.678ZM195.126 247.842C196.086 247.842 196.944 248.022 197.7 248.382C198.468 248.742 199.116 249.228 199.644 249.84C200.172 250.452 200.574 251.166 200.85 251.982C201.138 252.798 201.282 253.662 201.282 254.574C201.282 255.498 201.138 256.368 200.85 257.184C200.574 258 200.172 258.714 199.644 259.326C199.116 259.938 198.468 260.424 197.7 260.784C196.944 261.132 196.086 261.306 195.126 261.306C194.166 261.306 193.302 261.132 192.534 260.784C191.778 260.424 191.136 259.938 190.608 259.326C190.08 258.714 189.672 258 189.384 257.184C189.108 256.368 188.97 255.498 188.97 254.574C188.97 253.662 189.108 252.798 189.384 251.982C189.672 251.166 190.08 250.452 190.608 249.84C191.136 249.228 191.778 248.742 192.534 248.382C193.302 248.022 194.166 247.842 195.126 247.842ZM203.869 248.148H209.539C210.451 248.148 211.195 248.28 211.771 248.544C212.347 248.808 212.791 249.138 213.103 249.534C213.415 249.93 213.625 250.362 213.733 250.83C213.853 251.298 213.913 251.73 213.913 252.126C213.913 252.522 213.853 252.954 213.733 253.422C213.625 253.878 213.415 254.304 213.103 254.7C212.791 255.096 212.347 255.426 211.771 255.69C211.195 255.942 210.451 256.068 209.539 256.068H206.119V261H203.869V248.148ZM206.119 254.232H209.413C209.665 254.232 209.923 254.196 210.187 254.124C210.451 254.052 210.691 253.938 210.907 253.782C211.135 253.614 211.315 253.398 211.447 253.134C211.591 252.858 211.663 252.516 211.663 252.108C211.663 251.688 211.603 251.34 211.483 251.064C211.363 250.788 211.201 250.572 210.997 250.416C210.793 250.248 210.559 250.134 210.295 250.074C210.031 250.014 209.749 249.984 209.449 249.984H206.119V254.232ZM216.415 248.148H225.667V250.092H218.665V253.458H225.145V255.294H218.665V259.056H225.793V261H216.415V248.148ZM228.293 248.148H234.431C235.847 248.148 236.909 248.454 237.617 249.066C238.325 249.678 238.679 250.53 238.679 251.622C238.679 252.234 238.589 252.744 238.409 253.152C238.229 253.548 238.019 253.872 237.779 254.124C237.539 254.364 237.299 254.538 237.059 254.646C236.831 254.754 236.663 254.826 236.555 254.862V254.898C236.747 254.922 236.951 254.982 237.167 255.078C237.395 255.174 237.605 255.33 237.797 255.546C237.989 255.75 238.145 256.02 238.265 256.356C238.397 256.692 238.463 257.112 238.463 257.616C238.463 258.372 238.517 259.062 238.625 259.686C238.745 260.298 238.925 260.736 239.165 261H236.753C236.585 260.724 236.483 260.418 236.447 260.082C236.423 259.746 236.411 259.422 236.411 259.11C236.411 258.522 236.375 258.018 236.303 257.598C236.231 257.166 236.099 256.812 235.907 256.536C235.715 256.248 235.451 256.038 235.115 255.906C234.791 255.774 234.371 255.708 233.855 255.708H230.543V261H228.293V248.148ZM230.543 253.998H234.233C234.953 253.998 235.499 253.83 235.871 253.494C236.243 253.146 236.429 252.63 236.429 251.946C236.429 251.538 236.369 251.208 236.249 250.956C236.129 250.692 235.961 250.488 235.745 250.344C235.541 250.2 235.301 250.104 235.025 250.056C234.761 250.008 234.485 249.984 234.197 249.984H230.543V253.998ZM239.967 248.148H250.371V250.092H246.285V261H244.035V250.092H239.967V248.148ZM252.401 248.148H254.651V261H252.401V248.148ZM257.95 248.148H267.202V250.092H260.2V253.458H266.68V255.294H260.2V259.056H267.328V261H257.95V248.148ZM271.304 256.716C271.304 257.208 271.388 257.628 271.556 257.976C271.724 258.324 271.958 258.612 272.258 258.84C272.558 259.056 272.9 259.218 273.284 259.326C273.68 259.422 274.106 259.47 274.562 259.47C275.054 259.47 275.474 259.416 275.822 259.308C276.17 259.188 276.452 259.038 276.668 258.858C276.884 258.678 277.04 258.474 277.136 258.246C277.232 258.006 277.28 257.766 277.28 257.526C277.28 257.034 277.166 256.674 276.938 256.446C276.722 256.206 276.482 256.038 276.218 255.942C275.762 255.774 275.228 255.618 274.616 255.474C274.016 255.318 273.272 255.12 272.384 254.88C271.832 254.736 271.37 254.55 270.998 254.322C270.638 254.082 270.35 253.818 270.134 253.53C269.918 253.242 269.762 252.936 269.666 252.612C269.582 252.288 269.54 251.958 269.54 251.622C269.54 250.974 269.672 250.416 269.936 249.948C270.212 249.468 270.572 249.072 271.016 248.76C271.46 248.448 271.964 248.22 272.528 248.076C273.092 247.92 273.662 247.842 274.238 247.842C274.91 247.842 275.54 247.932 276.128 248.112C276.728 248.28 277.25 248.538 277.694 248.886C278.15 249.234 278.51 249.666 278.774 250.182C279.038 250.686 279.17 251.274 279.17 251.946H276.92C276.86 251.118 276.578 250.536 276.074 250.2C275.57 249.852 274.928 249.678 274.148 249.678C273.884 249.678 273.614 249.708 273.338 249.768C273.062 249.816 272.81 249.906 272.582 250.038C272.354 250.158 272.162 250.326 272.006 250.542C271.862 250.758 271.79 251.028 271.79 251.352C271.79 251.808 271.928 252.168 272.204 252.432C272.492 252.684 272.864 252.876 273.32 253.008C273.368 253.02 273.554 253.074 273.878 253.17C274.214 253.254 274.586 253.35 274.994 253.458C275.402 253.566 275.798 253.674 276.182 253.782C276.578 253.878 276.86 253.95 277.028 253.998C277.448 254.13 277.814 254.31 278.126 254.538C278.438 254.766 278.696 255.03 278.9 255.33C279.116 255.618 279.272 255.93 279.368 256.266C279.476 256.602 279.53 256.938 279.53 257.274C279.53 257.994 279.38 258.612 279.08 259.128C278.792 259.632 278.408 260.046 277.928 260.37C277.448 260.694 276.902 260.928 276.29 261.072C275.678 261.228 275.054 261.306 274.418 261.306C273.686 261.306 272.996 261.216 272.348 261.036C271.7 260.856 271.136 260.58 270.656 260.208C270.176 259.836 269.792 259.362 269.504 258.786C269.216 258.198 269.066 257.508 269.054 256.716H271.304Z"
    fill="#2E2E2E" />
  <line x1="40" y1="327.5" x2="682" y2="327.5" stroke="#DDDDDD" />
  <line x1="40" y1="277.5" x2="682" y2="277.5" stroke="#DDDDDD" />
  <line x1="40" y1="368.5" x2="682" y2="368.5" stroke="#DDDDDD" />
  <path d="M682 308H810.5V69H363" stroke="#007299" stroke-width="2" />
  <circle cx="682" cy="308" r="3" fill="#007299" />
  <circle cx="363" cy="69" r="3" fill="#007299" />
  <rect x="50.75" y="94.75" width="598.5" height="57.5" rx="3.25" fill="white" stroke="#434343" stroke-width="1.5" />
  <path
    d="M71.0742 118.539C71.1055 117.664 71.2578 117.023 71.5312 116.617C72.0234 115.898 72.9727 115.539 74.3789 115.539C74.5117 115.539 74.6484 115.543 74.7891 115.551C74.9297 115.559 75.0898 115.57 75.2695 115.586V117.508C75.0508 117.492 74.8906 117.484 74.7891 117.484C74.6953 117.477 74.6055 117.473 74.5195 117.473C73.8789 117.473 73.4961 117.641 73.3711 117.977C73.2461 118.305 73.1836 119.148 73.1836 120.508H75.2695V122.172H73.1602V133H71.0742V122.172H69.3281V120.508H71.0742V118.539ZM77.2852 120.449H79.2891V122.617C79.4531 122.195 79.8555 121.684 80.4961 121.082C81.1367 120.473 81.875 120.168 82.7109 120.168C82.75 120.168 82.8164 120.172 82.9102 120.18C83.0039 120.188 83.1641 120.203 83.3906 120.227V122.453C83.2656 122.43 83.1484 122.414 83.0391 122.406C82.9375 122.398 82.8242 122.395 82.6992 122.395C81.6367 122.395 80.8203 122.738 80.25 123.426C79.6797 124.105 79.3945 124.891 79.3945 125.781V133H77.2852V120.449ZM90.4453 120.168C91.3359 120.168 92.1992 120.379 93.0352 120.801C93.8711 121.215 94.5078 121.754 94.9453 122.418C95.3672 123.051 95.6484 123.789 95.7891 124.633C95.9141 125.211 95.9766 126.133 95.9766 127.398H86.7773C86.8164 128.672 87.1172 129.695 87.6797 130.469C88.2422 131.234 89.1133 131.617 90.293 131.617C91.3945 131.617 92.2734 131.254 92.9297 130.527C93.3047 130.105 93.5703 129.617 93.7266 129.062H95.8008C95.7461 129.523 95.5625 130.039 95.25 130.609C94.9453 131.172 94.6016 131.633 94.2188 131.992C93.5781 132.617 92.7852 133.039 91.8398 133.258C91.332 133.383 90.7578 133.445 90.1172 133.445C88.5547 133.445 87.2305 132.879 86.1445 131.746C85.0586 130.605 84.5156 129.012 84.5156 126.965C84.5156 124.949 85.0625 123.312 86.1562 122.055C87.25 120.797 88.6797 120.168 90.4453 120.168ZM93.8086 125.723C93.7227 124.809 93.5234 124.078 93.2109 123.531C92.6328 122.516 91.668 122.008 90.3164 122.008C89.3477 122.008 88.5352 122.359 87.8789 123.062C87.2227 123.758 86.875 124.645 86.8359 125.723H93.8086ZM98.5781 120.449H100.582V122.23C101.176 121.496 101.805 120.969 102.469 120.648C103.133 120.328 103.871 120.168 104.684 120.168C106.465 120.168 107.668 120.789 108.293 122.031C108.637 122.711 108.809 123.684 108.809 124.949V133H106.664V125.09C106.664 124.324 106.551 123.707 106.324 123.238C105.949 122.457 105.27 122.066 104.285 122.066C103.785 122.066 103.375 122.117 103.055 122.219C102.477 122.391 101.969 122.734 101.531 123.25C101.18 123.664 100.949 124.094 100.84 124.539C100.738 124.977 100.688 125.605 100.688 126.426V133H98.5781V120.449ZM116.777 120.086C118.191 120.086 119.34 120.43 120.223 121.117C121.113 121.805 121.648 122.988 121.828 124.668H119.777C119.652 123.895 119.367 123.254 118.922 122.746C118.477 122.23 117.762 121.973 116.777 121.973C115.434 121.973 114.473 122.629 113.895 123.941C113.52 124.793 113.332 125.844 113.332 127.094C113.332 128.352 113.598 129.41 114.129 130.27C114.66 131.129 115.496 131.559 116.637 131.559C117.512 131.559 118.203 131.293 118.711 130.762C119.227 130.223 119.582 129.488 119.777 128.559H121.828C121.594 130.223 121.008 131.441 120.07 132.215C119.133 132.98 117.934 133.363 116.473 133.363C114.832 133.363 113.523 132.766 112.547 131.57C111.57 130.367 111.082 128.867 111.082 127.07C111.082 124.867 111.617 123.152 112.688 121.926C113.758 120.699 115.121 120.086 116.777 120.086ZM123.938 115.727H126.047V122.148C126.547 121.516 126.996 121.07 127.395 120.812C128.074 120.367 128.922 120.145 129.938 120.145C131.758 120.145 132.992 120.781 133.641 122.055C133.992 122.75 134.168 123.715 134.168 124.949V133H132V125.09C132 124.168 131.883 123.492 131.648 123.062C131.266 122.375 130.547 122.031 129.492 122.031C128.617 122.031 127.824 122.332 127.113 122.934C126.402 123.535 126.047 124.672 126.047 126.344V133H123.938V115.727ZM148.957 131.641C150.355 131.641 151.312 131.113 151.828 130.059C152.352 128.996 152.613 127.816 152.613 126.52C152.613 125.348 152.426 124.395 152.051 123.66C151.457 122.504 150.434 121.926 148.98 121.926C147.691 121.926 146.754 122.418 146.168 123.402C145.582 124.387 145.289 125.574 145.289 126.965C145.289 128.301 145.582 129.414 146.168 130.305C146.754 131.195 147.684 131.641 148.957 131.641ZM149.039 120.086C150.656 120.086 152.023 120.625 153.141 121.703C154.258 122.781 154.816 124.367 154.816 126.461C154.816 128.484 154.324 130.156 153.34 131.477C152.355 132.797 150.828 133.457 148.758 133.457C147.031 133.457 145.66 132.875 144.645 131.711C143.629 130.539 143.121 128.969 143.121 127C143.121 124.891 143.656 123.211 144.727 121.961C145.797 120.711 147.234 120.086 149.039 120.086ZM157.336 120.449H159.34V122.23C159.934 121.496 160.562 120.969 161.227 120.648C161.891 120.328 162.629 120.168 163.441 120.168C165.223 120.168 166.426 120.789 167.051 122.031C167.395 122.711 167.566 123.684 167.566 124.949V133H165.422V125.09C165.422 124.324 165.309 123.707 165.082 123.238C164.707 122.457 164.027 122.066 163.043 122.066C162.543 122.066 162.133 122.117 161.812 122.219C161.234 122.391 160.727 122.734 160.289 123.25C159.938 123.664 159.707 124.094 159.598 124.539C159.496 124.977 159.445 125.605 159.445 126.426V133H157.336V120.449ZM170.695 120.508H172.84V133H170.695V120.508ZM170.695 115.785H172.84V118.176H170.695V115.785ZM181.02 131.641C182.418 131.641 183.375 131.113 183.891 130.059C184.414 128.996 184.676 127.816 184.676 126.52C184.676 125.348 184.488 124.395 184.113 123.66C183.52 122.504 182.496 121.926 181.043 121.926C179.754 121.926 178.816 122.418 178.23 123.402C177.645 124.387 177.352 125.574 177.352 126.965C177.352 128.301 177.645 129.414 178.23 130.305C178.816 131.195 179.746 131.641 181.02 131.641ZM181.102 120.086C182.719 120.086 184.086 120.625 185.203 121.703C186.32 122.781 186.879 124.367 186.879 126.461C186.879 128.484 186.387 130.156 185.402 131.477C184.418 132.797 182.891 133.457 180.82 133.457C179.094 133.457 177.723 132.875 176.707 131.711C175.691 130.539 175.184 128.969 175.184 127C175.184 124.891 175.719 123.211 176.789 121.961C177.859 120.711 179.297 120.086 181.102 120.086ZM189.398 120.449H191.402V122.23C191.996 121.496 192.625 120.969 193.289 120.648C193.953 120.328 194.691 120.168 195.504 120.168C197.285 120.168 198.488 120.789 199.113 122.031C199.457 122.711 199.629 123.684 199.629 124.949V133H197.484V125.09C197.484 124.324 197.371 123.707 197.145 123.238C196.77 122.457 196.09 122.066 195.105 122.066C194.605 122.066 194.195 122.117 193.875 122.219C193.297 122.391 192.789 122.734 192.352 123.25C192 123.664 191.77 124.094 191.66 124.539C191.559 124.977 191.508 125.605 191.508 126.426V133H189.398V120.449Z"
    fill="#434343" />
  <path
    d="M52.1328 55.875H66.4199V59.416H56.3164V64.0508H65.1621V67.5508H56.3164V76H52.1328V55.875ZM77.1523 68.7539C76.9062 68.9089 76.6556 69.0365 76.4004 69.1367C76.1543 69.2279 75.8125 69.3145 75.375 69.3965L74.5 69.5605C73.6797 69.7064 73.0918 69.8841 72.7363 70.0938C72.1348 70.4492 71.834 71.0007 71.834 71.748C71.834 72.4134 72.0163 72.8965 72.3809 73.1973C72.7546 73.4889 73.2057 73.6348 73.7344 73.6348C74.5729 73.6348 75.3431 73.3887 76.0449 72.8965C76.7559 72.4043 77.125 71.5065 77.1523 70.2031V68.7539ZM74.7871 66.9355C75.5072 66.8444 76.0221 66.7305 76.332 66.5938C76.888 66.3568 77.166 65.9876 77.166 65.4863C77.166 64.8757 76.9518 64.4564 76.5234 64.2285C76.1042 63.9915 75.4844 63.873 74.6641 63.873C73.7435 63.873 73.0918 64.1009 72.709 64.5566C72.4355 64.8939 72.2533 65.3496 72.1621 65.9238H68.4023C68.4844 64.6204 68.849 63.5495 69.4961 62.7109C70.526 61.3984 72.2943 60.7422 74.8008 60.7422C76.4323 60.7422 77.8815 61.0658 79.1484 61.7129C80.4154 62.36 81.0488 63.5814 81.0488 65.377V72.2129C81.0488 72.6868 81.0579 73.2611 81.0762 73.9355C81.1035 74.446 81.181 74.7923 81.3086 74.9746C81.4362 75.1569 81.6276 75.3073 81.8828 75.4258V76H77.6445C77.526 75.6992 77.444 75.4167 77.3984 75.1523C77.3529 74.888 77.3164 74.5872 77.2891 74.25C76.7513 74.8333 76.1315 75.3301 75.4297 75.7402C74.5911 76.2233 73.6432 76.4648 72.5859 76.4648C71.237 76.4648 70.1204 76.082 69.2363 75.3164C68.3613 74.5417 67.9238 73.4479 67.9238 72.0352C67.9238 70.2031 68.6302 68.877 70.043 68.0566C70.8177 67.61 71.957 67.291 73.4609 67.0996L74.7871 66.9355ZM93.709 61.0977H97.8926L92.5195 76H88.4043L83.0586 61.0977H87.4336L90.5371 72.0898L93.709 61.0977ZM106.793 73.252C107.932 73.252 108.807 72.8464 109.418 72.0352C110.029 71.224 110.334 70.071 110.334 68.5762C110.334 67.0814 110.029 65.9329 109.418 65.1309C108.807 64.3197 107.932 63.9141 106.793 63.9141C105.654 63.9141 104.774 64.3197 104.154 65.1309C103.544 65.9329 103.238 67.0814 103.238 68.5762C103.238 70.071 103.544 71.224 104.154 72.0352C104.774 72.8464 105.654 73.252 106.793 73.252ZM114.422 68.5762C114.422 70.7637 113.793 72.6367 112.535 74.1953C111.277 75.7448 109.368 76.5195 106.807 76.5195C104.245 76.5195 102.336 75.7448 101.078 74.1953C99.8203 72.6367 99.1914 70.7637 99.1914 68.5762C99.1914 66.4251 99.8203 64.5612 101.078 62.9844C102.336 61.4076 104.245 60.6191 106.807 60.6191C109.368 60.6191 111.277 61.4076 112.535 62.9844C113.793 64.5612 114.422 66.4251 114.422 68.5762ZM125.318 60.7422C125.391 60.7422 125.451 60.7467 125.496 60.7559C125.551 60.7559 125.665 60.7604 125.838 60.7695V64.7617C125.592 64.7344 125.373 64.7161 125.182 64.707C124.99 64.6979 124.835 64.6934 124.717 64.6934C123.149 64.6934 122.096 65.2038 121.559 66.2246C121.258 66.7988 121.107 67.6829 121.107 68.877V76H117.184V61.0977H120.902V63.6953C121.504 62.7018 122.028 62.0228 122.475 61.6582C123.204 61.0475 124.152 60.7422 125.318 60.7422ZM132.141 59.3203H128.189V55.7246H132.141V59.3203ZM128.189 61.0977H132.141V76H128.189V61.0977ZM134.396 64.0098V61.2344H136.475V57.0781H140.33V61.2344H142.75V64.0098H140.33V71.8848C140.33 72.4954 140.408 72.8783 140.562 73.0332C140.717 73.179 141.191 73.252 141.984 73.252C142.103 73.252 142.226 73.252 142.354 73.252C142.49 73.2428 142.622 73.2337 142.75 73.2246V76.1367L140.904 76.2051C139.063 76.2689 137.805 75.9499 137.131 75.248C136.693 74.8014 136.475 74.1133 136.475 73.1836V64.0098H134.396ZM151.131 63.9141C150.229 63.9141 149.527 64.1966 149.025 64.7617C148.533 65.3268 148.223 66.0924 148.096 67.0586H154.152C154.089 66.0286 153.774 65.2493 153.209 64.7207C152.653 64.1829 151.96 63.9141 151.131 63.9141ZM151.131 60.7012C152.37 60.7012 153.487 60.9336 154.48 61.3984C155.474 61.8633 156.294 62.597 156.941 63.5996C157.525 64.4837 157.903 65.5091 158.076 66.6758C158.176 67.3594 158.217 68.3438 158.199 69.6289H148C148.055 71.1237 148.524 72.1719 149.408 72.7734C149.946 73.1471 150.593 73.334 151.35 73.334C152.152 73.334 152.803 73.1061 153.305 72.6504C153.578 72.4043 153.82 72.0625 154.029 71.625H158.008C157.908 72.5091 157.447 73.4069 156.627 74.3184C155.351 75.7676 153.564 76.4922 151.268 76.4922C149.372 76.4922 147.699 75.8815 146.25 74.6602C144.801 73.4388 144.076 71.4518 144.076 68.6992C144.076 66.1198 144.728 64.1419 146.031 62.7656C147.344 61.3893 149.044 60.7012 151.131 60.7012ZM168.59 55.916H172.418V66.7715L177.271 61.166H182.098L176.889 66.8672L182.303 76H177.6L174.031 69.6289L172.418 71.3105V76H168.59V55.916ZM188.223 59.3203H184.271V55.7246H188.223V59.3203ZM184.271 61.0977H188.223V76H184.271V61.0977ZM200.268 60.7422C201.808 60.7422 203.066 61.1478 204.041 61.959C205.025 62.7611 205.518 64.0964 205.518 65.9648V76H201.525V66.9355C201.525 66.1517 201.421 65.5501 201.211 65.1309C200.828 64.3652 200.099 63.9824 199.023 63.9824C197.702 63.9824 196.795 64.543 196.303 65.6641C196.048 66.2565 195.92 67.013 195.92 67.9336V76H192.037V61.125H195.797V63.2988C196.298 62.5332 196.772 61.9818 197.219 61.6445C198.021 61.043 199.037 60.7422 200.268 60.7422ZM214.623 60.7422C215.525 60.7422 216.327 60.9427 217.029 61.3438C217.731 61.7357 218.301 62.2826 218.738 62.9844V55.875H222.689V76H218.902V73.9355C218.346 74.8197 217.713 75.4622 217.002 75.8633C216.291 76.2643 215.407 76.4648 214.35 76.4648C212.609 76.4648 211.141 75.763 209.947 74.3594C208.762 72.9466 208.17 71.1374 208.17 68.9316C208.17 66.3887 208.753 64.388 209.92 62.9297C211.096 61.4714 212.663 60.7422 214.623 60.7422ZM215.471 73.1836C216.574 73.1836 217.412 72.7734 217.986 71.9531C218.561 71.1328 218.848 70.071 218.848 68.7676C218.848 66.9447 218.387 65.6413 217.467 64.8574C216.902 64.3835 216.245 64.1465 215.498 64.1465C214.359 64.1465 213.52 64.5794 212.982 65.4453C212.454 66.3021 212.189 67.3685 212.189 68.6445C212.189 70.0208 212.458 71.1237 212.996 71.9531C213.543 72.7734 214.368 73.1836 215.471 73.1836ZM240.723 73.252C241.862 73.252 242.737 72.8464 243.348 72.0352C243.958 71.224 244.264 70.071 244.264 68.5762C244.264 67.0814 243.958 65.9329 243.348 65.1309C242.737 64.3197 241.862 63.9141 240.723 63.9141C239.583 63.9141 238.704 64.3197 238.084 65.1309C237.473 65.9329 237.168 67.0814 237.168 68.5762C237.168 70.071 237.473 71.224 238.084 72.0352C238.704 72.8464 239.583 73.252 240.723 73.252ZM248.352 68.5762C248.352 70.7637 247.723 72.6367 246.465 74.1953C245.207 75.7448 243.298 76.5195 240.736 76.5195C238.175 76.5195 236.266 75.7448 235.008 74.1953C233.75 72.6367 233.121 70.7637 233.121 68.5762C233.121 66.4251 233.75 64.5612 235.008 62.9844C236.266 61.4076 238.175 60.6191 240.736 60.6191C243.298 60.6191 245.207 61.4076 246.465 62.9844C247.723 64.5612 248.352 66.4251 248.352 68.5762ZM256.65 55.6426C256.896 55.6426 257.12 55.6517 257.32 55.6699C257.521 55.679 257.794 55.6973 258.141 55.7246V58.8965C257.922 58.8691 257.553 58.8509 257.033 58.8418C256.523 58.8236 256.167 58.9375 255.967 59.1836C255.775 59.4206 255.68 59.6849 255.68 59.9766C255.68 60.2682 255.68 60.6875 255.68 61.2344H258.236V63.9824H255.68V76H251.797V63.9824H249.623V61.2344H251.756V60.2773C251.756 58.6823 252.025 57.584 252.562 56.9824C253.128 56.0892 254.49 55.6426 256.65 55.6426ZM271.307 71.2422C271.389 71.9349 271.566 72.4271 271.84 72.7188C272.323 73.2383 273.216 73.498 274.52 73.498C275.285 73.498 275.891 73.3841 276.338 73.1562C276.794 72.9284 277.021 72.5866 277.021 72.1309C277.021 71.6934 276.839 71.3607 276.475 71.1328C276.11 70.9049 274.757 70.513 272.414 69.957C270.728 69.5378 269.538 69.0137 268.846 68.3848C268.153 67.765 267.807 66.8717 267.807 65.7051C267.807 64.3288 268.344 63.1484 269.42 62.1641C270.505 61.1706 272.027 60.6738 273.986 60.6738C275.846 60.6738 277.359 61.0475 278.525 61.7949C279.701 62.5332 280.376 63.8138 280.549 65.6367H276.652C276.598 65.1354 276.456 64.7389 276.229 64.4473C275.8 63.9186 275.071 63.6543 274.041 63.6543C273.193 63.6543 272.587 63.7865 272.223 64.0508C271.867 64.3151 271.689 64.625 271.689 64.9805C271.689 65.4271 271.881 65.7507 272.264 65.9512C272.646 66.1608 274 66.5208 276.324 67.0312C277.874 67.3958 279.036 67.9473 279.811 68.6855C280.576 69.4329 280.959 70.3672 280.959 71.4883C280.959 72.9648 280.408 74.1725 279.305 75.1113C278.211 76.041 276.516 76.5059 274.219 76.5059C271.876 76.5059 270.145 76.0137 269.023 75.0293C267.911 74.0358 267.355 72.7734 267.355 71.2422H271.307ZM290.543 73.252C291.682 73.252 292.557 72.8464 293.168 72.0352C293.779 71.224 294.084 70.071 294.084 68.5762C294.084 67.0814 293.779 65.9329 293.168 65.1309C292.557 64.3197 291.682 63.9141 290.543 63.9141C289.404 63.9141 288.524 64.3197 287.904 65.1309C287.294 65.9329 286.988 67.0814 286.988 68.5762C286.988 70.071 287.294 71.224 287.904 72.0352C288.524 72.8464 289.404 73.252 290.543 73.252ZM298.172 68.5762C298.172 70.7637 297.543 72.6367 296.285 74.1953C295.027 75.7448 293.118 76.5195 290.557 76.5195C287.995 76.5195 286.086 75.7448 284.828 74.1953C283.57 72.6367 282.941 70.7637 282.941 68.5762C282.941 66.4251 283.57 64.5612 284.828 62.9844C286.086 61.4076 287.995 60.6191 290.557 60.6191C293.118 60.6191 295.027 61.4076 296.285 62.9844C297.543 64.5612 298.172 66.4251 298.172 68.5762ZM304.857 61.0977V70.0801C304.857 70.9277 304.958 71.5658 305.158 71.9941C305.514 72.7507 306.211 73.1289 307.25 73.1289C308.581 73.1289 309.492 72.5911 309.984 71.5156C310.24 70.9323 310.367 70.1621 310.367 69.2051V61.0977H314.318V76H310.531V73.8945C310.495 73.9401 310.404 74.0768 310.258 74.3047C310.112 74.5326 309.939 74.7331 309.738 74.9062C309.128 75.4531 308.535 75.8268 307.961 76.0273C307.396 76.2279 306.73 76.3281 305.965 76.3281C303.759 76.3281 302.273 75.5352 301.508 73.9492C301.079 73.0742 300.865 71.7845 300.865 70.0801V61.0977H304.857ZM328.359 68.5488C328.359 67.4004 328.095 66.3841 327.566 65.5C327.047 64.6159 326.199 64.1738 325.023 64.1738C323.611 64.1738 322.64 64.8438 322.111 66.1836C321.838 66.8945 321.701 67.7969 321.701 68.8906C321.701 70.6224 322.161 71.8392 323.082 72.541C323.629 72.9512 324.276 73.1562 325.023 73.1562C326.108 73.1562 326.933 72.737 327.498 71.8984C328.072 71.0599 328.359 69.9434 328.359 68.5488ZM326.145 60.7695C327.885 60.7695 329.357 61.4121 330.561 62.6973C331.773 63.9824 332.379 65.8691 332.379 68.3574C332.379 70.9824 331.786 72.9831 330.602 74.3594C329.426 75.7357 327.908 76.4238 326.049 76.4238C324.864 76.4238 323.88 76.1276 323.096 75.5352C322.667 75.207 322.248 74.7285 321.838 74.0996V81.8652H317.982V61.0977H321.715V63.2988C322.134 62.6517 322.581 62.1413 323.055 61.7676C323.921 61.1022 324.951 60.7695 326.145 60.7695ZM340.062 72.0488H344.137V76H340.062V72.0488ZM335.072 62.2051C335.182 59.6074 336.089 57.7663 337.793 56.6816C338.868 55.9889 340.19 55.6426 341.758 55.6426C343.818 55.6426 345.527 56.1348 346.885 57.1191C348.252 58.1035 348.936 59.5618 348.936 61.4941C348.936 62.679 348.639 63.6771 348.047 64.4883C347.701 64.9805 347.035 65.6094 346.051 66.375L345.08 67.127C344.551 67.5371 344.201 68.0156 344.027 68.5625C343.918 68.9089 343.859 69.4466 343.85 70.1758H340.158C340.213 68.6354 340.359 67.5736 340.596 66.9902C340.833 66.3978 341.443 65.7188 342.428 64.9531L343.426 64.1738C343.754 63.9277 344.018 63.6589 344.219 63.3672C344.583 62.8659 344.766 62.3145 344.766 61.7129C344.766 61.0202 344.561 60.3913 344.15 59.8262C343.749 59.252 343.011 58.9648 341.936 58.9648C340.878 58.9648 340.126 59.3158 339.68 60.0176C339.242 60.7194 339.023 61.4486 339.023 62.2051H335.072Z"
    fill="#007299" />
  <path d="M226 351H770V104H648.5" stroke="#AA5D00" stroke-width="2" />
  <path d="M350 392H723.5V126H210" stroke="#D91E18" stroke-width="2" />
  <circle cx="649" cy="104" r="3" fill="#AA5D00" />
  <circle cx="226" cy="351" r="3" fill="#AA5D00" />
  <circle cx="351" cy="392" r="3" fill="#D91E18" />
  <circle cx="212" cy="126" r="3" fill="#D91E18" />
</svg>
