<svg viewBox="0 0 823 649" fill="none" xmlns="http://www.w3.org/2000/svg">
  <rect width="823" height="649" fill="#2B2B2B" />
  <rect width="823" height="203" fill="white" />
  <path
    d="M63.16 262.284L52.38 268.948V271.496L63.076 278.16L64.448 276.2L54.676 270.236L64.448 264.272L63.16 262.284ZM198.312 266.456H187.113V268.724H198.312V266.456ZM198.312 271.86H187.113V274.128H198.312V271.86ZM205.974 265.672H208.214L208.69 258.308H205.526L205.974 265.672ZM210.79 265.672H213.03L213.478 258.308H210.314L210.79 265.672ZM306.708 265.672H308.948L309.424 258.308H306.26L306.708 265.672ZM311.524 265.672H313.764L314.212 258.308H311.048L311.524 265.672ZM322.293 262.284L321.005 264.3L330.749 270.236L321.005 276.2L322.377 278.16L333.073 271.496V268.948L322.293 262.284ZM341.938 261.892H350.422L350.73 259.708H339.138V279H341.938V270.572H349.358V268.388H341.938V261.892ZM365.755 275.612V268.724C365.755 265.728 363.879 263.88 360.071 263.88C358.615 263.88 356.935 264.188 355.087 264.86L355.787 266.82C357.299 266.288 358.699 266.064 359.679 266.064C361.807 266.064 363.067 266.848 363.067 268.892V269.984H360.939C356.459 269.984 353.967 271.72 353.967 274.772C353.967 277.516 355.787 279.336 358.783 279.336C360.687 279.336 362.367 278.636 363.431 277.264C363.907 278.58 364.943 279.168 366.287 279.336L366.931 277.488C366.119 277.236 365.755 276.788 365.755 275.612ZM359.511 277.348C357.719 277.348 356.823 276.424 356.823 274.716C356.823 272.868 357.999 271.748 361.107 271.748H363.067V275.332C362.255 276.592 360.911 277.348 359.511 277.348ZM384.252 264.244H381.48L377.448 276.676L373.416 264.244H370.532L375.824 279H378.932L384.252 264.244ZM394.209 263.88C389.981 263.88 387.685 267.044 387.685 271.636C387.685 276.34 389.953 279.336 394.181 279.336C398.381 279.336 400.677 276.2 400.677 271.608C400.677 266.932 398.437 263.88 394.209 263.88ZM394.209 266.036C396.617 266.036 397.821 267.8 397.821 271.608C397.821 275.444 396.617 277.208 394.181 277.208C391.745 277.208 390.541 275.444 390.541 271.636C390.541 267.8 391.773 266.036 394.209 266.036ZM415.422 263.908C412.818 263.908 411.278 265.252 410.158 267.688L409.682 264.244H405.37V266.232H407.638V277.012H405.37V279H413.322V277.012H410.326V271.104C411.25 267.968 412.846 266.344 415.058 266.344H415.086V269.424H417.158L417.578 264.244C416.906 264.048 416.262 263.908 415.422 263.908ZM427.759 257.188C426.667 257.188 425.911 257.972 425.911 258.98C425.911 260.016 426.667 260.772 427.759 260.772C428.879 260.772 429.635 260.016 429.635 258.98C429.635 257.972 428.879 257.188 427.759 257.188ZM429.747 264.244H422.719V266.288H427.059V276.956H422.579V279H433.863V276.956H429.747V264.244ZM450.82 278.244L449.812 276.424C449.028 276.844 448.104 277.124 447.012 277.124C445.08 277.124 444.296 276.312 444.296 274.688V266.26H449.028L449.364 264.244H444.296V260.604L441.608 260.912V264.244H438.276V266.26H441.608V274.716C441.608 277.46 443.4 279.336 446.704 279.336C448.188 279.336 449.756 278.916 450.82 278.244ZM457.782 272.532H467.666C467.694 272.196 467.721 271.692 467.721 271.188C467.721 266.68 465.37 263.88 461.562 263.88C457.502 263.88 454.982 267.184 454.982 271.636C454.982 276.228 457.474 279.336 461.898 279.336C463.83 279.336 465.734 278.664 467.106 277.572L465.902 275.864C464.614 276.732 463.438 277.18 461.982 277.18C459.77 277.18 457.95 275.78 457.782 272.532ZM461.59 265.98C463.746 265.98 465.062 267.576 465.118 270.572H457.782C457.978 267.464 459.49 265.98 461.59 265.98ZM492.004 257.972L489.316 258.308V279H492.004V257.972ZM501.832 264.244H498.528L492.256 270.936L499.116 279H502.532L495.476 270.88L501.832 264.244ZM511.705 257.188C510.613 257.188 509.857 257.972 509.857 258.98C509.857 260.016 510.613 260.772 511.705 260.772C512.825 260.772 513.581 260.016 513.581 258.98C513.581 257.972 512.825 257.188 511.705 257.188ZM513.693 264.244H506.665V266.288H511.005V276.956H506.525V279H517.809V276.956H513.693V264.244ZM522.754 279H525.442V268.332C526.226 267.184 527.598 265.98 529.222 265.98C531.266 265.98 531.574 267.1 531.574 269.928V279H534.262V268.276C534.262 265.504 532.946 263.88 530.118 263.88C528.354 263.88 526.478 264.72 525.274 266.232L525.078 264.244H522.754V279ZM548.335 257.972V265.588C547.355 264.468 546.095 263.88 544.471 263.88C540.831 263.88 538.647 267.156 538.647 271.636C538.647 276.228 540.411 279.336 544.247 279.336C545.927 279.336 547.383 278.608 548.419 277.124L548.643 279H551.023V258.308L548.335 257.972ZM545.171 266.008C546.459 266.008 547.551 266.68 548.335 267.8V274.996C547.551 276.2 546.459 277.236 544.891 277.236C542.735 277.236 541.531 275.444 541.531 271.636C541.531 267.828 542.875 266.008 545.171 266.008ZM578.889 263.88C574.661 263.88 572.365 267.044 572.365 271.636C572.365 276.34 574.633 279.336 578.861 279.336C583.061 279.336 585.357 276.2 585.357 271.608C585.357 266.932 583.117 263.88 578.889 263.88ZM578.889 266.036C581.297 266.036 582.501 267.8 582.501 271.608C582.501 275.444 581.297 277.208 578.861 277.208C576.425 277.208 575.221 275.444 575.221 271.636C575.221 267.8 576.453 266.036 578.889 266.036ZM598.758 257.972C595.538 257.972 593.242 259.764 593.242 262.536V265.336H589.798V267.408H593.242V279H595.93V267.408H600.606L600.914 265.336H595.93V262.508C595.93 260.912 596.938 260.128 598.926 260.128C600.046 260.128 601.138 260.324 602.09 260.744L602.93 258.812C601.754 258.308 600.438 257.972 598.758 257.972ZM628.668 277.208C626.932 277.208 625.392 276.564 624.244 275.612L622.788 277.32C624.076 278.44 625.98 279.336 628.668 279.336C631.916 279.336 635.024 278.048 635.024 274.856C635.024 272.084 633.12 271.076 630.236 270.292C627.268 269.48 626.4 269.032 626.4 267.8C626.4 266.736 627.212 266.008 629.424 266.008C631.244 266.008 632.532 266.568 633.652 267.324L634.828 265.56C633.54 264.608 631.776 263.88 629.34 263.88C625.896 263.88 623.628 265.504 623.628 268.024C623.628 270.6 625.588 271.552 628.584 272.308C631.692 273.092 632.14 273.736 632.14 275.024C632.14 276.368 630.824 277.208 628.668 277.208ZM646.045 263.88C641.817 263.88 639.521 267.044 639.521 271.636C639.521 276.34 641.789 279.336 646.017 279.336C650.217 279.336 652.513 276.2 652.513 271.608C652.513 266.932 650.273 263.88 646.045 263.88ZM646.045 266.036C648.453 266.036 649.657 267.8 649.657 271.608C649.657 275.444 648.453 277.208 646.017 277.208C643.581 277.208 642.377 275.444 642.377 271.636C642.377 267.8 643.609 266.036 646.045 266.036ZM659.754 264.244H657.066V274.968C657.066 277.712 658.466 279.336 661.322 279.336C663.058 279.336 664.878 278.524 666.026 277.04L666.222 279H668.546V264.244H665.858V275.024C665.074 276.228 663.59 277.264 662.078 277.264C660.51 277.264 659.754 276.48 659.754 274.632V264.244ZM680.743 263.88C679.007 263.88 677.467 264.72 676.375 266.232L676.179 264.244H673.855V284.992L676.543 284.656V277.684C677.523 278.776 678.811 279.336 680.407 279.336C684.187 279.336 686.091 276.088 686.091 271.608C686.091 266.932 684.635 263.88 680.743 263.88ZM680.043 266.008C682.199 266.008 683.235 267.772 683.235 271.608C683.235 275.444 682.031 277.18 679.735 277.18C678.419 277.18 677.299 276.508 676.543 275.416V268.276C677.327 267.1 678.503 266.008 680.043 266.008ZM696.356 259.344C694.004 259.344 691.96 260.268 690.336 262.172L692.184 263.572C693.332 262.172 694.788 261.556 696.076 261.556C697.868 261.556 699.212 262.424 699.212 263.936C699.212 266.96 694.312 266.904 694.312 271.468V272.504H696.944V271.608C696.944 267.66 702.04 268.22 702.04 263.74C702.04 261.5 699.912 259.344 696.356 259.344ZM695.712 275.388C694.592 275.388 693.724 276.256 693.724 277.348C693.724 278.468 694.592 279.336 695.712 279.336C696.832 279.336 697.7 278.468 697.7 277.348C697.7 276.256 696.832 275.388 695.712 275.388ZM732.063 256.32L721.675 277.712L709.438 270.236L719.21 264.272L717.922 262.284L707.142 268.948V271.496L720.639 279.896L719.462 282.304L721.619 283.256L734.191 257.328L732.063 256.32ZM758.809 262.284L757.521 264.3L767.265 270.236L757.521 276.2L758.893 278.16L769.589 271.496V268.948L758.809 262.284ZM63.16 296.284L52.38 302.948V305.496L63.076 312.16L64.448 310.2L54.676 304.236L64.448 298.272L63.16 296.284ZM500.516 300.456H489.316V302.724H500.516V300.456ZM500.516 305.86H489.316V308.128H500.516V305.86ZM508.177 299.672H510.417L510.893 292.308H507.729L508.177 299.672ZM512.993 299.672H515.233L515.681 292.308H512.517L512.993 299.672ZM608.911 299.672H611.151L611.627 292.308H608.463L608.911 299.672ZM613.727 299.672H615.967L616.415 292.308H613.251L613.727 299.672ZM624.496 296.284L623.208 298.3L632.952 304.236L623.208 310.2L624.58 312.16L635.276 305.496V302.948L624.496 296.284ZM664.906 290.32L654.518 311.712L642.282 304.236L652.054 298.272L650.766 296.284L639.986 302.948V305.496L653.482 313.896L652.306 316.304L654.462 317.256L667.034 291.328L664.906 290.32ZM725.231 296.284L723.943 298.3L733.687 304.236L723.943 310.2L725.315 312.16L736.011 305.496V302.948L725.231 296.284Z"
    fill="#E6E6E6" />
  <path
    d="M76.3371 263.88C74.6011 263.88 73.0611 264.72 71.9691 266.232L71.7731 264.244H69.4491V284.992L72.1371 284.656V277.684C73.1171 278.776 74.4051 279.336 76.0011 279.336C79.7811 279.336 81.6851 276.088 81.6851 271.608C81.6851 266.932 80.2291 263.88 76.3371 263.88ZM75.6371 266.008C77.7931 266.008 78.8291 267.772 78.8291 271.608C78.8291 275.444 77.6251 277.18 75.3291 277.18C74.0131 277.18 72.8931 276.508 72.1371 275.416V268.276C72.9211 267.1 74.0971 266.008 75.6371 266.008ZM747.9 263.88C746.164 263.88 744.624 264.72 743.532 266.232L743.336 264.244H741.012V284.992L743.7 284.656V277.684C744.68 278.776 745.968 279.336 747.564 279.336C751.344 279.336 753.248 276.088 753.248 271.608C753.248 266.932 751.792 263.88 747.9 263.88ZM747.2 266.008C749.356 266.008 750.392 267.772 750.392 271.608C750.392 275.444 749.188 277.18 746.892 277.18C745.576 277.18 744.456 276.508 743.7 275.416V268.276C744.484 267.1 745.66 266.008 747.2 266.008ZM78.2411 291.972V299.588C77.2611 298.468 76.0011 297.88 74.3771 297.88C70.7371 297.88 68.5531 301.156 68.5531 305.636C68.5531 310.228 70.3171 313.336 74.1531 313.336C75.8331 313.336 77.2891 312.608 78.3251 311.124L78.5491 313H80.9291V292.308L78.2411 291.972ZM75.0771 300.008C76.3651 300.008 77.4571 300.68 78.2411 301.8V308.996C77.4571 310.2 76.3651 311.236 74.7971 311.236C72.6411 311.236 71.4371 309.444 71.4371 305.636C71.4371 301.828 72.7811 300.008 75.0771 300.008ZM91.9781 291.188C90.8861 291.188 90.1301 291.972 90.1301 292.98C90.1301 294.016 90.8861 294.772 91.9781 294.772C93.0981 294.772 93.8541 294.016 93.8541 292.98C93.8541 291.972 93.0981 291.188 91.9781 291.188ZM93.9661 298.244H86.9381V300.288H91.2781V310.956H86.7981V313H98.0821V310.956H93.9661V298.244ZM115.627 298.244H112.855L108.823 310.676L104.791 298.244H101.907L107.199 313H110.307L115.627 298.244ZM682.647 291.972V299.588C681.667 298.468 680.407 297.88 678.783 297.88C675.143 297.88 672.959 301.156 672.959 305.636C672.959 310.228 674.723 313.336 678.559 313.336C680.239 313.336 681.695 312.608 682.731 311.124L682.955 313H685.335V292.308L682.647 291.972ZM679.483 300.008C680.771 300.008 681.863 300.68 682.647 301.8V308.996C681.863 310.2 680.771 311.236 679.203 311.236C677.047 311.236 675.843 309.444 675.843 305.636C675.843 301.828 677.187 300.008 679.483 300.008ZM696.384 291.188C695.292 291.188 694.536 291.972 694.536 292.98C694.536 294.016 695.292 294.772 696.384 294.772C697.504 294.772 698.26 294.016 698.26 292.98C698.26 291.972 697.504 291.188 696.384 291.188ZM698.372 298.244H691.344V300.288H695.684V310.956H691.204V313H702.488V310.956H698.372V298.244ZM720.033 298.244H717.261L713.229 310.676L709.197 298.244H706.313L711.605 313H714.713L720.033 298.244Z"
    fill="#F1A381" />
  <path
    d="M109.915 277.068C107.479 277.068 105.715 275.528 105.715 271.692C105.715 267.884 107.451 266.092 109.915 266.092C111.203 266.092 112.407 266.54 113.639 267.38L114.899 265.644C113.499 264.496 111.847 263.88 109.887 263.88C105.435 263.88 102.831 267.24 102.831 271.692C102.831 276.312 105.379 279.336 109.859 279.336C111.679 279.336 113.639 278.636 114.927 277.544L113.667 275.808C112.575 276.536 111.343 277.068 109.915 277.068ZM125.892 258.308H118.724V260.352H123.204V274.996C123.204 277.712 124.968 279.336 127.74 279.336C129.308 279.336 130.54 278.972 131.352 278.552L130.68 276.62C129.896 276.928 129.112 277.124 128.244 277.124C126.872 277.124 125.892 276.62 125.892 275.192V258.308ZM147.497 275.612V268.724C147.497 265.728 145.621 263.88 141.813 263.88C140.357 263.88 138.677 264.188 136.829 264.86L137.529 266.82C139.041 266.288 140.441 266.064 141.421 266.064C143.549 266.064 144.809 266.848 144.809 268.892V269.984H142.681C138.201 269.984 135.709 271.72 135.709 274.772C135.709 277.516 137.529 279.336 140.525 279.336C142.429 279.336 144.109 278.636 145.173 277.264C145.649 278.58 146.685 279.168 148.029 279.336L148.673 277.488C147.861 277.236 147.497 276.788 147.497 275.612ZM141.253 277.348C139.461 277.348 138.565 276.424 138.565 274.716C138.565 272.868 139.741 271.748 142.849 271.748H144.809V275.332C143.997 276.592 142.653 277.348 141.253 277.348ZM158.574 277.208C156.838 277.208 155.298 276.564 154.15 275.612L152.694 277.32C153.982 278.44 155.886 279.336 158.574 279.336C161.822 279.336 164.93 278.048 164.93 274.856C164.93 272.084 163.026 271.076 160.142 270.292C157.174 269.48 156.306 269.032 156.306 267.8C156.306 266.736 157.118 266.008 159.33 266.008C161.15 266.008 162.438 266.568 163.558 267.324L164.734 265.56C163.446 264.608 161.682 263.88 159.246 263.88C155.802 263.88 153.534 265.504 153.534 268.024C153.534 270.6 155.494 271.552 158.49 272.308C161.598 273.092 162.046 273.736 162.046 275.024C162.046 276.368 160.73 277.208 158.574 277.208ZM175.363 277.208C173.627 277.208 172.087 276.564 170.939 275.612L169.483 277.32C170.771 278.44 172.675 279.336 175.363 279.336C178.611 279.336 181.719 278.048 181.719 274.856C181.719 272.084 179.815 271.076 176.931 270.292C173.963 269.48 173.095 269.032 173.095 267.8C173.095 266.736 173.907 266.008 176.119 266.008C177.939 266.008 179.227 266.568 180.347 267.324L181.523 265.56C180.235 264.608 178.471 263.88 176.035 263.88C172.591 263.88 170.323 265.504 170.323 268.024C170.323 270.6 172.283 271.552 175.279 272.308C178.387 273.092 178.835 273.736 178.835 275.024C178.835 276.368 177.519 277.208 175.363 277.208ZM143.493 311.068C141.057 311.068 139.293 309.528 139.293 305.692C139.293 301.884 141.029 300.092 143.493 300.092C144.781 300.092 145.985 300.54 147.217 301.38L148.477 299.644C147.077 298.496 145.425 297.88 143.465 297.88C139.013 297.88 136.409 301.24 136.409 305.692C136.409 310.312 138.957 313.336 143.437 313.336C145.257 313.336 147.217 312.636 148.505 311.544L147.245 309.808C146.153 310.536 144.921 311.068 143.493 311.068ZM159.162 297.88C154.934 297.88 152.638 301.044 152.638 305.636C152.638 310.34 154.906 313.336 159.134 313.336C163.334 313.336 165.63 310.2 165.63 305.608C165.63 300.932 163.39 297.88 159.162 297.88ZM159.162 300.036C161.57 300.036 162.774 301.8 162.774 305.608C162.774 309.444 161.57 311.208 159.134 311.208C156.698 311.208 155.494 309.444 155.494 305.636C155.494 301.8 156.726 300.036 159.162 300.036ZM170.183 313H172.871V302.332C173.655 301.184 175.027 299.98 176.651 299.98C178.695 299.98 179.003 301.1 179.003 303.928V313H181.691V302.276C181.691 299.504 180.375 297.88 177.547 297.88C175.783 297.88 173.907 298.72 172.703 300.232L172.507 298.244H170.183V313ZM198.985 312.244L197.977 310.424C197.193 310.844 196.269 311.124 195.177 311.124C193.245 311.124 192.461 310.312 192.461 308.688V300.26H197.193L197.529 298.244H192.461V294.604L189.773 294.912V298.244H186.441V300.26H189.773V308.716C189.773 311.46 191.565 313.336 194.869 313.336C196.353 313.336 197.921 312.916 198.985 312.244ZM205.946 306.532H215.83C215.858 306.196 215.886 305.692 215.886 305.188C215.886 300.68 213.534 297.88 209.726 297.88C205.666 297.88 203.146 301.184 203.146 305.636C203.146 310.228 205.638 313.336 210.062 313.336C211.994 313.336 213.898 312.664 215.27 311.572L214.066 309.864C212.778 310.732 211.602 311.18 210.146 311.18C207.934 311.18 206.114 309.78 205.946 306.532ZM209.754 299.98C211.91 299.98 213.226 301.576 213.282 304.572H205.946C206.142 301.464 207.654 299.98 209.754 299.98ZM220.551 313H223.239V302.332C224.023 301.184 225.395 299.98 227.019 299.98C229.063 299.98 229.371 301.1 229.371 303.928V313H232.059V302.276C232.059 299.504 230.743 297.88 227.915 297.88C226.151 297.88 224.275 298.72 223.071 300.232L222.875 298.244H220.551V313ZM249.352 312.244L248.344 310.424C247.56 310.844 246.636 311.124 245.544 311.124C243.612 311.124 242.828 310.312 242.828 308.688V300.26H247.56L247.896 298.244H242.828V294.604L240.14 294.912V298.244H236.808V300.26H240.14V308.716C240.14 311.46 241.932 313.336 245.236 313.336C246.72 313.336 248.288 312.916 249.352 312.244ZM256.313 306.532H266.197C266.225 306.196 266.253 305.692 266.253 305.188C266.253 300.68 263.901 297.88 260.093 297.88C256.033 297.88 253.513 301.184 253.513 305.636C253.513 310.228 256.005 313.336 260.429 313.336C262.361 313.336 264.265 312.664 265.637 311.572L264.433 309.864C263.145 310.732 261.969 311.18 260.513 311.18C258.301 311.18 256.481 309.78 256.313 306.532ZM260.121 299.98C262.277 299.98 263.593 301.576 263.649 304.572H256.313C256.509 301.464 258.021 299.98 260.121 299.98ZM279.71 291.972V299.588C278.73 298.468 277.47 297.88 275.846 297.88C272.206 297.88 270.022 301.156 270.022 305.636C270.022 310.228 271.786 313.336 275.622 313.336C277.302 313.336 278.758 312.608 279.794 311.124L280.018 313H282.398V292.308L279.71 291.972ZM276.546 300.008C277.834 300.008 278.926 300.68 279.71 301.8V308.996C278.926 310.2 277.834 311.236 276.266 311.236C274.11 311.236 272.906 309.444 272.906 305.636C272.906 301.828 274.25 300.008 276.546 300.008ZM293.447 291.188C292.355 291.188 291.599 291.972 291.599 292.98C291.599 294.016 292.355 294.772 293.447 294.772C294.567 294.772 295.323 294.016 295.323 292.98C295.323 291.972 294.567 291.188 293.447 291.188ZM295.435 298.244H288.407V300.288H292.747V310.956H288.267V313H299.551V310.956H295.435V298.244ZM316.508 312.244L315.5 310.424C314.716 310.844 313.792 311.124 312.7 311.124C310.768 311.124 309.984 310.312 309.984 308.688V300.26H314.716L315.052 298.244H309.984V294.604L307.296 294.912V298.244H303.964V300.26H307.296V308.716C307.296 311.46 309.088 313.336 312.392 313.336C313.876 313.336 315.444 312.916 316.508 312.244ZM332.177 309.612V302.724C332.177 299.728 330.301 297.88 326.493 297.88C325.037 297.88 323.357 298.188 321.509 298.86L322.209 300.82C323.721 300.288 325.121 300.064 326.101 300.064C328.229 300.064 329.489 300.848 329.489 302.892V303.984H327.361C322.881 303.984 320.389 305.72 320.389 308.772C320.389 311.516 322.209 313.336 325.205 313.336C327.109 313.336 328.789 312.636 329.853 311.264C330.329 312.58 331.365 313.168 332.709 313.336L333.353 311.488C332.541 311.236 332.177 310.788 332.177 309.612ZM325.933 311.348C324.141 311.348 323.245 310.424 323.245 308.716C323.245 306.868 324.421 305.748 327.529 305.748H329.489V309.332C328.677 310.592 327.333 311.348 325.933 311.348ZM340.762 300.092V291.972L338.074 292.308V313H340.454L340.622 311.488C341.602 312.748 342.918 313.336 344.57 313.336C348.378 313.336 350.45 310.088 350.45 305.608C350.45 300.932 348.826 297.88 344.934 297.88C343.254 297.88 341.826 298.692 340.762 300.092ZM343.926 311.236C342.638 311.236 341.518 310.536 340.762 309.416V302.276C341.546 301.1 342.722 300.008 344.262 300.008C346.39 300.008 347.566 301.772 347.566 305.608C347.566 309.444 346.222 311.236 343.926 311.236ZM360.939 292.308H353.771V294.352H358.251V308.996C358.251 311.712 360.015 313.336 362.787 313.336C364.355 313.336 365.587 312.972 366.399 312.552L365.727 310.62C364.943 310.928 364.159 311.124 363.291 311.124C361.919 311.124 360.939 310.62 360.939 309.192V292.308ZM373.836 306.532H383.72C383.748 306.196 383.776 305.692 383.776 305.188C383.776 300.68 381.424 297.88 377.616 297.88C373.556 297.88 371.036 301.184 371.036 305.636C371.036 310.228 373.528 313.336 377.952 313.336C379.884 313.336 381.788 312.664 383.16 311.572L381.956 309.864C380.668 310.732 379.492 311.18 378.036 311.18C375.824 311.18 374.004 309.78 373.836 306.532ZM377.644 299.98C379.8 299.98 381.116 301.576 381.172 304.572H373.836C374.032 301.464 375.544 299.98 377.644 299.98ZM412.118 311.068C409.682 311.068 407.918 309.528 407.918 305.692C407.918 301.884 409.654 300.092 412.118 300.092C413.406 300.092 414.61 300.54 415.842 301.38L417.102 299.644C415.702 298.496 414.05 297.88 412.09 297.88C407.638 297.88 405.034 301.24 405.034 305.692C405.034 310.312 407.582 313.336 412.062 313.336C413.882 313.336 415.842 312.636 417.13 311.544L415.87 309.808C414.778 310.536 413.546 311.068 412.118 311.068ZM428.095 292.308H420.927V294.352H425.407V308.996C425.407 311.712 427.171 313.336 429.943 313.336C431.511 313.336 432.743 312.972 433.555 312.552L432.883 310.62C432.099 310.928 431.315 311.124 430.447 311.124C429.075 311.124 428.095 310.62 428.095 309.192V292.308ZM449.7 309.612V302.724C449.7 299.728 447.824 297.88 444.016 297.88C442.56 297.88 440.88 298.188 439.032 298.86L439.732 300.82C441.244 300.288 442.644 300.064 443.624 300.064C445.752 300.064 447.012 300.848 447.012 302.892V303.984H444.884C440.404 303.984 437.912 305.72 437.912 308.772C437.912 311.516 439.732 313.336 442.728 313.336C444.632 313.336 446.312 312.636 447.376 311.264C447.852 312.58 448.888 313.168 450.232 313.336L450.876 311.488C450.064 311.236 449.7 310.788 449.7 309.612ZM443.456 311.348C441.664 311.348 440.768 310.424 440.768 308.716C440.768 306.868 441.944 305.748 445.052 305.748H447.012V309.332C446.2 310.592 444.856 311.348 443.456 311.348ZM460.778 311.208C459.042 311.208 457.502 310.564 456.354 309.612L454.898 311.32C456.186 312.44 458.09 313.336 460.778 313.336C464.026 313.336 467.134 312.048 467.134 308.856C467.134 306.084 465.23 305.076 462.346 304.292C459.378 303.48 458.51 303.032 458.51 301.8C458.51 300.736 459.322 300.008 461.534 300.008C463.354 300.008 464.642 300.568 465.762 301.324L466.938 299.56C465.65 298.608 463.886 297.88 461.45 297.88C458.006 297.88 455.738 299.504 455.738 302.024C455.738 304.6 457.698 305.552 460.694 306.308C463.802 307.092 464.25 307.736 464.25 309.024C464.25 310.368 462.934 311.208 460.778 311.208ZM477.567 311.208C475.831 311.208 474.291 310.564 473.143 309.612L471.687 311.32C472.975 312.44 474.879 313.336 477.567 313.336C480.815 313.336 483.923 312.048 483.923 308.856C483.923 306.084 482.019 305.076 479.135 304.292C476.167 303.48 475.299 303.032 475.299 301.8C475.299 300.736 476.111 300.008 478.323 300.008C480.143 300.008 481.431 300.568 482.551 301.324L483.727 299.56C482.439 298.608 480.675 297.88 478.239 297.88C474.795 297.88 472.527 299.504 472.527 302.024C472.527 304.6 474.487 305.552 477.483 306.308C480.591 307.092 481.039 307.736 481.039 309.024C481.039 310.368 479.723 311.208 477.567 311.208Z"
    fill="#B2DE57" />
  <path
    d="M226.627 258.308H219.459V260.352H223.939V274.996C223.939 277.712 225.703 279.336 228.475 279.336C230.043 279.336 231.275 278.972 232.087 278.552L231.415 276.62C230.631 276.928 229.847 277.124 228.979 277.124C227.607 277.124 226.627 276.62 226.627 275.192V258.308ZM248.232 275.612V268.724C248.232 265.728 246.356 263.88 242.548 263.88C241.092 263.88 239.412 264.188 237.564 264.86L238.264 266.82C239.776 266.288 241.176 266.064 242.156 266.064C244.284 266.064 245.544 266.848 245.544 268.892V269.984H243.416C238.936 269.984 236.444 271.72 236.444 274.772C236.444 277.516 238.264 279.336 241.26 279.336C243.164 279.336 244.844 278.636 245.908 277.264C246.384 278.58 247.42 279.168 248.764 279.336L249.408 277.488C248.596 277.236 248.232 276.788 248.232 275.612ZM241.988 277.348C240.196 277.348 239.3 276.424 239.3 274.716C239.3 272.868 240.476 271.748 243.584 271.748H245.544V275.332C244.732 276.592 243.388 277.348 241.988 277.348ZM256.817 266.092V257.972L254.129 258.308V279H256.509L256.677 277.488C257.657 278.748 258.973 279.336 260.625 279.336C264.433 279.336 266.505 276.088 266.505 271.608C266.505 266.932 264.881 263.88 260.989 263.88C259.309 263.88 257.881 264.692 256.817 266.092ZM259.981 277.236C258.693 277.236 257.573 276.536 256.817 275.416V268.276C257.601 267.1 258.777 266.008 260.317 266.008C262.445 266.008 263.621 267.772 263.621 271.608C263.621 275.444 262.277 277.236 259.981 277.236ZM273.102 272.532H282.986C283.014 272.196 283.042 271.692 283.042 271.188C283.042 266.68 280.69 263.88 276.882 263.88C272.822 263.88 270.302 267.184 270.302 271.636C270.302 276.228 272.794 279.336 277.218 279.336C279.15 279.336 281.054 278.664 282.426 277.572L281.222 275.864C279.934 276.732 278.758 277.18 277.302 277.18C275.09 277.18 273.27 275.78 273.102 272.532ZM276.91 265.98C279.066 265.98 280.382 267.576 280.438 270.572H273.102C273.298 267.464 274.81 265.98 276.91 265.98ZM293.783 258.308H286.615V260.352H291.095V274.996C291.095 277.712 292.859 279.336 295.631 279.336C297.199 279.336 298.431 278.972 299.243 278.552L298.571 276.62C297.787 276.928 297.003 277.124 296.135 277.124C294.763 277.124 293.783 276.62 293.783 275.192V258.308ZM528.494 291.188C527.402 291.188 526.646 291.972 526.646 292.98C526.646 294.016 527.402 294.772 528.494 294.772C529.614 294.772 530.37 294.016 530.37 292.98C530.37 291.972 529.614 291.188 528.494 291.188ZM530.482 298.244H523.454V300.288H527.794V310.956H523.314V313H534.598V310.956H530.482V298.244ZM539.543 313H542.231V302.332C543.015 301.184 544.387 299.98 546.011 299.98C548.055 299.98 548.363 301.1 548.363 303.928V313H551.051V302.276C551.051 299.504 549.735 297.88 546.907 297.88C545.143 297.88 543.267 298.72 542.063 300.232L541.867 298.244H539.543V313ZM563.22 297.88C561.484 297.88 559.944 298.72 558.852 300.232L558.656 298.244H556.332V318.992L559.02 318.656V311.684C560 312.776 561.288 313.336 562.884 313.336C566.664 313.336 568.568 310.088 568.568 305.608C568.568 300.932 567.112 297.88 563.22 297.88ZM562.52 300.008C564.676 300.008 565.712 301.772 565.712 305.608C565.712 309.444 564.508 311.18 562.212 311.18C560.896 311.18 559.776 310.508 559.02 309.416V302.276C559.804 301.1 560.98 300.008 562.52 300.008ZM575.809 298.244H573.121V308.968C573.121 311.712 574.521 313.336 577.377 313.336C579.113 313.336 580.933 312.524 582.081 311.04L582.277 313H584.601V298.244H581.913V309.024C581.129 310.228 579.645 311.264 578.133 311.264C576.565 311.264 575.809 310.48 575.809 308.632V298.244ZM601.922 312.244L600.914 310.424C600.13 310.844 599.206 311.124 598.114 311.124C596.182 311.124 595.398 310.312 595.398 308.688V300.26H600.13L600.466 298.244H595.398V294.604L592.71 294.912V298.244H589.378V300.26H592.71V308.716C592.71 311.46 594.502 313.336 597.806 313.336C599.29 313.336 600.858 312.916 601.922 312.244Z"
    fill="#F9D749" />
  <rect y="404" width="823" height="245" fill="#F2F2F2" />
  <path
    d="M51.8281 493.785H54.582L63.2773 507.73V493.785H65.4922V511H62.8789L54.0547 497.066V511H51.8281V493.785ZM70.5078 507.66C70.5078 508.27 70.7305 508.75 71.1758 509.102C71.6211 509.453 72.1484 509.629 72.7578 509.629C73.5 509.629 74.2188 509.457 74.9141 509.113C76.0859 508.543 76.6719 507.609 76.6719 506.312V504.613C76.4141 504.777 76.082 504.914 75.6758 505.023C75.2695 505.133 74.8711 505.211 74.4805 505.258L73.2031 505.422C72.4375 505.523 71.8633 505.684 71.4805 505.902C70.832 506.27 70.5078 506.855 70.5078 507.66ZM75.6172 503.395C76.1016 503.332 76.4258 503.129 76.5898 502.785C76.6836 502.598 76.7305 502.328 76.7305 501.977C76.7305 501.258 76.4727 500.738 75.957 500.418C75.4492 500.09 74.7188 499.926 73.7656 499.926C72.6641 499.926 71.8828 500.223 71.4219 500.816C71.1641 501.145 70.9961 501.633 70.918 502.281H68.9492C68.9883 500.734 69.4883 499.66 70.4492 499.059C71.418 498.449 72.5391 498.145 73.8125 498.145C75.2891 498.145 76.4883 498.426 77.4102 498.988C78.3242 499.551 78.7812 500.426 78.7812 501.613V508.844C78.7812 509.062 78.8242 509.238 78.9102 509.371C79.0039 509.504 79.1953 509.57 79.4844 509.57C79.5781 509.57 79.6836 509.566 79.8008 509.559C79.918 509.543 80.043 509.523 80.1758 509.5V511.059C79.8477 511.152 79.5977 511.211 79.4258 511.234C79.2539 511.258 79.0195 511.27 78.7227 511.27C77.9961 511.27 77.4688 511.012 77.1406 510.496C76.9688 510.223 76.8477 509.836 76.7773 509.336C76.3477 509.898 75.7305 510.387 74.9258 510.801C74.1211 511.215 73.2344 511.422 72.2656 511.422C71.1016 511.422 70.1484 511.07 69.4062 510.367C68.6719 509.656 68.3047 508.77 68.3047 507.707C68.3047 506.543 68.668 505.641 69.3945 505C70.1211 504.359 71.0742 503.965 72.2539 503.816L75.6172 503.395ZM82.25 498.449H84.3359V500.23C84.8359 499.613 85.2891 499.164 85.6953 498.883C86.3906 498.406 87.1797 498.168 88.0625 498.168C89.0625 498.168 89.8672 498.414 90.4766 498.906C90.8203 499.188 91.1328 499.602 91.4141 500.148C91.8828 499.477 92.4336 498.98 93.0664 498.66C93.6992 498.332 94.4102 498.168 95.1992 498.168C96.8867 498.168 98.0352 498.777 98.6445 499.996C98.9727 500.652 99.1367 501.535 99.1367 502.645V511H96.9453V502.281C96.9453 501.445 96.7344 500.871 96.3125 500.559C95.8984 500.246 95.3906 500.09 94.7891 500.09C93.9609 500.09 93.2461 500.367 92.6445 500.922C92.0508 501.477 91.7539 502.402 91.7539 503.699V511H89.6094V502.809C89.6094 501.957 89.5078 501.336 89.3047 500.945C88.9844 500.359 88.3867 500.066 87.5117 500.066C86.7148 500.066 85.9883 500.375 85.332 500.992C84.6836 501.609 84.3594 502.727 84.3594 504.344V511H82.25V498.449ZM107.469 498.168C108.359 498.168 109.223 498.379 110.059 498.801C110.895 499.215 111.531 499.754 111.969 500.418C112.391 501.051 112.672 501.789 112.812 502.633C112.938 503.211 113 504.133 113 505.398H103.801C103.84 506.672 104.141 507.695 104.703 508.469C105.266 509.234 106.137 509.617 107.316 509.617C108.418 509.617 109.297 509.254 109.953 508.527C110.328 508.105 110.594 507.617 110.75 507.062H112.824C112.77 507.523 112.586 508.039 112.273 508.609C111.969 509.172 111.625 509.633 111.242 509.992C110.602 510.617 109.809 511.039 108.863 511.258C108.355 511.383 107.781 511.445 107.141 511.445C105.578 511.445 104.254 510.879 103.168 509.746C102.082 508.605 101.539 507.012 101.539 504.965C101.539 502.949 102.086 501.312 103.18 500.055C104.273 498.797 105.703 498.168 107.469 498.168ZM110.832 503.723C110.746 502.809 110.547 502.078 110.234 501.531C109.656 500.516 108.691 500.008 107.34 500.008C106.371 500.008 105.559 500.359 104.902 501.062C104.246 501.758 103.898 502.645 103.859 503.723H110.832ZM116.715 498.613H119.164V501.168H116.715V498.613ZM116.715 508.445H119.164V511H116.715V508.445ZM59.832 543.672C60.9258 543.672 61.7891 543.453 62.4219 543.016C63.0625 542.578 63.3828 541.789 63.3828 540.648C63.3828 539.422 62.9375 538.586 62.0469 538.141C61.5703 537.906 60.9336 537.789 60.1367 537.789H54.4414V543.672H59.832ZM52.1094 535.785H60.0781C61.3906 535.785 62.4727 535.977 63.3242 536.359C64.9414 537.094 65.75 538.449 65.75 540.426C65.75 541.457 65.5352 542.301 65.1055 542.957C64.6836 543.613 64.0898 544.141 63.3242 544.539C63.9961 544.812 64.5 545.172 64.8359 545.617C65.1797 546.062 65.3711 546.785 65.4102 547.785L65.4922 550.094C65.5156 550.75 65.5703 551.238 65.6562 551.559C65.7969 552.105 66.0469 552.457 66.4062 552.613V553H63.5469C63.4688 552.852 63.4062 552.66 63.3594 552.426C63.3125 552.191 63.2734 551.738 63.2422 551.066L63.1016 548.195C63.0469 547.07 62.6289 546.316 61.8477 545.934C61.4023 545.723 60.7031 545.617 59.75 545.617H54.4414V553H52.1094V535.785ZM73.8711 551.641C75.2695 551.641 76.2266 551.113 76.7422 550.059C77.2656 548.996 77.5273 547.816 77.5273 546.52C77.5273 545.348 77.3398 544.395 76.9648 543.66C76.3711 542.504 75.3477 541.926 73.8945 541.926C72.6055 541.926 71.668 542.418 71.082 543.402C70.4961 544.387 70.2031 545.574 70.2031 546.965C70.2031 548.301 70.4961 549.414 71.082 550.305C71.668 551.195 72.5977 551.641 73.8711 551.641ZM73.9531 540.086C75.5703 540.086 76.9375 540.625 78.0547 541.703C79.1719 542.781 79.7305 544.367 79.7305 546.461C79.7305 548.484 79.2383 550.156 78.2539 551.477C77.2695 552.797 75.7422 553.457 73.6719 553.457C71.9453 553.457 70.5742 552.875 69.5586 551.711C68.543 550.539 68.0352 548.969 68.0352 547C68.0352 544.891 68.5703 543.211 69.6406 541.961C70.7109 540.711 72.1484 540.086 73.9531 540.086ZM82.3086 535.785H84.418V553H82.3086V535.785ZM92.8203 540.168C93.7109 540.168 94.5742 540.379 95.4102 540.801C96.2461 541.215 96.8828 541.754 97.3203 542.418C97.7422 543.051 98.0234 543.789 98.1641 544.633C98.2891 545.211 98.3516 546.133 98.3516 547.398H89.1523C89.1914 548.672 89.4922 549.695 90.0547 550.469C90.6172 551.234 91.4883 551.617 92.668 551.617C93.7695 551.617 94.6484 551.254 95.3047 550.527C95.6797 550.105 95.9453 549.617 96.1016 549.062H98.1758C98.1211 549.523 97.9375 550.039 97.625 550.609C97.3203 551.172 96.9766 551.633 96.5938 551.992C95.9531 552.617 95.1602 553.039 94.2148 553.258C93.707 553.383 93.1328 553.445 92.4922 553.445C90.9297 553.445 89.6055 552.879 88.5195 551.746C87.4336 550.605 86.8906 549.012 86.8906 546.965C86.8906 544.949 87.4375 543.312 88.5312 542.055C89.625 540.797 91.0547 540.168 92.8203 540.168ZM96.1836 545.723C96.0977 544.809 95.8984 544.078 95.5859 543.531C95.0078 542.516 94.043 542.008 92.6914 542.008C91.7227 542.008 90.9102 542.359 90.2539 543.062C89.5977 543.758 89.25 544.645 89.2109 545.723H96.1836ZM102.066 540.613H104.516V543.168H102.066V540.613ZM102.066 550.445H104.516V553H102.066V550.445ZM53.1875 577.785L58.1328 592.445L63.0195 577.785H65.6328L59.3516 595H56.8789L50.6094 577.785H53.1875ZM67.3906 591.66C67.3906 592.27 67.6133 592.75 68.0586 593.102C68.5039 593.453 69.0312 593.629 69.6406 593.629C70.3828 593.629 71.1016 593.457 71.7969 593.113C72.9688 592.543 73.5547 591.609 73.5547 590.312V588.613C73.2969 588.777 72.9648 588.914 72.5586 589.023C72.1523 589.133 71.7539 589.211 71.3633 589.258L70.0859 589.422C69.3203 589.523 68.7461 589.684 68.3633 589.902C67.7148 590.27 67.3906 590.855 67.3906 591.66ZM72.5 587.395C72.9844 587.332 73.3086 587.129 73.4727 586.785C73.5664 586.598 73.6133 586.328 73.6133 585.977C73.6133 585.258 73.3555 584.738 72.8398 584.418C72.332 584.09 71.6016 583.926 70.6484 583.926C69.5469 583.926 68.7656 584.223 68.3047 584.816C68.0469 585.145 67.8789 585.633 67.8008 586.281H65.832C65.8711 584.734 66.3711 583.66 67.332 583.059C68.3008 582.449 69.4219 582.145 70.6953 582.145C72.1719 582.145 73.3711 582.426 74.293 582.988C75.207 583.551 75.6641 584.426 75.6641 585.613V592.844C75.6641 593.062 75.707 593.238 75.793 593.371C75.8867 593.504 76.0781 593.57 76.3672 593.57C76.4609 593.57 76.5664 593.566 76.6836 593.559C76.8008 593.543 76.9258 593.523 77.0586 593.5V595.059C76.7305 595.152 76.4805 595.211 76.3086 595.234C76.1367 595.258 75.9023 595.27 75.6055 595.27C74.8789 595.27 74.3516 595.012 74.0234 594.496C73.8516 594.223 73.7305 593.836 73.6602 593.336C73.2305 593.898 72.6133 594.387 71.8086 594.801C71.0039 595.215 70.1172 595.422 69.1484 595.422C67.9844 595.422 67.0312 595.07 66.2891 594.367C65.5547 593.656 65.1875 592.77 65.1875 591.707C65.1875 590.543 65.5508 589.641 66.2773 589C67.0039 588.359 67.957 587.965 69.1367 587.816L72.5 587.395ZM79.1914 577.785H81.3008V595H79.1914V577.785ZM86.5859 582.449V590.781C86.5859 591.422 86.6875 591.945 86.8906 592.352C87.2656 593.102 87.9648 593.477 88.9883 593.477C90.457 593.477 91.457 592.82 91.9883 591.508C92.2773 590.805 92.4219 589.84 92.4219 588.613V582.449H94.5312V595H92.5391L92.5625 593.148C92.2891 593.625 91.9492 594.027 91.543 594.355C90.7383 595.012 89.7617 595.34 88.6133 595.34C86.8242 595.34 85.6055 594.742 84.957 593.547C84.6055 592.906 84.4297 592.051 84.4297 590.98V582.449H86.5859ZM103.062 582.168C103.953 582.168 104.816 582.379 105.652 582.801C106.488 583.215 107.125 583.754 107.562 584.418C107.984 585.051 108.266 585.789 108.406 586.633C108.531 587.211 108.594 588.133 108.594 589.398H99.3945C99.4336 590.672 99.7344 591.695 100.297 592.469C100.859 593.234 101.73 593.617 102.91 593.617C104.012 593.617 104.891 593.254 105.547 592.527C105.922 592.105 106.188 591.617 106.344 591.062H108.418C108.363 591.523 108.18 592.039 107.867 592.609C107.562 593.172 107.219 593.633 106.836 593.992C106.195 594.617 105.402 595.039 104.457 595.258C103.949 595.383 103.375 595.445 102.734 595.445C101.172 595.445 99.8477 594.879 98.7617 593.746C97.6758 592.605 97.1328 591.012 97.1328 588.965C97.1328 586.949 97.6797 585.312 98.7734 584.055C99.8672 582.797 101.297 582.168 103.062 582.168ZM106.426 587.723C106.34 586.809 106.141 586.078 105.828 585.531C105.25 584.516 104.285 584.008 102.934 584.008C101.965 584.008 101.152 584.359 100.496 585.062C99.8398 585.758 99.4922 586.645 99.4531 587.723H106.426Z"
    fill="#4A4A4A" />
  <path
    d="M245.922 590.375H248.25V592.633H245.922V590.375ZM243.07 584.75C243.133 583.266 243.651 582.214 244.625 581.594C245.24 581.198 245.995 581 246.891 581C248.068 581 249.044 581.281 249.82 581.844C250.602 582.406 250.992 583.24 250.992 584.344C250.992 585.021 250.823 585.591 250.484 586.055C250.286 586.336 249.906 586.695 249.344 587.133L248.789 587.562C248.487 587.797 248.286 588.07 248.188 588.383C248.125 588.581 248.091 588.888 248.086 589.305H245.977C246.008 588.424 246.091 587.818 246.227 587.484C246.362 587.146 246.711 586.758 247.273 586.32L247.844 585.875C248.031 585.734 248.182 585.581 248.297 585.414C248.505 585.128 248.609 584.812 248.609 584.469C248.609 584.073 248.492 583.714 248.258 583.391C248.029 583.062 247.607 582.898 246.992 582.898C246.388 582.898 245.958 583.099 245.703 583.5C245.453 583.901 245.328 584.318 245.328 584.75H243.07Z"
    fill="#AA5D00" />
  <path
    d="M245.922 505.375H248.25V507.633H245.922V505.375ZM243.07 499.75C243.133 498.266 243.651 497.214 244.625 496.594C245.24 496.198 245.995 496 246.891 496C248.068 496 249.044 496.281 249.82 496.844C250.602 497.406 250.992 498.24 250.992 499.344C250.992 500.021 250.823 500.591 250.484 501.055C250.286 501.336 249.906 501.695 249.344 502.133L248.789 502.562C248.487 502.797 248.286 503.07 248.188 503.383C248.125 503.581 248.091 503.888 248.086 504.305H245.977C246.008 503.424 246.091 502.818 246.227 502.484C246.362 502.146 246.711 501.758 247.273 501.32L247.844 500.875C248.031 500.734 248.182 500.581 248.297 500.414C248.505 500.128 248.609 499.812 248.609 499.469C248.609 499.073 248.492 498.714 248.258 498.391C248.029 498.062 247.607 497.898 246.992 497.898C246.388 497.898 245.958 498.099 245.703 498.5C245.453 498.901 245.328 499.318 245.328 499.75H243.07Z"
    fill="#007299" />
  <path
    d="M137.28 511H139.584V501.856C140.256 500.872 141.432 499.84 142.824 499.84C144.576 499.84 144.84 500.8 144.84 503.224V511H147.144V501.808C147.144 499.432 146.016 498.04 143.592 498.04C142.08 498.04 140.472 498.76 139.44 500.056L139.272 498.352H137.28V511ZM153.975 498.352H151.671V507.544C151.671 509.896 152.871 511.288 155.319 511.288C156.807 511.288 158.367 510.592 159.351 509.32L159.519 511H161.511V498.352H159.207V507.592C158.535 508.624 157.263 509.512 155.967 509.512C154.623 509.512 153.975 508.84 153.975 507.256V498.352ZM171.269 493.264H165.125V495.016H168.965V507.568C168.965 509.896 170.477 511.288 172.853 511.288C174.197 511.288 175.253 510.976 175.949 510.616L175.373 508.96C174.701 509.224 174.029 509.392 173.285 509.392C172.109 509.392 171.269 508.96 171.269 507.736V493.264ZM185.66 493.264H179.516V495.016H183.356V507.568C183.356 509.896 184.868 511.288 187.244 511.288C188.588 511.288 189.644 510.976 190.34 510.616L189.764 508.96C189.092 509.224 188.42 509.392 187.676 509.392C186.5 509.392 185.66 508.96 185.66 507.736V493.264ZM141.72 551.464C140.232 551.464 138.912 550.912 137.928 550.096L136.68 551.56C137.784 552.52 139.416 553.288 141.72 553.288C144.504 553.288 147.168 552.184 147.168 549.448C147.168 547.072 145.536 546.208 143.064 545.536C140.52 544.84 139.776 544.456 139.776 543.4C139.776 542.488 140.472 541.864 142.368 541.864C143.928 541.864 145.032 542.344 145.992 542.992L147 541.48C145.896 540.664 144.384 540.04 142.296 540.04C139.344 540.04 137.4 541.432 137.4 543.592C137.4 545.8 139.08 546.616 141.648 547.264C144.312 547.936 144.696 548.488 144.696 549.592C144.696 550.744 143.568 551.464 141.72 551.464ZM153.543 547.456H162.015C162.039 547.168 162.063 546.736 162.063 546.304C162.063 542.44 160.047 540.04 156.783 540.04C153.303 540.04 151.143 542.872 151.143 546.688C151.143 550.624 153.279 553.288 157.071 553.288C158.727 553.288 160.359 552.712 161.535 551.776L160.503 550.312C159.399 551.056 158.391 551.44 157.143 551.44C155.247 551.44 153.687 550.24 153.543 547.456ZM156.807 541.84C158.655 541.84 159.783 543.208 159.831 545.776H153.543C153.711 543.112 155.007 541.84 156.807 541.84ZM171.965 551.344C169.877 551.344 168.365 550.024 168.365 546.736C168.365 543.472 169.853 541.936 171.965 541.936C173.069 541.936 174.101 542.32 175.157 543.04L176.237 541.552C175.037 540.568 173.621 540.04 171.941 540.04C168.125 540.04 165.893 542.92 165.893 546.736C165.893 550.696 168.077 553.288 171.917 553.288C173.477 553.288 175.157 552.688 176.261 551.752L175.181 550.264C174.245 550.888 173.189 551.344 171.965 551.344ZM190.748 552.352L189.884 550.792C189.212 551.152 188.42 551.392 187.484 551.392C185.828 551.392 185.156 550.696 185.156 549.304V542.08H189.212L189.5 540.352H185.156V537.232L182.852 537.496V540.352H179.996V542.08H182.852V549.328C182.852 551.68 184.388 553.288 187.22 553.288C188.492 553.288 189.836 552.928 190.748 552.352ZM199.763 534.304C198.827 534.304 198.179 534.976 198.179 535.84C198.179 536.728 198.827 537.376 199.763 537.376C200.723 537.376 201.371 536.728 201.371 535.84C201.371 534.976 200.723 534.304 199.763 534.304ZM201.467 540.352H195.443V542.104H199.163V551.248H195.323V553H204.995V551.248H201.467V540.352ZM214.177 540.04C210.553 540.04 208.585 542.752 208.585 546.688C208.585 550.72 210.529 553.288 214.153 553.288C217.753 553.288 219.721 550.6 219.721 546.664C219.721 542.656 217.801 540.04 214.177 540.04ZM214.177 541.888C216.241 541.888 217.273 543.4 217.273 546.664C217.273 549.952 216.241 551.464 214.153 551.464C212.065 551.464 211.033 549.952 211.033 546.688C211.033 543.4 212.089 541.888 214.177 541.888ZM223.624 553H225.928V543.856C226.6 542.872 227.776 541.84 229.168 541.84C230.92 541.84 231.184 542.8 231.184 545.224V553H233.488V543.808C233.488 541.432 232.36 540.04 229.936 540.04C228.424 540.04 226.816 540.76 225.784 542.056L225.616 540.352H223.624V553ZM139.176 583.576H141.096L141.504 577.264H138.792L139.176 583.576ZM143.304 583.576H145.224L145.608 577.264H142.896L143.304 583.576ZM153.567 583.576H155.487L155.895 577.264H153.183L153.567 583.576ZM157.695 583.576H159.615L159.999 577.264H157.287L157.695 583.576Z"
    fill="#4A4A4A" />
  <path
    d="M60.044 453.234C59.948 452.862 59.816 452.52 59.648 452.208C59.48 451.896 59.264 451.626 59 451.398C58.736 451.17 58.424 450.996 58.064 450.876C57.716 450.744 57.308 450.678 56.84 450.678C56.156 450.678 55.562 450.816 55.058 451.092C54.566 451.368 54.164 451.74 53.852 452.208C53.54 452.664 53.306 453.186 53.15 453.774C53.006 454.362 52.934 454.962 52.934 455.574C52.934 456.186 53.006 456.786 53.15 457.374C53.306 457.962 53.54 458.49 53.852 458.958C54.164 459.414 54.566 459.78 55.058 460.056C55.562 460.332 56.156 460.47 56.84 460.47C57.344 460.47 57.788 460.386 58.172 460.218C58.556 460.038 58.886 459.798 59.162 459.498C59.438 459.186 59.654 458.826 59.81 458.418C59.966 458.01 60.068 457.572 60.116 457.104H62.312C62.264 457.872 62.096 458.574 61.808 459.21C61.532 459.846 61.154 460.398 60.674 460.866C60.194 461.322 59.63 461.676 58.982 461.928C58.334 462.18 57.62 462.306 56.84 462.306C55.88 462.306 55.016 462.132 54.248 461.784C53.492 461.424 52.85 460.938 52.322 460.326C51.794 459.714 51.386 459 51.098 458.184C50.822 457.368 50.684 456.498 50.684 455.574C50.684 454.662 50.822 453.798 51.098 452.982C51.386 452.166 51.794 451.452 52.322 450.84C52.85 450.228 53.492 449.742 54.248 449.382C55.016 449.022 55.88 448.842 56.84 448.842C57.56 448.842 58.238 448.944 58.874 449.148C59.51 449.34 60.068 449.628 60.548 450.012C61.04 450.384 61.436 450.84 61.736 451.38C62.036 451.92 62.222 452.538 62.294 453.234H60.044ZM70.3702 450.678C69.6862 450.678 69.0922 450.816 68.5882 451.092C68.0962 451.368 67.6942 451.74 67.3822 452.208C67.0702 452.664 66.8362 453.186 66.6802 453.774C66.5362 454.362 66.4642 454.962 66.4642 455.574C66.4642 456.186 66.5362 456.786 66.6802 457.374C66.8362 457.962 67.0702 458.49 67.3822 458.958C67.6942 459.414 68.0962 459.78 68.5882 460.056C69.0922 460.332 69.6862 460.47 70.3702 460.47C71.0542 460.47 71.6422 460.332 72.1342 460.056C72.6382 459.78 73.0462 459.414 73.3582 458.958C73.6702 458.49 73.8982 457.962 74.0422 457.374C74.1982 456.786 74.2762 456.186 74.2762 455.574C74.2762 454.962 74.1982 454.362 74.0422 453.774C73.8982 453.186 73.6702 452.664 73.3582 452.208C73.0462 451.74 72.6382 451.368 72.1342 451.092C71.6422 450.816 71.0542 450.678 70.3702 450.678ZM70.3702 448.842C71.3302 448.842 72.1882 449.022 72.9442 449.382C73.7122 449.742 74.3602 450.228 74.8882 450.84C75.4162 451.452 75.8182 452.166 76.0942 452.982C76.3822 453.798 76.5262 454.662 76.5262 455.574C76.5262 456.498 76.3822 457.368 76.0942 458.184C75.8182 459 75.4162 459.714 74.8882 460.326C74.3602 460.938 73.7122 461.424 72.9442 461.784C72.1882 462.132 71.3302 462.306 70.3702 462.306C69.4102 462.306 68.5462 462.132 67.7782 461.784C67.0222 461.424 66.3802 460.938 65.8522 460.326C65.3242 459.714 64.9162 459 64.6282 458.184C64.3522 457.368 64.2142 456.498 64.2142 455.574C64.2142 454.662 64.3522 453.798 64.6282 452.982C64.9162 452.166 65.3242 451.452 65.8522 450.84C66.3802 450.228 67.0222 449.742 67.7782 449.382C68.5462 449.022 69.4102 448.842 70.3702 448.842ZM79.078 449.148H82.246L85.792 459.21H85.828L89.284 449.148H92.416V462H90.274V452.082H90.238L86.674 462H84.82L81.256 452.082H81.22V462H79.078V449.148ZM95.6501 449.148H101.32C102.232 449.148 102.976 449.28 103.552 449.544C104.128 449.808 104.572 450.138 104.884 450.534C105.196 450.93 105.406 451.362 105.514 451.83C105.634 452.298 105.694 452.73 105.694 453.126C105.694 453.522 105.634 453.954 105.514 454.422C105.406 454.878 105.196 455.304 104.884 455.7C104.572 456.096 104.128 456.426 103.552 456.69C102.976 456.942 102.232 457.068 101.32 457.068H97.9001V462H95.6501V449.148ZM97.9001 455.232H101.194C101.446 455.232 101.704 455.196 101.968 455.124C102.232 455.052 102.472 454.938 102.688 454.782C102.916 454.614 103.096 454.398 103.228 454.134C103.372 453.858 103.444 453.516 103.444 453.108C103.444 452.688 103.384 452.34 103.264 452.064C103.144 451.788 102.982 451.572 102.778 451.416C102.574 451.248 102.34 451.134 102.076 451.074C101.812 451.014 101.53 450.984 101.23 450.984H97.9001V455.232ZM108.052 449.148H110.302V456.636C110.302 457.068 110.32 457.506 110.356 457.95C110.404 458.394 110.524 458.796 110.716 459.156C110.92 459.504 111.22 459.792 111.616 460.02C112.024 460.248 112.594 460.362 113.326 460.362C114.058 460.362 114.622 460.248 115.018 460.02C115.426 459.792 115.726 459.504 115.918 459.156C116.122 458.796 116.242 458.394 116.278 457.95C116.326 457.506 116.35 457.068 116.35 456.636V449.148H118.6V457.374C118.6 458.202 118.474 458.922 118.222 459.534C117.97 460.146 117.61 460.662 117.142 461.082C116.686 461.49 116.134 461.796 115.486 462C114.838 462.204 114.118 462.306 113.326 462.306C112.534 462.306 111.814 462.204 111.166 462C110.518 461.796 109.96 461.49 109.492 461.082C109.036 460.662 108.682 460.146 108.43 459.534C108.178 458.922 108.052 458.202 108.052 457.374V449.148ZM120.502 449.148H130.906V451.092H126.82V462H124.57V451.092H120.502V449.148ZM132.936 449.148H142.188V451.092H135.186V454.458H141.666V456.294H135.186V460.056H142.314V462H132.936V449.148ZM144.814 449.148H150.142C151.126 449.148 151.978 449.316 152.698 449.652C153.418 449.988 154.006 450.45 154.462 451.038C154.918 451.614 155.254 452.292 155.47 453.072C155.698 453.852 155.812 454.686 155.812 455.574C155.812 456.462 155.698 457.296 155.47 458.076C155.254 458.856 154.918 459.54 154.462 460.128C154.006 460.704 153.418 461.16 152.698 461.496C151.978 461.832 151.126 462 150.142 462H144.814V449.148ZM147.064 460.164H149.278C150.154 460.164 150.868 460.05 151.42 459.822C151.984 459.582 152.422 459.258 152.734 458.85C153.058 458.43 153.274 457.944 153.382 457.392C153.502 456.828 153.562 456.222 153.562 455.574C153.562 454.926 153.502 454.326 153.382 453.774C153.274 453.21 153.058 452.724 152.734 452.316C152.422 451.896 151.984 451.572 151.42 451.344C150.868 451.104 150.154 450.984 149.278 450.984H147.064V460.164ZM163.894 449.148H169.564C170.476 449.148 171.22 449.28 171.796 449.544C172.372 449.808 172.816 450.138 173.128 450.534C173.44 450.93 173.65 451.362 173.758 451.83C173.878 452.298 173.938 452.73 173.938 453.126C173.938 453.522 173.878 453.954 173.758 454.422C173.65 454.878 173.44 455.304 173.128 455.7C172.816 456.096 172.372 456.426 171.796 456.69C171.22 456.942 170.476 457.068 169.564 457.068H166.144V462H163.894V449.148ZM166.144 455.232H169.438C169.69 455.232 169.948 455.196 170.212 455.124C170.476 455.052 170.716 454.938 170.932 454.782C171.16 454.614 171.34 454.398 171.472 454.134C171.616 453.858 171.688 453.516 171.688 453.108C171.688 452.688 171.628 452.34 171.508 452.064C171.388 451.788 171.226 451.572 171.022 451.416C170.818 451.248 170.584 451.134 170.32 451.074C170.056 451.014 169.774 450.984 169.474 450.984H166.144V455.232ZM176.44 449.148H182.578C183.994 449.148 185.056 449.454 185.764 450.066C186.472 450.678 186.826 451.53 186.826 452.622C186.826 453.234 186.736 453.744 186.556 454.152C186.376 454.548 186.166 454.872 185.926 455.124C185.686 455.364 185.446 455.538 185.206 455.646C184.978 455.754 184.81 455.826 184.702 455.862V455.898C184.894 455.922 185.098 455.982 185.314 456.078C185.542 456.174 185.752 456.33 185.944 456.546C186.136 456.75 186.292 457.02 186.412 457.356C186.544 457.692 186.61 458.112 186.61 458.616C186.61 459.372 186.664 460.062 186.772 460.686C186.892 461.298 187.072 461.736 187.312 462H184.9C184.732 461.724 184.63 461.418 184.594 461.082C184.57 460.746 184.558 460.422 184.558 460.11C184.558 459.522 184.522 459.018 184.45 458.598C184.378 458.166 184.246 457.812 184.054 457.536C183.862 457.248 183.598 457.038 183.262 456.906C182.938 456.774 182.518 456.708 182.002 456.708H178.69V462H176.44V449.148ZM178.69 454.998H182.38C183.1 454.998 183.646 454.83 184.018 454.494C184.39 454.146 184.576 453.63 184.576 452.946C184.576 452.538 184.516 452.208 184.396 451.956C184.276 451.692 184.108 451.488 183.892 451.344C183.688 451.2 183.448 451.104 183.172 451.056C182.908 451.008 182.632 450.984 182.344 450.984H178.69V454.998ZM195.126 450.678C194.442 450.678 193.848 450.816 193.344 451.092C192.852 451.368 192.45 451.74 192.138 452.208C191.826 452.664 191.592 453.186 191.436 453.774C191.292 454.362 191.22 454.962 191.22 455.574C191.22 456.186 191.292 456.786 191.436 457.374C191.592 457.962 191.826 458.49 192.138 458.958C192.45 459.414 192.852 459.78 193.344 460.056C193.848 460.332 194.442 460.47 195.126 460.47C195.81 460.47 196.398 460.332 196.89 460.056C197.394 459.78 197.802 459.414 198.114 458.958C198.426 458.49 198.654 457.962 198.798 457.374C198.954 456.786 199.032 456.186 199.032 455.574C199.032 454.962 198.954 454.362 198.798 453.774C198.654 453.186 198.426 452.664 198.114 452.208C197.802 451.74 197.394 451.368 196.89 451.092C196.398 450.816 195.81 450.678 195.126 450.678ZM195.126 448.842C196.086 448.842 196.944 449.022 197.7 449.382C198.468 449.742 199.116 450.228 199.644 450.84C200.172 451.452 200.574 452.166 200.85 452.982C201.138 453.798 201.282 454.662 201.282 455.574C201.282 456.498 201.138 457.368 200.85 458.184C200.574 459 200.172 459.714 199.644 460.326C199.116 460.938 198.468 461.424 197.7 461.784C196.944 462.132 196.086 462.306 195.126 462.306C194.166 462.306 193.302 462.132 192.534 461.784C191.778 461.424 191.136 460.938 190.608 460.326C190.08 459.714 189.672 459 189.384 458.184C189.108 457.368 188.97 456.498 188.97 455.574C188.97 454.662 189.108 453.798 189.384 452.982C189.672 452.166 190.08 451.452 190.608 450.84C191.136 450.228 191.778 449.742 192.534 449.382C193.302 449.022 194.166 448.842 195.126 448.842ZM203.869 449.148H209.539C210.451 449.148 211.195 449.28 211.771 449.544C212.347 449.808 212.791 450.138 213.103 450.534C213.415 450.93 213.625 451.362 213.733 451.83C213.853 452.298 213.913 452.73 213.913 453.126C213.913 453.522 213.853 453.954 213.733 454.422C213.625 454.878 213.415 455.304 213.103 455.7C212.791 456.096 212.347 456.426 211.771 456.69C211.195 456.942 210.451 457.068 209.539 457.068H206.119V462H203.869V449.148ZM206.119 455.232H209.413C209.665 455.232 209.923 455.196 210.187 455.124C210.451 455.052 210.691 454.938 210.907 454.782C211.135 454.614 211.315 454.398 211.447 454.134C211.591 453.858 211.663 453.516 211.663 453.108C211.663 452.688 211.603 452.34 211.483 452.064C211.363 451.788 211.201 451.572 210.997 451.416C210.793 451.248 210.559 451.134 210.295 451.074C210.031 451.014 209.749 450.984 209.449 450.984H206.119V455.232ZM216.415 449.148H225.667V451.092H218.665V454.458H225.145V456.294H218.665V460.056H225.793V462H216.415V449.148ZM228.293 449.148H234.431C235.847 449.148 236.909 449.454 237.617 450.066C238.325 450.678 238.679 451.53 238.679 452.622C238.679 453.234 238.589 453.744 238.409 454.152C238.229 454.548 238.019 454.872 237.779 455.124C237.539 455.364 237.299 455.538 237.059 455.646C236.831 455.754 236.663 455.826 236.555 455.862V455.898C236.747 455.922 236.951 455.982 237.167 456.078C237.395 456.174 237.605 456.33 237.797 456.546C237.989 456.75 238.145 457.02 238.265 457.356C238.397 457.692 238.463 458.112 238.463 458.616C238.463 459.372 238.517 460.062 238.625 460.686C238.745 461.298 238.925 461.736 239.165 462H236.753C236.585 461.724 236.483 461.418 236.447 461.082C236.423 460.746 236.411 460.422 236.411 460.11C236.411 459.522 236.375 459.018 236.303 458.598C236.231 458.166 236.099 457.812 235.907 457.536C235.715 457.248 235.451 457.038 235.115 456.906C234.791 456.774 234.371 456.708 233.855 456.708H230.543V462H228.293V449.148ZM230.543 454.998H234.233C234.953 454.998 235.499 454.83 235.871 454.494C236.243 454.146 236.429 453.63 236.429 452.946C236.429 452.538 236.369 452.208 236.249 451.956C236.129 451.692 235.961 451.488 235.745 451.344C235.541 451.2 235.301 451.104 235.025 451.056C234.761 451.008 234.485 450.984 234.197 450.984H230.543V454.998ZM239.967 449.148H250.371V451.092H246.285V462H244.035V451.092H239.967V449.148ZM252.401 449.148H254.651V462H252.401V449.148ZM257.95 449.148H267.202V451.092H260.2V454.458H266.68V456.294H260.2V460.056H267.328V462H257.95V449.148ZM271.304 457.716C271.304 458.208 271.388 458.628 271.556 458.976C271.724 459.324 271.958 459.612 272.258 459.84C272.558 460.056 272.9 460.218 273.284 460.326C273.68 460.422 274.106 460.47 274.562 460.47C275.054 460.47 275.474 460.416 275.822 460.308C276.17 460.188 276.452 460.038 276.668 459.858C276.884 459.678 277.04 459.474 277.136 459.246C277.232 459.006 277.28 458.766 277.28 458.526C277.28 458.034 277.166 457.674 276.938 457.446C276.722 457.206 276.482 457.038 276.218 456.942C275.762 456.774 275.228 456.618 274.616 456.474C274.016 456.318 273.272 456.12 272.384 455.88C271.832 455.736 271.37 455.55 270.998 455.322C270.638 455.082 270.35 454.818 270.134 454.53C269.918 454.242 269.762 453.936 269.666 453.612C269.582 453.288 269.54 452.958 269.54 452.622C269.54 451.974 269.672 451.416 269.936 450.948C270.212 450.468 270.572 450.072 271.016 449.76C271.46 449.448 271.964 449.22 272.528 449.076C273.092 448.92 273.662 448.842 274.238 448.842C274.91 448.842 275.54 448.932 276.128 449.112C276.728 449.28 277.25 449.538 277.694 449.886C278.15 450.234 278.51 450.666 278.774 451.182C279.038 451.686 279.17 452.274 279.17 452.946H276.92C276.86 452.118 276.578 451.536 276.074 451.2C275.57 450.852 274.928 450.678 274.148 450.678C273.884 450.678 273.614 450.708 273.338 450.768C273.062 450.816 272.81 450.906 272.582 451.038C272.354 451.158 272.162 451.326 272.006 451.542C271.862 451.758 271.79 452.028 271.79 452.352C271.79 452.808 271.928 453.168 272.204 453.432C272.492 453.684 272.864 453.876 273.32 454.008C273.368 454.02 273.554 454.074 273.878 454.17C274.214 454.254 274.586 454.35 274.994 454.458C275.402 454.566 275.798 454.674 276.182 454.782C276.578 454.878 276.86 454.95 277.028 454.998C277.448 455.13 277.814 455.31 278.126 455.538C278.438 455.766 278.696 456.03 278.9 456.33C279.116 456.618 279.272 456.93 279.368 457.266C279.476 457.602 279.53 457.938 279.53 458.274C279.53 458.994 279.38 459.612 279.08 460.128C278.792 460.632 278.408 461.046 277.928 461.37C277.448 461.694 276.902 461.928 276.29 462.072C275.678 462.228 275.054 462.306 274.418 462.306C273.686 462.306 272.996 462.216 272.348 462.036C271.7 461.856 271.136 461.58 270.656 461.208C270.176 460.836 269.792 460.362 269.504 459.786C269.216 459.198 269.066 458.508 269.054 457.716H271.304Z"
    fill="#2E2E2E" />
  <line x1="40" y1="483.5" x2="783" y2="483.5" stroke="#DDDDDD" />
  <line x1="40" y1="523.5" x2="783" y2="523.5" stroke="#DDDDDD" />
  <line x1="40" y1="565.5" x2="783" y2="565.5" stroke="#DDDDDD" />
  <path d="M308 403.5V359H90V327.5" stroke="#F1A381" stroke-width="2" />
  <path d="M247 547H308V404" stroke="#D91E18" stroke-width="2" />
  <circle cx="247" cy="547" r="3" fill="#D91E18" />
  <circle cx="90" cy="327" r="3" fill="#F1A381" />
  <rect x="50.75" y="94.75" width="598.5" height="57.5" rx="3.25" fill="white" stroke="#434343" stroke-width="1.5" />
  <path
    d="M71.0742 118.539C71.1055 117.664 71.2578 117.023 71.5312 116.617C72.0234 115.898 72.9727 115.539 74.3789 115.539C74.5117 115.539 74.6484 115.543 74.7891 115.551C74.9297 115.559 75.0898 115.57 75.2695 115.586V117.508C75.0508 117.492 74.8906 117.484 74.7891 117.484C74.6953 117.477 74.6055 117.473 74.5195 117.473C73.8789 117.473 73.4961 117.641 73.3711 117.977C73.2461 118.305 73.1836 119.148 73.1836 120.508H75.2695V122.172H73.1602V133H71.0742V122.172H69.3281V120.508H71.0742V118.539ZM77.2852 120.449H79.2891V122.617C79.4531 122.195 79.8555 121.684 80.4961 121.082C81.1367 120.473 81.875 120.168 82.7109 120.168C82.75 120.168 82.8164 120.172 82.9102 120.18C83.0039 120.188 83.1641 120.203 83.3906 120.227V122.453C83.2656 122.43 83.1484 122.414 83.0391 122.406C82.9375 122.398 82.8242 122.395 82.6992 122.395C81.6367 122.395 80.8203 122.738 80.25 123.426C79.6797 124.105 79.3945 124.891 79.3945 125.781V133H77.2852V120.449ZM90.4453 120.168C91.3359 120.168 92.1992 120.379 93.0352 120.801C93.8711 121.215 94.5078 121.754 94.9453 122.418C95.3672 123.051 95.6484 123.789 95.7891 124.633C95.9141 125.211 95.9766 126.133 95.9766 127.398H86.7773C86.8164 128.672 87.1172 129.695 87.6797 130.469C88.2422 131.234 89.1133 131.617 90.293 131.617C91.3945 131.617 92.2734 131.254 92.9297 130.527C93.3047 130.105 93.5703 129.617 93.7266 129.062H95.8008C95.7461 129.523 95.5625 130.039 95.25 130.609C94.9453 131.172 94.6016 131.633 94.2188 131.992C93.5781 132.617 92.7852 133.039 91.8398 133.258C91.332 133.383 90.7578 133.445 90.1172 133.445C88.5547 133.445 87.2305 132.879 86.1445 131.746C85.0586 130.605 84.5156 129.012 84.5156 126.965C84.5156 124.949 85.0625 123.312 86.1562 122.055C87.25 120.797 88.6797 120.168 90.4453 120.168ZM93.8086 125.723C93.7227 124.809 93.5234 124.078 93.2109 123.531C92.6328 122.516 91.668 122.008 90.3164 122.008C89.3477 122.008 88.5352 122.359 87.8789 123.062C87.2227 123.758 86.875 124.645 86.8359 125.723H93.8086ZM98.5781 120.449H100.582V122.23C101.176 121.496 101.805 120.969 102.469 120.648C103.133 120.328 103.871 120.168 104.684 120.168C106.465 120.168 107.668 120.789 108.293 122.031C108.637 122.711 108.809 123.684 108.809 124.949V133H106.664V125.09C106.664 124.324 106.551 123.707 106.324 123.238C105.949 122.457 105.27 122.066 104.285 122.066C103.785 122.066 103.375 122.117 103.055 122.219C102.477 122.391 101.969 122.734 101.531 123.25C101.18 123.664 100.949 124.094 100.84 124.539C100.738 124.977 100.688 125.605 100.688 126.426V133H98.5781V120.449ZM116.777 120.086C118.191 120.086 119.34 120.43 120.223 121.117C121.113 121.805 121.648 122.988 121.828 124.668H119.777C119.652 123.895 119.367 123.254 118.922 122.746C118.477 122.23 117.762 121.973 116.777 121.973C115.434 121.973 114.473 122.629 113.895 123.941C113.52 124.793 113.332 125.844 113.332 127.094C113.332 128.352 113.598 129.41 114.129 130.27C114.66 131.129 115.496 131.559 116.637 131.559C117.512 131.559 118.203 131.293 118.711 130.762C119.227 130.223 119.582 129.488 119.777 128.559H121.828C121.594 130.223 121.008 131.441 120.07 132.215C119.133 132.98 117.934 133.363 116.473 133.363C114.832 133.363 113.523 132.766 112.547 131.57C111.57 130.367 111.082 128.867 111.082 127.07C111.082 124.867 111.617 123.152 112.688 121.926C113.758 120.699 115.121 120.086 116.777 120.086ZM123.938 115.727H126.047V122.148C126.547 121.516 126.996 121.07 127.395 120.812C128.074 120.367 128.922 120.145 129.938 120.145C131.758 120.145 132.992 120.781 133.641 122.055C133.992 122.75 134.168 123.715 134.168 124.949V133H132V125.09C132 124.168 131.883 123.492 131.648 123.062C131.266 122.375 130.547 122.031 129.492 122.031C128.617 122.031 127.824 122.332 127.113 122.934C126.402 123.535 126.047 124.672 126.047 126.344V133H123.938V115.727ZM148.957 131.641C150.355 131.641 151.312 131.113 151.828 130.059C152.352 128.996 152.613 127.816 152.613 126.52C152.613 125.348 152.426 124.395 152.051 123.66C151.457 122.504 150.434 121.926 148.98 121.926C147.691 121.926 146.754 122.418 146.168 123.402C145.582 124.387 145.289 125.574 145.289 126.965C145.289 128.301 145.582 129.414 146.168 130.305C146.754 131.195 147.684 131.641 148.957 131.641ZM149.039 120.086C150.656 120.086 152.023 120.625 153.141 121.703C154.258 122.781 154.816 124.367 154.816 126.461C154.816 128.484 154.324 130.156 153.34 131.477C152.355 132.797 150.828 133.457 148.758 133.457C147.031 133.457 145.66 132.875 144.645 131.711C143.629 130.539 143.121 128.969 143.121 127C143.121 124.891 143.656 123.211 144.727 121.961C145.797 120.711 147.234 120.086 149.039 120.086ZM157.336 120.449H159.34V122.23C159.934 121.496 160.562 120.969 161.227 120.648C161.891 120.328 162.629 120.168 163.441 120.168C165.223 120.168 166.426 120.789 167.051 122.031C167.395 122.711 167.566 123.684 167.566 124.949V133H165.422V125.09C165.422 124.324 165.309 123.707 165.082 123.238C164.707 122.457 164.027 122.066 163.043 122.066C162.543 122.066 162.133 122.117 161.812 122.219C161.234 122.391 160.727 122.734 160.289 123.25C159.938 123.664 159.707 124.094 159.598 124.539C159.496 124.977 159.445 125.605 159.445 126.426V133H157.336V120.449ZM170.695 120.508H172.84V133H170.695V120.508ZM170.695 115.785H172.84V118.176H170.695V115.785ZM181.02 131.641C182.418 131.641 183.375 131.113 183.891 130.059C184.414 128.996 184.676 127.816 184.676 126.52C184.676 125.348 184.488 124.395 184.113 123.66C183.52 122.504 182.496 121.926 181.043 121.926C179.754 121.926 178.816 122.418 178.23 123.402C177.645 124.387 177.352 125.574 177.352 126.965C177.352 128.301 177.645 129.414 178.23 130.305C178.816 131.195 179.746 131.641 181.02 131.641ZM181.102 120.086C182.719 120.086 184.086 120.625 185.203 121.703C186.32 122.781 186.879 124.367 186.879 126.461C186.879 128.484 186.387 130.156 185.402 131.477C184.418 132.797 182.891 133.457 180.82 133.457C179.094 133.457 177.723 132.875 176.707 131.711C175.691 130.539 175.184 128.969 175.184 127C175.184 124.891 175.719 123.211 176.789 121.961C177.859 120.711 179.297 120.086 181.102 120.086ZM189.398 120.449H191.402V122.23C191.996 121.496 192.625 120.969 193.289 120.648C193.953 120.328 194.691 120.168 195.504 120.168C197.285 120.168 198.488 120.789 199.113 122.031C199.457 122.711 199.629 123.684 199.629 124.949V133H197.484V125.09C197.484 124.324 197.371 123.707 197.145 123.238C196.77 122.457 196.09 122.066 195.105 122.066C194.605 122.066 194.195 122.117 193.875 122.219C193.297 122.391 192.789 122.734 192.352 123.25C192 123.664 191.77 124.094 191.66 124.539C191.559 124.977 191.508 125.605 191.508 126.426V133H189.398V120.449Z"
    fill="#434343" />
  <path
    d="M52.1328 55.875H66.4199V59.416H56.3164V64.0508H65.1621V67.5508H56.3164V76H52.1328V55.875ZM77.1523 68.7539C76.9062 68.9089 76.6556 69.0365 76.4004 69.1367C76.1543 69.2279 75.8125 69.3145 75.375 69.3965L74.5 69.5605C73.6797 69.7064 73.0918 69.8841 72.7363 70.0938C72.1348 70.4492 71.834 71.0007 71.834 71.748C71.834 72.4134 72.0163 72.8965 72.3809 73.1973C72.7546 73.4889 73.2057 73.6348 73.7344 73.6348C74.5729 73.6348 75.3431 73.3887 76.0449 72.8965C76.7559 72.4043 77.125 71.5065 77.1523 70.2031V68.7539ZM74.7871 66.9355C75.5072 66.8444 76.0221 66.7305 76.332 66.5938C76.888 66.3568 77.166 65.9876 77.166 65.4863C77.166 64.8757 76.9518 64.4564 76.5234 64.2285C76.1042 63.9915 75.4844 63.873 74.6641 63.873C73.7435 63.873 73.0918 64.1009 72.709 64.5566C72.4355 64.8939 72.2533 65.3496 72.1621 65.9238H68.4023C68.4844 64.6204 68.849 63.5495 69.4961 62.7109C70.526 61.3984 72.2943 60.7422 74.8008 60.7422C76.4323 60.7422 77.8815 61.0658 79.1484 61.7129C80.4154 62.36 81.0488 63.5814 81.0488 65.377V72.2129C81.0488 72.6868 81.0579 73.2611 81.0762 73.9355C81.1035 74.446 81.181 74.7923 81.3086 74.9746C81.4362 75.1569 81.6276 75.3073 81.8828 75.4258V76H77.6445C77.526 75.6992 77.444 75.4167 77.3984 75.1523C77.3529 74.888 77.3164 74.5872 77.2891 74.25C76.7513 74.8333 76.1315 75.3301 75.4297 75.7402C74.5911 76.2233 73.6432 76.4648 72.5859 76.4648C71.237 76.4648 70.1204 76.082 69.2363 75.3164C68.3613 74.5417 67.9238 73.4479 67.9238 72.0352C67.9238 70.2031 68.6302 68.877 70.043 68.0566C70.8177 67.61 71.957 67.291 73.4609 67.0996L74.7871 66.9355ZM93.709 61.0977H97.8926L92.5195 76H88.4043L83.0586 61.0977H87.4336L90.5371 72.0898L93.709 61.0977ZM106.793 73.252C107.932 73.252 108.807 72.8464 109.418 72.0352C110.029 71.224 110.334 70.071 110.334 68.5762C110.334 67.0814 110.029 65.9329 109.418 65.1309C108.807 64.3197 107.932 63.9141 106.793 63.9141C105.654 63.9141 104.774 64.3197 104.154 65.1309C103.544 65.9329 103.238 67.0814 103.238 68.5762C103.238 70.071 103.544 71.224 104.154 72.0352C104.774 72.8464 105.654 73.252 106.793 73.252ZM114.422 68.5762C114.422 70.7637 113.793 72.6367 112.535 74.1953C111.277 75.7448 109.368 76.5195 106.807 76.5195C104.245 76.5195 102.336 75.7448 101.078 74.1953C99.8203 72.6367 99.1914 70.7637 99.1914 68.5762C99.1914 66.4251 99.8203 64.5612 101.078 62.9844C102.336 61.4076 104.245 60.6191 106.807 60.6191C109.368 60.6191 111.277 61.4076 112.535 62.9844C113.793 64.5612 114.422 66.4251 114.422 68.5762ZM125.318 60.7422C125.391 60.7422 125.451 60.7467 125.496 60.7559C125.551 60.7559 125.665 60.7604 125.838 60.7695V64.7617C125.592 64.7344 125.373 64.7161 125.182 64.707C124.99 64.6979 124.835 64.6934 124.717 64.6934C123.149 64.6934 122.096 65.2038 121.559 66.2246C121.258 66.7988 121.107 67.6829 121.107 68.877V76H117.184V61.0977H120.902V63.6953C121.504 62.7018 122.028 62.0228 122.475 61.6582C123.204 61.0475 124.152 60.7422 125.318 60.7422ZM132.141 59.3203H128.189V55.7246H132.141V59.3203ZM128.189 61.0977H132.141V76H128.189V61.0977ZM134.396 64.0098V61.2344H136.475V57.0781H140.33V61.2344H142.75V64.0098H140.33V71.8848C140.33 72.4954 140.408 72.8783 140.562 73.0332C140.717 73.179 141.191 73.252 141.984 73.252C142.103 73.252 142.226 73.252 142.354 73.252C142.49 73.2428 142.622 73.2337 142.75 73.2246V76.1367L140.904 76.2051C139.063 76.2689 137.805 75.9499 137.131 75.248C136.693 74.8014 136.475 74.1133 136.475 73.1836V64.0098H134.396ZM151.131 63.9141C150.229 63.9141 149.527 64.1966 149.025 64.7617C148.533 65.3268 148.223 66.0924 148.096 67.0586H154.152C154.089 66.0286 153.774 65.2493 153.209 64.7207C152.653 64.1829 151.96 63.9141 151.131 63.9141ZM151.131 60.7012C152.37 60.7012 153.487 60.9336 154.48 61.3984C155.474 61.8633 156.294 62.597 156.941 63.5996C157.525 64.4837 157.903 65.5091 158.076 66.6758C158.176 67.3594 158.217 68.3438 158.199 69.6289H148C148.055 71.1237 148.524 72.1719 149.408 72.7734C149.946 73.1471 150.593 73.334 151.35 73.334C152.152 73.334 152.803 73.1061 153.305 72.6504C153.578 72.4043 153.82 72.0625 154.029 71.625H158.008C157.908 72.5091 157.447 73.4069 156.627 74.3184C155.351 75.7676 153.564 76.4922 151.268 76.4922C149.372 76.4922 147.699 75.8815 146.25 74.6602C144.801 73.4388 144.076 71.4518 144.076 68.6992C144.076 66.1198 144.728 64.1419 146.031 62.7656C147.344 61.3893 149.044 60.7012 151.131 60.7012ZM168.59 55.916H172.418V66.7715L177.271 61.166H182.098L176.889 66.8672L182.303 76H177.6L174.031 69.6289L172.418 71.3105V76H168.59V55.916ZM188.223 59.3203H184.271V55.7246H188.223V59.3203ZM184.271 61.0977H188.223V76H184.271V61.0977ZM200.268 60.7422C201.808 60.7422 203.066 61.1478 204.041 61.959C205.025 62.7611 205.518 64.0964 205.518 65.9648V76H201.525V66.9355C201.525 66.1517 201.421 65.5501 201.211 65.1309C200.828 64.3652 200.099 63.9824 199.023 63.9824C197.702 63.9824 196.795 64.543 196.303 65.6641C196.048 66.2565 195.92 67.013 195.92 67.9336V76H192.037V61.125H195.797V63.2988C196.298 62.5332 196.772 61.9818 197.219 61.6445C198.021 61.043 199.037 60.7422 200.268 60.7422ZM214.623 60.7422C215.525 60.7422 216.327 60.9427 217.029 61.3438C217.731 61.7357 218.301 62.2826 218.738 62.9844V55.875H222.689V76H218.902V73.9355C218.346 74.8197 217.713 75.4622 217.002 75.8633C216.291 76.2643 215.407 76.4648 214.35 76.4648C212.609 76.4648 211.141 75.763 209.947 74.3594C208.762 72.9466 208.17 71.1374 208.17 68.9316C208.17 66.3887 208.753 64.388 209.92 62.9297C211.096 61.4714 212.663 60.7422 214.623 60.7422ZM215.471 73.1836C216.574 73.1836 217.412 72.7734 217.986 71.9531C218.561 71.1328 218.848 70.071 218.848 68.7676C218.848 66.9447 218.387 65.6413 217.467 64.8574C216.902 64.3835 216.245 64.1465 215.498 64.1465C214.359 64.1465 213.52 64.5794 212.982 65.4453C212.454 66.3021 212.189 67.3685 212.189 68.6445C212.189 70.0208 212.458 71.1237 212.996 71.9531C213.543 72.7734 214.368 73.1836 215.471 73.1836ZM240.723 73.252C241.862 73.252 242.737 72.8464 243.348 72.0352C243.958 71.224 244.264 70.071 244.264 68.5762C244.264 67.0814 243.958 65.9329 243.348 65.1309C242.737 64.3197 241.862 63.9141 240.723 63.9141C239.583 63.9141 238.704 64.3197 238.084 65.1309C237.473 65.9329 237.168 67.0814 237.168 68.5762C237.168 70.071 237.473 71.224 238.084 72.0352C238.704 72.8464 239.583 73.252 240.723 73.252ZM248.352 68.5762C248.352 70.7637 247.723 72.6367 246.465 74.1953C245.207 75.7448 243.298 76.5195 240.736 76.5195C238.175 76.5195 236.266 75.7448 235.008 74.1953C233.75 72.6367 233.121 70.7637 233.121 68.5762C233.121 66.4251 233.75 64.5612 235.008 62.9844C236.266 61.4076 238.175 60.6191 240.736 60.6191C243.298 60.6191 245.207 61.4076 246.465 62.9844C247.723 64.5612 248.352 66.4251 248.352 68.5762ZM256.65 55.6426C256.896 55.6426 257.12 55.6517 257.32 55.6699C257.521 55.679 257.794 55.6973 258.141 55.7246V58.8965C257.922 58.8691 257.553 58.8509 257.033 58.8418C256.523 58.8236 256.167 58.9375 255.967 59.1836C255.775 59.4206 255.68 59.6849 255.68 59.9766C255.68 60.2682 255.68 60.6875 255.68 61.2344H258.236V63.9824H255.68V76H251.797V63.9824H249.623V61.2344H251.756V60.2773C251.756 58.6823 252.025 57.584 252.562 56.9824C253.128 56.0892 254.49 55.6426 256.65 55.6426ZM271.307 71.2422C271.389 71.9349 271.566 72.4271 271.84 72.7188C272.323 73.2383 273.216 73.498 274.52 73.498C275.285 73.498 275.891 73.3841 276.338 73.1562C276.794 72.9284 277.021 72.5866 277.021 72.1309C277.021 71.6934 276.839 71.3607 276.475 71.1328C276.11 70.9049 274.757 70.513 272.414 69.957C270.728 69.5378 269.538 69.0137 268.846 68.3848C268.153 67.765 267.807 66.8717 267.807 65.7051C267.807 64.3288 268.344 63.1484 269.42 62.1641C270.505 61.1706 272.027 60.6738 273.986 60.6738C275.846 60.6738 277.359 61.0475 278.525 61.7949C279.701 62.5332 280.376 63.8138 280.549 65.6367H276.652C276.598 65.1354 276.456 64.7389 276.229 64.4473C275.8 63.9186 275.071 63.6543 274.041 63.6543C273.193 63.6543 272.587 63.7865 272.223 64.0508C271.867 64.3151 271.689 64.625 271.689 64.9805C271.689 65.4271 271.881 65.7507 272.264 65.9512C272.646 66.1608 274 66.5208 276.324 67.0312C277.874 67.3958 279.036 67.9473 279.811 68.6855C280.576 69.4329 280.959 70.3672 280.959 71.4883C280.959 72.9648 280.408 74.1725 279.305 75.1113C278.211 76.041 276.516 76.5059 274.219 76.5059C271.876 76.5059 270.145 76.0137 269.023 75.0293C267.911 74.0358 267.355 72.7734 267.355 71.2422H271.307ZM290.543 73.252C291.682 73.252 292.557 72.8464 293.168 72.0352C293.779 71.224 294.084 70.071 294.084 68.5762C294.084 67.0814 293.779 65.9329 293.168 65.1309C292.557 64.3197 291.682 63.9141 290.543 63.9141C289.404 63.9141 288.524 64.3197 287.904 65.1309C287.294 65.9329 286.988 67.0814 286.988 68.5762C286.988 70.071 287.294 71.224 287.904 72.0352C288.524 72.8464 289.404 73.252 290.543 73.252ZM298.172 68.5762C298.172 70.7637 297.543 72.6367 296.285 74.1953C295.027 75.7448 293.118 76.5195 290.557 76.5195C287.995 76.5195 286.086 75.7448 284.828 74.1953C283.57 72.6367 282.941 70.7637 282.941 68.5762C282.941 66.4251 283.57 64.5612 284.828 62.9844C286.086 61.4076 287.995 60.6191 290.557 60.6191C293.118 60.6191 295.027 61.4076 296.285 62.9844C297.543 64.5612 298.172 66.4251 298.172 68.5762ZM304.857 61.0977V70.0801C304.857 70.9277 304.958 71.5658 305.158 71.9941C305.514 72.7507 306.211 73.1289 307.25 73.1289C308.581 73.1289 309.492 72.5911 309.984 71.5156C310.24 70.9323 310.367 70.1621 310.367 69.2051V61.0977H314.318V76H310.531V73.8945C310.495 73.9401 310.404 74.0768 310.258 74.3047C310.112 74.5326 309.939 74.7331 309.738 74.9062C309.128 75.4531 308.535 75.8268 307.961 76.0273C307.396 76.2279 306.73 76.3281 305.965 76.3281C303.759 76.3281 302.273 75.5352 301.508 73.9492C301.079 73.0742 300.865 71.7845 300.865 70.0801V61.0977H304.857ZM328.359 68.5488C328.359 67.4004 328.095 66.3841 327.566 65.5C327.047 64.6159 326.199 64.1738 325.023 64.1738C323.611 64.1738 322.64 64.8438 322.111 66.1836C321.838 66.8945 321.701 67.7969 321.701 68.8906C321.701 70.6224 322.161 71.8392 323.082 72.541C323.629 72.9512 324.276 73.1562 325.023 73.1562C326.108 73.1562 326.933 72.737 327.498 71.8984C328.072 71.0599 328.359 69.9434 328.359 68.5488ZM326.145 60.7695C327.885 60.7695 329.357 61.4121 330.561 62.6973C331.773 63.9824 332.379 65.8691 332.379 68.3574C332.379 70.9824 331.786 72.9831 330.602 74.3594C329.426 75.7357 327.908 76.4238 326.049 76.4238C324.864 76.4238 323.88 76.1276 323.096 75.5352C322.667 75.207 322.248 74.7285 321.838 74.0996V81.8652H317.982V61.0977H321.715V63.2988C322.134 62.6517 322.581 62.1413 323.055 61.7676C323.921 61.1022 324.951 60.7695 326.145 60.7695ZM340.062 72.0488H344.137V76H340.062V72.0488ZM335.072 62.2051C335.182 59.6074 336.089 57.7663 337.793 56.6816C338.868 55.9889 340.19 55.6426 341.758 55.6426C343.818 55.6426 345.527 56.1348 346.885 57.1191C348.252 58.1035 348.936 59.5618 348.936 61.4941C348.936 62.679 348.639 63.6771 348.047 64.4883C347.701 64.9805 347.035 65.6094 346.051 66.375L345.08 67.127C344.551 67.5371 344.201 68.0156 344.027 68.5625C343.918 68.9089 343.859 69.4466 343.85 70.1758H340.158C340.213 68.6354 340.359 67.5736 340.596 66.9902C340.833 66.3978 341.443 65.7188 342.428 64.9531L343.426 64.1738C343.754 63.9277 344.018 63.6589 344.219 63.3672C344.583 62.8659 344.766 62.3145 344.766 61.7129C344.766 61.0202 344.561 60.3913 344.15 59.8262C343.749 59.252 343.011 58.9648 341.936 58.9648C340.878 58.9648 340.126 59.3158 339.68 60.0176C339.242 60.7194 339.023 61.4486 339.023 62.2051H335.072Z"
    fill="#007299" />
</svg>
