<svg width="589" height="203" viewBox="0 0 589 203" fill="none" xmlns="http://www.w3.org/2000/svg">
<rect width="589" height="203" fill="white"/>
<path d="M47 50C48.1 50 49 49.1 49 48C49 46.9 48.1 46 47 46C45.9 46 45 46.9 45 48C45 49.1 45.9 50 47 50ZM47 52C45.9 52 45 52.9 45 54C45 55.1 45.9 56 47 56C48.1 56 49 55.1 49 54C49 52.9 48.1 52 47 52ZM47 58C45.9 58 45 58.9 45 60C45 61.1 45.9 62 47 62C48.1 62 49 61.1 49 60C49 58.9 48.1 58 47 58Z" fill="#202124"/>
<path d="M71.0938 56.8906C71.0938 57.5677 70.9271 58.151 70.5938 58.6406C70.2656 59.1302 69.7917 59.5052 69.1719 59.7656C68.5573 60.026 67.8229 60.1562 66.9688 60.1562C66.5521 60.1562 66.1536 60.1328 65.7734 60.0859C65.3932 60.0391 65.0339 59.9714 64.6953 59.8828C64.362 59.7891 64.0573 59.6771 63.7812 59.5469V57.7812C64.2448 57.9844 64.763 58.1693 65.3359 58.3359C65.9089 58.4974 66.4922 58.5781 67.0859 58.5781C67.5703 58.5781 67.9714 58.5156 68.2891 58.3906C68.612 58.2604 68.8516 58.0781 69.0078 57.8438C69.1641 57.6042 69.2422 57.3255 69.2422 57.0078C69.2422 56.6693 69.151 56.3828 68.9688 56.1484C68.7865 55.9141 68.5104 55.7005 68.1406 55.5078C67.776 55.3099 67.3177 55.099 66.7656 54.875C66.3906 54.724 66.0312 54.5521 65.6875 54.3594C65.349 54.1667 65.0469 53.9401 64.7812 53.6797C64.5156 53.4193 64.3047 53.112 64.1484 52.7578C63.9974 52.3984 63.9219 51.9766 63.9219 51.4922C63.9219 50.8464 64.0755 50.2943 64.3828 49.8359C64.6953 49.3776 65.1328 49.026 65.6953 48.7812C66.263 48.5365 66.9245 48.4141 67.6797 48.4141C68.2786 48.4141 68.8411 48.4766 69.3672 48.6016C69.8984 48.7266 70.4193 48.9036 70.9297 49.1328L70.3359 50.6406C69.8672 50.4479 69.4115 50.2943 68.9688 50.1797C68.5312 50.0651 68.0833 50.0078 67.625 50.0078C67.2292 50.0078 66.8932 50.0677 66.6172 50.1875C66.3411 50.3073 66.1302 50.4766 65.9844 50.6953C65.8438 50.9089 65.7734 51.1641 65.7734 51.4609C65.7734 51.7943 65.8542 52.0755 66.0156 52.3047C66.1823 52.5286 66.4375 52.7344 66.7812 52.9219C67.1302 53.1094 67.5781 53.3177 68.125 53.5469C68.7552 53.8073 69.2891 54.0807 69.7266 54.3672C70.1693 54.6536 70.5078 54.9974 70.7422 55.3984C70.9766 55.7943 71.0938 56.2917 71.0938 56.8906ZM74.9453 47.8438V50.8984C74.9453 51.2161 74.9349 51.526 74.9141 51.8281C74.8984 52.1302 74.8802 52.3646 74.8594 52.5312H74.9609C75.1432 52.2292 75.3672 51.9818 75.6328 51.7891C75.8984 51.5911 76.1953 51.4427 76.5234 51.3438C76.8568 51.2448 77.2109 51.1953 77.5859 51.1953C78.2474 51.1953 78.8099 51.3073 79.2734 51.5312C79.737 51.75 80.0911 52.0911 80.3359 52.5547C80.5859 53.0182 80.7109 53.6198 80.7109 54.3594V60H78.875V54.7031C78.875 54.0312 78.737 53.5286 78.4609 53.1953C78.1849 52.8568 77.7578 52.6875 77.1797 52.6875C76.6224 52.6875 76.1797 52.8047 75.8516 53.0391C75.5286 53.2682 75.2969 53.6094 75.1562 54.0625C75.0156 54.5104 74.9453 55.0573 74.9453 55.7031V60H73.1094V47.8438H74.9453ZM86.6719 51.1875C87.7656 51.1875 88.5911 51.4297 89.1484 51.9141C89.7109 52.3984 89.9922 53.1536 89.9922 54.1797V60H88.6875L88.3359 58.7734H88.2734C88.0286 59.0859 87.776 59.3438 87.5156 59.5469C87.2552 59.75 86.9531 59.901 86.6094 60C86.2708 60.1042 85.8568 60.1562 85.3672 60.1562C84.8516 60.1562 84.3906 60.0625 83.9844 59.875C83.5781 59.6823 83.2578 59.3906 83.0234 59C82.7891 58.6094 82.6719 58.1146 82.6719 57.5156C82.6719 56.625 83.0026 55.9557 83.6641 55.5078C84.3307 55.0599 85.3359 54.8125 86.6797 54.7656L88.1797 54.7109V54.2578C88.1797 53.6589 88.0391 53.2318 87.7578 52.9766C87.4818 52.7214 87.0911 52.5938 86.5859 52.5938C86.1536 52.5938 85.7344 52.6562 85.3281 52.7812C84.9219 52.9062 84.526 53.0599 84.1406 53.2422L83.5469 51.9453C83.9688 51.7214 84.4479 51.5391 84.9844 51.3984C85.526 51.2578 86.0885 51.1875 86.6719 51.1875ZM88.1719 55.8672L87.0547 55.9062C86.138 55.9375 85.4948 56.0938 85.125 56.375C84.7552 56.6562 84.5703 57.0417 84.5703 57.5312C84.5703 57.9583 84.6979 58.2708 84.9531 58.4688C85.2083 58.6615 85.5443 58.7578 85.9609 58.7578C86.5964 58.7578 87.1224 58.5781 87.5391 58.2188C87.9609 57.8542 88.1719 57.3203 88.1719 56.6172V55.8672ZM96.9453 51.1875C97.0911 51.1875 97.25 51.1953 97.4219 51.2109C97.5938 51.2266 97.7422 51.2474 97.8672 51.2734L97.6953 52.9922C97.5859 52.9609 97.4505 52.9375 97.2891 52.9219C97.1328 52.9062 96.9922 52.8984 96.8672 52.8984C96.5391 52.8984 96.2266 52.9531 95.9297 53.0625C95.6328 53.1667 95.3698 53.3281 95.1406 53.5469C94.9115 53.7604 94.7318 54.0286 94.6016 54.3516C94.4714 54.6745 94.4062 55.0495 94.4062 55.4766V60H92.5625V51.3516H94L94.25 52.875H94.3359C94.5078 52.5677 94.7214 52.2865 94.9766 52.0312C95.2318 51.776 95.5234 51.5729 95.8516 51.4219C96.1849 51.2656 96.5495 51.1875 96.9453 51.1875ZM102.914 51.1875C103.685 51.1875 104.346 51.3464 104.898 51.6641C105.451 51.9818 105.875 52.4323 106.172 53.0156C106.469 53.599 106.617 54.2969 106.617 55.1094V56.0938H100.844C100.865 56.9323 101.089 57.5781 101.516 58.0312C101.948 58.4844 102.552 58.7109 103.328 58.7109C103.88 58.7109 104.375 58.6589 104.812 58.5547C105.255 58.4453 105.711 58.2865 106.18 58.0781V59.5703C105.747 59.7734 105.307 59.9219 104.859 60.0156C104.411 60.1094 103.875 60.1562 103.25 60.1562C102.401 60.1562 101.654 59.9922 101.008 59.6641C100.367 59.3307 99.8646 58.8359 99.5 58.1797C99.1406 57.5234 98.9609 56.7083 98.9609 55.7344C98.9609 54.7656 99.125 53.9427 99.4531 53.2656C99.7812 52.5885 100.242 52.0729 100.836 51.7188C101.43 51.3646 102.122 51.1875 102.914 51.1875ZM102.914 52.5703C102.336 52.5703 101.867 52.7578 101.508 53.1328C101.154 53.5078 100.945 54.0573 100.883 54.7812H104.82C104.815 54.349 104.742 53.9661 104.602 53.6328C104.466 53.2995 104.258 53.0391 103.977 52.8516C103.701 52.6641 103.346 52.5703 102.914 52.5703ZM116.234 51.1875C117.328 51.1875 118.154 51.4297 118.711 51.9141C119.273 52.3984 119.555 53.1536 119.555 54.1797V60H118.25L117.898 58.7734H117.836C117.591 59.0859 117.339 59.3438 117.078 59.5469C116.818 59.75 116.516 59.901 116.172 60C115.833 60.1042 115.419 60.1562 114.93 60.1562C114.414 60.1562 113.953 60.0625 113.547 59.875C113.141 59.6823 112.82 59.3906 112.586 59C112.352 58.6094 112.234 58.1146 112.234 57.5156C112.234 56.625 112.565 55.9557 113.227 55.5078C113.893 55.0599 114.898 54.8125 116.242 54.7656L117.742 54.7109V54.2578C117.742 53.6589 117.602 53.2318 117.32 52.9766C117.044 52.7214 116.654 52.5938 116.148 52.5938C115.716 52.5938 115.297 52.6562 114.891 52.7812C114.484 52.9062 114.089 53.0599 113.703 53.2422L113.109 51.9453C113.531 51.7214 114.01 51.5391 114.547 51.3984C115.089 51.2578 115.651 51.1875 116.234 51.1875ZM117.734 55.8672L116.617 55.9062C115.701 55.9375 115.057 56.0938 114.688 56.375C114.318 56.6562 114.133 57.0417 114.133 57.5312C114.133 57.9583 114.26 58.2708 114.516 58.4688C114.771 58.6615 115.107 58.7578 115.523 58.7578C116.159 58.7578 116.685 58.5781 117.102 58.2188C117.523 57.8542 117.734 57.3203 117.734 56.6172V55.8672ZM126.633 51.1875C127.607 51.1875 128.365 51.4401 128.906 51.9453C129.453 52.4453 129.727 53.25 129.727 54.3594V60H127.891V54.7031C127.891 54.0312 127.753 53.5286 127.477 53.1953C127.201 52.8568 126.773 52.6875 126.195 52.6875C125.357 52.6875 124.773 52.9453 124.445 53.4609C124.122 53.9766 123.961 54.724 123.961 55.7031V60H122.125V51.3516H123.555L123.812 52.5234H123.914C124.102 52.2214 124.333 51.974 124.609 51.7812C124.891 51.5833 125.203 51.4349 125.547 51.3359C125.896 51.237 126.258 51.1875 126.633 51.1875ZM135.203 60.1562C134.172 60.1562 133.344 59.7812 132.719 59.0312C132.099 58.276 131.789 57.1641 131.789 55.6953C131.789 54.2109 132.104 53.0885 132.734 52.3281C133.37 51.5677 134.206 51.1875 135.242 51.1875C135.68 51.1875 136.062 51.2474 136.391 51.3672C136.719 51.4818 137 51.638 137.234 51.8359C137.474 52.0339 137.677 52.2552 137.844 52.5H137.93C137.904 52.3385 137.872 52.1068 137.836 51.8047C137.805 51.4974 137.789 51.2135 137.789 50.9531V47.8438H139.633V60H138.195L137.867 58.8203H137.789C137.633 59.0703 137.435 59.2969 137.195 59.5C136.961 59.6979 136.68 59.8568 136.352 59.9766C136.029 60.0964 135.646 60.1562 135.203 60.1562ZM135.719 58.6641C136.505 58.6641 137.06 58.4375 137.383 57.9844C137.706 57.5312 137.872 56.8516 137.883 55.9453V55.7031C137.883 54.7344 137.727 53.9922 137.414 53.4766C137.102 52.9557 136.531 52.6953 135.703 52.6953C135.042 52.6953 134.536 52.9635 134.188 53.5C133.844 54.0312 133.672 54.7734 133.672 55.7266C133.672 56.6797 133.844 57.4089 134.188 57.9141C134.536 58.4141 135.047 58.6641 135.719 58.6641ZM149.906 60.1562C149.089 60.1562 148.38 59.9974 147.781 59.6797C147.182 59.362 146.721 58.875 146.398 58.2188C146.076 57.5625 145.914 56.7292 145.914 55.7188C145.914 54.6667 146.091 53.8073 146.445 53.1406C146.799 52.474 147.289 51.9818 147.914 51.6641C148.544 51.3464 149.266 51.1875 150.078 51.1875C150.594 51.1875 151.06 51.2396 151.477 51.3438C151.898 51.4427 152.255 51.5651 152.547 51.7109L152 53.1797C151.682 53.0495 151.357 52.9401 151.023 52.8516C150.69 52.763 150.37 52.7188 150.062 52.7188C149.557 52.7188 149.135 52.8307 148.797 53.0547C148.464 53.2786 148.214 53.612 148.047 54.0547C147.885 54.4974 147.805 55.0469 147.805 55.7031C147.805 56.3385 147.888 56.875 148.055 57.3125C148.221 57.7448 148.469 58.0729 148.797 58.2969C149.125 58.5156 149.529 58.625 150.008 58.625C150.482 58.625 150.906 58.5677 151.281 58.4531C151.656 58.3385 152.01 58.1901 152.344 58.0078V59.6016C152.016 59.7891 151.664 59.9271 151.289 60.0156C150.914 60.1094 150.453 60.1562 149.906 60.1562ZM156.219 60H154.375V47.8438H156.219V60ZM162.234 51.1875C163.328 51.1875 164.154 51.4297 164.711 51.9141C165.273 52.3984 165.555 53.1536 165.555 54.1797V60H164.25L163.898 58.7734H163.836C163.591 59.0859 163.339 59.3438 163.078 59.5469C162.818 59.75 162.516 59.901 162.172 60C161.833 60.1042 161.419 60.1562 160.93 60.1562C160.414 60.1562 159.953 60.0625 159.547 59.875C159.141 59.6823 158.82 59.3906 158.586 59C158.352 58.6094 158.234 58.1146 158.234 57.5156C158.234 56.625 158.565 55.9557 159.227 55.5078C159.893 55.0599 160.898 54.8125 162.242 54.7656L163.742 54.7109V54.2578C163.742 53.6589 163.602 53.2318 163.32 52.9766C163.044 52.7214 162.654 52.5938 162.148 52.5938C161.716 52.5938 161.297 52.6562 160.891 52.7812C160.484 52.9062 160.089 53.0599 159.703 53.2422L159.109 51.9453C159.531 51.7214 160.01 51.5391 160.547 51.3984C161.089 51.2578 161.651 51.1875 162.234 51.1875ZM163.734 55.8672L162.617 55.9062C161.701 55.9375 161.057 56.0938 160.688 56.375C160.318 56.6562 160.133 57.0417 160.133 57.5312C160.133 57.9583 160.26 58.2708 160.516 58.4688C160.771 58.6615 161.107 58.7578 161.523 58.7578C162.159 58.7578 162.685 58.5781 163.102 58.2188C163.523 57.8542 163.734 57.3203 163.734 56.6172V55.8672ZM169.961 51.3516V60H168.125V51.3516H169.961ZM169.055 48.0391C169.336 48.0391 169.578 48.1146 169.781 48.2656C169.99 48.4167 170.094 48.6771 170.094 49.0469C170.094 49.4115 169.99 49.6719 169.781 49.8281C169.578 49.9792 169.336 50.0547 169.055 50.0547C168.763 50.0547 168.516 49.9792 168.312 49.8281C168.115 49.6719 168.016 49.4115 168.016 49.0469C168.016 48.6771 168.115 48.4167 168.312 48.2656C168.516 48.1146 168.763 48.0391 169.055 48.0391ZM182.367 51.1875C183.336 51.1875 184.065 51.4375 184.555 51.9375C185.049 52.4375 185.297 53.2396 185.297 54.3438V60H183.461V54.6719C183.461 54.0156 183.333 53.5208 183.078 53.1875C182.823 52.8542 182.435 52.6875 181.914 52.6875C181.185 52.6875 180.659 52.9219 180.336 53.3906C180.018 53.8542 179.859 54.5286 179.859 55.4141V60H178.023V54.6719C178.023 54.2344 177.966 53.8698 177.852 53.5781C177.742 53.2812 177.573 53.0599 177.344 52.9141C177.115 52.763 176.826 52.6875 176.477 52.6875C175.971 52.6875 175.568 52.8021 175.266 53.0312C174.969 53.2604 174.755 53.599 174.625 54.0469C174.495 54.4896 174.43 55.0339 174.43 55.6797V60H172.594V51.3516H174.023L174.281 52.5156H174.383C174.56 52.2135 174.779 51.9661 175.039 51.7734C175.305 51.5755 175.599 51.4297 175.922 51.3359C176.245 51.237 176.581 51.1875 176.93 51.1875C177.576 51.1875 178.12 51.3021 178.562 51.5312C179.005 51.7552 179.336 52.099 179.555 52.5625H179.695C179.966 52.0938 180.344 51.7474 180.828 51.5234C181.312 51.2995 181.826 51.1875 182.367 51.1875ZM195.234 58.6719C195.474 58.6719 195.711 58.651 195.945 58.6094C196.18 58.5625 196.393 58.5078 196.586 58.4453V59.8359C196.383 59.9245 196.12 60 195.797 60.0625C195.474 60.125 195.138 60.1562 194.789 60.1562C194.299 60.1562 193.859 60.0755 193.469 59.9141C193.078 59.7474 192.768 59.4635 192.539 59.0625C192.31 58.6615 192.195 58.1068 192.195 57.3984V52.75H191.016V51.9297L192.281 51.2812L192.883 49.4297H194.039V51.3516H196.516V52.75H194.039V57.375C194.039 57.8125 194.148 58.138 194.367 58.3516C194.586 58.5651 194.875 58.6719 195.234 58.6719ZM200.18 47.8438V50.8984C200.18 51.2161 200.169 51.526 200.148 51.8281C200.133 52.1302 200.115 52.3646 200.094 52.5312H200.195C200.378 52.2292 200.602 51.9818 200.867 51.7891C201.133 51.5911 201.43 51.4427 201.758 51.3438C202.091 51.2448 202.445 51.1953 202.82 51.1953C203.482 51.1953 204.044 51.3073 204.508 51.5312C204.971 51.75 205.326 52.0911 205.57 52.5547C205.82 53.0182 205.945 53.6198 205.945 54.3594V60H204.109V54.7031C204.109 54.0312 203.971 53.5286 203.695 53.1953C203.419 52.8568 202.992 52.6875 202.414 52.6875C201.857 52.6875 201.414 52.8047 201.086 53.0391C200.763 53.2682 200.531 53.6094 200.391 54.0625C200.25 54.5104 200.18 55.0573 200.18 55.7031V60H198.344V47.8438H200.18ZM210.352 51.3516V60H208.516V51.3516H210.352ZM209.445 48.0391C209.727 48.0391 209.969 48.1146 210.172 48.2656C210.38 48.4167 210.484 48.6771 210.484 49.0469C210.484 49.4115 210.38 49.6719 210.172 49.8281C209.969 49.9792 209.727 50.0547 209.445 50.0547C209.154 50.0547 208.906 49.9792 208.703 49.8281C208.505 49.6719 208.406 49.4115 208.406 49.0469C208.406 48.6771 208.505 48.4167 208.703 48.2656C208.906 48.1146 209.154 48.0391 209.445 48.0391ZM218.797 57.5312C218.797 58.099 218.659 58.5781 218.383 58.9688C218.107 59.3594 217.703 59.6562 217.172 59.8594C216.646 60.0573 216 60.1562 215.234 60.1562C214.63 60.1562 214.109 60.112 213.672 60.0234C213.24 59.9401 212.831 59.8099 212.445 59.6328V58.0469C212.857 58.2396 213.318 58.4062 213.828 58.5469C214.344 58.6875 214.831 58.7578 215.289 58.7578C215.893 58.7578 216.328 58.6641 216.594 58.4766C216.859 58.2839 216.992 58.0286 216.992 57.7109C216.992 57.5234 216.938 57.3568 216.828 57.2109C216.724 57.0599 216.526 56.9062 216.234 56.75C215.948 56.5885 215.526 56.3958 214.969 56.1719C214.422 55.9531 213.961 55.7344 213.586 55.5156C213.211 55.2969 212.927 55.0339 212.734 54.7266C212.542 54.4141 212.445 54.0156 212.445 53.5312C212.445 52.7656 212.747 52.1849 213.352 51.7891C213.961 51.388 214.766 51.1875 215.766 51.1875C216.297 51.1875 216.797 51.2422 217.266 51.3516C217.74 51.4557 218.203 51.6094 218.656 51.8125L218.078 53.1953C217.688 53.0234 217.294 52.8828 216.898 52.7734C216.508 52.6589 216.109 52.6016 215.703 52.6016C215.229 52.6016 214.867 52.6745 214.617 52.8203C214.372 52.9661 214.25 53.1745 214.25 53.4453C214.25 53.6484 214.31 53.8203 214.43 53.9609C214.549 54.1016 214.755 54.2422 215.047 54.3828C215.344 54.5234 215.755 54.6979 216.281 54.9062C216.797 55.1042 217.242 55.3125 217.617 55.5312C217.997 55.7448 218.289 56.0078 218.492 56.3203C218.695 56.6328 218.797 57.0365 218.797 57.5312ZM230.75 57.5312C230.75 58.099 230.612 58.5781 230.336 58.9688C230.06 59.3594 229.656 59.6562 229.125 59.8594C228.599 60.0573 227.953 60.1562 227.188 60.1562C226.583 60.1562 226.062 60.112 225.625 60.0234C225.193 59.9401 224.784 59.8099 224.398 59.6328V58.0469C224.81 58.2396 225.271 58.4062 225.781 58.5469C226.297 58.6875 226.784 58.7578 227.242 58.7578C227.846 58.7578 228.281 58.6641 228.547 58.4766C228.812 58.2839 228.945 58.0286 228.945 57.7109C228.945 57.5234 228.891 57.3568 228.781 57.2109C228.677 57.0599 228.479 56.9062 228.188 56.75C227.901 56.5885 227.479 56.3958 226.922 56.1719C226.375 55.9531 225.914 55.7344 225.539 55.5156C225.164 55.2969 224.88 55.0339 224.688 54.7266C224.495 54.4141 224.398 54.0156 224.398 53.5312C224.398 52.7656 224.701 52.1849 225.305 51.7891C225.914 51.388 226.719 51.1875 227.719 51.1875C228.25 51.1875 228.75 51.2422 229.219 51.3516C229.693 51.4557 230.156 51.6094 230.609 51.8125L230.031 53.1953C229.641 53.0234 229.247 52.8828 228.852 52.7734C228.461 52.6589 228.062 52.6016 227.656 52.6016C227.182 52.6016 226.82 52.6745 226.57 52.8203C226.326 52.9661 226.203 53.1745 226.203 53.4453C226.203 53.6484 226.263 53.8203 226.383 53.9609C226.503 54.1016 226.708 54.2422 227 54.3828C227.297 54.5234 227.708 54.6979 228.234 54.9062C228.75 55.1042 229.195 55.3125 229.57 55.5312C229.951 55.7448 230.242 56.0078 230.445 56.3203C230.648 56.6328 230.75 57.0365 230.75 57.5312ZM236.18 51.1875C236.951 51.1875 237.612 51.3464 238.164 51.6641C238.716 51.9818 239.141 52.4323 239.438 53.0156C239.734 53.599 239.883 54.2969 239.883 55.1094V56.0938H234.109C234.13 56.9323 234.354 57.5781 234.781 58.0312C235.214 58.4844 235.818 58.7109 236.594 58.7109C237.146 58.7109 237.641 58.6589 238.078 58.5547C238.521 58.4453 238.977 58.2865 239.445 58.0781V59.5703C239.013 59.7734 238.573 59.9219 238.125 60.0156C237.677 60.1094 237.141 60.1562 236.516 60.1562C235.667 60.1562 234.919 59.9922 234.273 59.6641C233.633 59.3307 233.13 58.8359 232.766 58.1797C232.406 57.5234 232.227 56.7083 232.227 55.7344C232.227 54.7656 232.391 53.9427 232.719 53.2656C233.047 52.5885 233.508 52.0729 234.102 51.7188C234.695 51.3646 235.388 51.1875 236.18 51.1875ZM236.18 52.5703C235.602 52.5703 235.133 52.7578 234.773 53.1328C234.419 53.5078 234.211 54.0573 234.148 54.7812H238.086C238.081 54.349 238.008 53.9661 237.867 53.6328C237.732 53.2995 237.523 53.0391 237.242 52.8516C236.966 52.6641 236.612 52.5703 236.18 52.5703ZM245.344 51.1875C246.438 51.1875 247.263 51.4297 247.82 51.9141C248.383 52.3984 248.664 53.1536 248.664 54.1797V60H247.359L247.008 58.7734H246.945C246.701 59.0859 246.448 59.3438 246.188 59.5469C245.927 59.75 245.625 59.901 245.281 60C244.943 60.1042 244.529 60.1562 244.039 60.1562C243.523 60.1562 243.062 60.0625 242.656 59.875C242.25 59.6823 241.93 59.3906 241.695 59C241.461 58.6094 241.344 58.1146 241.344 57.5156C241.344 56.625 241.674 55.9557 242.336 55.5078C243.003 55.0599 244.008 54.8125 245.352 54.7656L246.852 54.7109V54.2578C246.852 53.6589 246.711 53.2318 246.43 52.9766C246.154 52.7214 245.763 52.5938 245.258 52.5938C244.826 52.5938 244.406 52.6562 244 52.7812C243.594 52.9062 243.198 53.0599 242.812 53.2422L242.219 51.9453C242.641 51.7214 243.12 51.5391 243.656 51.3984C244.198 51.2578 244.76 51.1875 245.344 51.1875ZM246.844 55.8672L245.727 55.9062C244.81 55.9375 244.167 56.0938 243.797 56.375C243.427 56.6562 243.242 57.0417 243.242 57.5312C243.242 57.9583 243.37 58.2708 243.625 58.4688C243.88 58.6615 244.216 58.7578 244.633 58.7578C245.268 58.7578 245.794 58.5781 246.211 58.2188C246.633 57.8542 246.844 57.3203 246.844 56.6172V55.8672ZM255.617 51.1875C255.763 51.1875 255.922 51.1953 256.094 51.2109C256.266 51.2266 256.414 51.2474 256.539 51.2734L256.367 52.9922C256.258 52.9609 256.122 52.9375 255.961 52.9219C255.805 52.9062 255.664 52.8984 255.539 52.8984C255.211 52.8984 254.898 52.9531 254.602 53.0625C254.305 53.1667 254.042 53.3281 253.812 53.5469C253.583 53.7604 253.404 54.0286 253.273 54.3516C253.143 54.6745 253.078 55.0495 253.078 55.4766V60H251.234V51.3516H252.672L252.922 52.875H253.008C253.18 52.5677 253.393 52.2865 253.648 52.0312C253.904 51.776 254.195 51.5729 254.523 51.4219C254.857 51.2656 255.221 51.1875 255.617 51.1875ZM261.625 60.1562C260.807 60.1562 260.099 59.9974 259.5 59.6797C258.901 59.362 258.44 58.875 258.117 58.2188C257.794 57.5625 257.633 56.7292 257.633 55.7188C257.633 54.6667 257.81 53.8073 258.164 53.1406C258.518 52.474 259.008 51.9818 259.633 51.6641C260.263 51.3464 260.984 51.1875 261.797 51.1875C262.312 51.1875 262.779 51.2396 263.195 51.3438C263.617 51.4427 263.974 51.5651 264.266 51.7109L263.719 53.1797C263.401 53.0495 263.076 52.9401 262.742 52.8516C262.409 52.763 262.089 52.7188 261.781 52.7188C261.276 52.7188 260.854 52.8307 260.516 53.0547C260.182 53.2786 259.932 53.612 259.766 54.0547C259.604 54.4974 259.523 55.0469 259.523 55.7031C259.523 56.3385 259.607 56.875 259.773 57.3125C259.94 57.7448 260.188 58.0729 260.516 58.2969C260.844 58.5156 261.247 58.625 261.727 58.625C262.201 58.625 262.625 58.5677 263 58.4531C263.375 58.3385 263.729 58.1901 264.062 58.0078V59.6016C263.734 59.7891 263.383 59.9271 263.008 60.0156C262.633 60.1094 262.172 60.1562 261.625 60.1562ZM267.93 47.8438V50.8984C267.93 51.2161 267.919 51.526 267.898 51.8281C267.883 52.1302 267.865 52.3646 267.844 52.5312H267.945C268.128 52.2292 268.352 51.9818 268.617 51.7891C268.883 51.5911 269.18 51.4427 269.508 51.3438C269.841 51.2448 270.195 51.1953 270.57 51.1953C271.232 51.1953 271.794 51.3073 272.258 51.5312C272.721 51.75 273.076 52.0911 273.32 52.5547C273.57 53.0182 273.695 53.6198 273.695 54.3594V60H271.859V54.7031C271.859 54.0312 271.721 53.5286 271.445 53.1953C271.169 52.8568 270.742 52.6875 270.164 52.6875C269.607 52.6875 269.164 52.8047 268.836 53.0391C268.513 53.2682 268.281 53.6094 268.141 54.0625C268 54.5104 267.93 55.0573 267.93 55.7031V60H266.094V47.8438H267.93Z" fill="#202124"/>
<path d="M47 98C48.1 98 49 97.1 49 96C49 94.9 48.1 94 47 94C45.9 94 45 94.9 45 96C45 97.1 45.9 98 47 98ZM47 100C45.9 100 45 100.9 45 102C45 103.1 45.9 104 47 104C48.1 104 49 103.1 49 102C49 100.9 48.1 100 47 100ZM47 106C45.9 106 45 106.9 45 108C45 109.1 45.9 110 47 110C48.1 110 49 109.1 49 108C49 106.9 48.1 106 47 106Z" fill="#202124"/>
<path d="M71.5781 108L70.4609 104.828H66.0938L64.9766 108H63L67.25 96.5312H69.3281L73.5703 108H71.5781ZM69.9766 103.219L68.8906 100.094C68.849 99.9583 68.7891 99.7682 68.7109 99.5234C68.6328 99.2734 68.5547 99.0208 68.4766 98.7656C68.3984 98.5052 68.3333 98.2865 68.2812 98.1094C68.2292 98.3229 68.1641 98.5625 68.0859 98.8281C68.013 99.0885 67.9401 99.3333 67.8672 99.5625C67.7995 99.7917 67.7474 99.9688 67.7109 100.094L66.6172 103.219H69.9766ZM76.7266 95.8438V98.7734C76.7266 99.112 76.7161 99.4453 76.6953 99.7734C76.6797 100.096 76.6641 100.349 76.6484 100.531H76.7266C76.9609 100.156 77.2865 99.8411 77.7031 99.5859C78.125 99.3255 78.6641 99.1953 79.3203 99.1953C80.3464 99.1953 81.1719 99.5729 81.7969 100.328C82.4219 101.078 82.7344 102.19 82.7344 103.664C82.7344 104.643 82.5911 105.466 82.3047 106.133C82.0182 106.799 81.6146 107.305 81.0938 107.648C80.5781 107.987 79.9714 108.156 79.2734 108.156C78.6172 108.156 78.0859 108.036 77.6797 107.797C77.2786 107.552 76.9635 107.268 76.7344 106.945H76.6016L76.2656 108H74.8906V95.8438H76.7266ZM78.8359 100.688C78.3151 100.688 77.901 100.792 77.5938 101C77.2917 101.208 77.0729 101.521 76.9375 101.938C76.8021 102.349 76.7318 102.872 76.7266 103.508V103.672C76.7266 104.635 76.8776 105.372 77.1797 105.883C77.487 106.393 78.0443 106.648 78.8516 106.648C79.4922 106.648 79.9844 106.391 80.3281 105.875C80.6719 105.354 80.8438 104.609 80.8438 103.641C80.8438 102.661 80.6719 101.924 80.3281 101.43C79.9896 100.935 79.4922 100.688 78.8359 100.688ZM92.5156 103.656C92.5156 104.375 92.4219 105.013 92.2344 105.57C92.0469 106.128 91.7734 106.599 91.4141 106.984C91.0547 107.365 90.6224 107.656 90.1172 107.859C89.612 108.057 89.0417 108.156 88.4062 108.156C87.8125 108.156 87.2682 108.057 86.7734 107.859C86.2786 107.656 85.849 107.365 85.4844 106.984C85.125 106.599 84.8464 106.128 84.6484 105.57C84.4505 105.013 84.3516 104.375 84.3516 103.656C84.3516 102.703 84.5156 101.896 84.8438 101.234C85.1771 100.568 85.651 100.06 86.2656 99.7109C86.8802 99.362 87.612 99.1875 88.4609 99.1875C89.2578 99.1875 89.9609 99.362 90.5703 99.7109C91.1797 100.06 91.6562 100.568 92 101.234C92.3438 101.901 92.5156 102.708 92.5156 103.656ZM86.2422 103.656C86.2422 104.286 86.3177 104.826 86.4688 105.273C86.625 105.721 86.8646 106.065 87.1875 106.305C87.5104 106.539 87.9271 106.656 88.4375 106.656C88.9479 106.656 89.3646 106.539 89.6875 106.305C90.0104 106.065 90.2474 105.721 90.3984 105.273C90.5495 104.826 90.625 104.286 90.625 103.656C90.625 103.026 90.5495 102.492 90.3984 102.055C90.2474 101.612 90.0104 101.276 89.6875 101.047C89.3646 100.812 88.9453 100.695 88.4297 100.695C87.6693 100.695 87.1146 100.951 86.7656 101.461C86.4167 101.971 86.2422 102.703 86.2422 103.656ZM102.164 99.3516V108H100.719L100.469 106.836H100.367C100.185 107.133 99.9531 107.38 99.6719 107.578C99.3906 107.771 99.0781 107.914 98.7344 108.008C98.3906 108.107 98.0286 108.156 97.6484 108.156C96.9974 108.156 96.4401 108.047 95.9766 107.828C95.5182 107.604 95.1667 107.26 94.9219 106.797C94.6771 106.333 94.5547 105.734 94.5547 105V99.3516H96.3984V104.656C96.3984 105.328 96.5339 105.831 96.8047 106.164C97.0807 106.497 97.5078 106.664 98.0859 106.664C98.6432 106.664 99.0859 106.549 99.4141 106.32C99.7422 106.091 99.974 105.753 100.109 105.305C100.25 104.857 100.32 104.307 100.32 103.656V99.3516H102.164ZM108.016 106.672C108.255 106.672 108.492 106.651 108.727 106.609C108.961 106.562 109.174 106.508 109.367 106.445V107.836C109.164 107.924 108.901 108 108.578 108.062C108.255 108.125 107.919 108.156 107.57 108.156C107.081 108.156 106.641 108.076 106.25 107.914C105.859 107.747 105.549 107.464 105.32 107.062C105.091 106.661 104.977 106.107 104.977 105.398V100.75H103.797V99.9297L105.062 99.2812L105.664 97.4297H106.82V99.3516H109.297V100.75H106.82V105.375C106.82 105.812 106.93 106.138 107.148 106.352C107.367 106.565 107.656 106.672 108.016 106.672ZM128.977 96.5781L125.992 108H123.945L122.039 101.156C121.992 100.99 121.94 100.792 121.883 100.562C121.826 100.333 121.768 100.099 121.711 99.8594C121.659 99.6198 121.612 99.401 121.57 99.2031C121.534 99 121.508 98.8438 121.492 98.7344C121.482 98.8438 121.458 98.9974 121.422 99.1953C121.385 99.3932 121.341 99.612 121.289 99.8516C121.242 100.086 121.19 100.32 121.133 100.555C121.076 100.784 121.023 100.987 120.977 101.164L119.102 108H117.062L114.086 96.5781H115.969L117.617 103.273C117.669 103.487 117.721 103.719 117.773 103.969C117.831 104.214 117.883 104.461 117.93 104.711C117.982 104.961 118.029 105.206 118.07 105.445C118.112 105.68 118.146 105.893 118.172 106.086C118.198 105.888 118.232 105.669 118.273 105.43C118.315 105.185 118.359 104.938 118.406 104.688C118.458 104.432 118.51 104.188 118.562 103.953C118.62 103.719 118.677 103.508 118.734 103.32L120.594 96.5781H122.422L124.32 103.344C124.378 103.536 124.432 103.753 124.484 103.992C124.542 104.232 124.596 104.477 124.648 104.727C124.701 104.977 124.747 105.219 124.789 105.453C124.831 105.688 124.865 105.898 124.891 106.086C124.927 105.831 124.974 105.539 125.031 105.211C125.089 104.883 125.154 104.549 125.227 104.211C125.299 103.872 125.372 103.56 125.445 103.273L127.086 96.5781H128.977ZM132.242 99.3516V108H130.406V99.3516H132.242ZM131.336 96.0391C131.617 96.0391 131.859 96.1146 132.062 96.2656C132.271 96.4167 132.375 96.6771 132.375 97.0469C132.375 97.4115 132.271 97.6719 132.062 97.8281C131.859 97.9792 131.617 98.0547 131.336 98.0547C131.044 98.0547 130.797 97.9792 130.594 97.8281C130.396 97.6719 130.297 97.4115 130.297 97.0469C130.297 96.6771 130.396 96.4167 130.594 96.2656C130.797 96.1146 131.044 96.0391 131.336 96.0391ZM136.711 95.8438V101.719C136.711 101.984 136.701 102.276 136.68 102.594C136.659 102.906 136.638 103.201 136.617 103.477H136.656C136.792 103.294 136.953 103.081 137.141 102.836C137.333 102.591 137.516 102.378 137.688 102.195L140.328 99.3516H142.438L138.977 103.07L142.664 108H140.508L137.742 104.203L136.711 105.086V108H134.875V95.8438H136.711ZM145.883 99.3516V108H144.047V99.3516H145.883ZM144.977 96.0391C145.258 96.0391 145.5 96.1146 145.703 96.2656C145.911 96.4167 146.016 96.6771 146.016 97.0469C146.016 97.4115 145.911 97.6719 145.703 97.8281C145.5 97.9792 145.258 98.0547 144.977 98.0547C144.685 98.0547 144.438 97.9792 144.234 97.8281C144.036 97.6719 143.938 97.4115 143.938 97.0469C143.938 96.6771 144.036 96.4167 144.234 96.2656C144.438 96.1146 144.685 96.0391 144.977 96.0391ZM152.953 99.1875C153.979 99.1875 154.802 99.5625 155.422 100.312C156.047 101.062 156.359 102.177 156.359 103.656C156.359 104.635 156.214 105.461 155.922 106.133C155.635 106.799 155.232 107.305 154.711 107.648C154.195 107.987 153.594 108.156 152.906 108.156C152.469 108.156 152.089 108.099 151.766 107.984C151.443 107.87 151.167 107.721 150.938 107.539C150.708 107.352 150.516 107.148 150.359 106.93H150.25C150.276 107.138 150.299 107.37 150.32 107.625C150.346 107.875 150.359 108.104 150.359 108.312V111.836H148.516V99.3516H150.016L150.273 100.547H150.359C150.521 100.302 150.716 100.076 150.945 99.8672C151.18 99.6589 151.461 99.4948 151.789 99.375C152.122 99.25 152.51 99.1875 152.953 99.1875ZM152.461 100.688C151.956 100.688 151.549 100.789 151.242 100.992C150.94 101.19 150.719 101.49 150.578 101.891C150.443 102.292 150.37 102.794 150.359 103.398V103.656C150.359 104.297 150.424 104.841 150.555 105.289C150.69 105.732 150.911 106.07 151.219 106.305C151.531 106.534 151.953 106.648 152.484 106.648C152.932 106.648 153.302 106.526 153.594 106.281C153.891 106.036 154.112 105.688 154.258 105.234C154.404 104.781 154.477 104.247 154.477 103.633C154.477 102.701 154.31 101.977 153.977 101.461C153.648 100.945 153.143 100.688 152.461 100.688ZM161.93 99.1875C162.701 99.1875 163.362 99.3464 163.914 99.6641C164.466 99.9818 164.891 100.432 165.188 101.016C165.484 101.599 165.633 102.297 165.633 103.109V104.094H159.859C159.88 104.932 160.104 105.578 160.531 106.031C160.964 106.484 161.568 106.711 162.344 106.711C162.896 106.711 163.391 106.659 163.828 106.555C164.271 106.445 164.727 106.286 165.195 106.078V107.57C164.763 107.773 164.323 107.922 163.875 108.016C163.427 108.109 162.891 108.156 162.266 108.156C161.417 108.156 160.669 107.992 160.023 107.664C159.383 107.331 158.88 106.836 158.516 106.18C158.156 105.523 157.977 104.708 157.977 103.734C157.977 102.766 158.141 101.943 158.469 101.266C158.797 100.589 159.258 100.073 159.852 99.7188C160.445 99.3646 161.138 99.1875 161.93 99.1875ZM161.93 100.57C161.352 100.57 160.883 100.758 160.523 101.133C160.169 101.508 159.961 102.057 159.898 102.781H163.836C163.831 102.349 163.758 101.966 163.617 101.633C163.482 101.299 163.273 101.039 162.992 100.852C162.716 100.664 162.362 100.57 161.93 100.57ZM170.609 108.156C169.578 108.156 168.75 107.781 168.125 107.031C167.505 106.276 167.195 105.164 167.195 103.695C167.195 102.211 167.51 101.089 168.141 100.328C168.776 99.5677 169.612 99.1875 170.648 99.1875C171.086 99.1875 171.469 99.2474 171.797 99.3672C172.125 99.4818 172.406 99.638 172.641 99.8359C172.88 100.034 173.083 100.255 173.25 100.5H173.336C173.31 100.339 173.279 100.107 173.242 99.8047C173.211 99.4974 173.195 99.2135 173.195 98.9531V95.8438H175.039V108H173.602L173.273 106.82H173.195C173.039 107.07 172.841 107.297 172.602 107.5C172.367 107.698 172.086 107.857 171.758 107.977C171.435 108.096 171.052 108.156 170.609 108.156ZM171.125 106.664C171.911 106.664 172.466 106.438 172.789 105.984C173.112 105.531 173.279 104.852 173.289 103.945V103.703C173.289 102.734 173.133 101.992 172.82 101.477C172.508 100.956 171.938 100.695 171.109 100.695C170.448 100.695 169.943 100.964 169.594 101.5C169.25 102.031 169.078 102.773 169.078 103.727C169.078 104.68 169.25 105.409 169.594 105.914C169.943 106.414 170.453 106.664 171.125 106.664ZM179.508 99.3516V108H177.672V99.3516H179.508ZM178.602 96.0391C178.883 96.0391 179.125 96.1146 179.328 96.2656C179.536 96.4167 179.641 96.6771 179.641 97.0469C179.641 97.4115 179.536 97.6719 179.328 97.8281C179.125 97.9792 178.883 98.0547 178.602 98.0547C178.31 98.0547 178.062 97.9792 177.859 97.8281C177.661 97.6719 177.562 97.4115 177.562 97.0469C177.562 96.6771 177.661 96.4167 177.859 96.2656C178.062 96.1146 178.31 96.0391 178.602 96.0391ZM185.531 99.1875C186.625 99.1875 187.451 99.4297 188.008 99.9141C188.57 100.398 188.852 101.154 188.852 102.18V108H187.547L187.195 106.773H187.133C186.888 107.086 186.635 107.344 186.375 107.547C186.115 107.75 185.812 107.901 185.469 108C185.13 108.104 184.716 108.156 184.227 108.156C183.711 108.156 183.25 108.062 182.844 107.875C182.438 107.682 182.117 107.391 181.883 107C181.648 106.609 181.531 106.115 181.531 105.516C181.531 104.625 181.862 103.956 182.523 103.508C183.19 103.06 184.195 102.812 185.539 102.766L187.039 102.711V102.258C187.039 101.659 186.898 101.232 186.617 100.977C186.341 100.721 185.951 100.594 185.445 100.594C185.013 100.594 184.594 100.656 184.188 100.781C183.781 100.906 183.385 101.06 183 101.242L182.406 99.9453C182.828 99.7214 183.307 99.5391 183.844 99.3984C184.385 99.2578 184.948 99.1875 185.531 99.1875ZM187.031 103.867L185.914 103.906C184.997 103.938 184.354 104.094 183.984 104.375C183.615 104.656 183.43 105.042 183.43 105.531C183.43 105.958 183.557 106.271 183.812 106.469C184.068 106.661 184.404 106.758 184.82 106.758C185.456 106.758 185.982 106.578 186.398 106.219C186.82 105.854 187.031 105.32 187.031 104.617V103.867ZM199.961 99.1875C200.107 99.1875 200.266 99.1953 200.438 99.2109C200.609 99.2266 200.758 99.2474 200.883 99.2734L200.711 100.992C200.602 100.961 200.466 100.938 200.305 100.922C200.148 100.906 200.008 100.898 199.883 100.898C199.555 100.898 199.242 100.953 198.945 101.062C198.648 101.167 198.385 101.328 198.156 101.547C197.927 101.76 197.747 102.029 197.617 102.352C197.487 102.674 197.422 103.049 197.422 103.477V108H195.578V99.3516H197.016L197.266 100.875H197.352C197.523 100.568 197.737 100.286 197.992 100.031C198.247 99.776 198.539 99.5729 198.867 99.4219C199.201 99.2656 199.565 99.1875 199.961 99.1875ZM205.93 99.1875C206.701 99.1875 207.362 99.3464 207.914 99.6641C208.466 99.9818 208.891 100.432 209.188 101.016C209.484 101.599 209.633 102.297 209.633 103.109V104.094H203.859C203.88 104.932 204.104 105.578 204.531 106.031C204.964 106.484 205.568 106.711 206.344 106.711C206.896 106.711 207.391 106.659 207.828 106.555C208.271 106.445 208.727 106.286 209.195 106.078V107.57C208.763 107.773 208.323 107.922 207.875 108.016C207.427 108.109 206.891 108.156 206.266 108.156C205.417 108.156 204.669 107.992 204.023 107.664C203.383 107.331 202.88 106.836 202.516 106.18C202.156 105.523 201.977 104.708 201.977 103.734C201.977 102.766 202.141 101.943 202.469 101.266C202.797 100.589 203.258 100.073 203.852 99.7188C204.445 99.3646 205.138 99.1875 205.93 99.1875ZM205.93 100.57C205.352 100.57 204.883 100.758 204.523 101.133C204.169 101.508 203.961 102.057 203.898 102.781H207.836C207.831 102.349 207.758 101.966 207.617 101.633C207.482 101.299 207.273 101.039 206.992 100.852C206.716 100.664 206.362 100.57 205.93 100.57ZM217.516 105.531C217.516 106.099 217.378 106.578 217.102 106.969C216.826 107.359 216.422 107.656 215.891 107.859C215.365 108.057 214.719 108.156 213.953 108.156C213.349 108.156 212.828 108.112 212.391 108.023C211.958 107.94 211.549 107.81 211.164 107.633V106.047C211.576 106.24 212.036 106.406 212.547 106.547C213.062 106.688 213.549 106.758 214.008 106.758C214.612 106.758 215.047 106.664 215.312 106.477C215.578 106.284 215.711 106.029 215.711 105.711C215.711 105.523 215.656 105.357 215.547 105.211C215.443 105.06 215.245 104.906 214.953 104.75C214.667 104.589 214.245 104.396 213.688 104.172C213.141 103.953 212.68 103.734 212.305 103.516C211.93 103.297 211.646 103.034 211.453 102.727C211.26 102.414 211.164 102.016 211.164 101.531C211.164 100.766 211.466 100.185 212.07 99.7891C212.68 99.388 213.484 99.1875 214.484 99.1875C215.016 99.1875 215.516 99.2422 215.984 99.3516C216.458 99.4557 216.922 99.6094 217.375 99.8125L216.797 101.195C216.406 101.023 216.013 100.883 215.617 100.773C215.227 100.659 214.828 100.602 214.422 100.602C213.948 100.602 213.586 100.674 213.336 100.82C213.091 100.966 212.969 101.174 212.969 101.445C212.969 101.648 213.029 101.82 213.148 101.961C213.268 102.102 213.474 102.242 213.766 102.383C214.062 102.523 214.474 102.698 215 102.906C215.516 103.104 215.961 103.312 216.336 103.531C216.716 103.745 217.008 104.008 217.211 104.32C217.414 104.633 217.516 105.036 217.516 105.531ZM227.039 99.3516V108H225.594L225.344 106.836H225.242C225.06 107.133 224.828 107.38 224.547 107.578C224.266 107.771 223.953 107.914 223.609 108.008C223.266 108.107 222.904 108.156 222.523 108.156C221.872 108.156 221.315 108.047 220.852 107.828C220.393 107.604 220.042 107.26 219.797 106.797C219.552 106.333 219.43 105.734 219.43 105V99.3516H221.273V104.656C221.273 105.328 221.409 105.831 221.68 106.164C221.956 106.497 222.383 106.664 222.961 106.664C223.518 106.664 223.961 106.549 224.289 106.32C224.617 106.091 224.849 105.753 224.984 105.305C225.125 104.857 225.195 104.307 225.195 103.656V99.3516H227.039ZM231.516 108H229.672V95.8438H231.516V108ZM237.359 106.672C237.599 106.672 237.836 106.651 238.07 106.609C238.305 106.562 238.518 106.508 238.711 106.445V107.836C238.508 107.924 238.245 108 237.922 108.062C237.599 108.125 237.263 108.156 236.914 108.156C236.424 108.156 235.984 108.076 235.594 107.914C235.203 107.747 234.893 107.464 234.664 107.062C234.435 106.661 234.32 106.107 234.32 105.398V100.75H233.141V99.9297L234.406 99.2812L235.008 97.4297H236.164V99.3516H238.641V100.75H236.164V105.375C236.164 105.812 236.273 106.138 236.492 106.352C236.711 106.565 237 106.672 237.359 106.672ZM249.469 96.5781C249.365 96.9896 249.26 97.4271 249.156 97.8906C249.052 98.3542 248.956 98.8125 248.867 99.2656C248.784 99.7135 248.716 100.122 248.664 100.492H246.875L246.766 100.32C246.859 99.9401 246.979 99.5339 247.125 99.1016C247.276 98.6693 247.438 98.237 247.609 97.8047C247.786 97.3672 247.964 96.9583 248.141 96.5781H249.469ZM246.211 96.5781C246.107 96.9896 246.003 97.4271 245.898 97.8906C245.794 98.3542 245.698 98.8125 245.609 99.2656C245.526 99.7135 245.456 100.122 245.398 100.492H243.617L243.516 100.32C243.609 99.9401 243.729 99.5339 243.875 99.1016C244.021 98.6693 244.18 98.237 244.352 97.8047C244.529 97.3672 244.706 96.9583 244.883 96.5781H246.211ZM260.445 102.18C260.445 103.466 260.206 104.542 259.727 105.406C259.247 106.266 258.552 106.914 257.641 107.352C256.729 107.784 255.63 108 254.344 108H251.172V96.5781H254.688C255.87 96.5781 256.891 96.7917 257.75 97.2188C258.609 97.6406 259.273 98.2682 259.742 99.1016C260.211 99.9297 260.445 100.956 260.445 102.18ZM258.492 102.234C258.492 101.297 258.344 100.526 258.047 99.9219C257.755 99.3177 257.323 98.8698 256.75 98.5781C256.182 98.2812 255.482 98.1328 254.648 98.1328H253.047V106.43H254.375C255.755 106.43 256.786 106.078 257.469 105.375C258.151 104.672 258.492 103.625 258.492 102.234ZM270.375 103.656C270.375 104.375 270.281 105.013 270.094 105.57C269.906 106.128 269.633 106.599 269.273 106.984C268.914 107.365 268.482 107.656 267.977 107.859C267.471 108.057 266.901 108.156 266.266 108.156C265.672 108.156 265.128 108.057 264.633 107.859C264.138 107.656 263.708 107.365 263.344 106.984C262.984 106.599 262.706 106.128 262.508 105.57C262.31 105.013 262.211 104.375 262.211 103.656C262.211 102.703 262.375 101.896 262.703 101.234C263.036 100.568 263.51 100.06 264.125 99.7109C264.74 99.362 265.471 99.1875 266.32 99.1875C267.117 99.1875 267.82 99.362 268.43 99.7109C269.039 100.06 269.516 100.568 269.859 101.234C270.203 101.901 270.375 102.708 270.375 103.656ZM264.102 103.656C264.102 104.286 264.177 104.826 264.328 105.273C264.484 105.721 264.724 106.065 265.047 106.305C265.37 106.539 265.786 106.656 266.297 106.656C266.807 106.656 267.224 106.539 267.547 106.305C267.87 106.065 268.107 105.721 268.258 105.273C268.409 104.826 268.484 104.286 268.484 103.656C268.484 103.026 268.409 102.492 268.258 102.055C268.107 101.612 267.87 101.276 267.547 101.047C267.224 100.812 266.805 100.695 266.289 100.695C265.529 100.695 264.974 100.951 264.625 101.461C264.276 101.971 264.102 102.703 264.102 103.656ZM274.953 111.844C273.781 111.844 272.883 111.633 272.258 111.211C271.633 110.789 271.32 110.198 271.32 109.438C271.32 108.906 271.487 108.456 271.82 108.086C272.154 107.721 272.63 107.469 273.25 107.328C273.016 107.224 272.812 107.062 272.641 106.844C272.474 106.62 272.391 106.372 272.391 106.102C272.391 105.779 272.482 105.503 272.664 105.273C272.846 105.044 273.12 104.823 273.484 104.609C273.031 104.417 272.667 104.104 272.391 103.672C272.12 103.234 271.984 102.721 271.984 102.133C271.984 101.508 272.117 100.977 272.383 100.539C272.648 100.096 273.036 99.7604 273.547 99.5312C274.057 99.2969 274.674 99.1797 275.398 99.1797C275.555 99.1797 275.724 99.1901 275.906 99.2109C276.094 99.2266 276.266 99.2474 276.422 99.2734C276.583 99.2943 276.706 99.3177 276.789 99.3438H279.781V100.367L278.312 100.641C278.453 100.839 278.565 101.065 278.648 101.32C278.732 101.57 278.773 101.844 278.773 102.141C278.773 103.036 278.464 103.742 277.844 104.258C277.229 104.768 276.38 105.023 275.297 105.023C275.036 105.013 274.784 104.992 274.539 104.961C274.352 105.076 274.208 105.203 274.109 105.344C274.01 105.479 273.961 105.633 273.961 105.805C273.961 105.945 274.01 106.06 274.109 106.148C274.208 106.232 274.354 106.294 274.547 106.336C274.745 106.378 274.984 106.398 275.266 106.398H276.758C277.706 106.398 278.43 106.599 278.93 107C279.43 107.401 279.68 107.99 279.68 108.766C279.68 109.75 279.273 110.508 278.461 111.039C277.648 111.576 276.479 111.844 274.953 111.844ZM275.023 110.555C275.664 110.555 276.203 110.492 276.641 110.367C277.078 110.242 277.409 110.062 277.633 109.828C277.857 109.599 277.969 109.326 277.969 109.008C277.969 108.727 277.898 108.51 277.758 108.359C277.617 108.208 277.406 108.104 277.125 108.047C276.844 107.99 276.495 107.961 276.078 107.961H274.719C274.38 107.961 274.081 108.013 273.82 108.117C273.56 108.227 273.357 108.383 273.211 108.586C273.07 108.789 273 109.034 273 109.32C273 109.716 273.174 110.021 273.523 110.234C273.878 110.448 274.378 110.555 275.023 110.555ZM275.383 103.82C275.919 103.82 276.318 103.674 276.578 103.383C276.839 103.086 276.969 102.669 276.969 102.133C276.969 101.549 276.833 101.112 276.562 100.82C276.297 100.529 275.901 100.383 275.375 100.383C274.859 100.383 274.466 100.531 274.195 100.828C273.93 101.125 273.797 101.565 273.797 102.148C273.797 102.674 273.93 103.086 274.195 103.383C274.466 103.674 274.862 103.82 275.383 103.82ZM286.086 96.5781L286.203 96.75C286.109 97.1302 285.987 97.5365 285.836 97.9688C285.69 98.401 285.531 98.8333 285.359 99.2656C285.188 99.6979 285.013 100.107 284.836 100.492H283.492C283.596 100.081 283.701 99.6432 283.805 99.1797C283.909 98.7161 284.005 98.2578 284.094 97.8047C284.182 97.3516 284.253 96.9427 284.305 96.5781H286.086ZM282.828 96.5781L282.938 96.75C282.844 97.1302 282.721 97.5365 282.57 97.9688C282.424 98.401 282.266 98.8333 282.094 99.2656C281.922 99.6979 281.747 100.107 281.57 100.492H280.25C280.323 100.185 280.398 99.862 280.477 99.5234C280.555 99.1797 280.628 98.8359 280.695 98.4922C280.768 98.1432 280.833 97.8073 280.891 97.4844C280.953 97.1562 281.003 96.8542 281.039 96.5781H282.828Z" fill="#202124"/>
<path d="M47 146C48.1 146 49 145.1 49 144C49 142.9 48.1 142 47 142C45.9 142 45 142.9 45 144C45 145.1 45.9 146 47 146ZM47 148C45.9 148 45 148.9 45 150C45 151.1 45.9 152 47 152C48.1 152 49 151.1 49 150C49 148.9 48.1 148 47 148ZM47 154C45.9 154 45 154.9 45 156C45 157.1 45.9 158 47 158C48.1 158 49 157.1 49 156C49 154.9 48.1 154 47 154Z" fill="#202124"/>
<path d="M71.5781 156L70.4609 152.828H66.0938L64.9766 156H63L67.25 144.531H69.3281L73.5703 156H71.5781ZM69.9766 151.219L68.8906 148.094C68.849 147.958 68.7891 147.768 68.7109 147.523C68.6328 147.273 68.5547 147.021 68.4766 146.766C68.3984 146.505 68.3333 146.286 68.2812 146.109C68.2292 146.323 68.1641 146.562 68.0859 146.828C68.013 147.089 67.9401 147.333 67.8672 147.562C67.7995 147.792 67.7474 147.969 67.7109 148.094L66.6172 151.219H69.9766ZM76.7266 143.844V146.773C76.7266 147.112 76.7161 147.445 76.6953 147.773C76.6797 148.096 76.6641 148.349 76.6484 148.531H76.7266C76.9609 148.156 77.2865 147.841 77.7031 147.586C78.125 147.326 78.6641 147.195 79.3203 147.195C80.3464 147.195 81.1719 147.573 81.7969 148.328C82.4219 149.078 82.7344 150.19 82.7344 151.664C82.7344 152.643 82.5911 153.466 82.3047 154.133C82.0182 154.799 81.6146 155.305 81.0938 155.648C80.5781 155.987 79.9714 156.156 79.2734 156.156C78.6172 156.156 78.0859 156.036 77.6797 155.797C77.2786 155.552 76.9635 155.268 76.7344 154.945H76.6016L76.2656 156H74.8906V143.844H76.7266ZM78.8359 148.688C78.3151 148.688 77.901 148.792 77.5938 149C77.2917 149.208 77.0729 149.521 76.9375 149.938C76.8021 150.349 76.7318 150.872 76.7266 151.508V151.672C76.7266 152.635 76.8776 153.372 77.1797 153.883C77.487 154.393 78.0443 154.648 78.8516 154.648C79.4922 154.648 79.9844 154.391 80.3281 153.875C80.6719 153.354 80.8438 152.609 80.8438 151.641C80.8438 150.661 80.6719 149.924 80.3281 149.43C79.9896 148.935 79.4922 148.688 78.8359 148.688ZM92.5156 151.656C92.5156 152.375 92.4219 153.013 92.2344 153.57C92.0469 154.128 91.7734 154.599 91.4141 154.984C91.0547 155.365 90.6224 155.656 90.1172 155.859C89.612 156.057 89.0417 156.156 88.4062 156.156C87.8125 156.156 87.2682 156.057 86.7734 155.859C86.2786 155.656 85.849 155.365 85.4844 154.984C85.125 154.599 84.8464 154.128 84.6484 153.57C84.4505 153.013 84.3516 152.375 84.3516 151.656C84.3516 150.703 84.5156 149.896 84.8438 149.234C85.1771 148.568 85.651 148.06 86.2656 147.711C86.8802 147.362 87.612 147.188 88.4609 147.188C89.2578 147.188 89.9609 147.362 90.5703 147.711C91.1797 148.06 91.6562 148.568 92 149.234C92.3438 149.901 92.5156 150.708 92.5156 151.656ZM86.2422 151.656C86.2422 152.286 86.3177 152.826 86.4688 153.273C86.625 153.721 86.8646 154.065 87.1875 154.305C87.5104 154.539 87.9271 154.656 88.4375 154.656C88.9479 154.656 89.3646 154.539 89.6875 154.305C90.0104 154.065 90.2474 153.721 90.3984 153.273C90.5495 152.826 90.625 152.286 90.625 151.656C90.625 151.026 90.5495 150.492 90.3984 150.055C90.2474 149.612 90.0104 149.276 89.6875 149.047C89.3646 148.812 88.9453 148.695 88.4297 148.695C87.6693 148.695 87.1146 148.951 86.7656 149.461C86.4167 149.971 86.2422 150.703 86.2422 151.656ZM102.164 147.352V156H100.719L100.469 154.836H100.367C100.185 155.133 99.9531 155.38 99.6719 155.578C99.3906 155.771 99.0781 155.914 98.7344 156.008C98.3906 156.107 98.0286 156.156 97.6484 156.156C96.9974 156.156 96.4401 156.047 95.9766 155.828C95.5182 155.604 95.1667 155.26 94.9219 154.797C94.6771 154.333 94.5547 153.734 94.5547 153V147.352H96.3984V152.656C96.3984 153.328 96.5339 153.831 96.8047 154.164C97.0807 154.497 97.5078 154.664 98.0859 154.664C98.6432 154.664 99.0859 154.549 99.4141 154.32C99.7422 154.091 99.974 153.753 100.109 153.305C100.25 152.857 100.32 152.307 100.32 151.656V147.352H102.164ZM108.016 154.672C108.255 154.672 108.492 154.651 108.727 154.609C108.961 154.562 109.174 154.508 109.367 154.445V155.836C109.164 155.924 108.901 156 108.578 156.062C108.255 156.125 107.919 156.156 107.57 156.156C107.081 156.156 106.641 156.076 106.25 155.914C105.859 155.747 105.549 155.464 105.32 155.062C105.091 154.661 104.977 154.107 104.977 153.398V148.75H103.797V147.93L105.062 147.281L105.664 145.43H106.82V147.352H109.297V148.75H106.82V153.375C106.82 153.812 106.93 154.138 107.148 154.352C107.367 154.565 107.656 154.672 108.016 154.672ZM122.547 156L121.43 152.828H117.062L115.945 156H113.969L118.219 144.531H120.297L124.539 156H122.547ZM120.945 151.219L119.859 148.094C119.818 147.958 119.758 147.768 119.68 147.523C119.602 147.273 119.523 147.021 119.445 146.766C119.367 146.505 119.302 146.286 119.25 146.109C119.198 146.323 119.133 146.562 119.055 146.828C118.982 147.089 118.909 147.333 118.836 147.562C118.768 147.792 118.716 147.969 118.68 148.094L117.586 151.219H120.945ZM135.633 147.188C136.602 147.188 137.331 147.438 137.82 147.938C138.315 148.438 138.562 149.24 138.562 150.344V156H136.727V150.672C136.727 150.016 136.599 149.521 136.344 149.188C136.089 148.854 135.701 148.688 135.18 148.688C134.451 148.688 133.924 148.922 133.602 149.391C133.284 149.854 133.125 150.529 133.125 151.414V156H131.289V150.672C131.289 150.234 131.232 149.87 131.117 149.578C131.008 149.281 130.839 149.06 130.609 148.914C130.38 148.763 130.091 148.688 129.742 148.688C129.237 148.688 128.833 148.802 128.531 149.031C128.234 149.26 128.021 149.599 127.891 150.047C127.76 150.49 127.695 151.034 127.695 151.68V156H125.859V147.352H127.289L127.547 148.516H127.648C127.826 148.214 128.044 147.966 128.305 147.773C128.57 147.576 128.865 147.43 129.188 147.336C129.51 147.237 129.846 147.188 130.195 147.188C130.841 147.188 131.385 147.302 131.828 147.531C132.271 147.755 132.602 148.099 132.82 148.562H132.961C133.232 148.094 133.609 147.747 134.094 147.523C134.578 147.299 135.091 147.188 135.633 147.188ZM144.57 147.188C145.341 147.188 146.003 147.346 146.555 147.664C147.107 147.982 147.531 148.432 147.828 149.016C148.125 149.599 148.273 150.297 148.273 151.109V152.094H142.5C142.521 152.932 142.745 153.578 143.172 154.031C143.604 154.484 144.208 154.711 144.984 154.711C145.536 154.711 146.031 154.659 146.469 154.555C146.911 154.445 147.367 154.286 147.836 154.078V155.57C147.404 155.773 146.964 155.922 146.516 156.016C146.068 156.109 145.531 156.156 144.906 156.156C144.057 156.156 143.31 155.992 142.664 155.664C142.023 155.331 141.521 154.836 141.156 154.18C140.797 153.523 140.617 152.708 140.617 151.734C140.617 150.766 140.781 149.943 141.109 149.266C141.438 148.589 141.898 148.073 142.492 147.719C143.086 147.365 143.779 147.188 144.57 147.188ZM144.57 148.57C143.992 148.57 143.523 148.758 143.164 149.133C142.81 149.508 142.602 150.057 142.539 150.781H146.477C146.471 150.349 146.398 149.966 146.258 149.633C146.122 149.299 145.914 149.039 145.633 148.852C145.357 148.664 145.003 148.57 144.57 148.57ZM154.727 147.188C154.872 147.188 155.031 147.195 155.203 147.211C155.375 147.227 155.523 147.247 155.648 147.273L155.477 148.992C155.367 148.961 155.232 148.938 155.07 148.922C154.914 148.906 154.773 148.898 154.648 148.898C154.32 148.898 154.008 148.953 153.711 149.062C153.414 149.167 153.151 149.328 152.922 149.547C152.693 149.76 152.513 150.029 152.383 150.352C152.253 150.674 152.188 151.049 152.188 151.477V156H150.344V147.352H151.781L152.031 148.875H152.117C152.289 148.568 152.503 148.286 152.758 148.031C153.013 147.776 153.305 147.573 153.633 147.422C153.966 147.266 154.331 147.188 154.727 147.188ZM159.086 147.352V156H157.25V147.352H159.086ZM158.18 144.039C158.461 144.039 158.703 144.115 158.906 144.266C159.115 144.417 159.219 144.677 159.219 145.047C159.219 145.411 159.115 145.672 158.906 145.828C158.703 145.979 158.461 146.055 158.18 146.055C157.888 146.055 157.641 145.979 157.438 145.828C157.24 145.672 157.141 145.411 157.141 145.047C157.141 144.677 157.24 144.417 157.438 144.266C157.641 144.115 157.888 144.039 158.18 144.039ZM165.203 156.156C164.385 156.156 163.677 155.997 163.078 155.68C162.479 155.362 162.018 154.875 161.695 154.219C161.372 153.562 161.211 152.729 161.211 151.719C161.211 150.667 161.388 149.807 161.742 149.141C162.096 148.474 162.586 147.982 163.211 147.664C163.841 147.346 164.562 147.188 165.375 147.188C165.891 147.188 166.357 147.24 166.773 147.344C167.195 147.443 167.552 147.565 167.844 147.711L167.297 149.18C166.979 149.049 166.654 148.94 166.32 148.852C165.987 148.763 165.667 148.719 165.359 148.719C164.854 148.719 164.432 148.831 164.094 149.055C163.76 149.279 163.51 149.612 163.344 150.055C163.182 150.497 163.102 151.047 163.102 151.703C163.102 152.339 163.185 152.875 163.352 153.312C163.518 153.745 163.766 154.073 164.094 154.297C164.422 154.516 164.826 154.625 165.305 154.625C165.779 154.625 166.203 154.568 166.578 154.453C166.953 154.339 167.307 154.19 167.641 154.008V155.602C167.312 155.789 166.961 155.927 166.586 156.016C166.211 156.109 165.75 156.156 165.203 156.156ZM173.062 147.188C174.156 147.188 174.982 147.43 175.539 147.914C176.102 148.398 176.383 149.154 176.383 150.18V156H175.078L174.727 154.773H174.664C174.419 155.086 174.167 155.344 173.906 155.547C173.646 155.75 173.344 155.901 173 156C172.661 156.104 172.247 156.156 171.758 156.156C171.242 156.156 170.781 156.062 170.375 155.875C169.969 155.682 169.648 155.391 169.414 155C169.18 154.609 169.062 154.115 169.062 153.516C169.062 152.625 169.393 151.956 170.055 151.508C170.721 151.06 171.727 150.812 173.07 150.766L174.57 150.711V150.258C174.57 149.659 174.43 149.232 174.148 148.977C173.872 148.721 173.482 148.594 172.977 148.594C172.544 148.594 172.125 148.656 171.719 148.781C171.312 148.906 170.917 149.06 170.531 149.242L169.938 147.945C170.359 147.721 170.839 147.539 171.375 147.398C171.917 147.258 172.479 147.188 173.062 147.188ZM174.562 151.867L173.445 151.906C172.529 151.938 171.885 152.094 171.516 152.375C171.146 152.656 170.961 153.042 170.961 153.531C170.961 153.958 171.089 154.271 171.344 154.469C171.599 154.661 171.935 154.758 172.352 154.758C172.987 154.758 173.513 154.578 173.93 154.219C174.352 153.854 174.562 153.32 174.562 152.617V151.867ZM183.461 147.188C184.435 147.188 185.193 147.44 185.734 147.945C186.281 148.445 186.555 149.25 186.555 150.359V156H184.719V150.703C184.719 150.031 184.581 149.529 184.305 149.195C184.029 148.857 183.602 148.688 183.023 148.688C182.185 148.688 181.602 148.945 181.273 149.461C180.951 149.977 180.789 150.724 180.789 151.703V156H178.953V147.352H180.383L180.641 148.523H180.742C180.93 148.221 181.161 147.974 181.438 147.781C181.719 147.583 182.031 147.435 182.375 147.336C182.724 147.237 183.086 147.188 183.461 147.188ZM202.18 156H200.023L196.469 150.812L195.344 151.727V156H193.469V144.578H195.344V150.039C195.573 149.758 195.805 149.477 196.039 149.195C196.273 148.914 196.508 148.633 196.742 148.352L199.961 144.578H202.078L197.812 149.578L202.18 156ZM206.945 147.188C207.716 147.188 208.378 147.346 208.93 147.664C209.482 147.982 209.906 148.432 210.203 149.016C210.5 149.599 210.648 150.297 210.648 151.109V152.094H204.875C204.896 152.932 205.12 153.578 205.547 154.031C205.979 154.484 206.583 154.711 207.359 154.711C207.911 154.711 208.406 154.659 208.844 154.555C209.286 154.445 209.742 154.286 210.211 154.078V155.57C209.779 155.773 209.339 155.922 208.891 156.016C208.443 156.109 207.906 156.156 207.281 156.156C206.432 156.156 205.685 155.992 205.039 155.664C204.398 155.331 203.896 154.836 203.531 154.18C203.172 153.523 202.992 152.708 202.992 151.734C202.992 150.766 203.156 149.943 203.484 149.266C203.812 148.589 204.273 148.073 204.867 147.719C205.461 147.365 206.154 147.188 206.945 147.188ZM206.945 148.57C206.367 148.57 205.898 148.758 205.539 149.133C205.185 149.508 204.977 150.057 204.914 150.781H208.852C208.846 150.349 208.773 149.966 208.633 149.633C208.497 149.299 208.289 149.039 208.008 148.852C207.732 148.664 207.378 148.57 206.945 148.57ZM217.227 147.188C218.201 147.188 218.958 147.44 219.5 147.945C220.047 148.445 220.32 149.25 220.32 150.359V156H218.484V150.703C218.484 150.031 218.346 149.529 218.07 149.195C217.794 148.857 217.367 148.688 216.789 148.688C215.951 148.688 215.367 148.945 215.039 149.461C214.716 149.977 214.555 150.724 214.555 151.703V156H212.719V147.352H214.148L214.406 148.523H214.508C214.695 148.221 214.927 147.974 215.203 147.781C215.484 147.583 215.797 147.435 216.141 147.336C216.49 147.237 216.852 147.188 217.227 147.188ZM227.398 147.188C228.372 147.188 229.13 147.44 229.672 147.945C230.219 148.445 230.492 149.25 230.492 150.359V156H228.656V150.703C228.656 150.031 228.518 149.529 228.242 149.195C227.966 148.857 227.539 148.688 226.961 148.688C226.122 148.688 225.539 148.945 225.211 149.461C224.888 149.977 224.727 150.724 224.727 151.703V156H222.891V147.352H224.32L224.578 148.523H224.68C224.867 148.221 225.099 147.974 225.375 147.781C225.656 147.583 225.969 147.435 226.312 147.336C226.661 147.237 227.023 147.188 227.398 147.188ZM236.508 147.188C237.279 147.188 237.94 147.346 238.492 147.664C239.044 147.982 239.469 148.432 239.766 149.016C240.062 149.599 240.211 150.297 240.211 151.109V152.094H234.438C234.458 152.932 234.682 153.578 235.109 154.031C235.542 154.484 236.146 154.711 236.922 154.711C237.474 154.711 237.969 154.659 238.406 154.555C238.849 154.445 239.305 154.286 239.773 154.078V155.57C239.341 155.773 238.901 155.922 238.453 156.016C238.005 156.109 237.469 156.156 236.844 156.156C235.995 156.156 235.247 155.992 234.602 155.664C233.961 155.331 233.458 154.836 233.094 154.18C232.734 153.523 232.555 152.708 232.555 151.734C232.555 150.766 232.719 149.943 233.047 149.266C233.375 148.589 233.836 148.073 234.43 147.719C235.023 147.365 235.716 147.188 236.508 147.188ZM236.508 148.57C235.93 148.57 235.461 148.758 235.102 149.133C234.747 149.508 234.539 150.057 234.477 150.781H238.414C238.409 150.349 238.336 149.966 238.195 149.633C238.06 149.299 237.852 149.039 237.57 148.852C237.294 148.664 236.94 148.57 236.508 148.57ZM244.125 156H242.281V143.844H244.125V156ZM255.961 146.008C255.414 146.008 254.924 146.107 254.492 146.305C254.065 146.503 253.703 146.789 253.406 147.164C253.109 147.534 252.883 147.984 252.727 148.516C252.57 149.042 252.492 149.635 252.492 150.297C252.492 151.182 252.617 151.945 252.867 152.586C253.117 153.221 253.497 153.711 254.008 154.055C254.518 154.393 255.164 154.562 255.945 154.562C256.43 154.562 256.901 154.516 257.359 154.422C257.818 154.328 258.292 154.201 258.781 154.039V155.633C258.318 155.815 257.849 155.948 257.375 156.031C256.901 156.115 256.354 156.156 255.734 156.156C254.568 156.156 253.599 155.914 252.828 155.43C252.062 154.945 251.49 154.263 251.109 153.383C250.734 152.503 250.547 151.471 250.547 150.289C250.547 149.424 250.667 148.633 250.906 147.914C251.146 147.195 251.495 146.576 251.953 146.055C252.411 145.529 252.977 145.125 253.648 144.844C254.326 144.557 255.099 144.414 255.969 144.414C256.542 144.414 257.104 144.479 257.656 144.609C258.214 144.734 258.729 144.914 259.203 145.148L258.547 146.695C258.151 146.508 257.737 146.346 257.305 146.211C256.872 146.076 256.424 146.008 255.961 146.008ZM262.891 156H261.047V143.844H262.891V156ZM273.055 147.352V156H271.609L271.359 154.836H271.258C271.076 155.133 270.844 155.38 270.562 155.578C270.281 155.771 269.969 155.914 269.625 156.008C269.281 156.107 268.919 156.156 268.539 156.156C267.888 156.156 267.331 156.047 266.867 155.828C266.409 155.604 266.057 155.26 265.812 154.797C265.568 154.333 265.445 153.734 265.445 153V147.352H267.289V152.656C267.289 153.328 267.424 153.831 267.695 154.164C267.971 154.497 268.398 154.664 268.977 154.664C269.534 154.664 269.977 154.549 270.305 154.32C270.633 154.091 270.865 153.753 271 153.305C271.141 152.857 271.211 152.307 271.211 151.656V147.352H273.055ZM277.523 143.844V146.773C277.523 147.112 277.513 147.445 277.492 147.773C277.477 148.096 277.461 148.349 277.445 148.531H277.523C277.758 148.156 278.083 147.841 278.5 147.586C278.922 147.326 279.461 147.195 280.117 147.195C281.143 147.195 281.969 147.573 282.594 148.328C283.219 149.078 283.531 150.19 283.531 151.664C283.531 152.643 283.388 153.466 283.102 154.133C282.815 154.799 282.411 155.305 281.891 155.648C281.375 155.987 280.768 156.156 280.07 156.156C279.414 156.156 278.883 156.036 278.477 155.797C278.076 155.552 277.76 155.268 277.531 154.945H277.398L277.062 156H275.688V143.844H277.523ZM279.633 148.688C279.112 148.688 278.698 148.792 278.391 149C278.089 149.208 277.87 149.521 277.734 149.938C277.599 150.349 277.529 150.872 277.523 151.508V151.672C277.523 152.635 277.674 153.372 277.977 153.883C278.284 154.393 278.841 154.648 279.648 154.648C280.289 154.648 280.781 154.391 281.125 153.875C281.469 153.354 281.641 152.609 281.641 151.641C281.641 150.661 281.469 149.924 281.125 149.43C280.786 148.935 280.289 148.688 279.633 148.688ZM294.195 147.188C294.341 147.188 294.5 147.195 294.672 147.211C294.844 147.227 294.992 147.247 295.117 147.273L294.945 148.992C294.836 148.961 294.701 148.938 294.539 148.922C294.383 148.906 294.242 148.898 294.117 148.898C293.789 148.898 293.477 148.953 293.18 149.062C292.883 149.167 292.62 149.328 292.391 149.547C292.161 149.76 291.982 150.029 291.852 150.352C291.721 150.674 291.656 151.049 291.656 151.477V156H289.812V147.352H291.25L291.5 148.875H291.586C291.758 148.568 291.971 148.286 292.227 148.031C292.482 147.776 292.773 147.573 293.102 147.422C293.435 147.266 293.799 147.188 294.195 147.188ZM300.164 147.188C300.935 147.188 301.596 147.346 302.148 147.664C302.701 147.982 303.125 148.432 303.422 149.016C303.719 149.599 303.867 150.297 303.867 151.109V152.094H298.094C298.115 152.932 298.339 153.578 298.766 154.031C299.198 154.484 299.802 154.711 300.578 154.711C301.13 154.711 301.625 154.659 302.062 154.555C302.505 154.445 302.961 154.286 303.43 154.078V155.57C302.997 155.773 302.557 155.922 302.109 156.016C301.661 156.109 301.125 156.156 300.5 156.156C299.651 156.156 298.904 155.992 298.258 155.664C297.617 155.331 297.115 154.836 296.75 154.18C296.391 153.523 296.211 152.708 296.211 151.734C296.211 150.766 296.375 149.943 296.703 149.266C297.031 148.589 297.492 148.073 298.086 147.719C298.68 147.365 299.372 147.188 300.164 147.188ZM300.164 148.57C299.586 148.57 299.117 148.758 298.758 149.133C298.404 149.508 298.195 150.057 298.133 150.781H302.07C302.065 150.349 301.992 149.966 301.852 149.633C301.716 149.299 301.508 149.039 301.227 148.852C300.951 148.664 300.596 148.57 300.164 148.57ZM311.75 153.531C311.75 154.099 311.612 154.578 311.336 154.969C311.06 155.359 310.656 155.656 310.125 155.859C309.599 156.057 308.953 156.156 308.188 156.156C307.583 156.156 307.062 156.112 306.625 156.023C306.193 155.94 305.784 155.81 305.398 155.633V154.047C305.81 154.24 306.271 154.406 306.781 154.547C307.297 154.688 307.784 154.758 308.242 154.758C308.846 154.758 309.281 154.664 309.547 154.477C309.812 154.284 309.945 154.029 309.945 153.711C309.945 153.523 309.891 153.357 309.781 153.211C309.677 153.06 309.479 152.906 309.188 152.75C308.901 152.589 308.479 152.396 307.922 152.172C307.375 151.953 306.914 151.734 306.539 151.516C306.164 151.297 305.88 151.034 305.688 150.727C305.495 150.414 305.398 150.016 305.398 149.531C305.398 148.766 305.701 148.185 306.305 147.789C306.914 147.388 307.719 147.188 308.719 147.188C309.25 147.188 309.75 147.242 310.219 147.352C310.693 147.456 311.156 147.609 311.609 147.812L311.031 149.195C310.641 149.023 310.247 148.883 309.852 148.773C309.461 148.659 309.062 148.602 308.656 148.602C308.182 148.602 307.82 148.674 307.57 148.82C307.326 148.966 307.203 149.174 307.203 149.445C307.203 149.648 307.263 149.82 307.383 149.961C307.503 150.102 307.708 150.242 308 150.383C308.297 150.523 308.708 150.698 309.234 150.906C309.75 151.104 310.195 151.312 310.57 151.531C310.951 151.745 311.242 152.008 311.445 152.32C311.648 152.633 311.75 153.036 311.75 153.531ZM321.273 147.352V156H319.828L319.578 154.836H319.477C319.294 155.133 319.062 155.38 318.781 155.578C318.5 155.771 318.188 155.914 317.844 156.008C317.5 156.107 317.138 156.156 316.758 156.156C316.107 156.156 315.549 156.047 315.086 155.828C314.628 155.604 314.276 155.26 314.031 154.797C313.786 154.333 313.664 153.734 313.664 153V147.352H315.508V152.656C315.508 153.328 315.643 153.831 315.914 154.164C316.19 154.497 316.617 154.664 317.195 154.664C317.753 154.664 318.195 154.549 318.523 154.32C318.852 154.091 319.083 153.753 319.219 153.305C319.359 152.857 319.43 152.307 319.43 151.656V147.352H321.273ZM325.75 156H323.906V143.844H325.75V156ZM331.594 154.672C331.833 154.672 332.07 154.651 332.305 154.609C332.539 154.562 332.753 154.508 332.945 154.445V155.836C332.742 155.924 332.479 156 332.156 156.062C331.833 156.125 331.497 156.156 331.148 156.156C330.659 156.156 330.219 156.076 329.828 155.914C329.438 155.747 329.128 155.464 328.898 155.062C328.669 154.661 328.555 154.107 328.555 153.398V148.75H327.375V147.93L328.641 147.281L329.242 145.43H330.398V147.352H332.875V148.75H330.398V153.375C330.398 153.812 330.508 154.138 330.727 154.352C330.945 154.565 331.234 154.672 331.594 154.672ZM343.703 144.578C343.599 144.99 343.495 145.427 343.391 145.891C343.286 146.354 343.19 146.812 343.102 147.266C343.018 147.714 342.951 148.122 342.898 148.492H341.109L341 148.32C341.094 147.94 341.214 147.534 341.359 147.102C341.51 146.669 341.672 146.237 341.844 145.805C342.021 145.367 342.198 144.958 342.375 144.578H343.703ZM340.445 144.578C340.341 144.99 340.237 145.427 340.133 145.891C340.029 146.354 339.932 146.812 339.844 147.266C339.76 147.714 339.69 148.122 339.633 148.492H337.852L337.75 148.32C337.844 147.94 337.964 147.534 338.109 147.102C338.255 146.669 338.414 146.237 338.586 145.805C338.763 145.367 338.94 144.958 339.117 144.578H340.445ZM354.68 150.18C354.68 151.466 354.44 152.542 353.961 153.406C353.482 154.266 352.786 154.914 351.875 155.352C350.964 155.784 349.865 156 348.578 156H345.406V144.578H348.922C350.104 144.578 351.125 144.792 351.984 145.219C352.844 145.641 353.508 146.268 353.977 147.102C354.445 147.93 354.68 148.956 354.68 150.18ZM352.727 150.234C352.727 149.297 352.578 148.526 352.281 147.922C351.99 147.318 351.557 146.87 350.984 146.578C350.417 146.281 349.716 146.133 348.883 146.133H347.281V154.43H348.609C349.99 154.43 351.021 154.078 351.703 153.375C352.385 152.672 352.727 151.625 352.727 150.234ZM364.609 151.656C364.609 152.375 364.516 153.013 364.328 153.57C364.141 154.128 363.867 154.599 363.508 154.984C363.148 155.365 362.716 155.656 362.211 155.859C361.706 156.057 361.135 156.156 360.5 156.156C359.906 156.156 359.362 156.057 358.867 155.859C358.372 155.656 357.943 155.365 357.578 154.984C357.219 154.599 356.94 154.128 356.742 153.57C356.544 153.013 356.445 152.375 356.445 151.656C356.445 150.703 356.609 149.896 356.938 149.234C357.271 148.568 357.745 148.06 358.359 147.711C358.974 147.362 359.706 147.188 360.555 147.188C361.352 147.188 362.055 147.362 362.664 147.711C363.273 148.06 363.75 148.568 364.094 149.234C364.438 149.901 364.609 150.708 364.609 151.656ZM358.336 151.656C358.336 152.286 358.411 152.826 358.562 153.273C358.719 153.721 358.958 154.065 359.281 154.305C359.604 154.539 360.021 154.656 360.531 154.656C361.042 154.656 361.458 154.539 361.781 154.305C362.104 154.065 362.341 153.721 362.492 153.273C362.643 152.826 362.719 152.286 362.719 151.656C362.719 151.026 362.643 150.492 362.492 150.055C362.341 149.612 362.104 149.276 361.781 149.047C361.458 148.812 361.039 148.695 360.523 148.695C359.763 148.695 359.208 148.951 358.859 149.461C358.51 149.971 358.336 150.703 358.336 151.656ZM369.188 159.844C368.016 159.844 367.117 159.633 366.492 159.211C365.867 158.789 365.555 158.198 365.555 157.438C365.555 156.906 365.721 156.456 366.055 156.086C366.388 155.721 366.865 155.469 367.484 155.328C367.25 155.224 367.047 155.062 366.875 154.844C366.708 154.62 366.625 154.372 366.625 154.102C366.625 153.779 366.716 153.503 366.898 153.273C367.081 153.044 367.354 152.823 367.719 152.609C367.266 152.417 366.901 152.104 366.625 151.672C366.354 151.234 366.219 150.721 366.219 150.133C366.219 149.508 366.352 148.977 366.617 148.539C366.883 148.096 367.271 147.76 367.781 147.531C368.292 147.297 368.909 147.18 369.633 147.18C369.789 147.18 369.958 147.19 370.141 147.211C370.328 147.227 370.5 147.247 370.656 147.273C370.818 147.294 370.94 147.318 371.023 147.344H374.016V148.367L372.547 148.641C372.688 148.839 372.799 149.065 372.883 149.32C372.966 149.57 373.008 149.844 373.008 150.141C373.008 151.036 372.698 151.742 372.078 152.258C371.464 152.768 370.615 153.023 369.531 153.023C369.271 153.013 369.018 152.992 368.773 152.961C368.586 153.076 368.443 153.203 368.344 153.344C368.245 153.479 368.195 153.633 368.195 153.805C368.195 153.945 368.245 154.06 368.344 154.148C368.443 154.232 368.589 154.294 368.781 154.336C368.979 154.378 369.219 154.398 369.5 154.398H370.992C371.94 154.398 372.664 154.599 373.164 155C373.664 155.401 373.914 155.99 373.914 156.766C373.914 157.75 373.508 158.508 372.695 159.039C371.883 159.576 370.714 159.844 369.188 159.844ZM369.258 158.555C369.898 158.555 370.438 158.492 370.875 158.367C371.312 158.242 371.643 158.062 371.867 157.828C372.091 157.599 372.203 157.326 372.203 157.008C372.203 156.727 372.133 156.51 371.992 156.359C371.852 156.208 371.641 156.104 371.359 156.047C371.078 155.99 370.729 155.961 370.312 155.961H368.953C368.615 155.961 368.315 156.013 368.055 156.117C367.794 156.227 367.591 156.383 367.445 156.586C367.305 156.789 367.234 157.034 367.234 157.32C367.234 157.716 367.409 158.021 367.758 158.234C368.112 158.448 368.612 158.555 369.258 158.555ZM369.617 151.82C370.154 151.82 370.552 151.674 370.812 151.383C371.073 151.086 371.203 150.669 371.203 150.133C371.203 149.549 371.068 149.112 370.797 148.82C370.531 148.529 370.135 148.383 369.609 148.383C369.094 148.383 368.701 148.531 368.43 148.828C368.164 149.125 368.031 149.565 368.031 150.148C368.031 150.674 368.164 151.086 368.43 151.383C368.701 151.674 369.096 151.82 369.617 151.82ZM379.938 144.578H383.336C384.81 144.578 385.922 144.792 386.672 145.219C387.422 145.646 387.797 146.383 387.797 147.43C387.797 147.867 387.719 148.263 387.562 148.617C387.411 148.966 387.19 149.255 386.898 149.484C386.607 149.708 386.247 149.859 385.82 149.938V150.016C386.263 150.094 386.656 150.232 387 150.43C387.349 150.628 387.622 150.911 387.82 151.281C388.023 151.651 388.125 152.13 388.125 152.719C388.125 153.417 387.958 154.01 387.625 154.5C387.297 154.99 386.826 155.362 386.211 155.617C385.602 155.872 384.878 156 384.039 156H379.938V144.578ZM381.812 149.289H383.609C384.458 149.289 385.047 149.151 385.375 148.875C385.703 148.599 385.867 148.195 385.867 147.664C385.867 147.122 385.672 146.732 385.281 146.492C384.896 146.253 384.281 146.133 383.438 146.133H381.812V149.289ZM381.812 150.805V154.43H383.789C384.664 154.43 385.279 154.26 385.633 153.922C385.987 153.583 386.164 153.125 386.164 152.547C386.164 152.193 386.083 151.885 385.922 151.625C385.766 151.365 385.508 151.164 385.148 151.023C384.789 150.878 384.305 150.805 383.695 150.805H381.812ZM394.68 147.188C394.826 147.188 394.984 147.195 395.156 147.211C395.328 147.227 395.477 147.247 395.602 147.273L395.43 148.992C395.32 148.961 395.185 148.938 395.023 148.922C394.867 148.906 394.727 148.898 394.602 148.898C394.273 148.898 393.961 148.953 393.664 149.062C393.367 149.167 393.104 149.328 392.875 149.547C392.646 149.76 392.466 150.029 392.336 150.352C392.206 150.674 392.141 151.049 392.141 151.477V156H390.297V147.352H391.734L391.984 148.875H392.07C392.242 148.568 392.456 148.286 392.711 148.031C392.966 147.776 393.258 147.573 393.586 147.422C393.919 147.266 394.284 147.188 394.68 147.188ZM400.648 147.188C401.419 147.188 402.081 147.346 402.633 147.664C403.185 147.982 403.609 148.432 403.906 149.016C404.203 149.599 404.352 150.297 404.352 151.109V152.094H398.578C398.599 152.932 398.823 153.578 399.25 154.031C399.682 154.484 400.286 154.711 401.062 154.711C401.615 154.711 402.109 154.659 402.547 154.555C402.99 154.445 403.445 154.286 403.914 154.078V155.57C403.482 155.773 403.042 155.922 402.594 156.016C402.146 156.109 401.609 156.156 400.984 156.156C400.135 156.156 399.388 155.992 398.742 155.664C398.102 155.331 397.599 154.836 397.234 154.18C396.875 153.523 396.695 152.708 396.695 151.734C396.695 150.766 396.859 149.943 397.188 149.266C397.516 148.589 397.977 148.073 398.57 147.719C399.164 147.365 399.857 147.188 400.648 147.188ZM400.648 148.57C400.07 148.57 399.602 148.758 399.242 149.133C398.888 149.508 398.68 150.057 398.617 150.781H402.555C402.549 150.349 402.477 149.966 402.336 149.633C402.201 149.299 401.992 149.039 401.711 148.852C401.435 148.664 401.081 148.57 400.648 148.57ZM409.867 147.188C410.638 147.188 411.299 147.346 411.852 147.664C412.404 147.982 412.828 148.432 413.125 149.016C413.422 149.599 413.57 150.297 413.57 151.109V152.094H407.797C407.818 152.932 408.042 153.578 408.469 154.031C408.901 154.484 409.505 154.711 410.281 154.711C410.833 154.711 411.328 154.659 411.766 154.555C412.208 154.445 412.664 154.286 413.133 154.078V155.57C412.701 155.773 412.26 155.922 411.812 156.016C411.365 156.109 410.828 156.156 410.203 156.156C409.354 156.156 408.607 155.992 407.961 155.664C407.32 155.331 406.818 154.836 406.453 154.18C406.094 153.523 405.914 152.708 405.914 151.734C405.914 150.766 406.078 149.943 406.406 149.266C406.734 148.589 407.195 148.073 407.789 147.719C408.383 147.365 409.076 147.188 409.867 147.188ZM409.867 148.57C409.289 148.57 408.82 148.758 408.461 149.133C408.107 149.508 407.898 150.057 407.836 150.781H411.773C411.768 150.349 411.695 149.966 411.555 149.633C411.419 149.299 411.211 149.039 410.93 148.852C410.654 148.664 410.299 148.57 409.867 148.57ZM418.547 156.156C417.516 156.156 416.688 155.781 416.062 155.031C415.443 154.276 415.133 153.164 415.133 151.695C415.133 150.211 415.448 149.089 416.078 148.328C416.714 147.568 417.549 147.188 418.586 147.188C419.023 147.188 419.406 147.247 419.734 147.367C420.062 147.482 420.344 147.638 420.578 147.836C420.818 148.034 421.021 148.255 421.188 148.5H421.273C421.247 148.339 421.216 148.107 421.18 147.805C421.148 147.497 421.133 147.214 421.133 146.953V143.844H422.977V156H421.539L421.211 154.82H421.133C420.977 155.07 420.779 155.297 420.539 155.5C420.305 155.698 420.023 155.857 419.695 155.977C419.372 156.096 418.99 156.156 418.547 156.156ZM419.062 154.664C419.849 154.664 420.404 154.438 420.727 153.984C421.049 153.531 421.216 152.852 421.227 151.945V151.703C421.227 150.734 421.07 149.992 420.758 149.477C420.445 148.956 419.875 148.695 419.047 148.695C418.385 148.695 417.88 148.964 417.531 149.5C417.188 150.031 417.016 150.773 417.016 151.727C417.016 152.68 417.188 153.409 417.531 153.914C417.88 154.414 418.391 154.664 419.062 154.664ZM431.422 153.531C431.422 154.099 431.284 154.578 431.008 154.969C430.732 155.359 430.328 155.656 429.797 155.859C429.271 156.057 428.625 156.156 427.859 156.156C427.255 156.156 426.734 156.112 426.297 156.023C425.865 155.94 425.456 155.81 425.07 155.633V154.047C425.482 154.24 425.943 154.406 426.453 154.547C426.969 154.688 427.456 154.758 427.914 154.758C428.518 154.758 428.953 154.664 429.219 154.477C429.484 154.284 429.617 154.029 429.617 153.711C429.617 153.523 429.562 153.357 429.453 153.211C429.349 153.06 429.151 152.906 428.859 152.75C428.573 152.589 428.151 152.396 427.594 152.172C427.047 151.953 426.586 151.734 426.211 151.516C425.836 151.297 425.552 151.034 425.359 150.727C425.167 150.414 425.07 150.016 425.07 149.531C425.07 148.766 425.372 148.185 425.977 147.789C426.586 147.388 427.391 147.188 428.391 147.188C428.922 147.188 429.422 147.242 429.891 147.352C430.365 147.456 430.828 147.609 431.281 147.812L430.703 149.195C430.312 149.023 429.919 148.883 429.523 148.773C429.133 148.659 428.734 148.602 428.328 148.602C427.854 148.602 427.492 148.674 427.242 148.82C426.997 148.966 426.875 149.174 426.875 149.445C426.875 149.648 426.935 149.82 427.055 149.961C427.174 150.102 427.38 150.242 427.672 150.383C427.969 150.523 428.38 150.698 428.906 150.906C429.422 151.104 429.867 151.312 430.242 151.531C430.622 151.745 430.914 152.008 431.117 152.32C431.32 152.633 431.422 153.036 431.422 153.531ZM436.812 152.484V150.93H440.844V152.484H436.812ZM451.023 156H449.141V146.172H445.797V144.578H454.359V146.172H451.023V156ZM454.617 147.352H456.617L458.391 152.289C458.469 152.513 458.539 152.734 458.602 152.953C458.669 153.167 458.727 153.378 458.773 153.586C458.826 153.794 458.867 154.003 458.898 154.211H458.945C458.997 153.94 459.07 153.638 459.164 153.305C459.263 152.966 459.372 152.628 459.492 152.289L461.195 147.352H463.172L459.461 157.188C459.247 157.75 458.984 158.229 458.672 158.625C458.365 159.026 458 159.328 457.578 159.531C457.156 159.74 456.674 159.844 456.133 159.844C455.872 159.844 455.646 159.828 455.453 159.797C455.26 159.771 455.096 159.742 454.961 159.711V158.242C455.07 158.268 455.208 158.292 455.375 158.312C455.542 158.333 455.714 158.344 455.891 158.344C456.219 158.344 456.503 158.279 456.742 158.148C456.982 158.018 457.185 157.833 457.352 157.594C457.518 157.359 457.656 157.091 457.766 156.789L458.07 155.977L454.617 147.352ZM468.922 147.188C469.948 147.188 470.771 147.562 471.391 148.312C472.016 149.062 472.328 150.177 472.328 151.656C472.328 152.635 472.182 153.461 471.891 154.133C471.604 154.799 471.201 155.305 470.68 155.648C470.164 155.987 469.562 156.156 468.875 156.156C468.438 156.156 468.057 156.099 467.734 155.984C467.411 155.87 467.135 155.721 466.906 155.539C466.677 155.352 466.484 155.148 466.328 154.93H466.219C466.245 155.138 466.268 155.37 466.289 155.625C466.315 155.875 466.328 156.104 466.328 156.312V159.836H464.484V147.352H465.984L466.242 148.547H466.328C466.49 148.302 466.685 148.076 466.914 147.867C467.148 147.659 467.43 147.495 467.758 147.375C468.091 147.25 468.479 147.188 468.922 147.188ZM468.43 148.688C467.924 148.688 467.518 148.789 467.211 148.992C466.909 149.19 466.688 149.49 466.547 149.891C466.411 150.292 466.339 150.794 466.328 151.398V151.656C466.328 152.297 466.393 152.841 466.523 153.289C466.659 153.732 466.88 154.07 467.188 154.305C467.5 154.534 467.922 154.648 468.453 154.648C468.901 154.648 469.271 154.526 469.562 154.281C469.859 154.036 470.081 153.688 470.227 153.234C470.372 152.781 470.445 152.247 470.445 151.633C470.445 150.701 470.279 149.977 469.945 149.461C469.617 148.945 469.112 148.688 468.43 148.688ZM477.898 147.188C478.669 147.188 479.331 147.346 479.883 147.664C480.435 147.982 480.859 148.432 481.156 149.016C481.453 149.599 481.602 150.297 481.602 151.109V152.094H475.828C475.849 152.932 476.073 153.578 476.5 154.031C476.932 154.484 477.536 154.711 478.312 154.711C478.865 154.711 479.359 154.659 479.797 154.555C480.24 154.445 480.695 154.286 481.164 154.078V155.57C480.732 155.773 480.292 155.922 479.844 156.016C479.396 156.109 478.859 156.156 478.234 156.156C477.385 156.156 476.638 155.992 475.992 155.664C475.352 155.331 474.849 154.836 474.484 154.18C474.125 153.523 473.945 152.708 473.945 151.734C473.945 150.766 474.109 149.943 474.438 149.266C474.766 148.589 475.227 148.073 475.82 147.719C476.414 147.365 477.107 147.188 477.898 147.188ZM477.898 148.57C477.32 148.57 476.852 148.758 476.492 149.133C476.138 149.508 475.93 150.057 475.867 150.781H479.805C479.799 150.349 479.727 149.966 479.586 149.633C479.451 149.299 479.242 149.039 478.961 148.852C478.685 148.664 478.331 148.57 477.898 148.57ZM498.156 150.273C498.156 151.154 498.044 151.956 497.82 152.68C497.602 153.398 497.271 154.018 496.828 154.539C496.385 155.055 495.831 155.453 495.164 155.734C494.497 156.016 493.716 156.156 492.82 156.156C491.909 156.156 491.117 156.016 490.445 155.734C489.779 155.453 489.224 155.052 488.781 154.531C488.344 154.01 488.016 153.388 487.797 152.664C487.578 151.94 487.469 151.138 487.469 150.258C487.469 149.081 487.661 148.055 488.047 147.18C488.438 146.299 489.029 145.617 489.82 145.133C490.617 144.643 491.622 144.398 492.836 144.398C494.023 144.398 495.01 144.641 495.797 145.125C496.583 145.609 497.172 146.292 497.562 147.172C497.958 148.047 498.156 149.081 498.156 150.273ZM489.438 150.273C489.438 151.154 489.557 151.917 489.797 152.562C490.036 153.203 490.404 153.698 490.898 154.047C491.398 154.391 492.039 154.562 492.82 154.562C493.607 154.562 494.247 154.391 494.742 154.047C495.237 153.698 495.602 153.203 495.836 152.562C496.07 151.917 496.188 151.154 496.188 150.273C496.188 148.935 495.919 147.888 495.383 147.133C494.852 146.372 494.003 145.992 492.836 145.992C492.055 145.992 491.411 146.164 490.906 146.508C490.406 146.852 490.036 147.344 489.797 147.984C489.557 148.62 489.438 149.383 489.438 150.273ZM504.742 148.75H502.641V156H500.805V148.75H499.391V147.867L500.805 147.328V146.727C500.805 145.992 500.919 145.409 501.148 144.977C501.383 144.544 501.716 144.234 502.148 144.047C502.586 143.854 503.107 143.758 503.711 143.758C504.107 143.758 504.469 143.792 504.797 143.859C505.125 143.922 505.401 143.995 505.625 144.078L505.148 145.469C504.971 145.411 504.773 145.359 504.555 145.312C504.336 145.26 504.102 145.234 503.852 145.234C503.435 145.234 503.128 145.365 502.93 145.625C502.737 145.885 502.641 146.266 502.641 146.766V147.352H504.742V148.75ZM519.836 150.18C519.836 151.466 519.596 152.542 519.117 153.406C518.638 154.266 517.943 154.914 517.031 155.352C516.12 155.784 515.021 156 513.734 156H510.562V144.578H514.078C515.26 144.578 516.281 144.792 517.141 145.219C518 145.641 518.664 146.268 519.133 147.102C519.602 147.93 519.836 148.956 519.836 150.18ZM517.883 150.234C517.883 149.297 517.734 148.526 517.438 147.922C517.146 147.318 516.714 146.87 516.141 146.578C515.573 146.281 514.872 146.133 514.039 146.133H512.438V154.43H513.766C515.146 154.43 516.177 154.078 516.859 153.375C517.542 152.672 517.883 151.625 517.883 150.234ZM529.766 151.656C529.766 152.375 529.672 153.013 529.484 153.57C529.297 154.128 529.023 154.599 528.664 154.984C528.305 155.365 527.872 155.656 527.367 155.859C526.862 156.057 526.292 156.156 525.656 156.156C525.062 156.156 524.518 156.057 524.023 155.859C523.529 155.656 523.099 155.365 522.734 154.984C522.375 154.599 522.096 154.128 521.898 153.57C521.701 153.013 521.602 152.375 521.602 151.656C521.602 150.703 521.766 149.896 522.094 149.234C522.427 148.568 522.901 148.06 523.516 147.711C524.13 147.362 524.862 147.188 525.711 147.188C526.508 147.188 527.211 147.362 527.82 147.711C528.43 148.06 528.906 148.568 529.25 149.234C529.594 149.901 529.766 150.708 529.766 151.656ZM523.492 151.656C523.492 152.286 523.568 152.826 523.719 153.273C523.875 153.721 524.115 154.065 524.438 154.305C524.76 154.539 525.177 154.656 525.688 154.656C526.198 154.656 526.615 154.539 526.938 154.305C527.26 154.065 527.497 153.721 527.648 153.273C527.799 152.826 527.875 152.286 527.875 151.656C527.875 151.026 527.799 150.492 527.648 150.055C527.497 149.612 527.26 149.276 526.938 149.047C526.615 148.812 526.195 148.695 525.68 148.695C524.919 148.695 524.365 148.951 524.016 149.461C523.667 149.971 523.492 150.703 523.492 151.656ZM534.344 159.844C533.172 159.844 532.273 159.633 531.648 159.211C531.023 158.789 530.711 158.198 530.711 157.438C530.711 156.906 530.878 156.456 531.211 156.086C531.544 155.721 532.021 155.469 532.641 155.328C532.406 155.224 532.203 155.062 532.031 154.844C531.865 154.62 531.781 154.372 531.781 154.102C531.781 153.779 531.872 153.503 532.055 153.273C532.237 153.044 532.51 152.823 532.875 152.609C532.422 152.417 532.057 152.104 531.781 151.672C531.51 151.234 531.375 150.721 531.375 150.133C531.375 149.508 531.508 148.977 531.773 148.539C532.039 148.096 532.427 147.76 532.938 147.531C533.448 147.297 534.065 147.18 534.789 147.18C534.945 147.18 535.115 147.19 535.297 147.211C535.484 147.227 535.656 147.247 535.812 147.273C535.974 147.294 536.096 147.318 536.18 147.344H539.172V148.367L537.703 148.641C537.844 148.839 537.956 149.065 538.039 149.32C538.122 149.57 538.164 149.844 538.164 150.141C538.164 151.036 537.854 151.742 537.234 152.258C536.62 152.768 535.771 153.023 534.688 153.023C534.427 153.013 534.174 152.992 533.93 152.961C533.742 153.076 533.599 153.203 533.5 153.344C533.401 153.479 533.352 153.633 533.352 153.805C533.352 153.945 533.401 154.06 533.5 154.148C533.599 154.232 533.745 154.294 533.938 154.336C534.135 154.378 534.375 154.398 534.656 154.398H536.148C537.096 154.398 537.82 154.599 538.32 155C538.82 155.401 539.07 155.99 539.07 156.766C539.07 157.75 538.664 158.508 537.852 159.039C537.039 159.576 535.87 159.844 534.344 159.844ZM534.414 158.555C535.055 158.555 535.594 158.492 536.031 158.367C536.469 158.242 536.799 158.062 537.023 157.828C537.247 157.599 537.359 157.326 537.359 157.008C537.359 156.727 537.289 156.51 537.148 156.359C537.008 156.208 536.797 156.104 536.516 156.047C536.234 155.99 535.885 155.961 535.469 155.961H534.109C533.771 155.961 533.471 156.013 533.211 156.117C532.951 156.227 532.747 156.383 532.602 156.586C532.461 156.789 532.391 157.034 532.391 157.32C532.391 157.716 532.565 158.021 532.914 158.234C533.268 158.448 533.768 158.555 534.414 158.555ZM534.773 151.82C535.31 151.82 535.708 151.674 535.969 151.383C536.229 151.086 536.359 150.669 536.359 150.133C536.359 149.549 536.224 149.112 535.953 148.82C535.688 148.529 535.292 148.383 534.766 148.383C534.25 148.383 533.857 148.531 533.586 148.828C533.32 149.125 533.188 149.565 533.188 150.148C533.188 150.674 533.32 151.086 533.586 151.383C533.857 151.674 534.253 151.82 534.773 151.82ZM546.562 153.531C546.562 154.099 546.424 154.578 546.148 154.969C545.872 155.359 545.469 155.656 544.938 155.859C544.411 156.057 543.766 156.156 543 156.156C542.396 156.156 541.875 156.112 541.438 156.023C541.005 155.94 540.596 155.81 540.211 155.633V154.047C540.622 154.24 541.083 154.406 541.594 154.547C542.109 154.688 542.596 154.758 543.055 154.758C543.659 154.758 544.094 154.664 544.359 154.477C544.625 154.284 544.758 154.029 544.758 153.711C544.758 153.523 544.703 153.357 544.594 153.211C544.49 153.06 544.292 152.906 544 152.75C543.714 152.589 543.292 152.396 542.734 152.172C542.188 151.953 541.727 151.734 541.352 151.516C540.977 151.297 540.693 151.034 540.5 150.727C540.307 150.414 540.211 150.016 540.211 149.531C540.211 148.766 540.513 148.185 541.117 147.789C541.727 147.388 542.531 147.188 543.531 147.188C544.062 147.188 544.562 147.242 545.031 147.352C545.505 147.456 545.969 147.609 546.422 147.812L545.844 149.195C545.453 149.023 545.06 148.883 544.664 148.773C544.273 148.659 543.875 148.602 543.469 148.602C542.995 148.602 542.633 148.674 542.383 148.82C542.138 148.966 542.016 149.174 542.016 149.445C542.016 149.648 542.076 149.82 542.195 149.961C542.315 150.102 542.521 150.242 542.812 150.383C543.109 150.523 543.521 150.698 544.047 150.906C544.562 151.104 545.008 151.312 545.383 151.531C545.763 151.745 546.055 152.008 546.258 152.32C546.461 152.633 546.562 153.036 546.562 153.531ZM553.273 144.578L553.391 144.75C553.297 145.13 553.174 145.536 553.023 145.969C552.878 146.401 552.719 146.833 552.547 147.266C552.375 147.698 552.201 148.107 552.023 148.492H550.68C550.784 148.081 550.888 147.643 550.992 147.18C551.096 146.716 551.193 146.258 551.281 145.805C551.37 145.352 551.44 144.943 551.492 144.578H553.273ZM550.016 144.578L550.125 144.75C550.031 145.13 549.909 145.536 549.758 145.969C549.612 146.401 549.453 146.833 549.281 147.266C549.109 147.698 548.935 148.107 548.758 148.492H547.438C547.51 148.185 547.586 147.862 547.664 147.523C547.742 147.18 547.815 146.836 547.883 146.492C547.956 146.143 548.021 145.807 548.078 145.484C548.141 145.156 548.19 144.854 548.227 144.578H550.016Z" fill="#202124"/>
</svg>
