<svg width="136" height="108" viewBox="0 0 136 108" fill="none" xmlns="http://www.w3.org/2000/svg">
<rect width="136" height="108" fill="white"/>
<path d="M44 46C46.2 46 48 44.2 48 42C48 39.8 46.2 38 44 38C41.8 38 40 39.8 40 42C40 44.2 41.8 46 44 46ZM44 50C41.8 50 40 51.8 40 54C40 56.2 41.8 58 44 58C46.2 58 48 56.2 48 54C48 51.8 46.2 50 44 50ZM44 62C41.8 62 40 63.8 40 66C40 68.2 41.8 70 44 70C46.2 70 48 68.2 48 66C48 63.8 46.2 62 44 62Z" fill="black"/>
<path d="M92 46C94.2 46 96 44.2 96 42C96 39.8 94.2 38 92 38C89.8 38 88 39.8 88 42C88 44.2 89.8 46 92 46ZM92 50C89.8 50 88 51.8 88 54C88 56.2 89.8 58 92 58C94.2 58 96 56.2 96 54C96 51.8 94.2 50 92 50ZM92 62C89.8 62 88 63.8 88 66C88 68.2 89.8 70 92 70C94.2 70 96 68.2 96 66C96 63.8 94.2 62 92 62Z" fill="black"/>
</svg>
