<svg width="530" height="350" viewBox="0 0 530 350" fill="none" xmlns="http://www.w3.org/2000/svg">
<g clip-path="url(#clip0_41_178)">
<rect width="530" height="350" fill="white"/>
<rect width="530" height="350" fill="#DEDEDE"/>
<rect y="21" width="530" height="24" fill="#BDBDBD"/>
<rect x="56.1812" y="26" width="463.819" height="14" rx="7" fill="#6A6A6A"/>
<path d="M15.8981 33.0625L10 33.0625" stroke="#595959" stroke-linecap="round" stroke-linejoin="round"/>
<path d="M12.949 36L9.99997 33.0625L12.949 30.125" stroke="#595959" stroke-linecap="round" stroke-linejoin="round"/>
<path d="M24.9335 33.0625L30.8317 33.0625" stroke="#595959" stroke-linecap="round" stroke-linejoin="round"/>
<path d="M27.8825 36L30.8316 33.0625L27.8825 30.125" stroke="#595959" stroke-linecap="round" stroke-linejoin="round"/>
<path d="M39.9927 31.8L43.6068 29L47.221 31.8V36.2C47.221 36.4122 47.1364 36.6157 46.9858 36.7657C46.8352 36.9157 46.6309 37 46.4179 37H40.7958C40.5828 37 40.3785 36.9157 40.2279 36.7657C40.0773 36.6157 39.9927 36.4122 39.9927 36.2V31.8Z" stroke="#595959" stroke-linecap="round" stroke-linejoin="round"/>
<path d="M42.402 37V33H44.8115V37" stroke="#595959" stroke-linecap="round" stroke-linejoin="round"/>
<path d="M19.9036 8.50862C20.5559 6.42125 22.489 5 24.676 5H114.324C116.511 5 118.444 6.42125 119.096 8.50863L123 21H16L19.9036 8.50862Z" fill="#BDBDBD"/>
<path d="M131 9V17" stroke="#595959" stroke-linecap="round" stroke-linejoin="round"/>
<path d="M127 13H135" stroke="#595959" stroke-linecap="round" stroke-linejoin="round"/>
<path d="M517 9L520 12L523 9" stroke="#595959" stroke-linecap="round" stroke-linejoin="round"/>
<rect x="520" y="45" width="10" height="305" fill="#CDCDCD"/>
<rect x="522" y="49" width="6" height="113" rx="3" fill="#6A6A6A"/>
<path d="M515 30.2995V32.0998H513.199" stroke="#DEDEDE" stroke-width="0.75" stroke-linecap="round" stroke-linejoin="round"/>
<path d="M514.247 33.6001C514.052 34.1522 513.683 34.626 513.195 34.95C512.707 35.274 512.127 35.4307 511.543 35.3965C510.958 35.3623 510.401 35.139 509.954 34.7604C509.508 34.3817 509.196 33.8682 509.067 33.2971C508.937 32.726 508.997 32.1284 509.237 31.5943C509.477 31.0601 509.884 30.6184 510.397 30.3357C510.909 30.053 511.5 29.9445 512.08 30.0268C512.66 30.109 513.197 30.3774 513.611 30.7916L515 32.0998" stroke="#DEDEDE" stroke-width="0.75" stroke-linecap="round" stroke-linejoin="round"/>
<rect x="2" y="47" width="516" height="301" fill="white"/>
<path d="M2 51.515V48.505H2.5V47.5H3.5V47H6.5V47.5H9.5V47H12.5V47.5H15.5V47H18.5V47.5H21.5V47H24.5V47.5H27.5V47H30.5V47.5H33.5V47H36.5V47.5H39.5V47H42.5V47.5H45.5V47H48.5V47.5H51.5V47H54.5V47.5H57.5V47H60.5V47.5H63.5V47H66.5V47.5H69.5V47H72.5V47.5H75.5V47H78.5V47.5H81.5V47H84.5V47.5H87.5V47H90.5V47.5H93.5V47H96.5V47.5H99.5V47H102.5V47.5H105.5V47H108.5V47.5H111.5V47H114.5V47.5H117.5V47H120.5V47.5H123.5V47H126.5V47.5H129.5V47H132.5V47.5H135.5V47H138.5V47.5H141.5V47H144.5V47.5H147.5V47H150.5V47.5H153.5V47H156.5V47.5H159.5V47H162.5V47.5H165.5V47H168.5V47.5H171.5V47H174.5V47.5H177.5V47H180.5V47.5H183.5V47H186.5V47.5H189.5V47H192.5V47.5H195.5V47H198.5V47.5H201.5V47H204.5V47.5H207.5V47H210.5V47.5H213.5V47H216.5V47.5H219.5V47H222.5V47.5H225.5V47H228.5V47.5H231.5V47H234.5V47.5H237.5V47H240.5V47.5H243.5V47H246.5V47.5H249.5V47H252.5V47.5H255.5V47H258.5V47.5H261.5V47H264.5V47.5H267.5V47H270.5V47.5H273.5V47H276.5V47.5H279.5V47H282.5V47.5H285.5V47H288.5V47.5H291.5V47H294.5V47.5H297.5V47H300.5V47.5H303.5V47H306.5V47.5H309.5V47H312.5V47.5H315.5V47H318.5V47.5H321.5V47H324.5V47.5H327.5V47H330.5V47.5H333.5V47H336.5V47.5H339.5V47H342.5V47.5H345.5V47H348.5V47.5H351.5V47H354.5V47.5H357.5V47H360.5V47.5H363.5V47H366.5V47.5H369.5V47H372.5V47.5H375.5V47H378.5V47.5H381.5V47H384.5V47.5H387.5V47H390.5V47.5H393.5V47H396.5V47.5H399.5V47H402.5V47.5H405.5V47H408.5V47.5H411.5V47H414.5V47.5H417.5V47H420.5V47.5H423.5V47H426.5V47.5H429.5V47H432.5V47.5H435.5V47H438.5V47.5H441.5V47H444.5V47.5H447.5V47H450.5V47.5H453.5V47H456.5V47.5H459.5V47H462.5V47.5H465.5V47H468.5V47.5H471.5V47H474.5V47.5H477.5V47H480.5V47.5H483.5V47H486.5V47.5H489.5V47H492.5V47.5H495.5V47H498.5V47.5H501.5V47H504.5V47.5H507.5V47H510.5V47.5H513.5V47H516.5V47.5H517.5V48.5051H518V51.5151H517.5V54.5251H518V57.5351H517.5V60.5451H518V63.5551H517.5V66.5651H518V69.5751H517.5V72.5851H518V75.5952H517.5V78.6052H518V81.6152H517.5V84.6252H518V87.6352H517.5V90.6452H518V93.6552H517.5V96.6652H518V99.6752H517.5V102.685H518V105.695H517.5V108.705H518V111.715H517.5V114.725H518V117.735H517.5V120.745H518V123.755H517.5V126.765H518V129.775H517.5V132.785H518V135.795H517.5V138.805H518V141.815H517.5V144.825H518V147.835H517.5V150.845H518V153.855H517.5V156.865H518V159.875H517.5V162.885H518V165.895H517.5V168.905H518V171.915H517.5V174.925H518V177.935H517.5V180.945H518V183.955H517.5V186.965H518V189.975H517.5V192.985H518V195.995H517.5V199.005H518V202.015H517.5V205.025H518V208.035H517.5V211.045H518V214.055H517.5V217.065H518V220.075H517.5V223.085H518V226.095H517.5V229.105H518V232.115H517.5V235.125H518V238.135H517.5V241.145H518V244.155H517.5V247.165H518V250.175H517.5V253.185H518V256.195H517.5V259.205H518V262.215H517.5V265.225H518V268.235H517.5V271.245H518V274.255H517.5V277.265H518V280.275H517.5V283.285H518V286.295H517.5V289.305H518V292.315H517.5V295.325H518V298.335H517.5V301.345H518V304.355H517.5V307.365H518V310.375H517.5V313.385H518V316.395H517.5V319.405H518V322.415H517.5V325.425H518V328.435H517.5V331.445H518V334.455H517.5V337.465H518V340.475H517.5V343.485H518V346.495H517.5V347.5H516.5V348H513.5V347.5H510.5V348H507.5V347.5H504.5V348H501.5V347.5H498.5V348H495.5V347.5H492.5V348H489.5V347.5H486.5V348H483.5V347.5H480.5V348H477.5V347.5H474.5V348H471.5V347.5H468.5V348H465.5V347.5H462.5V348H459.5V347.5H456.5V348H453.5V347.5H450.5V348H447.5V347.5H444.5V348H441.5V347.5H438.5V348H435.5V347.5H432.5V348H429.5V347.5H426.5V348H423.5V347.5H420.5V348H417.5V347.5H414.5V348H411.5V347.5H408.5V348H405.5V347.5H402.5V348H399.5V347.5H396.5V348H393.5V347.5H390.5V348H387.5V347.5H384.5V348H381.5V347.5H378.5V348H375.5V347.5H372.5V348H369.5V347.5H366.5V348H363.5V347.5H360.5V348H357.5V347.5H354.5V348H351.5V347.5H348.5V348H345.5V347.5H342.5V348H339.5V347.5H336.5V348H333.5V347.5H330.5V348H327.5V347.5H324.5V348H321.5V347.5H318.5V348H315.5V347.5H312.5V348H309.5V347.5H306.5V348H303.5V347.5H300.5V348H297.5V347.5H294.5V348H291.5V347.5H288.5V348H285.5V347.5H282.5V348H279.5V347.5H276.5V348H273.5V347.5H270.5V348H267.5V347.5H264.5V348H261.5V347.5H258.5V348H255.5V347.5H252.5V348H249.5V347.5H246.5V348H243.5V347.5H240.5V348H237.5V347.5H234.5V348H231.5V347.5H228.5V348H225.5V347.5H222.5V348H219.5V347.5H216.5V348H213.5V347.5H210.5V348H207.5V347.5H204.5V348H201.5V347.5H198.5V348H195.5V347.5H192.5V348H189.5V347.5H186.5V348H183.5V347.5H180.5V348H177.5V347.5H174.5V348H171.5V347.5H168.5V348H165.5V347.5H162.5V348H159.5V347.5H156.5V348H153.5V347.5H150.5V348H147.5V347.5H144.5V348H141.5V347.5H138.5V348H135.5V347.5H132.5V348H129.5V347.5H126.5V348H123.5V347.5H120.5V348H117.5V347.5H114.5V348H111.5V347.5H108.5V348H105.5V347.5H102.5V348H99.5V347.5H96.5V348H93.5V347.5H90.5V348H87.5V347.5H84.5V348H81.5V347.5H78.5V348H75.5V347.5H72.5V348H69.5V347.5H66.5V348H63.5V347.5H60.5V348H57.5V347.5H54.5V348H51.5V347.5H48.5V348H45.5V347.5H42.5V348H39.5V347.5H36.5V348H33.5V347.5H30.5V348H27.5V347.5H24.5V348H21.5V347.5H18.5V348H15.5V347.5H12.5V348H9.5V347.5H6.5V348H3.5V347.5H2.5V346.495H2V343.485H2.5V340.475H2V337.465H2.5V334.455H2V331.445H2.5V328.435H2V325.425H2.5V322.415H2V319.405H2.5V316.395H2V313.385H2.5V310.375H2V307.365H2.5V304.355H2V301.345H2.5V298.335H2V295.325H2.5V292.315H2V289.305H2.5V286.295H2V283.285H2.5V280.275H2V277.265H2.5V274.255H2V271.245H2.5V268.235H2V265.225H2.5V262.215H2V259.205H2.5V256.195H2V253.185H2.5V250.175H2V247.165H2.5V244.155H2V241.145H2.5V238.135H2V235.125H2.5V232.115H2V229.105H2.5V226.095H2V223.085H2.5V220.075H2V217.065H2.5V214.055H2V211.045H2.5V208.035H2V205.025H2.5V202.015H2V199.005H2.5V195.995H2V192.985H2.5V189.975H2V186.965H2.5V183.955H2V180.945H2.5V177.935H2V174.925H2.5V171.915H2V168.905H2.5V165.895H2V162.885H2.5V159.875H2V156.865H2.5V153.855H2V150.845H2.5V147.835H2V144.825H2.5V141.815H2V138.805H2.5V135.795H2V132.785H2.5V129.775H2V126.765H2.5V123.755H2V120.745H2.5V117.735H2V114.725H2.5V111.715H2V108.705H2.5V105.695H2V102.685H2.5V99.675H2V96.665H2.5V93.655H2V90.645H2.5V87.635H2V84.625H2.5V81.615H2V78.605H2.5V75.595H2V72.585H2.5V69.575H2V66.565H2.5V63.555H2V60.545H2.5V57.535H2V54.525H2.5V51.515H2Z" fill="#EFB1DE" fill-opacity="0.25" stroke="#D761B8" stroke-dasharray="3 3"/>
</g>
<defs>
<clipPath id="clip0_41_178">
<rect width="530" height="350" fill="white"/>
</clipPath>
</defs>
</svg>
