<svg width="530" height="350" viewBox="0 0 530 350" fill="none" xmlns="http://www.w3.org/2000/svg">
<g clip-path="url(#clip0_41_178)">
<rect width="530" height="350" fill="white"/>
<rect width="530" height="350" fill="#DEDEDE"/>
<rect y="21" width="530" height="24" fill="#BDBDBD"/>
<rect x="56.1812" y="26" width="463.819" height="14" rx="7" fill="#6A6A6A"/>
<path d="M15.8981 33.0625L10 33.0625" stroke="#595959" stroke-linecap="round" stroke-linejoin="round"/>
<path d="M12.949 36L9.99997 33.0625L12.949 30.125" stroke="#595959" stroke-linecap="round" stroke-linejoin="round"/>
<path d="M24.9335 33.0625L30.8317 33.0625" stroke="#595959" stroke-linecap="round" stroke-linejoin="round"/>
<path d="M27.8825 36L30.8316 33.0625L27.8825 30.125" stroke="#595959" stroke-linecap="round" stroke-linejoin="round"/>
<path d="M39.9927 31.8L43.6068 29L47.221 31.8V36.2C47.221 36.4122 47.1364 36.6157 46.9858 36.7657C46.8352 36.9157 46.6309 37 46.4179 37H40.7958C40.5828 37 40.3785 36.9157 40.2279 36.7657C40.0773 36.6157 39.9927 36.4122 39.9927 36.2V31.8Z" stroke="#595959" stroke-linecap="round" stroke-linejoin="round"/>
<path d="M42.402 37V33H44.8115V37" stroke="#595959" stroke-linecap="round" stroke-linejoin="round"/>
<path d="M19.9036 8.50862C20.5559 6.42125 22.489 5 24.676 5H114.324C116.511 5 118.444 6.42125 119.096 8.50863L123 21H16L19.9036 8.50862Z" fill="#BDBDBD"/>
<path d="M131 9V17" stroke="#595959" stroke-linecap="round" stroke-linejoin="round"/>
<path d="M127 13H135" stroke="#595959" stroke-linecap="round" stroke-linejoin="round"/>
<path d="M517 9L520 12L523 9" stroke="#595959" stroke-linecap="round" stroke-linejoin="round"/>
<rect x="520" y="45" width="10" height="305" fill="#CDCDCD"/>
<rect x="522" y="49" width="6" height="113" rx="3" fill="#6A6A6A"/>
<path d="M515 30.2995V32.0998H513.199" stroke="#DEDEDE" stroke-width="0.75" stroke-linecap="round" stroke-linejoin="round"/>
<path d="M514.247 33.6001C514.052 34.1522 513.683 34.626 513.195 34.95C512.707 35.274 512.127 35.4307 511.543 35.3965C510.958 35.3623 510.401 35.139 509.954 34.7604C509.508 34.3817 509.196 33.8682 509.067 33.2971C508.937 32.726 508.997 32.1284 509.237 31.5943C509.477 31.0601 509.884 30.6184 510.397 30.3357C510.909 30.053 511.5 29.9445 512.08 30.0268C512.66 30.109 513.197 30.3774 513.611 30.7916L515 32.0998" stroke="#DEDEDE" stroke-width="0.75" stroke-linecap="round" stroke-linejoin="round"/>
<g style="mix-blend-mode:soft-light">
<path d="M2 43V4.5V2H528V348H522V43H2Z" fill="white"/>
</g>
<path d="M6.48353 43H3.49498V42.5H2.5V41.3958H2V38.1875H2.5V34.9792H2V31.7708H2.5V28.5625H2V25.3542H2.5V22.1458H2V18.9375H2.5V15.7292H2V12.5208H2.5V9.3125H2V6.10417H2.5V4.5V3.875H2V2.625H2.5V2.5H3.49432V2H6.48295V2.5H9.47159V2H12.4602V2.5H15.4489V2H18.4375V2.5H21.4261V2H24.4148V2.5H27.4034V2H30.392V2.5H33.3807V2H36.3693V2.5H39.358V2H42.3466V2.5H45.3352V2H48.3239V2.5H51.3125V2H54.3011V2.5H57.2898V2H60.2784V2.5H63.267V2H66.2557V2.5H69.2443V2H72.233V2.5H75.2216V2H78.2102V2.5H81.1989V2H84.1875V2.5H87.1762V2H90.1648V2.5H93.1534V2H96.1421V2.5H99.1307V2H102.119V2.5H105.108V2H108.097V2.5H111.085V2H114.074V2.5H117.063V2H120.051V2.5H123.04V2H126.028V2.5H129.017V2H132.006V2.5H134.994V2H137.983V2.5H140.972V2H143.96V2.5H146.949V2H149.938V2.5H152.926V2H155.915V2.5H158.903V2H161.892V2.5H164.881V2H167.869V2.5H170.858V2H173.847V2.5H176.835V2H179.824V2.5H182.812V2H185.801V2.5H188.79V2H191.778V2.5H194.767V2H197.756V2.5H200.744V2H203.733V2.5H206.722V2H209.71V2.5H212.699V2H215.687V2.5H218.676V2H221.665V2.5H224.653V2H227.642V2.5H230.631V2H233.619V2.5H236.608V2H239.597V2.5H242.585V2H245.574V2.5H248.562V2H251.551V2.5H254.54V2H257.528V2.5H260.517V2H263.506V2.5H266.494V2H269.483V2.5H272.472V2H275.46V2.5H278.449V2H281.437V2.5H284.426V2H287.415V2.5H290.403V2H293.392V2.5H296.381V2H299.369V2.5H302.358V2H305.347V2.5H308.335V2H311.324V2.5H314.313V2H317.301V2.5H320.29V2H323.279V2.5H326.267V2H329.256V2.5H332.244V2H335.233V2.5H338.222V2H341.21V2.5H344.199V2H347.188V2.5H350.176V2H353.165V2.5H356.154V2H359.142V2.5H362.131V2H365.12V2.5H368.108V2H371.097V2.5H374.086V2H377.074V2.5H380.063V2H383.051V2.5H386.04V2H389.029V2.5H392.017V2H395.006V2.5H397.995V2H400.983V2.5H403.972V2H406.961V2.5H409.949V2H412.938V2.5H415.927V2H418.915V2.5H421.904V2H424.893V2.5H427.881V2H430.87V2.5H433.858V2H436.847V2.5H439.836V2H442.824V2.5H445.813V2H448.802V2.5H451.79V2H454.779V2.5H457.768V2H460.756V2.5H463.745V2H466.734V2.5H469.722V2H472.711V2.5H475.7V2H478.688V2.5H481.677V2H484.665V2.5H487.654V2H490.643V2.5H493.631V2H496.62V2.5H499.609V2H502.597V2.5H505.586V2H508.575V2.5H511.563V2H514.552V2.5H517.541V2H520.529V2.5H523.518V2H526.507V2.5H527.5V3.49138H528V6.47414H527.5V9.4569H528V12.4397H527.5V15.4224H528V18.4052H527.5V21.3879H528V24.3707H527.5V27.3534H528V30.3362H527.5V33.319H528V36.3017H527.5V39.2845H528V42.2672H527.5V45.25H528V48.2327H527.5V51.2155H528V54.1983H527.5V57.181H528V60.1638H527.5V63.1465H528V66.1293H527.5V69.1121H528V72.0948H527.5V75.0776H528V78.0603H527.5V81.0431H528V84.0258H527.5V87.0086H528V89.9914H527.5V92.9741H528V95.9569H527.5V98.9396H528V101.922H527.5V104.905H528V107.888H527.5V110.871H528V113.853H527.5V116.836H528V119.819H527.5V122.802H528V125.784H527.5V128.767H528V131.75H527.5V134.733H528V137.715H527.5V140.698H528V143.681H527.5V146.664H528V149.647H527.5V152.629H528V155.612H527.5V158.595H528V161.578H527.5V164.56H528V167.543H527.5V170.526H528V173.509H527.5V176.491H528V179.474H527.5V182.457H528V185.44H527.5V188.422H528V191.405H527.5V194.388H528V197.371H527.5V200.353H528V203.336H527.5V206.319H528V209.302H527.5V212.284H528V215.267H527.5V218.25H528V221.233H527.5V224.215H528V227.198H527.5V230.181H528V233.164H527.5V236.146H528V239.129H527.5V242.112H528V245.095H527.5V248.078H528V251.06H527.5V254.043H528V257.026H527.5V260.009H528V262.991H527.5V265.974H528V268.957H527.5V271.94H528V274.922H527.5V277.905H528V280.888H527.5V283.871H528V286.853H527.5V289.836H528V292.819H527.5V295.802H528V298.784H527.5V301.767H528V304.75H527.5V307.733H528V310.715H527.5V313.698H528V316.681H527.5V319.664H528V322.646H527.5V325.629H528V328.612H527.5V331.595H528V334.577H527.5V337.56H528V340.543H527.5V343.526H528V346.509H527.5V347.5H526.5V348H523.5V347.5H522.5V346.505H522V343.515H522.5V340.525H522V337.534H522.5V334.544H522V331.554H522.5V328.564H522V325.574H522.5V322.583H522V319.593H522.5V316.603H522V313.613H522.5V310.623H522V307.632H522.5V304.642H522V301.652H522.5V298.662H522V295.672H522.5V292.681H522V289.691H522.5V286.701H522V283.711H522.5V280.721H522V277.73H522.5V274.74H522V271.75H522.5V268.76H522V265.77H522.5V262.779H522V259.789H522.5V256.799H522V253.809H522.5V250.819H522V247.828H522.5V244.838H522V241.848H522.5V238.858H522V235.868H522.5V232.877H522V229.887H522.5V226.897H522V223.907H522.5V220.917H522V217.926H522.5V214.936H522V211.946H522.5V208.956H522V205.966H522.5V202.976H522V199.985H522.5V196.995H522V194.005H522.5V191.015H522V188.025H522.5V185.034H522V182.044H522.5V179.054H522V176.064H522.5V173.074H522V170.083H522.5V167.093H522V164.103H522.5V161.113H522V158.123H522.5V155.133H522V152.142H522.5V149.152H522V146.162H522.5V143.172H522V140.182H522.5V137.191H522V134.201H522.5V131.211H522V128.221H522.5V125.231H522V122.24H522.5V119.25H522V116.26H522.5V113.27H522V110.28H522.5V107.289H522V104.299H522.5V101.309H522V98.3189H522.5V95.3287H522V92.3386H522.5V89.3484H522V86.3582H522.5V83.368H522V80.3778H522.5V77.3876H522V74.3973H522.5V71.4071H522V68.4169H522.5V65.4267H522V62.4365H522.5V59.4463H522V56.4561H522.5V53.4659H522V50.4757H522.5V47.4855H522V44.4953H522.5V43V42.5H522H520.506V43H517.517V42.5H514.529V43H511.54V42.5H508.552V43H505.563V42.5H502.575V43H499.586V42.5H496.598V43H493.609V42.5H490.621V43H487.632V42.5H484.644V43H481.655V42.5H478.667V43H475.678V42.5H472.69V43H469.701V42.5H466.713V43H463.724V42.5H460.736V43H457.747V42.5H454.759V43H451.77V42.5H448.782V43H445.793V42.5H442.805V43H439.816V42.5H436.828V43H433.839V42.5H430.851V43H427.862V42.5H424.874V43H421.885V42.5H418.897V43H415.908V42.5H412.92V43H409.931V42.5H406.943V43H403.954V42.5H400.966V43H397.977V42.5H394.989V43H392V42.5H389.012V43H386.023V42.5H383.035V43H380.046V42.5H377.058V43H374.069V42.5H371.08V43H368.092V42.5H365.103V43H362.115V42.5H359.126V43H356.138V42.5H353.149V43H350.161V42.5H347.172V43H344.184V42.5H341.195V43H338.207V42.5H335.218V43H332.23V42.5H329.241V43H326.253V42.5H323.264V43H320.276V42.5H317.287V43H314.299V42.5H311.31V43H308.322V42.5H305.333V43H302.345V42.5H299.356V43H296.368V42.5H293.379V43H290.391V42.5H287.402V43H284.414V42.5H281.425V43H278.437V42.5H275.448V43H272.46V42.5H269.471V43H266.483V42.5H263.494V43H260.506V42.5H257.517V43H254.529V42.5H251.54V43H248.552V42.5H245.563V43H242.575V42.5H239.586V43H236.598V42.5H233.609V43H230.621V42.5H227.632V43H224.644V42.5H221.655V43H218.667V42.5H215.678V43H212.69V42.5H209.701V43H206.713V42.5H203.724V43H200.736V42.5H197.747V43H194.759V42.5H191.77V43H188.782V42.5H185.793V43H182.805V42.5H179.816V43H176.828V42.5H173.839V43H170.851V42.5H167.862V43H164.874V42.5H161.885V43H158.897V42.5H155.908V43H152.92V42.5H149.931V43H146.943V42.5H143.954V43H140.966V42.5H137.977V43H134.989V42.5H132V43H129.012V42.5H126.023V43H123.035V42.5H120.046V43H117.058V42.5H114.069V43H111.081V42.5H108.092V43H105.104V42.5H102.115V43H99.1269V42.5H96.1384V43H93.1499V42.5H90.1614V43H87.1729V42.5H84.1844V43H81.1959V42.5H78.2075V43H75.219V42.5H72.2305V43H69.242V42.5H66.2535V43H63.265V42.5H60.2765V43H57.288V42.5H54.2995V43H51.311V42.5H48.3225V43H45.334V42.5H42.3455V43H39.357V42.5H36.3685V43H33.38V42.5H30.3915V43H27.4031V42.5H24.4145V43H21.4261V42.5H18.4375V43H15.4491V42.5H12.4606V43H9.47204V42.5H6.48353V43Z" fill="#EFB1DE" fill-opacity="0.25" stroke="#D761B8" stroke-dasharray="3 3"/>
</g>
<defs>
<clipPath id="clip0_41_178">
<rect width="530" height="350" fill="white"/>
</clipPath>
</defs>
</svg>
