<svg width="400" height="400" viewBox="0 0 400 400" fill="none" xmlns="http://www.w3.org/2000/svg">
<rect width="400" height="400" fill="white"/>
<circle cx="192.5" cy="192.5" r="136.5" stroke="#E67A5A" stroke-width="40"/>
<path d="M74.8417 253.886L226.79 119.575L63.0272 246.647C44.8495 260.268 12.9408 290.235 2.97645 338.277C0.491103 350.262 -0.438443 362.477 0.190272 374.783C4.16174 359.35 11.9268 338.592 26.8807 321.064C39.3681 288.167 61.0247 265.69 74.8417 253.886Z" fill="#4A4A4A"/>
<path d="M397.078 13.8182C394.753 11.0173 391.474 9.32132 387.845 9.04099C387.49 9.01393 387.137 9 386.786 9C383.533 9 380.439 10.1664 377.979 12.3411L342.207 43.9604C335.933 49.5066 328.224 53.0452 319.916 54.1945L319.7 54.224C312.652 55.1994 306.136 58.1905 300.832 62.8784L79.1427 258.836C61.8772 273.586 31.9596 305.524 25.1036 354.101C23.383 366.288 23.2486 378.607 24.6921 390.916C29.2578 367.008 41.8723 329.54 76.6934 309.714C84.756 305.124 93.5801 301.732 102.919 299.633C111.723 297.655 119.94 293.46 126.681 287.502L336.107 102.386C341.408 97.6995 345.161 91.6157 346.961 84.7908L347.023 84.5547C349.154 76.4773 353.597 69.2721 359.873 63.7244L395.348 32.3673C400.796 27.554 401.571 19.2324 397.078 13.8182Z" fill="#4A4A4A"/>
<line x1="90.5938" y1="94.3095" x2="281.594" y2="285.31" stroke="#E67A5A" stroke-width="40"/>
</svg>
