<svg width="291" height="300" viewBox="0 0 291 300" fill="none" xmlns="http://www.w3.org/2000/svg">
<g clip-path="url(#clip0_6_688)">
<path d="M76.4216 221.68L86.1419 300C71.188 299.55 58.3106 290.022 54.9047 276.744L39.4526 216.279C48.9231 219.88 59.2253 221.905 70.1083 221.905C72.2678 221.905 74.3447 221.831 76.4216 221.68ZM99.0188 216.879C94.3666 218.529 89.5477 219.805 84.7294 220.63L94.4496 300H123.776L120.868 227.157C113.059 224.906 105.665 221.38 99.0188 216.879ZM139.81 230.683C136.238 230.457 132.749 230.007 129.26 229.332L132.084 300H159.499L162.324 229.257C156.924 230.382 151.358 230.907 145.792 230.907C143.798 230.908 141.804 230.833 139.81 230.683ZM192.565 216.879C185.918 221.38 178.524 224.831 170.715 227.232L167.807 300H196.967L206.77 220.63C201.952 219.805 197.217 218.604 192.565 216.879ZM221.392 221.905C219.232 221.905 217.155 221.831 215.078 221.68L205.441 300C220.395 299.475 233.107 290.022 236.512 276.744L251.882 216.354C242.494 219.955 232.192 221.905 221.392 221.905ZM291.426 151.163C291.426 186.121 260.107 214.403 221.392 214.403C210.592 214.403 200.373 212.153 191.318 208.177C177.693 218.679 159.666 224.531 140.475 223.256C125.023 222.205 111.149 216.654 100.266 208.177C91.1269 212.153 80.9083 214.403 70.1083 214.403C31.394 214.403 0.0738525 186.122 0.0738525 151.163C0.0738525 128.132 13.6983 108.027 34.1354 96.9239C36.3789 43.0608 85.4774 0 145.709 0C206.023 0 255.038 43.0608 257.365 96.9239C277.719 108.027 291.426 128.132 291.426 151.163Z" fill="white"/>
<ellipse cx="115.092" cy="62.0845" rx="22.5" ry="22.5" fill="#2484A6"/>
<ellipse cx="204.592" cy="122.084" rx="22.5" ry="22.5" fill="#2484A6"/>
<ellipse cx="92.5917" cy="139.084" rx="22.5" ry="22.5" fill="#2484A6"/>
<path d="M86.0903 139.616L86.4153 140.053L86.4153 140.051C86.4744 140.134 86.5542 140.207 86.6457 140.268C87.0712 140.55 87.6592 140.449 87.9577 140.048L88.2472 139.66C88.5605 139.237 88.9623 138.913 89.4173 138.707C89.8635 138.503 90.3776 138.409 90.9213 138.439L91.4354 138.473C91.5418 138.481 91.6511 138.47 91.7604 138.439C92.2598 138.303 92.5464 137.806 92.3987 137.335L92.2568 136.878C92.1061 136.393 92.0825 135.905 92.1859 135.453L92.1948 135.42C92.3071 134.957 92.5523 134.514 92.9187 134.132L93.2083 133.831C93.3028 133.747 93.3796 133.644 93.4328 133.521C93.6278 133.067 93.3974 132.546 92.9128 132.361L92.4489 132.183C91.9407 131.985 91.5152 131.69 91.205 131.322C90.8888 130.948 90.6761 130.494 90.5874 129.983L90.5165 129.574C90.5047 129.454 90.4663 129.334 90.4013 129.222C90.1472 128.796 89.571 128.642 89.116 128.882L88.6787 129.114C88.2 129.367 87.6888 129.495 87.1865 129.495C86.6812 129.495 86.173 129.367 85.6944 129.114L85.2571 128.885C85.1625 128.832 85.0591 128.799 84.9468 128.782C84.4327 128.701 83.9481 129.03 83.8654 129.515L83.7826 129.983C83.694 130.494 83.4812 130.948 83.1651 131.322C82.8549 131.692 82.4294 131.988 81.9212 132.183L81.4573 132.364C81.3598 132.403 81.2623 132.459 81.1795 132.529C80.7954 132.858 80.7659 133.418 81.1145 133.783L81.4514 134.135C81.8207 134.517 82.0659 134.957 82.1782 135.423C82.2876 135.883 82.2698 136.382 82.1132 136.878L81.9744 137.319C81.9419 137.419 81.9271 137.528 81.933 137.639C81.9655 138.13 82.4146 138.503 82.9346 138.473L83.4369 138.442C83.9865 138.409 84.5036 138.503 84.9557 138.71C85.3959 138.91 85.783 139.214 86.0903 139.616Z" fill="white"/>
<path d="M110.381 59.9434L110.706 60.3811L110.706 60.3783C110.765 60.462 110.844 60.5345 110.936 60.5958C111.362 60.8774 111.95 60.777 112.248 60.3756L112.538 59.988C112.851 59.5643 113.253 59.2409 113.708 59.0346C114.154 58.831 114.668 58.7363 115.212 58.7669L115.726 58.8004C115.832 58.8087 115.941 58.7976 116.051 58.7669C116.55 58.6303 116.837 58.134 116.689 57.6629L116.547 57.2057C116.396 56.7205 116.373 56.2326 116.476 55.781L116.485 55.7475C116.597 55.2847 116.843 54.8414 117.209 54.4595L117.499 54.1584C117.593 54.0748 117.67 53.9716 117.723 53.8489C117.918 53.3945 117.688 52.8731 117.203 52.6891L116.739 52.5107C116.231 52.3128 115.806 52.0173 115.495 51.6492C115.179 51.2757 114.966 50.8212 114.878 50.311L114.807 49.9012C114.795 49.7813 114.757 49.6614 114.692 49.5499C114.438 49.1234 113.861 48.97 113.406 49.2098L112.969 49.4412C112.49 49.6949 111.979 49.8231 111.477 49.8231C110.972 49.8231 110.463 49.6949 109.985 49.4412L109.547 49.2126C109.453 49.1596 109.349 49.1261 109.237 49.1094C108.723 49.0285 108.238 49.3575 108.156 49.8426L108.073 50.311C107.984 50.8212 107.772 51.2756 107.455 51.6492C107.145 52.02 106.72 52.3155 106.212 52.5107L105.748 52.6919C105.65 52.7309 105.553 52.7867 105.47 52.8564C105.086 53.1853 105.056 53.7457 105.405 54.111L105.742 54.4622C106.111 54.8442 106.356 55.2847 106.469 55.7503C106.578 56.2104 106.56 56.7094 106.404 57.2056L106.265 57.6461C106.232 57.7465 106.217 57.8552 106.223 57.9668C106.256 58.4575 106.705 58.831 107.225 58.8004L107.727 58.7697C108.277 58.7363 108.794 58.8311 109.246 59.0374C109.686 59.2381 110.073 59.542 110.381 59.9434Z" fill="white"/>
<path d="M209.485 121.155L209.81 121.593L209.81 121.59C209.869 121.674 209.949 121.746 210.041 121.807C210.466 122.089 211.054 121.989 211.353 121.587L211.642 121.2C211.955 120.776 212.357 120.453 212.812 120.246C213.258 120.043 213.773 119.948 214.316 119.979L214.83 120.012C214.937 120.02 215.046 120.009 215.155 119.979C215.655 119.842 215.941 119.346 215.794 118.875L215.652 118.417C215.501 117.932 215.477 117.444 215.581 116.993L215.59 116.959C215.702 116.496 215.947 116.053 216.314 115.671L216.603 115.37C216.698 115.286 216.775 115.183 216.828 115.061C217.023 114.606 216.792 114.085 216.308 113.901L215.844 113.722C215.336 113.524 214.91 113.229 214.6 112.861C214.284 112.487 214.071 112.033 213.982 111.523L213.911 111.113C213.9 110.993 213.861 110.873 213.796 110.762C213.542 110.335 212.966 110.182 212.511 110.421L212.074 110.653C211.595 110.907 211.084 111.035 210.581 111.035C210.076 111.035 209.568 110.907 209.089 110.653L208.652 110.424C208.557 110.371 208.454 110.338 208.342 110.321C207.828 110.24 207.343 110.569 207.26 111.054L207.178 111.523C207.089 112.033 206.876 112.487 206.56 112.861C206.25 113.232 205.824 113.527 205.316 113.722L204.852 113.904C204.755 113.943 204.657 113.998 204.574 114.068C204.19 114.397 204.161 114.957 204.509 115.323L204.846 115.674C205.216 116.056 205.461 116.496 205.573 116.962C205.683 117.422 205.665 117.921 205.508 118.417L205.369 118.858C205.337 118.958 205.322 119.067 205.328 119.178C205.36 119.669 205.81 120.043 206.33 120.012L206.832 119.981C207.382 119.948 207.899 120.043 208.351 120.249C208.791 120.45 209.178 120.754 209.485 121.155Z" fill="white"/>
</g>
<defs>
<clipPath id="clip0_6_688">
<rect width="291" height="300" fill="white"/>
</clipPath>
</defs>
</svg>
