<svg width="300" height="300" viewBox="0 0 300 300" fill="none" xmlns="http://www.w3.org/2000/svg">
<g clip-path="url(#clip0_1_31)">
<rect width="300" height="300" fill="black"/>
<path d="M279.155 226.287L264.456 217.085H208.34L198.051 239.742H183.445C182.713 239.736 182.012 239.441 181.497 238.92C180.981 238.4 180.692 237.697 180.692 236.965C180.692 236.232 180.981 235.53 181.497 235.01C182.012 234.489 182.713 234.194 183.445 234.187H194.487L202.975 215.458L165.97 194.187L161.395 217.584L143.297 216.03V233.94C143.289 234.673 142.992 235.373 142.471 235.889C141.95 236.404 141.247 236.693 140.514 236.693C139.781 236.693 139.078 236.404 138.557 235.889C138.036 235.373 137.739 234.673 137.73 233.94V209.977L156.893 211.622L160.991 190.688L137.694 165.269L133.744 194.36L116.195 207.321L103.444 230.485L107.541 240.01L129.095 247.639V266.841L136.371 276.019H158.18C158.914 276.022 159.617 276.316 160.136 276.837C160.654 277.357 160.945 278.062 160.945 278.796C160.945 279.531 160.654 280.236 160.136 280.756C159.617 281.277 158.914 281.571 158.18 281.574H133.688L123.544 268.774V251.566L103.389 244.436L98.7589 233.629L94.6617 234.708V269.834L122.331 285.144L116.029 296.102C147.11 303.329 179.686 300.456 209.022 287.901C238.358 275.345 262.926 253.762 279.155 226.287Z" fill="white"/>
<path d="M36.8002 132.868L49.131 119.384H68.0551L75.9004 107.735H101.79L97.7484 94.1852L66.4199 83.1903L34.0994 95.526L15.359 83.8926C5.00278 104.981 -0.25492 128.208 0.00950204 151.701C0.273924 175.193 6.05307 198.295 16.8813 219.145H50.194L73.2888 234.585L98.499 227.951L109.357 208.227H91.9215L85.0317 199.886H62.3385C61.6018 199.886 60.8952 199.594 60.3743 199.073C59.8534 198.552 59.5607 197.845 59.5607 197.108C59.5607 196.372 59.8534 195.665 60.3743 195.145C60.8952 194.624 61.6018 194.331 62.3385 194.331H87.659L94.5305 202.671H113.142L128.56 191.286L132.253 163.999L107.263 177.189L79.6826 173.399L64.2493 180.067L39.5535 170.78L25.1859 177.008C24.5144 177.276 23.7648 177.272 23.0965 176.996C22.4282 176.721 21.8937 176.195 21.6067 175.531C21.3196 174.868 21.3026 174.119 21.5593 173.443C21.8159 172.767 22.326 172.217 22.9811 171.911L39.4065 164.789L64.1023 174.077L78.9109 167.684L106.252 171.441L130.085 158.862L95.8717 138.221L83.449 149.428H58.9395C58.2072 149.421 57.5071 149.126 56.9915 148.606C56.476 148.086 56.1867 147.383 56.1867 146.65C56.1867 145.918 56.476 145.215 56.9915 144.695C57.5071 144.175 58.2072 143.879 58.9395 143.873H81.3177L95.2287 131.335L132.492 153.826L129.736 121.846L105.04 113.29H78.8558L71.0105 124.939H51.5904L40.8947 136.617C40.3918 137.137 39.7058 137.44 38.9827 137.462C38.2597 137.485 37.5565 137.223 37.0228 136.735C36.489 136.247 36.1669 135.57 36.1248 134.848C36.0828 134.125 36.3268 133.415 36.8002 132.868Z" fill="white"/>
<path d="M17.9128 78.9366L34.6873 89.3542L66.3465 77.2741L96.5909 87.8962L93.3757 65.3646C93.3066 64.6532 93.5143 63.9426 93.9558 63.3805C94.3972 62.8183 95.0383 62.4479 95.7458 62.3463C96.4533 62.2448 97.1726 62.4194 97.7544 62.8347C98.3361 63.2499 98.7354 63.8737 98.8692 64.5758L102.709 91.4335L107.78 108.352L130.473 116.22L133.633 105.031L119.171 87.9214L122.901 66.5725L103.481 46.6998L73.1444 47.2723L56.2046 32.9477C40.4816 45.549 27.4585 61.1916 17.9128 78.9366Z" fill="white"/>
<path d="M87.8638 13.476L91.1709 31.75L104.436 40.4446L112.502 33.6476L117.775 3.50427C107.482 5.7681 97.4561 9.1107 87.8638 13.476Z" fill="white"/>
<path d="M82.6797 15.9619L86.1364 35.0868L95.5984 41.2947L75.1285 41.6809L60.7059 29.4812C67.6287 24.3523 74.9805 19.8287 82.6797 15.9619Z" fill="white"/>
<path d="M135.287 121.49L138.08 153.869L190.445 115.591L193.017 82.2953C193.112 81.5921 193.472 80.9516 194.024 80.5055C194.575 80.0593 195.277 79.8413 195.984 79.896C196.692 79.9507 197.352 80.2739 197.828 80.7996C198.305 81.3253 198.562 82.0137 198.547 82.7232L195.792 118.568L146.77 154.4L181.516 148.701H206.576L223.06 133.569L215.802 116.82L230.427 89.0404L266.367 81.1267L273.606 65.0028C269.404 58.8954 264.755 53.1076 259.698 47.6875L250.233 52.0262L250.548 66.4436L226.902 72.8017L201.545 63.6557L171.542 68.6487L163.308 108.131L135.287 121.49Z" fill="white"/>
<path d="M166.19 67.061L158.437 104.3L136.683 114.667L139.788 103.701L125.087 86.3212L128.856 64.7269L108.717 44.1L117.628 36.5952L123.617 2.33972C134.158 0.455809 144.87 -0.29385 155.571 0.103154L137.29 36.0298L166.19 67.061Z" fill="white"/>
<path d="M228.847 22.3893L204.555 34.8681L199.484 58.3655L170.235 63.235L143.996 35.0876L161.634 0.452194C185.466 2.30469 208.511 9.82576 228.847 22.3893Z" fill="white"/>
<path d="M255.6 43.4566C249.028 36.9483 241.868 31.0617 234.212 25.8723L209.424 38.6091L205.033 59.0072L227.138 66.9822L244.886 62.2079L244.598 48.4959L255.6 43.4566Z" fill="white"/>
<path d="M281.892 221.448L268.829 213.259L275.719 198.557V186.75C275.711 186.018 275.414 185.318 274.893 184.802C274.372 184.287 273.668 183.998 272.935 183.998C272.203 183.998 271.499 184.287 270.978 184.802C270.457 185.318 270.16 186.018 270.152 186.75V197.319L263.501 211.529H207.275L165.749 187.651L141.24 160.933L181.975 154.256H204.886V177.054L217.897 180.615L223.28 190.025C223.65 190.657 224.255 191.118 224.962 191.307C225.67 191.496 226.423 191.398 227.06 191.035C227.696 190.672 228.163 190.073 228.36 189.368C228.557 188.662 228.468 187.907 228.112 187.267L221.571 175.862L210.435 172.814V152.698L227.469 137.055H263.023L280.918 118.728C281.426 118.198 281.703 117.49 281.69 116.756C281.677 116.023 281.375 115.324 280.849 114.812C280.323 114.3 279.616 114.016 278.883 114.023C278.149 114.03 277.448 114.327 276.932 114.848L260.69 131.5H228.222L221.957 117.053L234.138 93.9107L270.299 85.9506L277.207 70.5148C291.265 93.0116 299.105 118.834 299.928 145.349C300.751 171.863 294.527 198.123 281.892 221.448Z" fill="white"/>
<path d="M19.9338 224.7H48.5063L72.2993 240.594L89.0947 236.171V273.111L114.707 287.271L110.426 294.688C72.2008 284.228 39.6682 259.067 19.9338 224.7Z" fill="white"/>
</g>
<defs>
<clipPath id="clip0_1_31">
<rect width="300" height="300" fill="white"/>
</clipPath>
</defs>
</svg>
