<svg width="300" height="300" viewBox="0 0 300 300" fill="none" xmlns="http://www.w3.org/2000/svg">
<g clip-path="url(#clip0_1_2)">
<path d="M279.155 226.289L264.456 217.087H208.34L198.051 239.744H183.445C182.713 239.738 182.012 239.443 181.497 238.923C180.981 238.402 180.692 237.699 180.692 236.967C180.692 236.234 180.981 235.532 181.497 235.012C182.012 234.491 182.713 234.196 183.445 234.189H194.487L202.975 215.46L165.97 194.189L161.395 217.586L143.297 216.032V233.942C143.289 234.675 142.992 235.376 142.471 235.891C141.95 236.406 141.247 236.695 140.514 236.695C139.781 236.695 139.078 236.406 138.557 235.891C138.036 235.376 137.739 234.675 137.73 233.942V209.979L156.893 211.623L160.991 190.69L137.694 165.27L133.744 194.361L116.195 207.322L103.444 230.487L107.541 240.012L129.095 247.641V266.843L136.371 276.021H158.18C158.914 276.025 159.617 276.319 160.136 276.839C160.654 277.36 160.945 278.064 160.945 278.799C160.945 279.534 160.654 280.238 160.136 280.759C159.617 281.279 158.914 281.573 158.18 281.577H133.688L123.544 268.777V251.568L103.389 244.438L98.7589 233.631L94.6617 234.71V269.837L122.331 285.147L116.029 296.105C147.11 303.332 179.686 300.459 209.022 287.903C238.358 275.348 262.926 253.764 279.155 226.289Z" fill="#4A4A4A"/>
<path d="M36.8002 132.869L49.131 119.385H68.0551L75.9004 107.736H101.79L97.7484 94.186L66.4199 83.191L34.0994 95.5269L15.359 83.8933C5.00278 104.982 -0.25492 128.209 0.00950204 151.702C0.273924 175.195 6.05307 198.297 16.8813 219.147H50.194L73.2888 234.587L98.499 227.953L109.357 208.228H91.9215L85.0317 199.888H62.3385C61.6018 199.888 60.8952 199.595 60.3743 199.074C59.8534 198.554 59.5607 197.847 59.5607 197.11C59.5607 196.373 59.8534 195.667 60.3743 195.146C60.8952 194.625 61.6018 194.332 62.3385 194.332H87.659L94.5305 202.673H113.142L128.56 191.288L132.253 164.001L107.263 177.191L79.6826 173.4L64.2493 180.068L39.5535 170.781L25.1859 177.01C24.5144 177.278 23.7648 177.274 23.0965 176.998C22.4282 176.722 21.8937 176.196 21.6067 175.533C21.3196 174.869 21.3026 174.12 21.5593 173.444C21.8159 172.768 22.326 172.219 22.9811 171.913L39.4065 164.79L64.1023 174.079L78.9109 167.685L106.252 171.443L130.085 158.863L95.8717 138.222L83.449 149.429H58.9395C58.2072 149.423 57.5071 149.128 56.9915 148.607C56.476 148.087 56.1867 147.384 56.1867 146.651C56.1867 145.919 56.476 145.217 56.9915 144.696C57.5071 144.176 58.2072 143.88 58.9395 143.874H81.3177L95.2287 131.336L132.492 153.828L129.736 121.847L105.04 113.291H78.8558L71.0105 124.94H51.5904L40.8947 136.618C40.3918 137.138 39.7058 137.442 38.9827 137.464C38.2597 137.486 37.5565 137.225 37.0228 136.736C36.489 136.248 36.1669 135.571 36.1248 134.849C36.0828 134.127 36.3268 133.416 36.8002 132.869Z" fill="#4A4A4A"/>
<path d="M17.9128 78.9373L34.6873 89.355L66.3464 77.2748L96.5909 87.897L93.3756 65.3652C93.3065 64.6538 93.5143 63.9431 93.9557 63.381C94.3972 62.8189 95.0383 62.4484 95.7458 62.3469C96.4532 62.2453 97.1726 62.42 97.7543 62.8352C98.3361 63.2505 98.7353 63.8743 98.8691 64.5764L102.709 91.4343L107.78 108.353L130.473 116.221L133.633 105.032L119.171 87.9221L122.901 66.5731L103.481 46.7002L73.1444 47.2727L56.2046 32.948C40.4815 45.5494 27.4585 61.1922 17.9128 78.9373Z" fill="#4A4A4A"/>
<path d="M87.8638 13.4762L91.1709 31.7503L104.436 40.445L112.502 33.6479L117.775 3.5043C107.482 5.76815 97.4562 9.11078 87.8638 13.4762Z" fill="#4A4A4A"/>
<path d="M82.68 15.962L86.1367 35.0871L95.5988 41.2951L75.1287 41.6812L60.706 29.4814C67.6288 24.3525 74.9807 19.8288 82.68 15.962Z" fill="#4A4A4A"/>
<path d="M135.287 121.491L138.08 153.871L190.445 115.592L193.017 82.2961C193.112 81.5928 193.472 80.9523 194.024 80.5062C194.575 80.06 195.277 79.842 195.984 79.8967C196.692 79.9514 197.352 80.2746 197.828 80.8003C198.305 81.326 198.562 82.0144 198.547 82.7239L195.792 118.569L146.77 154.401L181.516 148.702H206.576L223.06 133.57L215.802 116.821L230.427 89.0412L266.367 81.1274L273.606 65.0034C269.404 58.8959 264.755 53.1081 259.698 47.6879L250.233 52.0266L250.548 66.4441L226.902 72.8024L201.545 63.6563L171.542 68.6493L163.308 108.132L135.287 121.491Z" fill="#4A4A4A"/>
<path d="M166.19 67.0616L158.437 104.301L136.683 114.668L139.788 103.702L125.087 86.3219L128.856 64.7275L108.717 44.1004L117.628 36.5956L123.617 2.33974C134.158 0.455813 144.87 -0.293853 155.571 0.103155L137.29 36.0301L166.19 67.0616Z" fill="#4A4A4A"/>
<path d="M228.847 22.3895L204.555 34.8684L199.484 58.366L170.235 63.2355L143.996 35.0879L161.634 0.452194C185.466 2.3047 208.511 9.82584 228.847 22.3895Z" fill="#4A4A4A"/>
<path d="M255.601 43.457C249.028 36.9486 241.868 31.062 234.212 25.8725L209.424 38.6095L205.033 59.0077L227.138 66.9828L244.887 62.2085L244.598 48.4964L255.601 43.457Z" fill="#4A4A4A"/>
<path d="M281.892 221.45L268.829 213.261L275.719 198.559V186.752C275.711 186.019 275.414 185.319 274.893 184.804C274.372 184.289 273.668 184 272.935 184C272.203 184 271.499 184.289 270.978 184.804C270.457 185.319 270.16 186.019 270.152 186.752V197.321L263.501 211.531H207.275L165.749 187.652L141.24 160.934L181.975 154.257H204.886V177.055L217.897 180.616L223.28 190.027C223.65 190.659 224.255 191.12 224.962 191.309C225.67 191.498 226.423 191.399 227.06 191.036C227.696 190.673 228.163 190.075 228.36 189.369C228.557 188.664 228.468 187.909 228.112 187.269L221.571 175.863L210.435 172.816V152.699L227.469 137.056H263.023L280.918 118.73C281.426 118.199 281.703 117.491 281.69 116.757C281.677 116.024 281.375 115.325 280.849 114.813C280.323 114.301 279.616 114.017 278.883 114.024C278.149 114.031 277.448 114.328 276.932 114.849L260.69 131.501H228.222L221.957 117.054L234.138 93.9116L270.299 85.9514L277.207 70.5155C291.265 93.0124 299.105 118.835 299.928 145.35C300.751 171.865 294.527 198.124 281.892 221.45Z" fill="#4A4A4A"/>
<path d="M19.9338 224.702H48.5063L72.2993 240.596L89.0947 236.173V273.113L114.707 287.273L110.426 294.69C72.2008 284.231 39.6682 259.069 19.9338 224.702Z" fill="#4A4A4A"/>
</g>
<defs>
<clipPath id="clip0_1_2">
<rect width="300" height="300" fill="white"/>
</clipPath>
</defs>
</svg>
