<svg width="300" height="300" viewBox="0 0 300 300" fill="none" xmlns="http://www.w3.org/2000/svg">
<g clip-path="url(#clip0_1_447)">
<path d="M150 0C67.2632 0 0 67.2632 0 150C0 232.737 67.2632 300 150 300C232.737 300 300 232.737 300 150C300 67.2632 232.737 0 150 0Z" fill="#4A4A4A"/>
<path d="M191.684 163.053C162.947 164 132.316 170 105.474 179.79C100.105 181.684 97.2632 188 99.1579 193.369C100.737 197.79 104.842 200.316 108.947 200.316C110.211 200.316 111.474 200 112.421 199.684C137.368 190.526 165.789 185.158 192 184.211C197.684 183.895 202.421 179.158 202.105 173.158C202.421 167.158 197.684 162.737 191.684 163.053Z" fill="white"/>
<path d="M121.263 72.7368C122.526 73.6842 124.105 74 125.684 74C128.842 74 131.684 72.4211 133.579 69.579C136.105 65.1579 134.526 59.7895 130.421 57.2632C110.211 45.5789 88.1053 45.5789 67.8948 57.2632C63.4737 59.7895 62.2105 65.1579 64.7369 69.579C67.2632 74 72.6316 75.2632 77.0526 72.7368C91.2632 64.5263 106.737 64.5263 121.263 72.7368Z" fill="white"/>
<path d="M122.211 107.474C122.211 94.5263 111.789 84.421 99.1579 84.421C86.2106 84.421 76.1053 94.8421 76.1053 107.474C76.1053 120.421 86.5263 130.526 99.1579 130.526C111.789 130.526 122.211 120.105 122.211 107.474Z" fill="white"/>
<path d="M223.263 50C208.737 58.5263 193.263 58.5263 178.737 50C174.316 47.4737 168.947 49.0526 166.421 53.1579C163.895 57.5789 165.474 62.9473 169.579 65.4737C179.684 71.1579 190.105 74.3158 200.842 74.3158C211.263 74.3158 222 71.4737 232.105 65.4737C236.526 62.9473 237.789 57.5789 235.263 53.1579C232.737 48.7368 227.368 47.4737 223.263 50Z" fill="white"/>
<path d="M200.842 84.1053C187.895 84.1053 177.789 94.5264 177.789 107.158C177.789 120.105 188.211 130.211 200.842 130.211C213.789 130.211 223.895 119.79 223.895 107.158C224.211 94.5264 213.789 84.1053 200.842 84.1053Z" fill="white"/>
</g>
<defs>
<clipPath id="clip0_1_447">
<rect width="300" height="300" fill="white"/>
</clipPath>
</defs>
</svg>
