<svg width="600" height="520" viewBox="0 0 600 520" fill="none" xmlns="http://www.w3.org/2000/svg">
<g clip-path="url(#clip0_1_347)">
<rect width="600" height="520" fill="white"/>
<path fill-rule="evenodd" clip-rule="evenodd" d="M320.868 36.6852C320.882 37.0668 320.89 37.4459 320.89 37.8221V59.8849H323.175L324.397 128.026L381.879 151.107L408.12 153.128V135.529C408.12 130.266 417.082 119.77 423.938 119.77C430.794 119.77 439.757 129.919 439.757 135.529V155.566L588.492 167.024C595.467 167.561 600.587 173.612 599.946 180.54L595.939 223.844C595.297 230.791 589.204 237.345 582.327 238.527L326.075 282.542L326.141 291.572L313.684 416.043L313.506 417.719L398.146 431.438C401.589 431.996 404.403 435.269 404.403 438.744V465.323C404.403 468.798 401.584 471.911 398.108 472.275L306.708 481.86L302.666 520H299.261L295.288 482.069L201.892 472.275C198.416 471.911 195.597 468.798 195.597 465.323V438.744C195.597 435.269 198.411 431.996 201.854 431.438L288.515 417.392L288.374 416.043L274.854 291.572L274.842 282.7L17.6725 238.527C10.7958 237.345 4.70326 230.791 4.06051 223.844L0.0541772 180.54C-0.586776 173.612 4.53307 167.561 11.5076 167.024L160.243 155.566V135.529C160.243 129.919 169.206 119.77 176.062 119.77C182.918 119.77 191.88 130.266 191.88 135.529V153.128L218.121 151.107L275.138 128.212L275.719 59.8849H277.301V37.8221C277.301 37.1346 277.327 36.4356 277.378 35.7274C271.18 36.4123 263.911 37.0256 257.756 37.0256C241.179 37.0256 230.447 34.0385 239.43 29.3471C248.412 24.6557 253.655 25.506 267.663 25.2403C272.344 25.1515 276.277 25.3021 279.509 25.563C283.783 12.5783 293.307 0 299.447 0C305.827 0 315.427 13.3467 319.242 26.9384C326.072 26.1052 335.105 25.2147 342.522 25.2147C359.099 25.2147 369.831 28.2018 360.849 32.8932C351.866 37.5846 346.624 36.7343 332.616 37C327.982 37.0879 324.082 36.9413 320.868 36.6852ZM283.628 225.768V259.615C286.748 260.513 292.326 261.603 301.029 261.603C309.731 261.603 315.31 260.513 318.429 259.615C318.429 246.71 318.429 234.318 318.429 225.768C315.31 224.87 309.731 223.781 301.029 223.781C292.326 223.781 286.748 224.87 283.628 225.768ZM283.628 219.489C286.785 218.587 292.418 217.477 301.029 217.477C309.639 217.477 315.272 218.587 318.429 219.489C318.429 216.218 318.429 214.325 318.429 214.325H318.358C318.405 213.806 318.429 213.28 318.429 212.749C318.429 203.175 310.639 195.414 301.029 195.414C291.419 195.414 283.628 203.175 283.628 212.749C283.628 213.28 283.652 213.806 283.699 214.325H283.628V219.489ZM283.628 265.894V277.362C283.628 289.226 296.171 305.728 301.029 305.728C305.886 305.728 318.429 288.518 318.429 277.362C318.429 273.599 318.429 269.748 318.429 265.894C315.272 266.796 309.639 267.906 301.029 267.906C292.418 267.906 286.785 266.796 283.628 265.894Z" fill="#4A4A4A"/>
<rect x="281" y="194" width="38" height="113" fill="#4A4A4A"/>
<circle cx="289" cy="214" r="11" fill="#E67A5A"/>
<circle cx="315" cy="203" r="11" fill="#E67A5A"/>
<circle cx="341" cy="162" r="11" fill="#E67A5A"/>
<circle cx="522" cy="183" r="11" fill="#E67A5A"/>
<circle cx="551" cy="191" r="11" fill="#E67A5A"/>
<circle cx="533" cy="213" r="11" fill="#E67A5A"/>
<circle cx="577" cy="218" r="11" fill="#E67A5A"/>
<circle cx="576" cy="186" r="11" fill="#E67A5A"/>
<circle cx="506" cy="233" r="11" fill="#E67A5A"/>
<circle cx="489" cy="213" r="11" fill="#E67A5A"/>
<circle cx="449" cy="186" r="11" fill="#E67A5A"/>
<circle cx="319" cy="251" r="11" fill="#E67A5A"/>
<circle cx="292" cy="285" r="11" fill="#E67A5A"/>
<circle cx="304" cy="307" r="11" fill="#E67A5A"/>
<circle cx="221" cy="446" r="11" fill="#E67A5A"/>
<circle cx="251" cy="457" r="11" fill="#E67A5A"/>
<circle cx="276" cy="442" r="11" fill="#E67A5A"/>
<circle cx="300" cy="459" r="11" fill="#E67A5A"/>
<circle cx="388" cy="457" r="11" fill="#E67A5A"/>
<circle cx="366" cy="442" r="11" fill="#E67A5A"/>
<circle cx="346" cy="461" r="11" fill="#E67A5A"/>
<circle cx="326" cy="437" r="11" fill="#E67A5A"/>
<circle cx="27" cy="192" r="11" fill="#E67A5A"/>
<circle cx="49" cy="218" r="11" fill="#E67A5A"/>
<circle cx="86" cy="181" r="11" fill="#E67A5A"/>
<circle cx="97" cy="207" r="11" fill="#E67A5A"/>
<circle cx="115" cy="180" r="11" fill="#E67A5A"/>
<circle cx="195" cy="244" r="11" fill="#E67A5A"/>
</g>
<defs>
<clipPath id="clip0_1_347">
<rect width="600" height="520" fill="white"/>
</clipPath>
</defs>
</svg>
