<svg width="300" height="300" viewBox="0 0 300 300" fill="none" xmlns="http://www.w3.org/2000/svg">
<rect width="300" height="300" fill="black"/>
<path d="M23.2087 68.966C21.8607 65.3981 23.6536 61.3839 27.253 60.0459C30.8118 58.6944 34.8157 60.4919 36.1502 64.1006L42.8097 81.8869C50.332 58.3564 61.5479 35.8382 75.9046 15.8777C78.1155 12.7691 82.4561 12.0662 85.53 14.3234C88.6306 16.567 89.3317 20.8918 87.0803 23.9736C72.5209 44.2874 61.305 67.3997 54.2549 91.4845L75.824 79.8881C79.1672 78.0905 83.3866 79.3339 85.1794 82.7263C86.9724 86.0781 85.7321 90.3085 82.3485 92.1059L47.2443 110.96C46.2468 111.514 45.1009 111.784 43.9685 111.784C43.1462 111.784 42.3104 111.649 41.5555 111.338C39.6952 110.649 38.2123 109.162 37.5112 107.284L23.1541 68.9818L23.2087 68.966ZM42.594 121.461C41.556 119.528 39.6957 118.203 37.5524 117.865C35.4089 117.514 33.2385 118.244 31.6479 119.771L2.07135 148.829C-0.651742 151.492 -0.692188 155.884 1.9635 158.614C4.6192 161.345 9.00056 161.385 11.7234 158.723L26.8084 143.91C23.9504 169.859 25.1502 196.498 30.61 221.935C31.2976 225.193 34.1688 227.396 37.3368 227.396C37.8221 227.396 38.3075 227.355 38.7928 227.26C42.5134 226.463 44.8994 222.76 44.1043 219.03C39.0626 195.499 37.8627 170.86 40.3837 146.817L49.0114 163.076C50.2516 165.427 52.6377 166.738 55.118 166.738C56.2234 166.738 57.3288 166.468 58.3669 165.941C61.7505 164.143 63.0313 159.953 61.2247 156.602L42.6215 121.514L42.594 121.461ZM299.187 245.507C298.122 247.548 296.113 248.9 293.835 249.143C293.417 249.184 250.145 254.441 211.362 285.473C210.122 286.473 208.598 287 207.048 287C206.563 287 206.077 286.959 205.592 286.824C203.556 286.378 201.831 285.054 200.901 283.189L188.444 258.617C174.681 256.374 163.249 249.143 152.208 242.115C143.069 236.303 134.441 230.803 124.842 228.235C124.573 228.167 124.29 228.059 124.02 227.964C121.324 226.897 116.08 226.167 110.971 225.477C99.0676 223.883 85.5329 222.058 79.116 213.543C76.2851 209.813 75.1528 205.137 75.8671 200.082C75.975 199.42 76.1367 198.771 76.4603 198.149C84.8453 180.025 107.56 179.498 122.604 179.16C124.748 179.052 126.959 179.16 129.264 179.16C140.237 179.511 142.313 178.498 142.717 176.457C136.853 158.292 122.672 122.72 112.251 96.6078C105.619 79.9702 100.375 66.8195 98.6223 61.5894C97.072 57.5077 96.6272 54.3588 96.9372 49.3443C97.6247 39.2346 104.567 31.0715 114.61 28.517C124.964 25.8815 135.209 29.801 140.763 38.4779C140.871 38.6536 140.965 38.8293 141.073 38.9915C144.079 44.7357 148.945 57.1968 154.365 71.6179C157.749 69.6177 161.537 68.5769 165.648 68.6445C170.784 68.7526 176.042 70.6853 180.625 73.9019C183.038 71.2664 185.6 69.7797 187.703 68.9822C191.464 67.5631 197.638 66.7657 205.686 71.023C209.73 72.9287 213.1 75.6995 215.972 78.9837C217.832 77.2943 220.016 75.9427 222.456 75.0778C229.358 72.6179 237.19 74.2533 243.432 79.4027C247.948 82.9032 251.466 88.0526 254.027 92.1748C266.281 111.934 278.292 134.047 283.294 161.551C286.476 177.161 284.359 194.839 281.151 207.395C282.283 208.017 283.254 208.95 283.874 210.125L299.201 238.94C300.266 240.941 300.266 243.401 299.201 245.414L299.187 245.507ZM266.779 207.368C270.338 195.637 272.549 178.269 269.718 164.226C265.095 138.871 253.811 118.177 242.285 99.5279C240.357 96.4194 237.769 92.5405 234.83 90.2833C232.174 88.1072 229.384 87.3774 227.065 88.1748C225.65 88.6613 224.612 89.7291 223.884 91.2563C226.203 95.892 228.063 100.663 229.815 105.096C231.433 109.218 232.957 113.124 234.547 116.165C236.313 119.558 234.992 123.747 231.608 125.504C230.611 126.018 229.505 126.302 228.427 126.302C225.947 126.302 223.52 124.95 222.28 122.572C220.352 118.868 218.694 114.651 216.968 110.151C215.108 105.407 213.099 100.393 210.727 95.9327C210.417 95.5137 210.174 95.0272 209.999 94.5541C207.208 89.6344 203.852 85.5257 199.511 83.485C196.505 81.8902 194.132 81.4442 192.568 82.0253C191.598 82.3767 190.802 83.1606 190.155 84.1067C190.533 84.7284 190.978 85.3501 191.328 86.0124C195.44 93.9731 199.686 103.974 203.407 112.827C204.755 116.017 205.995 118.99 207.127 121.544C208.651 125.045 207.06 129.127 203.569 130.681C202.665 131.059 201.735 131.276 200.805 131.276C198.149 131.276 195.629 129.721 194.496 127.126C193.364 124.491 192.083 121.49 190.695 118.233C187.068 109.651 182.93 99.8926 179.101 92.4593C178.373 91.1077 177.51 89.8643 176.553 88.7291C176.553 88.7291 176.486 88.6615 176.486 88.6209C173.385 85.0257 169.166 82.6335 165.405 82.5255H165.23C162.992 82.5255 161.091 83.4311 159.433 85.2556C160.565 88.3372 161.711 91.4459 162.884 94.5678C168.06 108.583 172.927 121.802 176.486 130.628C177.901 134.155 176.216 138.21 172.657 139.629C169.098 141.048 165.095 139.359 163.679 135.791C160.053 126.762 155.159 113.476 149.942 99.3536C142.07 78.0395 133.172 53.9277 129.033 45.7241C126.243 41.5749 121.376 41.0885 118.06 41.9535C116.442 42.3724 111.158 44.197 110.74 50.3331C110.538 53.685 110.781 54.7661 111.643 56.9424C113.409 62.0918 118.815 75.729 125.138 91.542C136.489 120.046 150.643 155.51 156.372 173.716C156.615 174.514 156.723 175.338 156.683 176.176C155.779 193.895 137.634 193.341 128.899 193.097C126.863 193.03 124.895 192.989 123.345 193.057H122.967C111.064 193.327 94.8735 193.719 89.5216 203.085C89.5216 204.22 89.8316 204.815 90.1821 205.261C93.1479 209.208 104.58 210.721 112.884 211.83C118.883 212.627 124.585 213.384 128.858 215.019C140.344 218.168 150.185 224.426 159.715 230.481C170.109 237.09 179.977 243.321 191.126 245.051C200.414 237.536 233.605 212.289 266.914 207.368L266.779 207.368Z" fill="white"/>
</svg>
