<svg width="809" height="583" viewBox="0 0 809 583" fill="none" xmlns="http://www.w3.org/2000/svg">
<rect width="809" height="583" fill="#2B2B2B"/>
<path d="M63.1632 61.6092L65.4032 65.1292L48.2462 75.5908L65.4032 86.0769L62.9662 89.5231L44.1847 77.7815V73.3508L63.1632 61.6092Z" fill="#C1C1C1"/>
<path d="M78.959 54.1508V68.4277C79.9929 67.1149 81.2318 66.122 82.6759 65.4492C84.1365 64.7764 85.6216 64.44 87.1313 64.44C89.6257 64.44 91.4636 65.121 92.6452 66.4831C93.8267 67.8287 94.4175 69.7077 94.4175 72.12V91H89.6913V72.5384C89.6913 70.9795 89.3549 69.8554 88.6821 69.1661C88.0257 68.4605 86.9754 68.1077 85.5313 68.1077C84.1529 68.1077 82.8811 68.5426 81.716 69.4123C80.5672 70.282 79.6483 71.2256 78.959 72.2431V91H74.2329V54.6677L78.959 54.1508Z" fill="#C1C1C1"/>
<path d="M124.835 89.6708C123.916 90.2615 122.808 90.7292 121.512 91.0738C120.232 91.4349 118.935 91.6154 117.623 91.6154C114.734 91.6154 112.519 90.8605 110.976 89.3508C109.45 87.841 108.687 85.88 108.687 83.4677V68.6H102.804V65.0554H108.687V59.1969L113.413 58.6308V65.0554H122.275L121.733 68.6H113.413V83.4184C113.413 84.8461 113.774 85.921 114.496 86.6431C115.235 87.3651 116.457 87.7261 118.164 87.7261C119.116 87.7261 119.994 87.6195 120.798 87.4061C121.618 87.1764 122.373 86.8728 123.063 86.4954L124.835 89.6708Z" fill="#C1C1C1"/>
<path d="M150.748 64.44C151.634 64.44 152.463 64.6369 153.234 65.0308C154.022 65.4246 154.653 66.1467 155.129 67.1969C155.605 68.2308 155.843 69.7323 155.843 71.7015V91H151.535V72.3908C151.535 70.881 151.437 69.7979 151.24 69.1415C151.059 68.4687 150.534 68.1323 149.665 68.1323C148.943 68.1323 148.221 68.3538 147.498 68.7969C146.793 69.24 146.104 69.9784 145.431 71.0123V91H141.295V72.3908C141.295 70.881 141.197 69.7979 141 69.1415C140.819 68.4687 140.294 68.1323 139.425 68.1323C138.686 68.1323 137.964 68.3538 137.258 68.7969C136.553 69.24 135.864 69.9784 135.191 71.0123V91H130.883V65.0554H134.526L134.822 67.96C135.544 66.959 136.339 66.122 137.209 65.4492C138.095 64.7764 139.17 64.44 140.434 64.44C141.418 64.44 142.329 64.6779 143.166 65.1538C144.019 65.6297 144.643 66.5159 145.037 67.8123C145.743 66.8113 146.547 65.999 147.449 65.3754C148.352 64.7518 149.451 64.44 150.748 64.44Z" fill="#C1C1C1"/>
<path d="M173.485 54.6184V84.3046C173.485 85.5518 173.871 86.4379 174.642 86.9631C175.413 87.4718 176.406 87.7261 177.62 87.7261C178.392 87.7261 179.122 87.6523 179.811 87.5046C180.517 87.3405 181.206 87.119 181.879 86.84L183.11 90.2123C182.388 90.5897 181.485 90.9179 180.402 91.1969C179.319 91.4759 178.096 91.6154 176.734 91.6154C174.289 91.6154 172.345 90.9343 170.9 89.5723C169.473 88.2102 168.759 86.3395 168.759 83.96V58.2123H160.857V54.6184H173.485Z" fill="#C1C1C1"/>
<path d="M233.557 54.52V83.4184C233.557 84.5508 233.885 85.3549 234.541 85.8308C235.214 86.3067 236.117 86.5446 237.249 86.5446C237.955 86.5446 238.636 86.4708 239.292 86.3231C239.949 86.159 240.572 85.962 241.163 85.7323L242.763 90.1631C241.942 90.5733 240.941 90.9343 239.76 91.2461C238.595 91.5743 237.241 91.7384 235.698 91.7384C232.859 91.7384 230.71 90.9261 229.249 89.3015C227.789 87.6769 227.058 85.4861 227.058 82.7292V59.1231H219.255V54.52H233.557Z" fill="#F9D949"/>
<path d="M271.482 84.1323C271.482 85.1333 271.63 85.8636 271.925 86.3231C272.22 86.7661 272.696 87.1025 273.353 87.3323L271.95 91.6892C270.555 91.5415 269.365 91.1969 268.38 90.6554C267.412 90.0974 266.666 89.2687 266.14 88.1692C265.156 89.3672 263.909 90.2615 262.399 90.8523C260.906 91.4431 259.338 91.7384 257.697 91.7384C255.039 91.7384 252.93 90.9836 251.371 89.4738C249.812 87.9641 249.033 86.0031 249.033 83.5908C249.033 80.8174 250.116 78.6841 252.282 77.1908C254.464 75.681 257.55 74.9261 261.537 74.9261H265.18V73.5231C265.18 71.9805 264.704 70.8646 263.753 70.1754C262.801 69.4697 261.431 69.1169 259.642 69.1169C258.805 69.1169 257.755 69.2318 256.491 69.4615C255.244 69.6749 253.956 70.0113 252.627 70.4708L251.076 66.0154C252.733 65.3918 254.399 64.9323 256.073 64.6369C257.763 64.3415 259.297 64.1938 260.676 64.1938C264.335 64.1938 267.051 64.9733 268.823 66.5323C270.596 68.0749 271.482 70.2656 271.482 73.1046V84.1323ZM259.814 87.0369C260.799 87.0369 261.792 86.7579 262.793 86.2C263.81 85.642 264.606 84.8625 265.18 83.8615V78.7908H262.62C260.208 78.7908 258.46 79.1764 257.377 79.9477C256.311 80.719 255.777 81.8102 255.777 83.2215C255.777 84.4359 256.122 85.3795 256.811 86.0523C257.5 86.7087 258.501 87.0369 259.814 87.0369Z" fill="#F9D949"/>
<path d="M280.213 91V64.9323H285.875L286.342 68.1569C287.458 66.8441 288.714 65.8595 290.109 65.2031C291.503 64.5302 293.005 64.1938 294.613 64.1938C296.96 64.1938 298.749 64.8749 299.979 66.2369C301.21 67.5826 301.825 69.4779 301.825 71.9231V91H295.327V74.4584C295.327 73.1456 295.245 72.0954 295.081 71.3077C294.917 70.5036 294.605 69.9292 294.145 69.5846C293.686 69.2236 293.021 69.0431 292.152 69.0431C291.446 69.0431 290.765 69.199 290.109 69.5108C289.469 69.8225 288.861 70.241 288.287 70.7661C287.729 71.2913 287.204 71.8738 286.712 72.5138V91H280.213Z" fill="#F9D949"/>
<path d="M332.218 61.2646L333.843 66.3354C332.858 66.68 331.751 66.9261 330.52 67.0738C329.289 67.2051 327.878 67.2708 326.286 67.2708C327.878 67.96 329.084 68.8379 329.904 69.9046C330.741 70.9549 331.16 72.2923 331.16 73.9169C331.16 75.6072 330.725 77.1169 329.855 78.4461C329.002 79.7754 327.779 80.8174 326.188 81.5723C324.612 82.3272 322.733 82.7046 320.551 82.7046C319.878 82.7046 319.279 82.6718 318.754 82.6061C318.229 82.5405 317.72 82.4502 317.228 82.3354C316.899 82.5159 316.645 82.7784 316.464 83.1231C316.284 83.4677 316.194 83.8205 316.194 84.1815C316.194 84.6738 316.382 85.1005 316.76 85.4615C317.154 85.8061 317.991 85.9784 319.271 85.9784H323.701C325.621 85.9784 327.303 86.3067 328.747 86.9631C330.208 87.6031 331.34 88.4728 332.144 89.5723C332.965 90.6718 333.375 91.9354 333.375 93.3631C333.375 95.9887 332.235 98.04 329.954 99.5169C327.673 100.994 324.341 101.732 319.96 101.732C316.825 101.732 314.38 101.412 312.624 100.772C310.885 100.132 309.662 99.1969 308.957 97.9661C308.251 96.7518 307.898 95.2831 307.898 93.56H313.683C313.683 94.3969 313.847 95.0861 314.175 95.6277C314.52 96.1692 315.152 96.5713 316.071 96.8338C317.006 97.0964 318.343 97.2277 320.083 97.2277C321.822 97.2277 323.184 97.0882 324.169 96.8092C325.17 96.5302 325.876 96.1282 326.286 95.6031C326.696 95.0943 326.901 94.4954 326.901 93.8061C326.901 92.8708 326.507 92.1405 325.72 91.6154C324.932 91.0902 323.816 90.8277 322.372 90.8277H318.064C315.439 90.8277 313.527 90.319 312.329 89.3015C311.131 88.2677 310.532 87.0779 310.532 85.7323C310.532 84.8133 310.778 83.9354 311.271 83.0984C311.779 82.2451 312.501 81.5231 313.437 80.9323C311.829 80.079 310.663 79.0615 309.941 77.88C309.236 76.682 308.883 75.2379 308.883 73.5477C308.883 71.6605 309.359 70.0195 310.311 68.6246C311.262 67.2297 312.583 66.1467 314.274 65.3754C315.964 64.6041 317.909 64.2184 320.107 64.2184C322.126 64.2349 323.841 64.1118 325.252 63.8492C326.68 63.5867 327.935 63.2256 329.018 62.7661C330.118 62.3067 331.184 61.8061 332.218 61.2646ZM320.231 68.5508C318.688 68.5508 317.506 69.002 316.686 69.9046C315.882 70.8072 315.48 72.0051 315.48 73.4984C315.48 75.041 315.898 76.2636 316.735 77.1661C317.572 78.0687 318.745 78.52 320.255 78.52C321.749 78.52 322.881 78.0851 323.652 77.2154C324.44 76.3292 324.834 75.0656 324.834 73.4246C324.834 71.7836 324.44 70.561 323.652 69.7569C322.881 68.9528 321.74 68.5508 320.231 68.5508Z" fill="#F9D949"/>
<path d="M360.691 68.0831V73.2769H339.473V68.0831H360.691ZM360.691 78.1015V83.2708H339.473V78.1015H360.691Z" fill="#F9D949"/>
<path d="M372.672 67.96L371.785 54.52H378.382L377.521 67.96H372.672ZM381.656 67.96L380.819 54.52H387.441L386.555 67.96H381.656Z" fill="#F9D949"/>
<path d="M403.877 79.9477C404.008 81.5723 404.377 82.8933 404.984 83.9108C405.608 84.9282 406.404 85.6749 407.372 86.1508C408.34 86.6267 409.415 86.8646 410.597 86.8646C411.844 86.8646 413.017 86.6677 414.117 86.2738C415.216 85.88 416.299 85.3302 417.366 84.6246L420.074 88.3415C418.859 89.359 417.407 90.1795 415.717 90.8031C414.043 91.4267 412.197 91.7384 410.178 91.7384C407.356 91.7384 404.976 91.1559 403.04 89.9908C401.12 88.8256 399.667 87.2092 398.683 85.1415C397.698 83.0738 397.206 80.6943 397.206 78.0031C397.206 75.4102 397.69 73.0718 398.658 70.9877C399.626 68.9036 401.021 67.2543 402.843 66.04C404.664 64.8092 406.863 64.1938 409.44 64.1938C411.836 64.1938 413.903 64.719 415.643 65.7692C417.382 66.8195 418.728 68.3292 419.68 70.2984C420.632 72.2513 421.107 74.6061 421.107 77.3631C421.107 77.8061 421.091 78.2574 421.058 78.7169C421.042 79.1764 421.017 79.5867 420.984 79.9477H403.877ZM409.464 68.7723C407.889 68.7723 406.593 69.3384 405.575 70.4708C404.574 71.5867 403.983 73.359 403.803 75.7877H414.781C414.748 73.5887 414.289 71.8738 413.403 70.6431C412.533 69.3959 411.22 68.7723 409.464 68.7723Z" fill="#F9D949"/>
<path d="M437.789 86.9384C439.316 86.9384 440.538 86.6759 441.457 86.1508C442.393 85.6092 442.86 84.8543 442.86 83.8861C442.86 83.2461 442.704 82.7046 442.392 82.2615C442.097 81.8184 441.506 81.4082 440.62 81.0308C439.734 80.6369 438.405 80.202 436.633 79.7261C434.959 79.2995 433.49 78.7743 432.226 78.1508C430.979 77.5108 430.003 76.6902 429.297 75.6892C428.608 74.6882 428.263 73.4246 428.263 71.8984C428.263 70.3723 428.69 69.0349 429.543 67.8861C430.397 66.721 431.627 65.8184 433.236 65.1784C434.86 64.522 436.813 64.1938 439.094 64.1938C441.326 64.1938 443.279 64.4892 444.952 65.08C446.626 65.6543 448.062 66.3764 449.26 67.2461L446.602 71.2092C445.551 70.5364 444.411 69.9949 443.18 69.5846C441.966 69.1579 440.653 68.9446 439.242 68.9446C437.716 68.9446 436.6 69.1661 435.894 69.6092C435.205 70.0523 434.86 70.6677 434.86 71.4554C434.86 72.0133 435.032 72.4892 435.377 72.8831C435.738 73.2605 436.378 73.6297 437.297 73.9908C438.233 74.3354 439.562 74.7538 441.285 75.2461C442.975 75.7056 444.444 76.2472 445.691 76.8708C446.955 77.4943 447.931 78.3231 448.62 79.3569C449.309 80.3908 449.654 81.7446 449.654 83.4184C449.654 85.3056 449.104 86.8646 448.005 88.0954C446.905 89.3261 445.453 90.2451 443.648 90.8523C441.859 91.4431 439.915 91.7384 437.814 91.7384C435.352 91.7384 433.203 91.3856 431.365 90.68C429.527 89.9743 427.968 89.0636 426.688 87.9477L430.06 84.1569C431.078 84.961 432.235 85.6256 433.531 86.1508C434.844 86.6759 436.263 86.9384 437.789 86.9384Z" fill="#F9D949"/>
<path d="M461.265 67.96L460.379 54.52H466.976L466.115 67.96H461.265ZM470.25 67.96L469.413 54.52H476.035L475.148 67.96H470.25Z" fill="#F9D949"/>
<path d="M489.393 61.6092L508.372 73.3261V77.7815L489.59 89.5231L487.153 86.1015L504.31 75.5908L487.153 65.1292L489.393 61.6092Z" fill="#C1C1C1"/>
<path d="M63.1632 133.609L65.4032 137.129L48.2462 147.591L65.4032 158.077L62.9662 161.523L44.1847 149.782V145.351L63.1632 133.609Z" fill="#C1C1C1"/>
<path d="M78.959 126.151V140.428C79.9929 139.115 81.2318 138.122 82.6759 137.449C84.1365 136.776 85.6216 136.44 87.1313 136.44C89.6257 136.44 91.4636 137.121 92.6452 138.483C93.8267 139.829 94.4175 141.708 94.4175 144.12V163H89.6913V144.538C89.6913 142.979 89.3549 141.855 88.6821 141.166C88.0257 140.46 86.9754 140.108 85.5313 140.108C84.1529 140.108 82.8811 140.543 81.716 141.412C80.5672 142.282 79.6483 143.226 78.959 144.243V163H74.2329V126.668L78.959 126.151Z" fill="#C1C1C1"/>
<path d="M107.58 151.628C107.711 154.483 108.482 156.559 109.893 157.855C111.321 159.152 113.011 159.8 114.964 159.8C116.261 159.8 117.45 159.603 118.533 159.209C119.616 158.815 120.716 158.241 121.832 157.486L123.973 160.465C122.759 161.433 121.356 162.204 119.764 162.778C118.172 163.336 116.523 163.615 114.816 163.615C112.224 163.615 110.016 163.049 108.195 161.917C106.39 160.768 105.011 159.176 104.06 157.142C103.124 155.107 102.656 152.744 102.656 150.052C102.656 147.443 103.124 145.113 104.06 143.062C105.011 141.01 106.349 139.394 108.072 138.212C109.795 137.031 111.846 136.44 114.226 136.44C117.573 136.44 120.207 137.589 122.127 139.886C124.064 142.167 125.032 145.293 125.032 149.265C125.032 149.708 125.024 150.134 125.007 150.545C124.991 150.955 124.966 151.316 124.933 151.628H107.58ZM114.275 140.132C112.421 140.132 110.886 140.789 109.672 142.102C108.457 143.414 107.76 145.441 107.58 148.182H120.478C120.429 145.556 119.854 143.562 118.755 142.2C117.672 140.822 116.178 140.132 114.275 140.132Z" fill="#C1C1C1"/>
<path d="M152.422 157.043C152.422 158.077 152.586 158.832 152.914 159.308C153.242 159.767 153.759 160.112 154.465 160.342L153.357 163.591C152.175 163.443 151.142 163.09 150.255 162.532C149.386 161.974 148.746 161.121 148.335 159.972C147.4 161.187 146.218 162.097 144.791 162.705C143.363 163.312 141.812 163.615 140.138 163.615C137.529 163.615 135.47 162.877 133.96 161.4C132.45 159.923 131.695 157.978 131.695 155.566C131.695 152.875 132.746 150.807 134.846 149.363C136.963 147.903 139.999 147.172 143.954 147.172H147.72V145.203C147.72 143.414 147.187 142.143 146.12 141.388C145.07 140.633 143.601 140.255 141.714 140.255C140.844 140.255 139.818 140.362 138.637 140.575C137.472 140.789 136.225 141.125 134.895 141.585L133.689 138.138C135.281 137.531 136.815 137.096 138.292 136.834C139.769 136.571 141.148 136.44 142.428 136.44C145.759 136.44 148.253 137.203 149.911 138.729C151.585 140.255 152.422 142.331 152.422 144.957V157.043ZM141.468 160.071C142.666 160.071 143.823 159.759 144.938 159.135C146.071 158.512 146.998 157.642 147.72 156.526V150.249H144.274C141.533 150.249 139.589 150.717 138.44 151.652C137.291 152.571 136.717 153.835 136.717 155.443C136.717 158.528 138.301 160.071 141.468 160.071Z" fill="#C1C1C1"/>
<path d="M178.236 126.052L182.962 126.618V163H178.802L178.408 159.677C176.57 162.303 174.125 163.615 171.073 163.615C168.841 163.615 166.995 163.049 165.534 161.917C164.09 160.768 163.015 159.176 162.31 157.142C161.604 155.107 161.251 152.744 161.251 150.052C161.251 147.427 161.653 145.096 162.457 143.062C163.278 141.01 164.443 139.394 165.953 138.212C167.479 137.031 169.317 136.44 171.467 136.44C174.256 136.44 176.513 137.425 178.236 139.394V126.052ZM172.697 140.157C170.663 140.157 169.087 140.969 167.971 142.594C166.872 144.218 166.322 146.705 166.322 150.052C166.322 153.384 166.823 155.853 167.824 157.462C168.841 159.07 170.302 159.874 172.205 159.874C173.567 159.874 174.74 159.488 175.725 158.717C176.726 157.929 177.563 157.01 178.236 155.96V143.283C177.563 142.298 176.751 141.535 175.799 140.994C174.864 140.436 173.83 140.157 172.697 140.157Z" fill="#C1C1C1"/>
<path d="M194.081 133.609L213.059 145.326V149.782L194.278 161.523L191.841 158.102L208.998 147.591L191.841 137.129L194.081 133.609Z" fill="#C1C1C1"/>
<path d="M122.226 205.609L124.466 209.129L107.309 219.591L124.466 230.077L122.029 233.523L103.247 221.782V217.351L122.226 205.609Z" fill="#C1C1C1"/>
<path d="M150.748 208.44C151.634 208.44 152.463 208.637 153.234 209.031C154.022 209.425 154.653 210.147 155.129 211.197C155.605 212.231 155.843 213.732 155.843 215.702V235H151.535V216.391C151.535 214.881 151.437 213.798 151.24 213.142C151.059 212.469 150.534 212.132 149.665 212.132C148.943 212.132 148.221 212.354 147.498 212.797C146.793 213.24 146.104 213.978 145.431 215.012V235H141.295V216.391C141.295 214.881 141.197 213.798 141 213.142C140.819 212.469 140.294 212.132 139.425 212.132C138.686 212.132 137.964 212.354 137.258 212.797C136.553 213.24 135.864 213.978 135.191 215.012V235H130.883V209.055H134.526L134.822 211.96C135.544 210.959 136.339 210.122 137.209 209.449C138.095 208.776 139.17 208.44 140.434 208.44C141.418 208.44 142.329 208.678 143.166 209.154C144.019 209.63 144.643 210.516 145.037 211.812C145.743 210.811 146.547 209.999 147.449 209.375C148.352 208.752 149.451 208.44 150.748 208.44Z" fill="#C1C1C1"/>
<path d="M166.642 223.628C166.773 226.483 167.545 228.559 168.956 229.855C170.384 231.152 172.074 231.8 174.027 231.8C175.323 231.8 176.513 231.603 177.596 231.209C178.679 230.815 179.778 230.241 180.894 229.486L183.036 232.465C181.821 233.433 180.418 234.204 178.827 234.778C177.235 235.336 175.586 235.615 173.879 235.615C171.286 235.615 169.079 235.049 167.257 233.917C165.452 232.768 164.074 231.176 163.122 229.142C162.187 227.107 161.719 224.744 161.719 222.052C161.719 219.443 162.187 217.113 163.122 215.062C164.074 213.01 165.411 211.394 167.134 210.212C168.857 209.031 170.909 208.44 173.288 208.44C176.636 208.44 179.27 209.589 181.19 211.886C183.126 214.167 184.094 217.293 184.094 221.265C184.094 221.708 184.086 222.134 184.07 222.545C184.053 222.955 184.029 223.316 183.996 223.628H166.642ZM173.337 212.132C171.483 212.132 169.949 212.789 168.734 214.102C167.52 215.414 166.823 217.441 166.642 220.182H179.54C179.491 217.556 178.917 215.562 177.817 214.2C176.734 212.822 175.241 212.132 173.337 212.132Z" fill="#C1C1C1"/>
<path d="M213.429 233.671C212.51 234.262 211.402 234.729 210.106 235.074C208.826 235.435 207.529 235.615 206.216 235.615C203.328 235.615 201.113 234.86 199.57 233.351C198.044 231.841 197.281 229.88 197.281 227.468V212.6H191.398V209.055H197.281V203.197L202.007 202.631V209.055H210.869L210.327 212.6H202.007V227.418C202.007 228.846 202.368 229.921 203.09 230.643C203.829 231.365 205.051 231.726 206.758 231.726C207.71 231.726 208.588 231.619 209.392 231.406C210.212 231.176 210.967 230.873 211.656 230.495L213.429 233.671Z" fill="#C1C1C1"/>
<path d="M241.015 229.043C241.015 230.077 241.179 230.832 241.508 231.308C241.836 231.767 242.353 232.112 243.058 232.342L241.951 235.591C240.769 235.443 239.735 235.09 238.849 234.532C237.979 233.974 237.339 233.121 236.929 231.972C235.994 233.187 234.812 234.097 233.385 234.705C231.957 235.312 230.406 235.615 228.732 235.615C226.123 235.615 224.063 234.877 222.554 233.4C221.044 231.923 220.289 229.978 220.289 227.566C220.289 224.875 221.339 222.807 223.44 221.363C225.557 219.903 228.593 219.172 232.548 219.172H236.314V217.203C236.314 215.414 235.78 214.143 234.714 213.388C233.663 212.633 232.195 212.255 230.308 212.255C229.438 212.255 228.412 212.362 227.231 212.575C226.066 212.789 224.818 213.125 223.489 213.585L222.283 210.138C223.875 209.531 225.409 209.096 226.886 208.834C228.363 208.571 229.741 208.44 231.021 208.44C234.353 208.44 236.847 209.203 238.505 210.729C240.178 212.255 241.015 214.331 241.015 216.957V229.043ZM230.061 232.071C231.259 232.071 232.416 231.759 233.532 231.135C234.665 230.512 235.592 229.642 236.314 228.526V222.249H232.868C230.127 222.249 228.182 222.717 227.034 223.652C225.885 224.571 225.311 225.835 225.311 227.443C225.311 230.528 226.894 232.071 230.061 232.071Z" fill="#C1C1C1"/>
<path d="M293.013 231.628C294.277 231.628 295.45 231.423 296.533 231.012C297.633 230.586 298.658 230.036 299.61 229.363L301.875 232.44C300.726 233.392 299.348 234.163 297.739 234.754C296.148 235.328 294.548 235.615 292.939 235.615C290.33 235.615 288.098 235.057 286.244 233.942C284.406 232.826 283.003 231.258 282.035 229.24C281.067 227.222 280.582 224.858 280.582 222.151C280.582 219.525 281.067 217.187 282.035 215.135C283.019 213.068 284.439 211.435 286.293 210.237C288.148 209.039 290.388 208.44 293.013 208.44C296.394 208.44 299.331 209.457 301.825 211.492L299.585 214.569C297.403 213.059 295.22 212.305 293.038 212.305C290.872 212.305 289.099 213.109 287.721 214.717C286.342 216.325 285.653 218.803 285.653 222.151C285.653 225.515 286.342 227.935 287.721 229.412C289.116 230.889 290.88 231.628 293.013 231.628Z" fill="#C1C1C1"/>
<path d="M315.209 198.151V212.428C316.243 211.115 317.482 210.122 318.926 209.449C320.386 208.776 321.872 208.44 323.381 208.44C325.876 208.44 327.714 209.121 328.895 210.483C330.077 211.829 330.667 213.708 330.667 216.12V235H325.941V216.538C325.941 214.979 325.605 213.855 324.932 213.166C324.276 212.46 323.225 212.108 321.781 212.108C320.403 212.108 319.131 212.543 317.966 213.412C316.817 214.282 315.898 215.226 315.209 216.243V235H310.483V198.668L315.209 198.151Z" fill="#C1C1C1"/>
<path d="M359.14 229.043C359.14 230.077 359.304 230.832 359.633 231.308C359.961 231.767 360.478 232.112 361.183 232.342L360.076 235.591C358.894 235.443 357.86 235.09 356.974 234.532C356.104 233.974 355.464 233.121 355.054 231.972C354.119 233.187 352.937 234.097 351.51 234.705C350.082 235.312 348.531 235.615 346.857 235.615C344.248 235.615 342.188 234.877 340.679 233.4C339.169 231.923 338.414 229.978 338.414 227.566C338.414 224.875 339.464 222.807 341.565 221.363C343.682 219.903 346.718 219.172 350.673 219.172H354.439V217.203C354.439 215.414 353.905 214.143 352.839 213.388C351.788 212.633 350.32 212.255 348.433 212.255C347.563 212.255 346.537 212.362 345.356 212.575C344.191 212.789 342.943 213.125 341.614 213.585L340.408 210.138C342 209.531 343.534 209.096 345.011 208.834C346.488 208.571 347.866 208.44 349.146 208.44C352.478 208.44 354.972 209.203 356.63 210.729C358.303 212.255 359.14 214.331 359.14 216.957V229.043ZM348.186 232.071C349.384 232.071 350.541 231.759 351.657 231.135C352.79 230.512 353.717 229.642 354.439 228.526V222.249H350.993C348.252 222.249 346.307 222.717 345.159 223.652C344.01 224.571 343.436 225.835 343.436 227.443C343.436 230.528 345.019 232.071 348.186 232.071Z" fill="#C1C1C1"/>
<path d="M369.792 235V231.505H373.73V212.551H369.792V209.055H377.348L378.21 215.135C379.195 212.986 380.401 211.336 381.828 210.188C383.273 209.023 385.143 208.44 387.441 208.44C388.196 208.44 388.86 208.497 389.435 208.612C390.025 208.727 390.624 208.875 391.232 209.055L390.493 218.163H386.85V212.748H386.825C382.936 212.748 380.146 215.529 378.456 221.092V231.505H383.724V235H369.792Z" fill="#C1C1C1"/>
<path d="M408.16 231.849C410.047 231.849 411.532 231.505 412.615 230.815C413.715 230.126 414.264 229.191 414.264 228.009C414.264 227.254 414.117 226.614 413.821 226.089C413.542 225.548 412.952 225.055 412.049 224.612C411.163 224.153 409.817 223.693 408.012 223.234C406.24 222.791 404.697 222.274 403.384 221.683C402.088 221.092 401.079 220.321 400.357 219.369C399.651 218.417 399.298 217.187 399.298 215.677C399.298 213.478 400.217 211.722 402.055 210.409C403.893 209.096 406.33 208.44 409.366 208.44C411.499 208.44 413.354 208.727 414.929 209.302C416.504 209.859 417.85 210.549 418.966 211.369L416.947 214.446C415.946 213.79 414.847 213.248 413.649 212.822C412.467 212.378 411.073 212.157 409.464 212.157C407.544 212.157 406.174 212.452 405.354 213.043C404.549 213.617 404.147 214.38 404.147 215.332C404.147 216.054 404.344 216.653 404.738 217.129C405.148 217.589 405.846 218.015 406.83 218.409C407.815 218.787 409.177 219.213 410.917 219.689C412.607 220.149 414.084 220.69 415.347 221.314C416.611 221.937 417.587 222.758 418.277 223.775C418.982 224.776 419.335 226.097 419.335 227.738C419.335 229.593 418.802 231.103 417.735 232.268C416.668 233.416 415.282 234.262 413.575 234.803C411.885 235.345 410.08 235.615 408.16 235.615C405.797 235.615 403.762 235.271 402.055 234.582C400.365 233.892 398.945 233.047 397.797 232.046L400.406 229.043C401.407 229.88 402.564 230.561 403.877 231.086C405.206 231.595 406.634 231.849 408.16 231.849Z" fill="#C1C1C1"/>
<path d="M432.423 223.628C432.555 226.483 433.326 228.559 434.737 229.855C436.165 231.152 437.855 231.8 439.808 231.8C441.104 231.8 442.294 231.603 443.377 231.209C444.46 230.815 445.56 230.241 446.676 229.486L448.817 232.465C447.603 233.433 446.2 234.204 444.608 234.778C443.016 235.336 441.367 235.615 439.66 235.615C437.067 235.615 434.86 235.049 433.039 233.917C431.234 232.768 429.855 231.176 428.903 229.142C427.968 227.107 427.5 224.744 427.5 222.052C427.5 219.443 427.968 217.113 428.903 215.062C429.855 213.01 431.192 211.394 432.916 210.212C434.639 209.031 436.69 208.44 439.069 208.44C442.417 208.44 445.051 209.589 446.971 211.886C448.907 214.167 449.876 217.293 449.876 221.265C449.876 221.708 449.867 222.134 449.851 222.545C449.835 222.955 449.81 223.316 449.777 223.628H432.423ZM439.119 212.132C437.264 212.132 435.73 212.789 434.516 214.102C433.301 215.414 432.604 217.441 432.423 220.182H445.322C445.272 217.556 444.698 215.562 443.599 214.2C442.516 212.822 441.022 212.132 439.119 212.132Z" fill="#C1C1C1"/>
<path d="M479.21 233.671C478.291 234.262 477.183 234.729 475.887 235.074C474.607 235.435 473.31 235.615 471.998 235.615C469.109 235.615 466.894 234.86 465.351 233.351C463.825 231.841 463.062 229.88 463.062 227.468V212.6H457.179V209.055H463.062V203.197L467.788 202.631V209.055H476.65L476.108 212.6H467.788V227.418C467.788 228.846 468.149 229.921 468.871 230.643C469.61 231.365 470.832 231.726 472.539 231.726C473.491 231.726 474.369 231.619 475.173 231.406C475.993 231.176 476.748 230.873 477.438 230.495L479.21 233.671Z" fill="#C1C1C1"/>
<path d="M507.584 212.945V216.932H487.892V212.945H507.584ZM507.584 222.446V226.434H487.892V222.446H507.584Z" fill="#C1C1C1"/>
<path d="M521.091 211.566L520.279 198.618H525.817L525.029 211.566H521.091ZM529.509 211.566L528.722 198.618H534.26L533.448 211.566H529.509Z" fill="#C1C1C1"/>
<path d="M551.459 209.055V227.32C551.459 228.961 551.787 230.143 552.444 230.865C553.116 231.57 554.15 231.923 555.545 231.923C556.858 231.923 558.113 231.537 559.311 230.766C560.526 229.995 561.469 229.076 562.142 228.009V209.055H566.868V235H562.807L562.462 231.578C561.461 232.891 560.214 233.892 558.721 234.582C557.244 235.271 555.742 235.615 554.216 235.615C551.705 235.615 549.826 234.934 548.579 233.572C547.348 232.21 546.733 230.323 546.733 227.911V209.055H551.459Z" fill="#C1C1C1"/>
<path d="M597.335 233.671C596.416 234.262 595.308 234.729 594.012 235.074C592.732 235.435 591.435 235.615 590.123 235.615C587.234 235.615 585.019 234.86 583.476 233.351C581.95 231.841 581.187 229.88 581.187 227.468V212.6H575.304V209.055H581.187V203.197L585.913 202.631V209.055H594.775L594.233 212.6H585.913V227.418C585.913 228.846 586.274 229.921 586.996 230.643C587.735 231.365 588.957 231.726 590.664 231.726C591.616 231.726 592.494 231.619 593.298 231.406C594.118 231.176 594.873 230.873 595.563 230.495L597.335 233.671Z" fill="#C1C1C1"/>
<path d="M621.328 198.052C622.805 198.052 624.134 198.184 625.315 198.446C626.497 198.692 627.613 199.045 628.663 199.505L627.186 202.902C626.349 202.524 625.455 202.253 624.503 202.089C623.568 201.909 622.608 201.818 621.623 201.818C618.111 201.818 616.355 203.222 616.355 206.028V211H625.118L624.602 214.594H616.355V235H611.654V214.594H605.574V211H611.654V206.052C611.654 204.444 612.064 203.041 612.885 201.843C613.722 200.645 614.862 199.718 616.306 199.062C617.767 198.389 619.44 198.052 621.328 198.052Z" fill="#C1C1C1"/>
<path d="M635.4 221.585V217.597H655.388V221.585H635.4Z" fill="#C1C1C1"/>
<path d="M685.289 209.154C685.289 210.795 684.788 212.214 683.787 213.412C682.802 214.61 681.375 215.726 679.504 216.76C681.719 217.712 683.459 218.959 684.722 220.502C686.002 222.028 686.642 223.825 686.642 225.892C686.642 227.714 686.167 229.363 685.215 230.84C684.279 232.3 682.926 233.466 681.153 234.335C679.397 235.189 677.289 235.615 674.827 235.615C672.349 235.615 670.24 235.189 668.501 234.335C666.778 233.466 665.465 232.309 664.562 230.865C663.66 229.404 663.209 227.779 663.209 225.991C663.209 223.923 663.816 222.175 665.03 220.748C666.245 219.304 667.869 218.122 669.904 217.203C668.115 216.3 666.778 215.25 665.892 214.052C665.006 212.854 664.562 211.304 664.562 209.4C664.562 207.874 664.874 206.553 665.498 205.437C666.121 204.305 666.942 203.377 667.959 202.655C668.977 201.917 670.093 201.367 671.307 201.006C672.521 200.645 673.728 200.465 674.926 200.465C676.665 200.465 678.322 200.776 679.898 201.4C681.49 202.024 682.786 202.975 683.787 204.255C684.788 205.535 685.289 207.168 685.289 209.154ZM669.19 209.449C669.19 210.68 669.469 211.656 670.027 212.378C670.585 213.084 671.389 213.675 672.439 214.151C673.49 214.61 674.753 215.086 676.23 215.578C677.723 214.709 678.831 213.814 679.553 212.895C680.292 211.976 680.661 210.795 680.661 209.351C680.661 207.726 680.16 206.43 679.159 205.462C678.175 204.493 676.763 204.009 674.926 204.009C673.12 204.009 671.709 204.485 670.692 205.437C669.691 206.389 669.19 207.726 669.19 209.449ZM681.744 225.917C681.744 224.473 681.383 223.324 680.661 222.471C679.939 221.601 678.93 220.879 677.633 220.305C676.337 219.73 674.819 219.139 673.079 218.532C671.734 219.172 670.569 220.067 669.584 221.215C668.599 222.348 668.107 223.915 668.107 225.917C668.107 227.755 668.665 229.215 669.781 230.298C670.913 231.365 672.595 231.898 674.827 231.898C677.075 231.898 678.79 231.332 679.972 230.2C681.153 229.051 681.744 227.624 681.744 225.917Z" fill="#C1C1C1"/>
<path d="M698.278 211.566L697.466 198.618H703.004L702.217 211.566H698.278ZM706.697 211.566L705.909 198.618H711.448L710.635 211.566H706.697Z" fill="#C1C1C1"/>
<path d="M725.643 205.609L744.622 217.326V221.782L725.84 233.523L723.403 230.102L740.56 219.591L723.403 209.129L725.643 205.609Z" fill="#C1C1C1"/>
<path d="M122.226 277.609L124.466 281.129L107.309 291.591L124.466 302.077L122.029 305.523L103.247 293.782V289.351L122.226 277.609Z" fill="#C1C1C1"/>
<path d="M154.366 305.671C153.447 306.262 152.339 306.729 151.043 307.074C149.763 307.435 148.467 307.615 147.154 307.615C144.266 307.615 142.05 306.86 140.508 305.351C138.982 303.841 138.218 301.88 138.218 299.468V284.6H132.335V281.055H138.218V275.197L142.945 274.631V281.055H151.806L151.265 284.6H142.945V299.418C142.945 300.846 143.306 301.921 144.028 302.643C144.766 303.365 145.989 303.726 147.695 303.726C148.647 303.726 149.525 303.619 150.329 303.406C151.15 303.176 151.905 302.873 152.594 302.495L154.366 305.671Z" fill="#C1C1C1"/>
<path d="M172.894 268.649C173.879 268.649 174.667 268.953 175.257 269.56C175.865 270.167 176.168 270.906 176.168 271.775C176.168 272.678 175.865 273.441 175.257 274.065C174.667 274.672 173.879 274.975 172.894 274.975C171.926 274.975 171.138 274.672 170.531 274.065C169.94 273.441 169.645 272.678 169.645 271.775C169.645 270.906 169.94 270.167 170.531 269.56C171.138 268.953 171.926 268.649 172.894 268.649ZM176.414 281.055V303.406H183.627V307H163.787V303.406H171.688V284.649H164.033V281.055H176.414Z" fill="#C1C1C1"/>
<path d="M213.429 305.671C212.51 306.262 211.402 306.729 210.106 307.074C208.826 307.435 207.529 307.615 206.216 307.615C203.328 307.615 201.113 306.86 199.57 305.351C198.044 303.841 197.281 301.88 197.281 299.468V284.6H191.398V281.055H197.281V275.197L202.007 274.631V281.055H210.869L210.327 284.6H202.007V299.418C202.007 300.846 202.368 301.921 203.09 302.643C203.829 303.365 205.051 303.726 206.758 303.726C207.71 303.726 208.588 303.619 209.392 303.406C210.212 303.176 210.967 302.873 211.656 302.495L213.429 305.671Z" fill="#C1C1C1"/>
<path d="M232.548 270.618V300.305C232.548 301.552 232.933 302.438 233.705 302.963C234.476 303.472 235.469 303.726 236.683 303.726C237.454 303.726 238.185 303.652 238.874 303.505C239.579 303.34 240.269 303.119 240.941 302.84L242.172 306.212C241.45 306.59 240.548 306.918 239.465 307.197C238.381 307.476 237.159 307.615 235.797 307.615C233.352 307.615 231.407 306.934 229.963 305.572C228.535 304.21 227.821 302.339 227.821 299.96V274.212H219.92V270.618H232.548Z" fill="#C1C1C1"/>
<path d="M255.236 295.628C255.367 298.483 256.138 300.559 257.55 301.855C258.977 303.152 260.668 303.8 262.62 303.8C263.917 303.8 265.107 303.603 266.19 303.209C267.273 302.815 268.372 302.241 269.488 301.486L271.63 304.465C270.415 305.433 269.012 306.204 267.42 306.778C265.829 307.336 264.179 307.615 262.473 307.615C259.88 307.615 257.673 307.049 255.851 305.917C254.046 304.768 252.668 303.176 251.716 301.142C250.78 299.107 250.313 296.744 250.313 294.052C250.313 291.443 250.78 289.113 251.716 287.062C252.668 285.01 254.005 283.394 255.728 282.212C257.451 281.031 259.502 280.44 261.882 280.44C265.23 280.44 267.863 281.589 269.783 283.886C271.72 286.167 272.688 289.293 272.688 293.265C272.688 293.708 272.68 294.134 272.663 294.545C272.647 294.955 272.622 295.316 272.59 295.628H255.236ZM261.931 284.132C260.077 284.132 258.542 284.789 257.328 286.102C256.114 287.414 255.416 289.441 255.236 292.182H268.134C268.085 289.556 267.511 287.562 266.411 286.2C265.328 284.822 263.835 284.132 261.931 284.132Z" fill="#C1C1C1"/>
<path d="M282.675 277.609L301.653 289.326V293.782L282.872 305.523L280.435 302.102L297.592 291.591L280.435 281.129L282.675 277.609Z" fill="#C1C1C1"/>
<path d="M185.547 369.228C185.547 371.295 185.013 373.117 183.947 374.692C182.896 376.268 181.378 377.507 179.393 378.409C177.407 379.295 175.003 379.738 172.18 379.738C169.227 379.738 166.691 379.304 164.574 378.434C162.457 377.548 160.685 376.415 159.257 375.037L162.802 371.074C164.033 372.173 165.411 373.035 166.937 373.658C168.464 374.282 170.178 374.594 172.082 374.594C173.296 374.594 174.388 374.405 175.356 374.028C176.34 373.65 177.112 373.1 177.67 372.378C178.244 371.64 178.531 370.737 178.531 369.671C178.531 368.735 178.334 367.948 177.94 367.308C177.547 366.668 176.866 366.093 175.897 365.585C174.946 365.076 173.616 364.567 171.91 364.058C169.399 363.287 167.331 362.442 165.707 361.523C164.082 360.588 162.876 359.488 162.088 358.225C161.3 356.945 160.907 355.435 160.907 353.695C160.907 351.743 161.448 350.061 162.531 348.649C163.614 347.222 165.075 346.13 166.913 345.375C168.767 344.604 170.835 344.218 173.116 344.218C175.643 344.218 177.867 344.588 179.787 345.326C181.707 346.048 183.397 347.082 184.857 348.428L181.485 352.243C180.32 351.242 179.056 350.504 177.694 350.028C176.349 349.552 174.978 349.314 173.584 349.314C172.484 349.314 171.499 349.462 170.63 349.757C169.776 350.052 169.104 350.487 168.611 351.062C168.119 351.636 167.873 352.366 167.873 353.252C167.873 354.056 168.094 354.746 168.537 355.32C168.997 355.878 169.776 356.403 170.876 356.895C171.975 357.371 173.485 357.913 175.405 358.52C177.424 359.127 179.188 359.857 180.697 360.711C182.224 361.564 183.413 362.672 184.267 364.034C185.12 365.379 185.547 367.111 185.547 369.228Z" fill="#F9D949"/>
<path d="M202.45 352.194C205.043 352.194 207.242 352.76 209.047 353.892C210.852 355.025 212.222 356.625 213.158 358.692C214.11 360.744 214.586 363.148 214.586 365.905C214.586 368.727 214.11 371.172 213.158 373.24C212.206 375.308 210.828 376.908 209.022 378.04C207.217 379.172 205.018 379.738 202.426 379.738C199.849 379.738 197.65 379.189 195.829 378.089C194.024 376.973 192.645 375.39 191.693 373.338C190.741 371.271 190.266 368.809 190.266 365.954C190.266 363.23 190.741 360.834 191.693 358.766C192.645 356.698 194.032 355.09 195.853 353.942C197.675 352.776 199.874 352.194 202.45 352.194ZM202.45 357.092C200.629 357.092 199.267 357.806 198.364 359.234C197.478 360.662 197.035 362.902 197.035 365.954C197.035 369.039 197.478 371.295 198.364 372.723C199.25 374.134 200.604 374.84 202.426 374.84C204.247 374.84 205.601 374.134 206.487 372.723C207.373 371.295 207.816 369.023 207.816 365.905C207.816 362.869 207.373 360.645 206.487 359.234C205.601 357.806 204.255 357.092 202.45 357.092Z" fill="#F9D949"/>
<path d="M227.649 355.862C228.519 354.713 229.545 353.818 230.726 353.178C231.924 352.522 233.212 352.194 234.591 352.194C236.872 352.194 238.718 352.76 240.129 353.892C241.557 355.008 242.599 356.592 243.255 358.643C243.928 360.694 244.265 363.115 244.265 365.905C244.265 368.579 243.871 370.959 243.083 373.043C242.295 375.127 241.122 376.768 239.563 377.966C238.02 379.148 236.125 379.738 233.877 379.738C231.054 379.738 228.831 378.664 227.206 376.514L226.911 379H221.151V342.52L227.649 341.831V355.862ZM232.203 374.889C233.86 374.889 235.157 374.184 236.092 372.772C237.028 371.361 237.495 369.096 237.495 365.978C237.495 363.779 237.298 362.032 236.905 360.735C236.527 359.423 235.977 358.487 235.255 357.929C234.55 357.355 233.696 357.068 232.695 357.068C231.612 357.068 230.652 357.396 229.815 358.052C228.995 358.709 228.273 359.521 227.649 360.489V372.157C228.207 373.027 228.863 373.699 229.618 374.175C230.373 374.651 231.235 374.889 232.203 374.889Z" fill="#F9D949"/>
<path d="M250.928 379V374.495H254.596V357.412H250.928V352.932H259.543L260.75 358.914C261.701 356.698 262.899 355.033 264.343 353.917C265.788 352.785 267.601 352.218 269.783 352.218C270.62 352.218 271.359 352.284 271.999 352.415C272.655 352.547 273.279 352.719 273.87 352.932L271.925 358.397C271.416 358.266 270.932 358.167 270.473 358.102C270.013 358.019 269.496 357.978 268.922 357.978C267.117 357.978 265.541 358.684 264.196 360.095C262.867 361.49 261.833 363.386 261.094 365.782V374.495H266.288V379H250.928ZM268.38 363.098V356.182L269.267 352.932H273.87L272.713 363.098H268.38Z" fill="#F9D949"/>
<path d="M285.752 367.948C285.883 369.572 286.252 370.893 286.859 371.911C287.483 372.928 288.279 373.675 289.247 374.151C290.215 374.627 291.29 374.865 292.472 374.865C293.719 374.865 294.892 374.668 295.992 374.274C297.091 373.88 298.174 373.33 299.241 372.625L301.949 376.342C300.734 377.359 299.282 378.179 297.592 378.803C295.918 379.427 294.072 379.738 292.053 379.738C289.231 379.738 286.851 379.156 284.915 377.991C282.995 376.826 281.542 375.209 280.558 373.142C279.573 371.074 279.081 368.694 279.081 366.003C279.081 363.41 279.565 361.072 280.533 358.988C281.501 356.904 282.896 355.254 284.718 354.04C286.539 352.809 288.738 352.194 291.315 352.194C293.711 352.194 295.778 352.719 297.518 353.769C299.257 354.819 300.603 356.329 301.555 358.298C302.507 360.251 302.982 362.606 302.982 365.363C302.982 365.806 302.966 366.257 302.933 366.717C302.917 367.176 302.892 367.587 302.859 367.948H285.752ZM291.339 356.772C289.764 356.772 288.468 357.338 287.45 358.471C286.449 359.587 285.858 361.359 285.678 363.788H296.656C296.623 361.589 296.164 359.874 295.278 358.643C294.408 357.396 293.095 356.772 291.339 356.772Z" fill="#F9D949"/>
<path d="M339.276 379V352.932H344.937L345.405 356.157C346.521 354.844 347.776 353.859 349.171 353.203C350.566 352.53 352.067 352.194 353.676 352.194C356.022 352.194 357.811 352.875 359.042 354.237C360.273 355.583 360.888 357.478 360.888 359.923V379H354.39V362.458C354.39 361.146 354.307 360.095 354.143 359.308C353.979 358.504 353.667 357.929 353.208 357.585C352.748 357.224 352.084 357.043 351.214 357.043C350.509 357.043 349.827 357.199 349.171 357.511C348.531 357.823 347.924 358.241 347.35 358.766C346.792 359.291 346.266 359.874 345.774 360.514V379H339.276Z" fill="#F9D949"/>
<path d="M379.638 352.194C382.231 352.194 384.429 352.76 386.235 353.892C388.04 355.025 389.41 356.625 390.345 358.692C391.297 360.744 391.773 363.148 391.773 365.905C391.773 368.727 391.297 371.172 390.345 373.24C389.394 375.308 388.015 376.908 386.21 378.04C384.405 379.172 382.206 379.738 379.613 379.738C377.037 379.738 374.838 379.189 373.016 378.089C371.211 376.973 369.833 375.39 368.881 373.338C367.929 371.271 367.453 368.809 367.453 365.954C367.453 363.23 367.929 360.834 368.881 358.766C369.833 356.698 371.219 355.09 373.041 353.942C374.862 352.776 377.061 352.194 379.638 352.194ZM379.638 357.092C377.816 357.092 376.454 357.806 375.552 359.234C374.665 360.662 374.222 362.902 374.222 365.954C374.222 369.039 374.665 371.295 375.552 372.723C376.438 374.134 377.792 374.84 379.613 374.84C381.435 374.84 382.788 374.134 383.675 372.723C384.561 371.295 385.004 369.023 385.004 365.905C385.004 362.869 384.561 360.645 383.675 359.234C382.788 357.806 381.443 357.092 379.638 357.092Z" fill="#F9D949"/>
<path d="M408.258 374.938C409.784 374.938 411.007 374.676 411.926 374.151C412.861 373.609 413.329 372.854 413.329 371.886C413.329 371.246 413.173 370.705 412.861 370.262C412.566 369.818 411.975 369.408 411.089 369.031C410.203 368.637 408.874 368.202 407.101 367.726C405.427 367.299 403.959 366.774 402.695 366.151C401.448 365.511 400.472 364.69 399.766 363.689C399.077 362.688 398.732 361.425 398.732 359.898C398.732 358.372 399.159 357.035 400.012 355.886C400.865 354.721 402.096 353.818 403.704 353.178C405.329 352.522 407.282 352.194 409.563 352.194C411.795 352.194 413.747 352.489 415.421 353.08C417.095 353.654 418.531 354.376 419.729 355.246L417.07 359.209C416.02 358.536 414.88 357.995 413.649 357.585C412.435 357.158 411.122 356.945 409.71 356.945C408.184 356.945 407.068 357.166 406.363 357.609C405.674 358.052 405.329 358.668 405.329 359.455C405.329 360.013 405.501 360.489 405.846 360.883C406.207 361.261 406.847 361.63 407.766 361.991C408.701 362.335 410.03 362.754 411.754 363.246C413.444 363.706 414.913 364.247 416.16 364.871C417.423 365.494 418.4 366.323 419.089 367.357C419.778 368.391 420.123 369.745 420.123 371.418C420.123 373.306 419.573 374.865 418.474 376.095C417.374 377.326 415.922 378.245 414.117 378.852C412.328 379.443 410.383 379.738 408.283 379.738C405.821 379.738 403.672 379.386 401.834 378.68C399.996 377.974 398.437 377.064 397.157 375.948L400.529 372.157C401.546 372.961 402.703 373.626 404 374.151C405.313 374.676 406.732 374.938 408.258 374.938Z" fill="#F9D949"/>
<path d="M438.7 352.194C441.293 352.194 443.492 352.76 445.297 353.892C447.102 355.025 448.472 356.625 449.408 358.692C450.36 360.744 450.836 363.148 450.836 365.905C450.836 368.727 450.36 371.172 449.408 373.24C448.456 375.308 447.078 376.908 445.272 378.04C443.467 379.172 441.268 379.738 438.676 379.738C436.099 379.738 433.9 379.189 432.079 378.089C430.274 376.973 428.895 375.39 427.943 373.338C426.991 371.271 426.516 368.809 426.516 365.954C426.516 363.23 426.991 360.834 427.943 358.766C428.895 356.698 430.282 355.09 432.103 353.942C433.925 352.776 436.124 352.194 438.7 352.194ZM438.7 357.092C436.879 357.092 435.517 357.806 434.614 359.234C433.728 360.662 433.285 362.902 433.285 365.954C433.285 369.039 433.728 371.295 434.614 372.723C435.5 374.134 436.854 374.84 438.676 374.84C440.497 374.84 441.851 374.134 442.737 372.723C443.623 371.295 444.066 369.023 444.066 365.905C444.066 362.869 443.623 360.645 442.737 359.234C441.851 357.806 440.505 357.092 438.7 357.092Z" fill="#F9D949"/>
<path d="M479.899 377.548C478.931 378.188 477.758 378.713 476.379 379.123C475.001 379.533 473.507 379.738 471.899 379.738C468.716 379.738 466.32 378.918 464.711 377.277C463.103 375.619 462.299 373.421 462.299 370.68V357.535H456.638V352.932H462.299V347.197L468.798 346.409V352.932H477.413L476.748 357.535H468.798V370.655C468.798 372.001 469.126 372.986 469.782 373.609C470.439 374.233 471.497 374.545 472.958 374.545C473.893 374.545 474.746 374.438 475.518 374.225C476.305 373.995 477.019 373.708 477.659 373.363L479.899 377.548Z" fill="#F9D949"/>
<path d="M487.178 379V374.495H490.846V357.412H487.178V352.932H495.793L497 358.914C497.951 356.698 499.149 355.033 500.593 353.917C502.038 352.785 503.851 352.218 506.033 352.218C506.87 352.218 507.609 352.284 508.249 352.415C508.905 352.547 509.529 352.719 510.12 352.932L508.175 358.397C507.666 358.266 507.182 358.167 506.723 358.102C506.263 358.019 505.746 357.978 505.172 357.978C503.367 357.978 501.791 358.684 500.446 360.095C499.117 361.49 498.083 363.386 497.344 365.782V374.495H502.538V379H487.178ZM504.63 363.098V356.182L505.517 352.932H510.12L508.963 363.098H504.63Z" fill="#F9D949"/>
<path d="M537.263 372.132C537.263 373.133 537.411 373.864 537.706 374.323C538.002 374.766 538.478 375.103 539.134 375.332L537.731 379.689C536.336 379.542 535.146 379.197 534.162 378.655C533.193 378.097 532.447 377.269 531.922 376.169C530.937 377.367 529.69 378.262 528.18 378.852C526.687 379.443 525.12 379.738 523.479 379.738C520.82 379.738 518.711 378.984 517.152 377.474C515.593 375.964 514.814 374.003 514.814 371.591C514.814 368.817 515.897 366.684 518.063 365.191C520.246 363.681 523.331 362.926 527.319 362.926H530.962V361.523C530.962 359.981 530.486 358.865 529.534 358.175C528.582 357.47 527.212 357.117 525.423 357.117C524.586 357.117 523.536 357.232 522.272 357.462C521.025 357.675 519.737 358.011 518.408 358.471L516.857 354.015C518.514 353.392 520.18 352.932 521.854 352.637C523.544 352.342 525.079 352.194 526.457 352.194C530.116 352.194 532.832 352.973 534.605 354.532C536.377 356.075 537.263 358.266 537.263 361.105V372.132ZM525.595 375.037C526.58 375.037 527.573 374.758 528.574 374.2C529.591 373.642 530.387 372.863 530.962 371.862V366.791H528.402C525.989 366.791 524.242 367.176 523.159 367.948C522.092 368.719 521.559 369.81 521.559 371.222C521.559 372.436 521.903 373.379 522.592 374.052C523.282 374.709 524.283 375.037 525.595 375.037Z" fill="#F9D949"/>
<path d="M555.914 374.938C557.441 374.938 558.663 374.676 559.582 374.151C560.517 373.609 560.985 372.854 560.985 371.886C560.985 371.246 560.829 370.705 560.517 370.262C560.222 369.818 559.631 369.408 558.745 369.031C557.859 368.637 556.53 368.202 554.757 367.726C553.084 367.299 551.615 366.774 550.351 366.151C549.104 365.511 548.128 364.69 547.422 363.689C546.733 362.688 546.388 361.425 546.388 359.898C546.388 358.372 546.815 357.035 547.668 355.886C548.522 354.721 549.752 353.818 551.361 353.178C552.985 352.522 554.938 352.194 557.219 352.194C559.451 352.194 561.404 352.489 563.077 353.08C564.751 353.654 566.187 354.376 567.385 355.246L564.727 359.209C563.676 358.536 562.536 357.995 561.305 357.585C560.091 357.158 558.778 356.945 557.367 356.945C555.841 356.945 554.725 357.166 554.019 357.609C553.33 358.052 552.985 358.668 552.985 359.455C552.985 360.013 553.157 360.489 553.502 360.883C553.863 361.261 554.503 361.63 555.422 361.991C556.357 362.335 557.687 362.754 559.41 363.246C561.1 363.706 562.569 364.247 563.816 364.871C565.08 365.494 566.056 366.323 566.745 367.357C567.434 368.391 567.779 369.745 567.779 371.418C567.779 373.306 567.229 374.865 566.13 376.095C565.03 377.326 563.578 378.245 561.773 378.852C559.984 379.443 558.04 379.738 555.939 379.738C553.478 379.738 551.328 379.386 549.49 378.68C547.652 377.974 546.093 377.064 544.813 375.948L548.185 372.157C549.203 372.961 550.36 373.626 551.656 374.151C552.969 374.676 554.388 374.938 555.914 374.938Z" fill="#F9D949"/>
<path d="M128.717 458.508L124.926 456.809L126.994 452.551L103.24 437.782V433.351L122.218 421.609L124.458 425.129L107.302 435.591L128.815 448.785L147.08 411.098L150.822 412.895L128.717 458.508Z" fill="#C1C1C1"/>
<path d="M183.897 449.671C182.978 450.262 181.871 450.729 180.574 451.074C179.294 451.435 177.998 451.615 176.685 451.615C173.797 451.615 171.581 450.861 170.039 449.351C168.513 447.841 167.75 445.88 167.75 443.468V428.6H161.867V425.055H167.75V419.197L172.476 418.631V425.055H181.337L180.796 428.6H172.476V443.418C172.476 444.846 172.837 445.921 173.559 446.643C174.297 447.365 175.52 447.726 177.227 447.726C178.178 447.726 179.056 447.619 179.86 447.406C180.681 447.176 181.436 446.873 182.125 446.495L183.897 449.671Z" fill="#C1C1C1"/>
<path d="M202.426 412.649C203.41 412.649 204.198 412.953 204.789 413.56C205.396 414.167 205.699 414.906 205.699 415.775C205.699 416.678 205.396 417.441 204.789 418.065C204.198 418.672 203.41 418.975 202.426 418.975C201.457 418.975 200.67 418.672 200.062 418.065C199.472 417.441 199.176 416.678 199.176 415.775C199.176 414.906 199.472 414.167 200.062 413.56C200.67 412.953 201.457 412.649 202.426 412.649ZM205.946 425.055V447.406H213.158V451H193.318V447.406H201.219V428.649H193.564V425.055H205.946Z" fill="#C1C1C1"/>
<path d="M242.96 449.671C242.041 450.262 240.933 450.729 239.637 451.074C238.357 451.435 237.06 451.615 235.748 451.615C232.859 451.615 230.644 450.861 229.101 449.351C227.575 447.841 226.812 445.88 226.812 443.468V428.6H220.929V425.055H226.812V419.197L231.538 418.631V425.055H240.4L239.858 428.6H231.538V443.418C231.538 444.846 231.899 445.921 232.621 446.643C233.36 447.365 234.582 447.726 236.289 447.726C237.241 447.726 238.119 447.619 238.923 447.406C239.743 447.176 240.498 446.873 241.188 446.495L242.96 449.671Z" fill="#C1C1C1"/>
<path d="M262.079 414.618V444.305C262.079 445.552 262.464 446.438 263.236 446.963C264.007 447.472 265 447.726 266.214 447.726C266.986 447.726 267.716 447.652 268.405 447.505C269.111 447.341 269.8 447.119 270.473 446.84L271.703 450.212C270.981 450.59 270.079 450.918 268.996 451.197C267.913 451.476 266.69 451.615 265.328 451.615C262.883 451.615 260.938 450.934 259.494 449.572C258.067 448.21 257.353 446.339 257.353 443.96V418.212H249.451V414.618H262.079Z" fill="#C1C1C1"/>
<path d="M284.767 439.628C284.898 442.483 285.67 444.559 287.081 445.855C288.509 447.152 290.199 447.8 292.152 447.8C293.448 447.8 294.638 447.603 295.721 447.209C296.804 446.815 297.903 446.241 299.019 445.486L301.161 448.465C299.946 449.433 298.543 450.204 296.952 450.778C295.36 451.336 293.711 451.615 292.004 451.615C289.411 451.615 287.204 451.049 285.382 449.917C283.577 448.768 282.199 447.176 281.247 445.142C280.312 443.107 279.844 440.744 279.844 438.052C279.844 435.443 280.312 433.113 281.247 431.062C282.199 429.01 283.536 427.394 285.259 426.212C286.982 425.031 289.034 424.44 291.413 424.44C294.761 424.44 297.395 425.589 299.315 427.886C301.251 430.167 302.219 433.293 302.219 437.265C302.219 437.708 302.211 438.134 302.195 438.545C302.178 438.955 302.154 439.316 302.121 439.628H284.767ZM291.462 428.132C289.608 428.132 288.074 428.789 286.859 430.102C285.645 431.414 284.948 433.441 284.767 436.182H297.665C297.616 433.556 297.042 431.562 295.942 430.2C294.859 428.822 293.366 428.132 291.462 428.132Z" fill="#C1C1C1"/>
<path d="M312.206 421.609L331.184 433.326V437.782L312.403 449.523L309.966 446.102L327.123 435.591L309.966 425.129L312.206 421.609Z" fill="#C1C1C1"/>
<path d="M69.6544 530.508L65.8636 528.809L67.9313 524.551L44.1775 509.782V505.351L63.156 493.609L65.396 497.129L48.239 507.591L69.7529 520.785L88.0175 483.098L91.759 484.895L69.6544 530.508Z" fill="#C1C1C1"/>
<path d="M108.49 486.151V500.428C109.524 499.115 110.763 498.122 112.207 497.449C113.668 496.776 115.153 496.44 116.663 496.44C119.157 496.44 120.995 497.121 122.176 498.483C123.358 499.829 123.949 501.708 123.949 504.12V523H119.223V504.538C119.223 502.979 118.886 501.855 118.213 501.166C117.557 500.461 116.507 500.108 115.063 500.108C113.684 500.108 112.412 500.543 111.247 501.412C110.098 502.282 109.18 503.226 108.49 504.243V523H103.764V486.668L108.49 486.151Z" fill="#C1C1C1"/>
<path d="M137.111 511.628C137.242 514.483 138.013 516.559 139.425 517.855C140.852 519.152 142.543 519.8 144.495 519.8C145.792 519.8 146.982 519.603 148.065 519.209C149.148 518.815 150.247 518.241 151.363 517.486L153.505 520.465C152.29 521.433 150.887 522.204 149.295 522.778C147.704 523.336 146.054 523.615 144.348 523.615C141.755 523.615 139.548 523.049 137.726 521.917C135.921 520.768 134.543 519.176 133.591 517.142C132.655 515.107 132.188 512.744 132.188 510.052C132.188 507.443 132.655 505.113 133.591 503.062C134.543 501.01 135.88 499.394 137.603 498.212C139.326 497.031 141.377 496.44 143.757 496.44C147.105 496.44 149.738 497.589 151.658 499.886C153.595 502.167 154.563 505.293 154.563 509.265C154.563 509.708 154.555 510.134 154.538 510.545C154.522 510.955 154.497 511.316 154.465 511.628H137.111ZM143.806 500.132C141.952 500.132 140.417 500.789 139.203 502.102C137.989 503.414 137.291 505.441 137.111 508.182H150.009C149.96 505.556 149.386 503.562 148.286 502.2C147.203 500.822 145.71 500.132 143.806 500.132Z" fill="#C1C1C1"/>
<path d="M181.953 517.043C181.953 518.077 182.117 518.832 182.445 519.308C182.773 519.767 183.29 520.112 183.996 520.342L182.888 523.591C181.707 523.443 180.673 523.09 179.787 522.532C178.917 521.974 178.277 521.121 177.867 519.972C176.931 521.187 175.75 522.097 174.322 522.705C172.894 523.312 171.344 523.615 169.67 523.615C167.06 523.615 165.001 522.877 163.491 521.4C161.981 519.923 161.227 517.978 161.227 515.566C161.227 512.875 162.277 510.807 164.377 509.363C166.494 507.903 169.53 507.172 173.485 507.172H177.251V505.203C177.251 503.414 176.718 502.143 175.651 501.388C174.601 500.633 173.132 500.255 171.245 500.255C170.375 500.255 169.35 500.362 168.168 500.575C167.003 500.789 165.756 501.125 164.427 501.585L163.22 498.138C164.812 497.531 166.347 497.096 167.824 496.834C169.3 496.571 170.679 496.44 171.959 496.44C175.29 496.44 177.785 497.203 179.442 498.729C181.116 500.255 181.953 502.331 181.953 504.957V517.043ZM170.999 520.071C172.197 520.071 173.354 519.759 174.47 519.135C175.602 518.512 176.529 517.642 177.251 516.526V510.249H173.805C171.065 510.249 169.12 510.717 167.971 511.652C166.823 512.571 166.248 513.835 166.248 515.443C166.248 518.528 167.832 520.071 170.999 520.071Z" fill="#C1C1C1"/>
<path d="M207.767 486.052L212.493 486.618V523H208.333L207.939 519.677C206.101 522.303 203.656 523.615 200.604 523.615C198.372 523.615 196.526 523.049 195.066 521.917C193.621 520.768 192.547 519.176 191.841 517.142C191.135 515.107 190.783 512.744 190.783 510.052C190.783 507.427 191.185 505.096 191.989 503.062C192.809 501.01 193.974 499.394 195.484 498.212C197.01 497.031 198.848 496.44 200.998 496.44C203.788 496.44 206.044 497.425 207.767 499.394V486.052ZM202.229 500.157C200.194 500.157 198.618 500.969 197.503 502.594C196.403 504.218 195.853 506.705 195.853 510.052C195.853 513.384 196.354 515.853 197.355 517.462C198.372 519.07 199.833 519.874 201.736 519.874C203.098 519.874 204.272 519.488 205.256 518.717C206.257 517.929 207.094 517.01 207.767 515.96V503.283C207.094 502.298 206.282 501.535 205.33 500.994C204.395 500.436 203.361 500.157 202.229 500.157Z" fill="#C1C1C1"/>
<path d="M223.612 493.609L242.591 505.326V509.782L223.809 521.523L221.372 518.102L238.529 507.591L221.372 497.129L223.612 493.609Z" fill="#C1C1C1"/>
<line x1="220" y1="96.5" x2="306" y2="96.5" stroke="#8F8345"/>
<line x1="159" y1="384.5" x2="567" y2="384.5" stroke="#8F8345"/>
<line x1="336" y1="96.5" x2="475" y2="96.5" stroke="#8F8345"/>
<path d="M268.5 352.5L274 353L272.5 359L264.5 357L268.5 352.5Z" fill="#F9D949"/>
<path d="M503.5 352.7L510.098 352.95L509 358.5L503 358L503.5 352.7Z" fill="#F9D949"/>
</svg>
