<svg width="1000" height="800" viewBox="0 0 1000 800" fill="none" xmlns="http://www.w3.org/2000/svg">
<g clip-path="url(#clip0_3195_172)">
<rect width="1000" height="800" fill="#E8E8E8"/>
<rect x="0.5" y="0.5" width="999" height="799" stroke="#4A4A4A"/>
<line x1="-0.16058" y1="0.200169" x2="999.785" y2="799.018" stroke="#4A4A4A"/>
<line y1="-0.5" x2="1279.84" y2="-0.5" transform="matrix(-0.781303 0.624152 0.624152 0.781303 999.473 0.59082)" stroke="#4A4A4A"/>
<path d="M141 360H858V448H141V360Z" fill="#E8E8E8"/>
<path d="M168.952 415H165.074L176.29 384.455H180.108L191.324 415H187.446L178.318 389.287H178.08L168.952 415ZM170.384 403.068H186.014V406.349H170.384V403.068ZM199.124 401.219V415H195.604V392.091H199.005V395.67H199.303C199.84 394.507 200.656 393.572 201.749 392.866C202.843 392.151 204.255 391.793 205.985 391.793C207.536 391.793 208.893 392.111 210.057 392.747C211.22 393.374 212.125 394.328 212.771 395.611C213.418 396.884 213.741 398.494 213.741 400.443V415H210.221V400.682C210.221 398.882 209.754 397.48 208.819 396.476C207.884 395.462 206.602 394.955 204.971 394.955C203.847 394.955 202.843 395.198 201.958 395.685C201.083 396.173 200.392 396.884 199.885 397.818C199.378 398.753 199.124 399.886 199.124 401.219ZM238.727 415.537C237.275 415.537 235.958 415.263 234.774 414.717C233.591 414.16 232.651 413.359 231.955 412.315C231.259 411.261 230.911 409.989 230.911 408.497C230.911 407.185 231.17 406.121 231.687 405.305C232.204 404.48 232.895 403.834 233.76 403.366C234.625 402.899 235.58 402.551 236.624 402.322C237.678 402.084 238.737 401.895 239.801 401.756C241.193 401.577 242.321 401.442 243.186 401.353C244.061 401.254 244.698 401.089 245.095 400.861C245.503 400.632 245.707 400.234 245.707 399.668V399.548C245.707 398.077 245.304 396.933 244.499 396.118C243.703 395.303 242.495 394.895 240.874 394.895C239.194 394.895 237.877 395.263 236.922 395.999C235.968 396.734 235.296 397.52 234.909 398.355L231.568 397.162C232.164 395.77 232.96 394.686 233.954 393.911C234.958 393.125 236.052 392.578 237.235 392.27C238.428 391.952 239.602 391.793 240.755 391.793C241.491 391.793 242.336 391.882 243.291 392.061C244.255 392.23 245.185 392.583 246.08 393.12C246.985 393.657 247.735 394.467 248.332 395.551C248.928 396.635 249.227 398.087 249.227 399.906V415H245.707V411.898H245.528C245.289 412.395 244.892 412.927 244.335 413.494C243.778 414.06 243.037 414.543 242.112 414.94C241.188 415.338 240.059 415.537 238.727 415.537ZM239.264 412.375C240.656 412.375 241.829 412.102 242.784 411.555C243.748 411.008 244.474 410.302 244.961 409.437C245.458 408.572 245.707 407.662 245.707 406.707V403.486C245.558 403.665 245.23 403.829 244.722 403.978C244.225 404.117 243.649 404.241 242.992 404.351C242.346 404.45 241.715 404.54 241.098 404.619C240.492 404.689 239.999 404.749 239.622 404.798C238.707 404.918 237.852 405.112 237.056 405.38C236.271 405.638 235.634 406.031 235.147 406.558C234.67 407.075 234.431 407.781 234.431 408.676C234.431 409.899 234.884 410.824 235.789 411.45C236.703 412.067 237.862 412.375 239.264 412.375ZM265.614 392.091V395.074H253.742V392.091H265.614ZM257.202 386.602H260.722V408.438C260.722 409.432 260.866 410.178 261.155 410.675C261.453 411.162 261.831 411.49 262.288 411.659C262.756 411.818 263.248 411.898 263.765 411.898C264.153 411.898 264.471 411.878 264.719 411.838C264.968 411.788 265.167 411.749 265.316 411.719L266.032 414.881C265.793 414.97 265.46 415.06 265.033 415.149C264.605 415.249 264.063 415.298 263.407 415.298C262.413 415.298 261.438 415.085 260.484 414.657C259.539 414.229 258.754 413.578 258.127 412.703C257.511 411.828 257.202 410.724 257.202 409.392V386.602ZM280.872 392.091V395.074H269V392.091H280.872ZM272.46 386.602H275.98V408.438C275.98 409.432 276.124 410.178 276.413 410.675C276.711 411.162 277.089 411.49 277.546 411.659C278.013 411.818 278.506 411.898 279.023 411.898C279.411 411.898 279.729 411.878 279.977 411.838C280.226 411.788 280.425 411.749 280.574 411.719L281.29 414.881C281.051 414.97 280.718 415.06 280.29 415.149C279.863 415.249 279.321 415.298 278.665 415.298C277.67 415.298 276.696 415.085 275.741 414.657C274.797 414.229 274.011 413.578 273.385 412.703C272.768 411.828 272.46 410.724 272.46 409.392V386.602ZM295.526 415.477C293.319 415.477 291.414 414.99 289.814 414.016C288.223 413.031 286.995 411.659 286.13 409.899C285.275 408.129 284.847 406.071 284.847 403.724C284.847 401.378 285.275 399.31 286.13 397.52C286.995 395.72 288.198 394.318 289.739 393.314C291.29 392.3 293.1 391.793 295.168 391.793C296.361 391.793 297.539 391.991 298.703 392.389C299.866 392.787 300.925 393.433 301.88 394.328C302.834 395.213 303.595 396.386 304.162 397.848C304.728 399.31 305.012 401.109 305.012 403.247V404.739H287.353V401.696H301.432C301.432 400.403 301.174 399.25 300.657 398.236C300.15 397.222 299.424 396.421 298.479 395.835C297.544 395.248 296.441 394.955 295.168 394.955C293.766 394.955 292.553 395.303 291.529 395.999C290.515 396.685 289.734 397.58 289.187 398.683C288.64 399.787 288.367 400.97 288.367 402.233V404.261C288.367 405.991 288.665 407.458 289.262 408.661C289.868 409.854 290.708 410.764 291.782 411.391C292.856 412.007 294.104 412.315 295.526 412.315C296.451 412.315 297.286 412.186 298.032 411.928C298.787 411.659 299.439 411.261 299.985 410.734C300.532 410.197 300.955 409.531 301.253 408.736L304.654 409.69C304.296 410.844 303.694 411.858 302.849 412.733C302.004 413.598 300.96 414.274 299.717 414.761C298.474 415.239 297.077 415.477 295.526 415.477ZM313.886 401.219V415H310.366V392.091H313.767V395.67H314.065C314.602 394.507 315.417 393.572 316.511 392.866C317.605 392.151 319.017 391.793 320.747 391.793C322.298 391.793 323.655 392.111 324.819 392.747C325.982 393.374 326.887 394.328 327.533 395.611C328.179 396.884 328.502 398.494 328.502 400.443V415H324.983V400.682C324.983 398.882 324.515 397.48 323.581 396.476C322.646 395.462 321.363 394.955 319.733 394.955C318.609 394.955 317.605 395.198 316.72 395.685C315.845 396.173 315.154 396.884 314.647 397.818C314.14 398.753 313.886 399.886 313.886 401.219ZM344.898 392.091V395.074H333.025V392.091H344.898ZM336.486 386.602H340.006V408.438C340.006 409.432 340.15 410.178 340.438 410.675C340.736 411.162 341.114 411.49 341.572 411.659C342.039 411.818 342.531 411.898 343.048 411.898C343.436 411.898 343.754 411.878 344.003 411.838C344.251 411.788 344.45 411.749 344.599 411.719L345.315 414.881C345.077 414.97 344.743 415.06 344.316 415.149C343.888 415.249 343.346 415.298 342.69 415.298C341.696 415.298 340.721 415.085 339.767 414.657C338.822 414.229 338.037 413.578 337.41 412.703C336.794 411.828 336.486 410.724 336.486 409.392V386.602ZM350.192 415V392.091H353.712V415H350.192ZM351.982 388.273C351.296 388.273 350.704 388.039 350.207 387.572C349.72 387.104 349.476 386.543 349.476 385.886C349.476 385.23 349.72 384.668 350.207 384.201C350.704 383.734 351.296 383.5 351.982 383.5C352.668 383.5 353.255 383.734 353.742 384.201C354.239 384.668 354.488 385.23 354.488 385.886C354.488 386.543 354.239 387.104 353.742 387.572C353.255 388.039 352.668 388.273 351.982 388.273ZM369.466 415.477C367.398 415.477 365.583 414.985 364.022 414.001C362.471 413.016 361.258 411.639 360.383 409.869C359.518 408.099 359.085 406.031 359.085 403.665C359.085 401.278 359.518 399.195 360.383 397.415C361.258 395.636 362.471 394.254 364.022 393.269C365.583 392.285 367.398 391.793 369.466 391.793C371.534 391.793 373.344 392.285 374.895 393.269C376.456 394.254 377.669 395.636 378.534 397.415C379.409 399.195 379.847 401.278 379.847 403.665C379.847 406.031 379.409 408.099 378.534 409.869C377.669 411.639 376.456 413.016 374.895 414.001C373.344 414.985 371.534 415.477 369.466 415.477ZM369.466 412.315C371.037 412.315 372.33 411.913 373.344 411.107C374.358 410.302 375.109 409.243 375.596 407.93C376.083 406.618 376.327 405.196 376.327 403.665C376.327 402.134 376.083 400.707 375.596 399.384C375.109 398.062 374.358 396.993 373.344 396.178C372.33 395.362 371.037 394.955 369.466 394.955C367.895 394.955 366.602 395.362 365.588 396.178C364.574 396.993 363.823 398.062 363.336 399.384C362.849 400.707 362.605 402.134 362.605 403.665C362.605 405.196 362.849 406.618 363.336 407.93C363.823 409.243 364.574 410.302 365.588 411.107C366.602 411.913 367.895 412.315 369.466 412.315ZM388.74 401.219V415H385.22V392.091H388.62V395.67H388.919C389.455 394.507 390.271 393.572 391.365 392.866C392.458 392.151 393.87 391.793 395.6 391.793C397.151 391.793 398.509 392.111 399.672 392.747C400.835 393.374 401.74 394.328 402.387 395.611C403.033 396.884 403.356 398.494 403.356 400.443V415H399.836V400.682C399.836 398.882 399.369 397.48 398.434 396.476C397.499 395.462 396.217 394.955 394.586 394.955C393.463 394.955 392.458 395.198 391.573 395.685C390.698 396.173 390.007 396.884 389.5 397.818C388.993 398.753 388.74 399.886 388.74 401.219ZM422.913 400.264V403.545H409.549V400.264H422.913ZM438.354 424.068C436.653 424.068 435.192 423.849 433.969 423.412C432.746 422.984 431.726 422.418 430.911 421.712C430.106 421.016 429.464 420.27 428.987 419.474L431.791 417.506C432.109 417.923 432.512 418.401 432.999 418.938C433.486 419.484 434.153 419.957 434.998 420.354C435.853 420.762 436.971 420.966 438.354 420.966C440.203 420.966 441.729 420.518 442.932 419.624C444.135 418.729 444.737 417.327 444.737 415.418V410.764H444.439C444.18 411.182 443.812 411.699 443.335 412.315C442.868 412.922 442.192 413.464 441.307 413.941C440.432 414.408 439.248 414.642 437.757 414.642C435.907 414.642 434.247 414.205 432.775 413.33C431.314 412.455 430.155 411.182 429.3 409.511C428.455 407.841 428.032 405.812 428.032 403.426C428.032 401.08 428.445 399.036 429.27 397.296C430.096 395.546 431.244 394.194 432.716 393.239C434.187 392.275 435.888 391.793 437.817 391.793C439.308 391.793 440.491 392.041 441.366 392.538C442.251 393.026 442.927 393.582 443.395 394.209C443.872 394.825 444.24 395.332 444.498 395.73H444.856V392.091H448.257V415.656C448.257 417.625 447.809 419.226 446.915 420.459C446.03 421.702 444.836 422.612 443.335 423.188C441.844 423.775 440.183 424.068 438.354 424.068ZM438.234 411.48C439.646 411.48 440.839 411.157 441.814 410.511C442.788 409.864 443.529 408.935 444.036 407.722C444.543 406.509 444.797 405.057 444.797 403.366C444.797 401.716 444.548 400.259 444.051 398.996C443.554 397.734 442.818 396.744 441.844 396.028C440.869 395.312 439.666 394.955 438.234 394.955C436.743 394.955 435.5 395.332 434.506 396.088C433.521 396.844 432.78 397.858 432.283 399.131C431.796 400.403 431.552 401.815 431.552 403.366C431.552 404.957 431.801 406.364 432.298 407.587C432.805 408.8 433.551 409.755 434.535 410.451C435.53 411.137 436.763 411.48 438.234 411.48ZM454.7 415V392.091H458.101V395.551H458.339C458.757 394.418 459.513 393.498 460.606 392.792C461.7 392.086 462.933 391.733 464.305 391.733C464.564 391.733 464.887 391.738 465.275 391.748C465.662 391.758 465.956 391.773 466.155 391.793V395.372C466.035 395.342 465.762 395.298 465.334 395.238C464.917 395.168 464.474 395.134 464.007 395.134C462.893 395.134 461.899 395.367 461.024 395.835C460.159 396.292 459.473 396.928 458.966 397.744C458.469 398.549 458.22 399.469 458.22 400.503V415H454.7ZM477.069 415.537C475.617 415.537 474.299 415.263 473.116 414.717C471.933 414.16 470.993 413.359 470.297 412.315C469.601 411.261 469.253 409.989 469.253 408.497C469.253 407.185 469.512 406.121 470.029 405.305C470.546 404.48 471.237 403.834 472.102 403.366C472.967 402.899 473.922 402.551 474.966 402.322C476.02 402.084 477.078 401.895 478.142 401.756C479.534 401.577 480.663 401.442 481.528 401.353C482.403 401.254 483.039 401.089 483.437 400.861C483.845 400.632 484.049 400.234 484.049 399.668V399.548C484.049 398.077 483.646 396.933 482.841 396.118C482.045 395.303 480.837 394.895 479.216 394.895C477.536 394.895 476.218 395.263 475.264 395.999C474.309 396.734 473.638 397.52 473.25 398.355L469.909 397.162C470.506 395.77 471.301 394.686 472.296 393.911C473.3 393.125 474.394 392.578 475.577 392.27C476.77 391.952 477.944 391.793 479.097 391.793C479.833 391.793 480.678 391.882 481.632 392.061C482.597 392.23 483.527 392.583 484.422 393.12C485.326 393.657 486.077 394.467 486.674 395.551C487.27 396.635 487.569 398.087 487.569 399.906V415H484.049V411.898H483.87C483.631 412.395 483.233 412.927 482.676 413.494C482.12 414.06 481.379 414.543 480.454 414.94C479.529 415.338 478.401 415.537 477.069 415.537ZM477.605 412.375C478.998 412.375 480.171 412.102 481.125 411.555C482.09 411.008 482.816 410.302 483.303 409.437C483.8 408.572 484.049 407.662 484.049 406.707V403.486C483.9 403.665 483.571 403.829 483.064 403.978C482.567 404.117 481.99 404.241 481.334 404.351C480.688 404.45 480.056 404.54 479.44 404.619C478.833 404.689 478.341 404.749 477.963 404.798C477.049 404.918 476.194 405.112 475.398 405.38C474.613 405.638 473.976 406.031 473.489 406.558C473.012 407.075 472.773 407.781 472.773 408.676C472.773 409.899 473.225 410.824 474.13 411.45C475.045 412.067 476.203 412.375 477.605 412.375ZM494.47 415V384.455H497.99V395.73H498.289C498.547 395.332 498.905 394.825 499.362 394.209C499.83 393.582 500.496 393.026 501.361 392.538C502.236 392.041 503.419 391.793 504.911 391.793C506.84 391.793 508.54 392.275 510.012 393.239C511.483 394.204 512.632 395.571 513.457 397.341C514.282 399.111 514.695 401.199 514.695 403.605C514.695 406.031 514.282 408.134 513.457 409.914C512.632 411.684 511.488 413.056 510.026 414.031C508.565 414.995 506.879 415.477 504.97 415.477C503.499 415.477 502.32 415.234 501.436 414.746C500.551 414.249 499.869 413.687 499.392 413.061C498.915 412.425 498.547 411.898 498.289 411.48H497.871V415H494.47ZM497.931 403.545C497.931 405.276 498.184 406.802 498.691 408.124C499.198 409.437 499.939 410.466 500.914 411.212C501.888 411.947 503.081 412.315 504.493 412.315C505.965 412.315 507.193 411.928 508.177 411.152C509.171 410.366 509.917 409.312 510.414 407.99C510.921 406.658 511.175 405.176 511.175 403.545C511.175 401.935 510.926 400.483 510.429 399.19C509.942 397.888 509.201 396.859 508.207 396.103C507.222 395.337 505.985 394.955 504.493 394.955C503.061 394.955 501.858 395.317 500.884 396.043C499.909 396.759 499.173 397.763 498.676 399.056C498.179 400.339 497.931 401.835 497.931 403.545ZM520.556 415V384.455H524.076V395.73H524.374C524.633 395.332 524.991 394.825 525.448 394.209C525.916 393.582 526.582 393.026 527.447 392.538C528.322 392.041 529.505 391.793 530.997 391.793C532.926 391.793 534.626 392.275 536.097 393.239C537.569 394.204 538.718 395.571 539.543 397.341C540.368 399.111 540.781 401.199 540.781 403.605C540.781 406.031 540.368 408.134 539.543 409.914C538.718 411.684 537.574 413.056 536.112 414.031C534.651 414.995 532.965 415.477 531.056 415.477C529.585 415.477 528.406 415.234 527.521 414.746C526.637 414.249 525.955 413.687 525.478 413.061C525.001 412.425 524.633 411.898 524.374 411.48H523.957V415H520.556ZM524.017 403.545C524.017 405.276 524.27 406.802 524.777 408.124C525.284 409.437 526.025 410.466 526.999 411.212C527.974 411.947 529.167 412.315 530.579 412.315C532.051 412.315 533.279 411.928 534.263 411.152C535.257 410.366 536.003 409.312 536.5 407.99C537.007 406.658 537.261 405.176 537.261 403.545C537.261 401.935 537.012 400.483 536.515 399.19C536.028 397.888 535.287 396.859 534.293 396.103C533.308 395.337 532.07 394.955 530.579 394.955C529.147 394.955 527.944 395.317 526.97 396.043C525.995 396.759 525.259 397.763 524.762 399.056C524.265 400.339 524.017 401.835 524.017 403.545ZM546.165 415V392.091H549.685V415H546.165ZM547.955 388.273C547.269 388.273 546.677 388.039 546.18 387.572C545.693 387.104 545.449 386.543 545.449 385.886C545.449 385.23 545.693 384.668 546.18 384.201C546.677 383.734 547.269 383.5 547.955 383.5C548.641 383.5 549.227 383.734 549.715 384.201C550.212 384.668 550.46 385.23 550.46 385.886C550.46 386.543 550.212 387.104 549.715 387.572C549.227 388.039 548.641 388.273 547.955 388.273ZM559.652 401.219V415H556.132V392.091H559.532V395.67H559.831C560.368 394.507 561.183 393.572 562.277 392.866C563.37 392.151 564.782 391.793 566.512 391.793C568.064 391.793 569.421 392.111 570.584 392.747C571.748 393.374 572.652 394.328 573.299 395.611C573.945 396.884 574.268 398.494 574.268 400.443V415H570.748V400.682C570.748 398.882 570.281 397.48 569.346 396.476C568.412 395.462 567.129 394.955 565.498 394.955C564.375 394.955 563.37 395.198 562.485 395.685C561.61 396.173 560.919 396.884 560.412 397.818C559.905 398.753 559.652 399.886 559.652 401.219ZM589.947 424.068C588.247 424.068 586.785 423.849 585.562 423.412C584.339 422.984 583.32 422.418 582.505 421.712C581.699 421.016 581.058 420.27 580.581 419.474L583.385 417.506C583.703 417.923 584.106 418.401 584.593 418.938C585.08 419.484 585.746 419.957 586.591 420.354C587.447 420.762 588.565 420.966 589.947 420.966C591.797 420.966 593.323 420.518 594.526 419.624C595.729 418.729 596.331 417.327 596.331 415.418V410.764H596.032C595.774 411.182 595.406 411.699 594.929 412.315C594.461 412.922 593.785 413.464 592.9 413.941C592.025 414.408 590.842 414.642 589.351 414.642C587.501 414.642 585.841 414.205 584.369 413.33C582.907 412.455 581.749 411.182 580.894 409.511C580.049 407.841 579.626 405.812 579.626 403.426C579.626 401.08 580.039 399.036 580.864 397.296C581.689 395.546 582.838 394.194 584.309 393.239C585.781 392.275 587.481 391.793 589.41 391.793C590.902 391.793 592.085 392.041 592.96 392.538C593.845 393.026 594.521 393.582 594.988 394.209C595.466 394.825 595.834 395.332 596.092 395.73H596.45V392.091H599.851V415.656C599.851 417.625 599.403 419.226 598.508 420.459C597.623 421.702 596.43 422.612 594.929 423.188C593.437 423.775 591.777 424.068 589.947 424.068ZM589.828 411.48C591.24 411.48 592.433 411.157 593.407 410.511C594.382 409.864 595.123 408.935 595.63 407.722C596.137 406.509 596.39 405.057 596.39 403.366C596.39 401.716 596.142 400.259 595.645 398.996C595.148 397.734 594.412 396.744 593.437 396.028C592.463 395.312 591.26 394.955 589.828 394.955C588.336 394.955 587.094 395.332 586.099 396.088C585.115 396.844 584.374 397.858 583.877 399.131C583.39 400.403 583.146 401.815 583.146 403.366C583.146 404.957 583.395 406.364 583.892 407.587C584.399 408.8 585.145 409.755 586.129 410.451C587.123 411.137 588.356 411.48 589.828 411.48ZM621.626 401.219V415H618.106V384.455H621.626V395.67H621.925C622.461 394.487 623.267 393.548 624.341 392.852C625.425 392.146 626.866 391.793 628.666 391.793C630.227 391.793 631.594 392.106 632.768 392.732C633.941 393.349 634.851 394.298 635.497 395.581C636.153 396.854 636.481 398.474 636.481 400.443V415H632.961V400.682C632.961 398.862 632.489 397.455 631.545 396.461C630.61 395.457 629.312 394.955 627.652 394.955C626.498 394.955 625.464 395.198 624.55 395.685C623.645 396.173 622.929 396.884 622.402 397.818C621.885 398.753 621.626 399.886 621.626 401.219ZM652.526 415.477C650.319 415.477 648.414 414.99 646.814 414.016C645.223 413.031 643.995 411.659 643.13 409.899C642.275 408.129 641.847 406.071 641.847 403.724C641.847 401.378 642.275 399.31 643.13 397.52C643.995 395.72 645.198 394.318 646.739 393.314C648.29 392.3 650.1 391.793 652.168 391.793C653.361 391.793 654.539 391.991 655.703 392.389C656.866 392.787 657.925 393.433 658.88 394.328C659.834 395.213 660.595 396.386 661.162 397.848C661.728 399.31 662.012 401.109 662.012 403.247V404.739H644.353V401.696H658.432C658.432 400.403 658.174 399.25 657.657 398.236C657.15 397.222 656.424 396.421 655.479 395.835C654.544 395.248 653.441 394.955 652.168 394.955C650.766 394.955 649.553 395.303 648.529 395.999C647.515 396.685 646.734 397.58 646.187 398.683C645.64 399.787 645.367 400.97 645.367 402.233V404.261C645.367 405.991 645.665 407.458 646.262 408.661C646.868 409.854 647.708 410.764 648.782 411.391C649.856 412.007 651.104 412.315 652.526 412.315C653.451 412.315 654.286 412.186 655.032 411.928C655.787 411.659 656.439 411.261 656.985 410.734C657.532 410.197 657.955 409.531 658.253 408.736L661.654 409.69C661.296 410.844 660.694 411.858 659.849 412.733C659.004 413.598 657.96 414.274 656.717 414.761C655.474 415.239 654.077 415.477 652.526 415.477ZM667.366 415V392.091H670.767V395.551H671.005C671.423 394.418 672.179 393.498 673.272 392.792C674.366 392.086 675.599 391.733 676.971 391.733C677.23 391.733 677.553 391.738 677.941 391.748C678.328 391.758 678.622 391.773 678.821 391.793V395.372C678.701 395.342 678.428 395.298 678 395.238C677.583 395.168 677.14 395.134 676.673 395.134C675.559 395.134 674.565 395.367 673.69 395.835C672.825 396.292 672.139 396.928 671.632 397.744C671.135 398.549 670.886 399.469 670.886 400.503V415H667.366ZM691.603 415.477C689.534 415.477 687.72 414.985 686.159 414.001C684.608 413.016 683.395 411.639 682.52 409.869C681.654 408.099 681.222 406.031 681.222 403.665C681.222 401.278 681.654 399.195 682.52 397.415C683.395 395.636 684.608 394.254 686.159 393.269C687.72 392.285 689.534 391.793 691.603 391.793C693.671 391.793 695.48 392.285 697.032 393.269C698.593 394.254 699.806 395.636 700.671 397.415C701.546 399.195 701.983 401.278 701.983 403.665C701.983 406.031 701.546 408.099 700.671 409.869C699.806 411.639 698.593 413.016 697.032 414.001C695.48 414.985 693.671 415.477 691.603 415.477ZM691.603 412.315C693.174 412.315 694.466 411.913 695.48 411.107C696.495 410.302 697.245 409.243 697.733 407.93C698.22 406.618 698.463 405.196 698.463 403.665C698.463 402.134 698.22 400.707 697.733 399.384C697.245 398.062 696.495 396.993 695.48 396.178C694.466 395.362 693.174 394.955 691.603 394.955C690.032 394.955 688.739 395.362 687.725 396.178C686.711 396.993 685.96 398.062 685.473 399.384C684.985 400.707 684.742 402.134 684.742 403.665C684.742 405.196 684.985 406.618 685.473 407.93C685.96 409.243 686.711 410.302 687.725 411.107C688.739 411.913 690.032 412.315 691.603 412.315ZM719.169 415V392.091H722.689V415H719.169ZM720.959 388.273C720.273 388.273 719.681 388.039 719.184 387.572C718.697 387.104 718.453 386.543 718.453 385.886C718.453 385.23 718.697 384.668 719.184 384.201C719.681 383.734 720.273 383.5 720.959 383.5C721.645 383.5 722.231 383.734 722.719 384.201C723.216 384.668 723.464 385.23 723.464 385.886C723.464 386.543 723.216 387.104 722.719 387.572C722.231 388.039 721.645 388.273 720.959 388.273ZM729.136 415V392.091H732.536V395.67H732.835C733.312 394.447 734.082 393.498 735.146 392.822C736.21 392.136 737.488 391.793 738.979 391.793C740.491 391.793 741.749 392.136 742.753 392.822C743.767 393.498 744.558 394.447 745.124 395.67H745.363C745.95 394.487 746.83 393.548 748.003 392.852C749.176 392.146 750.583 391.793 752.224 391.793C754.272 391.793 755.947 392.434 757.25 393.717C758.553 394.989 759.204 396.973 759.204 399.668V415H755.684V399.668C755.684 397.977 755.222 396.769 754.297 396.043C753.372 395.317 752.283 394.955 751.031 394.955C749.42 394.955 748.172 395.442 747.287 396.416C746.402 397.381 745.96 398.604 745.96 400.085V415H742.38V399.31C742.38 398.007 741.957 396.958 741.112 396.163C740.267 395.357 739.178 394.955 737.846 394.955C736.931 394.955 736.076 395.198 735.281 395.685C734.495 396.173 733.859 396.849 733.371 397.714C732.894 398.569 732.656 399.558 732.656 400.682V415H729.136ZM772.381 415.537C770.929 415.537 769.612 415.263 768.429 414.717C767.245 414.16 766.306 413.359 765.61 412.315C764.914 411.261 764.566 409.989 764.566 408.497C764.566 407.185 764.824 406.121 765.341 405.305C765.858 404.48 766.549 403.834 767.414 403.366C768.279 402.899 769.234 402.551 770.278 402.322C771.332 402.084 772.391 401.895 773.455 401.756C774.847 401.577 775.975 401.442 776.841 401.353C777.716 401.254 778.352 401.089 778.75 400.861C779.157 400.632 779.361 400.234 779.361 399.668V399.548C779.361 398.077 778.958 396.933 778.153 396.118C777.358 395.303 776.15 394.895 774.529 394.895C772.848 394.895 771.531 395.263 770.576 395.999C769.622 396.734 768.951 397.52 768.563 398.355L765.222 397.162C765.819 395.77 766.614 394.686 767.608 393.911C768.613 393.125 769.706 392.578 770.89 392.27C772.083 391.952 773.256 391.793 774.409 391.793C775.145 391.793 775.99 391.882 776.945 392.061C777.909 392.23 778.839 392.583 779.734 393.12C780.639 393.657 781.39 394.467 781.986 395.551C782.583 396.635 782.881 398.087 782.881 399.906V415H779.361V411.898H779.182C778.944 412.395 778.546 412.927 777.989 413.494C777.432 414.06 776.691 414.543 775.767 414.94C774.842 415.338 773.713 415.537 772.381 415.537ZM772.918 412.375C774.31 412.375 775.483 412.102 776.438 411.555C777.402 411.008 778.128 410.302 778.615 409.437C779.113 408.572 779.361 407.662 779.361 406.707V403.486C779.212 403.665 778.884 403.829 778.377 403.978C777.88 404.117 777.303 404.241 776.647 404.351C776 404.45 775.369 404.54 774.752 404.619C774.146 404.689 773.654 404.749 773.276 404.798C772.361 404.918 771.506 405.112 770.711 405.38C769.925 405.638 769.289 406.031 768.801 406.558C768.324 407.075 768.086 407.781 768.086 408.676C768.086 409.899 768.538 410.824 769.443 411.45C770.358 412.067 771.516 412.375 772.918 412.375ZM798.553 424.068C796.852 424.068 795.391 423.849 794.168 423.412C792.945 422.984 791.926 422.418 791.11 421.712C790.305 421.016 789.664 420.27 789.186 419.474L791.99 417.506C792.308 417.923 792.711 418.401 793.198 418.938C793.686 419.484 794.352 419.957 795.197 420.354C796.052 420.762 797.171 420.966 798.553 420.966C800.402 420.966 801.928 420.518 803.132 419.624C804.335 418.729 804.936 417.327 804.936 415.418V410.764H804.638C804.379 411.182 804.012 411.699 803.534 412.315C803.067 412.922 802.391 413.464 801.506 413.941C800.631 414.408 799.448 414.642 797.956 414.642C796.107 414.642 794.446 414.205 792.975 413.33C791.513 412.455 790.355 411.182 789.499 409.511C788.654 407.841 788.232 405.812 788.232 403.426C788.232 401.08 788.644 399.036 789.47 397.296C790.295 395.546 791.443 394.194 792.915 393.239C794.387 392.275 796.087 391.793 798.016 391.793C799.507 391.793 800.691 392.041 801.566 392.538C802.45 393.026 803.127 393.582 803.594 394.209C804.071 394.825 804.439 395.332 804.698 395.73H805.056V392.091H808.456V415.656C808.456 417.625 808.009 419.226 807.114 420.459C806.229 421.702 805.036 422.612 803.534 423.188C802.043 423.775 800.382 424.068 798.553 424.068ZM798.433 411.48C799.845 411.48 801.039 411.157 802.013 410.511C802.987 409.864 803.728 408.935 804.235 407.722C804.742 406.509 804.996 405.057 804.996 403.366C804.996 401.716 804.747 400.259 804.25 398.996C803.753 397.734 803.017 396.744 802.043 396.028C801.068 395.312 799.865 394.955 798.433 394.955C796.942 394.955 795.699 395.332 794.705 396.088C793.72 396.844 792.98 397.858 792.482 399.131C791.995 400.403 791.752 401.815 791.752 403.366C791.752 404.957 792 406.364 792.497 407.587C793.004 408.8 793.75 409.755 794.735 410.451C795.729 411.137 796.962 411.48 798.433 411.48ZM824.504 415.477C822.297 415.477 820.393 414.99 818.792 414.016C817.201 413.031 815.973 411.659 815.108 409.899C814.253 408.129 813.825 406.071 813.825 403.724C813.825 401.378 814.253 399.31 815.108 397.52C815.973 395.72 817.176 394.318 818.718 393.314C820.269 392.3 822.078 391.793 824.146 391.793C825.34 391.793 826.518 391.991 827.681 392.389C828.845 392.787 829.904 393.433 830.858 394.328C831.813 395.213 832.573 396.386 833.14 397.848C833.707 399.31 833.99 401.109 833.99 403.247V404.739H816.331V401.696H830.411C830.411 400.403 830.152 399.25 829.635 398.236C829.128 397.222 828.402 396.421 827.458 395.835C826.523 395.248 825.419 394.955 824.146 394.955C822.744 394.955 821.531 395.303 820.507 395.999C819.493 396.685 818.713 397.58 818.166 398.683C817.619 399.787 817.345 400.97 817.345 402.233V404.261C817.345 405.991 817.644 407.458 818.24 408.661C818.847 409.854 819.687 410.764 820.761 411.391C821.835 412.007 823.083 412.315 824.504 412.315C825.429 412.315 826.264 412.186 827.01 411.928C827.766 411.659 828.417 411.261 828.964 410.734C829.511 410.197 829.933 409.531 830.232 408.736L833.632 409.69C833.274 410.844 832.673 411.858 831.828 412.733C830.982 413.598 829.938 414.274 828.695 414.761C827.453 415.239 826.056 415.477 824.504 415.477Z" fill="#4A4A4A"/>
</g>
<defs>
<clipPath id="clip0_3195_172">
<rect width="1000" height="800" fill="white"/>
</clipPath>
</defs>
</svg>
