<svg width="1000" height="800" viewBox="0 0 1000 800" fill="none" xmlns="http://www.w3.org/2000/svg">
<g clip-path="url(#clip0_3195_179)">
<rect width="1000" height="800" fill="#E8E8E8"/>
<rect x="0.5" y="0.5" width="999" height="799" stroke="#4A4A4A"/>
<line x1="-0.16058" y1="0.200169" x2="999.785" y2="799.018" stroke="#4A4A4A"/>
<line y1="-0.5" x2="1279.84" y2="-0.5" transform="matrix(-0.781303 0.624152 0.624152 0.781303 999.473 0.59082)" stroke="#4A4A4A"/>
<path d="M141 360H858V448H141V360Z" fill="#E8E8E8"/>
<path d="M104.952 415H101.074L112.29 384.455H116.108L127.324 415H123.446L114.318 389.287H114.08L104.952 415ZM106.384 403.068H122.014V406.349H106.384V403.068ZM135.124 401.219V415H131.604V392.091H135.005V395.67H135.303C135.84 394.507 136.656 393.572 137.749 392.866C138.843 392.151 140.255 391.793 141.985 391.793C143.536 391.793 144.893 392.111 146.057 392.747C147.22 393.374 148.125 394.328 148.771 395.611C149.418 396.884 149.741 398.494 149.741 400.443V415H146.221V400.682C146.221 398.882 145.754 397.48 144.819 396.476C143.884 395.462 142.602 394.955 140.971 394.955C139.847 394.955 138.843 395.198 137.958 395.685C137.083 396.173 136.392 396.884 135.885 397.818C135.378 398.753 135.124 399.886 135.124 401.219ZM167.985 415V392.091H171.505V415H167.985ZM169.775 388.273C169.089 388.273 168.497 388.039 168 387.572C167.513 387.104 167.269 386.543 167.269 385.886C167.269 385.23 167.513 384.668 168 384.201C168.497 383.734 169.089 383.5 169.775 383.5C170.461 383.5 171.048 383.734 171.535 384.201C172.032 384.668 172.281 385.23 172.281 385.886C172.281 386.543 172.032 387.104 171.535 387.572C171.048 388.039 170.461 388.273 169.775 388.273ZM181.472 384.455V415H177.952V384.455H181.472ZM191.439 384.455V415H187.919V384.455H191.439ZM212.323 405.634V392.091H215.843V415H212.323V411.122H212.085C211.548 412.286 210.712 413.275 209.579 414.09C208.445 414.896 207.013 415.298 205.283 415.298C203.852 415.298 202.579 414.985 201.465 414.359C200.352 413.722 199.477 412.768 198.84 411.495C198.204 410.212 197.886 408.597 197.886 406.648V392.091H201.406V406.409C201.406 408.08 201.873 409.412 202.808 410.406C203.752 411.401 204.955 411.898 206.417 411.898C207.292 411.898 208.182 411.674 209.087 411.227C210.001 410.779 210.767 410.093 211.384 409.168C212.01 408.244 212.323 407.065 212.323 405.634ZM238.517 397.222L235.355 398.116C235.156 397.589 234.863 397.077 234.475 396.58C234.097 396.073 233.58 395.656 232.924 395.327C232.268 394.999 231.428 394.835 230.404 394.835C229.002 394.835 227.833 395.158 226.899 395.805C225.974 396.441 225.512 397.251 225.512 398.236C225.512 399.111 225.83 399.802 226.466 400.309C227.102 400.816 228.097 401.239 229.449 401.577L232.85 402.412C234.898 402.909 236.424 403.67 237.428 404.694C238.433 405.708 238.935 407.016 238.935 408.616C238.935 409.929 238.557 411.102 237.801 412.136C237.056 413.17 236.012 413.986 234.669 414.582C233.327 415.179 231.766 415.477 229.986 415.477C227.649 415.477 225.715 414.97 224.184 413.956C222.653 412.942 221.683 411.46 221.276 409.511L224.617 408.676C224.935 409.909 225.536 410.834 226.421 411.45C227.316 412.067 228.485 412.375 229.926 412.375C231.567 412.375 232.869 412.027 233.834 411.331C234.808 410.625 235.296 409.78 235.296 408.795C235.296 408 235.017 407.334 234.46 406.797C233.904 406.25 233.048 405.842 231.895 405.574L228.077 404.679C225.979 404.182 224.438 403.411 223.453 402.367C222.479 401.313 221.992 399.996 221.992 398.415C221.992 397.122 222.355 395.979 223.08 394.984C223.816 393.99 224.816 393.21 226.078 392.643C227.351 392.076 228.793 391.793 230.404 391.793C232.671 391.793 234.45 392.29 235.743 393.284C237.046 394.278 237.97 395.591 238.517 397.222ZM254.196 392.091V395.074H242.324V392.091H254.196ZM245.784 386.602H249.304V408.438C249.304 409.432 249.449 410.178 249.737 410.675C250.035 411.162 250.413 411.49 250.87 411.659C251.338 411.818 251.83 411.898 252.347 411.898C252.735 411.898 253.053 411.878 253.301 411.838C253.55 411.788 253.749 411.749 253.898 411.719L254.614 414.881C254.375 414.97 254.042 415.06 253.615 415.149C253.187 415.249 252.645 415.298 251.989 415.298C250.995 415.298 250.02 415.085 249.066 414.657C248.121 414.229 247.336 413.578 246.709 412.703C246.093 411.828 245.784 410.724 245.784 409.392V386.602ZM259.491 415V392.091H262.892V395.551H263.13C263.548 394.418 264.304 393.498 265.397 392.792C266.491 392.086 267.724 391.733 269.096 391.733C269.355 391.733 269.678 391.738 270.066 391.748C270.453 391.758 270.747 391.773 270.946 391.793V395.372C270.826 395.342 270.553 395.298 270.125 395.238C269.708 395.168 269.265 395.134 268.798 395.134C267.684 395.134 266.69 395.367 265.815 395.835C264.95 396.292 264.264 396.928 263.757 397.744C263.26 398.549 263.011 399.469 263.011 400.503V415H259.491ZM281.86 415.537C280.408 415.537 279.09 415.263 277.907 414.717C276.724 414.16 275.784 413.359 275.088 412.315C274.392 411.261 274.044 409.989 274.044 408.497C274.044 407.185 274.303 406.121 274.82 405.305C275.337 404.48 276.028 403.834 276.893 403.366C277.758 402.899 278.713 402.551 279.757 402.322C280.811 402.084 281.869 401.895 282.933 401.756C284.325 401.577 285.454 401.442 286.319 401.353C287.194 401.254 287.83 401.089 288.228 400.861C288.636 400.632 288.84 400.234 288.84 399.668V399.548C288.84 398.077 288.437 396.933 287.632 396.118C286.836 395.303 285.628 394.895 284.007 394.895C282.327 394.895 281.009 395.263 280.055 395.999C279.1 396.734 278.429 397.52 278.041 398.355L274.7 397.162C275.297 395.77 276.093 394.686 277.087 393.911C278.091 393.125 279.185 392.578 280.368 392.27C281.561 391.952 282.735 391.793 283.888 391.793C284.624 391.793 285.469 391.882 286.423 392.061C287.388 392.23 288.318 392.583 289.213 393.12C290.117 393.657 290.868 394.467 291.465 395.551C292.061 396.635 292.36 398.087 292.36 399.906V415H288.84V411.898H288.661C288.422 412.395 288.024 412.927 287.468 413.494C286.911 414.06 286.17 414.543 285.245 414.94C284.32 415.338 283.192 415.537 281.86 415.537ZM282.396 412.375C283.789 412.375 284.962 412.102 285.916 411.555C286.881 411.008 287.607 410.302 288.094 409.437C288.591 408.572 288.84 407.662 288.84 406.707V403.486C288.691 403.665 288.362 403.829 287.855 403.978C287.358 404.117 286.781 404.241 286.125 404.351C285.479 404.45 284.847 404.54 284.231 404.619C283.624 404.689 283.132 404.749 282.754 404.798C281.84 404.918 280.985 405.112 280.189 405.38C279.404 405.638 278.767 406.031 278.28 406.558C277.803 407.075 277.564 407.781 277.564 408.676C277.564 409.899 278.017 410.824 278.921 411.45C279.836 412.067 280.994 412.375 282.396 412.375ZM308.747 392.091V395.074H296.875V392.091H308.747ZM300.335 386.602H303.855V408.438C303.855 409.432 303.999 410.178 304.288 410.675C304.586 411.162 304.964 411.49 305.421 411.659C305.888 411.818 306.381 411.898 306.898 411.898C307.286 411.898 307.604 411.878 307.852 411.838C308.101 411.788 308.3 411.749 308.449 411.719L309.165 414.881C308.926 414.97 308.593 415.06 308.165 415.149C307.738 415.249 307.196 415.298 306.54 415.298C305.545 415.298 304.571 415.085 303.616 414.657C302.672 414.229 301.886 413.578 301.26 412.703C300.643 411.828 300.335 410.724 300.335 409.392V386.602ZM314.042 415V392.091H317.562V415H314.042ZM315.832 388.273C315.146 388.273 314.554 388.039 314.057 387.572C313.57 387.104 313.326 386.543 313.326 385.886C313.326 385.23 313.57 384.668 314.057 384.201C314.554 383.734 315.146 383.5 315.832 383.5C316.518 383.5 317.104 383.734 317.592 384.201C318.089 384.668 318.337 385.23 318.337 385.886C318.337 386.543 318.089 387.104 317.592 387.572C317.104 388.039 316.518 388.273 315.832 388.273ZM333.316 415.477C331.247 415.477 329.433 414.985 327.872 414.001C326.32 413.016 325.107 411.639 324.232 409.869C323.367 408.099 322.935 406.031 322.935 403.665C322.935 401.278 323.367 399.195 324.232 397.415C325.107 395.636 326.32 394.254 327.872 393.269C329.433 392.285 331.247 391.793 333.316 391.793C335.384 391.793 337.193 392.285 338.744 393.269C340.306 394.254 341.519 395.636 342.384 397.415C343.259 399.195 343.696 401.278 343.696 403.665C343.696 406.031 343.259 408.099 342.384 409.869C341.519 411.639 340.306 413.016 338.744 414.001C337.193 414.985 335.384 415.477 333.316 415.477ZM333.316 412.315C334.887 412.315 336.179 411.913 337.193 411.107C338.208 410.302 338.958 409.243 339.445 407.93C339.933 406.618 340.176 405.196 340.176 403.665C340.176 402.134 339.933 400.707 339.445 399.384C338.958 398.062 338.208 396.993 337.193 396.178C336.179 395.362 334.887 394.955 333.316 394.955C331.744 394.955 330.452 395.362 329.438 396.178C328.423 396.993 327.673 398.062 327.186 399.384C326.698 400.707 326.455 402.134 326.455 403.665C326.455 405.196 326.698 406.618 327.186 407.93C327.673 409.243 328.423 410.302 329.438 411.107C330.452 411.913 331.744 412.315 333.316 412.315ZM352.589 401.219V415H349.069V392.091H352.47V395.67H352.768C353.305 394.507 354.12 393.572 355.214 392.866C356.308 392.151 357.72 391.793 359.45 391.793C361.001 391.793 362.358 392.111 363.522 392.747C364.685 393.374 365.59 394.328 366.236 395.611C366.882 396.884 367.206 398.494 367.206 400.443V415H363.686V400.682C363.686 398.882 363.218 397.48 362.284 396.476C361.349 395.462 360.066 394.955 358.436 394.955C357.312 394.955 356.308 395.198 355.423 395.685C354.548 396.173 353.857 396.884 353.35 397.818C352.843 398.753 352.589 399.886 352.589 401.219ZM395.413 392.091V395.074H383.541V392.091H395.413ZM387.001 386.602H390.521V408.438C390.521 409.432 390.665 410.178 390.954 410.675C391.252 411.162 391.63 411.49 392.087 411.659C392.555 411.818 393.047 411.898 393.564 411.898C393.952 411.898 394.27 411.878 394.518 411.838C394.767 411.788 394.966 411.749 395.115 411.719L395.831 414.881C395.592 414.97 395.259 415.06 394.831 415.149C394.404 415.249 393.862 415.298 393.206 415.298C392.211 415.298 391.237 415.085 390.282 414.657C389.338 414.229 388.552 413.578 387.926 412.703C387.309 411.828 387.001 410.724 387.001 409.392V386.602ZM404.72 401.219V415H401.2V384.455H404.72V395.67H405.018C405.555 394.487 406.361 393.548 407.434 392.852C408.518 392.146 409.96 391.793 411.76 391.793C413.321 391.793 414.688 392.106 415.861 392.732C417.035 393.349 417.944 394.298 418.591 395.581C419.247 396.854 419.575 398.474 419.575 400.443V415H416.055V400.682C416.055 398.862 415.583 397.455 414.638 396.461C413.704 395.457 412.406 394.955 410.746 394.955C409.592 394.955 408.558 395.198 407.643 395.685C406.738 396.173 406.023 396.884 405.496 397.818C404.979 398.753 404.72 399.886 404.72 401.219ZM432.756 415.537C431.304 415.537 429.987 415.263 428.804 414.717C427.62 414.16 426.681 413.359 425.985 412.315C425.289 411.261 424.941 409.989 424.941 408.497C424.941 407.185 425.199 406.121 425.716 405.305C426.233 404.48 426.924 403.834 427.789 403.366C428.654 402.899 429.609 402.551 430.653 402.322C431.707 402.084 432.766 401.895 433.83 401.756C435.222 401.577 436.35 401.442 437.216 401.353C438.091 401.254 438.727 401.089 439.125 400.861C439.532 400.632 439.736 400.234 439.736 399.668V399.548C439.736 398.077 439.333 396.933 438.528 396.118C437.733 395.303 436.525 394.895 434.904 394.895C433.223 394.895 431.906 395.263 430.951 395.999C429.997 396.734 429.326 397.52 428.938 398.355L425.597 397.162C426.194 395.77 426.989 394.686 427.983 393.911C428.988 393.125 430.081 392.578 431.265 392.27C432.458 391.952 433.631 391.793 434.784 391.793C435.52 391.793 436.365 391.882 437.32 392.061C438.284 392.23 439.214 392.583 440.109 393.12C441.014 393.657 441.765 394.467 442.361 395.551C442.958 396.635 443.256 398.087 443.256 399.906V415H439.736V411.898H439.557C439.319 412.395 438.921 412.927 438.364 413.494C437.807 414.06 437.066 414.543 436.142 414.94C435.217 415.338 434.088 415.537 432.756 415.537ZM433.293 412.375C434.685 412.375 435.858 412.102 436.813 411.555C437.777 411.008 438.503 410.302 438.99 409.437C439.488 408.572 439.736 407.662 439.736 406.707V403.486C439.587 403.665 439.259 403.829 438.752 403.978C438.255 404.117 437.678 404.241 437.022 404.351C436.375 404.45 435.744 404.54 435.127 404.619C434.521 404.689 434.029 404.749 433.651 404.798C432.736 404.918 431.881 405.112 431.086 405.38C430.3 405.638 429.664 406.031 429.176 406.558C428.699 407.075 428.461 407.781 428.461 408.676C428.461 409.899 428.913 410.824 429.818 411.45C430.733 412.067 431.891 412.375 433.293 412.375ZM459.644 392.091V395.074H447.771V392.091H459.644ZM451.232 386.602H454.752V408.438C454.752 409.432 454.896 410.178 455.184 410.675C455.482 411.162 455.86 411.49 456.318 411.659C456.785 411.818 457.277 411.898 457.794 411.898C458.182 411.898 458.5 411.878 458.749 411.838C458.997 411.788 459.196 411.749 459.345 411.719L460.061 414.881C459.823 414.97 459.49 415.06 459.062 415.149C458.634 415.249 458.093 415.298 457.436 415.298C456.442 415.298 455.468 415.085 454.513 414.657C453.568 414.229 452.783 413.578 452.156 412.703C451.54 411.828 451.232 410.724 451.232 409.392V386.602ZM492.978 397.222L489.816 398.116C489.617 397.589 489.324 397.077 488.936 396.58C488.558 396.073 488.041 395.656 487.385 395.327C486.729 394.999 485.889 394.835 484.865 394.835C483.463 394.835 482.294 395.158 481.36 395.805C480.435 396.441 479.972 397.251 479.972 398.236C479.972 399.111 480.291 399.802 480.927 400.309C481.563 400.816 482.558 401.239 483.91 401.577L487.311 402.412C489.359 402.909 490.885 403.67 491.889 404.694C492.894 405.708 493.396 407.016 493.396 408.616C493.396 409.929 493.018 411.102 492.262 412.136C491.517 413.17 490.472 413.986 489.13 414.582C487.788 415.179 486.227 415.477 484.447 415.477C482.11 415.477 480.176 414.97 478.645 413.956C477.114 412.942 476.144 411.46 475.737 409.511L479.078 408.676C479.396 409.909 479.997 410.834 480.882 411.45C481.777 412.067 482.945 412.375 484.387 412.375C486.028 412.375 487.33 412.027 488.295 411.331C489.269 410.625 489.757 409.78 489.757 408.795C489.757 408 489.478 407.334 488.921 406.797C488.365 406.25 487.509 405.842 486.356 405.574L482.538 404.679C480.44 404.182 478.899 403.411 477.914 402.367C476.94 401.313 476.453 399.996 476.453 398.415C476.453 397.122 476.816 395.979 477.541 394.984C478.277 393.99 479.276 393.21 480.539 392.643C481.812 392.076 483.254 391.793 484.865 391.793C487.132 391.793 488.911 392.29 490.204 393.284C491.507 394.278 492.431 395.591 492.978 397.222ZM508.299 415.477C506.092 415.477 504.188 414.99 502.587 414.016C500.996 413.031 499.768 411.659 498.903 409.899C498.048 408.129 497.62 406.071 497.62 403.724C497.62 401.378 498.048 399.31 498.903 397.52C499.768 395.72 500.971 394.318 502.512 393.314C504.064 392.3 505.873 391.793 507.941 391.793C509.135 391.793 510.313 391.991 511.476 392.389C512.64 392.787 513.699 393.433 514.653 394.328C515.608 395.213 516.368 396.386 516.935 397.848C517.502 399.31 517.785 401.109 517.785 403.247V404.739H500.126V401.696H514.206C514.206 400.403 513.947 399.25 513.43 398.236C512.923 397.222 512.197 396.421 511.252 395.835C510.318 395.248 509.214 394.955 507.941 394.955C506.539 394.955 505.326 395.303 504.302 395.999C503.288 396.685 502.507 397.58 501.961 398.683C501.414 399.787 501.14 400.97 501.14 402.233V404.261C501.14 405.991 501.439 407.458 502.035 408.661C502.642 409.854 503.482 410.764 504.556 411.391C505.63 412.007 506.877 412.315 508.299 412.315C509.224 412.315 510.059 412.186 510.805 411.928C511.561 411.659 512.212 411.261 512.759 410.734C513.306 410.197 513.728 409.531 514.027 408.736L517.427 409.69C517.069 410.844 516.468 411.858 515.623 412.733C514.777 413.598 513.733 414.274 512.49 414.761C511.248 415.239 509.85 415.477 508.299 415.477ZM523.14 415V392.091H526.54V395.551H526.779C527.196 394.418 527.952 393.498 529.046 392.792C530.14 392.086 531.373 391.733 532.745 391.733C533.003 391.733 533.326 391.738 533.714 391.748C534.102 391.758 534.395 391.773 534.594 391.793V395.372C534.475 395.342 534.201 395.298 533.774 395.238C533.356 395.168 532.914 395.134 532.446 395.134C531.333 395.134 530.338 395.367 529.463 395.835C528.598 396.292 527.912 396.928 527.405 397.744C526.908 398.549 526.659 399.469 526.659 400.503V415H523.14ZM558.197 392.091L549.725 415H546.146L537.674 392.091H541.492L547.816 410.347H548.055L554.379 392.091H558.197ZM571.627 415.477C569.42 415.477 567.516 414.99 565.915 414.016C564.324 413.031 563.096 411.659 562.231 409.899C561.376 408.129 560.949 406.071 560.949 403.724C560.949 401.378 561.376 399.31 562.231 397.52C563.096 395.72 564.299 394.318 565.841 393.314C567.392 392.3 569.201 391.793 571.27 391.793C572.463 391.793 573.641 391.991 574.804 392.389C575.968 392.787 577.027 393.433 577.981 394.328C578.936 395.213 579.696 396.386 580.263 397.848C580.83 399.31 581.113 401.109 581.113 403.247V404.739H563.454V401.696H577.534C577.534 400.403 577.275 399.25 576.758 398.236C576.251 397.222 575.525 396.421 574.581 395.835C573.646 395.248 572.542 394.955 571.27 394.955C569.868 394.955 568.654 395.303 567.63 395.999C566.616 396.685 565.836 397.58 565.289 398.683C564.742 399.787 564.468 400.97 564.468 402.233V404.261C564.468 405.991 564.767 407.458 565.363 408.661C565.97 409.854 566.81 410.764 567.884 411.391C568.958 412.007 570.206 412.315 571.627 412.315C572.552 412.315 573.387 412.186 574.133 411.928C574.889 411.659 575.54 411.261 576.087 410.734C576.634 410.197 577.056 409.531 577.355 408.736L580.755 409.69C580.397 410.844 579.796 411.858 578.951 412.733C578.105 413.598 577.061 414.274 575.819 414.761C574.576 415.239 573.179 415.477 571.627 415.477ZM602.695 397.222L599.533 398.116C599.334 397.589 599.041 397.077 598.653 396.58C598.275 396.073 597.758 395.656 597.102 395.327C596.446 394.999 595.605 394.835 594.581 394.835C593.179 394.835 592.011 395.158 591.076 395.805C590.152 396.441 589.689 397.251 589.689 398.236C589.689 399.111 590.007 399.802 590.644 400.309C591.28 400.816 592.275 401.239 593.627 401.577L597.027 402.412C599.076 402.909 600.602 403.67 601.606 404.694C602.61 405.708 603.113 407.016 603.113 408.616C603.113 409.929 602.735 411.102 601.979 412.136C601.233 413.17 600.189 413.986 598.847 414.582C597.505 415.179 595.944 415.477 594.164 415.477C591.827 415.477 589.893 414.97 588.362 413.956C586.831 412.942 585.861 411.46 585.453 409.511L588.794 408.676C589.113 409.909 589.714 410.834 590.599 411.45C591.494 412.067 592.662 412.375 594.104 412.375C595.745 412.375 597.047 412.027 598.012 411.331C598.986 410.625 599.473 409.78 599.473 408.795C599.473 408 599.195 407.334 598.638 406.797C598.081 406.25 597.226 405.842 596.073 405.574L592.255 404.679C590.157 404.182 588.615 403.411 587.631 402.367C586.657 401.313 586.169 399.996 586.169 398.415C586.169 397.122 586.532 395.979 587.258 394.984C587.994 393.99 588.993 393.21 590.256 392.643C591.529 392.076 592.971 391.793 594.581 391.793C596.848 391.793 598.628 392.29 599.921 393.284C601.223 394.278 602.148 395.591 602.695 397.222ZM626.965 415.537C625.513 415.537 624.196 415.263 623.013 414.717C621.829 414.16 620.89 413.359 620.194 412.315C619.498 411.261 619.15 409.989 619.15 408.497C619.15 407.185 619.408 406.121 619.925 405.305C620.442 404.48 621.133 403.834 621.998 403.366C622.863 402.899 623.818 402.551 624.862 402.322C625.916 402.084 626.975 401.895 628.039 401.756C629.431 401.577 630.559 401.442 631.425 401.353C632.3 401.254 632.936 401.089 633.334 400.861C633.741 400.632 633.945 400.234 633.945 399.668V399.548C633.945 398.077 633.542 396.933 632.737 396.118C631.942 395.303 630.733 394.895 629.113 394.895C627.432 394.895 626.115 395.263 625.16 395.999C624.206 396.734 623.535 397.52 623.147 398.355L619.806 397.162C620.403 395.77 621.198 394.686 622.192 393.911C623.197 393.125 624.29 392.578 625.474 392.27C626.667 391.952 627.84 391.793 628.993 391.793C629.729 391.793 630.574 391.882 631.529 392.061C632.493 392.23 633.423 392.583 634.318 393.12C635.223 393.657 635.974 394.467 636.57 395.551C637.167 396.635 637.465 398.087 637.465 399.906V415H633.945V411.898H633.766C633.528 412.395 633.13 412.927 632.573 413.494C632.016 414.06 631.275 414.543 630.351 414.94C629.426 415.338 628.297 415.537 626.965 415.537ZM627.502 412.375C628.894 412.375 630.067 412.102 631.022 411.555C631.986 411.008 632.712 410.302 633.199 409.437C633.697 408.572 633.945 407.662 633.945 406.707V403.486C633.796 403.665 633.468 403.829 632.961 403.978C632.464 404.117 631.887 404.241 631.231 404.351C630.584 404.45 629.953 404.54 629.336 404.619C628.73 404.689 628.238 404.749 627.86 404.798C626.945 404.918 626.09 405.112 625.295 405.38C624.509 405.638 623.873 406.031 623.385 406.558C622.908 407.075 622.67 407.781 622.67 408.676C622.67 409.899 623.122 410.824 624.027 411.45C624.942 412.067 626.1 412.375 627.502 412.375ZM660.117 397.222L656.955 398.116C656.756 397.589 656.463 397.077 656.075 396.58C655.697 396.073 655.18 395.656 654.524 395.327C653.868 394.999 653.027 394.835 652.003 394.835C650.601 394.835 649.433 395.158 648.498 395.805C647.574 396.441 647.111 397.251 647.111 398.236C647.111 399.111 647.429 399.802 648.066 400.309C648.702 400.816 649.696 401.239 651.049 401.577L654.449 402.412C656.498 402.909 658.024 403.67 659.028 404.694C660.032 405.708 660.534 407.016 660.534 408.616C660.534 409.929 660.157 411.102 659.401 412.136C658.655 413.17 657.611 413.986 656.269 414.582C654.926 415.179 653.365 415.477 651.586 415.477C649.249 415.477 647.315 414.97 645.784 413.956C644.252 412.942 643.283 411.46 642.875 409.511L646.216 408.676C646.534 409.909 647.136 410.834 648.021 411.45C648.916 412.067 650.084 412.375 651.526 412.375C653.167 412.375 654.469 412.027 655.434 411.331C656.408 410.625 656.895 409.78 656.895 408.795C656.895 408 656.617 407.334 656.06 406.797C655.503 406.25 654.648 405.842 653.495 405.574L649.676 404.679C647.578 404.182 646.037 403.411 645.053 402.367C644.078 401.313 643.591 399.996 643.591 398.415C643.591 397.122 643.954 395.979 644.68 394.984C645.416 393.99 646.415 393.21 647.678 392.643C648.951 392.076 650.392 391.793 652.003 391.793C654.27 391.793 656.05 392.29 657.343 393.284C658.645 394.278 659.57 395.591 660.117 397.222ZM684.387 415.537C682.935 415.537 681.618 415.263 680.434 414.717C679.251 414.16 678.312 413.359 677.616 412.315C676.92 411.261 676.572 409.989 676.572 408.497C676.572 407.185 676.83 406.121 677.347 405.305C677.864 404.48 678.555 403.834 679.42 403.366C680.285 402.899 681.24 402.551 682.284 402.322C683.338 402.084 684.397 401.895 685.461 401.756C686.853 401.577 687.981 401.442 688.846 401.353C689.721 401.254 690.358 401.089 690.756 400.861C691.163 400.632 691.367 400.234 691.367 399.668V399.548C691.367 398.077 690.964 396.933 690.159 396.118C689.363 395.303 688.155 394.895 686.535 394.895C684.854 394.895 683.537 395.263 682.582 395.999C681.628 396.734 680.956 397.52 680.569 398.355L677.228 397.162C677.824 395.77 678.62 394.686 679.614 393.911C680.618 393.125 681.712 392.578 682.895 392.27C684.089 391.952 685.262 391.793 686.415 391.793C687.151 391.793 687.996 391.882 688.951 392.061C689.915 392.23 690.845 392.583 691.74 393.12C692.645 393.657 693.395 394.467 693.992 395.551C694.589 396.635 694.887 398.087 694.887 399.906V415H691.367V411.898H691.188C690.949 412.395 690.552 412.927 689.995 413.494C689.438 414.06 688.697 414.543 687.773 414.94C686.848 415.338 685.719 415.537 684.387 415.537ZM684.924 412.375C686.316 412.375 687.489 412.102 688.444 411.555C689.408 411.008 690.134 410.302 690.621 409.437C691.118 408.572 691.367 407.662 691.367 406.707V403.486C691.218 403.665 690.89 403.829 690.383 403.978C689.885 404.117 689.309 404.241 688.653 404.351C688.006 404.45 687.375 404.54 686.758 404.619C686.152 404.689 685.66 404.749 685.282 404.798C684.367 404.918 683.512 405.112 682.716 405.38C681.931 405.638 681.295 406.031 680.807 406.558C680.33 407.075 680.091 407.781 680.091 408.676C680.091 409.899 680.544 410.824 681.449 411.45C682.363 412.067 683.522 412.375 684.924 412.375ZM713.124 415V392.091H716.525V395.67H716.823C717.3 394.447 718.071 393.498 719.135 392.822C720.199 392.136 721.476 391.793 722.968 391.793C724.479 391.793 725.737 392.136 726.741 392.822C727.755 393.498 728.546 394.447 729.113 395.67H729.351C729.938 394.487 730.818 393.548 731.991 392.852C733.164 392.146 734.571 391.793 736.212 391.793C738.26 391.793 739.936 392.434 741.238 393.717C742.541 394.989 743.192 396.973 743.192 399.668V415H739.672V399.668C739.672 397.977 739.21 396.769 738.285 396.043C737.36 395.317 736.272 394.955 735.019 394.955C733.408 394.955 732.16 395.442 731.275 396.416C730.39 397.381 729.948 398.604 729.948 400.085V415H726.368V399.31C726.368 398.007 725.946 396.958 725.1 396.163C724.255 395.357 723.167 394.955 721.834 394.955C720.919 394.955 720.064 395.198 719.269 395.685C718.483 396.173 717.847 396.849 717.36 397.714C716.882 398.569 716.644 399.558 716.644 400.682V415H713.124ZM759.233 415.477C757.026 415.477 755.121 414.99 753.521 414.016C751.93 413.031 750.702 411.659 749.837 409.899C748.982 408.129 748.554 406.071 748.554 403.724C748.554 401.378 748.982 399.31 749.837 397.52C750.702 395.72 751.905 394.318 753.446 393.314C754.997 392.3 756.807 391.793 758.875 391.793C760.068 391.793 761.246 391.991 762.41 392.389C763.573 392.787 764.632 393.433 765.587 394.328C766.541 395.213 767.302 396.386 767.869 397.848C768.435 399.31 768.719 401.109 768.719 403.247V404.739H751.06V401.696H765.139C765.139 400.403 764.881 399.25 764.364 398.236C763.857 397.222 763.131 396.421 762.186 395.835C761.251 395.248 760.148 394.955 758.875 394.955C757.473 394.955 756.26 395.303 755.236 395.999C754.222 396.685 753.441 397.58 752.894 398.683C752.347 399.787 752.074 400.97 752.074 402.233V404.261C752.074 405.991 752.372 407.458 752.969 408.661C753.575 409.854 754.415 410.764 755.489 411.391C756.563 412.007 757.811 412.315 759.233 412.315C760.158 412.315 760.993 412.186 761.739 411.928C762.494 411.659 763.146 411.261 763.692 410.734C764.239 410.197 764.662 409.531 764.96 408.736L768.361 409.69C768.003 410.844 767.401 411.858 766.556 412.733C765.711 413.598 764.667 414.274 763.424 414.761C762.181 415.239 760.784 415.477 759.233 415.477ZM784.036 392.091V395.074H772.164V392.091H784.036ZM775.624 386.602H779.144V408.438C779.144 409.432 779.288 410.178 779.577 410.675C779.875 411.162 780.253 411.49 780.71 411.659C781.178 411.818 781.67 411.898 782.187 411.898C782.575 411.898 782.893 411.878 783.141 411.838C783.39 411.788 783.589 411.749 783.738 411.719L784.454 414.881C784.215 414.97 783.882 415.06 783.455 415.149C783.027 415.249 782.485 415.298 781.829 415.298C780.835 415.298 779.86 415.085 778.906 414.657C777.961 414.229 777.175 413.578 776.549 412.703C775.933 411.828 775.624 410.724 775.624 409.392V386.602ZM796.072 415.537C794.621 415.537 793.303 415.263 792.12 414.717C790.937 414.16 789.997 413.359 789.301 412.315C788.605 411.261 788.257 409.989 788.257 408.497C788.257 407.185 788.516 406.121 789.033 405.305C789.55 404.48 790.241 403.834 791.106 403.366C791.971 402.899 792.925 402.551 793.969 402.322C795.023 402.084 796.082 401.895 797.146 401.756C798.538 401.577 799.667 401.442 800.532 401.353C801.407 401.254 802.043 401.089 802.441 400.861C802.849 400.632 803.053 400.234 803.053 399.668V399.548C803.053 398.077 802.65 396.933 801.844 396.118C801.049 395.303 799.841 394.895 798.22 394.895C796.54 394.895 795.222 395.263 794.268 395.999C793.313 396.734 792.642 397.52 792.254 398.355L788.913 397.162C789.51 395.77 790.305 394.686 791.3 393.911C792.304 393.125 793.398 392.578 794.581 392.27C795.774 391.952 796.947 391.793 798.101 391.793C798.837 391.793 799.682 391.882 800.636 392.061C801.601 392.23 802.531 392.583 803.425 393.12C804.33 393.657 805.081 394.467 805.678 395.551C806.274 396.635 806.572 398.087 806.572 399.906V415H803.053V411.898H802.874C802.635 412.395 802.237 412.927 801.68 413.494C801.124 414.06 800.383 414.543 799.458 414.94C798.533 415.338 797.405 415.537 796.072 415.537ZM796.609 412.375C798.001 412.375 799.175 412.102 800.129 411.555C801.094 411.008 801.82 410.302 802.307 409.437C802.804 408.572 803.053 407.662 803.053 406.707V403.486C802.903 403.665 802.575 403.829 802.068 403.978C801.571 404.117 800.994 404.241 800.338 404.351C799.692 404.45 799.06 404.54 798.444 404.619C797.837 404.689 797.345 404.749 796.967 404.798C796.053 404.918 795.197 405.112 794.402 405.38C793.616 405.638 792.98 406.031 792.493 406.558C792.016 407.075 791.777 407.781 791.777 408.676C791.777 409.899 792.229 410.824 793.134 411.45C794.049 412.067 795.207 412.375 796.609 412.375ZM812.997 423.591V392.091H816.398V395.73H816.815C817.074 395.332 817.432 394.825 817.889 394.209C818.356 393.582 819.023 393.026 819.888 392.538C820.763 392.041 821.946 391.793 823.437 391.793C825.366 391.793 827.067 392.275 828.538 393.239C830.01 394.204 831.158 395.571 831.983 397.341C832.809 399.111 833.221 401.199 833.221 403.605C833.221 406.031 832.809 408.134 831.983 409.914C831.158 411.684 830.015 413.056 828.553 414.031C827.091 414.995 825.406 415.477 823.497 415.477C822.025 415.477 820.847 415.234 819.962 414.746C819.077 414.249 818.396 413.687 817.919 413.061C817.442 412.425 817.074 411.898 816.815 411.48H816.517V423.591H812.997ZM816.457 403.545C816.457 405.276 816.711 406.802 817.218 408.124C817.725 409.437 818.466 410.466 819.44 411.212C820.415 411.947 821.608 412.315 823.02 412.315C824.491 412.315 825.719 411.928 826.704 411.152C827.698 410.366 828.444 409.312 828.941 407.99C829.448 406.658 829.702 405.176 829.702 403.545C829.702 401.935 829.453 400.483 828.956 399.19C828.469 397.888 827.728 396.859 826.733 396.103C825.749 395.337 824.511 394.955 823.02 394.955C821.588 394.955 820.385 395.317 819.41 396.043C818.436 396.759 817.7 397.763 817.203 399.056C816.706 400.339 816.457 401.835 816.457 403.545ZM842.111 401.219V415H838.591V384.455H842.111V395.67H842.409C842.946 394.487 843.751 393.548 844.825 392.852C845.909 392.146 847.351 391.793 849.15 391.793C850.711 391.793 852.079 392.106 853.252 392.732C854.425 393.349 855.335 394.298 855.981 395.581C856.638 396.854 856.966 398.474 856.966 400.443V415H853.446V400.682C853.446 398.862 852.974 397.455 852.029 396.461C851.094 395.457 849.797 394.955 848.136 394.955C846.983 394.955 845.949 395.198 845.034 395.685C844.129 396.173 843.413 396.884 842.886 397.818C842.369 398.753 842.111 399.886 842.111 401.219ZM872.712 415.477C870.644 415.477 868.829 414.985 867.268 414.001C865.717 413.016 864.504 411.639 863.629 409.869C862.764 408.099 862.331 406.031 862.331 403.665C862.331 401.278 862.764 399.195 863.629 397.415C864.504 395.636 865.717 394.254 867.268 393.269C868.829 392.285 870.644 391.793 872.712 391.793C874.78 391.793 876.59 392.285 878.141 393.269C879.702 394.254 880.915 395.636 881.78 397.415C882.655 399.195 883.093 401.278 883.093 403.665C883.093 406.031 882.655 408.099 881.78 409.869C880.915 411.639 879.702 413.016 878.141 414.001C876.59 414.985 874.78 415.477 872.712 415.477ZM872.712 412.315C874.283 412.315 875.576 411.913 876.59 411.107C877.604 410.302 878.355 409.243 878.842 407.93C879.329 406.618 879.573 405.196 879.573 403.665C879.573 402.134 879.329 400.707 878.842 399.384C878.355 398.062 877.604 396.993 876.59 396.178C875.576 395.362 874.283 394.955 872.712 394.955C871.141 394.955 869.848 395.362 868.834 396.178C867.82 396.993 867.069 398.062 866.582 399.384C866.095 400.707 865.851 402.134 865.851 403.665C865.851 405.196 866.095 406.618 866.582 407.93C867.069 409.243 867.82 410.302 868.834 411.107C869.848 411.913 871.141 412.315 872.712 412.315ZM888.466 415V392.091H891.866V395.551H892.105C892.523 394.418 893.278 393.498 894.372 392.792C895.466 392.086 896.699 391.733 898.071 391.733C898.329 391.733 898.653 391.738 899.04 391.748C899.428 391.758 899.721 391.773 899.92 391.793V395.372C899.801 395.342 899.528 395.298 899.1 395.238C898.682 395.168 898.24 395.134 897.773 395.134C896.659 395.134 895.665 395.367 894.79 395.835C893.925 396.292 893.238 396.928 892.731 397.744C892.234 398.549 891.986 399.469 891.986 400.503V415H888.466Z" fill="#4A4A4A"/>
</g>
<defs>
<clipPath id="clip0_3195_179">
<rect width="1000" height="800" fill="white"/>
</clipPath>
</defs>
</svg>
