<svg width="800" height="486" viewBox="0 0 800 486" fill="none" xmlns="http://www.w3.org/2000/svg">
<rect x="300" y="44" width="200" height="90" rx="14" fill="#61D3D1"/>
<rect x="300" y="352" width="200" height="90" rx="14" fill="#61D3D1"/>
<rect x="44" y="352" width="200" height="90" rx="14" fill="#61D3D1"/>
<rect x="172" y="198" width="200" height="90" rx="14" fill="#61D3D1"/>
<rect x="428" y="198" width="200" height="90" rx="14" fill="#61D3D1"/>
<rect x="556" y="352" width="200" height="90" rx="14" fill="#61D3D1"/>
<path d="M272 198L280.66 183H263.34L272 198ZM400 134H398.5V146H400H401.5V134H400ZM380 166V164.5H292V166V167.5H380V166ZM292 166V164.5C280.126 164.5 270.5 174.126 270.5 186H272H273.5C273.5 175.783 281.783 167.5 292 167.5V166ZM400 146H398.5C398.5 156.217 390.217 164.5 380 164.5V166V167.5C391.874 167.5 401.5 157.874 401.5 146H400Z" fill="white"/>
<path d="M528 198L536.66 183H519.34L528 198ZM400 134H398.5V146H400H401.5V134H400ZM420 166V167.5H508V166V164.5H420V166ZM508 166V167.5C518.217 167.5 526.5 175.783 526.5 186H528H529.5C529.5 174.126 519.874 164.5 508 164.5V166ZM400 146H398.5C398.5 157.874 408.126 167.5 420 167.5V166V164.5C409.783 164.5 401.5 156.217 401.5 146H400Z" fill="white"/>
<path d="M144 352L152.66 337H135.34L144 352ZM272 288H270.5V300H272H273.5V288H272ZM252 320V318.5H164V320V321.5H252V320ZM164 320V318.5C152.126 318.5 142.5 328.126 142.5 340H144H145.5C145.5 329.783 153.783 321.5 164 321.5V320ZM272 300H270.5C270.5 310.217 262.217 318.5 252 318.5V320V321.5C263.874 321.5 273.5 311.874 273.5 300H272Z" fill="white"/>
<path d="M656 352L664.66 337H647.34L656 352ZM528 288H526.5V300H528H529.5V288H528ZM548 320V321.5H636V320V318.5H548V320ZM636 320V321.5C646.217 321.5 654.5 329.783 654.5 340H656H657.5C657.5 328.126 647.874 318.5 636 318.5V320ZM528 300H526.5C526.5 311.874 536.126 321.5 548 321.5V320V318.5C537.783 318.5 529.5 310.217 529.5 300H528Z" fill="white"/>
<path d="M400 352L408.66 337H391.34L400 352ZM528 288H526.5V300H528H529.5V288H528ZM508 320V318.5H420V320V321.5H508V320ZM420 320V318.5C408.126 318.5 398.5 328.126 398.5 340H400H401.5C401.5 329.783 409.783 321.5 420 321.5V320ZM528 300H526.5C526.5 310.217 518.217 318.5 508 318.5V320V321.5C519.874 321.5 529.5 311.874 529.5 300H528Z" fill="white"/>
</svg>
