<svg xmlns="http://www.w3.org/2000/svg" viewBox="0 0 240 240"><path fill-rule="evenodd" d="M82.98 141.956h13.634l-6.814-22.69zm66.1-14.284c-6.3 0-11.638 5.188-11.638 12.312s5.34 12.307 11.638 12.307 11.64-5.19 11.64-12.306-5.34-12.312-11.643-12.312zm76.68-63.04C214.414 38.185 191.1 23.7 165.332 13.29 144.243 4.768 117.023-.5 94.275.038 33.6 1.467 1.81 62.953 6.273 118.477a116.8 116.8 0 0 0 6.756 31.185c11.91 32.107 37.914 57.4 72.293 63.2a142.92 142.92 0 0 0 38.884.942 66.42 66.42 0 0 1 22.985 8.173c14.913 8.93 32.614 24.288 50.908 15.29-10.545-5.49-24.67-16-19.89-29.82 3.6-10.416 16.928-17.7 23.97-25.914l-.075.03a104.8 104.8 0 0 0 14.926-16.64 9.78 9.78 0 1 1 7.873-13.212c12.448-25.857 11.89-61.323.853-87.08zM104.174 164.56l-3.165-9.41h-22.6l-3.43 9.41H57.607l25.638-65.076h13.1l25.373 65.076zm44.9 1.364c-17.678 0-26.167-13.982-26.167-25.938s8.49-25.94 26.167-25.94 26.167 13.98 26.167 25.94-8.485 25.938-26.165 25.938zm49.108-1.364h-14.72V99.482h14.722z"/></svg>
