<svg xmlns="http://www.w3.org/2000/svg" viewBox="0 0 240 240"><path d="M237.4 82.115l-60.463 42.528a16.813 16.813 0 0 1-18.007 0l-9.72-6.84v61.8h76.578A14.253 14.253 0 0 0 240 165.394V79.47a9.58 9.58 0 0 1-2.6 2.646zm-69.268 27l-18.92-12.945V50.136h76.578a14.268 14.268 0 0 1 13.562 9.976l-71.216 49.006zm-127.825 11.05c0-23.312 13.87-42.215 30.96-42.215s30.962 18.9 30.962 42.214-13.87 42.214-30.962 42.214-30.96-18.907-30.96-42.214zM138.944 1.19L0 27.246V212.77l138.944 26.04zM71.276 96.235c-9.256 0-16.77 10.718-16.77 23.93s7.508 23.93 16.77 23.93 16.77-10.718 16.77-23.93-7.508-23.93-16.77-23.93z"/></svg>
