<svg width="256" height="256" xmlns="http://www.w3.org/2000/svg">
  <style>
    .favicon { 
      fill: #4a4a4a; 
    }
    @media (prefers-color-scheme: dark) {
      .favicon { 
        fill: #ffffff; 
      }
    }
  </style>
  <path class="favicon" d="M112.09 224c36.268 0 70.484-19.543 80.407-26.4l-14.37-25.371c-7.528 2.4-31.822 12.342-52.009 12.342s-32.163-7.2-32.163-37.028C169.23 146.857 212 119.77 212 81.029 212 51.2 187.365 32 146.99 32 90.876 32 44 84.8 44 160.571 44 200.686 71.03 224 112.09 224zM98.06 117.371c6.843-27.085 24.293-46.628 44.823-46.628 13.002 0 19.503 5.486 19.503 16.457 0 15.429-20.872 29.143-64.326 30.171z" fill-rule="nonzero"/>
</svg>