<svg width="1350" height="353" viewBox="0 0 1350 353" fill="none" xmlns="http://www.w3.org/2000/svg">
<rect x="1.5" y="55.5" width="1347" height="138" rx="5.5" fill="#F3F3F3" fill-opacity="0.25" stroke="#F3F3F3" stroke-width="3"/>
<rect x="1153.5" y="97.5" width="57" height="57" rx="8" fill="#CCCCCC"/>
<rect x="1084.5" y="97.5" width="57" height="57" rx="8" fill="#CCCCCC"/>
<rect x="116" y="78.5" width="440" height="56" rx="7.5" fill="#83C0F3" stroke="#83C0F3"/>
<rect x="569" y="98" width="105" height="37" rx="18.5" fill="#CCCCCC"/>
<rect x="686" y="98" width="105" height="37" rx="18.5" fill="#CCCCCC"/>
<rect x="803" y="98" width="105" height="37" rx="18.5" fill="#CCCCCC"/>
<rect x="116" y="147.5" width="186.5" height="23" rx="7.5" fill="#83C0F3" stroke="#83C0F3"/>
<rect x="315" y="147" width="105" height="24" rx="6" fill="#CCCCCC"/>
<ellipse cx="57.5" cy="125" rx="33.5" ry="34" fill="#83C0F3"/>
<ellipse cx="1280" cy="125.5" rx="46" ry="45.5" fill="#CCCCCC"/>
<line x1="56.75" y1="30" x2="56.75" y2="91" stroke="#5E5E5E" stroke-width="1.5"/>
<line x1="208.75" y1="171" x2="208.75" y2="220" stroke="#5E5E5E" stroke-width="1.5"/>
<line x1="336.75" y1="30" x2="336.75" y2="78" stroke="#5E5E5E" stroke-width="1.5"/>
<rect y="266" width="1350" height="87" rx="4" fill="#2B2B2B"/>
<path d="M32.8862 300.341C32.8862 300.997 32.7193 301.58 32.3856 302.089C32.0574 302.592 31.5788 302.989 30.9497 303.278C30.3262 303.563 29.5685 303.705 28.6769 303.705C27.8126 303.705 27.0414 303.574 26.3631 303.311C25.6848 303.049 25.1077 302.688 24.6318 302.228L25.559 301.186C25.9528 301.553 26.4041 301.843 26.9128 302.056C27.4215 302.269 28.015 302.376 28.6933 302.376C29.1364 302.376 29.5467 302.305 29.9241 302.163C30.307 302.015 30.6133 301.796 30.8431 301.506C31.0783 301.211 31.1959 300.842 31.1959 300.398C31.1959 300.048 31.1248 299.75 30.9826 299.504C30.8458 299.252 30.6024 299.031 30.2523 298.839C29.9022 298.648 29.4126 298.459 28.7836 298.273C28.0178 298.049 27.3614 297.795 26.8144 297.51C26.2728 297.22 25.8571 296.873 25.5672 296.468C25.2827 296.058 25.1405 295.555 25.1405 294.958C25.1405 294.373 25.3019 293.859 25.6246 293.416C25.9474 292.967 26.3904 292.617 26.9538 292.366C27.5173 292.114 28.1655 291.988 28.8985 291.988C29.6916 291.988 30.3836 292.103 30.9744 292.333C31.5706 292.563 32.1067 292.888 32.5826 293.309L31.68 294.327C31.2752 293.971 30.8403 293.714 30.3754 293.555C29.9159 293.391 29.4482 293.309 28.9723 293.309C28.3706 293.309 27.8591 293.441 27.4379 293.703C27.0168 293.96 26.8062 294.354 26.8062 294.885C26.8062 295.202 26.8909 295.473 27.0605 295.697C27.2301 295.916 27.5145 296.118 27.9138 296.304C28.3186 296.49 28.8711 296.687 29.5713 296.895C30.1785 297.075 30.7309 297.297 31.2287 297.559C31.732 297.817 32.134 298.167 32.4349 298.61C32.7357 299.047 32.8862 299.624 32.8862 300.341ZM38.4632 294.647C39.6995 294.647 40.6376 295.057 41.2776 295.877C41.9231 296.698 42.2458 297.795 42.2458 299.168C42.2458 300.059 42.0981 300.847 41.8027 301.531C41.5128 302.215 41.0861 302.748 40.5227 303.131C39.9593 303.514 39.2673 303.705 38.4468 303.705C37.2106 303.705 36.267 303.295 35.6161 302.474C34.9706 301.654 34.6479 300.557 34.6479 299.184C34.6479 298.287 34.7928 297.499 35.0827 296.821C35.3781 296.137 35.8075 295.604 36.3709 295.221C36.9398 294.838 37.6373 294.647 38.4632 294.647ZM38.4632 295.902C37.7521 295.902 37.2161 296.17 36.855 296.706C36.494 297.237 36.3135 298.063 36.3135 299.184C36.3135 300.295 36.4913 301.118 36.8468 301.654C37.2024 302.184 37.7357 302.45 38.4468 302.45C39.1579 302.45 39.6913 302.184 40.0468 301.654C40.4024 301.118 40.5802 300.289 40.5802 299.168C40.5802 298.052 40.4024 297.229 40.0468 296.698C39.6913 296.167 39.1634 295.902 38.4632 295.902ZM44.6967 303.5V302.335H46.0096V296.017H44.6967V294.852H47.2157L47.5029 296.878C47.8311 296.162 48.2331 295.612 48.709 295.229C49.1904 294.841 49.814 294.647 50.5798 294.647C50.8314 294.647 51.053 294.666 51.2444 294.704C51.4413 294.742 51.641 294.792 51.8434 294.852L51.5972 297.888H50.3829V296.083H50.3747C49.0783 296.083 48.1484 297.01 47.5849 298.864V302.335H49.3408V303.5H44.6967ZM61.162 303.057C60.8557 303.254 60.4865 303.41 60.0543 303.525C59.6277 303.645 59.1955 303.705 58.7579 303.705C57.7952 303.705 57.0567 303.454 56.5425 302.95C56.0338 302.447 55.7795 301.793 55.7795 300.989V296.033H53.8184V294.852H55.7795V292.899L57.3548 292.71V294.852H60.3087L60.1282 296.033H57.3548V300.973C57.3548 301.449 57.4752 301.807 57.7159 302.048C57.962 302.288 58.3695 302.409 58.9384 302.409C59.2557 302.409 59.5483 302.373 59.8164 302.302C60.0899 302.225 60.3415 302.124 60.5713 301.998L61.162 303.057ZM67.0181 290.716C67.3463 290.716 67.6088 290.818 67.8058 291.02C68.0082 291.222 68.1094 291.469 68.1094 291.758C68.1094 292.059 68.0082 292.314 67.8058 292.522C67.6088 292.724 67.3463 292.825 67.0181 292.825C66.6953 292.825 66.4328 292.724 66.2304 292.522C66.0335 292.314 65.935 292.059 65.935 291.758C65.935 291.469 66.0335 291.222 66.2304 291.02C66.4328 290.818 66.6953 290.716 67.0181 290.716ZM68.1914 294.852V302.302H70.5955V303.5H63.9822V302.302H66.616V296.05H64.0642V294.852H68.1914ZM73.1859 303.5V294.852H74.5398L74.6546 296.017C75.0102 295.574 75.4423 295.235 75.9511 294.999C76.4652 294.764 76.9767 294.647 77.4854 294.647C78.3169 294.647 78.9295 294.874 79.3234 295.328C79.7172 295.776 79.9141 296.403 79.9141 297.207V303.5H78.3388V298.175C78.3388 297.628 78.3059 297.185 78.2403 296.846C78.1801 296.506 78.0516 296.26 77.8546 296.107C77.6577 295.949 77.3596 295.869 76.9603 295.869C76.4899 295.869 76.0632 296.014 75.6803 296.304C75.2974 296.594 74.9911 296.906 74.7613 297.239V303.5H73.1859ZM89.8481 293.851L90.3076 295.246C89.9466 295.361 89.5582 295.434 89.1425 295.467C88.7322 295.5 88.2782 295.516 87.7805 295.516C88.8034 295.976 89.3148 296.703 89.3148 297.699C89.3148 298.552 89.0194 299.255 88.4287 299.808C87.8434 300.36 87.031 300.636 85.9917 300.636C85.7182 300.636 85.4857 300.625 85.2943 300.604C85.1028 300.576 84.9196 300.535 84.7446 300.481C84.4656 300.677 84.3261 300.94 84.3261 301.268C84.3261 301.46 84.4027 301.624 84.5558 301.761C84.709 301.892 85.0071 301.957 85.4502 301.957H86.9846C87.5808 301.957 88.1114 302.061 88.5763 302.269C89.0468 302.477 89.416 302.762 89.684 303.123C89.9521 303.478 90.0861 303.88 90.0861 304.329C90.0861 305.188 89.7196 305.847 88.9866 306.306C88.2591 306.771 87.2198 307.004 85.8687 307.004C84.9169 307.004 84.1675 306.905 83.6205 306.708C83.0789 306.511 82.6933 306.219 82.4635 305.83C82.2393 305.442 82.1271 304.955 82.1271 304.37H83.5466C83.5466 304.692 83.6095 304.958 83.7353 305.166C83.8611 305.379 84.0909 305.535 84.4246 305.633C84.7582 305.737 85.2396 305.789 85.8687 305.789C86.7986 305.789 87.4687 305.674 87.8789 305.445C88.2892 305.215 88.4943 304.878 88.4943 304.435C88.4943 304.047 88.322 303.752 87.9774 303.549C87.6328 303.352 87.1924 303.254 86.6563 303.254H85.1384C84.3616 303.254 83.79 303.09 83.4235 302.762C83.0625 302.433 82.882 302.05 82.882 301.613C82.882 301.006 83.1993 300.494 83.8338 300.078C82.8546 299.564 82.3651 298.763 82.3651 297.674C82.3651 297.084 82.5128 296.561 82.8081 296.107C83.109 295.648 83.5247 295.289 84.0553 295.032C84.5859 294.775 85.1958 294.647 85.8851 294.647C86.6016 294.647 87.1897 294.614 87.6492 294.548C88.1087 294.483 88.5052 294.39 88.8389 294.269C89.1726 294.149 89.509 294.009 89.8481 293.851ZM85.8933 295.763C85.2423 295.763 84.7582 295.943 84.441 296.304C84.1292 296.66 83.9733 297.116 83.9733 297.674C83.9733 298.243 84.1346 298.705 84.4574 299.061C84.7801 299.417 85.2697 299.594 85.9261 299.594C86.5059 299.594 86.949 299.425 87.2553 299.086C87.5616 298.746 87.7148 298.271 87.7148 297.658C87.7148 296.394 87.1076 295.763 85.8933 295.763ZM103.333 295.935C103.639 295.53 103.997 295.216 104.407 294.991C104.823 294.762 105.274 294.647 105.761 294.647C106.527 294.647 107.148 294.835 107.624 295.213C108.1 295.585 108.447 296.11 108.666 296.788C108.885 297.461 108.994 298.254 108.994 299.168C108.994 300.043 108.863 300.822 108.6 301.506C108.338 302.19 107.952 302.729 107.443 303.123C106.935 303.511 106.308 303.705 105.564 303.705C104.574 303.705 103.8 303.344 103.242 302.622L103.144 303.5H101.757V291.373L103.333 291.184V295.935ZM105.179 302.466C105.857 302.466 106.379 302.198 106.746 301.662C107.118 301.121 107.304 300.289 107.304 299.168C107.304 298.046 107.137 297.22 106.803 296.69C106.475 296.154 105.999 295.886 105.376 295.886C104.927 295.886 104.531 296.022 104.186 296.296C103.841 296.564 103.557 296.87 103.333 297.215V301.399C103.551 301.728 103.819 301.988 104.137 302.179C104.454 302.37 104.801 302.466 105.179 302.466ZM114.834 291.373V301.268C114.834 301.684 114.962 301.979 115.219 302.154C115.476 302.324 115.807 302.409 116.212 302.409C116.469 302.409 116.713 302.384 116.942 302.335C117.178 302.28 117.407 302.206 117.632 302.113L118.042 303.237C117.801 303.363 117.5 303.473 117.139 303.566C116.778 303.659 116.371 303.705 115.917 303.705C115.102 303.705 114.454 303.478 113.972 303.024C113.496 302.57 113.258 301.946 113.258 301.153V292.571H110.625V291.373H114.834ZM124.177 294.647C125.413 294.647 126.351 295.057 126.991 295.877C127.637 296.698 127.96 297.795 127.96 299.168C127.96 300.059 127.812 300.847 127.516 301.531C127.227 302.215 126.8 302.748 126.236 303.131C125.673 303.514 124.981 303.705 124.161 303.705C122.924 303.705 121.981 303.295 121.33 302.474C120.684 301.654 120.362 300.557 120.362 299.184C120.362 298.287 120.507 297.499 120.796 296.821C121.092 296.137 121.521 295.604 122.085 295.221C122.654 294.838 123.351 294.647 124.177 294.647ZM124.177 295.902C123.466 295.902 122.93 296.17 122.569 296.706C122.208 297.237 122.027 298.063 122.027 299.184C122.027 300.295 122.205 301.118 122.561 301.654C122.916 302.184 123.449 302.45 124.161 302.45C124.872 302.45 125.405 302.184 125.761 301.654C126.116 301.118 126.294 300.289 126.294 299.168C126.294 298.052 126.116 297.229 125.761 296.698C125.405 296.167 124.877 295.902 124.177 295.902ZM137.467 293.851L137.926 295.246C137.565 295.361 137.177 295.434 136.761 295.467C136.351 295.5 135.897 295.516 135.399 295.516C136.422 295.976 136.934 296.703 136.934 297.699C136.934 298.552 136.638 299.255 136.047 299.808C135.462 300.36 134.65 300.636 133.61 300.636C133.337 300.636 133.105 300.625 132.913 300.604C132.722 300.576 132.538 300.535 132.363 300.481C132.084 300.677 131.945 300.94 131.945 301.268C131.945 301.46 132.021 301.624 132.175 301.761C132.328 301.892 132.626 301.957 133.069 301.957H134.603C135.2 301.957 135.73 302.061 136.195 302.269C136.666 302.477 137.035 302.762 137.303 303.123C137.571 303.478 137.705 303.88 137.705 304.329C137.705 305.188 137.338 305.847 136.605 306.306C135.878 306.771 134.839 307.004 133.487 307.004C132.536 307.004 131.786 306.905 131.239 306.708C130.698 306.511 130.312 306.219 130.082 305.83C129.858 305.442 129.746 304.955 129.746 304.37H131.165C131.165 304.692 131.228 304.958 131.354 305.166C131.48 305.379 131.71 305.535 132.043 305.633C132.377 305.737 132.858 305.789 133.487 305.789C134.417 305.789 135.087 305.674 135.498 305.445C135.908 305.215 136.113 304.878 136.113 304.435C136.113 304.047 135.941 303.752 135.596 303.549C135.252 303.352 134.811 303.254 134.275 303.254H132.757C131.98 303.254 131.409 303.09 131.042 302.762C130.681 302.433 130.501 302.05 130.501 301.613C130.501 301.006 130.818 300.494 131.453 300.078C130.473 299.564 129.984 298.763 129.984 297.674C129.984 297.084 130.132 296.561 130.427 296.107C130.728 295.648 131.143 295.289 131.674 295.032C132.205 294.775 132.815 294.647 133.504 294.647C134.22 294.647 134.808 294.614 135.268 294.548C135.727 294.483 136.124 294.39 136.458 294.269C136.791 294.149 137.128 294.009 137.467 293.851ZM133.512 295.763C132.861 295.763 132.377 295.943 132.06 296.304C131.748 296.66 131.592 297.116 131.592 297.674C131.592 298.243 131.753 298.705 132.076 299.061C132.399 299.417 132.888 299.594 133.545 299.594C134.125 299.594 134.568 299.425 134.874 299.086C135.18 298.746 135.334 298.271 135.334 297.658C135.334 296.394 134.726 295.763 133.512 295.763ZM153.396 294.647C154.162 294.647 154.775 294.835 155.234 295.213C155.694 295.585 156.025 296.11 156.227 296.788C156.43 297.461 156.531 298.254 156.531 299.168C156.531 300.043 156.408 300.822 156.162 301.506C155.915 302.19 155.546 302.729 155.054 303.123C154.562 303.511 153.943 303.705 153.2 303.705C152.27 303.705 151.52 303.377 150.951 302.721V306.815L149.376 307.004V294.852H150.73L150.845 296.017C151.512 295.103 152.363 294.647 153.396 294.647ZM152.994 295.886C152.546 295.886 152.149 296.022 151.805 296.296C151.46 296.564 151.176 296.87 150.951 297.215V301.399C151.17 301.722 151.438 301.977 151.755 302.163C152.073 302.343 152.425 302.433 152.814 302.433C153.492 302.433 154.004 302.171 154.348 301.646C154.693 301.115 154.865 300.289 154.865 299.168C154.865 298.046 154.712 297.22 154.406 296.69C154.099 296.154 153.629 295.886 152.994 295.886ZM162.272 294.647C163.508 294.647 164.446 295.057 165.086 295.877C165.732 296.698 166.055 297.795 166.055 299.168C166.055 300.059 165.907 300.847 165.611 301.531C165.322 302.215 164.895 302.748 164.331 303.131C163.768 303.514 163.076 303.705 162.256 303.705C161.019 303.705 160.076 303.295 159.425 302.474C158.779 301.654 158.457 300.557 158.457 299.184C158.457 298.287 158.602 297.499 158.891 296.821C159.187 296.137 159.616 295.604 160.18 295.221C160.749 294.838 161.446 294.647 162.272 294.647ZM162.272 295.902C161.561 295.902 161.025 296.17 160.664 296.706C160.303 297.237 160.122 298.063 160.122 299.184C160.122 300.295 160.3 301.118 160.656 301.654C161.011 302.184 161.544 302.45 162.256 302.45C162.967 302.45 163.5 302.184 163.856 301.654C164.211 301.118 164.389 300.289 164.389 299.168C164.389 298.052 164.211 297.229 163.856 296.698C163.5 296.167 162.972 295.902 162.272 295.902ZM171.451 302.45C172.08 302.45 172.575 302.335 172.936 302.105C173.303 301.875 173.486 301.564 173.486 301.17C173.486 300.918 173.437 300.705 173.338 300.53C173.245 300.349 173.048 300.185 172.748 300.037C172.452 299.884 172.004 299.731 171.402 299.578C170.811 299.43 170.297 299.258 169.859 299.061C169.427 298.864 169.091 298.607 168.85 298.29C168.615 297.972 168.497 297.562 168.497 297.059C168.497 296.326 168.804 295.741 169.416 295.303C170.029 294.865 170.841 294.647 171.853 294.647C172.564 294.647 173.182 294.742 173.708 294.934C174.233 295.12 174.681 295.35 175.053 295.623L174.38 296.649C174.047 296.43 173.68 296.249 173.281 296.107C172.887 295.959 172.422 295.886 171.886 295.886C171.246 295.886 170.789 295.984 170.516 296.181C170.248 296.372 170.114 296.627 170.114 296.944C170.114 297.185 170.179 297.384 170.311 297.543C170.447 297.696 170.68 297.838 171.008 297.97C171.336 298.096 171.79 298.238 172.37 298.396C172.934 298.55 173.426 298.73 173.847 298.938C174.268 299.146 174.594 299.419 174.823 299.758C175.059 300.092 175.176 300.532 175.176 301.079C175.176 301.698 174.998 302.201 174.643 302.589C174.287 302.972 173.825 303.254 173.256 303.434C172.693 303.615 172.091 303.705 171.451 303.705C170.663 303.705 169.985 303.59 169.416 303.361C168.853 303.131 168.38 302.849 167.997 302.515L168.867 301.514C169.2 301.793 169.586 302.02 170.023 302.195C170.467 302.365 170.942 302.45 171.451 302.45ZM184.971 303.057C184.664 303.254 184.295 303.41 183.863 303.525C183.436 303.645 183.004 303.705 182.567 303.705C181.604 303.705 180.865 303.454 180.351 302.95C179.843 302.447 179.588 301.793 179.588 300.989V296.033H177.627V294.852H179.588V292.899L181.164 292.71V294.852H184.117L183.937 296.033H181.164V300.973C181.164 301.449 181.284 301.807 181.525 302.048C181.771 302.288 182.178 302.409 182.747 302.409C183.064 302.409 183.357 302.373 183.625 302.302C183.899 302.225 184.15 302.124 184.38 301.998L184.971 303.057ZM190.499 302.45C191.128 302.45 191.623 302.335 191.984 302.105C192.35 301.875 192.533 301.564 192.533 301.17C192.533 300.918 192.484 300.705 192.386 300.53C192.293 300.349 192.096 300.185 191.795 300.037C191.5 299.884 191.051 299.731 190.449 299.578C189.859 299.43 189.344 299.258 188.907 299.061C188.475 298.864 188.138 298.607 187.898 298.29C187.662 297.972 187.545 297.562 187.545 297.059C187.545 296.326 187.851 295.741 188.464 295.303C189.076 294.865 189.889 294.647 190.901 294.647C191.612 294.647 192.23 294.742 192.755 294.934C193.28 295.12 193.729 295.35 194.101 295.623L193.428 296.649C193.094 296.43 192.728 296.249 192.328 296.107C191.935 295.959 191.47 295.886 190.933 295.886C190.293 295.886 189.837 295.984 189.563 296.181C189.295 296.372 189.161 296.627 189.161 296.944C189.161 297.185 189.227 297.384 189.358 297.543C189.495 297.696 189.727 297.838 190.056 297.97C190.384 298.096 190.838 298.238 191.418 298.396C191.981 298.55 192.473 298.73 192.895 298.938C193.316 299.146 193.641 299.419 193.871 299.758C194.106 300.092 194.224 300.532 194.224 301.079C194.224 301.698 194.046 302.201 193.69 302.589C193.335 302.972 192.873 303.254 192.304 303.434C191.74 303.615 191.139 303.705 190.499 303.705C189.711 303.705 189.033 303.59 188.464 303.361C187.9 303.131 187.427 302.849 187.044 302.515L187.914 301.514C188.248 301.793 188.633 302.02 189.071 302.195C189.514 302.365 189.99 302.45 190.499 302.45ZM209.874 290.716C210.203 290.716 210.465 290.818 210.662 291.02C210.864 291.222 210.966 291.469 210.966 291.758C210.966 292.059 210.864 292.314 210.662 292.522C210.465 292.724 210.203 292.825 209.874 292.825C209.552 292.825 209.289 292.724 209.087 292.522C208.89 292.314 208.791 292.059 208.791 291.758C208.791 291.469 208.89 291.222 209.087 291.02C209.289 290.818 209.552 290.716 209.874 290.716ZM211.048 294.852V302.302H213.452V303.5H206.838V302.302H209.472V296.05H206.92V294.852H211.048ZM216.042 303.5V294.852H217.396L217.511 296.017C217.866 295.574 218.299 295.235 218.807 294.999C219.322 294.764 219.833 294.647 220.342 294.647C221.173 294.647 221.786 294.874 222.18 295.328C222.573 295.776 222.77 296.403 222.77 297.207V303.5H221.195V298.175C221.195 297.628 221.162 297.185 221.097 296.846C221.036 296.506 220.908 296.26 220.711 296.107C220.514 295.949 220.216 295.869 219.817 295.869C219.346 295.869 218.919 296.014 218.537 296.304C218.154 296.594 217.847 296.906 217.618 297.239V303.5H216.042ZM241.465 301.514C241.465 301.859 241.52 302.111 241.629 302.269C241.739 302.422 241.911 302.537 242.146 302.614L241.777 303.697C241.383 303.648 241.038 303.53 240.743 303.344C240.453 303.158 240.24 302.874 240.103 302.491C239.791 302.896 239.397 303.199 238.921 303.402C238.446 303.604 237.929 303.705 237.371 303.705C236.501 303.705 235.814 303.459 235.311 302.967C234.808 302.474 234.556 301.826 234.556 301.022C234.556 300.125 234.906 299.436 235.607 298.954C236.312 298.468 237.324 298.224 238.643 298.224H239.898V297.568C239.898 296.971 239.72 296.548 239.365 296.296C239.014 296.044 238.525 295.918 237.896 295.918C237.606 295.918 237.264 295.954 236.87 296.025C236.482 296.096 236.066 296.208 235.623 296.362L235.221 295.213C235.752 295.01 236.263 294.865 236.755 294.778C237.248 294.69 237.707 294.647 238.134 294.647C239.244 294.647 240.076 294.901 240.628 295.41C241.186 295.918 241.465 296.61 241.465 297.486V301.514ZM237.814 302.524C238.213 302.524 238.599 302.42 238.971 302.212C239.348 302.004 239.657 301.714 239.898 301.342V299.25H238.749C237.836 299.25 237.187 299.406 236.805 299.717C236.422 300.024 236.23 300.445 236.23 300.981C236.23 302.009 236.758 302.524 237.814 302.524ZM257.165 302.45C257.794 302.45 258.289 302.335 258.65 302.105C259.017 301.875 259.2 301.564 259.2 301.17C259.2 300.918 259.151 300.705 259.052 300.53C258.959 300.349 258.762 300.185 258.461 300.037C258.166 299.884 257.717 299.731 257.116 299.578C256.525 299.43 256.011 299.258 255.573 299.061C255.141 298.864 254.805 298.607 254.564 298.29C254.329 297.972 254.211 297.562 254.211 297.059C254.211 296.326 254.517 295.741 255.13 295.303C255.743 294.865 256.555 294.647 257.567 294.647C258.278 294.647 258.896 294.742 259.421 294.934C259.946 295.12 260.395 295.35 260.767 295.623L260.094 296.649C259.76 296.43 259.394 296.249 258.995 296.107C258.601 295.959 258.136 295.886 257.6 295.886C256.96 295.886 256.503 295.984 256.229 296.181C255.961 296.372 255.827 296.627 255.827 296.944C255.827 297.185 255.893 297.384 256.024 297.543C256.161 297.696 256.394 297.838 256.722 297.97C257.05 298.096 257.504 298.238 258.084 298.396C258.647 298.55 259.14 298.73 259.561 298.938C259.982 299.146 260.307 299.419 260.537 299.758C260.772 300.092 260.89 300.532 260.89 301.079C260.89 301.698 260.712 302.201 260.357 302.589C260.001 302.972 259.539 303.254 258.97 303.434C258.407 303.615 257.805 303.705 257.165 303.705C256.377 303.705 255.699 303.59 255.13 303.361C254.567 303.131 254.093 302.849 253.711 302.515L254.58 301.514C254.914 301.793 255.3 302.02 255.737 302.195C256.18 302.365 256.656 302.45 257.165 302.45ZM265.236 294.852V300.94C265.236 301.487 265.346 301.881 265.565 302.122C265.789 302.357 266.133 302.474 266.598 302.474C267.036 302.474 267.454 302.346 267.854 302.089C268.259 301.832 268.573 301.525 268.797 301.17V294.852H270.373V303.5H269.019L268.904 302.359C268.57 302.797 268.155 303.131 267.657 303.361C267.165 303.59 266.664 303.705 266.155 303.705C265.318 303.705 264.692 303.478 264.276 303.024C263.866 302.57 263.661 301.941 263.661 301.137V294.852H265.236ZM274.76 295.935C275.066 295.53 275.425 295.216 275.835 294.991C276.251 294.762 276.702 294.647 277.189 294.647C277.955 294.647 278.575 294.835 279.051 295.213C279.527 295.585 279.875 296.11 280.093 296.788C280.312 297.461 280.422 298.254 280.422 299.168C280.422 300.043 280.29 300.822 280.028 301.506C279.765 302.19 279.38 302.729 278.871 303.123C278.362 303.511 277.736 303.705 276.992 303.705C276.002 303.705 275.228 303.344 274.67 302.622L274.571 303.5H273.185V291.373L274.76 291.184V295.935ZM276.606 302.466C277.285 302.466 277.807 302.198 278.173 301.662C278.545 301.121 278.731 300.289 278.731 299.168C278.731 298.046 278.565 297.22 278.231 296.69C277.903 296.154 277.427 295.886 276.803 295.886C276.355 295.886 275.958 296.022 275.613 296.296C275.269 296.564 274.984 296.87 274.76 297.215V301.399C274.979 301.728 275.247 301.988 275.564 302.179C275.881 302.37 276.229 302.466 276.606 302.466ZM287.886 291.184C288.378 291.184 288.821 291.228 289.215 291.315C289.609 291.397 289.981 291.515 290.331 291.668L289.839 292.801C289.56 292.675 289.262 292.584 288.944 292.53C288.633 292.47 288.313 292.439 287.984 292.439C286.814 292.439 286.228 292.907 286.228 293.843V295.5H289.149L288.977 296.698H286.228V303.5H284.661V296.698H282.635V295.5H284.661V293.851C284.661 293.315 284.798 292.847 285.071 292.448C285.35 292.048 285.731 291.739 286.212 291.521C286.699 291.296 287.257 291.184 287.886 291.184ZM295.604 294.647C296.841 294.647 297.779 295.057 298.419 295.877C299.064 296.698 299.387 297.795 299.387 299.168C299.387 300.059 299.239 300.847 298.944 301.531C298.654 302.215 298.227 302.748 297.664 303.131C297.101 303.514 296.409 303.705 295.588 303.705C294.352 303.705 293.408 303.295 292.757 302.474C292.112 301.654 291.789 300.557 291.789 299.184C291.789 298.287 291.934 297.499 292.224 296.821C292.519 296.137 292.949 295.604 293.512 295.221C294.081 294.838 294.779 294.647 295.604 294.647ZM295.604 295.902C294.893 295.902 294.357 296.17 293.996 296.706C293.635 297.237 293.455 298.063 293.455 299.184C293.455 300.295 293.633 301.118 293.988 301.654C294.344 302.184 294.877 302.45 295.588 302.45C296.299 302.45 296.833 302.184 297.188 301.654C297.544 301.118 297.721 300.289 297.721 299.168C297.721 298.052 297.544 297.229 297.188 296.698C296.833 296.167 296.305 295.902 295.604 295.902ZM305.309 291.373V301.268C305.309 301.684 305.437 301.979 305.694 302.154C305.951 302.324 306.282 302.409 306.687 302.409C306.944 302.409 307.188 302.384 307.417 302.335C307.653 302.28 307.882 302.206 308.107 302.113L308.517 303.237C308.276 303.363 307.975 303.473 307.614 303.566C307.253 303.659 306.846 303.705 306.392 303.705C305.577 303.705 304.929 303.478 304.447 303.024C303.971 302.57 303.733 301.946 303.733 301.153V292.571H301.1V291.373H305.309ZM316.416 291.184L317.991 291.373V303.5H316.605L316.474 302.392C315.861 303.268 315.046 303.705 314.028 303.705C313.284 303.705 312.669 303.516 312.182 303.139C311.701 302.756 311.343 302.225 311.107 301.547C310.872 300.869 310.755 300.081 310.755 299.184C310.755 298.309 310.889 297.532 311.157 296.854C311.43 296.17 311.818 295.631 312.322 295.237C312.83 294.844 313.443 294.647 314.16 294.647C315.09 294.647 315.842 294.975 316.416 295.631V291.184ZM314.57 295.886C313.892 295.886 313.367 296.156 312.995 296.698C312.628 297.239 312.445 298.068 312.445 299.184C312.445 300.295 312.612 301.118 312.945 301.654C313.284 302.19 313.771 302.458 314.406 302.458C314.86 302.458 315.251 302.329 315.579 302.072C315.913 301.81 316.192 301.503 316.416 301.153V296.928C316.192 296.599 315.921 296.345 315.604 296.165C315.292 295.979 314.947 295.886 314.57 295.886ZM322.075 299.709C322.119 300.661 322.376 301.353 322.846 301.785C323.322 302.217 323.886 302.433 324.537 302.433C324.969 302.433 325.365 302.368 325.726 302.236C326.088 302.105 326.454 301.914 326.826 301.662L327.54 302.655C327.135 302.978 326.667 303.235 326.137 303.426C325.606 303.612 325.056 303.705 324.488 303.705C323.623 303.705 322.888 303.516 322.28 303.139C321.679 302.756 321.219 302.225 320.902 301.547C320.59 300.869 320.434 300.081 320.434 299.184C320.434 298.314 320.59 297.538 320.902 296.854C321.219 296.17 321.665 295.631 322.239 295.237C322.814 294.844 323.497 294.647 324.291 294.647C325.406 294.647 326.284 295.03 326.924 295.795C327.57 296.556 327.893 297.598 327.893 298.922C327.893 299.069 327.89 299.211 327.884 299.348C327.879 299.485 327.871 299.605 327.86 299.709H322.075ZM324.307 295.877C323.689 295.877 323.177 296.096 322.773 296.534C322.368 296.971 322.135 297.647 322.075 298.561H326.375C326.358 297.685 326.167 297.021 325.8 296.567C325.439 296.107 324.942 295.877 324.307 295.877ZM330.409 303.5V302.335H331.722V296.017H330.409V294.852H332.928L333.215 296.878C333.544 296.162 333.946 295.612 334.422 295.229C334.903 294.841 335.527 294.647 336.292 294.647C336.544 294.647 336.765 294.666 336.957 294.704C337.154 294.742 337.354 294.792 337.556 294.852L337.31 297.888H336.095V296.083H336.087C334.791 296.083 333.861 297.01 333.297 298.864V302.335H335.053V303.5H330.409ZM354.511 291.184L356.086 291.373V303.5H354.7L354.569 302.392C353.956 303.268 353.141 303.705 352.123 303.705C351.379 303.705 350.764 303.516 350.277 303.139C349.796 302.756 349.438 302.225 349.202 301.547C348.967 300.869 348.85 300.081 348.85 299.184C348.85 298.309 348.984 297.532 349.252 296.854C349.525 296.17 349.913 295.631 350.417 295.237C350.925 294.844 351.538 294.647 352.255 294.647C353.185 294.647 353.937 294.975 354.511 295.631V291.184ZM352.665 295.886C351.987 295.886 351.462 296.156 351.09 296.698C350.723 297.239 350.54 298.068 350.54 299.184C350.54 300.295 350.707 301.118 351.04 301.654C351.379 302.19 351.866 302.458 352.501 302.458C352.955 302.458 353.346 302.329 353.674 302.072C354.008 301.81 354.287 301.503 354.511 301.153V296.928C354.287 296.599 354.016 296.345 353.699 296.165C353.387 295.979 353.042 295.886 352.665 295.886ZM362.271 294.647C363.507 294.647 364.445 295.057 365.085 295.877C365.731 296.698 366.053 297.795 366.053 299.168C366.053 300.059 365.906 300.847 365.61 301.531C365.32 302.215 364.894 302.748 364.33 303.131C363.767 303.514 363.075 303.705 362.254 303.705C361.018 303.705 360.074 303.295 359.424 302.474C358.778 301.654 358.455 300.557 358.455 299.184C358.455 298.287 358.6 297.499 358.89 296.821C359.186 296.137 359.615 295.604 360.178 295.221C360.747 294.838 361.445 294.647 362.271 294.647ZM362.271 295.902C361.56 295.902 361.024 296.17 360.663 296.706C360.301 297.237 360.121 298.063 360.121 299.184C360.121 300.295 360.299 301.118 360.654 301.654C361.01 302.184 361.543 302.45 362.254 302.45C362.965 302.45 363.499 302.184 363.854 301.654C364.21 301.118 364.388 300.289 364.388 299.168C364.388 298.052 364.21 297.229 363.854 296.698C363.499 296.167 362.971 295.902 362.271 295.902ZM369.694 299.709C369.738 300.661 369.995 301.353 370.465 301.785C370.941 302.217 371.505 302.433 372.156 302.433C372.588 302.433 372.984 302.368 373.345 302.236C373.706 302.105 374.073 301.914 374.445 301.662L375.159 302.655C374.754 302.978 374.286 303.235 373.756 303.426C373.225 303.612 372.675 303.705 372.106 303.705C371.242 303.705 370.506 303.516 369.899 303.139C369.297 302.756 368.838 302.225 368.521 301.547C368.209 300.869 368.053 300.081 368.053 299.184C368.053 298.314 368.209 297.538 368.521 296.854C368.838 296.17 369.284 295.631 369.858 295.237C370.432 294.844 371.116 294.647 371.909 294.647C373.025 294.647 373.903 295.03 374.543 295.795C375.189 296.556 375.511 297.598 375.511 298.922C375.511 299.069 375.509 299.211 375.503 299.348C375.498 299.485 375.49 299.605 375.479 299.709H369.694ZM371.926 295.877C371.308 295.877 370.796 296.096 370.391 296.534C369.987 296.971 369.754 297.647 369.694 298.561H373.993C373.977 297.685 373.786 297.021 373.419 296.567C373.058 296.107 372.56 295.877 371.926 295.877ZM380.974 302.45C381.603 302.45 382.098 302.335 382.459 302.105C382.825 301.875 383.008 301.564 383.008 301.17C383.008 300.918 382.959 300.705 382.861 300.53C382.768 300.349 382.571 300.185 382.27 300.037C381.975 299.884 381.526 299.731 380.924 299.578C380.334 299.43 379.819 299.258 379.382 299.061C378.95 298.864 378.613 298.607 378.373 298.29C378.137 297.972 378.02 297.562 378.02 297.059C378.02 296.326 378.326 295.741 378.939 295.303C379.551 294.865 380.364 294.647 381.376 294.647C382.087 294.647 382.705 294.742 383.23 294.934C383.755 295.12 384.204 295.35 384.576 295.623L383.903 296.649C383.569 296.43 383.203 296.249 382.803 296.107C382.41 295.959 381.945 295.886 381.408 295.886C380.768 295.886 380.312 295.984 380.038 296.181C379.77 296.372 379.636 296.627 379.636 296.944C379.636 297.185 379.702 297.384 379.833 297.543C379.97 297.696 380.202 297.838 380.531 297.97C380.859 298.096 381.313 298.238 381.893 298.396C382.456 298.55 382.948 298.73 383.37 298.938C383.791 299.146 384.116 299.419 384.346 299.758C384.581 300.092 384.699 300.532 384.699 301.079C384.699 301.698 384.521 302.201 384.165 302.589C383.81 302.972 383.348 303.254 382.779 303.434C382.215 303.615 381.614 303.705 380.974 303.705C380.186 303.705 379.508 303.59 378.939 303.361C378.375 303.131 377.902 302.849 377.519 302.515L378.389 301.514C378.723 301.793 379.108 302.02 379.546 302.195C379.989 302.365 380.465 302.45 380.974 302.45ZM396.993 303.5V294.852H398.347L398.462 296.017C398.818 295.574 399.25 295.235 399.759 294.999C400.273 294.764 400.784 294.647 401.293 294.647C402.124 294.647 402.737 294.874 403.131 295.328C403.525 295.776 403.722 296.403 403.722 297.207V303.5H402.146V298.175C402.146 297.628 402.113 297.185 402.048 296.846C401.988 296.506 401.859 296.26 401.662 296.107C401.465 295.949 401.167 295.869 400.768 295.869C400.297 295.869 399.871 296.014 399.488 296.304C399.105 296.594 398.799 296.906 398.569 297.239V303.5H396.993ZM409.889 294.647C411.126 294.647 412.064 295.057 412.704 295.877C413.349 296.698 413.672 297.795 413.672 299.168C413.672 300.059 413.524 300.847 413.229 301.531C412.939 302.215 412.512 302.748 411.949 303.131C411.386 303.514 410.694 303.705 409.873 303.705C408.637 303.705 407.693 303.295 407.042 302.474C406.397 301.654 406.074 300.557 406.074 299.184C406.074 298.287 406.219 297.499 406.509 296.821C406.804 296.137 407.234 295.604 407.797 295.221C408.366 294.838 409.064 294.647 409.889 294.647ZM409.889 295.902C409.178 295.902 408.642 296.17 408.281 296.706C407.92 297.237 407.74 298.063 407.74 299.184C407.74 300.295 407.918 301.118 408.273 301.654C408.629 302.184 409.162 302.45 409.873 302.45C410.584 302.45 411.118 302.184 411.473 301.654C411.829 301.118 412.006 300.289 412.006 299.168C412.006 298.052 411.829 297.229 411.473 296.698C411.118 296.167 410.59 295.902 409.889 295.902ZM423.065 303.057C422.758 303.254 422.389 303.41 421.957 303.525C421.53 303.645 421.098 303.705 420.66 303.705C419.698 303.705 418.959 303.454 418.445 302.95C417.936 302.447 417.682 301.793 417.682 300.989V296.033H415.721V294.852H417.682V292.899L419.257 292.71V294.852H422.211L422.031 296.033H419.257V300.973C419.257 301.449 419.378 301.807 419.618 302.048C419.865 302.288 420.272 302.409 420.841 302.409C421.158 302.409 421.451 302.373 421.719 302.302C421.992 302.225 422.244 302.124 422.474 301.998L423.065 303.057ZM441.653 303.5H439.552L438.494 297.239L437.353 303.5H435.302L433.767 294.852H435.335L436.352 302.524L437.657 295.951H439.38L440.602 302.524L441.62 294.852H443.121L441.653 303.5ZM447.985 294.647C449.221 294.647 450.159 295.057 450.799 295.877C451.444 296.698 451.767 297.795 451.767 299.168C451.767 300.059 451.619 300.847 451.324 301.531C451.034 302.215 450.607 302.748 450.044 303.131C449.481 303.514 448.789 303.705 447.968 303.705C446.732 303.705 445.788 303.295 445.137 302.474C444.492 301.654 444.169 300.557 444.169 299.184C444.169 298.287 444.314 297.499 444.604 296.821C444.899 296.137 445.329 295.604 445.892 295.221C446.461 294.838 447.159 294.647 447.985 294.647ZM447.985 295.902C447.273 295.902 446.737 296.17 446.376 296.706C446.015 297.237 445.835 298.063 445.835 299.184C445.835 300.295 446.013 301.118 446.368 301.654C446.724 302.184 447.257 302.45 447.968 302.45C448.679 302.45 449.213 302.184 449.568 301.654C449.924 301.118 450.101 300.289 450.101 299.168C450.101 298.052 449.924 297.229 449.568 296.698C449.213 296.167 448.685 295.902 447.985 295.902ZM454.218 303.5V302.335H455.531V296.017H454.218V294.852H456.737L457.024 296.878C457.352 296.162 457.754 295.612 458.23 295.229C458.712 294.841 459.335 294.647 460.101 294.647C460.353 294.647 460.574 294.666 460.766 294.704C460.963 294.742 461.162 294.792 461.365 294.852L461.118 297.888H459.904V296.083H459.896C458.6 296.083 457.67 297.01 457.106 298.864V302.335H458.862V303.5H454.218ZM465.309 291.184V303.5H463.734V291.373L465.309 291.184ZM471.069 294.852L467.344 298.733L471.479 303.5H469.485L465.457 298.774L469.124 294.852H471.069ZM475.03 302.187C475.03 301.771 475.172 301.419 475.456 301.129C475.746 300.839 476.102 300.694 476.523 300.694C476.955 300.694 477.316 300.839 477.606 301.129C477.896 301.419 478.041 301.771 478.041 302.187C478.041 302.608 477.896 302.967 477.606 303.262C477.316 303.557 476.955 303.705 476.523 303.705C476.102 303.705 475.746 303.557 475.456 303.262C475.172 302.967 475.03 302.608 475.03 302.187ZM499.55 300.341C499.55 300.997 499.383 301.58 499.049 302.089C498.721 302.592 498.243 302.989 497.614 303.278C496.99 303.563 496.232 303.705 495.341 303.705C494.476 303.705 493.705 303.574 493.027 303.311C492.349 303.049 491.771 302.688 491.296 302.228L492.223 301.186C492.617 301.553 493.068 301.843 493.577 302.056C494.085 302.269 494.679 302.376 495.357 302.376C495.8 302.376 496.21 302.305 496.588 302.163C496.971 302.015 497.277 301.796 497.507 301.506C497.742 301.211 497.86 300.842 497.86 300.398C497.86 300.048 497.789 299.75 497.646 299.504C497.51 299.252 497.266 299.031 496.916 298.839C496.566 298.648 496.076 298.459 495.447 298.273C494.682 298.049 494.025 297.795 493.478 297.51C492.937 297.22 492.521 296.873 492.231 296.468C491.946 296.058 491.804 295.555 491.804 294.958C491.804 294.373 491.966 293.859 492.288 293.416C492.611 292.967 493.054 292.617 493.618 292.366C494.181 292.114 494.829 291.988 495.562 291.988C496.355 291.988 497.047 292.103 497.638 292.333C498.234 292.563 498.77 292.888 499.246 293.309L498.344 294.327C497.939 293.971 497.504 293.714 497.039 293.555C496.58 293.391 496.112 293.309 495.636 293.309C495.034 293.309 494.523 293.441 494.102 293.703C493.681 293.96 493.47 294.354 493.47 294.885C493.47 295.202 493.555 295.473 493.724 295.697C493.894 295.916 494.178 296.118 494.578 296.304C494.982 296.49 495.535 296.687 496.235 296.895C496.842 297.075 497.395 297.297 497.892 297.559C498.396 297.817 498.798 298.167 499.099 298.61C499.399 299.047 499.55 299.624 499.55 300.341ZM508.778 303.057C508.472 303.254 508.103 303.41 507.671 303.525C507.244 303.645 506.812 303.705 506.374 303.705C505.411 303.705 504.673 303.454 504.159 302.95C503.65 302.447 503.396 301.793 503.396 300.989V296.033H501.435V294.852H503.396V292.899L504.971 292.71V294.852H507.925L507.744 296.033H504.971V300.973C504.971 301.449 505.091 301.807 505.332 302.048C505.578 302.288 505.986 302.409 506.555 302.409C506.872 302.409 507.165 302.373 507.433 302.302C507.706 302.225 507.958 302.124 508.187 301.998L508.778 303.057ZM517.654 301.514C517.654 301.859 517.709 302.111 517.818 302.269C517.927 302.422 518.1 302.537 518.335 302.614L517.966 303.697C517.572 303.648 517.227 303.53 516.932 303.344C516.642 303.158 516.429 302.874 516.292 302.491C515.98 302.896 515.586 303.199 515.11 303.402C514.634 303.604 514.117 303.705 513.559 303.705C512.69 303.705 512.003 303.459 511.5 302.967C510.997 302.474 510.745 301.826 510.745 301.022C510.745 300.125 511.095 299.436 511.795 298.954C512.501 298.468 513.513 298.224 514.831 298.224H516.087V297.568C516.087 296.971 515.909 296.548 515.553 296.296C515.203 296.044 514.714 295.918 514.085 295.918C513.795 295.918 513.453 295.954 513.059 296.025C512.671 296.096 512.255 296.208 511.812 296.362L511.41 295.213C511.94 295.01 512.452 294.865 512.944 294.778C513.436 294.69 513.896 294.647 514.323 294.647C515.433 294.647 516.264 294.901 516.817 295.41C517.375 295.918 517.654 296.61 517.654 297.486V301.514ZM514.003 302.524C514.402 302.524 514.787 302.42 515.159 302.212C515.537 302.004 515.846 301.714 516.087 301.342V299.25H514.938C514.024 299.25 513.376 299.406 512.993 299.717C512.61 300.024 512.419 300.445 512.419 300.981C512.419 302.009 512.947 302.524 514.003 302.524ZM527.826 303.057C527.519 303.254 527.15 303.41 526.718 303.525C526.291 303.645 525.859 303.705 525.422 303.705C524.459 303.705 523.72 303.454 523.206 302.95C522.698 302.447 522.443 301.793 522.443 300.989V296.033H520.482V294.852H522.443V292.899L524.019 292.71V294.852H526.972L526.792 296.033H524.019V300.973C524.019 301.449 524.139 301.807 524.38 302.048C524.626 302.288 525.033 302.409 525.602 302.409C525.919 302.409 526.212 302.373 526.48 302.302C526.754 302.225 527.005 302.124 527.235 301.998L527.826 303.057ZM531.901 294.852V300.94C531.901 301.487 532.011 301.881 532.23 302.122C532.454 302.357 532.798 302.474 533.263 302.474C533.701 302.474 534.119 302.346 534.519 302.089C534.924 301.832 535.238 301.525 535.462 301.17V294.852H537.038V303.5H535.684L535.569 302.359C535.235 302.797 534.82 303.131 534.322 303.361C533.83 303.59 533.329 303.705 532.82 303.705C531.983 303.705 531.357 303.478 530.941 303.024C530.531 302.57 530.326 301.941 530.326 301.137V294.852H531.901ZM542.877 302.45C543.506 302.45 544.001 302.335 544.362 302.105C544.729 301.875 544.912 301.564 544.912 301.17C544.912 300.918 544.863 300.705 544.765 300.53C544.672 300.349 544.475 300.185 544.174 300.037C543.878 299.884 543.43 299.731 542.828 299.578C542.237 299.43 541.723 299.258 541.286 299.061C540.853 298.864 540.517 298.607 540.276 298.29C540.041 297.972 539.923 297.562 539.923 297.059C539.923 296.326 540.23 295.741 540.842 295.303C541.455 294.865 542.267 294.647 543.279 294.647C543.991 294.647 544.609 294.742 545.134 294.934C545.659 295.12 546.107 295.35 546.479 295.623L545.807 296.649C545.473 296.43 545.106 296.249 544.707 296.107C544.313 295.959 543.848 295.886 543.312 295.886C542.672 295.886 542.215 295.984 541.942 296.181C541.674 296.372 541.54 296.627 541.54 296.944C541.54 297.185 541.606 297.384 541.737 297.543C541.874 297.696 542.106 297.838 542.434 297.97C542.762 298.096 543.216 298.238 543.796 298.396C544.36 298.55 544.852 298.73 545.273 298.938C545.694 299.146 546.02 299.419 546.25 299.758C546.485 300.092 546.602 300.532 546.602 301.079C546.602 301.698 546.425 302.201 546.069 302.589C545.714 302.972 545.251 303.254 544.682 303.434C544.119 303.615 543.517 303.705 542.877 303.705C542.09 303.705 541.411 303.59 540.842 303.361C540.279 303.131 539.806 302.849 539.423 302.515L540.293 301.514C540.626 301.793 541.012 302.02 541.45 302.195C541.893 302.365 542.369 302.45 542.877 302.45ZM551.326 296.427C551.326 296.044 551.46 295.719 551.728 295.451C551.996 295.177 552.325 295.041 552.713 295.041C553.112 295.041 553.446 295.177 553.714 295.451C553.982 295.719 554.116 296.044 554.116 296.427C554.116 296.81 553.982 297.138 553.714 297.412C553.446 297.685 553.112 297.822 552.713 297.822C552.325 297.822 551.996 297.685 551.728 297.412C551.46 297.138 551.326 296.81 551.326 296.427ZM551.326 302.302C551.326 301.93 551.46 301.607 551.728 301.334C551.996 301.06 552.325 300.924 552.713 300.924C553.112 300.924 553.446 301.06 553.714 301.334C553.982 301.607 554.116 301.93 554.116 302.302C554.116 302.69 553.982 303.021 553.714 303.295C553.446 303.568 553.112 303.705 552.713 303.705C552.325 303.705 551.996 303.568 551.728 303.295C551.46 303.021 551.326 302.69 551.326 302.302ZM576.002 297.855C576.002 299.004 575.844 300.018 575.527 300.899C575.209 301.78 574.736 302.469 574.107 302.967C573.484 303.459 572.707 303.705 571.777 303.705C570.847 303.705 570.067 303.464 569.438 302.983C568.815 302.496 568.344 301.815 568.027 300.94C567.71 300.065 567.551 299.042 567.551 297.871C567.551 296.717 567.71 295.7 568.027 294.819C568.344 293.933 568.815 293.241 569.438 292.743C570.067 292.24 570.847 291.988 571.777 291.988C572.707 291.988 573.484 292.232 574.107 292.718C574.736 293.205 575.209 293.889 575.527 294.77C575.844 295.65 576.002 296.679 576.002 297.855ZM574.304 297.855C574.304 296.367 574.107 295.237 573.713 294.466C573.325 293.695 572.679 293.309 571.777 293.309C570.874 293.309 570.226 293.698 569.832 294.474C569.444 295.251 569.25 296.383 569.25 297.871C569.25 299.354 569.449 300.478 569.849 301.244C570.253 302.004 570.896 302.384 571.777 302.384C572.679 302.384 573.325 302.001 573.713 301.235C574.107 300.464 574.304 299.337 574.304 297.855ZM581.965 294.647C582.731 294.647 583.344 294.835 583.803 295.213C584.263 295.585 584.594 296.11 584.796 296.788C584.998 297.461 585.1 298.254 585.1 299.168C585.1 300.043 584.976 300.822 584.73 301.506C584.484 302.19 584.115 302.729 583.623 303.123C583.13 303.511 582.512 303.705 581.768 303.705C580.838 303.705 580.089 303.377 579.52 302.721V306.815L577.945 307.004V294.852H579.299L579.413 296.017C580.081 295.103 580.931 294.647 581.965 294.647ZM581.563 295.886C581.115 295.886 580.718 296.022 580.373 296.296C580.029 296.564 579.744 296.87 579.52 297.215V301.399C579.739 301.722 580.007 301.977 580.324 302.163C580.641 302.343 580.994 302.433 581.383 302.433C582.061 302.433 582.572 302.171 582.917 301.646C583.262 301.115 583.434 300.289 583.434 299.168C583.434 298.046 583.281 297.22 582.974 296.69C582.668 296.154 582.198 295.886 581.563 295.886ZM588.74 299.709C588.784 300.661 589.041 301.353 589.512 301.785C589.987 302.217 590.551 302.433 591.202 302.433C591.634 302.433 592.03 302.368 592.392 302.236C592.753 302.105 593.119 301.914 593.491 301.662L594.205 302.655C593.8 302.978 593.332 303.235 592.802 303.426C592.271 303.612 591.721 303.705 591.153 303.705C590.288 303.705 589.553 303.516 588.945 303.139C588.344 302.756 587.884 302.225 587.567 301.547C587.255 300.869 587.099 300.081 587.099 299.184C587.099 298.314 587.255 297.538 587.567 296.854C587.884 296.17 588.33 295.631 588.904 295.237C589.479 294.844 590.162 294.647 590.956 294.647C592.072 294.647 592.949 295.03 593.589 295.795C594.235 296.556 594.558 297.598 594.558 298.922C594.558 299.069 594.555 299.211 594.549 299.348C594.544 299.485 594.536 299.605 594.525 299.709H588.74ZM590.972 295.877C590.354 295.877 589.842 296.096 589.438 296.534C589.033 296.971 588.8 297.647 588.74 298.561H593.04C593.023 297.685 592.832 297.021 592.465 296.567C592.104 296.107 591.607 295.877 590.972 295.877ZM596.992 303.5V294.852H598.346L598.461 296.017C598.816 295.574 599.249 295.235 599.757 294.999C600.271 294.764 600.783 294.647 601.292 294.647C602.123 294.647 602.736 294.874 603.13 295.328C603.523 295.776 603.72 296.403 603.72 297.207V303.5H602.145V298.175C602.145 297.628 602.112 297.185 602.047 296.846C601.986 296.506 601.858 296.26 601.661 296.107C601.464 295.949 601.166 295.869 600.767 295.869C600.296 295.869 599.869 296.014 599.487 296.304C599.104 296.594 598.797 296.906 598.568 297.239V303.5H596.992ZM608.362 302.187C608.362 301.771 608.504 301.419 608.789 301.129C609.079 300.839 609.434 300.694 609.855 300.694C610.288 300.694 610.649 300.839 610.938 301.129C611.228 301.419 611.373 301.771 611.373 302.187C611.373 302.608 611.228 302.967 610.938 303.262C610.649 303.557 610.288 303.705 609.855 303.705C609.434 303.705 609.079 303.557 608.789 303.262C608.504 302.967 608.362 302.608 608.362 302.187ZM631.02 300.686H626.737L625.883 303.5H624.251L627.894 292.193H629.945L633.596 303.5H631.873L631.02 300.686ZM627.114 299.381H630.642L628.887 293.506L627.114 299.381ZM636.663 294.852V300.94C636.663 301.487 636.772 301.881 636.991 302.122C637.215 302.357 637.56 302.474 638.025 302.474C638.462 302.474 638.881 302.346 639.28 302.089C639.685 301.832 639.999 301.525 640.224 301.17V294.852H641.799V303.5H640.445L640.33 302.359C639.997 302.797 639.581 303.131 639.083 303.361C638.591 303.59 638.09 303.705 637.582 303.705C636.745 303.705 636.118 303.478 635.703 303.024C635.292 302.57 635.087 301.941 635.087 301.137V294.852H636.663ZM651.635 303.057C651.328 303.254 650.959 303.41 650.527 303.525C650.1 303.645 649.668 303.705 649.23 303.705C648.268 303.705 647.529 303.454 647.015 302.95C646.506 302.447 646.252 301.793 646.252 300.989V296.033H644.291V294.852H646.252V292.899L647.827 292.71V294.852H650.781L650.601 296.033H647.827V300.973C647.827 301.449 647.948 301.807 648.188 302.048C648.435 302.288 648.842 302.409 649.411 302.409C649.728 302.409 650.021 302.373 650.289 302.302C650.562 302.225 650.814 302.124 651.044 301.998L651.635 303.057ZM655.71 291.217V295.976C656.055 295.538 656.468 295.207 656.949 294.983C657.436 294.759 657.931 294.647 658.434 294.647C659.266 294.647 659.878 294.874 660.272 295.328C660.666 295.776 660.863 296.403 660.863 297.207V303.5H659.288V297.346C659.288 296.826 659.175 296.452 658.951 296.222C658.732 295.987 658.382 295.869 657.901 295.869C657.441 295.869 657.017 296.014 656.629 296.304C656.246 296.594 655.94 296.909 655.71 297.248V303.5H654.135V291.389L655.71 291.217ZM667.031 294.647C668.267 294.647 669.205 295.057 669.845 295.877C670.491 296.698 670.813 297.795 670.813 299.168C670.813 300.059 670.666 300.847 670.37 301.531C670.08 302.215 669.654 302.748 669.09 303.131C668.527 303.514 667.835 303.705 667.014 303.705C665.778 303.705 664.834 303.295 664.184 302.474C663.538 301.654 663.215 300.557 663.215 299.184C663.215 298.287 663.36 297.499 663.65 296.821C663.946 296.137 664.375 295.604 664.938 295.221C665.507 294.838 666.205 294.647 667.031 294.647ZM667.031 295.902C666.32 295.902 665.784 296.17 665.423 296.706C665.062 297.237 664.881 298.063 664.881 299.184C664.881 300.295 665.059 301.118 665.414 301.654C665.77 302.184 666.303 302.45 667.014 302.45C667.725 302.45 668.259 302.184 668.614 301.654C668.97 301.118 669.148 300.289 669.148 299.168C669.148 298.052 668.97 297.229 668.614 296.698C668.259 296.167 667.731 295.902 667.031 295.902ZM673.264 303.5V302.335H674.577V296.017H673.264V294.852H675.783L676.07 296.878C676.399 296.162 676.801 295.612 677.277 295.229C677.758 294.841 678.381 294.647 679.147 294.647C679.399 294.647 679.62 294.666 679.812 294.704C680.009 294.742 680.208 294.792 680.411 294.852L680.165 297.888H678.95V296.083H678.942C677.646 296.083 676.716 297.01 676.152 298.864V302.335H677.908V303.5H673.264ZM684.659 296.427C684.659 296.044 684.793 295.719 685.061 295.451C685.329 295.177 685.657 295.041 686.045 295.041C686.445 295.041 686.778 295.177 687.046 295.451C687.314 295.719 687.448 296.044 687.448 296.427C687.448 296.81 687.314 297.138 687.046 297.412C686.778 297.685 686.445 297.822 686.045 297.822C685.657 297.822 685.329 297.685 685.061 297.412C684.793 297.138 684.659 296.81 684.659 296.427ZM684.659 302.302C684.659 301.93 684.793 301.607 685.061 301.334C685.329 301.06 685.657 300.924 686.045 300.924C686.445 300.924 686.778 301.06 687.046 301.334C687.314 301.607 687.448 301.93 687.448 302.302C687.448 302.69 687.314 303.021 687.046 303.295C686.778 303.568 686.445 303.705 686.045 303.705C685.657 303.705 685.329 303.568 685.061 303.295C684.793 303.021 684.659 302.69 684.659 302.302ZM708.892 293.851L709.351 295.246C708.99 295.361 708.602 295.434 708.186 295.467C707.776 295.5 707.322 295.516 706.824 295.516C707.847 295.976 708.359 296.703 708.359 297.699C708.359 298.552 708.063 299.255 707.472 299.808C706.887 300.36 706.075 300.636 705.036 300.636C704.762 300.636 704.53 300.625 704.338 300.604C704.147 300.576 703.963 300.535 703.788 300.481C703.509 300.677 703.37 300.94 703.37 301.268C703.37 301.46 703.446 301.624 703.6 301.761C703.753 301.892 704.051 301.957 704.494 301.957H706.028C706.625 301.957 707.155 302.061 707.62 302.269C708.091 302.477 708.46 302.762 708.728 303.123C708.996 303.478 709.13 303.88 709.13 304.329C709.13 305.188 708.763 305.847 708.03 306.306C707.303 306.771 706.264 307.004 704.912 307.004C703.961 307.004 703.211 306.905 702.664 306.708C702.123 306.511 701.737 306.219 701.507 305.83C701.283 305.442 701.171 304.955 701.171 304.37H702.59C702.59 304.692 702.653 304.958 702.779 305.166C702.905 305.379 703.135 305.535 703.468 305.633C703.802 305.737 704.283 305.789 704.912 305.789C705.842 305.789 706.512 305.674 706.923 305.445C707.333 305.215 707.538 304.878 707.538 304.435C707.538 304.047 707.366 303.752 707.021 303.549C706.677 303.352 706.236 303.254 705.7 303.254H704.182C703.405 303.254 702.834 303.09 702.467 302.762C702.106 302.433 701.926 302.05 701.926 301.613C701.926 301.006 702.243 300.494 702.878 300.078C701.898 299.564 701.409 298.763 701.409 297.674C701.409 297.084 701.557 296.561 701.852 296.107C702.153 295.648 702.569 295.289 703.099 295.032C703.63 294.775 704.24 294.647 704.929 294.647C705.645 294.647 706.233 294.614 706.693 294.548C707.152 294.483 707.549 294.39 707.883 294.269C708.216 294.149 708.553 294.009 708.892 293.851ZM704.937 295.763C704.286 295.763 703.802 295.943 703.485 296.304C703.173 296.66 703.017 297.116 703.017 297.674C703.017 298.243 703.178 298.705 703.501 299.061C703.824 299.417 704.313 299.594 704.97 299.594C705.55 299.594 705.993 299.425 706.299 299.086C706.605 298.746 706.759 298.271 706.759 297.658C706.759 296.394 706.151 295.763 704.937 295.763ZM712.853 294.852V300.94C712.853 301.487 712.962 301.881 713.181 302.122C713.405 302.357 713.75 302.474 714.215 302.474C714.652 302.474 715.071 302.346 715.47 302.089C715.875 301.832 716.189 301.525 716.414 301.17V294.852H717.989V303.5H716.635L716.52 302.359C716.187 302.797 715.771 303.131 715.273 303.361C714.781 303.59 714.28 303.705 713.772 303.705C712.935 303.705 712.308 303.478 711.893 303.024C711.482 302.57 711.277 301.941 711.277 301.137V294.852H712.853ZM728.161 294.852L725.141 303.549C724.934 304.162 724.666 304.714 724.337 305.207C724.009 305.704 723.585 306.109 723.066 306.421C722.551 306.733 721.903 306.927 721.121 307.004L720.899 305.781C721.49 305.688 721.958 305.546 722.302 305.354C722.653 305.163 722.926 304.914 723.123 304.608C723.325 304.301 723.506 303.932 723.665 303.5H723.131L720.153 294.852H721.835L724.19 302.351L726.536 294.852H728.161ZM733.681 290.716C734.009 290.716 734.271 290.818 734.468 291.02C734.671 291.222 734.772 291.469 734.772 291.758C734.772 292.059 734.671 292.314 734.468 292.522C734.271 292.724 734.009 292.825 733.681 292.825C733.358 292.825 733.095 292.724 732.893 292.522C732.696 292.314 732.598 292.059 732.598 291.758C732.598 291.469 732.696 291.222 732.893 291.02C733.095 290.818 733.358 290.716 733.681 290.716ZM734.854 294.852V302.302H737.258V303.5H730.645V302.302H733.279V296.05H730.727V294.852H734.854ZM739.848 303.5V294.852H741.202L741.317 296.017C741.673 295.574 742.105 295.235 742.614 294.999C743.128 294.764 743.639 294.647 744.148 294.647C744.979 294.647 745.592 294.874 745.986 295.328C746.38 295.776 746.577 296.403 746.577 297.207V303.5H745.001V298.175C745.001 297.628 744.968 297.185 744.903 296.846C744.843 296.506 744.714 296.26 744.517 296.107C744.32 295.949 744.022 295.869 743.623 295.869C743.152 295.869 742.726 296.014 742.343 296.304C741.96 296.594 741.654 296.906 741.424 297.239V303.5H739.848ZM753.393 302.376C753.814 302.376 754.205 302.308 754.566 302.171C754.933 302.029 755.274 301.845 755.592 301.621L756.347 302.647C755.964 302.964 755.504 303.221 754.968 303.418C754.437 303.609 753.904 303.705 753.368 303.705C752.498 303.705 751.754 303.519 751.136 303.147C750.524 302.775 750.056 302.253 749.733 301.58C749.41 300.907 749.249 300.119 749.249 299.217C749.249 298.342 749.41 297.562 749.733 296.878C750.061 296.189 750.535 295.645 751.153 295.246C751.771 294.846 752.517 294.647 753.393 294.647C754.52 294.647 755.499 294.986 756.33 295.664L755.583 296.69C754.856 296.186 754.128 295.935 753.401 295.935C752.679 295.935 752.088 296.203 751.629 296.739C751.169 297.275 750.939 298.101 750.939 299.217C750.939 300.338 751.169 301.145 751.629 301.637C752.094 302.13 752.682 302.376 753.393 302.376ZM762.268 294.647C763.504 294.647 764.443 295.057 765.083 295.877C765.728 296.698 766.051 297.795 766.051 299.168C766.051 300.059 765.903 300.847 765.608 301.531C765.318 302.215 764.891 302.748 764.328 303.131C763.764 303.514 763.072 303.705 762.252 303.705C761.016 303.705 760.072 303.295 759.421 302.474C758.776 301.654 758.453 300.557 758.453 299.184C758.453 298.287 758.598 297.499 758.888 296.821C759.183 296.137 759.612 295.604 760.176 295.221C760.745 294.838 761.442 294.647 762.268 294.647ZM762.268 295.902C761.557 295.902 761.021 296.17 760.66 296.706C760.299 297.237 760.118 298.063 760.118 299.184C760.118 300.295 760.296 301.118 760.652 301.654C761.007 302.184 761.541 302.45 762.252 302.45C762.963 302.45 763.496 302.184 763.852 301.654C764.207 301.118 764.385 300.289 764.385 299.168C764.385 298.052 764.207 297.229 763.852 296.698C763.496 296.167 762.968 295.902 762.268 295.902ZM775.558 293.851L776.018 295.246C775.657 295.361 775.268 295.434 774.852 295.467C774.442 295.5 773.988 295.516 773.49 295.516C774.513 295.976 775.025 296.703 775.025 297.699C775.025 298.552 774.729 299.255 774.139 299.808C773.553 300.36 772.741 300.636 771.702 300.636C771.428 300.636 771.196 300.625 771.004 300.604C770.813 300.576 770.63 300.535 770.455 300.481C770.176 300.677 770.036 300.94 770.036 301.268C770.036 301.46 770.113 301.624 770.266 301.761C770.419 301.892 770.717 301.957 771.16 301.957H772.695C773.291 301.957 773.821 302.061 774.286 302.269C774.757 302.477 775.126 302.762 775.394 303.123C775.662 303.478 775.796 303.88 775.796 304.329C775.796 305.188 775.43 305.847 774.697 306.306C773.969 306.771 772.93 307.004 771.579 307.004C770.627 307.004 769.877 306.905 769.33 306.708C768.789 306.511 768.403 306.219 768.174 305.83C767.949 305.442 767.837 304.955 767.837 304.37H769.257C769.257 304.692 769.319 304.958 769.445 305.166C769.571 305.379 769.801 305.535 770.135 305.633C770.468 305.737 770.95 305.789 771.579 305.789C772.509 305.789 773.179 305.674 773.589 305.445C773.999 305.215 774.204 304.878 774.204 304.435C774.204 304.047 774.032 303.752 773.687 303.549C773.343 303.352 772.902 303.254 772.366 303.254H770.848C770.072 303.254 769.5 303.09 769.134 302.762C768.772 302.433 768.592 302.05 768.592 301.613C768.592 301.006 768.909 300.494 769.544 300.078C768.565 299.564 768.075 298.763 768.075 297.674C768.075 297.084 768.223 296.561 768.518 296.107C768.819 295.648 769.235 295.289 769.765 295.032C770.296 294.775 770.906 294.647 771.595 294.647C772.312 294.647 772.9 294.614 773.359 294.548C773.819 294.483 774.215 294.39 774.549 294.269C774.883 294.149 775.219 294.009 775.558 293.851ZM771.603 295.763C770.952 295.763 770.468 295.943 770.151 296.304C769.839 296.66 769.683 297.116 769.683 297.674C769.683 298.243 769.845 298.705 770.167 299.061C770.49 299.417 770.98 299.594 771.636 299.594C772.216 299.594 772.659 299.425 772.965 299.086C773.272 298.746 773.425 298.271 773.425 297.658C773.425 296.394 772.818 295.763 771.603 295.763ZM777.943 303.5V294.852H779.297L779.412 296.017C779.768 295.574 780.2 295.235 780.709 294.999C781.223 294.764 781.734 294.647 782.243 294.647C783.074 294.647 783.687 294.874 784.081 295.328C784.475 295.776 784.672 296.403 784.672 297.207V303.5H783.096V298.175C783.096 297.628 783.063 297.185 782.998 296.846C782.938 296.506 782.809 296.26 782.612 296.107C782.415 295.949 782.117 295.869 781.718 295.869C781.247 295.869 780.821 296.014 780.438 296.304C780.055 296.594 779.749 296.906 779.519 297.239V303.5H777.943ZM790.823 290.716C791.151 290.716 791.414 290.818 791.611 291.02C791.813 291.222 791.914 291.469 791.914 291.758C791.914 292.059 791.813 292.314 791.611 292.522C791.414 292.724 791.151 292.825 790.823 292.825C790.5 292.825 790.238 292.724 790.035 292.522C789.838 292.314 789.74 292.059 789.74 291.758C789.74 291.469 789.838 291.222 790.035 291.02C790.238 290.818 790.5 290.716 790.823 290.716ZM791.996 294.852V302.302H794.401V303.5H787.787V302.302H790.421V296.05H787.869V294.852H791.996ZM804.015 303.057C803.708 303.254 803.339 303.41 802.907 303.525C802.48 303.645 802.048 303.705 801.61 303.705C800.648 303.705 799.909 303.454 799.395 302.95C798.886 302.447 798.632 301.793 798.632 300.989V296.033H796.671V294.852H798.632V292.899L800.207 292.71V294.852H803.161L802.981 296.033H800.207V300.973C800.207 301.449 800.328 301.807 800.568 302.048C800.815 302.288 801.222 302.409 801.791 302.409C802.108 302.409 802.401 302.373 802.669 302.302C802.942 302.225 803.194 302.124 803.424 301.998L804.015 303.057ZM809.887 294.647C811.123 294.647 812.061 295.057 812.701 295.877C813.347 296.698 813.67 297.795 813.67 299.168C813.67 300.059 813.522 300.847 813.226 301.531C812.937 302.215 812.51 302.748 811.946 303.131C811.383 303.514 810.691 303.705 809.871 303.705C808.634 303.705 807.691 303.295 807.04 302.474C806.394 301.654 806.072 300.557 806.072 299.184C806.072 298.287 806.217 297.499 806.506 296.821C806.802 296.137 807.231 295.604 807.795 295.221C808.364 294.838 809.061 294.647 809.887 294.647ZM809.887 295.902C809.176 295.902 808.64 296.17 808.279 296.706C807.918 297.237 807.737 298.063 807.737 299.184C807.737 300.295 807.915 301.118 808.271 301.654C808.626 302.184 809.159 302.45 809.871 302.45C810.582 302.45 811.115 302.184 811.471 301.654C811.826 301.118 812.004 300.289 812.004 299.168C812.004 298.052 811.826 297.229 811.471 296.698C811.115 296.167 810.587 295.902 809.887 295.902ZM817.885 302.187C817.885 301.771 818.027 301.419 818.311 301.129C818.601 300.839 818.957 300.694 819.378 300.694C819.81 300.694 820.171 300.839 820.461 301.129C820.751 301.419 820.896 301.771 820.896 302.187C820.896 302.608 820.751 302.967 820.461 303.262C820.171 303.557 819.81 303.705 819.378 303.705C818.957 303.705 818.601 303.557 818.311 303.262C818.027 302.967 817.885 302.608 817.885 302.187ZM842.257 292.193L842.897 303.5H841.371L841.051 297.765C841.024 297.229 841.005 296.695 840.994 296.165C840.983 295.634 840.977 295.15 840.977 294.712C840.983 294.269 840.991 293.916 841.002 293.654L839.197 301.49H837.671L835.734 293.654C835.751 293.905 835.761 294.261 835.767 294.721C835.778 295.18 835.781 295.681 835.775 296.222C835.775 296.758 835.767 297.272 835.751 297.765L835.48 303.5H833.986L834.626 292.193H836.735L838.475 299.865L840.132 292.193H842.257ZM847.982 294.647C849.218 294.647 850.156 295.057 850.796 295.877C851.442 296.698 851.765 297.795 851.765 299.168C851.765 300.059 851.617 300.847 851.321 301.531C851.032 302.215 850.605 302.748 850.041 303.131C849.478 303.514 848.786 303.705 847.966 303.705C846.729 303.705 845.786 303.295 845.135 302.474C844.489 301.654 844.167 300.557 844.167 299.184C844.167 298.287 844.312 297.499 844.601 296.821C844.897 296.137 845.326 295.604 845.89 295.221C846.459 294.838 847.156 294.647 847.982 294.647ZM847.982 295.902C847.271 295.902 846.735 296.17 846.374 296.706C846.013 297.237 845.832 298.063 845.832 299.184C845.832 300.295 846.01 301.118 846.366 301.654C846.721 302.184 847.254 302.45 847.966 302.45C848.677 302.45 849.21 302.184 849.566 301.654C849.921 301.118 850.099 300.289 850.099 299.168C850.099 298.052 849.921 297.229 849.566 296.698C849.21 296.167 848.682 295.902 847.982 295.902ZM854.215 303.5V302.335H855.528V296.017H854.215V294.852H856.734L857.022 296.878C857.35 296.162 857.752 295.612 858.228 295.229C858.709 294.841 859.333 294.647 860.099 294.647C860.35 294.647 860.572 294.666 860.763 294.704C860.96 294.742 861.16 294.792 861.362 294.852L861.116 297.888H859.902V296.083H859.893C858.597 296.083 857.667 297.01 857.104 298.864V302.335H858.86V303.5H854.215ZM864.929 299.709C864.973 300.661 865.23 301.353 865.7 301.785C866.176 302.217 866.74 302.433 867.391 302.433C867.823 302.433 868.219 302.368 868.58 302.236C868.941 302.105 869.308 301.914 869.68 301.662L870.394 302.655C869.989 302.978 869.521 303.235 868.991 303.426C868.46 303.612 867.91 303.705 867.341 303.705C866.477 303.705 865.741 303.516 865.134 303.139C864.532 302.756 864.073 302.225 863.756 301.547C863.444 300.869 863.288 300.081 863.288 299.184C863.288 298.314 863.444 297.538 863.756 296.854C864.073 296.17 864.519 295.631 865.093 295.237C865.667 294.844 866.351 294.647 867.144 294.647C868.26 294.647 869.138 295.03 869.778 295.795C870.424 296.556 870.746 297.598 870.746 298.922C870.746 299.069 870.744 299.211 870.738 299.348C870.733 299.485 870.725 299.605 870.714 299.709H864.929ZM867.161 295.877C866.543 295.877 866.031 296.096 865.626 296.534C865.222 296.971 864.989 297.647 864.929 298.561H869.228C869.212 297.685 869.021 297.021 868.654 296.567C868.293 296.107 867.795 295.877 867.161 295.877ZM886.061 290.716C886.389 290.716 886.651 290.818 886.848 291.02C887.051 291.222 887.152 291.469 887.152 291.758C887.152 292.059 887.051 292.314 886.848 292.522C886.651 292.724 886.389 292.825 886.061 292.825C885.738 292.825 885.475 292.724 885.273 292.522C885.076 292.314 884.978 292.059 884.978 291.758C884.978 291.469 885.076 291.222 885.273 291.02C885.475 290.818 885.738 290.716 886.061 290.716ZM887.234 294.852V302.302H889.638V303.5H883.025V302.302H885.659V296.05H883.107V294.852H887.234ZM892.228 303.5V294.852H893.582L893.697 296.017C894.053 295.574 894.485 295.235 894.994 294.999C895.508 294.764 896.019 294.647 896.528 294.647C897.359 294.647 897.972 294.874 898.366 295.328C898.76 295.776 898.957 296.403 898.957 297.207V303.5H897.381V298.175C897.381 297.628 897.348 297.185 897.283 296.846C897.223 296.506 897.094 296.26 896.897 296.107C896.7 295.949 896.402 295.869 896.003 295.869C895.532 295.869 895.106 296.014 894.723 296.304C894.34 296.594 894.034 296.906 893.804 297.239V303.5H892.228ZM906.93 291.184C907.422 291.184 907.865 291.228 908.259 291.315C908.653 291.397 909.025 291.515 909.375 291.668L908.882 292.801C908.603 292.675 908.305 292.584 907.988 292.53C907.676 292.47 907.356 292.439 907.028 292.439C905.857 292.439 905.272 292.907 905.272 293.843V295.5H908.193L908.021 296.698H905.272V303.5H903.705V296.698H901.678V295.5H903.705V293.851C903.705 293.315 903.842 292.847 904.115 292.448C904.394 292.048 904.774 291.739 905.256 291.521C905.743 291.296 906.301 291.184 906.93 291.184ZM914.648 294.647C915.884 294.647 916.823 295.057 917.463 295.877C918.108 296.698 918.431 297.795 918.431 299.168C918.431 300.059 918.283 300.847 917.988 301.531C917.698 302.215 917.271 302.748 916.708 303.131C916.144 303.514 915.452 303.705 914.632 303.705C913.396 303.705 912.452 303.295 911.801 302.474C911.156 301.654 910.833 300.557 910.833 299.184C910.833 298.287 910.978 297.499 911.268 296.821C911.563 296.137 911.993 295.604 912.556 295.221C913.125 294.838 913.822 294.647 914.648 294.647ZM914.648 295.902C913.937 295.902 913.401 296.17 913.04 296.706C912.679 297.237 912.498 298.063 912.498 299.184C912.498 300.295 912.676 301.118 913.032 301.654C913.387 302.184 913.921 302.45 914.632 302.45C915.343 302.45 915.876 302.184 916.232 301.654C916.587 301.118 916.765 300.289 916.765 299.168C916.765 298.052 916.587 297.229 916.232 296.698C915.876 296.167 915.348 295.902 914.648 295.902ZM920.882 303.5V302.335H922.195V296.017H920.882V294.852H923.401L923.688 296.878C924.016 296.162 924.418 295.612 924.894 295.229C925.375 294.841 925.999 294.647 926.765 294.647C927.016 294.647 927.238 294.666 927.429 294.704C927.626 294.742 927.826 294.792 928.028 294.852L927.782 297.888H926.568V296.083H926.56C925.263 296.083 924.333 297.01 923.77 298.864V302.335H925.526V303.5H920.882ZM936.141 294.647C936.436 294.647 936.712 294.712 936.97 294.844C937.232 294.975 937.443 295.216 937.601 295.566C937.76 295.91 937.839 296.411 937.839 297.067V303.5H936.403V297.297C936.403 296.794 936.371 296.433 936.305 296.214C936.245 295.99 936.07 295.877 935.78 295.877C935.539 295.877 935.298 295.951 935.058 296.099C934.823 296.247 934.593 296.493 934.369 296.837V303.5H932.99V297.297C932.99 296.794 932.957 296.433 932.892 296.214C932.831 295.99 932.656 295.877 932.366 295.877C932.12 295.877 931.88 295.951 931.644 296.099C931.409 296.247 931.179 296.493 930.955 296.837V303.5H929.519V294.852H930.734L930.832 295.82C931.073 295.486 931.338 295.207 931.628 294.983C931.923 294.759 932.282 294.647 932.703 294.647C933.031 294.647 933.335 294.726 933.614 294.885C933.898 295.043 934.106 295.339 934.237 295.771C934.472 295.437 934.74 295.166 935.041 294.958C935.342 294.751 935.709 294.647 936.141 294.647ZM946.223 301.514C946.223 301.859 946.277 302.111 946.387 302.269C946.496 302.422 946.668 302.537 946.904 302.614L946.534 303.697C946.141 303.648 945.796 303.53 945.501 303.344C945.211 303.158 944.997 302.874 944.861 302.491C944.549 302.896 944.155 303.199 943.679 303.402C943.203 303.604 942.686 303.705 942.128 303.705C941.258 303.705 940.572 303.459 940.069 302.967C939.565 302.474 939.314 301.826 939.314 301.022C939.314 300.125 939.664 299.436 940.364 298.954C941.07 298.468 942.082 298.224 943.4 298.224H944.655V297.568C944.655 296.971 944.478 296.548 944.122 296.296C943.772 296.044 943.282 295.918 942.653 295.918C942.363 295.918 942.022 295.954 941.628 296.025C941.239 296.096 940.824 296.208 940.381 296.362L939.978 295.213C940.509 295.01 941.021 294.865 941.513 294.778C942.005 294.69 942.465 294.647 942.891 294.647C944.002 294.647 944.833 294.901 945.386 295.41C945.944 295.918 946.223 296.61 946.223 297.486V301.514ZM942.571 302.524C942.971 302.524 943.356 302.42 943.728 302.212C944.106 302.004 944.415 301.714 944.655 301.342V299.25H943.507C942.593 299.25 941.945 299.406 941.562 299.717C941.179 300.024 940.988 300.445 940.988 300.981C940.988 302.009 941.516 302.524 942.571 302.524ZM956.395 303.057C956.088 303.254 955.719 303.41 955.287 303.525C954.86 303.645 954.428 303.705 953.99 303.705C953.028 303.705 952.289 303.454 951.775 302.95C951.266 302.447 951.012 301.793 951.012 300.989V296.033H949.051V294.852H951.012V292.899L952.587 292.71V294.852H955.541L955.361 296.033H952.587V300.973C952.587 301.449 952.708 301.807 952.948 302.048C953.195 302.288 953.602 302.409 954.171 302.409C954.488 302.409 954.781 302.373 955.049 302.302C955.322 302.225 955.574 302.124 955.804 301.998L956.395 303.057ZM962.251 290.716C962.579 290.716 962.841 290.818 963.038 291.02C963.241 291.222 963.342 291.469 963.342 291.758C963.342 292.059 963.241 292.314 963.038 292.522C962.841 292.724 962.579 292.825 962.251 292.825C961.928 292.825 961.665 292.724 961.463 292.522C961.266 292.314 961.168 292.059 961.168 291.758C961.168 291.469 961.266 291.222 961.463 291.02C961.665 290.818 961.928 290.716 962.251 290.716ZM963.424 294.852V302.302H965.828V303.5H959.215V302.302H961.849V296.05H959.297V294.852H963.424ZM971.791 294.647C973.027 294.647 973.965 295.057 974.605 295.877C975.251 296.698 975.573 297.795 975.573 299.168C975.573 300.059 975.426 300.847 975.13 301.531C974.84 302.215 974.414 302.748 973.85 303.131C973.287 303.514 972.595 303.705 971.774 303.705C970.538 303.705 969.595 303.295 968.944 302.474C968.298 301.654 967.975 300.557 967.975 299.184C967.975 298.287 968.12 297.499 968.41 296.821C968.706 296.137 969.135 295.604 969.698 295.221C970.267 294.838 970.965 294.647 971.791 294.647ZM971.791 295.902C971.08 295.902 970.544 296.17 970.183 296.706C969.822 297.237 969.641 298.063 969.641 299.184C969.641 300.295 969.819 301.118 970.174 301.654C970.53 302.184 971.063 302.45 971.774 302.45C972.485 302.45 973.019 302.184 973.374 301.654C973.73 301.118 973.908 300.289 973.908 299.168C973.908 298.052 973.73 297.229 973.374 296.698C973.019 296.167 972.491 295.902 971.791 295.902ZM977.942 303.5V294.852H979.296L979.411 296.017C979.766 295.574 980.199 295.235 980.707 294.999C981.221 294.764 981.733 294.647 982.242 294.647C983.073 294.647 983.686 294.874 984.08 295.328C984.473 295.776 984.67 296.403 984.67 297.207V303.5H983.095V298.175C983.095 297.628 983.062 297.185 982.997 296.846C982.936 296.506 982.808 296.26 982.611 296.107C982.414 295.949 982.116 295.869 981.717 295.869C981.246 295.869 980.819 296.014 980.437 296.304C980.054 296.594 979.747 296.906 979.518 297.239V303.5H977.942ZM1003.37 301.514C1003.37 301.859 1003.42 302.111 1003.53 302.269C1003.64 302.422 1003.81 302.537 1004.05 302.614L1003.68 303.697C1003.28 303.648 1002.94 303.53 1002.64 303.344C1002.35 303.158 1002.14 302.874 1002 302.491C1001.69 302.896 1001.3 303.199 1000.82 303.402C1000.35 303.604 999.829 303.705 999.271 303.705C998.401 303.705 997.714 303.459 997.211 302.967C996.708 302.474 996.456 301.826 996.456 301.022C996.456 300.125 996.806 299.436 997.507 298.954C998.212 298.468 999.224 298.224 1000.54 298.224H1001.8V297.568C1001.8 296.971 1001.62 296.548 1001.26 296.296C1000.91 296.044 1000.42 295.918 999.796 295.918C999.506 295.918 999.164 295.954 998.77 296.025C998.382 296.096 997.966 296.208 997.523 296.362L997.121 295.213C997.652 295.01 998.163 294.865 998.655 294.778C999.148 294.69 999.607 294.647 1000.03 294.647C1001.14 294.647 1001.98 294.901 1002.53 295.41C1003.09 295.918 1003.37 296.61 1003.37 297.486V301.514ZM999.714 302.524C1000.11 302.524 1000.5 302.42 1000.87 302.212C1001.25 302.004 1001.56 301.714 1001.8 301.342V299.25H1000.65C999.736 299.25 999.087 299.406 998.705 299.717C998.322 300.024 998.13 300.445 998.13 300.981C998.13 302.009 998.658 302.524 999.714 302.524ZM1013.88 294.852L1010.78 303.5H1008.94L1005.86 294.852H1007.53L1009.9 302.13L1012.27 294.852H1013.88ZM1022.41 301.514C1022.41 301.859 1022.47 302.111 1022.58 302.269C1022.69 302.422 1022.86 302.537 1023.09 302.614L1022.72 303.697C1022.33 303.648 1021.99 303.53 1021.69 303.344C1021.4 303.158 1021.19 302.874 1021.05 302.491C1020.74 302.896 1020.34 303.199 1019.87 303.402C1019.39 303.604 1018.88 303.705 1018.32 303.705C1017.45 303.705 1016.76 303.459 1016.26 302.967C1015.76 302.474 1015.5 301.826 1015.5 301.022C1015.5 300.125 1015.85 299.436 1016.55 298.954C1017.26 298.468 1018.27 298.224 1019.59 298.224H1020.85V297.568C1020.85 296.971 1020.67 296.548 1020.31 296.296C1019.96 296.044 1019.47 295.918 1018.84 295.918C1018.55 295.918 1018.21 295.954 1017.82 296.025C1017.43 296.096 1017.01 296.208 1016.57 296.362L1016.17 295.213C1016.7 295.01 1017.21 294.865 1017.7 294.778C1018.2 294.69 1018.65 294.647 1019.08 294.647C1020.19 294.647 1021.02 294.901 1021.58 295.41C1022.13 295.918 1022.41 296.61 1022.41 297.486V301.514ZM1018.76 302.524C1019.16 302.524 1019.55 302.42 1019.92 302.212C1020.3 302.004 1020.6 301.714 1020.85 301.342V299.25H1019.7C1018.78 299.25 1018.13 299.406 1017.75 299.717C1017.37 300.024 1017.18 300.445 1017.18 300.981C1017.18 302.009 1017.71 302.524 1018.76 302.524ZM1028.92 290.716C1029.25 290.716 1029.51 290.818 1029.7 291.02C1029.91 291.222 1030.01 291.469 1030.01 291.758C1030.01 292.059 1029.91 292.314 1029.7 292.522C1029.51 292.724 1029.25 292.825 1028.92 292.825C1028.59 292.825 1028.33 292.724 1028.13 292.522C1027.93 292.314 1027.83 292.059 1027.83 291.758C1027.83 291.469 1027.93 291.222 1028.13 291.02C1028.33 290.818 1028.59 290.716 1028.92 290.716ZM1030.09 294.852V302.302H1032.49V303.5H1025.88V302.302H1028.51V296.05H1025.96V294.852H1030.09ZM1038.64 291.373V301.268C1038.64 301.684 1038.77 301.979 1039.02 302.154C1039.28 302.324 1039.61 302.409 1040.02 302.409C1040.27 302.409 1040.52 302.384 1040.75 302.335C1040.98 302.28 1041.21 302.206 1041.44 302.113L1041.85 303.237C1041.61 303.363 1041.3 303.473 1040.94 303.566C1040.58 303.659 1040.17 303.705 1039.72 303.705C1038.91 303.705 1038.26 303.478 1037.78 303.024C1037.3 302.57 1037.06 301.946 1037.06 301.153V292.571H1034.43V291.373H1038.64ZM1050.98 301.514C1050.98 301.859 1051.04 302.111 1051.15 302.269C1051.26 302.422 1051.43 302.537 1051.66 302.614L1051.3 303.697C1050.9 303.648 1050.56 303.53 1050.26 303.344C1049.97 303.158 1049.76 302.874 1049.62 302.491C1049.31 302.896 1048.92 303.199 1048.44 303.402C1047.96 303.604 1047.45 303.705 1046.89 303.705C1046.02 303.705 1045.33 303.459 1044.83 302.967C1044.33 302.474 1044.08 301.826 1044.08 301.022C1044.08 300.125 1044.43 299.436 1045.13 298.954C1045.83 298.468 1046.84 298.224 1048.16 298.224H1049.42V297.568C1049.42 296.971 1049.24 296.548 1048.88 296.296C1048.53 296.044 1048.04 295.918 1047.41 295.918C1047.12 295.918 1046.78 295.954 1046.39 296.025C1046 296.096 1045.58 296.208 1045.14 296.362L1044.74 295.213C1045.27 295.01 1045.78 294.865 1046.27 294.778C1046.77 294.69 1047.23 294.647 1047.65 294.647C1048.76 294.647 1049.59 294.901 1050.15 295.41C1050.7 295.918 1050.98 296.61 1050.98 297.486V301.514ZM1047.33 302.524C1047.73 302.524 1048.12 302.42 1048.49 302.212C1048.87 302.004 1049.18 301.714 1049.42 301.342V299.25H1048.27C1047.35 299.25 1046.71 299.406 1046.32 299.717C1045.94 300.024 1045.75 300.445 1045.75 300.981C1045.75 302.009 1046.28 302.524 1047.33 302.524ZM1055.71 295.935C1056.01 295.53 1056.37 295.216 1056.78 294.991C1057.2 294.762 1057.65 294.647 1058.14 294.647C1058.9 294.647 1059.52 294.835 1060 295.213C1060.47 295.585 1060.82 296.11 1061.04 296.788C1061.26 297.461 1061.37 298.254 1061.37 299.168C1061.37 300.043 1061.24 300.822 1060.98 301.506C1060.71 302.19 1060.33 302.729 1059.82 303.123C1059.31 303.511 1058.68 303.705 1057.94 303.705C1056.95 303.705 1056.18 303.344 1055.62 302.622L1055.52 303.5H1054.13V291.373L1055.71 291.184V295.935ZM1057.55 302.466C1058.23 302.466 1058.75 302.198 1059.12 301.662C1059.49 301.121 1059.68 300.289 1059.68 299.168C1059.68 298.046 1059.51 297.22 1059.18 296.69C1058.85 296.154 1058.37 295.886 1057.75 295.886C1057.3 295.886 1056.91 296.022 1056.56 296.296C1056.22 296.564 1055.93 296.87 1055.71 297.215V301.399C1055.93 301.728 1056.19 301.988 1056.51 302.179C1056.83 302.37 1057.18 302.466 1057.55 302.466ZM1067.21 291.373V301.268C1067.21 301.684 1067.34 301.979 1067.59 302.154C1067.85 302.324 1068.18 302.409 1068.59 302.409C1068.84 302.409 1069.09 302.384 1069.32 302.335C1069.55 302.28 1069.78 302.206 1070.01 302.113L1070.42 303.237C1070.18 303.363 1069.88 303.473 1069.51 303.566C1069.15 303.659 1068.75 303.705 1068.29 303.705C1067.48 303.705 1066.83 303.478 1066.35 303.024C1065.87 302.57 1065.63 301.946 1065.63 301.153V292.571H1063V291.373H1067.21ZM1074.45 299.709C1074.5 300.661 1074.75 301.353 1075.22 301.785C1075.7 302.217 1076.26 302.433 1076.91 302.433C1077.35 302.433 1077.74 302.368 1078.1 302.236C1078.46 302.105 1078.83 301.914 1079.2 301.662L1079.92 302.655C1079.51 302.978 1079.04 303.235 1078.51 303.426C1077.98 303.612 1077.43 303.705 1076.86 303.705C1076 303.705 1075.26 303.516 1074.66 303.139C1074.05 302.756 1073.6 302.225 1073.28 301.547C1072.97 300.869 1072.81 300.081 1072.81 299.184C1072.81 298.314 1072.97 297.538 1073.28 296.854C1073.6 296.17 1074.04 295.631 1074.62 295.237C1075.19 294.844 1075.87 294.647 1076.67 294.647C1077.78 294.647 1078.66 295.03 1079.3 295.795C1079.95 296.556 1080.27 297.598 1080.27 298.922C1080.27 299.069 1080.27 299.211 1080.26 299.348C1080.26 299.485 1080.25 299.605 1080.24 299.709H1074.45ZM1076.68 295.877C1076.07 295.877 1075.55 296.096 1075.15 296.534C1074.74 296.971 1074.51 297.647 1074.45 298.561H1078.75C1078.73 297.685 1078.54 297.021 1078.18 296.567C1077.82 296.107 1077.32 295.877 1076.68 295.877ZM1093.8 295.935C1094.11 295.53 1094.47 295.216 1094.88 294.991C1095.29 294.762 1095.74 294.647 1096.23 294.647C1097 294.647 1097.62 294.835 1098.09 295.213C1098.57 295.585 1098.92 296.11 1099.14 296.788C1099.35 297.461 1099.46 298.254 1099.46 299.168C1099.46 300.043 1099.33 300.822 1099.07 301.506C1098.81 302.19 1098.42 302.729 1097.91 303.123C1097.4 303.511 1096.78 303.705 1096.03 303.705C1095.04 303.705 1094.27 303.344 1093.71 302.622L1093.61 303.5H1092.23V291.373L1093.8 291.184V295.935ZM1095.65 302.466C1096.33 302.466 1096.85 302.198 1097.22 301.662C1097.59 301.121 1097.77 300.289 1097.77 299.168C1097.77 298.046 1097.61 297.22 1097.27 296.69C1096.95 296.154 1096.47 295.886 1095.85 295.886C1095.4 295.886 1095 296.022 1094.66 296.296C1094.31 296.564 1094.03 296.87 1093.8 297.215V301.399C1094.02 301.728 1094.29 301.988 1094.61 302.179C1094.92 302.37 1095.27 302.466 1095.65 302.466ZM1103.02 299.709C1103.07 300.661 1103.32 301.353 1103.79 301.785C1104.27 302.217 1104.83 302.433 1105.48 302.433C1105.92 302.433 1106.31 302.368 1106.67 302.236C1107.03 302.105 1107.4 301.914 1107.77 301.662L1108.49 302.655C1108.08 302.978 1107.61 303.235 1107.08 303.426C1106.55 303.612 1106 303.705 1105.43 303.705C1104.57 303.705 1103.83 303.516 1103.23 303.139C1102.63 302.756 1102.17 302.225 1101.85 301.547C1101.54 300.869 1101.38 300.081 1101.38 299.184C1101.38 298.314 1101.54 297.538 1101.85 296.854C1102.17 296.17 1102.61 295.631 1103.19 295.237C1103.76 294.844 1104.44 294.647 1105.24 294.647C1106.35 294.647 1107.23 295.03 1107.87 295.795C1108.52 296.556 1108.84 297.598 1108.84 298.922C1108.84 299.069 1108.84 299.211 1108.83 299.348C1108.83 299.485 1108.82 299.605 1108.81 299.709H1103.02ZM1105.25 295.877C1104.64 295.877 1104.12 296.096 1103.72 296.534C1103.32 296.971 1103.08 297.647 1103.02 298.561H1107.32C1107.31 297.685 1107.11 297.021 1106.75 296.567C1106.39 296.107 1105.89 295.877 1105.25 295.877ZM1114.83 291.373V301.268C1114.83 301.684 1114.96 301.979 1115.21 302.154C1115.47 302.324 1115.8 302.409 1116.21 302.409C1116.46 302.409 1116.71 302.384 1116.94 302.335C1117.17 302.28 1117.4 302.206 1117.63 302.113L1118.04 303.237C1117.8 303.363 1117.49 303.473 1117.13 303.566C1116.77 303.659 1116.36 303.705 1115.91 303.705C1115.1 303.705 1114.45 303.478 1113.97 303.024C1113.49 302.57 1113.25 301.946 1113.25 301.153V292.571H1110.62V291.373H1114.83ZM1124.17 294.647C1125.41 294.647 1126.35 295.057 1126.99 295.877C1127.63 296.698 1127.95 297.795 1127.95 299.168C1127.95 300.059 1127.81 300.847 1127.51 301.531C1127.22 302.215 1126.79 302.748 1126.23 303.131C1125.67 303.514 1124.97 303.705 1124.15 303.705C1122.92 303.705 1121.97 303.295 1121.32 302.474C1120.68 301.654 1120.36 300.557 1120.36 299.184C1120.36 298.287 1120.5 297.499 1120.79 296.821C1121.09 296.137 1121.51 295.604 1122.08 295.221C1122.65 294.838 1123.34 294.647 1124.17 294.647ZM1124.17 295.902C1123.46 295.902 1122.92 296.17 1122.56 296.706C1122.2 297.237 1122.02 298.063 1122.02 299.184C1122.02 300.295 1122.2 301.118 1122.55 301.654C1122.91 302.184 1123.44 302.45 1124.15 302.45C1124.87 302.45 1125.4 302.184 1125.75 301.654C1126.11 301.118 1126.29 300.289 1126.29 299.168C1126.29 298.052 1126.11 297.229 1125.75 296.698C1125.4 296.167 1124.87 295.902 1124.17 295.902ZM1136.89 303.5H1134.79L1133.73 297.239L1132.59 303.5H1130.54L1129 294.852H1130.57L1131.59 302.524L1132.89 295.951H1134.61L1135.84 302.524L1136.85 294.852H1138.36L1136.89 303.5ZM1141.69 302.187C1141.69 301.771 1141.83 301.419 1142.12 301.129C1142.41 300.839 1142.76 300.694 1143.19 300.694C1143.62 300.694 1143.98 300.839 1144.27 301.129C1144.56 301.419 1144.7 301.771 1144.7 302.187C1144.7 302.608 1144.56 302.967 1144.27 303.262C1143.98 303.557 1143.62 303.705 1143.19 303.705C1142.76 303.705 1142.41 303.557 1142.12 303.262C1141.83 302.967 1141.69 302.608 1141.69 302.187Z" fill="#F8F8F2"/>
<path d="M25.5 319.25V329H244.5" stroke="#E0EFFC"/>
<circle cx="251" cy="329" r="9" fill="#E0EFFC"/>
<path d="M251.972 324.273V333H250.915V325.381H250.864L248.733 326.795V325.722L250.915 324.273H251.972Z" fill="#2B2B2B"/>
<path d="M477.5 319.25V329H258" stroke="#E0EFFC"/>
<path d="M491 319.25V329H545" stroke="#E0EFFC"/>
<path d="M611 319.25V329H557" stroke="#E0EFFC"/>
<circle cx="551" cy="329" r="9" fill="#E0EFFC"/>
<path d="M548.403 333V332.233L551.284 329.08C551.622 328.71 551.901 328.389 552.119 328.116C552.338 327.841 552.5 327.582 552.605 327.341C552.713 327.097 552.767 326.841 552.767 326.574C552.767 326.267 552.693 326.001 552.545 325.777C552.401 325.553 552.202 325.379 551.949 325.257C551.696 325.135 551.412 325.074 551.097 325.074C550.761 325.074 550.469 325.143 550.219 325.283C549.972 325.419 549.78 325.611 549.643 325.858C549.51 326.105 549.443 326.395 549.443 326.727H548.438C548.438 326.216 548.555 325.767 548.791 325.381C549.027 324.994 549.348 324.693 549.754 324.477C550.163 324.261 550.622 324.153 551.131 324.153C551.642 324.153 552.095 324.261 552.49 324.477C552.885 324.693 553.195 324.984 553.419 325.351C553.643 325.717 553.756 326.125 553.756 326.574C553.756 326.895 553.697 327.209 553.581 327.516C553.467 327.82 553.268 328.159 552.984 328.534C552.703 328.906 552.312 329.361 551.812 329.898L549.852 331.994V332.062H553.909V333H548.403Z" fill="#2B2B2B"/>
<path d="M624.5 319.25V329H716" stroke="#E0EFFC"/>
<path d="M821 319V329L729.5 329" stroke="#E0EFFC"/>
<circle cx="723" cy="329" r="9" fill="#E0EFFC"/>
<path d="M723.352 333.119C722.79 333.119 722.288 333.023 721.848 332.83C721.411 332.636 721.063 332.368 720.804 332.024C720.548 331.678 720.409 331.276 720.386 330.818H721.46C721.483 331.099 721.58 331.342 721.75 331.547C721.92 331.749 722.143 331.905 722.419 332.016C722.695 332.126 723 332.182 723.335 332.182C723.71 332.182 724.043 332.116 724.332 331.986C724.622 331.855 724.849 331.673 725.014 331.44C725.179 331.207 725.261 330.938 725.261 330.631C725.261 330.31 725.182 330.027 725.023 329.783C724.864 329.536 724.631 329.342 724.324 329.203C724.017 329.064 723.642 328.994 723.199 328.994H722.5V328.057H723.199C723.545 328.057 723.849 327.994 724.111 327.869C724.375 327.744 724.581 327.568 724.729 327.341C724.879 327.114 724.955 326.847 724.955 326.54C724.955 326.244 724.889 325.987 724.759 325.768C724.628 325.55 724.443 325.379 724.205 325.257C723.969 325.135 723.69 325.074 723.369 325.074C723.068 325.074 722.784 325.129 722.517 325.24C722.253 325.348 722.037 325.506 721.869 325.713C721.702 325.918 721.611 326.165 721.597 326.455H720.574C720.591 325.997 720.729 325.597 720.987 325.253C721.246 324.906 721.584 324.636 722.001 324.443C722.422 324.25 722.884 324.153 723.386 324.153C723.926 324.153 724.389 324.263 724.776 324.482C725.162 324.697 725.459 324.983 725.666 325.338C725.874 325.693 725.977 326.077 725.977 326.489C725.977 326.98 725.848 327.399 725.589 327.746C725.334 328.092 724.986 328.332 724.545 328.466V328.534C725.097 328.625 725.527 328.859 725.837 329.237C726.146 329.612 726.301 330.077 726.301 330.631C726.301 331.105 726.172 331.531 725.913 331.909C725.658 332.284 725.308 332.58 724.865 332.795C724.422 333.011 723.918 333.119 723.352 333.119Z" fill="#2B2B2B"/>
<path d="M29.4383 19V17.8864L32.8836 14.3168C33.2515 13.929 33.5547 13.5893 33.7934 13.2976C34.0353 13.0026 34.216 12.7225 34.3353 12.4574C34.4546 12.1922 34.5143 11.9105 34.5143 11.6122C34.5143 11.2741 34.4347 10.9825 34.2756 10.7372C34.1165 10.4886 33.8994 10.2981 33.6244 10.1655C33.3493 10.0296 33.0394 9.96165 32.6947 9.96165C32.3301 9.96165 32.0119 10.0362 31.7401 10.1854C31.4683 10.3345 31.2595 10.545 31.1137 10.8168C30.9679 11.0885 30.8949 11.4067 30.8949 11.7713H29.4283C29.4283 11.1515 29.5708 10.6096 29.8559 10.1456C30.1409 9.68158 30.532 9.32197 31.0292 9.06676C31.5263 8.80824 32.0914 8.67898 32.7245 8.67898C33.3642 8.67898 33.9276 8.80658 34.4148 9.06179C34.9054 9.31368 35.2882 9.65838 35.5633 10.0959C35.8384 10.5301 35.9759 11.0206 35.9759 11.5675C35.9759 11.9453 35.9047 12.3149 35.7621 12.6761C35.6229 13.0374 35.3793 13.4401 35.0313 13.8842C34.6833 14.325 34.1994 14.8603 33.5796 15.4901L31.5562 17.608V17.6825H36.14V19H29.4383ZM38.7435 19.0945C38.4717 19.0945 38.2381 18.9983 38.0425 18.8061C37.847 18.6106 37.7492 18.3752 37.7492 18.1001C37.7492 17.8284 37.847 17.5964 38.0425 17.4041C38.2381 17.2086 38.4717 17.1108 38.7435 17.1108C39.0153 17.1108 39.2489 17.2086 39.4445 17.4041C39.64 17.5964 39.7378 17.8284 39.7378 18.1001C39.7378 18.2824 39.6914 18.4498 39.5986 18.6023C39.5091 18.7514 39.3898 18.8707 39.2407 18.9602C39.0915 19.0497 38.9258 19.0945 38.7435 19.0945ZM50.3825 11.4929C50.3295 11.0223 50.1108 10.6577 49.7263 10.3991C49.3418 10.1373 48.8579 10.0064 48.2746 10.0064C47.857 10.0064 47.4957 10.0727 47.1908 10.2053C46.8859 10.3345 46.6489 10.5135 46.4798 10.7422C46.3141 10.9676 46.2313 11.2244 46.2313 11.5128C46.2313 11.7547 46.2876 11.9635 46.4003 12.1392C46.5163 12.3149 46.6671 12.4624 46.8527 12.5817C47.0416 12.6977 47.2438 12.7955 47.4592 12.875C47.6747 12.9512 47.8818 13.0142 48.0807 13.0639L49.075 13.3224C49.3998 13.402 49.7329 13.5097 50.0743 13.6456C50.4157 13.7815 50.7322 13.9605 51.0239 14.1825C51.3155 14.4046 51.5509 14.6797 51.7298 15.0078C51.9121 15.3359 52.0033 15.7287 52.0033 16.1861C52.0033 16.7628 51.8541 17.2749 51.5558 17.7223C51.2609 18.1697 50.8316 18.5227 50.2682 18.7812C49.7081 19.0398 49.0303 19.169 48.2348 19.169C47.4725 19.169 46.8129 19.0481 46.2561 18.8061C45.6993 18.5642 45.2635 18.2211 44.9486 17.777C44.6337 17.3295 44.4597 16.7992 44.4266 16.1861H45.9678C45.9976 16.554 46.1169 16.8606 46.3257 17.1058C46.5378 17.3478 46.808 17.5284 47.1361 17.6477C47.4675 17.7637 47.8305 17.8217 48.2249 17.8217C48.6591 17.8217 49.0452 17.7538 49.3832 17.6179C49.7246 17.4787 49.9931 17.2865 50.1886 17.0412C50.3842 16.7926 50.482 16.5026 50.482 16.1712C50.482 15.8696 50.3958 15.6226 50.2234 15.4304C50.0544 15.2382 49.8241 15.0791 49.5324 14.9531C49.244 14.8272 48.9176 14.7161 48.553 14.62L47.3499 14.2919C46.5345 14.0698 45.8882 13.7434 45.4109 13.3125C44.937 12.8816 44.7 12.3116 44.7 11.6023C44.7 11.0156 44.8591 10.5036 45.1773 10.0661C45.4955 9.62855 45.9263 9.28883 46.4699 9.04688C47.0135 8.80161 47.6266 8.67898 48.3094 8.67898C48.9988 8.67898 49.607 8.79995 50.134 9.0419C50.6643 9.28385 51.0819 9.61695 51.3868 10.0412C51.6917 10.4621 51.8508 10.946 51.8641 11.4929H50.3825ZM57.0044 11.3636V12.5568H52.8332V11.3636H57.0044ZM53.9518 9.53409H55.4383V16.7578C55.4383 17.0462 55.4814 17.2633 55.5676 17.4091C55.6537 17.5516 55.7648 17.6494 55.9007 17.7024C56.0399 17.7521 56.1907 17.777 56.3531 17.777C56.4724 17.777 56.5768 17.7687 56.6663 17.7521C56.7558 17.7356 56.8254 17.7223 56.8751 17.7124L57.1436 18.9403C57.0574 18.9735 56.9347 19.0066 56.7757 19.0398C56.6166 19.0762 56.4177 19.0961 56.1791 19.0994C55.788 19.1061 55.4234 19.0365 55.0853 18.8906C54.7472 18.7448 54.4738 18.5194 54.265 18.2145C54.0562 17.9096 53.9518 17.5268 53.9518 17.0661V9.53409ZM60.591 19.169C60.1071 19.169 59.6696 19.0795 59.2785 18.9006C58.8874 18.7183 58.5775 18.4548 58.3488 18.1101C58.1234 17.7654 58.0108 17.3428 58.0108 16.8423C58.0108 16.4115 58.0936 16.0568 58.2593 15.7784C58.425 15.5 58.6488 15.2796 58.9305 15.1172C59.2122 14.9548 59.5271 14.8321 59.8751 14.7493C60.2231 14.6664 60.5777 14.6035 60.939 14.5604C61.3964 14.5073 61.7676 14.4643 62.0527 14.4311C62.3377 14.3946 62.5448 14.3366 62.6741 14.2571C62.8034 14.1776 62.868 14.0483 62.868 13.8693V13.8345C62.868 13.4003 62.7454 13.0639 62.5001 12.8253C62.2581 12.5866 61.8969 12.4673 61.4163 12.4673C60.9158 12.4673 60.5214 12.5784 60.2331 12.8004C59.948 13.0192 59.7508 13.2628 59.6414 13.5312L58.2444 13.2131C58.4101 12.7491 58.6521 12.3745 58.9703 12.0895C59.2918 11.8011 59.6613 11.5923 60.0789 11.4631C60.4965 11.3305 60.9357 11.2642 61.3964 11.2642C61.7013 11.2642 62.0245 11.3007 62.3659 11.3736C62.7106 11.4432 63.0321 11.5724 63.3304 11.7614C63.632 11.9503 63.8789 12.2204 64.0711 12.5717C64.2634 12.9197 64.3595 13.3722 64.3595 13.929V19H62.9078V17.956H62.8481C62.752 18.1482 62.6078 18.3371 62.4156 18.5227C62.2233 18.7083 61.9764 18.8625 61.6748 18.9851C61.3732 19.1077 61.0119 19.169 60.591 19.169ZM60.9142 17.9759C61.3251 17.9759 61.6765 17.8946 61.9681 17.7322C62.2631 17.5698 62.4868 17.3577 62.6393 17.0959C62.7951 16.8307 62.873 16.5473 62.873 16.2457V15.2614C62.8199 15.3144 62.7172 15.3641 62.5647 15.4105C62.4156 15.4536 62.2449 15.4917 62.0527 15.5249C61.8604 15.5547 61.6732 15.5829 61.4909 15.6094C61.3086 15.6326 61.1561 15.6525 61.0335 15.669C60.7451 15.7055 60.4816 15.7668 60.243 15.853C60.0077 15.9392 59.8188 16.0634 59.6762 16.2259C59.537 16.3849 59.4674 16.5971 59.4674 16.8622C59.4674 17.2301 59.6033 17.5085 59.8751 17.6974C60.1469 17.883 60.4932 17.9759 60.9142 17.9759ZM69.624 11.3636V12.5568H65.4529V11.3636H69.624ZM66.5715 9.53409H68.058V16.7578C68.058 17.0462 68.1011 17.2633 68.1873 17.4091C68.2734 17.5516 68.3845 17.6494 68.5203 17.7024C68.6596 17.7521 68.8104 17.777 68.9728 17.777C69.0921 17.777 69.1965 17.7687 69.286 17.7521C69.3755 17.7356 69.4451 17.7223 69.4948 17.7124L69.7632 18.9403C69.6771 18.9735 69.5544 19.0066 69.3953 19.0398C69.2363 19.0762 69.0374 19.0961 68.7988 19.0994C68.4077 19.1061 68.0431 19.0365 67.705 18.8906C67.3669 18.7448 67.0935 18.5194 66.8847 18.2145C66.6759 17.9096 66.5715 17.5268 66.5715 17.0661V9.53409ZM75.8258 15.8331V11.3636H77.3172V19H75.8556V17.6776H75.776C75.6004 18.0852 75.3187 18.425 74.9309 18.6967C74.5464 18.9652 74.0675 19.0994 73.4941 19.0994C73.0035 19.0994 72.5694 18.9917 72.1915 18.7763C71.817 18.5575 71.522 18.2344 71.3066 17.8068C71.0945 17.3793 70.9884 16.8506 70.9884 16.2209V11.3636H72.4749V16.0419C72.4749 16.5623 72.6191 16.9766 72.9074 17.2848C73.1958 17.593 73.5703 17.7472 74.031 17.7472C74.3094 17.7472 74.5862 17.6776 74.8613 17.5384C75.1397 17.3991 75.37 17.1887 75.5523 16.907C75.7379 16.6252 75.8291 16.2673 75.8258 15.8331ZM84.7569 13.228L83.4096 13.4666C83.3532 13.2943 83.2637 13.1302 83.1411 12.9744C83.0218 12.8187 82.8594 12.6911 82.6539 12.5916C82.4484 12.4922 82.1915 12.4425 81.8833 12.4425C81.4624 12.4425 81.111 12.5369 80.8293 12.7259C80.5476 12.9115 80.4067 13.1518 80.4067 13.4467C80.4067 13.7019 80.5012 13.9074 80.6901 14.0632C80.879 14.219 81.1839 14.3466 81.6049 14.446L82.8179 14.7244C83.5206 14.8868 84.0443 15.1371 84.389 15.4751C84.7337 15.8132 84.906 16.2524 84.906 16.7926C84.906 17.25 84.7734 17.6577 84.5083 18.0156C84.2464 18.3703 83.8802 18.6487 83.4096 18.8509C82.9422 19.053 82.4003 19.1541 81.7839 19.1541C80.9287 19.1541 80.2311 18.9718 79.6908 18.6072C79.1506 18.2393 78.8191 17.7173 78.6965 17.0412L80.1333 16.8224C80.2228 17.197 80.4067 17.4804 80.6851 17.6726C80.9635 17.8615 81.3265 17.956 81.7739 17.956C82.2611 17.956 82.6506 17.8549 82.9422 17.6527C83.2339 17.4472 83.3797 17.197 83.3797 16.902C83.3797 16.6634 83.2902 16.4628 83.1113 16.3004C82.9356 16.138 82.6655 16.0154 82.3009 15.9325L81.0083 15.6491C80.2957 15.4867 79.7687 15.2282 79.4273 14.8736C79.0892 14.5189 78.9202 14.0698 78.9202 13.5263C78.9202 13.0755 79.0462 12.6811 79.2981 12.343C79.5499 12.005 79.898 11.7415 80.3421 11.5526C80.7862 11.3603 81.295 11.2642 81.8684 11.2642C82.6937 11.2642 83.3433 11.4432 83.8172 11.8011C84.2912 12.1558 84.6044 12.6314 84.7569 13.228Z" fill="#5E5E5E"/>
<path d="M182.664 242.139C181.981 242.139 181.371 242.022 180.834 241.786C180.301 241.551 179.878 241.224 179.566 240.807C179.258 240.386 179.092 239.899 179.069 239.345H180.63C180.65 239.647 180.751 239.909 180.934 240.131C181.119 240.349 181.361 240.518 181.659 240.638C181.958 240.757 182.289 240.817 182.654 240.817C183.055 240.817 183.409 240.747 183.718 240.608C184.029 240.469 184.273 240.275 184.448 240.026C184.624 239.774 184.712 239.484 184.712 239.156C184.712 238.815 184.624 238.515 184.448 238.256C184.276 237.995 184.023 237.789 183.688 237.64C183.356 237.491 182.955 237.416 182.485 237.416H181.625V236.163H182.485C182.863 236.163 183.194 236.095 183.479 235.96C183.767 235.824 183.993 235.635 184.155 235.393C184.318 235.147 184.399 234.861 184.399 234.533C184.399 234.218 184.328 233.944 184.185 233.712C184.046 233.477 183.847 233.293 183.588 233.161C183.333 233.028 183.032 232.962 182.684 232.962C182.352 232.962 182.042 233.023 181.754 233.146C181.469 233.265 181.237 233.437 181.058 233.663C180.879 233.885 180.783 234.152 180.77 234.463H179.283C179.3 233.913 179.462 233.429 179.77 233.011C180.082 232.594 180.493 232.267 181.003 232.032C181.514 231.797 182.08 231.679 182.703 231.679C183.356 231.679 183.92 231.807 184.394 232.062C184.871 232.314 185.239 232.65 185.497 233.071C185.759 233.492 185.889 233.953 185.885 234.453C185.889 235.023 185.729 235.507 185.408 235.905C185.09 236.303 184.666 236.569 184.135 236.705V236.785C184.811 236.888 185.335 237.156 185.706 237.59C186.081 238.024 186.266 238.563 186.263 239.206C186.266 239.766 186.111 240.268 185.796 240.712C185.484 241.156 185.058 241.506 184.518 241.761C183.978 242.013 183.36 242.139 182.664 242.139ZM188.561 242.094C188.289 242.094 188.055 241.998 187.86 241.806C187.664 241.611 187.567 241.375 187.567 241.1C187.567 240.828 187.664 240.596 187.86 240.404C188.055 240.209 188.289 240.111 188.561 240.111C188.833 240.111 189.066 240.209 189.262 240.404C189.457 240.596 189.555 240.828 189.555 241.1C189.555 241.282 189.509 241.45 189.416 241.602C189.327 241.751 189.207 241.871 189.058 241.96C188.909 242.05 188.743 242.094 188.561 242.094ZM195.507 242H193.876L197.54 231.818H199.315L202.979 242H201.348L198.47 233.668H198.39L195.507 242ZM195.78 238.013H201.07V239.305H195.78V238.013ZM208.887 238.833V234.364H210.379V242H208.917V240.678H208.838C208.662 241.085 208.38 241.425 207.993 241.697C207.608 241.965 207.129 242.099 206.556 242.099C206.065 242.099 205.631 241.992 205.253 241.776C204.879 241.558 204.584 241.234 204.368 240.807C204.156 240.379 204.05 239.851 204.05 239.221V234.364H205.537V239.042C205.537 239.562 205.681 239.977 205.969 240.285C206.257 240.593 206.632 240.747 207.093 240.747C207.371 240.747 207.648 240.678 207.923 240.538C208.201 240.399 208.432 240.189 208.614 239.907C208.8 239.625 208.891 239.267 208.887 238.833ZM215.661 234.364V235.557H211.49V234.364H215.661ZM212.608 232.534H214.095V239.758C214.095 240.046 214.138 240.263 214.224 240.409C214.31 240.552 214.421 240.649 214.557 240.702C214.696 240.752 214.847 240.777 215.01 240.777C215.129 240.777 215.233 240.769 215.323 240.752C215.412 240.736 215.482 240.722 215.532 240.712L215.8 241.94C215.714 241.973 215.591 242.007 215.432 242.04C215.273 242.076 215.074 242.096 214.836 242.099C214.444 242.106 214.08 242.036 213.742 241.891C213.404 241.745 213.13 241.519 212.922 241.214C212.713 240.91 212.608 240.527 212.608 240.066V232.534ZM218.676 237.466V242H217.189V231.818H218.656V235.607H218.75C218.929 235.196 219.203 234.869 219.571 234.627C219.939 234.385 220.419 234.264 221.012 234.264C221.536 234.264 221.994 234.372 222.385 234.587C222.779 234.803 223.084 235.124 223.299 235.552C223.518 235.976 223.628 236.506 223.628 237.143V242H222.141V237.322C222.141 236.762 221.997 236.327 221.708 236.019C221.42 235.708 221.019 235.552 220.505 235.552C220.154 235.552 219.839 235.626 219.561 235.776C219.286 235.925 219.069 236.143 218.909 236.432C218.754 236.717 218.676 237.062 218.676 237.466ZM228.548 242.154C227.832 242.154 227.207 241.99 226.673 241.662C226.14 241.334 225.726 240.875 225.431 240.285C225.136 239.695 224.988 239.005 224.988 238.217C224.988 237.424 225.136 236.732 225.431 236.138C225.726 235.545 226.14 235.085 226.673 234.756C227.207 234.428 227.832 234.264 228.548 234.264C229.264 234.264 229.888 234.428 230.422 234.756C230.956 235.085 231.37 235.545 231.665 236.138C231.96 236.732 232.107 237.424 232.107 238.217C232.107 239.005 231.96 239.695 231.665 240.285C231.37 240.875 230.956 241.334 230.422 241.662C229.888 241.99 229.264 242.154 228.548 242.154ZM228.553 240.906C229.017 240.906 229.401 240.784 229.706 240.538C230.011 240.293 230.236 239.967 230.382 239.559C230.531 239.151 230.606 238.702 230.606 238.212C230.606 237.724 230.531 237.277 230.382 236.869C230.236 236.458 230.011 236.129 229.706 235.88C229.401 235.631 229.017 235.507 228.553 235.507C228.085 235.507 227.698 235.631 227.389 235.88C227.084 236.129 226.857 236.458 226.708 236.869C226.562 237.277 226.49 237.724 226.49 238.212C226.49 238.702 226.562 239.151 226.708 239.559C226.857 239.967 227.084 240.293 227.389 240.538C227.698 240.784 228.085 240.906 228.553 240.906ZM233.487 242V234.364H234.923V235.577H235.003C235.142 235.166 235.388 234.843 235.739 234.607C236.093 234.369 236.495 234.249 236.942 234.249C237.035 234.249 237.144 234.253 237.27 234.259C237.399 234.266 237.5 234.274 237.573 234.284V235.706C237.514 235.689 237.408 235.671 237.255 235.651C237.103 235.628 236.95 235.616 236.798 235.616C236.446 235.616 236.133 235.691 235.858 235.84C235.586 235.986 235.371 236.19 235.212 236.452C235.053 236.71 234.973 237.005 234.973 237.337V242H233.487Z" fill="#5E5E5E"/>
<path d="M320.214 8.81818V19H318.673V10.3594H318.613L316.177 11.9503V10.4787L318.717 8.81818H320.214ZM323.1 19.0945C322.828 19.0945 322.594 18.9983 322.399 18.8061C322.203 18.6106 322.105 18.3752 322.105 18.1001C322.105 17.8284 322.203 17.5964 322.399 17.4041C322.594 17.2086 322.828 17.1108 323.1 17.1108C323.371 17.1108 323.605 17.2086 323.801 17.4041C323.996 17.5964 324.094 17.8284 324.094 18.1001C324.094 18.2824 324.048 18.4498 323.955 18.6023C323.865 18.7514 323.746 18.8707 323.597 18.9602C323.448 19.0497 323.282 19.0945 323.1 19.0945ZM328.683 10.1406V8.81818H336.563V10.1406H333.386V19H331.855V10.1406H328.683ZM337.905 19V11.3636H339.392V19H337.905ZM338.656 10.1854C338.397 10.1854 338.175 10.0992 337.99 9.92685C337.807 9.75118 337.716 9.54238 337.716 9.30043C337.716 9.05516 337.807 8.84635 337.99 8.67401C338.175 8.49834 338.397 8.41051 338.656 8.41051C338.914 8.41051 339.135 8.49834 339.317 8.67401C339.503 8.84635 339.596 9.05516 339.596 9.30043C339.596 9.54238 339.503 9.75118 339.317 9.92685C339.135 10.0992 338.914 10.1854 338.656 10.1854ZM344.676 11.3636V12.5568H340.505V11.3636H344.676ZM341.624 9.53409H343.11V16.7578C343.11 17.0462 343.153 17.2633 343.239 17.4091C343.326 17.5516 343.437 17.6494 343.572 17.7024C343.712 17.7521 343.862 17.777 344.025 17.777C344.144 17.777 344.249 17.7687 344.338 17.7521C344.428 17.7356 344.497 17.7223 344.547 17.7124L344.815 18.9403C344.729 18.9735 344.607 19.0066 344.447 19.0398C344.288 19.0762 344.089 19.0961 343.851 19.0994C343.46 19.1061 343.095 19.0365 342.757 18.8906C342.419 18.7448 342.146 18.5194 341.937 18.2145C341.728 17.9096 341.624 17.5268 341.624 17.0661V9.53409ZM347.691 8.81818V19H346.205V8.81818H347.691ZM352.702 19.1541C351.95 19.1541 351.302 18.9934 350.758 18.6719C350.218 18.3471 349.8 17.8913 349.505 17.3047C349.214 16.7147 349.068 16.0237 349.068 15.2315C349.068 14.4493 349.214 13.7599 349.505 13.1634C349.8 12.5668 350.211 12.1011 350.738 11.7663C351.269 11.4316 351.888 11.2642 352.598 11.2642C353.029 11.2642 353.446 11.3355 353.851 11.478C354.255 11.6205 354.618 11.8442 354.939 12.1491C355.261 12.4541 355.514 12.8501 355.7 13.3374C355.886 13.8213 355.978 14.4096 355.978 15.1023V15.6293H349.908V14.5156H354.522C354.522 14.1245 354.442 13.7782 354.283 13.4766C354.124 13.1716 353.9 12.9313 353.612 12.7557C353.327 12.58 352.992 12.4922 352.608 12.4922C352.19 12.4922 351.825 12.5949 351.514 12.8004C351.206 13.0026 350.967 13.2678 350.798 13.5959C350.632 13.9207 350.549 14.2737 350.549 14.6548V15.5249C350.549 16.0353 350.639 16.4695 350.818 16.8274C351 17.1854 351.254 17.4588 351.579 17.6477C351.903 17.8333 352.283 17.9261 352.717 17.9261C352.999 17.9261 353.256 17.8864 353.488 17.8068C353.72 17.724 353.92 17.6013 354.089 17.4389C354.258 17.2765 354.387 17.076 354.477 16.8374L355.884 17.0909C355.771 17.5052 355.569 17.8681 355.277 18.1797C354.989 18.4879 354.626 18.7282 354.189 18.9006C353.754 19.0696 353.259 19.1541 352.702 19.1541Z" fill="#5E5E5E"/>
</svg>
