<svg width="900" height="258" viewBox="0 0 900 258" fill="none" xmlns="http://www.w3.org/2000/svg">
<g clip-path="url(#clip0_1_124)">
<rect x="1.5" y="37.5" width="897" height="91" rx="5.5" fill="#F3F3F3" fill-opacity="0.25" stroke="#F3F3F3" stroke-width="3"/>
<rect x="769" y="65" width="38" height="38" rx="6" fill="#CCCCCC"/>
<rect x="723" y="65" width="38" height="38" rx="6" fill="#CCCCCC"/>
<rect x="77.5" y="52.5" width="293" height="37" rx="5.5" fill="#83C0F3" stroke="#83C0F3"/>
<rect x="379" y="63" width="70" height="16" rx="6" fill="#CCCCCC"/>
<rect x="457" y="63" width="70" height="16" rx="6" fill="#CCCCCC"/>
<rect x="77.5" y="98.5" width="124" height="15" rx="5.5" fill="#83C0F3" stroke="#83C0F3"/>
<rect x="210" y="98" width="70" height="16" rx="6" fill="#CCCCCC"/>
<circle cx="38.5" cy="83.5" r="22.5" fill="#83C0F3"/>
<circle cx="853.5" cy="83.5" r="30.5" fill="#CCCCCC"/>
<path d="M210.469 3.27273V12H209.148V4.59375H209.097L207.009 5.95739V4.69602L209.186 3.27273H210.469ZM212.943 12.081C212.71 12.081 212.509 11.9986 212.342 11.8338C212.174 11.6662 212.09 11.4645 212.09 11.2287C212.09 10.9957 212.174 10.7969 212.342 10.6321C212.509 10.4645 212.71 10.3807 212.943 10.3807C213.175 10.3807 213.376 10.4645 213.543 10.6321C213.711 10.7969 213.795 10.9957 213.795 11.2287C213.795 11.3849 213.755 11.5284 213.675 11.6591C213.599 11.7869 213.496 11.8892 213.369 11.9659C213.241 12.0426 213.099 12.081 212.943 12.081ZM217.728 4.40625V3.27273H224.483V4.40625H221.76V12H220.447V4.40625H217.728ZM225.633 12V5.45455H226.907V12H225.633ZM226.276 4.4446C226.055 4.4446 225.865 4.37074 225.705 4.22301C225.549 4.07244 225.471 3.89347 225.471 3.68608C225.471 3.47585 225.549 3.29687 225.705 3.14915C225.865 2.99858 226.055 2.9233 226.276 2.9233C226.498 2.9233 226.687 2.99858 226.843 3.14915C227.002 3.29687 227.082 3.47585 227.082 3.68608C227.082 3.89347 227.002 4.07244 226.843 4.22301C226.687 4.37074 226.498 4.4446 226.276 4.4446ZM231.437 5.45455V6.47727H227.861V5.45455H231.437ZM228.82 3.88636H230.094V10.0781C230.094 10.3253 230.131 10.5114 230.205 10.6364C230.279 10.7585 230.374 10.8423 230.491 10.8878C230.61 10.9304 230.739 10.9517 230.878 10.9517C230.981 10.9517 231.07 10.9446 231.147 10.9304C231.224 10.9162 231.283 10.9048 231.326 10.8963L231.556 11.9489C231.482 11.9773 231.377 12.0057 231.241 12.0341C231.104 12.0653 230.934 12.0824 230.729 12.0852C230.394 12.0909 230.082 12.0312 229.792 11.9062C229.502 11.7812 229.268 11.5881 229.089 11.3267C228.91 11.0653 228.82 10.7372 228.82 10.3423V3.88636ZM234.021 3.27273V12H232.747V3.27273H234.021ZM238.316 12.1321C237.671 12.1321 237.116 11.9943 236.65 11.7188C236.187 11.4403 235.829 11.0497 235.576 10.5469C235.326 10.0412 235.201 9.44886 235.201 8.76989C235.201 8.09943 235.326 7.50852 235.576 6.99716C235.829 6.4858 236.181 6.08665 236.633 5.79972C237.087 5.51278 237.619 5.36932 238.227 5.36932C238.596 5.36932 238.954 5.4304 239.3 5.55256C239.647 5.67472 239.958 5.86648 240.234 6.12784C240.509 6.3892 240.727 6.72869 240.886 7.14631C241.045 7.56108 241.124 8.06534 241.124 8.65909V9.1108H235.921V8.15625H239.876C239.876 7.82102 239.808 7.52415 239.671 7.26562C239.535 7.00426 239.343 6.7983 239.096 6.64773C238.852 6.49716 238.565 6.42188 238.235 6.42188C237.877 6.42188 237.565 6.50994 237.298 6.68608C237.033 6.85937 236.829 7.08665 236.684 7.3679C236.542 7.64631 236.471 7.94886 236.471 8.27557V9.02131C236.471 9.45881 236.548 9.83097 236.701 10.1378C236.857 10.4446 237.075 10.679 237.353 10.8409C237.631 11 237.957 11.0795 238.329 11.0795C238.57 11.0795 238.791 11.0455 238.989 10.9773C239.188 10.9062 239.36 10.8011 239.505 10.6619C239.65 10.5227 239.761 10.3509 239.837 10.1463L241.043 10.3636C240.947 10.7187 240.773 11.0298 240.523 11.2969C240.276 11.5611 239.965 11.767 239.59 11.9148C239.218 12.0597 238.793 12.1321 238.316 12.1321Z" fill="#5E5E5E"/>
<path d="M14.8757 12V11.0455L17.8288 7.9858C18.1441 7.65341 18.4041 7.36222 18.6086 7.11222C18.816 6.85937 18.9708 6.61932 19.0731 6.39205C19.1754 6.16477 19.2265 5.9233 19.2265 5.66761C19.2265 5.37784 19.1583 5.12784 19.022 4.91761C18.8856 4.70455 18.6995 4.54119 18.4637 4.42756C18.2279 4.31108 17.9623 4.25284 17.6669 4.25284C17.3544 4.25284 17.0816 4.31676 16.8487 4.4446C16.6157 4.57244 16.4367 4.75284 16.3117 4.9858C16.1867 5.21875 16.1242 5.49148 16.1242 5.80398H14.8671C14.8671 5.27273 14.9893 4.80824 15.2336 4.41051C15.4779 4.01278 15.8132 3.70455 16.2393 3.4858C16.6654 3.2642 17.1498 3.15341 17.6924 3.15341C18.2407 3.15341 18.7237 3.26278 19.1413 3.48153C19.5617 3.69744 19.8899 3.9929 20.1257 4.3679C20.3615 4.74006 20.4794 5.16051 20.4794 5.62926C20.4794 5.95312 20.4183 6.26989 20.2961 6.57955C20.1768 6.8892 19.968 7.23437 19.6697 7.61506C19.3714 7.9929 18.9566 8.4517 18.4254 8.99148L16.691 10.8068V10.8707H20.62V12H14.8757ZM22.8516 12.081C22.6186 12.081 22.4183 11.9986 22.2507 11.8338C22.0831 11.6662 21.9993 11.4645 21.9993 11.2287C21.9993 10.9957 22.0831 10.7969 22.2507 10.6321C22.4183 10.4645 22.6186 10.3807 22.8516 10.3807C23.0845 10.3807 23.2848 10.4645 23.4524 10.6321C23.62 10.7969 23.7038 10.9957 23.7038 11.2287C23.7038 11.3849 23.6641 11.5284 23.5845 11.6591C23.5078 11.7869 23.4055 11.8892 23.2777 11.9659C23.1499 12.0426 23.0078 12.081 22.8516 12.081ZM32.8279 5.56534C32.7824 5.16193 32.5949 4.84943 32.2654 4.62784C31.9358 4.40341 31.5211 4.29119 31.0211 4.29119C30.6631 4.29119 30.3535 4.34801 30.0921 4.46165C29.8307 4.57244 29.6276 4.72585 29.4827 4.92188C29.3407 5.11506 29.2697 5.33523 29.2697 5.58239C29.2697 5.78977 29.3179 5.96875 29.4145 6.11932C29.514 6.26989 29.6432 6.39631 29.8023 6.49858C29.9643 6.59801 30.1375 6.68182 30.3222 6.75C30.5069 6.81534 30.6844 6.86932 30.8549 6.91193L31.7072 7.13352C31.9856 7.2017 32.2711 7.29403 32.5637 7.41051C32.8563 7.52699 33.1276 7.6804 33.3776 7.87074C33.6276 8.06108 33.8293 8.29688 33.9827 8.57812C34.139 8.85938 34.2171 9.19602 34.2171 9.58807C34.2171 10.0824 34.0893 10.5213 33.8336 10.9048C33.5807 11.2884 33.2128 11.5909 32.7299 11.8125C32.2498 12.0341 31.6688 12.1449 30.987 12.1449C30.3336 12.1449 29.7682 12.0412 29.291 11.8338C28.8137 11.6264 28.4401 11.3324 28.1702 10.9517C27.9003 10.5682 27.7512 10.1136 27.7228 9.58807H29.0438C29.0694 9.90341 29.1716 10.1662 29.3506 10.3764C29.5324 10.5838 29.764 10.7386 30.0452 10.8409C30.3293 10.9403 30.6404 10.9901 30.9785 10.9901C31.3506 10.9901 31.6816 10.9318 31.9714 10.8153C32.264 10.696 32.4941 10.5312 32.6617 10.321C32.8293 10.108 32.9131 9.85937 32.9131 9.57528C32.9131 9.31676 32.8393 9.10511 32.6915 8.94034C32.5466 8.77557 32.3492 8.6392 32.0992 8.53125C31.852 8.4233 31.5722 8.32812 31.2597 8.24574L30.2285 7.96449C29.5296 7.77415 28.9756 7.49432 28.5665 7.125C28.1603 6.75568 27.9572 6.26705 27.9572 5.65909C27.9572 5.15625 28.0935 4.71733 28.3662 4.34233C28.639 3.96733 29.0083 3.67614 29.4742 3.46875C29.9401 3.25852 30.4657 3.15341 31.0509 3.15341C31.6418 3.15341 32.1631 3.2571 32.6148 3.46449C33.0694 3.67188 33.4273 3.95739 33.6887 4.32102C33.95 4.68182 34.0864 5.09659 34.0978 5.56534H32.8279ZM38.5037 5.45455V6.47727H34.9284V5.45455H38.5037ZM35.8873 3.88636H37.1614V10.0781C37.1614 10.3253 37.1983 10.5114 37.2722 10.6364C37.3461 10.7585 37.4412 10.8423 37.5577 10.8878C37.677 10.9304 37.8063 10.9517 37.9455 10.9517C38.0478 10.9517 38.1373 10.9446 38.214 10.9304C38.2907 10.9162 38.3503 10.9048 38.3929 10.8963L38.623 11.9489C38.5492 11.9773 38.4441 12.0057 38.3077 12.0341C38.1713 12.0653 38.0009 12.0824 37.7963 12.0852C37.4611 12.0909 37.1486 12.0312 36.8588 11.9062C36.5691 11.7812 36.3347 11.5881 36.1557 11.3267C35.9767 11.0653 35.8873 10.7372 35.8873 10.3423V3.88636ZM41.578 12.1449C41.1632 12.1449 40.7882 12.0682 40.453 11.9148C40.1178 11.7585 39.8522 11.5327 39.6561 11.2372C39.4629 10.9418 39.3664 10.5795 39.3664 10.1506C39.3664 9.78125 39.4374 9.47727 39.5794 9.23864C39.7215 9 39.9132 8.81108 40.1547 8.67188C40.3962 8.53267 40.6661 8.42756 40.9644 8.35653C41.2627 8.28551 41.5666 8.23153 41.8763 8.1946C42.2683 8.14915 42.5865 8.11222 42.8308 8.08381C43.0752 8.05256 43.2527 8.00284 43.3635 7.93466C43.4743 7.86648 43.5297 7.75568 43.5297 7.60227V7.57244C43.5297 7.20028 43.4246 6.91193 43.2144 6.70739C43.007 6.50284 42.6973 6.40057 42.2854 6.40057C41.8564 6.40057 41.5183 6.49574 41.2712 6.68608C41.0269 6.87358 40.8578 7.08239 40.7641 7.3125L39.5666 7.03977C39.7087 6.64205 39.9161 6.32102 40.1888 6.0767C40.4644 5.82955 40.7811 5.65057 41.1391 5.53977C41.497 5.42614 41.8735 5.36932 42.2683 5.36932C42.5297 5.36932 42.8067 5.40057 43.0993 5.46307C43.3948 5.52273 43.6703 5.63352 43.926 5.79545C44.1845 5.95739 44.3962 6.18892 44.561 6.49006C44.7257 6.78835 44.8081 7.17614 44.8081 7.65341V12H43.5638V11.1051H43.5127C43.4303 11.2699 43.3067 11.4318 43.1419 11.5909C42.9772 11.75 42.7655 11.8821 42.507 11.9872C42.2485 12.0923 41.9388 12.1449 41.578 12.1449ZM41.855 11.1222C42.2073 11.1222 42.5084 11.0526 42.7584 10.9134C43.0112 10.7741 43.203 10.5923 43.3337 10.3679C43.4672 10.1406 43.534 9.89773 43.534 9.6392V8.79545C43.4885 8.84091 43.4004 8.88352 43.2698 8.9233C43.1419 8.96023 42.9956 8.9929 42.8308 9.02131C42.6661 9.04687 42.5056 9.07102 42.3493 9.09375C42.1931 9.11364 42.0624 9.13068 41.9573 9.14489C41.7101 9.17614 41.4843 9.22869 41.2797 9.30256C41.078 9.37642 40.9161 9.48295 40.7939 9.62216C40.6746 9.75852 40.6149 9.94034 40.6149 10.1676C40.6149 10.483 40.7314 10.7216 40.9644 10.8835C41.1973 11.0426 41.4942 11.1222 41.855 11.1222ZM49.3206 5.45455V6.47727H45.7453V5.45455H49.3206ZM46.7041 3.88636H47.9783V10.0781C47.9783 10.3253 48.0152 10.5114 48.0891 10.6364C48.1629 10.7585 48.2581 10.8423 48.3746 10.8878C48.4939 10.9304 48.6232 10.9517 48.7624 10.9517C48.8646 10.9517 48.9541 10.9446 49.0308 10.9304C49.1075 10.9162 49.1672 10.9048 49.2098 10.8963L49.4399 11.9489C49.3661 11.9773 49.2609 12.0057 49.1246 12.0341C48.9882 12.0653 48.8178 12.0824 48.6132 12.0852C48.278 12.0909 47.9655 12.0312 47.6757 11.9062C47.3859 11.7812 47.1516 11.5881 46.9726 11.3267C46.7936 11.0653 46.7041 10.7372 46.7041 10.3423V3.88636ZM54.6364 9.28551V5.45455H55.9148V12H54.6619V10.8665H54.5937C54.4432 11.2159 54.2017 11.5071 53.8693 11.7401C53.5398 11.9702 53.1293 12.0852 52.6378 12.0852C52.2173 12.0852 51.8452 11.9929 51.5213 11.8082C51.2003 11.6207 50.9474 11.3438 50.7628 10.9773C50.581 10.6108 50.49 10.1577 50.49 9.6179V5.45455H51.7642V9.46449C51.7642 9.91051 51.8878 10.2656 52.1349 10.5298C52.3821 10.794 52.7031 10.9261 53.098 10.9261C53.3366 10.9261 53.5739 10.8665 53.8097 10.7472C54.0483 10.6278 54.2457 10.4474 54.402 10.206C54.5611 9.96449 54.6392 9.65767 54.6364 9.28551ZM62.2916 7.05256L61.1368 7.2571C61.0885 7.10937 61.0118 6.96875 60.9067 6.83523C60.8044 6.7017 60.6652 6.59233 60.489 6.5071C60.3129 6.42187 60.0927 6.37926 59.8285 6.37926C59.4677 6.37926 59.1666 6.46023 58.9251 6.62216C58.6836 6.78125 58.5629 6.98722 58.5629 7.24006C58.5629 7.45881 58.6439 7.63494 58.8058 7.76847C58.9677 7.90199 59.2291 8.01136 59.5899 8.09659L60.6297 8.33523C61.2319 8.47443 61.6808 8.68892 61.9763 8.97869C62.2717 9.26847 62.4194 9.64489 62.4194 10.108C62.4194 10.5 62.3058 10.8494 62.0785 11.1562C61.8541 11.4602 61.5402 11.6989 61.1368 11.8722C60.7362 12.0455 60.2717 12.1321 59.7433 12.1321C59.0103 12.1321 58.4123 11.9759 57.9493 11.6634C57.4862 11.348 57.2021 10.9006 57.097 10.321L58.3285 10.1335C58.4052 10.4545 58.5629 10.6974 58.8015 10.8622C59.0402 11.0241 59.3513 11.1051 59.7348 11.1051C60.1524 11.1051 60.4862 11.0185 60.7362 10.8452C60.9862 10.669 61.1112 10.4545 61.1112 10.2017C61.1112 9.99716 61.0345 9.82528 60.8811 9.68608C60.7305 9.54687 60.499 9.44176 60.1865 9.37074L59.0785 9.12784C58.4677 8.98864 58.016 8.76705 57.7234 8.46307C57.4336 8.15909 57.2888 7.77415 57.2888 7.30824C57.2888 6.92187 57.3967 6.58381 57.6126 6.29403C57.8285 6.00426 58.1268 5.77841 58.5075 5.61648C58.8882 5.4517 59.3243 5.36932 59.8157 5.36932C60.5231 5.36932 61.08 5.52273 61.4862 5.82955C61.8925 6.13352 62.1609 6.54119 62.2916 7.05256Z" fill="#5E5E5E"/>
<path d="M117.283 167.119C116.698 167.119 116.175 167.018 115.715 166.817C115.258 166.615 114.895 166.335 114.628 165.977C114.364 165.616 114.222 165.199 114.202 164.724H115.54C115.557 164.983 115.644 165.207 115.8 165.398C115.959 165.585 116.167 165.73 116.422 165.832C116.678 165.935 116.962 165.986 117.275 165.986C117.618 165.986 117.922 165.926 118.187 165.807C118.454 165.687 118.662 165.521 118.813 165.308C118.964 165.092 119.039 164.844 119.039 164.562C119.039 164.27 118.964 164.013 118.813 163.791C118.665 163.567 118.448 163.391 118.161 163.263C117.877 163.135 117.533 163.071 117.13 163.071H116.393V161.997H117.13C117.454 161.997 117.738 161.939 117.982 161.822C118.229 161.706 118.422 161.544 118.562 161.337C118.701 161.126 118.77 160.881 118.77 160.599C118.77 160.33 118.709 160.095 118.587 159.896C118.468 159.695 118.297 159.537 118.076 159.423C117.857 159.31 117.598 159.253 117.3 159.253C117.016 159.253 116.75 159.305 116.503 159.411C116.259 159.513 116.06 159.661 115.907 159.854C115.753 160.044 115.671 160.273 115.66 160.54H114.385C114.4 160.068 114.539 159.653 114.803 159.295C115.07 158.937 115.422 158.658 115.86 158.456C116.297 158.254 116.783 158.153 117.317 158.153C117.877 158.153 118.36 158.263 118.766 158.482C119.175 158.697 119.491 158.986 119.712 159.347C119.937 159.707 120.047 160.102 120.045 160.531C120.047 161.02 119.911 161.435 119.635 161.776C119.363 162.116 118.999 162.345 118.545 162.462V162.53C119.124 162.618 119.573 162.848 119.891 163.22C120.212 163.592 120.371 164.054 120.368 164.605C120.371 165.085 120.238 165.516 119.968 165.896C119.701 166.277 119.336 166.577 118.873 166.795C118.41 167.011 117.88 167.119 117.283 167.119ZM122.338 167.081C122.105 167.081 121.905 166.999 121.737 166.834C121.569 166.666 121.486 166.464 121.486 166.229C121.486 165.996 121.569 165.797 121.737 165.632C121.905 165.464 122.105 165.381 122.338 165.381C122.571 165.381 122.771 165.464 122.939 165.632C123.106 165.797 123.19 165.996 123.19 166.229C123.19 166.385 123.15 166.528 123.071 166.659C122.994 166.787 122.892 166.889 122.764 166.966C122.636 167.043 122.494 167.081 122.338 167.081ZM128.291 167H126.894L130.034 158.273H131.556L134.696 167H133.299L130.831 159.858H130.763L128.291 167ZM128.526 163.582H133.06V164.69H128.526V163.582ZM139.761 164.286V160.455H141.039V167H139.786V165.866H139.718C139.567 166.216 139.326 166.507 138.994 166.74C138.664 166.97 138.254 167.085 137.762 167.085C137.342 167.085 136.969 166.993 136.646 166.808C136.325 166.621 136.072 166.344 135.887 165.977C135.705 165.611 135.614 165.158 135.614 164.618V160.455H136.888V164.464C136.888 164.911 137.012 165.266 137.259 165.53C137.506 165.794 137.827 165.926 138.222 165.926C138.461 165.926 138.698 165.866 138.934 165.747C139.173 165.628 139.37 165.447 139.526 165.206C139.685 164.964 139.763 164.658 139.761 164.286ZM145.566 160.455V161.477H141.991V160.455H145.566ZM142.95 158.886H144.224V165.078C144.224 165.325 144.261 165.511 144.335 165.636C144.409 165.759 144.504 165.842 144.62 165.888C144.74 165.93 144.869 165.952 145.008 165.952C145.11 165.952 145.2 165.945 145.277 165.93C145.353 165.916 145.413 165.905 145.456 165.896L145.686 166.949C145.612 166.977 145.507 167.006 145.37 167.034C145.234 167.065 145.064 167.082 144.859 167.085C144.524 167.091 144.211 167.031 143.922 166.906C143.632 166.781 143.397 166.588 143.218 166.327C143.039 166.065 142.95 165.737 142.95 165.342V158.886ZM148.151 163.114V167H146.877V158.273H148.134V161.52H148.215C148.368 161.168 148.602 160.888 148.918 160.68C149.233 160.473 149.645 160.369 150.154 160.369C150.602 160.369 150.994 160.462 151.33 160.646C151.668 160.831 151.929 161.107 152.114 161.473C152.301 161.837 152.395 162.291 152.395 162.837V167H151.121V162.99C151.121 162.51 150.997 162.138 150.75 161.874C150.503 161.607 150.159 161.473 149.719 161.473C149.418 161.473 149.148 161.537 148.909 161.665C148.673 161.793 148.487 161.98 148.351 162.227C148.217 162.472 148.151 162.767 148.151 163.114ZM156.612 167.132C155.999 167.132 155.463 166.991 155.006 166.71C154.548 166.429 154.193 166.036 153.941 165.53C153.688 165.024 153.561 164.433 153.561 163.757C153.561 163.078 153.688 162.484 153.941 161.976C154.193 161.467 154.548 161.072 155.006 160.791C155.463 160.51 155.999 160.369 156.612 160.369C157.226 160.369 157.762 160.51 158.219 160.791C158.676 161.072 159.031 161.467 159.284 161.976C159.537 162.484 159.664 163.078 159.664 163.757C159.664 164.433 159.537 165.024 159.284 165.53C159.031 166.036 158.676 166.429 158.219 166.71C157.762 166.991 157.226 167.132 156.612 167.132ZM156.617 166.062C157.014 166.062 157.344 165.957 157.605 165.747C157.867 165.537 158.06 165.257 158.185 164.908C158.313 164.558 158.377 164.173 158.377 163.753C158.377 163.335 158.313 162.952 158.185 162.602C158.06 162.25 157.867 161.967 157.605 161.754C157.344 161.541 157.014 161.435 156.617 161.435C156.216 161.435 155.884 161.541 155.619 161.754C155.358 161.967 155.164 162.25 155.036 162.602C154.911 162.952 154.848 163.335 154.848 163.753C154.848 164.173 154.911 164.558 155.036 164.908C155.164 165.257 155.358 165.537 155.619 165.747C155.884 165.957 156.216 166.062 156.617 166.062ZM160.846 167V160.455H162.077V161.494H162.145C162.265 161.142 162.475 160.865 162.776 160.663C163.08 160.459 163.424 160.357 163.807 160.357C163.887 160.357 163.981 160.359 164.089 160.365C164.199 160.371 164.286 160.378 164.349 160.386V161.605C164.297 161.591 164.207 161.575 164.076 161.558C163.945 161.538 163.815 161.528 163.684 161.528C163.383 161.528 163.114 161.592 162.878 161.72C162.645 161.845 162.461 162.02 162.324 162.244C162.188 162.466 162.12 162.719 162.12 163.003V167H160.846Z" fill="#5E5E5E"/>
<line x1="38" y1="20" x2="38" y2="61" stroke="#5E5E5E"/>
<line x1="139.5" y1="114" x2="139.5" y2="147" stroke="#5E5E5E"/>
<line x1="224.5" y1="20" x2="224.5" y2="52" stroke="#5E5E5E"/>
<rect y="191" width="900" height="67" rx="4" fill="#2B2B2B"/>
<path d="M22.6646 218.631C22.6646 219.123 22.5395 219.56 22.2892 219.942C22.0431 220.319 21.6841 220.616 21.2123 220.834C20.7446 221.047 20.1764 221.154 19.5077 221.154C18.8595 221.154 18.281 221.055 17.7723 220.858C17.2636 220.662 16.8308 220.391 16.4738 220.046L17.1692 219.265C17.4646 219.539 17.8031 219.757 18.1846 219.917C18.5662 220.077 19.0113 220.157 19.52 220.157C19.8523 220.157 20.16 220.104 20.4431 219.997C20.7303 219.886 20.96 219.722 21.1323 219.505C21.3087 219.283 21.3969 219.006 21.3969 218.674C21.3969 218.411 21.3436 218.188 21.2369 218.003C21.1344 217.814 20.9518 217.648 20.6892 217.505C20.4267 217.361 20.0595 217.219 19.5877 217.08C19.0133 216.912 18.521 216.721 18.1108 216.508C17.7046 216.29 17.3928 216.03 17.1754 215.726C16.9621 215.418 16.8554 215.041 16.8554 214.594C16.8554 214.155 16.9764 213.769 17.2185 213.437C17.4605 213.101 17.7928 212.838 18.2154 212.649C18.6379 212.461 19.1241 212.366 19.6738 212.366C20.2687 212.366 20.7877 212.452 21.2308 212.625C21.6779 212.797 22.08 213.041 22.4369 213.357L21.76 214.12C21.4564 213.853 21.1303 213.661 20.7815 213.542C20.4369 213.418 20.0862 213.357 19.7292 213.357C19.2779 213.357 18.8944 213.455 18.5785 213.652C18.2626 213.845 18.1046 214.141 18.1046 214.538C18.1046 214.776 18.1682 214.979 18.2954 215.148C18.4226 215.312 18.6359 215.464 18.9354 215.603C19.239 215.743 19.6533 215.89 20.1785 216.046C20.6338 216.182 21.0482 216.348 21.4215 216.545C21.799 216.737 22.1005 217 22.3262 217.332C22.5518 217.661 22.6646 218.093 22.6646 218.631ZM26.8474 214.36C27.7746 214.36 28.4782 214.668 28.9582 215.283C29.4423 215.898 29.6844 216.721 29.6844 217.751C29.6844 218.419 29.5736 219.01 29.352 219.523C29.1346 220.036 28.8146 220.436 28.392 220.723C27.9695 221.01 27.4505 221.154 26.8351 221.154C25.9079 221.154 25.2002 220.846 24.712 220.231C24.2279 219.615 23.9859 218.793 23.9859 217.763C23.9859 217.09 24.0946 216.499 24.312 215.991C24.5336 215.478 24.8556 215.078 25.2782 214.791C25.7049 214.504 26.2279 214.36 26.8474 214.36ZM26.8474 215.302C26.3141 215.302 25.912 215.503 25.6413 215.905C25.3705 216.303 25.2351 216.922 25.2351 217.763C25.2351 218.596 25.3685 219.213 25.6351 219.615C25.9018 220.013 26.3018 220.212 26.8351 220.212C27.3685 220.212 27.7685 220.013 28.0351 219.615C28.3018 219.213 28.4351 218.592 28.4351 217.751C28.4351 216.914 28.3018 216.296 28.0351 215.898C27.7685 215.501 27.3726 215.302 26.8474 215.302ZM31.5225 221V220.126H32.5072V215.388H31.5225V214.514H33.4118L33.6272 216.034C33.8733 215.496 34.1749 215.084 34.5318 214.797C34.8928 214.506 35.3605 214.36 35.9349 214.36C36.1236 214.36 36.2897 214.374 36.4333 214.403C36.581 214.432 36.7308 214.469 36.8825 214.514L36.6979 216.791H35.7872V215.437H35.781C34.8087 215.437 34.1113 216.132 33.6887 217.523V220.126H35.0056V221H31.5225ZM43.8715 220.668C43.6418 220.815 43.3648 220.932 43.0407 221.018C42.7207 221.109 42.3966 221.154 42.0684 221.154C41.3464 221.154 40.7925 220.965 40.4069 220.588C40.0254 220.21 39.8346 219.72 39.8346 219.117V215.4H38.3638V214.514H39.8346V213.049L41.0161 212.908V214.514H43.2315L43.0961 215.4H41.0161V219.105C41.0161 219.462 41.1064 219.73 41.2869 219.911C41.4715 220.091 41.7772 220.182 42.2038 220.182C42.4418 220.182 42.6613 220.155 42.8623 220.102C43.0674 220.044 43.2561 219.968 43.4284 219.874L43.8715 220.668ZM48.2636 211.412C48.5097 211.412 48.7066 211.488 48.8543 211.64C49.0061 211.792 49.082 211.976 49.082 212.194C49.082 212.419 49.0061 212.61 48.8543 212.766C48.7066 212.918 48.5097 212.994 48.2636 212.994C48.0215 212.994 47.8246 212.918 47.6728 212.766C47.5251 212.61 47.4513 212.419 47.4513 212.194C47.4513 211.976 47.5251 211.792 47.6728 211.64C47.8246 211.488 48.0215 211.412 48.2636 211.412ZM49.1436 214.514V220.102H50.9466V221H45.9866V220.102H47.962V215.412H46.0482V214.514H49.1436ZM52.8894 221V214.514H53.9048L53.991 215.388C54.2577 215.055 54.5818 214.801 54.9633 214.625C55.3489 214.448 55.7325 214.36 56.1141 214.36C56.7377 214.36 57.1971 214.53 57.4925 214.871C57.7879 215.207 57.9356 215.677 57.9356 216.28V221H56.7541V217.006C56.7541 216.596 56.7294 216.264 56.6802 216.009C56.6351 215.755 56.5387 215.57 56.391 215.455C56.2433 215.336 56.0197 215.277 55.7202 215.277C55.3674 215.277 55.0474 215.386 54.7602 215.603C54.473 215.821 54.2433 216.054 54.071 216.305V221H52.8894ZM65.3861 213.763L65.7307 214.809C65.46 214.895 65.1687 214.951 64.8569 214.975C64.5492 215 64.2087 215.012 63.8353 215.012C64.6025 215.357 64.9861 215.903 64.9861 216.649C64.9861 217.289 64.7646 217.816 64.3215 218.231C63.8825 218.645 63.2733 218.852 62.4938 218.852C62.2887 218.852 62.1143 218.844 61.9707 218.828C61.8271 218.807 61.6897 218.776 61.5584 218.735C61.3492 218.883 61.2446 219.08 61.2446 219.326C61.2446 219.47 61.302 219.593 61.4169 219.695C61.5317 219.794 61.7553 219.843 62.0876 219.843H63.2384C63.6856 219.843 64.0835 219.921 64.4323 220.077C64.7851 220.233 65.062 220.446 65.263 220.717C65.4641 220.984 65.5646 221.285 65.5646 221.622C65.5646 222.266 65.2897 222.76 64.74 223.105C64.1943 223.453 63.4148 223.628 62.4015 223.628C61.6876 223.628 61.1256 223.554 60.7153 223.406C60.3092 223.258 60.02 223.039 59.8476 222.748C59.6794 222.456 59.5953 222.091 59.5953 221.652H60.66C60.66 221.894 60.7071 222.093 60.8015 222.249C60.8959 222.409 61.0682 222.526 61.3184 222.6C61.5687 222.678 61.9297 222.717 62.4015 222.717C63.0989 222.717 63.6015 222.631 63.9092 222.458C64.2169 222.286 64.3707 222.034 64.3707 221.702C64.3707 221.41 64.2415 221.189 63.983 221.037C63.7246 220.889 63.3943 220.815 62.9923 220.815H61.8538C61.2712 220.815 60.8425 220.692 60.5676 220.446C60.2969 220.2 60.1615 219.913 60.1615 219.585C60.1615 219.129 60.3994 218.746 60.8753 218.434C60.141 218.048 59.7738 217.447 59.7738 216.631C59.7738 216.188 59.8846 215.796 60.1061 215.455C60.3317 215.111 60.6435 214.842 61.0415 214.649C61.4394 214.456 61.8969 214.36 62.4138 214.36C62.9512 214.36 63.3923 214.335 63.7369 214.286C64.0815 214.237 64.3789 214.167 64.6292 214.077C64.8794 213.987 65.1317 213.882 65.3861 213.763ZM62.42 215.197C61.9317 215.197 61.5687 215.332 61.3307 215.603C61.0969 215.87 60.98 216.212 60.98 216.631C60.98 217.057 61.101 217.404 61.343 217.671C61.5851 217.937 61.9523 218.071 62.4446 218.071C62.8794 218.071 63.2117 217.944 63.4415 217.689C63.6712 217.435 63.7861 217.078 63.7861 216.618C63.7861 215.671 63.3307 215.197 62.42 215.197ZM75.4994 215.326C75.7292 215.023 75.9979 214.787 76.3056 214.618C76.6174 214.446 76.9558 214.36 77.321 214.36C77.8953 214.36 78.361 214.502 78.7179 214.785C79.0748 215.064 79.3353 215.457 79.4994 215.966C79.6635 216.471 79.7456 217.066 79.7456 217.751C79.7456 218.407 79.6471 218.992 79.4502 219.505C79.2533 220.017 78.964 220.422 78.5825 220.717C78.201 221.008 77.7312 221.154 77.1733 221.154C76.4307 221.154 75.8502 220.883 75.4317 220.342L75.3579 221H74.3179V211.905L75.4994 211.763V215.326ZM76.884 220.225C77.3928 220.225 77.7846 220.024 78.0594 219.622C78.3384 219.215 78.4779 218.592 78.4779 217.751C78.4779 216.91 78.3528 216.29 78.1025 215.892C77.8563 215.49 77.4994 215.289 77.0317 215.289C76.6953 215.289 76.3979 215.392 76.1394 215.597C75.881 215.798 75.6676 216.028 75.4994 216.286V219.425C75.6635 219.671 75.8646 219.866 76.1025 220.009C76.3405 220.153 76.601 220.225 76.884 220.225ZM84.1253 211.905V219.326C84.1253 219.638 84.2217 219.859 84.4145 219.991C84.6074 220.118 84.8556 220.182 85.1592 220.182C85.352 220.182 85.5345 220.163 85.7068 220.126C85.8833 220.085 86.0556 220.03 86.2238 219.96L86.5315 220.803C86.3509 220.897 86.1253 220.979 85.8545 221.049C85.5838 221.119 85.2781 221.154 84.9376 221.154C84.3263 221.154 83.8402 220.984 83.4792 220.643C83.1222 220.303 82.9438 219.835 82.9438 219.24V212.803H80.9684V211.905H84.1253ZM91.1327 214.36C92.0599 214.36 92.7635 214.668 93.2435 215.283C93.7276 215.898 93.9697 216.721 93.9697 217.751C93.9697 218.419 93.8589 219.01 93.6374 219.523C93.4199 220.036 93.0999 220.436 92.6774 220.723C92.2548 221.01 91.7358 221.154 91.1204 221.154C90.1933 221.154 89.4856 220.846 88.9974 220.231C88.5133 219.615 88.2712 218.793 88.2712 217.763C88.2712 217.09 88.3799 216.499 88.5974 215.991C88.8189 215.478 89.1409 215.078 89.5635 214.791C89.9902 214.504 90.5133 214.36 91.1327 214.36ZM91.1327 215.302C90.5994 215.302 90.1974 215.503 89.9266 215.905C89.6558 216.303 89.5204 216.922 89.5204 217.763C89.5204 218.596 89.6538 219.213 89.9204 219.615C90.1871 220.013 90.5871 220.212 91.1204 220.212C91.6538 220.212 92.0538 220.013 92.3204 219.615C92.5871 219.213 92.7204 218.592 92.7204 217.751C92.7204 216.914 92.5871 216.296 92.3204 215.898C92.0538 215.501 91.6579 215.302 91.1327 215.302ZM101.1 213.763L101.445 214.809C101.174 214.895 100.883 214.951 100.571 214.975C100.263 215 99.9227 215.012 99.5494 215.012C100.317 215.357 100.7 215.903 100.7 216.649C100.7 217.289 100.479 217.816 100.036 218.231C99.5966 218.645 98.9873 218.852 98.2079 218.852C98.0027 218.852 97.8284 218.844 97.6848 218.828C97.5412 218.807 97.4038 218.776 97.2725 218.735C97.0632 218.883 96.9586 219.08 96.9586 219.326C96.9586 219.47 97.0161 219.593 97.1309 219.695C97.2458 219.794 97.4694 219.843 97.8017 219.843H98.9525C99.3997 219.843 99.7976 219.921 100.146 220.077C100.499 220.233 100.776 220.446 100.977 220.717C101.178 220.984 101.279 221.285 101.279 221.622C101.279 222.266 101.004 222.76 100.454 223.105C99.9084 223.453 99.1289 223.628 98.1156 223.628C97.4017 223.628 96.8397 223.554 96.4294 223.406C96.0232 223.258 95.734 223.039 95.5617 222.748C95.3935 222.456 95.3094 222.091 95.3094 221.652H96.374C96.374 221.894 96.4212 222.093 96.5156 222.249C96.6099 222.409 96.7822 222.526 97.0325 222.6C97.2827 222.678 97.6438 222.717 98.1156 222.717C98.813 222.717 99.3156 222.631 99.6232 222.458C99.9309 222.286 100.085 222.034 100.085 221.702C100.085 221.41 99.9556 221.189 99.6971 221.037C99.4386 220.889 99.1084 220.815 98.7063 220.815H97.5679C96.9853 220.815 96.5566 220.692 96.2817 220.446C96.0109 220.2 95.8756 219.913 95.8756 219.585C95.8756 219.129 96.1135 218.746 96.5894 218.434C95.855 218.048 95.4879 217.447 95.4879 216.631C95.4879 216.188 95.5986 215.796 95.8202 215.455C96.0458 215.111 96.3576 214.842 96.7556 214.649C97.1535 214.456 97.6109 214.36 98.1279 214.36C98.6653 214.36 99.1063 214.335 99.4509 214.286C99.7956 214.237 100.093 214.167 100.343 214.077C100.594 213.987 100.846 213.882 101.1 213.763ZM98.134 215.197C97.6458 215.197 97.2827 215.332 97.0448 215.603C96.8109 215.87 96.694 216.212 96.694 216.631C96.694 217.057 96.815 217.404 97.0571 217.671C97.2991 217.937 97.6663 218.071 98.1586 218.071C98.5935 218.071 98.9258 217.944 99.1556 217.689C99.3853 217.435 99.5002 217.078 99.5002 216.618C99.5002 215.671 99.0448 215.197 98.134 215.197ZM113.047 214.36C113.622 214.36 114.081 214.502 114.426 214.785C114.77 215.064 115.019 215.457 115.17 215.966C115.322 216.471 115.398 217.066 115.398 217.751C115.398 218.407 115.306 218.992 115.121 219.505C114.937 220.017 114.66 220.422 114.29 220.717C113.921 221.008 113.458 221.154 112.9 221.154C112.202 221.154 111.64 220.908 111.213 220.415V223.486L110.032 223.628V214.514H111.047L111.133 215.388C111.634 214.703 112.272 214.36 113.047 214.36ZM112.746 215.289C112.409 215.289 112.112 215.392 111.853 215.597C111.595 215.798 111.382 216.028 111.213 216.286V219.425C111.378 219.667 111.579 219.857 111.817 219.997C112.055 220.132 112.319 220.2 112.61 220.2C113.119 220.2 113.503 220.003 113.761 219.609C114.02 219.211 114.149 218.592 114.149 217.751C114.149 216.91 114.034 216.29 113.804 215.892C113.575 215.49 113.222 215.289 112.746 215.289ZM119.704 214.36C120.631 214.36 121.335 214.668 121.815 215.283C122.299 215.898 122.541 216.721 122.541 217.751C122.541 218.419 122.43 219.01 122.209 219.523C121.991 220.036 121.671 220.436 121.249 220.723C120.826 221.01 120.307 221.154 119.692 221.154C118.765 221.154 118.057 220.846 117.569 220.231C117.085 219.615 116.842 218.793 116.842 217.763C116.842 217.09 116.951 216.499 117.169 215.991C117.39 215.478 117.712 215.078 118.135 214.791C118.561 214.504 119.085 214.36 119.704 214.36ZM119.704 215.302C119.171 215.302 118.769 215.503 118.498 215.905C118.227 216.303 118.092 216.922 118.092 217.763C118.092 218.596 118.225 219.213 118.492 219.615C118.758 220.013 119.158 220.212 119.692 220.212C120.225 220.212 120.625 220.013 120.892 219.615C121.158 219.213 121.292 218.592 121.292 217.751C121.292 216.914 121.158 216.296 120.892 215.898C120.625 215.501 120.229 215.302 119.704 215.302ZM126.588 220.212C127.06 220.212 127.431 220.126 127.702 219.954C127.977 219.782 128.114 219.548 128.114 219.252C128.114 219.064 128.078 218.904 128.004 218.772C127.934 218.637 127.786 218.514 127.561 218.403C127.339 218.288 127.003 218.173 126.551 218.058C126.108 217.948 125.723 217.818 125.394 217.671C125.07 217.523 124.818 217.33 124.638 217.092C124.461 216.854 124.373 216.547 124.373 216.169C124.373 215.619 124.603 215.181 125.062 214.852C125.522 214.524 126.131 214.36 126.89 214.36C127.423 214.36 127.887 214.432 128.281 214.575C128.674 214.715 129.011 214.887 129.29 215.092L128.785 215.862C128.535 215.697 128.26 215.562 127.961 215.455C127.665 215.345 127.317 215.289 126.914 215.289C126.434 215.289 126.092 215.363 125.887 215.511C125.686 215.654 125.585 215.845 125.585 216.083C125.585 216.264 125.634 216.413 125.733 216.532C125.836 216.647 126.01 216.754 126.256 216.852C126.502 216.947 126.843 217.053 127.278 217.172C127.7 217.287 128.069 217.423 128.385 217.578C128.701 217.734 128.945 217.939 129.118 218.194C129.294 218.444 129.382 218.774 129.382 219.185C129.382 219.648 129.249 220.026 128.982 220.317C128.716 220.604 128.369 220.815 127.942 220.951C127.52 221.086 127.068 221.154 126.588 221.154C125.998 221.154 125.489 221.068 125.062 220.895C124.64 220.723 124.285 220.512 123.998 220.262L124.65 219.511C124.9 219.72 125.189 219.89 125.518 220.022C125.85 220.149 126.207 220.212 126.588 220.212ZM136.728 220.668C136.498 220.815 136.221 220.932 135.897 221.018C135.577 221.109 135.253 221.154 134.925 221.154C134.203 221.154 133.649 220.965 133.263 220.588C132.882 220.21 132.691 219.72 132.691 219.117V215.4H131.22V214.514H132.691V213.049L133.873 212.908V214.514H136.088L135.953 215.4H133.873V219.105C133.873 219.462 133.963 219.73 134.143 219.911C134.328 220.091 134.634 220.182 135.06 220.182C135.298 220.182 135.518 220.155 135.719 220.102C135.924 220.044 136.113 219.968 136.285 219.874L136.728 220.668ZM140.874 220.212C141.346 220.212 141.717 220.126 141.988 219.954C142.263 219.782 142.4 219.548 142.4 219.252C142.4 219.064 142.363 218.904 142.289 218.772C142.22 218.637 142.072 218.514 141.846 218.403C141.625 218.288 141.288 218.173 140.837 218.058C140.394 217.948 140.008 217.818 139.68 217.671C139.356 217.523 139.104 217.33 138.923 217.092C138.747 216.854 138.659 216.547 138.659 216.169C138.659 215.619 138.888 215.181 139.348 214.852C139.807 214.524 140.417 214.36 141.176 214.36C141.709 214.36 142.172 214.432 142.566 214.575C142.96 214.715 143.297 214.887 143.576 215.092L143.071 215.862C142.821 215.697 142.546 215.562 142.246 215.455C141.951 215.345 141.602 215.289 141.2 215.289C140.72 215.289 140.378 215.363 140.172 215.511C139.971 215.654 139.871 215.845 139.871 216.083C139.871 216.264 139.92 216.413 140.019 216.532C140.121 216.647 140.296 216.754 140.542 216.852C140.788 216.947 141.128 217.053 141.563 217.172C141.986 217.287 142.355 217.423 142.671 217.578C142.987 217.734 143.231 217.939 143.403 218.194C143.58 218.444 143.668 218.774 143.668 219.185C143.668 219.648 143.534 220.026 143.268 220.317C143.001 220.604 142.654 220.815 142.228 220.951C141.805 221.086 141.354 221.154 140.874 221.154C140.283 221.154 139.774 221.068 139.348 220.895C138.925 220.723 138.57 220.512 138.283 220.262L138.936 219.511C139.186 219.72 139.475 219.89 139.803 220.022C140.136 220.149 140.492 220.212 140.874 220.212ZM155.406 211.412C155.652 211.412 155.849 211.488 155.997 211.64C156.148 211.792 156.224 211.976 156.224 212.194C156.224 212.419 156.148 212.61 155.997 212.766C155.849 212.918 155.652 212.994 155.406 212.994C155.164 212.994 154.967 212.918 154.815 212.766C154.667 212.61 154.593 212.419 154.593 212.194C154.593 211.976 154.667 211.792 154.815 211.64C154.967 211.488 155.164 211.412 155.406 211.412ZM156.286 214.514V220.102H158.089V221H153.129V220.102H155.104V215.412H153.19V214.514H156.286ZM160.032 221V214.514H161.047L161.133 215.388C161.4 215.055 161.724 214.801 162.105 214.625C162.491 214.448 162.875 214.36 163.256 214.36C163.88 214.36 164.339 214.53 164.635 214.871C164.93 215.207 165.078 215.677 165.078 216.28V221H163.896V217.006C163.896 216.596 163.872 216.264 163.822 216.009C163.777 215.755 163.681 215.57 163.533 215.455C163.385 215.336 163.162 215.277 162.862 215.277C162.51 215.277 162.19 215.386 161.902 215.603C161.615 215.821 161.385 216.054 161.213 216.305V221H160.032ZM179.099 219.511C179.099 219.769 179.14 219.958 179.222 220.077C179.304 220.192 179.433 220.278 179.61 220.335L179.333 221.148C179.037 221.111 178.779 221.023 178.557 220.883C178.34 220.744 178.18 220.53 178.077 220.243C177.843 220.547 177.548 220.774 177.191 220.926C176.834 221.078 176.446 221.154 176.028 221.154C175.376 221.154 174.861 220.969 174.483 220.6C174.106 220.231 173.917 219.745 173.917 219.142C173.917 218.469 174.18 217.952 174.705 217.591C175.234 217.226 175.993 217.043 176.982 217.043H177.923V216.551C177.923 216.104 177.79 215.786 177.523 215.597C177.261 215.408 176.894 215.314 176.422 215.314C176.204 215.314 175.948 215.341 175.653 215.394C175.361 215.447 175.05 215.531 174.717 215.646L174.416 214.785C174.814 214.633 175.197 214.524 175.566 214.458C175.936 214.393 176.28 214.36 176.6 214.36C177.433 214.36 178.057 214.551 178.471 214.932C178.89 215.314 179.099 215.833 179.099 216.489V219.511ZM176.36 220.268C176.66 220.268 176.949 220.19 177.228 220.034C177.511 219.878 177.743 219.661 177.923 219.382V217.812H177.062C176.377 217.812 175.891 217.929 175.603 218.163C175.316 218.393 175.173 218.709 175.173 219.111C175.173 219.882 175.569 220.268 176.36 220.268ZM190.874 220.212C191.345 220.212 191.717 220.126 191.988 219.954C192.262 219.782 192.4 219.548 192.4 219.252C192.4 219.064 192.363 218.904 192.289 218.772C192.219 218.637 192.072 218.514 191.846 218.403C191.624 218.288 191.288 218.173 190.837 218.058C190.394 217.948 190.008 217.818 189.68 217.671C189.356 217.523 189.103 217.33 188.923 217.092C188.746 216.854 188.658 216.547 188.658 216.169C188.658 215.619 188.888 215.181 189.348 214.852C189.807 214.524 190.416 214.36 191.175 214.36C191.709 214.36 192.172 214.432 192.566 214.575C192.96 214.715 193.296 214.887 193.575 215.092L193.071 215.862C192.82 215.697 192.545 215.562 192.246 215.455C191.951 215.345 191.602 215.289 191.2 215.289C190.72 215.289 190.377 215.363 190.172 215.511C189.971 215.654 189.871 215.845 189.871 216.083C189.871 216.264 189.92 216.413 190.018 216.532C190.121 216.647 190.295 216.754 190.541 216.852C190.788 216.947 191.128 217.053 191.563 217.172C191.985 217.287 192.355 217.423 192.671 217.578C192.986 217.734 193.231 217.939 193.403 218.194C193.579 218.444 193.668 218.774 193.668 219.185C193.668 219.648 193.534 220.026 193.268 220.317C193.001 220.604 192.654 220.815 192.228 220.951C191.805 221.086 191.354 221.154 190.874 221.154C190.283 221.154 189.774 221.068 189.348 220.895C188.925 220.723 188.57 220.512 188.283 220.262L188.935 219.511C189.185 219.72 189.475 219.89 189.803 220.022C190.135 220.149 190.492 220.212 190.874 220.212ZM196.927 214.514V219.08C196.927 219.49 197.009 219.786 197.173 219.966C197.342 220.143 197.6 220.231 197.949 220.231C198.277 220.231 198.591 220.134 198.89 219.942C199.194 219.749 199.43 219.519 199.598 219.252V214.514H200.78V221H199.764L199.678 220.145C199.428 220.473 199.116 220.723 198.743 220.895C198.373 221.068 197.998 221.154 197.616 221.154C196.989 221.154 196.519 220.984 196.207 220.643C195.9 220.303 195.746 219.831 195.746 219.228V214.514H196.927ZM204.07 215.326C204.3 215.023 204.569 214.787 204.876 214.618C205.188 214.446 205.526 214.36 205.892 214.36C206.466 214.36 206.932 214.502 207.289 214.785C207.645 215.064 207.906 215.457 208.07 215.966C208.234 216.471 208.316 217.066 208.316 217.751C208.316 218.407 208.218 218.992 208.021 219.505C207.824 220.017 207.535 220.422 207.153 220.717C206.772 221.008 206.302 221.154 205.744 221.154C205.001 221.154 204.421 220.883 204.002 220.342L203.929 221H202.889V211.905L204.07 211.763V215.326ZM205.455 220.225C205.963 220.225 206.355 220.024 206.63 219.622C206.909 219.215 207.049 218.592 207.049 217.751C207.049 216.91 206.923 216.29 206.673 215.892C206.427 215.49 206.07 215.289 205.602 215.289C205.266 215.289 204.969 215.392 204.71 215.597C204.452 215.798 204.238 216.028 204.07 216.286V219.425C204.234 219.671 204.435 219.866 204.673 220.009C204.911 220.153 205.172 220.225 205.455 220.225ZM213.914 211.763C214.284 211.763 214.616 211.796 214.911 211.862C215.207 211.923 215.486 212.011 215.748 212.126L215.379 212.975C215.17 212.881 214.946 212.813 214.708 212.772C214.474 212.727 214.234 212.705 213.988 212.705C213.11 212.705 212.671 213.055 212.671 213.757V215H214.862L214.733 215.898H212.671V221H211.496V215.898H209.976V215H211.496V213.763C211.496 213.361 211.599 213.01 211.804 212.711C212.013 212.411 212.298 212.179 212.659 212.015C213.024 211.847 213.443 211.763 213.914 211.763ZM219.703 214.36C220.631 214.36 221.334 214.668 221.814 215.283C222.298 215.898 222.54 216.721 222.54 217.751C222.54 218.419 222.43 219.01 222.208 219.523C221.991 220.036 221.671 220.436 221.248 220.723C220.825 221.01 220.306 221.154 219.691 221.154C218.764 221.154 218.056 220.846 217.568 220.231C217.084 219.615 216.842 218.793 216.842 217.763C216.842 217.09 216.951 216.499 217.168 215.991C217.39 215.478 217.712 215.078 218.134 214.791C218.561 214.504 219.084 214.36 219.703 214.36ZM219.703 215.302C219.17 215.302 218.768 215.503 218.497 215.905C218.226 216.303 218.091 216.922 218.091 217.763C218.091 218.596 218.224 219.213 218.491 219.615C218.758 220.013 219.158 220.212 219.691 220.212C220.224 220.212 220.624 220.013 220.891 219.615C221.158 219.213 221.291 218.592 221.291 217.751C221.291 216.914 221.158 216.296 220.891 215.898C220.624 215.501 220.228 215.302 219.703 215.302ZM226.982 211.905V219.326C226.982 219.638 227.078 219.859 227.271 219.991C227.464 220.118 227.712 220.182 228.015 220.182C228.208 220.182 228.391 220.163 228.563 220.126C228.74 220.085 228.912 220.03 229.08 219.96L229.388 220.803C229.207 220.897 228.982 220.979 228.711 221.049C228.44 221.119 228.134 221.154 227.794 221.154C227.183 221.154 226.696 220.984 226.335 220.643C225.978 220.303 225.8 219.835 225.8 219.24V212.803H223.825V211.905H226.982ZM235.312 211.763L236.494 211.905V221H235.454L235.355 220.169C234.896 220.826 234.284 221.154 233.521 221.154C232.963 221.154 232.502 221.012 232.137 220.729C231.776 220.442 231.507 220.044 231.331 219.535C231.154 219.027 231.066 218.436 231.066 217.763C231.066 217.107 231.166 216.524 231.367 216.015C231.573 215.503 231.864 215.098 232.241 214.803C232.623 214.508 233.082 214.36 233.62 214.36C234.317 214.36 234.881 214.606 235.312 215.098V211.763ZM233.927 215.289C233.419 215.289 233.025 215.492 232.746 215.898C232.471 216.305 232.334 216.926 232.334 217.763C232.334 218.596 232.459 219.213 232.709 219.615C232.963 220.017 233.328 220.218 233.804 220.218C234.145 220.218 234.438 220.122 234.684 219.929C234.935 219.732 235.144 219.503 235.312 219.24V216.071C235.144 215.825 234.941 215.634 234.703 215.498C234.469 215.359 234.211 215.289 233.927 215.289ZM239.556 218.157C239.589 218.871 239.782 219.39 240.135 219.714C240.492 220.038 240.914 220.2 241.403 220.2C241.727 220.2 242.024 220.151 242.295 220.052C242.566 219.954 242.841 219.81 243.119 219.622L243.655 220.366C243.351 220.608 243.001 220.801 242.603 220.945C242.205 221.084 241.792 221.154 241.366 221.154C240.717 221.154 240.166 221.012 239.71 220.729C239.259 220.442 238.914 220.044 238.676 219.535C238.443 219.027 238.326 218.436 238.326 217.763C238.326 217.111 238.443 216.528 238.676 216.015C238.914 215.503 239.249 215.098 239.679 214.803C240.11 214.508 240.623 214.36 241.218 214.36C242.055 214.36 242.713 214.647 243.193 215.222C243.677 215.792 243.919 216.573 243.919 217.566C243.919 217.677 243.917 217.784 243.913 217.886C243.909 217.989 243.903 218.079 243.895 218.157H239.556ZM241.23 215.283C240.767 215.283 240.383 215.447 240.079 215.775C239.776 216.104 239.602 216.61 239.556 217.295H242.781C242.769 216.639 242.625 216.141 242.35 215.8C242.079 215.455 241.706 215.283 241.23 215.283ZM245.807 221V220.126H246.792V215.388H245.807V214.514H247.696L247.912 216.034C248.158 215.496 248.459 215.084 248.816 214.797C249.177 214.506 249.645 214.36 250.219 214.36C250.408 214.36 250.574 214.374 250.718 214.403C250.865 214.432 251.015 214.469 251.167 214.514L250.982 216.791H250.072V215.437H250.065C249.093 215.437 248.396 216.132 247.973 217.523V220.126H249.29V221H245.807ZM263.883 211.763L265.065 211.905V221H264.025L263.926 220.169C263.467 220.826 262.856 221.154 262.093 221.154C261.535 221.154 261.073 221.012 260.708 220.729C260.347 220.442 260.078 220.044 259.902 219.535C259.725 219.027 259.637 218.436 259.637 217.763C259.637 217.107 259.738 216.524 259.939 216.015C260.144 215.503 260.435 215.098 260.813 214.803C261.194 214.508 261.654 214.36 262.191 214.36C262.888 214.36 263.453 214.606 263.883 215.098V211.763ZM262.499 215.289C261.99 215.289 261.596 215.492 261.317 215.898C261.042 216.305 260.905 216.926 260.905 217.763C260.905 218.596 261.03 219.213 261.28 219.615C261.535 220.017 261.9 220.218 262.376 220.218C262.716 220.218 263.009 220.122 263.256 219.929C263.506 219.732 263.715 219.503 263.883 219.24V216.071C263.715 215.825 263.512 215.634 263.274 215.498C263.04 215.359 262.782 215.289 262.499 215.289ZM269.703 214.36C270.63 214.36 271.334 214.668 271.814 215.283C272.298 215.898 272.54 216.721 272.54 217.751C272.54 218.419 272.429 219.01 272.208 219.523C271.99 220.036 271.67 220.436 271.248 220.723C270.825 221.01 270.306 221.154 269.691 221.154C268.764 221.154 268.056 220.846 267.568 220.231C267.084 219.615 266.842 218.793 266.842 217.763C266.842 217.09 266.95 216.499 267.168 215.991C267.389 215.478 267.711 215.078 268.134 214.791C268.56 214.504 269.084 214.36 269.703 214.36ZM269.703 215.302C269.17 215.302 268.768 215.503 268.497 215.905C268.226 216.303 268.091 216.922 268.091 217.763C268.091 218.596 268.224 219.213 268.491 219.615C268.757 220.013 269.157 220.212 269.691 220.212C270.224 220.212 270.624 220.013 270.891 219.615C271.157 219.213 271.291 218.592 271.291 217.751C271.291 216.914 271.157 216.296 270.891 215.898C270.624 215.501 270.228 215.302 269.703 215.302ZM275.27 218.157C275.303 218.871 275.496 219.39 275.849 219.714C276.206 220.038 276.628 220.2 277.117 220.2C277.441 220.2 277.738 220.151 278.009 220.052C278.28 219.954 278.555 219.81 278.834 219.622L279.369 220.366C279.065 220.608 278.715 220.801 278.317 220.945C277.919 221.084 277.506 221.154 277.08 221.154C276.431 221.154 275.88 221.012 275.424 220.729C274.973 220.442 274.628 220.044 274.39 219.535C274.157 219.027 274.04 218.436 274.04 217.763C274.04 217.111 274.157 216.528 274.39 216.015C274.628 215.503 274.963 215.098 275.394 214.803C275.824 214.508 276.337 214.36 276.932 214.36C277.769 214.36 278.427 214.647 278.907 215.222C279.391 215.792 279.634 216.573 279.634 217.566C279.634 217.677 279.631 217.784 279.627 217.886C279.623 217.989 279.617 218.079 279.609 218.157H275.27ZM276.944 215.283C276.481 215.283 276.097 215.447 275.794 215.775C275.49 216.104 275.316 216.61 275.27 217.295H278.495C278.483 216.639 278.339 216.141 278.064 215.8C277.794 215.455 277.42 215.283 276.944 215.283ZM283.73 220.212C284.202 220.212 284.573 220.126 284.844 219.954C285.119 219.782 285.256 219.548 285.256 219.252C285.256 219.064 285.219 218.904 285.146 218.772C285.076 218.637 284.928 218.514 284.703 218.403C284.481 218.288 284.145 218.173 283.693 218.058C283.25 217.948 282.865 217.818 282.536 217.671C282.212 217.523 281.96 217.33 281.779 217.092C281.603 216.854 281.515 216.547 281.515 216.169C281.515 215.619 281.745 215.181 282.204 214.852C282.664 214.524 283.273 214.36 284.032 214.36C284.565 214.36 285.029 214.432 285.423 214.575C285.816 214.715 286.153 214.887 286.432 215.092L285.927 215.862C285.677 215.697 285.402 215.562 285.103 215.455C284.807 215.345 284.458 215.289 284.056 215.289C283.576 215.289 283.234 215.363 283.029 215.511C282.828 215.654 282.727 215.845 282.727 216.083C282.727 216.264 282.776 216.413 282.875 216.532C282.977 216.647 283.152 216.754 283.398 216.852C283.644 216.947 283.985 217.053 284.419 217.172C284.842 217.287 285.211 217.423 285.527 217.578C285.843 217.734 286.087 217.939 286.259 218.194C286.436 218.444 286.524 218.774 286.524 219.185C286.524 219.648 286.391 220.026 286.124 220.317C285.857 220.604 285.511 220.815 285.084 220.951C284.661 221.086 284.21 221.154 283.73 221.154C283.139 221.154 282.631 221.068 282.204 220.895C281.781 220.723 281.427 220.512 281.139 220.262L281.792 219.511C282.042 219.72 282.331 219.89 282.659 220.022C282.992 220.149 283.349 220.212 283.73 220.212ZM295.745 221V214.514H296.76L296.847 215.388C297.113 215.055 297.437 214.801 297.819 214.625C298.205 214.448 298.588 214.36 298.97 214.36C299.593 214.36 300.053 214.53 300.348 214.871C300.644 215.207 300.791 215.677 300.791 216.28V221H299.61V217.006C299.61 216.596 299.585 216.264 299.536 216.009C299.491 215.755 299.394 215.57 299.247 215.455C299.099 215.336 298.875 215.277 298.576 215.277C298.223 215.277 297.903 215.386 297.616 215.603C297.329 215.821 297.099 216.054 296.927 216.305V221H295.745ZM305.417 214.36C306.344 214.36 307.048 214.668 307.528 215.283C308.012 215.898 308.254 216.721 308.254 217.751C308.254 218.419 308.143 219.01 307.922 219.523C307.704 220.036 307.384 220.436 306.962 220.723C306.539 221.01 306.02 221.154 305.405 221.154C304.478 221.154 303.77 220.846 303.282 220.231C302.798 219.615 302.556 218.793 302.556 217.763C302.556 217.09 302.664 216.499 302.882 215.991C303.103 215.478 303.425 215.078 303.848 214.791C304.275 214.504 304.798 214.36 305.417 214.36ZM305.417 215.302C304.884 215.302 304.482 215.503 304.211 215.905C303.94 216.303 303.805 216.922 303.805 217.763C303.805 218.596 303.938 219.213 304.205 219.615C304.471 220.013 304.871 220.212 305.405 220.212C305.938 220.212 306.338 220.013 306.605 219.615C306.871 219.213 307.005 218.592 307.005 217.751C307.005 216.914 306.871 216.296 306.605 215.898C306.338 215.501 305.942 215.302 305.417 215.302ZM315.298 220.668C315.069 220.815 314.792 220.932 314.468 221.018C314.148 221.109 313.824 221.154 313.495 221.154C312.773 221.154 312.219 220.965 311.834 220.588C311.452 220.21 311.261 219.72 311.261 219.117V215.4H309.791V214.514H311.261V213.049L312.443 212.908V214.514H314.658L314.523 215.4H312.443V219.105C312.443 219.462 312.533 219.73 312.714 219.911C312.898 220.091 313.204 220.182 313.631 220.182C313.869 220.182 314.088 220.155 314.289 220.102C314.494 220.044 314.683 219.968 314.855 219.874L315.298 220.668ZM329.239 221H327.664L326.87 216.305L326.015 221H324.476L323.326 214.514H324.501L325.264 220.268L326.242 215.338H327.535L328.452 220.268L329.215 214.514H330.341L329.239 221ZM333.988 214.36C334.916 214.36 335.619 214.668 336.099 215.283C336.583 215.898 336.825 216.721 336.825 217.751C336.825 218.419 336.715 219.01 336.493 219.523C336.276 220.036 335.956 220.436 335.533 220.723C335.11 221.01 334.591 221.154 333.976 221.154C333.049 221.154 332.341 220.846 331.853 220.231C331.369 219.615 331.127 218.793 331.127 217.763C331.127 217.09 331.236 216.499 331.453 215.991C331.675 215.478 331.997 215.078 332.419 214.791C332.846 214.504 333.369 214.36 333.988 214.36ZM333.988 215.302C333.455 215.302 333.053 215.503 332.782 215.905C332.511 216.303 332.376 216.922 332.376 217.763C332.376 218.596 332.509 219.213 332.776 219.615C333.043 220.013 333.443 220.212 333.976 220.212C334.509 220.212 334.909 220.013 335.176 219.615C335.443 219.213 335.576 218.592 335.576 217.751C335.576 216.914 335.443 216.296 335.176 215.898C334.909 215.501 334.513 215.302 333.988 215.302ZM338.663 221V220.126H339.648V215.388H338.663V214.514H340.553L340.768 216.034C341.014 215.496 341.316 215.084 341.673 214.797C342.034 214.506 342.501 214.36 343.076 214.36C343.265 214.36 343.431 214.374 343.574 214.403C343.722 214.432 343.872 214.469 344.023 214.514L343.839 216.791H342.928V215.437H342.922C341.95 215.437 341.252 216.132 340.83 217.523V220.126H342.147V221H338.663ZM346.982 211.763V221H345.8V211.905L346.982 211.763ZM351.302 214.514L348.508 217.425L351.609 221H350.114L347.092 217.455L349.843 214.514H351.302ZM354.272 220.015C354.272 219.704 354.379 219.439 354.592 219.222C354.81 219.004 355.076 218.895 355.392 218.895C355.716 218.895 355.987 219.004 356.204 219.222C356.422 219.439 356.531 219.704 356.531 220.015C356.531 220.331 356.422 220.6 356.204 220.822C355.987 221.043 355.716 221.154 355.392 221.154C355.076 221.154 354.81 221.043 354.592 220.822C354.379 220.6 354.272 220.331 354.272 220.015ZM372.662 218.631C372.662 219.123 372.537 219.56 372.287 219.942C372.041 220.319 371.682 220.616 371.21 220.834C370.742 221.047 370.174 221.154 369.505 221.154C368.857 221.154 368.279 221.055 367.77 220.858C367.261 220.662 366.829 220.391 366.472 220.046L367.167 219.265C367.462 219.539 367.801 219.757 368.182 219.917C368.564 220.077 369.009 220.157 369.518 220.157C369.85 220.157 370.158 220.104 370.441 219.997C370.728 219.886 370.958 219.722 371.13 219.505C371.307 219.283 371.395 219.006 371.395 218.674C371.395 218.411 371.341 218.188 371.235 218.003C371.132 217.814 370.95 217.648 370.687 217.505C370.424 217.361 370.057 217.219 369.585 217.08C369.011 216.912 368.519 216.721 368.109 216.508C367.702 216.29 367.391 216.03 367.173 215.726C366.96 215.418 366.853 215.041 366.853 214.594C366.853 214.155 366.974 213.769 367.216 213.437C367.458 213.101 367.791 212.838 368.213 212.649C368.636 212.461 369.122 212.366 369.672 212.366C370.267 212.366 370.785 212.452 371.229 212.625C371.676 212.797 372.078 213.041 372.435 213.357L371.758 214.12C371.454 213.853 371.128 213.661 370.779 213.542C370.435 213.418 370.084 213.357 369.727 213.357C369.276 213.357 368.892 213.455 368.576 213.652C368.26 213.845 368.102 214.141 368.102 214.538C368.102 214.776 368.166 214.979 368.293 215.148C368.42 215.312 368.634 215.464 368.933 215.603C369.237 215.743 369.651 215.89 370.176 216.046C370.632 216.182 371.046 216.348 371.419 216.545C371.797 216.737 372.098 217 372.324 217.332C372.55 217.661 372.662 218.093 372.662 218.631ZM379.584 220.668C379.354 220.815 379.077 220.932 378.753 221.018C378.433 221.109 378.109 221.154 377.781 221.154C377.059 221.154 376.505 220.965 376.119 220.588C375.738 220.21 375.547 219.72 375.547 219.117V215.4H374.076V214.514H375.547V213.049L376.728 212.908V214.514H378.944L378.808 215.4H376.728V219.105C376.728 219.462 376.819 219.73 376.999 219.911C377.184 220.091 377.489 220.182 377.916 220.182C378.154 220.182 378.373 220.155 378.574 220.102C378.78 220.044 378.968 219.968 379.141 219.874L379.584 220.668ZM386.24 219.511C386.24 219.769 386.281 219.958 386.363 220.077C386.445 220.192 386.575 220.278 386.751 220.335L386.474 221.148C386.179 221.111 385.92 221.023 385.699 220.883C385.481 220.744 385.321 220.53 385.219 220.243C384.985 220.547 384.69 220.774 384.333 220.926C383.976 221.078 383.588 221.154 383.17 221.154C382.517 221.154 382.002 220.969 381.625 220.6C381.248 220.231 381.059 219.745 381.059 219.142C381.059 218.469 381.321 217.952 381.847 217.591C382.376 217.226 383.135 217.043 384.123 217.043H385.065V216.551C385.065 216.104 384.932 215.786 384.665 215.597C384.402 215.408 384.035 215.314 383.563 215.314C383.346 215.314 383.09 215.341 382.794 215.394C382.503 215.447 382.191 215.531 381.859 215.646L381.557 214.785C381.955 214.633 382.339 214.524 382.708 214.458C383.077 214.393 383.422 214.36 383.742 214.36C384.575 214.36 385.198 214.551 385.613 214.932C386.031 215.314 386.24 215.833 386.24 216.489V219.511ZM383.502 220.268C383.801 220.268 384.091 220.19 384.37 220.034C384.653 219.878 384.884 219.661 385.065 219.382V217.812H384.203C383.518 217.812 383.032 217.929 382.745 218.163C382.458 218.393 382.314 218.709 382.314 219.111C382.314 219.882 382.71 220.268 383.502 220.268ZM393.869 220.668C393.64 220.815 393.363 220.932 393.039 221.018C392.719 221.109 392.394 221.154 392.066 221.154C391.344 221.154 390.79 220.965 390.405 220.588C390.023 220.21 389.832 219.72 389.832 219.117V215.4H388.362V214.514H389.832V213.049L391.014 212.908V214.514H393.229L393.094 215.4H391.014V219.105C391.014 219.462 391.104 219.73 391.285 219.911C391.469 220.091 391.775 220.182 392.202 220.182C392.44 220.182 392.659 220.155 392.86 220.102C393.065 220.044 393.254 219.968 393.426 219.874L393.869 220.668ZM396.926 214.514V219.08C396.926 219.49 397.008 219.786 397.172 219.966C397.34 220.143 397.599 220.231 397.948 220.231C398.276 220.231 398.59 220.134 398.889 219.942C399.193 219.749 399.429 219.519 399.597 219.252V214.514H400.778V221H399.763L399.677 220.145C399.426 220.473 399.115 220.723 398.741 220.895C398.372 221.068 397.997 221.154 397.615 221.154C396.988 221.154 396.518 220.984 396.206 220.643C395.898 220.303 395.744 219.831 395.744 219.228V214.514H396.926ZM405.158 220.212C405.63 220.212 406.001 220.126 406.272 219.954C406.547 219.782 406.684 219.548 406.684 219.252C406.684 219.064 406.647 218.904 406.573 218.772C406.504 218.637 406.356 218.514 406.13 218.403C405.909 218.288 405.572 218.173 405.121 218.058C404.678 217.948 404.292 217.818 403.964 217.671C403.64 217.523 403.388 217.33 403.207 217.092C403.031 216.854 402.943 216.547 402.943 216.169C402.943 215.619 403.172 215.181 403.632 214.852C404.091 214.524 404.701 214.36 405.46 214.36C405.993 214.36 406.456 214.432 406.85 214.575C407.244 214.715 407.581 214.887 407.86 215.092L407.355 215.862C407.105 215.697 406.83 215.562 406.53 215.455C406.235 215.345 405.886 215.289 405.484 215.289C405.004 215.289 404.662 215.363 404.456 215.511C404.255 215.654 404.155 215.845 404.155 216.083C404.155 216.264 404.204 216.413 404.303 216.532C404.405 216.647 404.58 216.754 404.826 216.852C405.072 216.947 405.412 217.053 405.847 217.172C406.27 217.287 406.639 217.423 406.955 217.578C407.271 217.734 407.515 217.939 407.687 218.194C407.864 218.444 407.952 218.774 407.952 219.185C407.952 219.648 407.819 220.026 407.552 220.317C407.285 220.604 406.939 220.815 406.512 220.951C406.089 221.086 405.638 221.154 405.158 221.154C404.567 221.154 404.059 221.068 403.632 220.895C403.209 220.723 402.854 220.512 402.567 220.262L403.22 219.511C403.47 219.72 403.759 219.89 404.087 220.022C404.42 220.149 404.776 220.212 405.158 220.212ZM411.495 215.695C411.495 215.408 411.595 215.164 411.796 214.963C411.997 214.758 412.243 214.655 412.535 214.655C412.834 214.655 413.084 214.758 413.285 214.963C413.486 215.164 413.587 215.408 413.587 215.695C413.587 215.983 413.486 216.229 413.285 216.434C413.084 216.639 412.834 216.742 412.535 216.742C412.243 216.742 411.997 216.639 411.796 216.434C411.595 216.229 411.495 215.983 411.495 215.695ZM411.495 220.102C411.495 219.823 411.595 219.581 411.796 219.375C411.997 219.17 412.243 219.068 412.535 219.068C412.834 219.068 413.084 219.17 413.285 219.375C413.486 219.581 413.587 219.823 413.587 220.102C413.587 220.393 413.486 220.641 413.285 220.846C413.084 221.051 412.834 221.154 412.535 221.154C412.243 221.154 411.997 221.051 411.796 220.846C411.595 220.641 411.495 220.393 411.495 220.102ZM430.002 216.766C430.002 217.628 429.883 218.389 429.645 219.049C429.407 219.71 429.052 220.227 428.58 220.6C428.113 220.969 427.53 221.154 426.833 221.154C426.135 221.154 425.551 220.973 425.079 220.612C424.611 220.247 424.258 219.736 424.02 219.08C423.782 218.424 423.663 217.656 423.663 216.778C423.663 215.913 423.782 215.15 424.02 214.489C424.258 213.825 424.611 213.306 425.079 212.932C425.551 212.555 426.135 212.366 426.833 212.366C427.53 212.366 428.113 212.549 428.58 212.914C429.052 213.279 429.407 213.792 429.645 214.452C429.883 215.113 430.002 215.884 430.002 216.766ZM428.728 216.766C428.728 215.65 428.58 214.803 428.285 214.225C427.994 213.646 427.51 213.357 426.833 213.357C426.156 213.357 425.67 213.648 425.374 214.231C425.083 214.813 424.937 215.663 424.937 216.778C424.937 217.89 425.087 218.733 425.386 219.308C425.69 219.878 426.172 220.163 426.833 220.163C427.51 220.163 427.994 219.876 428.285 219.302C428.58 218.723 428.728 217.878 428.728 216.766ZM434.474 214.36C435.048 214.36 435.508 214.502 435.852 214.785C436.197 215.064 436.445 215.457 436.597 215.966C436.749 216.471 436.825 217.066 436.825 217.751C436.825 218.407 436.732 218.992 436.548 219.505C436.363 220.017 436.086 220.422 435.717 220.717C435.348 221.008 434.884 221.154 434.326 221.154C433.629 221.154 433.067 220.908 432.64 220.415V223.486L431.458 223.628V214.514H432.474L432.56 215.388C433.061 214.703 433.698 214.36 434.474 214.36ZM434.172 215.289C433.836 215.289 433.538 215.392 433.28 215.597C433.022 215.798 432.808 216.028 432.64 216.286V219.425C432.804 219.667 433.005 219.857 433.243 219.997C433.481 220.132 433.746 220.2 434.037 220.2C434.546 220.2 434.929 220.003 435.188 219.609C435.446 219.211 435.575 218.592 435.575 217.751C435.575 216.91 435.461 216.29 435.231 215.892C435.001 215.49 434.648 215.289 434.172 215.289ZM439.555 218.157C439.588 218.871 439.781 219.39 440.134 219.714C440.491 220.038 440.913 220.2 441.401 220.2C441.725 220.2 442.023 220.151 442.294 220.052C442.564 219.954 442.839 219.81 443.118 219.622L443.654 220.366C443.35 220.608 442.999 220.801 442.601 220.945C442.203 221.084 441.791 221.154 441.364 221.154C440.716 221.154 440.164 221.012 439.709 220.729C439.258 220.442 438.913 220.044 438.675 219.535C438.441 219.027 438.324 218.436 438.324 217.763C438.324 217.111 438.441 216.528 438.675 216.015C438.913 215.503 439.247 215.098 439.678 214.803C440.109 214.508 440.622 214.36 441.217 214.36C442.054 214.36 442.712 214.647 443.192 215.222C443.676 215.792 443.918 216.573 443.918 217.566C443.918 217.677 443.916 217.784 443.912 217.886C443.908 217.989 443.902 218.079 443.894 218.157H439.555ZM441.229 215.283C440.765 215.283 440.382 215.447 440.078 215.775C439.775 216.104 439.6 216.61 439.555 217.295H442.78C442.767 216.639 442.624 216.141 442.349 215.8C442.078 215.455 441.705 215.283 441.229 215.283ZM445.744 221V214.514H446.76L446.846 215.388C447.112 215.055 447.436 214.801 447.818 214.625C448.204 214.448 448.587 214.36 448.969 214.36C449.592 214.36 450.052 214.53 450.347 214.871C450.643 215.207 450.79 215.677 450.79 216.28V221H449.609V217.006C449.609 216.596 449.584 216.264 449.535 216.009C449.49 215.755 449.393 215.57 449.246 215.455C449.098 215.336 448.874 215.277 448.575 215.277C448.222 215.277 447.902 215.386 447.615 215.603C447.328 215.821 447.098 216.054 446.926 216.305V221H445.744ZM454.272 220.015C454.272 219.704 454.378 219.439 454.592 219.222C454.809 219.004 455.076 218.895 455.392 218.895C455.716 218.895 455.986 219.004 456.204 219.222C456.421 219.439 456.53 219.704 456.53 220.015C456.53 220.331 456.421 220.6 456.204 220.822C455.986 221.043 455.716 221.154 455.392 221.154C455.076 221.154 454.809 221.043 454.592 220.822C454.378 220.6 454.272 220.331 454.272 220.015ZM471.265 218.889H468.053L467.413 221H466.188L468.92 212.52H470.459L473.197 221H471.905L471.265 218.889ZM468.336 217.911H470.982L469.665 213.505L468.336 217.911ZM475.497 214.514V219.08C475.497 219.49 475.579 219.786 475.743 219.966C475.911 220.143 476.17 220.231 476.518 220.231C476.847 220.231 477.161 220.134 477.46 219.942C477.764 219.749 478 219.519 478.168 219.252V214.514H479.349V221H478.334L478.248 220.145C477.997 220.473 477.686 220.723 477.312 220.895C476.943 221.068 476.568 221.154 476.186 221.154C475.558 221.154 475.089 220.984 474.777 220.643C474.469 220.303 474.315 219.831 474.315 219.228V214.514H475.497ZM486.726 220.668C486.496 220.815 486.219 220.932 485.895 221.018C485.575 221.109 485.251 221.154 484.923 221.154C484.201 221.154 483.647 220.965 483.261 220.588C482.88 220.21 482.689 219.72 482.689 219.117V215.4H481.218V214.514H482.689V213.049L483.87 212.908V214.514H486.086L485.95 215.4H483.87V219.105C483.87 219.462 483.961 219.73 484.141 219.911C484.326 220.091 484.632 220.182 485.058 220.182C485.296 220.182 485.516 220.155 485.717 220.102C485.922 220.044 486.11 219.968 486.283 219.874L486.726 220.668ZM489.783 211.788V215.357C490.041 215.029 490.351 214.781 490.712 214.612C491.077 214.444 491.448 214.36 491.826 214.36C492.449 214.36 492.909 214.53 493.204 214.871C493.499 215.207 493.647 215.677 493.647 216.28V221H492.466V216.385C492.466 215.995 492.382 215.714 492.213 215.542C492.049 215.365 491.787 215.277 491.426 215.277C491.081 215.277 490.763 215.386 490.472 215.603C490.185 215.821 489.955 216.056 489.783 216.311V221H488.601V211.917L489.783 211.788ZM498.273 214.36C499.2 214.36 499.904 214.668 500.384 215.283C500.868 215.898 501.11 216.721 501.11 217.751C501.11 218.419 500.999 219.01 500.778 219.523C500.56 220.036 500.24 220.436 499.818 220.723C499.395 221.01 498.876 221.154 498.261 221.154C497.334 221.154 496.626 220.846 496.138 220.231C495.654 219.615 495.412 218.793 495.412 217.763C495.412 217.09 495.52 216.499 495.738 215.991C495.959 215.478 496.281 215.078 496.704 214.791C497.131 214.504 497.654 214.36 498.273 214.36ZM498.273 215.302C497.74 215.302 497.338 215.503 497.067 215.905C496.796 216.303 496.661 216.922 496.661 217.763C496.661 218.596 496.794 219.213 497.061 219.615C497.327 220.013 497.727 220.212 498.261 220.212C498.794 220.212 499.194 220.013 499.461 219.615C499.727 219.213 499.861 218.592 499.861 217.751C499.861 216.914 499.727 216.296 499.461 215.898C499.194 215.501 498.798 215.302 498.273 215.302ZM502.948 221V220.126H503.933V215.388H502.948V214.514H504.837L505.053 216.034C505.299 215.496 505.6 215.084 505.957 214.797C506.318 214.506 506.786 214.36 507.36 214.36C507.549 214.36 507.715 214.374 507.859 214.403C508.007 214.432 508.156 214.469 508.308 214.514L508.124 216.791H507.213V215.437H507.207C506.234 215.437 505.537 216.132 505.114 217.523V220.126H506.431V221H502.948ZM511.494 215.695C511.494 215.408 511.595 215.164 511.796 214.963C511.997 214.758 512.243 214.655 512.534 214.655C512.834 214.655 513.084 214.758 513.285 214.963C513.486 215.164 513.586 215.408 513.586 215.695C513.586 215.983 513.486 216.229 513.285 216.434C513.084 216.639 512.834 216.742 512.534 216.742C512.243 216.742 511.997 216.639 511.796 216.434C511.595 216.229 511.494 215.983 511.494 215.695ZM511.494 220.102C511.494 219.823 511.595 219.581 511.796 219.375C511.997 219.17 512.243 219.068 512.534 219.068C512.834 219.068 513.084 219.17 513.285 219.375C513.486 219.581 513.586 219.823 513.586 220.102C513.586 220.393 513.486 220.641 513.285 220.846C513.084 221.051 512.834 221.154 512.534 221.154C512.243 221.154 511.997 221.051 511.796 220.846C511.595 220.641 511.494 220.393 511.494 220.102ZM529.669 213.763L530.014 214.809C529.743 214.895 529.451 214.951 529.14 214.975C528.832 215 528.491 215.012 528.118 215.012C528.885 215.357 529.269 215.903 529.269 216.649C529.269 217.289 529.047 217.816 528.604 218.231C528.165 218.645 527.556 218.852 526.777 218.852C526.571 218.852 526.397 218.844 526.254 218.828C526.11 218.807 525.972 218.776 525.841 218.735C525.632 218.883 525.527 219.08 525.527 219.326C525.527 219.47 525.585 219.593 525.7 219.695C525.815 219.794 526.038 219.843 526.37 219.843H527.521C527.968 219.843 528.366 219.921 528.715 220.077C529.068 220.233 529.345 220.446 529.546 220.717C529.747 220.984 529.847 221.285 529.847 221.622C529.847 222.266 529.572 222.76 529.023 223.105C528.477 223.453 527.698 223.628 526.684 223.628C525.97 223.628 525.408 223.554 524.998 223.406C524.592 223.258 524.303 223.039 524.13 222.748C523.962 222.456 523.878 222.091 523.878 221.652H524.943C524.943 221.894 524.99 222.093 525.084 222.249C525.179 222.409 525.351 222.526 525.601 222.6C525.851 222.678 526.212 222.717 526.684 222.717C527.382 222.717 527.884 222.631 528.192 222.458C528.5 222.286 528.654 222.034 528.654 221.702C528.654 221.41 528.524 221.189 528.266 221.037C528.007 220.889 527.677 220.815 527.275 220.815H526.137C525.554 220.815 525.125 220.692 524.85 220.446C524.58 220.2 524.444 219.913 524.444 219.585C524.444 219.129 524.682 218.746 525.158 218.434C524.424 218.048 524.057 217.447 524.057 216.631C524.057 216.188 524.167 215.796 524.389 215.455C524.615 215.111 524.926 214.842 525.324 214.649C525.722 214.456 526.18 214.36 526.697 214.36C527.234 214.36 527.675 214.335 528.02 214.286C528.364 214.237 528.662 214.167 528.912 214.077C529.162 213.987 529.415 213.882 529.669 213.763ZM526.703 215.197C526.215 215.197 525.851 215.332 525.614 215.603C525.38 215.87 525.263 216.212 525.263 216.631C525.263 217.057 525.384 217.404 525.626 217.671C525.868 217.937 526.235 218.071 526.727 218.071C527.162 218.071 527.495 217.944 527.724 217.689C527.954 217.435 528.069 217.078 528.069 216.618C528.069 215.671 527.614 215.197 526.703 215.197ZM532.639 214.514V219.08C532.639 219.49 532.721 219.786 532.886 219.966C533.054 220.143 533.312 220.231 533.661 220.231C533.989 220.231 534.303 220.134 534.602 219.942C534.906 219.749 535.142 219.519 535.31 219.252V214.514H536.492V221H535.476L535.39 220.145C535.14 220.473 534.828 220.723 534.455 220.895C534.086 221.068 533.71 221.154 533.329 221.154C532.701 221.154 532.231 220.984 531.919 220.643C531.612 220.303 531.458 219.831 531.458 219.228V214.514H532.639ZM544.121 214.514L541.856 221.037C541.7 221.496 541.499 221.911 541.253 222.28C541.007 222.653 540.689 222.957 540.299 223.191C539.913 223.425 539.427 223.57 538.841 223.628L538.675 222.711C539.118 222.641 539.468 222.534 539.727 222.391C539.989 222.247 540.195 222.061 540.342 221.831C540.494 221.601 540.629 221.324 540.748 221H540.348L538.115 214.514H539.376L541.142 220.138L542.902 214.514H544.121ZM548.26 211.412C548.507 211.412 548.703 211.488 548.851 211.64C549.003 211.792 549.079 211.976 549.079 212.194C549.079 212.419 549.003 212.61 548.851 212.766C548.703 212.918 548.507 212.994 548.26 212.994C548.018 212.994 547.821 212.918 547.67 212.766C547.522 212.61 547.448 212.419 547.448 212.194C547.448 211.976 547.522 211.792 547.67 211.64C547.821 211.488 548.018 211.412 548.26 211.412ZM549.14 214.514V220.102H550.943V221H545.983V220.102H547.959V215.412H546.045V214.514H549.14ZM552.886 221V214.514H553.902L553.988 215.388C554.255 215.055 554.579 214.801 554.96 214.625C555.346 214.448 555.729 214.36 556.111 214.36C556.735 214.36 557.194 214.53 557.489 214.871C557.785 215.207 557.932 215.677 557.932 216.28V221H556.751V217.006C556.751 216.596 556.726 216.264 556.677 216.009C556.632 215.755 556.536 215.57 556.388 215.455C556.24 215.336 556.017 215.277 555.717 215.277C555.364 215.277 555.044 215.386 554.757 215.603C554.47 215.821 554.24 216.054 554.068 216.305V221H552.886ZM563.045 220.157C563.36 220.157 563.654 220.106 563.925 220.003C564.199 219.896 564.456 219.759 564.694 219.591L565.26 220.36C564.973 220.598 564.628 220.791 564.226 220.938C563.828 221.082 563.428 221.154 563.026 221.154C562.374 221.154 561.816 221.014 561.352 220.735C560.893 220.456 560.542 220.065 560.3 219.56C560.058 219.055 559.937 218.465 559.937 217.788C559.937 217.131 560.058 216.547 560.3 216.034C560.546 215.517 560.901 215.109 561.365 214.809C561.828 214.51 562.388 214.36 563.045 214.36C563.89 214.36 564.624 214.614 565.248 215.123L564.688 215.892C564.142 215.515 563.596 215.326 563.051 215.326C562.509 215.326 562.066 215.527 561.721 215.929C561.377 216.331 561.205 216.951 561.205 217.788C561.205 218.629 561.377 219.234 561.721 219.603C562.07 219.972 562.511 220.157 563.045 220.157ZM569.701 214.36C570.628 214.36 571.332 214.668 571.812 215.283C572.296 215.898 572.538 216.721 572.538 217.751C572.538 218.419 572.427 219.01 572.206 219.523C571.988 220.036 571.668 220.436 571.246 220.723C570.823 221.01 570.304 221.154 569.689 221.154C568.762 221.154 568.054 220.846 567.566 220.231C567.082 219.615 566.84 218.793 566.84 217.763C566.84 217.09 566.948 216.499 567.166 215.991C567.387 215.478 567.709 215.078 568.132 214.791C568.559 214.504 569.082 214.36 569.701 214.36ZM569.701 215.302C569.168 215.302 568.766 215.503 568.495 215.905C568.224 216.303 568.089 216.922 568.089 217.763C568.089 218.596 568.222 219.213 568.489 219.615C568.756 220.013 569.156 220.212 569.689 220.212C570.222 220.212 570.622 220.013 570.889 219.615C571.156 219.213 571.289 218.592 571.289 217.751C571.289 216.914 571.156 216.296 570.889 215.898C570.622 215.501 570.226 215.302 569.701 215.302ZM579.669 213.763L580.013 214.809C579.742 214.895 579.451 214.951 579.139 214.975C578.832 215 578.491 215.012 578.118 215.012C578.885 215.357 579.269 215.903 579.269 216.649C579.269 217.289 579.047 217.816 578.604 218.231C578.165 218.645 577.556 218.852 576.776 218.852C576.571 218.852 576.397 218.844 576.253 218.828C576.11 218.807 575.972 218.776 575.841 218.735C575.632 218.883 575.527 219.08 575.527 219.326C575.527 219.47 575.585 219.593 575.699 219.695C575.814 219.794 576.038 219.843 576.37 219.843H577.521C577.968 219.843 578.366 219.921 578.715 220.077C579.068 220.233 579.345 220.446 579.546 220.717C579.747 220.984 579.847 221.285 579.847 221.622C579.847 222.266 579.572 222.76 579.022 223.105C578.477 223.453 577.697 223.628 576.684 223.628C575.97 223.628 575.408 223.554 574.998 223.406C574.592 223.258 574.302 223.039 574.13 222.748C573.962 222.456 573.878 222.091 573.878 221.652H574.942C574.942 221.894 574.99 222.093 575.084 222.249C575.178 222.409 575.351 222.526 575.601 222.6C575.851 222.678 576.212 222.717 576.684 222.717C577.381 222.717 577.884 222.631 578.192 222.458C578.499 222.286 578.653 222.034 578.653 221.702C578.653 221.41 578.524 221.189 578.266 221.037C578.007 220.889 577.677 220.815 577.275 220.815H576.136C575.554 220.815 575.125 220.692 574.85 220.446C574.579 220.2 574.444 219.913 574.444 219.585C574.444 219.129 574.682 218.746 575.158 218.434C574.424 218.048 574.056 217.447 574.056 216.631C574.056 216.188 574.167 215.796 574.389 215.455C574.614 215.111 574.926 214.842 575.324 214.649C575.722 214.456 576.179 214.36 576.696 214.36C577.234 214.36 577.675 214.335 578.019 214.286C578.364 214.237 578.661 214.167 578.912 214.077C579.162 213.987 579.414 213.882 579.669 213.763ZM576.702 215.197C576.214 215.197 575.851 215.332 575.613 215.603C575.379 215.87 575.262 216.212 575.262 216.631C575.262 217.057 575.384 217.404 575.626 217.671C575.868 217.937 576.235 218.071 576.727 218.071C577.162 218.071 577.494 217.944 577.724 217.689C577.954 217.435 578.069 217.078 578.069 216.618C578.069 215.671 577.613 215.197 576.702 215.197ZM581.458 221V214.514H582.473L582.559 215.388C582.826 215.055 583.15 214.801 583.531 214.625C583.917 214.448 584.301 214.36 584.682 214.36C585.306 214.36 585.765 214.53 586.061 214.871C586.356 215.207 586.504 215.677 586.504 216.28V221H585.322V217.006C585.322 216.596 585.298 216.264 585.248 216.009C585.203 215.755 585.107 215.57 584.959 215.455C584.811 215.336 584.588 215.277 584.288 215.277C583.935 215.277 583.615 215.386 583.328 215.603C583.041 215.821 582.811 216.054 582.639 216.305V221H581.458ZM591.117 211.412C591.363 211.412 591.56 211.488 591.708 211.64C591.86 211.792 591.936 211.976 591.936 212.194C591.936 212.419 591.86 212.61 591.708 212.766C591.56 212.918 591.363 212.994 591.117 212.994C590.875 212.994 590.678 212.918 590.527 212.766C590.379 212.61 590.305 212.419 590.305 212.194C590.305 211.976 590.379 211.792 590.527 211.64C590.678 211.488 590.875 211.412 591.117 211.412ZM591.997 214.514V220.102H593.8V221H588.84V220.102H590.816V215.412H588.902V214.514H591.997ZM601.011 220.668C600.781 220.815 600.504 220.932 600.18 221.018C599.86 221.109 599.536 221.154 599.208 221.154C598.486 221.154 597.932 220.965 597.546 220.588C597.165 220.21 596.974 219.72 596.974 219.117V215.4H595.503V214.514H596.974V213.049L598.156 212.908V214.514H600.371L600.236 215.4H598.156V219.105C598.156 219.462 598.246 219.73 598.426 219.911C598.611 220.091 598.917 220.182 599.343 220.182C599.581 220.182 599.801 220.155 600.002 220.102C600.207 220.044 600.396 219.968 600.568 219.874L601.011 220.668ZM605.415 214.36C606.342 214.36 607.046 214.668 607.526 215.283C608.01 215.898 608.252 216.721 608.252 217.751C608.252 218.419 608.141 219.01 607.92 219.523C607.702 220.036 607.382 220.436 606.96 220.723C606.537 221.01 606.018 221.154 605.403 221.154C604.476 221.154 603.768 220.846 603.28 220.231C602.796 219.615 602.554 218.793 602.554 217.763C602.554 217.09 602.662 216.499 602.88 215.991C603.101 215.478 603.423 215.078 603.846 214.791C604.273 214.504 604.796 214.36 605.415 214.36ZM605.415 215.302C604.882 215.302 604.48 215.503 604.209 215.905C603.938 216.303 603.803 216.922 603.803 217.763C603.803 218.596 603.936 219.213 604.203 219.615C604.47 220.013 604.87 220.212 605.403 220.212C605.936 220.212 606.336 220.013 606.603 219.615C606.87 219.213 607.003 218.592 607.003 217.751C607.003 216.914 606.87 216.296 606.603 215.898C606.336 215.501 605.94 215.302 605.415 215.302ZM611.413 220.015C611.413 219.704 611.52 219.439 611.733 219.222C611.951 219.004 612.218 218.895 612.533 218.895C612.858 218.895 613.128 219.004 613.346 219.222C613.563 219.439 613.672 219.704 613.672 220.015C613.672 220.331 613.563 220.6 613.346 220.822C613.128 221.043 612.858 221.154 612.533 221.154C612.218 221.154 611.951 221.043 611.733 220.822C611.52 220.6 611.413 220.331 611.413 220.015ZM629.693 212.52L630.173 221H629.028L628.788 216.698C628.768 216.296 628.753 215.896 628.745 215.498C628.737 215.101 628.733 214.737 628.733 214.409C628.737 214.077 628.743 213.812 628.751 213.615L627.397 219.492H626.253L624.801 213.615C624.813 213.804 624.821 214.071 624.825 214.415C624.833 214.76 624.835 215.135 624.831 215.542C624.831 215.944 624.825 216.329 624.813 216.698L624.61 221H623.49L623.97 212.52H625.551L626.856 218.274L628.099 212.52H629.693ZM633.986 214.36C634.914 214.36 635.617 214.668 636.097 215.283C636.581 215.898 636.823 216.721 636.823 217.751C636.823 218.419 636.713 219.01 636.491 219.523C636.274 220.036 635.954 220.436 635.531 220.723C635.109 221.01 634.59 221.154 633.974 221.154C633.047 221.154 632.339 220.846 631.851 220.231C631.367 219.615 631.125 218.793 631.125 217.763C631.125 217.09 631.234 216.499 631.451 215.991C631.673 215.478 631.995 215.078 632.417 214.791C632.844 214.504 633.367 214.36 633.986 214.36ZM633.986 215.302C633.453 215.302 633.051 215.503 632.78 215.905C632.51 216.303 632.374 216.922 632.374 217.763C632.374 218.596 632.508 219.213 632.774 219.615C633.041 220.013 633.441 220.212 633.974 220.212C634.508 220.212 634.908 220.013 635.174 219.615C635.441 219.213 635.574 218.592 635.574 217.751C635.574 216.914 635.441 216.296 635.174 215.898C634.908 215.501 634.512 215.302 633.986 215.302ZM638.662 221V220.126H639.646V215.388H638.662V214.514H640.551L640.766 216.034C641.012 215.496 641.314 215.084 641.671 214.797C642.032 214.506 642.5 214.36 643.074 214.36C643.263 214.36 643.429 214.374 643.572 214.403C643.72 214.432 643.87 214.469 644.022 214.514L643.837 216.791H642.926V215.437H642.92C641.948 215.437 641.25 216.132 640.828 217.523V220.126H642.145V221H638.662ZM646.697 218.157C646.73 218.871 646.922 219.39 647.275 219.714C647.632 220.038 648.055 220.2 648.543 220.2C648.867 220.2 649.164 220.151 649.435 220.052C649.706 219.954 649.981 219.81 650.26 219.622L650.795 220.366C650.492 220.608 650.141 220.801 649.743 220.945C649.345 221.084 648.933 221.154 648.506 221.154C647.858 221.154 647.306 221.012 646.851 220.729C646.399 220.442 646.055 220.044 645.817 219.535C645.583 219.027 645.466 218.436 645.466 217.763C645.466 217.111 645.583 216.528 645.817 216.015C646.055 215.503 646.389 215.098 646.82 214.803C647.251 214.508 647.763 214.36 648.358 214.36C649.195 214.36 649.854 214.647 650.334 215.222C650.818 215.792 651.06 216.573 651.06 217.566C651.06 217.677 651.058 217.784 651.054 217.886C651.05 217.989 651.043 218.079 651.035 218.157H646.697ZM648.371 215.283C647.907 215.283 647.523 215.447 647.22 215.775C646.916 216.104 646.742 216.61 646.697 217.295H649.921C649.909 216.639 649.765 216.141 649.491 215.8C649.22 215.455 648.846 215.283 648.371 215.283ZM662.545 211.412C662.792 211.412 662.989 211.488 663.136 211.64C663.288 211.792 663.364 211.976 663.364 212.194C663.364 212.419 663.288 212.61 663.136 212.766C662.989 212.918 662.792 212.994 662.545 212.994C662.303 212.994 662.106 212.918 661.955 212.766C661.807 212.61 661.733 212.419 661.733 212.194C661.733 211.976 661.807 211.792 661.955 211.64C662.106 211.488 662.303 211.412 662.545 211.412ZM663.425 214.514V220.102H665.229V221H660.269V220.102H662.244V215.412H660.33V214.514H663.425ZM667.171 221V214.514H668.187L668.273 215.388C668.54 215.055 668.864 214.801 669.245 214.625C669.631 214.448 670.014 214.36 670.396 214.36C671.02 214.36 671.479 214.53 671.774 214.871C672.07 215.207 672.217 215.677 672.217 216.28V221H671.036V217.006C671.036 216.596 671.011 216.264 670.962 216.009C670.917 215.755 670.821 215.57 670.673 215.455C670.525 215.336 670.302 215.277 670.002 215.277C669.649 215.277 669.329 215.386 669.042 215.603C668.755 215.821 668.525 216.054 668.353 216.305V221H667.171ZM678.197 211.763C678.566 211.763 678.899 211.796 679.194 211.862C679.49 211.923 679.768 212.011 680.031 212.126L679.662 212.975C679.453 212.881 679.229 212.813 678.991 212.772C678.757 212.727 678.517 212.705 678.271 212.705C677.393 212.705 676.954 213.055 676.954 213.757V215H679.145L679.016 215.898H676.954V221H675.779V215.898H674.259V215H675.779V213.763C675.779 213.361 675.881 213.01 676.086 212.711C676.296 212.411 676.581 212.179 676.942 212.015C677.307 211.847 677.725 211.763 678.197 211.763ZM683.986 214.36C684.913 214.36 685.617 214.668 686.097 215.283C686.581 215.898 686.823 216.721 686.823 217.751C686.823 218.419 686.712 219.01 686.491 219.523C686.273 220.036 685.953 220.436 685.531 220.723C685.108 221.01 684.589 221.154 683.974 221.154C683.047 221.154 682.339 220.846 681.851 220.231C681.367 219.615 681.125 218.793 681.125 217.763C681.125 217.09 681.233 216.499 681.451 215.991C681.672 215.478 681.994 215.078 682.417 214.791C682.844 214.504 683.367 214.36 683.986 214.36ZM683.986 215.302C683.453 215.302 683.051 215.503 682.78 215.905C682.509 216.303 682.374 216.922 682.374 217.763C682.374 218.596 682.507 219.213 682.774 219.615C683.041 220.013 683.441 220.212 683.974 220.212C684.507 220.212 684.907 220.013 685.174 219.615C685.441 219.213 685.574 218.592 685.574 217.751C685.574 216.914 685.441 216.296 685.174 215.898C684.907 215.501 684.511 215.302 683.986 215.302ZM688.661 221V220.126H689.646V215.388H688.661V214.514H690.551L690.766 216.034C691.012 215.496 691.314 215.084 691.671 214.797C692.032 214.506 692.499 214.36 693.074 214.36C693.262 214.36 693.428 214.374 693.572 214.403C693.72 214.432 693.87 214.469 694.021 214.514L693.837 216.791H692.926V215.437H692.92C691.947 215.437 691.25 216.132 690.827 217.523V220.126H692.144V221H688.661ZM700.106 214.36C700.327 214.36 700.534 214.409 700.727 214.508C700.924 214.606 701.082 214.787 701.201 215.049C701.32 215.308 701.38 215.683 701.38 216.175V221H700.303V216.348C700.303 215.97 700.278 215.699 700.229 215.535C700.184 215.367 700.052 215.283 699.835 215.283C699.654 215.283 699.474 215.338 699.293 215.449C699.117 215.56 698.945 215.745 698.776 216.003V221H697.743V216.348C697.743 215.97 697.718 215.699 697.669 215.535C697.624 215.367 697.492 215.283 697.275 215.283C697.09 215.283 696.91 215.338 696.733 215.449C696.557 215.56 696.385 215.745 696.216 216.003V221H695.14V214.514H696.05L696.124 215.24C696.305 214.99 696.504 214.781 696.721 214.612C696.943 214.444 697.211 214.36 697.527 214.36C697.773 214.36 698.001 214.419 698.21 214.538C698.424 214.657 698.58 214.879 698.678 215.203C698.854 214.953 699.055 214.75 699.281 214.594C699.507 214.438 699.782 214.36 700.106 214.36ZM707.667 219.511C707.667 219.769 707.708 219.958 707.79 220.077C707.872 220.192 708.001 220.278 708.178 220.335L707.901 221.148C707.605 221.111 707.347 221.023 707.125 220.883C706.908 220.744 706.748 220.53 706.645 220.243C706.412 220.547 706.116 220.774 705.759 220.926C705.402 221.078 705.015 221.154 704.596 221.154C703.944 221.154 703.429 220.969 703.052 220.6C702.674 220.231 702.485 219.745 702.485 219.142C702.485 218.469 702.748 217.952 703.273 217.591C703.802 217.226 704.561 217.043 705.55 217.043H706.492V216.551C706.492 216.104 706.358 215.786 706.092 215.597C705.829 215.408 705.462 215.314 704.99 215.314C704.773 215.314 704.516 215.341 704.221 215.394C703.93 215.447 703.618 215.531 703.285 215.646L702.984 214.785C703.382 214.633 703.765 214.524 704.135 214.458C704.504 214.393 704.848 214.36 705.168 214.36C706.001 214.36 706.625 214.551 707.039 214.932C707.458 215.314 707.667 215.833 707.667 216.489V219.511ZM704.928 220.268C705.228 220.268 705.517 220.19 705.796 220.034C706.079 219.878 706.311 219.661 706.492 219.382V217.812H705.63C704.945 217.812 704.459 217.929 704.172 218.163C703.884 218.393 703.741 218.709 703.741 219.111C703.741 219.882 704.137 220.268 704.928 220.268ZM715.296 220.668C715.066 220.815 714.789 220.932 714.465 221.018C714.145 221.109 713.821 221.154 713.493 221.154C712.771 221.154 712.217 220.965 711.831 220.588C711.45 220.21 711.259 219.72 711.259 219.117V215.4H709.788V214.514H711.259V213.049L712.44 212.908V214.514H714.656L714.52 215.4H712.44V219.105C712.44 219.462 712.531 219.73 712.711 219.911C712.896 220.091 713.202 220.182 713.628 220.182C713.866 220.182 714.086 220.155 714.287 220.102C714.492 220.044 714.68 219.968 714.853 219.874L715.296 220.668ZM719.688 211.412C719.934 211.412 720.131 211.488 720.279 211.64C720.43 211.792 720.506 211.976 720.506 212.194C720.506 212.419 720.43 212.61 720.279 212.766C720.131 212.918 719.934 212.994 719.688 212.994C719.446 212.994 719.249 212.918 719.097 212.766C718.949 212.61 718.876 212.419 718.876 212.194C718.876 211.976 718.949 211.792 719.097 211.64C719.249 211.488 719.446 211.412 719.688 211.412ZM720.568 214.514V220.102H722.371V221H717.411V220.102H719.386V215.412H717.473V214.514H720.568ZM726.843 214.36C727.77 214.36 728.474 214.668 728.954 215.283C729.438 215.898 729.68 216.721 729.68 217.751C729.68 218.419 729.569 219.01 729.348 219.523C729.13 220.036 728.81 220.436 728.388 220.723C727.965 221.01 727.446 221.154 726.831 221.154C725.904 221.154 725.196 220.846 724.708 220.231C724.224 219.615 723.982 218.793 723.982 217.763C723.982 217.09 724.09 216.499 724.308 215.991C724.529 215.478 724.851 215.078 725.274 214.791C725.7 214.504 726.224 214.36 726.843 214.36ZM726.843 215.302C726.31 215.302 725.908 215.503 725.637 215.905C725.366 216.303 725.231 216.922 725.231 217.763C725.231 218.596 725.364 219.213 725.631 219.615C725.897 220.013 726.297 220.212 726.831 220.212C727.364 220.212 727.764 220.013 728.031 219.615C728.297 219.213 728.431 218.592 728.431 217.751C728.431 216.914 728.297 216.296 728.031 215.898C727.764 215.501 727.368 215.302 726.843 215.302ZM731.457 221V214.514H732.472L732.558 215.388C732.825 215.055 733.149 214.801 733.53 214.625C733.916 214.448 734.3 214.36 734.681 214.36C735.305 214.36 735.764 214.53 736.06 214.871C736.355 215.207 736.503 215.677 736.503 216.28V221H735.321V217.006C735.321 216.596 735.297 216.264 735.247 216.009C735.202 215.755 735.106 215.57 734.958 215.455C734.81 215.336 734.587 215.277 734.287 215.277C733.935 215.277 733.615 215.386 733.327 215.603C733.04 215.821 732.81 216.054 732.638 216.305V221H731.457ZM750.524 219.511C750.524 219.769 750.565 219.958 750.647 220.077C750.729 220.192 750.858 220.278 751.035 220.335L750.758 221.148C750.462 221.111 750.204 221.023 749.982 220.883C749.765 220.744 749.605 220.53 749.502 220.243C749.268 220.547 748.973 220.774 748.616 220.926C748.259 221.078 747.872 221.154 747.453 221.154C746.801 221.154 746.286 220.969 745.908 220.6C745.531 220.231 745.342 219.745 745.342 219.142C745.342 218.469 745.605 217.952 746.13 217.591C746.659 217.226 747.418 217.043 748.407 217.043H749.348V216.551C749.348 216.104 749.215 215.786 748.948 215.597C748.686 215.408 748.319 215.314 747.847 215.314C747.629 215.314 747.373 215.341 747.078 215.394C746.786 215.447 746.475 215.531 746.142 215.646L745.841 214.785C746.239 214.633 746.622 214.524 746.992 214.458C747.361 214.393 747.705 214.36 748.025 214.36C748.858 214.36 749.482 214.551 749.896 214.932C750.315 215.314 750.524 215.833 750.524 216.489V219.511ZM747.785 220.268C748.085 220.268 748.374 220.19 748.653 220.034C748.936 219.878 749.168 219.661 749.348 219.382V217.812H748.487C747.802 217.812 747.316 217.929 747.028 218.163C746.741 218.393 746.598 218.709 746.598 219.111C746.598 219.882 746.994 220.268 747.785 220.268ZM758.411 214.514L756.085 221H754.707L752.393 214.514H753.648L755.427 219.972L757.199 214.514H758.411ZM764.809 219.511C764.809 219.769 764.85 219.958 764.932 220.077C765.015 220.192 765.144 220.278 765.32 220.335L765.043 221.148C764.748 221.111 764.489 221.023 764.268 220.883C764.05 220.744 763.89 220.53 763.788 220.243C763.554 220.547 763.259 220.774 762.902 220.926C762.545 221.078 762.157 221.154 761.739 221.154C761.086 221.154 760.571 220.969 760.194 220.6C759.817 220.231 759.628 219.745 759.628 219.142C759.628 218.469 759.89 217.952 760.416 217.591C760.945 217.226 761.704 217.043 762.692 217.043H763.634V216.551C763.634 216.104 763.501 215.786 763.234 215.597C762.971 215.408 762.604 215.314 762.132 215.314C761.915 215.314 761.659 215.341 761.363 215.394C761.072 215.447 760.76 215.531 760.428 215.646L760.126 214.785C760.524 214.633 760.908 214.524 761.277 214.458C761.646 214.393 761.991 214.36 762.311 214.36C763.144 214.36 763.767 214.551 764.182 214.932C764.6 215.314 764.809 215.833 764.809 216.489V219.511ZM762.071 220.268C762.37 220.268 762.66 220.19 762.939 220.034C763.222 219.878 763.454 219.661 763.634 219.382V217.812H762.772C762.087 217.812 761.601 217.929 761.314 218.163C761.027 218.393 760.883 218.709 760.883 219.111C760.883 219.882 761.279 220.268 762.071 220.268ZM769.688 211.412C769.934 211.412 770.131 211.488 770.278 211.64C770.43 211.792 770.506 211.976 770.506 212.194C770.506 212.419 770.43 212.61 770.278 212.766C770.131 212.918 769.934 212.994 769.688 212.994C769.446 212.994 769.249 212.918 769.097 212.766C768.949 212.61 768.875 212.419 768.875 212.194C768.875 211.976 768.949 211.792 769.097 211.64C769.249 211.488 769.446 211.412 769.688 211.412ZM770.568 214.514V220.102H772.371V221H767.411V220.102H769.386V215.412H767.472V214.514H770.568ZM776.978 211.905V219.326C776.978 219.638 777.075 219.859 777.267 219.991C777.46 220.118 777.708 220.182 778.012 220.182C778.205 220.182 778.387 220.163 778.56 220.126C778.736 220.085 778.908 220.03 779.077 219.96L779.384 220.803C779.204 220.897 778.978 220.979 778.707 221.049C778.437 221.119 778.131 221.154 777.79 221.154C777.179 221.154 776.693 220.984 776.332 220.643C775.975 220.303 775.797 219.835 775.797 219.24V212.803H773.821V211.905H776.978ZM786.238 219.511C786.238 219.769 786.279 219.958 786.361 220.077C786.443 220.192 786.572 220.278 786.749 220.335L786.472 221.148C786.176 221.111 785.918 221.023 785.696 220.883C785.479 220.744 785.319 220.53 785.216 220.243C784.982 220.547 784.687 220.774 784.33 220.926C783.973 221.078 783.586 221.154 783.167 221.154C782.515 221.154 782 220.969 781.622 220.6C781.245 220.231 781.056 219.745 781.056 219.142C781.056 218.469 781.319 217.952 781.844 217.591C782.373 217.226 783.132 217.043 784.121 217.043H785.062V216.551C785.062 216.104 784.929 215.786 784.662 215.597C784.4 215.408 784.033 215.314 783.561 215.314C783.344 215.314 783.087 215.341 782.792 215.394C782.5 215.447 782.189 215.531 781.856 215.646L781.555 214.785C781.953 214.633 782.336 214.524 782.706 214.458C783.075 214.393 783.419 214.36 783.739 214.36C784.572 214.36 785.196 214.551 785.61 214.932C786.029 215.314 786.238 215.833 786.238 216.489V219.511ZM783.499 220.268C783.799 220.268 784.088 220.19 784.367 220.034C784.65 219.878 784.882 219.661 785.062 219.382V217.812H784.201C783.516 217.812 783.03 217.929 782.742 218.163C782.455 218.393 782.312 218.709 782.312 219.111C782.312 219.882 782.708 220.268 783.499 220.268ZM789.781 215.326C790.01 215.023 790.279 214.787 790.587 214.618C790.899 214.446 791.237 214.36 791.602 214.36C792.177 214.36 792.642 214.502 792.999 214.785C793.356 215.064 793.617 215.457 793.781 215.966C793.945 216.471 794.027 217.066 794.027 217.751C794.027 218.407 793.928 218.992 793.731 219.505C793.535 220.017 793.245 220.422 792.864 220.717C792.482 221.008 792.012 221.154 791.455 221.154C790.712 221.154 790.131 220.883 789.713 220.342L789.639 221H788.599V211.905L789.781 211.763V215.326ZM791.165 220.225C791.674 220.225 792.066 220.024 792.341 219.622C792.62 219.215 792.759 218.592 792.759 217.751C792.759 216.91 792.634 216.29 792.384 215.892C792.138 215.49 791.781 215.289 791.313 215.289C790.977 215.289 790.679 215.392 790.421 215.597C790.162 215.798 789.949 216.028 789.781 216.286V219.425C789.945 219.671 790.146 219.866 790.384 220.009C790.622 220.153 790.882 220.225 791.165 220.225ZM798.407 211.905V219.326C798.407 219.638 798.503 219.859 798.696 219.991C798.889 220.118 799.137 220.182 799.44 220.182C799.633 220.182 799.816 220.163 799.988 220.126C800.165 220.085 800.337 220.03 800.505 219.96L800.813 220.803C800.632 220.897 800.407 220.979 800.136 221.049C799.865 221.119 799.559 221.154 799.219 221.154C798.608 221.154 798.121 220.984 797.76 220.643C797.404 220.303 797.225 219.835 797.225 219.24V212.803H795.25V211.905H798.407ZM803.839 218.157C803.871 218.871 804.064 219.39 804.417 219.714C804.774 220.038 805.197 220.2 805.685 220.2C806.009 220.2 806.306 220.151 806.577 220.052C806.848 219.954 807.123 219.81 807.402 219.622L807.937 220.366C807.633 220.608 807.283 220.801 806.885 220.945C806.487 221.084 806.074 221.154 805.648 221.154C805 221.154 804.448 221.012 803.992 220.729C803.541 220.442 803.197 220.044 802.959 219.535C802.725 219.027 802.608 218.436 802.608 217.763C802.608 217.111 802.725 216.528 802.959 216.015C803.197 215.503 803.531 215.098 803.962 214.803C804.392 214.508 804.905 214.36 805.5 214.36C806.337 214.36 806.996 214.647 807.476 215.222C807.96 215.792 808.202 216.573 808.202 217.566C808.202 217.677 808.2 217.784 808.196 217.886C808.191 217.989 808.185 218.079 808.177 218.157H803.839ZM805.512 215.283C805.049 215.283 804.665 215.447 804.362 215.775C804.058 216.104 803.884 216.61 803.839 217.295H807.063C807.051 216.639 806.907 216.141 806.632 215.8C806.362 215.455 805.988 215.283 805.512 215.283ZM818.352 215.326C818.582 215.023 818.85 214.787 819.158 214.618C819.47 214.446 819.808 214.36 820.173 214.36C820.748 214.36 821.213 214.502 821.57 214.785C821.927 215.064 822.188 215.457 822.352 215.966C822.516 216.471 822.598 217.066 822.598 217.751C822.598 218.407 822.5 218.992 822.303 219.505C822.106 220.017 821.817 220.422 821.435 220.717C821.053 221.008 820.584 221.154 820.026 221.154C819.283 221.154 818.703 220.883 818.284 220.342L818.21 221H817.17V211.905L818.352 211.763V215.326ZM819.737 220.225C820.245 220.225 820.637 220.024 820.912 219.622C821.191 219.215 821.33 218.592 821.33 217.751C821.33 216.91 821.205 216.29 820.955 215.892C820.709 215.49 820.352 215.289 819.884 215.289C819.548 215.289 819.25 215.392 818.992 215.597C818.733 215.798 818.52 216.028 818.352 216.286V219.425C818.516 219.671 818.717 219.866 818.955 220.009C819.193 220.153 819.453 220.225 819.737 220.225ZM825.267 218.157C825.3 218.871 825.493 219.39 825.846 219.714C826.202 220.038 826.625 220.2 827.113 220.2C827.437 220.2 827.735 220.151 828.006 220.052C828.276 219.954 828.551 219.81 828.83 219.622L829.366 220.366C829.062 220.608 828.711 220.801 828.313 220.945C827.915 221.084 827.503 221.154 827.076 221.154C826.428 221.154 825.876 221.012 825.421 220.729C824.97 220.442 824.625 220.044 824.387 219.535C824.153 219.027 824.036 218.436 824.036 217.763C824.036 217.111 824.153 216.528 824.387 216.015C824.625 215.503 824.959 215.098 825.39 214.803C825.821 214.508 826.334 214.36 826.929 214.36C827.766 214.36 828.424 214.647 828.904 215.222C829.388 215.792 829.63 216.573 829.63 217.566C829.63 217.677 829.628 217.784 829.624 217.886C829.62 217.989 829.614 218.079 829.606 218.157H825.267ZM826.941 215.283C826.477 215.283 826.094 215.447 825.79 215.775C825.487 216.104 825.312 216.61 825.267 217.295H828.492C828.479 216.639 828.336 216.141 828.061 215.8C827.79 215.455 827.417 215.283 826.941 215.283ZM834.121 211.905V219.326C834.121 219.638 834.217 219.859 834.41 219.991C834.603 220.118 834.851 220.182 835.154 220.182C835.347 220.182 835.53 220.163 835.702 220.126C835.879 220.085 836.051 220.03 836.219 219.96L836.527 220.803C836.346 220.897 836.121 220.979 835.85 221.049C835.579 221.119 835.273 221.154 834.933 221.154C834.322 221.154 833.836 220.984 833.474 220.643C833.118 220.303 832.939 219.835 832.939 219.24V212.803H830.964V211.905H834.121ZM841.128 214.36C842.055 214.36 842.759 214.668 843.239 215.283C843.723 215.898 843.965 216.721 843.965 217.751C843.965 218.419 843.854 219.01 843.633 219.523C843.415 220.036 843.095 220.436 842.673 220.723C842.25 221.01 841.731 221.154 841.116 221.154C840.189 221.154 839.481 220.846 838.993 220.231C838.509 219.615 838.267 218.793 838.267 217.763C838.267 217.09 838.375 216.499 838.593 215.991C838.814 215.478 839.136 215.078 839.559 214.791C839.986 214.504 840.509 214.36 841.128 214.36ZM841.128 215.302C840.595 215.302 840.193 215.503 839.922 215.905C839.651 216.303 839.516 216.922 839.516 217.763C839.516 218.596 839.649 219.213 839.916 219.615C840.182 220.013 840.582 220.212 841.116 220.212C841.649 220.212 842.049 220.013 842.316 219.615C842.582 219.213 842.716 218.592 842.716 217.751C842.716 216.914 842.582 216.296 842.316 215.898C842.049 215.501 841.653 215.302 841.128 215.302ZM850.665 221H849.089L848.295 216.305L847.44 221H845.902L844.751 214.514H845.926L846.689 220.268L847.668 215.338H848.96L849.877 220.268L850.64 214.514H851.766L850.665 221ZM854.269 220.015C854.269 219.704 854.376 219.439 854.589 219.222C854.806 219.004 855.073 218.895 855.389 218.895C855.713 218.895 855.984 219.004 856.201 219.222C856.419 219.439 856.528 219.704 856.528 220.015C856.528 220.331 856.419 220.6 856.201 220.822C855.984 221.043 855.713 221.154 855.389 221.154C855.073 221.154 854.806 221.043 854.589 220.822C854.376 220.6 854.269 220.331 854.269 220.015Z" fill="#F8F8F2"/>
<circle cx="186" cy="238" r="6" fill="#E0EFFC"/>
<path d="M186.648 235.182V241H185.943V235.92H185.909L184.489 236.864V236.148L185.943 235.182H186.648Z" fill="#2B2B2B"/>
<path d="M17 231.5V238H181.5" stroke="#E0EFFC"/>
<path d="M356.5 231.5V238H190.5" stroke="#E0EFFC"/>
<circle cx="412" cy="238.5" r="6" fill="#E0EFFC"/>
<path d="M410.602 241.5V240.989L412.523 238.886C412.748 238.64 412.934 238.426 413.08 238.244C413.225 238.061 413.333 237.888 413.403 237.727C413.475 237.564 413.511 237.394 413.511 237.216C413.511 237.011 413.462 236.834 413.364 236.685C413.267 236.535 413.134 236.42 412.966 236.338C412.797 236.257 412.608 236.216 412.398 236.216C412.174 236.216 411.979 236.262 411.812 236.355C411.648 236.446 411.52 236.574 411.429 236.739C411.34 236.903 411.295 237.097 411.295 237.318H410.625C410.625 236.977 410.704 236.678 410.861 236.42C411.018 236.163 411.232 235.962 411.503 235.818C411.776 235.674 412.081 235.602 412.42 235.602C412.761 235.602 413.063 235.674 413.327 235.818C413.59 235.962 413.796 236.156 413.946 236.401C414.096 236.645 414.17 236.917 414.17 237.216C414.17 237.43 414.132 237.639 414.054 237.844C413.978 238.046 413.846 238.273 413.656 238.523C413.469 238.771 413.208 239.074 412.875 239.432L411.568 240.83V240.875H414.273V241.5H410.602Z" fill="#2B2B2B"/>
<path d="M366 232V238.5H407.5" stroke="#E0EFFC"/>
<path d="M456.5 232V238.5H416.5" stroke="#E0EFFC"/>
<circle cx="663" cy="238" r="6" fill="#E0EFFC"/>
<path d="M663.068 241.08C662.693 241.08 662.359 241.015 662.065 240.886C661.774 240.758 661.542 240.579 661.369 240.349C661.199 240.118 661.106 239.85 661.091 239.545H661.807C661.822 239.733 661.886 239.895 662 240.031C662.114 240.166 662.262 240.27 662.446 240.344C662.63 240.418 662.833 240.455 663.057 240.455C663.307 240.455 663.528 240.411 663.722 240.324C663.915 240.237 664.066 240.116 664.176 239.96C664.286 239.805 664.341 239.625 664.341 239.42C664.341 239.206 664.288 239.018 664.182 238.855C664.076 238.69 663.92 238.562 663.716 238.469C663.511 238.376 663.261 238.33 662.966 238.33H662.5V237.705H662.966C663.197 237.705 663.4 237.663 663.574 237.58C663.75 237.496 663.887 237.379 663.986 237.227C664.086 237.076 664.136 236.898 664.136 236.693C664.136 236.496 664.093 236.325 664.006 236.179C663.919 236.033 663.795 235.92 663.636 235.838C663.479 235.757 663.294 235.716 663.08 235.716C662.879 235.716 662.689 235.753 662.511 235.827C662.335 235.899 662.191 236.004 662.08 236.142C661.968 236.278 661.907 236.443 661.898 236.636H661.216C661.227 236.331 661.319 236.064 661.491 235.835C661.664 235.604 661.889 235.424 662.168 235.295C662.448 235.167 662.756 235.102 663.091 235.102C663.451 235.102 663.759 235.175 664.017 235.321C664.275 235.465 664.473 235.655 664.611 235.892C664.749 236.129 664.818 236.384 664.818 236.659C664.818 236.987 664.732 237.266 664.56 237.497C664.389 237.728 664.157 237.888 663.864 237.977V238.023C664.231 238.083 664.518 238.24 664.724 238.491C664.931 238.741 665.034 239.051 665.034 239.42C665.034 239.737 664.948 240.021 664.776 240.273C664.605 240.523 664.372 240.72 664.077 240.864C663.781 241.008 663.445 241.08 663.068 241.08Z" fill="#2B2B2B"/>
<path d="M466 231.5V238H658" stroke="#E0EFFC"/>
<path d="M858.5 231.5V238H668" stroke="#E0EFFC"/>
</g>
<defs>
<clipPath id="clip0_1_124">
<rect width="900" height="258" fill="white"/>
</clipPath>
</defs>
</svg>
