<svg width="450" height="309" viewBox="0 0 450 309" fill="none" xmlns="http://www.w3.org/2000/svg">
<g clip-path="url(#clip0_2_20)">
<rect y="224" width="450" height="85" rx="4" fill="#2B2B2B"/>
<path d="M22.6646 250.631C22.6646 251.123 22.5395 251.56 22.2892 251.942C22.0431 252.319 21.6841 252.616 21.2123 252.834C20.7446 253.047 20.1764 253.154 19.5077 253.154C18.8595 253.154 18.281 253.055 17.7723 252.858C17.2636 252.662 16.8308 252.391 16.4738 252.046L17.1692 251.265C17.4646 251.539 17.8031 251.757 18.1846 251.917C18.5662 252.077 19.0113 252.157 19.52 252.157C19.8523 252.157 20.16 252.104 20.4431 251.997C20.7303 251.886 20.96 251.722 21.1323 251.505C21.3087 251.283 21.3969 251.006 21.3969 250.674C21.3969 250.411 21.3436 250.188 21.2369 250.003C21.1344 249.814 20.9518 249.648 20.6892 249.505C20.4267 249.361 20.0595 249.219 19.5877 249.08C19.0133 248.912 18.521 248.721 18.1108 248.508C17.7046 248.29 17.3928 248.03 17.1754 247.726C16.9621 247.418 16.8554 247.041 16.8554 246.594C16.8554 246.155 16.9764 245.769 17.2185 245.437C17.4605 245.101 17.7928 244.838 18.2154 244.649C18.6379 244.461 19.1241 244.366 19.6738 244.366C20.2687 244.366 20.7877 244.452 21.2308 244.625C21.6779 244.797 22.08 245.041 22.4369 245.357L21.76 246.12C21.4564 245.853 21.1303 245.661 20.7815 245.542C20.4369 245.418 20.0862 245.357 19.7292 245.357C19.2779 245.357 18.8944 245.455 18.5785 245.652C18.2626 245.845 18.1046 246.141 18.1046 246.538C18.1046 246.776 18.1682 246.979 18.2954 247.148C18.4226 247.312 18.6359 247.464 18.9354 247.603C19.239 247.743 19.6533 247.89 20.1785 248.046C20.6338 248.182 21.0482 248.348 21.4215 248.545C21.799 248.737 22.1005 249 22.3262 249.332C22.5518 249.661 22.6646 250.093 22.6646 250.631ZM26.8474 246.36C27.7746 246.36 28.4782 246.668 28.9582 247.283C29.4423 247.898 29.6844 248.721 29.6844 249.751C29.6844 250.419 29.5736 251.01 29.352 251.523C29.1346 252.036 28.8146 252.436 28.392 252.723C27.9695 253.01 27.4505 253.154 26.8351 253.154C25.9079 253.154 25.2002 252.846 24.712 252.231C24.2279 251.615 23.9859 250.793 23.9859 249.763C23.9859 249.09 24.0946 248.499 24.312 247.991C24.5336 247.478 24.8556 247.078 25.2782 246.791C25.7049 246.504 26.2279 246.36 26.8474 246.36ZM26.8474 247.302C26.3141 247.302 25.912 247.503 25.6413 247.905C25.3705 248.303 25.2351 248.922 25.2351 249.763C25.2351 250.596 25.3685 251.213 25.6351 251.615C25.9018 252.013 26.3018 252.212 26.8351 252.212C27.3685 252.212 27.7685 252.013 28.0351 251.615C28.3018 251.213 28.4351 250.592 28.4351 249.751C28.4351 248.914 28.3018 248.296 28.0351 247.898C27.7685 247.501 27.3726 247.302 26.8474 247.302ZM31.5225 253V252.126H32.5072V247.388H31.5225V246.514H33.4118L33.6272 248.034C33.8733 247.496 34.1749 247.084 34.5318 246.797C34.8928 246.506 35.3605 246.36 35.9349 246.36C36.1236 246.36 36.2897 246.374 36.4333 246.403C36.581 246.432 36.7308 246.469 36.8825 246.514L36.6979 248.791H35.7872V247.437H35.781C34.8087 247.437 34.1113 248.132 33.6887 249.523V252.126H35.0056V253H31.5225ZM43.8715 252.668C43.6418 252.815 43.3648 252.932 43.0407 253.018C42.7207 253.109 42.3966 253.154 42.0684 253.154C41.3464 253.154 40.7925 252.965 40.4069 252.588C40.0254 252.21 39.8346 251.72 39.8346 251.117V247.4H38.3638V246.514H39.8346V245.049L41.0161 244.908V246.514H43.2315L43.0961 247.4H41.0161V251.105C41.0161 251.462 41.1064 251.73 41.2869 251.911C41.4715 252.091 41.7772 252.182 42.2038 252.182C42.4418 252.182 42.6613 252.155 42.8623 252.102C43.0674 252.044 43.2561 251.968 43.4284 251.874L43.8715 252.668ZM48.2636 243.412C48.5097 243.412 48.7066 243.488 48.8543 243.64C49.0061 243.792 49.082 243.976 49.082 244.194C49.082 244.419 49.0061 244.61 48.8543 244.766C48.7066 244.918 48.5097 244.994 48.2636 244.994C48.0215 244.994 47.8246 244.918 47.6728 244.766C47.5251 244.61 47.4513 244.419 47.4513 244.194C47.4513 243.976 47.5251 243.792 47.6728 243.64C47.8246 243.488 48.0215 243.412 48.2636 243.412ZM49.1436 246.514V252.102H50.9466V253H45.9866V252.102H47.962V247.412H46.0482V246.514H49.1436ZM52.8894 253V246.514H53.9048L53.991 247.388C54.2577 247.055 54.5818 246.801 54.9633 246.625C55.3489 246.448 55.7325 246.36 56.1141 246.36C56.7377 246.36 57.1971 246.53 57.4925 246.871C57.7879 247.207 57.9356 247.677 57.9356 248.28V253H56.7541V249.006C56.7541 248.596 56.7294 248.264 56.6802 248.009C56.6351 247.755 56.5387 247.57 56.391 247.455C56.2433 247.336 56.0197 247.277 55.7202 247.277C55.3674 247.277 55.0474 247.386 54.7602 247.603C54.473 247.821 54.2433 248.054 54.071 248.305V253H52.8894ZM65.3861 245.763L65.7307 246.809C65.46 246.895 65.1687 246.951 64.8569 246.975C64.5492 247 64.2087 247.012 63.8353 247.012C64.6025 247.357 64.9861 247.903 64.9861 248.649C64.9861 249.289 64.7646 249.816 64.3215 250.231C63.8825 250.645 63.2733 250.852 62.4938 250.852C62.2887 250.852 62.1143 250.844 61.9707 250.828C61.8271 250.807 61.6897 250.776 61.5584 250.735C61.3492 250.883 61.2446 251.08 61.2446 251.326C61.2446 251.47 61.302 251.593 61.4169 251.695C61.5317 251.794 61.7553 251.843 62.0876 251.843H63.2384C63.6856 251.843 64.0835 251.921 64.4323 252.077C64.7851 252.233 65.062 252.446 65.263 252.717C65.4641 252.984 65.5646 253.285 65.5646 253.622C65.5646 254.266 65.2897 254.76 64.74 255.105C64.1943 255.453 63.4148 255.628 62.4015 255.628C61.6876 255.628 61.1256 255.554 60.7153 255.406C60.3092 255.258 60.02 255.039 59.8476 254.748C59.6794 254.456 59.5953 254.091 59.5953 253.652H60.66C60.66 253.894 60.7071 254.093 60.8015 254.249C60.8959 254.409 61.0682 254.526 61.3184 254.6C61.5687 254.678 61.9297 254.717 62.4015 254.717C63.0989 254.717 63.6015 254.631 63.9092 254.458C64.2169 254.286 64.3707 254.034 64.3707 253.702C64.3707 253.41 64.2415 253.189 63.983 253.037C63.7246 252.889 63.3943 252.815 62.9923 252.815H61.8538C61.2712 252.815 60.8425 252.692 60.5676 252.446C60.2969 252.2 60.1615 251.913 60.1615 251.585C60.1615 251.129 60.3994 250.746 60.8753 250.434C60.141 250.048 59.7738 249.447 59.7738 248.631C59.7738 248.188 59.8846 247.796 60.1061 247.455C60.3317 247.111 60.6435 246.842 61.0415 246.649C61.4394 246.456 61.8969 246.36 62.4138 246.36C62.9512 246.36 63.3923 246.335 63.7369 246.286C64.0815 246.237 64.3789 246.167 64.6292 246.077C64.8794 245.987 65.1317 245.882 65.3861 245.763ZM62.42 247.197C61.9317 247.197 61.5687 247.332 61.3307 247.603C61.0969 247.87 60.98 248.212 60.98 248.631C60.98 249.057 61.101 249.404 61.343 249.671C61.5851 249.937 61.9523 250.071 62.4446 250.071C62.8794 250.071 63.2117 249.944 63.4415 249.689C63.6712 249.435 63.7861 249.078 63.7861 248.618C63.7861 247.671 63.3307 247.197 62.42 247.197ZM75.4994 247.326C75.7292 247.023 75.9979 246.787 76.3056 246.618C76.6174 246.446 76.9558 246.36 77.321 246.36C77.8953 246.36 78.361 246.502 78.7179 246.785C79.0748 247.064 79.3353 247.457 79.4994 247.966C79.6635 248.471 79.7456 249.066 79.7456 249.751C79.7456 250.407 79.6471 250.992 79.4502 251.505C79.2533 252.017 78.964 252.422 78.5825 252.717C78.201 253.008 77.7312 253.154 77.1733 253.154C76.4307 253.154 75.8502 252.883 75.4317 252.342L75.3579 253H74.3179V243.905L75.4994 243.763V247.326ZM76.884 252.225C77.3928 252.225 77.7846 252.024 78.0594 251.622C78.3384 251.215 78.4779 250.592 78.4779 249.751C78.4779 248.91 78.3528 248.29 78.1025 247.892C77.8563 247.49 77.4994 247.289 77.0317 247.289C76.6953 247.289 76.3979 247.392 76.1394 247.597C75.881 247.798 75.6676 248.028 75.4994 248.286V251.425C75.6635 251.671 75.8646 251.866 76.1025 252.009C76.3405 252.153 76.601 252.225 76.884 252.225ZM84.1253 243.905V251.326C84.1253 251.638 84.2217 251.859 84.4145 251.991C84.6074 252.118 84.8556 252.182 85.1592 252.182C85.352 252.182 85.5345 252.163 85.7068 252.126C85.8833 252.085 86.0556 252.03 86.2238 251.96L86.5315 252.803C86.3509 252.897 86.1253 252.979 85.8545 253.049C85.5838 253.119 85.2781 253.154 84.9376 253.154C84.3263 253.154 83.8402 252.984 83.4792 252.643C83.1222 252.303 82.9438 251.835 82.9438 251.24V244.803H80.9684V243.905H84.1253ZM91.1327 246.36C92.0599 246.36 92.7635 246.668 93.2435 247.283C93.7276 247.898 93.9697 248.721 93.9697 249.751C93.9697 250.419 93.8589 251.01 93.6374 251.523C93.4199 252.036 93.0999 252.436 92.6774 252.723C92.2548 253.01 91.7358 253.154 91.1204 253.154C90.1933 253.154 89.4856 252.846 88.9974 252.231C88.5133 251.615 88.2712 250.793 88.2712 249.763C88.2712 249.09 88.3799 248.499 88.5974 247.991C88.8189 247.478 89.1409 247.078 89.5635 246.791C89.9902 246.504 90.5133 246.36 91.1327 246.36ZM91.1327 247.302C90.5994 247.302 90.1974 247.503 89.9266 247.905C89.6558 248.303 89.5204 248.922 89.5204 249.763C89.5204 250.596 89.6538 251.213 89.9204 251.615C90.1871 252.013 90.5871 252.212 91.1204 252.212C91.6538 252.212 92.0538 252.013 92.3204 251.615C92.5871 251.213 92.7204 250.592 92.7204 249.751C92.7204 248.914 92.5871 248.296 92.3204 247.898C92.0538 247.501 91.6579 247.302 91.1327 247.302ZM101.1 245.763L101.445 246.809C101.174 246.895 100.883 246.951 100.571 246.975C100.263 247 99.9227 247.012 99.5494 247.012C100.317 247.357 100.7 247.903 100.7 248.649C100.7 249.289 100.479 249.816 100.036 250.231C99.5966 250.645 98.9873 250.852 98.2079 250.852C98.0027 250.852 97.8284 250.844 97.6848 250.828C97.5412 250.807 97.4038 250.776 97.2725 250.735C97.0632 250.883 96.9586 251.08 96.9586 251.326C96.9586 251.47 97.0161 251.593 97.1309 251.695C97.2458 251.794 97.4694 251.843 97.8017 251.843H98.9525C99.3997 251.843 99.7976 251.921 100.146 252.077C100.499 252.233 100.776 252.446 100.977 252.717C101.178 252.984 101.279 253.285 101.279 253.622C101.279 254.266 101.004 254.76 100.454 255.105C99.9084 255.453 99.1289 255.628 98.1156 255.628C97.4017 255.628 96.8397 255.554 96.4294 255.406C96.0232 255.258 95.734 255.039 95.5617 254.748C95.3935 254.456 95.3094 254.091 95.3094 253.652H96.374C96.374 253.894 96.4212 254.093 96.5156 254.249C96.6099 254.409 96.7822 254.526 97.0325 254.6C97.2827 254.678 97.6438 254.717 98.1156 254.717C98.813 254.717 99.3156 254.631 99.6232 254.458C99.9309 254.286 100.085 254.034 100.085 253.702C100.085 253.41 99.9556 253.189 99.6971 253.037C99.4386 252.889 99.1084 252.815 98.7063 252.815H97.5679C96.9853 252.815 96.5566 252.692 96.2817 252.446C96.0109 252.2 95.8756 251.913 95.8756 251.585C95.8756 251.129 96.1135 250.746 96.5894 250.434C95.855 250.048 95.4879 249.447 95.4879 248.631C95.4879 248.188 95.5986 247.796 95.8202 247.455C96.0458 247.111 96.3576 246.842 96.7556 246.649C97.1535 246.456 97.6109 246.36 98.1279 246.36C98.6653 246.36 99.1063 246.335 99.4509 246.286C99.7956 246.237 100.093 246.167 100.343 246.077C100.594 245.987 100.846 245.882 101.1 245.763ZM98.134 247.197C97.6458 247.197 97.2827 247.332 97.0448 247.603C96.8109 247.87 96.694 248.212 96.694 248.631C96.694 249.057 96.815 249.404 97.0571 249.671C97.2991 249.937 97.6663 250.071 98.1586 250.071C98.5935 250.071 98.9258 249.944 99.1556 249.689C99.3853 249.435 99.5002 249.078 99.5002 248.618C99.5002 247.671 99.0448 247.197 98.134 247.197ZM113.047 246.36C113.622 246.36 114.081 246.502 114.426 246.785C114.77 247.064 115.019 247.457 115.17 247.966C115.322 248.471 115.398 249.066 115.398 249.751C115.398 250.407 115.306 250.992 115.121 251.505C114.937 252.017 114.66 252.422 114.29 252.717C113.921 253.008 113.458 253.154 112.9 253.154C112.202 253.154 111.64 252.908 111.213 252.415V255.486L110.032 255.628V246.514H111.047L111.133 247.388C111.634 246.703 112.272 246.36 113.047 246.36ZM112.746 247.289C112.409 247.289 112.112 247.392 111.853 247.597C111.595 247.798 111.382 248.028 111.213 248.286V251.425C111.378 251.667 111.579 251.857 111.817 251.997C112.055 252.132 112.319 252.2 112.61 252.2C113.119 252.2 113.503 252.003 113.761 251.609C114.02 251.211 114.149 250.592 114.149 249.751C114.149 248.91 114.034 248.29 113.804 247.892C113.575 247.49 113.222 247.289 112.746 247.289ZM119.704 246.36C120.631 246.36 121.335 246.668 121.815 247.283C122.299 247.898 122.541 248.721 122.541 249.751C122.541 250.419 122.43 251.01 122.209 251.523C121.991 252.036 121.671 252.436 121.249 252.723C120.826 253.01 120.307 253.154 119.692 253.154C118.765 253.154 118.057 252.846 117.569 252.231C117.085 251.615 116.842 250.793 116.842 249.763C116.842 249.09 116.951 248.499 117.169 247.991C117.39 247.478 117.712 247.078 118.135 246.791C118.561 246.504 119.085 246.36 119.704 246.36ZM119.704 247.302C119.171 247.302 118.769 247.503 118.498 247.905C118.227 248.303 118.092 248.922 118.092 249.763C118.092 250.596 118.225 251.213 118.492 251.615C118.758 252.013 119.158 252.212 119.692 252.212C120.225 252.212 120.625 252.013 120.892 251.615C121.158 251.213 121.292 250.592 121.292 249.751C121.292 248.914 121.158 248.296 120.892 247.898C120.625 247.501 120.229 247.302 119.704 247.302ZM126.588 252.212C127.06 252.212 127.431 252.126 127.702 251.954C127.977 251.782 128.114 251.548 128.114 251.252C128.114 251.064 128.078 250.904 128.004 250.772C127.934 250.637 127.786 250.514 127.561 250.403C127.339 250.288 127.003 250.173 126.551 250.058C126.108 249.948 125.723 249.818 125.394 249.671C125.07 249.523 124.818 249.33 124.638 249.092C124.461 248.854 124.373 248.547 124.373 248.169C124.373 247.619 124.603 247.181 125.062 246.852C125.522 246.524 126.131 246.36 126.89 246.36C127.423 246.36 127.887 246.432 128.281 246.575C128.674 246.715 129.011 246.887 129.29 247.092L128.785 247.862C128.535 247.697 128.26 247.562 127.961 247.455C127.665 247.345 127.317 247.289 126.914 247.289C126.434 247.289 126.092 247.363 125.887 247.511C125.686 247.654 125.585 247.845 125.585 248.083C125.585 248.264 125.634 248.413 125.733 248.532C125.836 248.647 126.01 248.754 126.256 248.852C126.502 248.947 126.843 249.053 127.278 249.172C127.7 249.287 128.069 249.423 128.385 249.578C128.701 249.734 128.945 249.939 129.118 250.194C129.294 250.444 129.382 250.774 129.382 251.185C129.382 251.648 129.249 252.026 128.982 252.317C128.716 252.604 128.369 252.815 127.942 252.951C127.52 253.086 127.068 253.154 126.588 253.154C125.998 253.154 125.489 253.068 125.062 252.895C124.64 252.723 124.285 252.512 123.998 252.262L124.65 251.511C124.9 251.72 125.189 251.89 125.518 252.022C125.85 252.149 126.207 252.212 126.588 252.212ZM136.728 252.668C136.498 252.815 136.221 252.932 135.897 253.018C135.577 253.109 135.253 253.154 134.925 253.154C134.203 253.154 133.649 252.965 133.263 252.588C132.882 252.21 132.691 251.72 132.691 251.117V247.4H131.22V246.514H132.691V245.049L133.873 244.908V246.514H136.088L135.953 247.4H133.873V251.105C133.873 251.462 133.963 251.73 134.143 251.911C134.328 252.091 134.634 252.182 135.06 252.182C135.298 252.182 135.518 252.155 135.719 252.102C135.924 252.044 136.113 251.968 136.285 251.874L136.728 252.668ZM140.874 252.212C141.346 252.212 141.717 252.126 141.988 251.954C142.263 251.782 142.4 251.548 142.4 251.252C142.4 251.064 142.363 250.904 142.289 250.772C142.22 250.637 142.072 250.514 141.846 250.403C141.625 250.288 141.288 250.173 140.837 250.058C140.394 249.948 140.008 249.818 139.68 249.671C139.356 249.523 139.104 249.33 138.923 249.092C138.747 248.854 138.659 248.547 138.659 248.169C138.659 247.619 138.888 247.181 139.348 246.852C139.807 246.524 140.417 246.36 141.176 246.36C141.709 246.36 142.172 246.432 142.566 246.575C142.96 246.715 143.297 246.887 143.576 247.092L143.071 247.862C142.821 247.697 142.546 247.562 142.246 247.455C141.951 247.345 141.602 247.289 141.2 247.289C140.72 247.289 140.378 247.363 140.172 247.511C139.971 247.654 139.871 247.845 139.871 248.083C139.871 248.264 139.92 248.413 140.019 248.532C140.121 248.647 140.296 248.754 140.542 248.852C140.788 248.947 141.128 249.053 141.563 249.172C141.986 249.287 142.355 249.423 142.671 249.578C142.987 249.734 143.231 249.939 143.403 250.194C143.58 250.444 143.668 250.774 143.668 251.185C143.668 251.648 143.534 252.026 143.268 252.317C143.001 252.604 142.654 252.815 142.228 252.951C141.805 253.086 141.354 253.154 140.874 253.154C140.283 253.154 139.774 253.068 139.348 252.895C138.925 252.723 138.57 252.512 138.283 252.262L138.936 251.511C139.186 251.72 139.475 251.89 139.803 252.022C140.136 252.149 140.492 252.212 140.874 252.212ZM155.406 243.412C155.652 243.412 155.849 243.488 155.997 243.64C156.148 243.792 156.224 243.976 156.224 244.194C156.224 244.419 156.148 244.61 155.997 244.766C155.849 244.918 155.652 244.994 155.406 244.994C155.164 244.994 154.967 244.918 154.815 244.766C154.667 244.61 154.593 244.419 154.593 244.194C154.593 243.976 154.667 243.792 154.815 243.64C154.967 243.488 155.164 243.412 155.406 243.412ZM156.286 246.514V252.102H158.089V253H153.129V252.102H155.104V247.412H153.19V246.514H156.286ZM160.032 253V246.514H161.047L161.133 247.388C161.4 247.055 161.724 246.801 162.105 246.625C162.491 246.448 162.875 246.36 163.256 246.36C163.88 246.36 164.339 246.53 164.635 246.871C164.93 247.207 165.078 247.677 165.078 248.28V253H163.896V249.006C163.896 248.596 163.872 248.264 163.822 248.009C163.777 247.755 163.681 247.57 163.533 247.455C163.385 247.336 163.162 247.277 162.862 247.277C162.51 247.277 162.19 247.386 161.902 247.603C161.615 247.821 161.385 248.054 161.213 248.305V253H160.032ZM179.099 251.511C179.099 251.769 179.14 251.958 179.222 252.077C179.304 252.192 179.433 252.278 179.61 252.335L179.333 253.148C179.037 253.111 178.779 253.023 178.557 252.883C178.34 252.744 178.18 252.53 178.077 252.243C177.843 252.547 177.548 252.774 177.191 252.926C176.834 253.078 176.446 253.154 176.028 253.154C175.376 253.154 174.861 252.969 174.483 252.6C174.106 252.231 173.917 251.745 173.917 251.142C173.917 250.469 174.18 249.952 174.705 249.591C175.234 249.226 175.993 249.043 176.982 249.043H177.923V248.551C177.923 248.104 177.79 247.786 177.523 247.597C177.261 247.408 176.894 247.314 176.422 247.314C176.204 247.314 175.948 247.341 175.653 247.394C175.361 247.447 175.05 247.531 174.717 247.646L174.416 246.785C174.814 246.633 175.197 246.524 175.566 246.458C175.936 246.393 176.28 246.36 176.6 246.36C177.433 246.36 178.057 246.551 178.471 246.932C178.89 247.314 179.099 247.833 179.099 248.489V251.511ZM176.36 252.268C176.66 252.268 176.949 252.19 177.228 252.034C177.511 251.878 177.743 251.661 177.923 251.382V249.812H177.062C176.377 249.812 175.891 249.929 175.603 250.163C175.316 250.393 175.173 250.709 175.173 251.111C175.173 251.882 175.569 252.268 176.36 252.268ZM190.874 252.212C191.345 252.212 191.717 252.126 191.988 251.954C192.262 251.782 192.4 251.548 192.4 251.252C192.4 251.064 192.363 250.904 192.289 250.772C192.219 250.637 192.072 250.514 191.846 250.403C191.624 250.288 191.288 250.173 190.837 250.058C190.394 249.948 190.008 249.818 189.68 249.671C189.356 249.523 189.103 249.33 188.923 249.092C188.746 248.854 188.658 248.547 188.658 248.169C188.658 247.619 188.888 247.181 189.348 246.852C189.807 246.524 190.416 246.36 191.175 246.36C191.709 246.36 192.172 246.432 192.566 246.575C192.96 246.715 193.296 246.887 193.575 247.092L193.071 247.862C192.82 247.697 192.545 247.562 192.246 247.455C191.951 247.345 191.602 247.289 191.2 247.289C190.72 247.289 190.377 247.363 190.172 247.511C189.971 247.654 189.871 247.845 189.871 248.083C189.871 248.264 189.92 248.413 190.018 248.532C190.121 248.647 190.295 248.754 190.541 248.852C190.788 248.947 191.128 249.053 191.563 249.172C191.985 249.287 192.355 249.423 192.671 249.578C192.986 249.734 193.231 249.939 193.403 250.194C193.579 250.444 193.668 250.774 193.668 251.185C193.668 251.648 193.534 252.026 193.268 252.317C193.001 252.604 192.654 252.815 192.228 252.951C191.805 253.086 191.354 253.154 190.874 253.154C190.283 253.154 189.774 253.068 189.348 252.895C188.925 252.723 188.57 252.512 188.283 252.262L188.935 251.511C189.185 251.72 189.475 251.89 189.803 252.022C190.135 252.149 190.492 252.212 190.874 252.212ZM196.927 246.514V251.08C196.927 251.49 197.009 251.786 197.173 251.966C197.342 252.143 197.6 252.231 197.949 252.231C198.277 252.231 198.591 252.134 198.89 251.942C199.194 251.749 199.43 251.519 199.598 251.252V246.514H200.78V253H199.764L199.678 252.145C199.428 252.473 199.116 252.723 198.743 252.895C198.373 253.068 197.998 253.154 197.616 253.154C196.989 253.154 196.519 252.984 196.207 252.643C195.9 252.303 195.746 251.831 195.746 251.228V246.514H196.927ZM204.07 247.326C204.3 247.023 204.569 246.787 204.876 246.618C205.188 246.446 205.526 246.36 205.892 246.36C206.466 246.36 206.932 246.502 207.289 246.785C207.645 247.064 207.906 247.457 208.07 247.966C208.234 248.471 208.316 249.066 208.316 249.751C208.316 250.407 208.218 250.992 208.021 251.505C207.824 252.017 207.535 252.422 207.153 252.717C206.772 253.008 206.302 253.154 205.744 253.154C205.001 253.154 204.421 252.883 204.002 252.342L203.929 253H202.889V243.905L204.07 243.763V247.326ZM205.455 252.225C205.963 252.225 206.355 252.024 206.63 251.622C206.909 251.215 207.049 250.592 207.049 249.751C207.049 248.91 206.923 248.29 206.673 247.892C206.427 247.49 206.07 247.289 205.602 247.289C205.266 247.289 204.969 247.392 204.71 247.597C204.452 247.798 204.238 248.028 204.07 248.286V251.425C204.234 251.671 204.435 251.866 204.673 252.009C204.911 252.153 205.172 252.225 205.455 252.225ZM213.914 243.763C214.284 243.763 214.616 243.796 214.911 243.862C215.207 243.923 215.486 244.011 215.748 244.126L215.379 244.975C215.17 244.881 214.946 244.813 214.708 244.772C214.474 244.727 214.234 244.705 213.988 244.705C213.11 244.705 212.671 245.055 212.671 245.757V247H214.862L214.733 247.898H212.671V253H211.496V247.898H209.976V247H211.496V245.763C211.496 245.361 211.599 245.01 211.804 244.711C212.013 244.411 212.298 244.179 212.659 244.015C213.024 243.847 213.443 243.763 213.914 243.763ZM219.703 246.36C220.631 246.36 221.334 246.668 221.814 247.283C222.298 247.898 222.54 248.721 222.54 249.751C222.54 250.419 222.43 251.01 222.208 251.523C221.991 252.036 221.671 252.436 221.248 252.723C220.825 253.01 220.306 253.154 219.691 253.154C218.764 253.154 218.056 252.846 217.568 252.231C217.084 251.615 216.842 250.793 216.842 249.763C216.842 249.09 216.951 248.499 217.168 247.991C217.39 247.478 217.712 247.078 218.134 246.791C218.561 246.504 219.084 246.36 219.703 246.36ZM219.703 247.302C219.17 247.302 218.768 247.503 218.497 247.905C218.226 248.303 218.091 248.922 218.091 249.763C218.091 250.596 218.224 251.213 218.491 251.615C218.758 252.013 219.158 252.212 219.691 252.212C220.224 252.212 220.624 252.013 220.891 251.615C221.158 251.213 221.291 250.592 221.291 249.751C221.291 248.914 221.158 248.296 220.891 247.898C220.624 247.501 220.228 247.302 219.703 247.302ZM226.982 243.905V251.326C226.982 251.638 227.078 251.859 227.271 251.991C227.464 252.118 227.712 252.182 228.015 252.182C228.208 252.182 228.391 252.163 228.563 252.126C228.74 252.085 228.912 252.03 229.08 251.96L229.388 252.803C229.207 252.897 228.982 252.979 228.711 253.049C228.44 253.119 228.134 253.154 227.794 253.154C227.183 253.154 226.696 252.984 226.335 252.643C225.978 252.303 225.8 251.835 225.8 251.24V244.803H223.825V243.905H226.982ZM235.312 243.763L236.494 243.905V253H235.454L235.355 252.169C234.896 252.826 234.284 253.154 233.521 253.154C232.963 253.154 232.502 253.012 232.137 252.729C231.776 252.442 231.507 252.044 231.331 251.535C231.154 251.027 231.066 250.436 231.066 249.763C231.066 249.107 231.166 248.524 231.367 248.015C231.573 247.503 231.864 247.098 232.241 246.803C232.623 246.508 233.082 246.36 233.62 246.36C234.317 246.36 234.881 246.606 235.312 247.098V243.763ZM233.927 247.289C233.419 247.289 233.025 247.492 232.746 247.898C232.471 248.305 232.334 248.926 232.334 249.763C232.334 250.596 232.459 251.213 232.709 251.615C232.963 252.017 233.328 252.218 233.804 252.218C234.145 252.218 234.438 252.122 234.684 251.929C234.935 251.732 235.144 251.503 235.312 251.24V248.071C235.144 247.825 234.941 247.634 234.703 247.498C234.469 247.359 234.211 247.289 233.927 247.289ZM239.556 250.157C239.589 250.871 239.782 251.39 240.135 251.714C240.492 252.038 240.914 252.2 241.403 252.2C241.727 252.2 242.024 252.151 242.295 252.052C242.566 251.954 242.841 251.81 243.119 251.622L243.655 252.366C243.351 252.608 243.001 252.801 242.603 252.945C242.205 253.084 241.792 253.154 241.366 253.154C240.717 253.154 240.166 253.012 239.71 252.729C239.259 252.442 238.914 252.044 238.676 251.535C238.443 251.027 238.326 250.436 238.326 249.763C238.326 249.111 238.443 248.528 238.676 248.015C238.914 247.503 239.249 247.098 239.679 246.803C240.11 246.508 240.623 246.36 241.218 246.36C242.055 246.36 242.713 246.647 243.193 247.222C243.677 247.792 243.919 248.573 243.919 249.566C243.919 249.677 243.917 249.784 243.913 249.886C243.909 249.989 243.903 250.079 243.895 250.157H239.556ZM241.23 247.283C240.767 247.283 240.383 247.447 240.079 247.775C239.776 248.104 239.602 248.61 239.556 249.295H242.781C242.769 248.639 242.625 248.141 242.35 247.8C242.079 247.455 241.706 247.283 241.23 247.283ZM245.807 253V252.126H246.792V247.388H245.807V246.514H247.696L247.912 248.034C248.158 247.496 248.459 247.084 248.816 246.797C249.177 246.506 249.645 246.36 250.219 246.36C250.408 246.36 250.574 246.374 250.718 246.403C250.865 246.432 251.015 246.469 251.167 246.514L250.982 248.791H250.072V247.437H250.065C249.093 247.437 248.396 248.132 247.973 249.523V252.126H249.29V253H245.807ZM263.883 243.763L265.065 243.905V253H264.025L263.926 252.169C263.467 252.826 262.856 253.154 262.093 253.154C261.535 253.154 261.073 253.012 260.708 252.729C260.347 252.442 260.078 252.044 259.902 251.535C259.725 251.027 259.637 250.436 259.637 249.763C259.637 249.107 259.738 248.524 259.939 248.015C260.144 247.503 260.435 247.098 260.813 246.803C261.194 246.508 261.654 246.36 262.191 246.36C262.888 246.36 263.453 246.606 263.883 247.098V243.763ZM262.499 247.289C261.99 247.289 261.596 247.492 261.317 247.898C261.042 248.305 260.905 248.926 260.905 249.763C260.905 250.596 261.03 251.213 261.28 251.615C261.535 252.017 261.9 252.218 262.376 252.218C262.716 252.218 263.009 252.122 263.256 251.929C263.506 251.732 263.715 251.503 263.883 251.24V248.071C263.715 247.825 263.512 247.634 263.274 247.498C263.04 247.359 262.782 247.289 262.499 247.289ZM269.703 246.36C270.63 246.36 271.334 246.668 271.814 247.283C272.298 247.898 272.54 248.721 272.54 249.751C272.54 250.419 272.429 251.01 272.208 251.523C271.99 252.036 271.67 252.436 271.248 252.723C270.825 253.01 270.306 253.154 269.691 253.154C268.764 253.154 268.056 252.846 267.568 252.231C267.084 251.615 266.842 250.793 266.842 249.763C266.842 249.09 266.95 248.499 267.168 247.991C267.389 247.478 267.711 247.078 268.134 246.791C268.56 246.504 269.084 246.36 269.703 246.36ZM269.703 247.302C269.17 247.302 268.768 247.503 268.497 247.905C268.226 248.303 268.091 248.922 268.091 249.763C268.091 250.596 268.224 251.213 268.491 251.615C268.757 252.013 269.157 252.212 269.691 252.212C270.224 252.212 270.624 252.013 270.891 251.615C271.157 251.213 271.291 250.592 271.291 249.751C271.291 248.914 271.157 248.296 270.891 247.898C270.624 247.501 270.228 247.302 269.703 247.302ZM275.27 250.157C275.303 250.871 275.496 251.39 275.849 251.714C276.206 252.038 276.628 252.2 277.117 252.2C277.441 252.2 277.738 252.151 278.009 252.052C278.28 251.954 278.555 251.81 278.834 251.622L279.369 252.366C279.065 252.608 278.715 252.801 278.317 252.945C277.919 253.084 277.506 253.154 277.08 253.154C276.431 253.154 275.88 253.012 275.424 252.729C274.973 252.442 274.628 252.044 274.39 251.535C274.157 251.027 274.04 250.436 274.04 249.763C274.04 249.111 274.157 248.528 274.39 248.015C274.628 247.503 274.963 247.098 275.394 246.803C275.824 246.508 276.337 246.36 276.932 246.36C277.769 246.36 278.427 246.647 278.907 247.222C279.391 247.792 279.634 248.573 279.634 249.566C279.634 249.677 279.631 249.784 279.627 249.886C279.623 249.989 279.617 250.079 279.609 250.157H275.27ZM276.944 247.283C276.481 247.283 276.097 247.447 275.794 247.775C275.49 248.104 275.316 248.61 275.27 249.295H278.495C278.483 248.639 278.339 248.141 278.064 247.8C277.794 247.455 277.42 247.283 276.944 247.283ZM283.73 252.212C284.202 252.212 284.573 252.126 284.844 251.954C285.119 251.782 285.256 251.548 285.256 251.252C285.256 251.064 285.219 250.904 285.146 250.772C285.076 250.637 284.928 250.514 284.703 250.403C284.481 250.288 284.145 250.173 283.693 250.058C283.25 249.948 282.865 249.818 282.536 249.671C282.212 249.523 281.96 249.33 281.779 249.092C281.603 248.854 281.515 248.547 281.515 248.169C281.515 247.619 281.745 247.181 282.204 246.852C282.664 246.524 283.273 246.36 284.032 246.36C284.565 246.36 285.029 246.432 285.423 246.575C285.816 246.715 286.153 246.887 286.432 247.092L285.927 247.862C285.677 247.697 285.402 247.562 285.103 247.455C284.807 247.345 284.458 247.289 284.056 247.289C283.576 247.289 283.234 247.363 283.029 247.511C282.828 247.654 282.727 247.845 282.727 248.083C282.727 248.264 282.776 248.413 282.875 248.532C282.977 248.647 283.152 248.754 283.398 248.852C283.644 248.947 283.985 249.053 284.419 249.172C284.842 249.287 285.211 249.423 285.527 249.578C285.843 249.734 286.087 249.939 286.259 250.194C286.436 250.444 286.524 250.774 286.524 251.185C286.524 251.648 286.391 252.026 286.124 252.317C285.857 252.604 285.511 252.815 285.084 252.951C284.661 253.086 284.21 253.154 283.73 253.154C283.139 253.154 282.631 253.068 282.204 252.895C281.781 252.723 281.427 252.512 281.139 252.262L281.792 251.511C282.042 251.72 282.331 251.89 282.659 252.022C282.992 252.149 283.349 252.212 283.73 252.212ZM295.745 253V246.514H296.76L296.847 247.388C297.113 247.055 297.437 246.801 297.819 246.625C298.205 246.448 298.588 246.36 298.97 246.36C299.593 246.36 300.053 246.53 300.348 246.871C300.644 247.207 300.791 247.677 300.791 248.28V253H299.61V249.006C299.61 248.596 299.585 248.264 299.536 248.009C299.491 247.755 299.394 247.57 299.247 247.455C299.099 247.336 298.875 247.277 298.576 247.277C298.223 247.277 297.903 247.386 297.616 247.603C297.329 247.821 297.099 248.054 296.927 248.305V253H295.745ZM305.417 246.36C306.344 246.36 307.048 246.668 307.528 247.283C308.012 247.898 308.254 248.721 308.254 249.751C308.254 250.419 308.143 251.01 307.922 251.523C307.704 252.036 307.384 252.436 306.962 252.723C306.539 253.01 306.02 253.154 305.405 253.154C304.478 253.154 303.77 252.846 303.282 252.231C302.798 251.615 302.556 250.793 302.556 249.763C302.556 249.09 302.664 248.499 302.882 247.991C303.103 247.478 303.425 247.078 303.848 246.791C304.275 246.504 304.798 246.36 305.417 246.36ZM305.417 247.302C304.884 247.302 304.482 247.503 304.211 247.905C303.94 248.303 303.805 248.922 303.805 249.763C303.805 250.596 303.938 251.213 304.205 251.615C304.471 252.013 304.871 252.212 305.405 252.212C305.938 252.212 306.338 252.013 306.605 251.615C306.871 251.213 307.005 250.592 307.005 249.751C307.005 248.914 306.871 248.296 306.605 247.898C306.338 247.501 305.942 247.302 305.417 247.302ZM315.298 252.668C315.069 252.815 314.792 252.932 314.468 253.018C314.148 253.109 313.824 253.154 313.495 253.154C312.773 253.154 312.219 252.965 311.834 252.588C311.452 252.21 311.261 251.72 311.261 251.117V247.4H309.791V246.514H311.261V245.049L312.443 244.908V246.514H314.658L314.523 247.4H312.443V251.105C312.443 251.462 312.533 251.73 312.714 251.911C312.898 252.091 313.204 252.182 313.631 252.182C313.869 252.182 314.088 252.155 314.289 252.102C314.494 252.044 314.683 251.968 314.855 251.874L315.298 252.668ZM329.239 253H327.664L326.87 248.305L326.015 253H324.476L323.326 246.514H324.501L325.264 252.268L326.242 247.338H327.535L328.452 252.268L329.215 246.514H330.341L329.239 253ZM333.988 246.36C334.916 246.36 335.619 246.668 336.099 247.283C336.583 247.898 336.825 248.721 336.825 249.751C336.825 250.419 336.715 251.01 336.493 251.523C336.276 252.036 335.956 252.436 335.533 252.723C335.11 253.01 334.591 253.154 333.976 253.154C333.049 253.154 332.341 252.846 331.853 252.231C331.369 251.615 331.127 250.793 331.127 249.763C331.127 249.09 331.236 248.499 331.453 247.991C331.675 247.478 331.997 247.078 332.419 246.791C332.846 246.504 333.369 246.36 333.988 246.36ZM333.988 247.302C333.455 247.302 333.053 247.503 332.782 247.905C332.511 248.303 332.376 248.922 332.376 249.763C332.376 250.596 332.509 251.213 332.776 251.615C333.043 252.013 333.443 252.212 333.976 252.212C334.509 252.212 334.909 252.013 335.176 251.615C335.443 251.213 335.576 250.592 335.576 249.751C335.576 248.914 335.443 248.296 335.176 247.898C334.909 247.501 334.513 247.302 333.988 247.302ZM338.663 253V252.126H339.648V247.388H338.663V246.514H340.553L340.768 248.034C341.014 247.496 341.316 247.084 341.673 246.797C342.034 246.506 342.501 246.36 343.076 246.36C343.265 246.36 343.431 246.374 343.574 246.403C343.722 246.432 343.872 246.469 344.023 246.514L343.839 248.791H342.928V247.437H342.922C341.95 247.437 341.252 248.132 340.83 249.523V252.126H342.147V253H338.663ZM346.982 243.763V253H345.8V243.905L346.982 243.763ZM351.302 246.514L348.508 249.425L351.609 253H350.114L347.092 249.455L349.843 246.514H351.302ZM354.272 252.015C354.272 251.704 354.379 251.439 354.592 251.222C354.81 251.004 355.076 250.895 355.392 250.895C355.716 250.895 355.987 251.004 356.204 251.222C356.422 251.439 356.531 251.704 356.531 252.015C356.531 252.331 356.422 252.6 356.204 252.822C355.987 253.043 355.716 253.154 355.392 253.154C355.076 253.154 354.81 253.043 354.592 252.822C354.379 252.6 354.272 252.331 354.272 252.015ZM22.6646 268.631C22.6646 269.123 22.5395 269.56 22.2892 269.942C22.0431 270.319 21.6841 270.616 21.2123 270.834C20.7446 271.047 20.1764 271.154 19.5077 271.154C18.8595 271.154 18.281 271.055 17.7723 270.858C17.2636 270.662 16.8308 270.391 16.4738 270.046L17.1692 269.265C17.4646 269.539 17.8031 269.757 18.1846 269.917C18.5662 270.077 19.0113 270.157 19.52 270.157C19.8523 270.157 20.16 270.104 20.4431 269.997C20.7303 269.886 20.96 269.722 21.1323 269.505C21.3087 269.283 21.3969 269.006 21.3969 268.674C21.3969 268.411 21.3436 268.188 21.2369 268.003C21.1344 267.814 20.9518 267.648 20.6892 267.505C20.4267 267.361 20.0595 267.219 19.5877 267.08C19.0133 266.912 18.521 266.721 18.1108 266.508C17.7046 266.29 17.3928 266.03 17.1754 265.726C16.9621 265.418 16.8554 265.041 16.8554 264.594C16.8554 264.155 16.9764 263.769 17.2185 263.437C17.4605 263.101 17.7928 262.838 18.2154 262.649C18.6379 262.461 19.1241 262.366 19.6738 262.366C20.2687 262.366 20.7877 262.452 21.2308 262.625C21.6779 262.797 22.08 263.041 22.4369 263.357L21.76 264.12C21.4564 263.853 21.1303 263.661 20.7815 263.542C20.4369 263.418 20.0862 263.357 19.7292 263.357C19.2779 263.357 18.8944 263.455 18.5785 263.652C18.2626 263.845 18.1046 264.141 18.1046 264.538C18.1046 264.776 18.1682 264.979 18.2954 265.148C18.4226 265.312 18.6359 265.464 18.9354 265.603C19.239 265.743 19.6533 265.89 20.1785 266.046C20.6338 266.182 21.0482 266.348 21.4215 266.545C21.799 266.737 22.1005 267 22.3262 267.332C22.5518 267.661 22.6646 268.093 22.6646 268.631ZM29.5859 270.668C29.3561 270.815 29.0792 270.932 28.7551 271.018C28.4351 271.109 28.111 271.154 27.7828 271.154C27.0608 271.154 26.5069 270.965 26.1213 270.588C25.7397 270.21 25.549 269.72 25.549 269.117V265.4H24.0782V264.514H25.549V263.049L26.7305 262.908V264.514H28.9459L28.8105 265.4H26.7305V269.105C26.7305 269.462 26.8208 269.73 27.0013 269.911C27.1859 270.091 27.4915 270.182 27.9182 270.182C28.1561 270.182 28.3756 270.155 28.5767 270.102C28.7818 270.044 28.9705 269.968 29.1428 269.874L29.5859 270.668ZM36.2425 269.511C36.2425 269.769 36.2836 269.958 36.3656 270.077C36.4477 270.192 36.5769 270.278 36.7533 270.335L36.4764 271.148C36.181 271.111 35.9225 271.023 35.701 270.883C35.4836 270.744 35.3236 270.53 35.221 270.243C34.9872 270.547 34.6918 270.774 34.3349 270.926C33.9779 271.078 33.5902 271.154 33.1718 271.154C32.5195 271.154 32.0046 270.969 31.6272 270.6C31.2497 270.231 31.061 269.745 31.061 269.142C31.061 268.469 31.3236 267.952 31.8487 267.591C32.3779 267.226 33.1369 267.043 34.1256 267.043H35.0672V266.551C35.0672 266.104 34.9338 265.786 34.6672 265.597C34.4046 265.408 34.0374 265.314 33.5656 265.314C33.3482 265.314 33.0918 265.341 32.7964 265.394C32.5051 265.447 32.1933 265.531 31.861 265.646L31.5595 264.785C31.9574 264.633 32.341 264.524 32.7102 264.458C33.0795 264.393 33.4241 264.36 33.7441 264.36C34.5769 264.36 35.2005 264.551 35.6149 264.932C36.0333 265.314 36.2425 265.833 36.2425 266.489V269.511ZM33.5041 270.268C33.8036 270.268 34.0928 270.19 34.3718 270.034C34.6549 269.878 34.8867 269.661 35.0672 269.382V267.812H34.2056C33.5205 267.812 33.0343 267.929 32.7472 268.163C32.46 268.393 32.3164 268.709 32.3164 269.111C32.3164 269.882 32.7123 270.268 33.5041 270.268ZM43.8715 270.668C43.6418 270.815 43.3648 270.932 43.0407 271.018C42.7207 271.109 42.3966 271.154 42.0684 271.154C41.3464 271.154 40.7925 270.965 40.4069 270.588C40.0254 270.21 39.8346 269.72 39.8346 269.117V265.4H38.3638V264.514H39.8346V263.049L41.0161 262.908V264.514H43.2315L43.0961 265.4H41.0161V269.105C41.0161 269.462 41.1064 269.73 41.2869 269.911C41.4715 270.091 41.7772 270.182 42.2038 270.182C42.4418 270.182 42.6613 270.155 42.8623 270.102C43.0674 270.044 43.2561 269.968 43.4284 269.874L43.8715 270.668ZM46.9282 264.514V269.08C46.9282 269.49 47.0102 269.786 47.1743 269.966C47.3425 270.143 47.601 270.231 47.9497 270.231C48.2779 270.231 48.5918 270.134 48.8913 269.942C49.1948 269.749 49.4307 269.519 49.5989 269.252V264.514H50.7805V271H49.7651L49.6789 270.145C49.4287 270.473 49.1169 270.723 48.7436 270.895C48.3743 271.068 47.9989 271.154 47.6174 271.154C46.9897 271.154 46.52 270.984 46.2082 270.643C45.9005 270.303 45.7466 269.831 45.7466 269.228V264.514H46.9282ZM55.1602 270.212C55.632 270.212 56.0033 270.126 56.2741 269.954C56.5489 269.782 56.6864 269.548 56.6864 269.252C56.6864 269.064 56.6494 268.904 56.5756 268.772C56.5059 268.637 56.3582 268.514 56.1325 268.403C55.911 268.288 55.5746 268.173 55.1233 268.058C54.6802 267.948 54.2946 267.818 53.9664 267.671C53.6423 267.523 53.39 267.33 53.2094 267.092C53.033 266.854 52.9448 266.547 52.9448 266.169C52.9448 265.619 53.1746 265.181 53.6341 264.852C54.0935 264.524 54.7028 264.36 55.4618 264.36C55.9951 264.36 56.4587 264.432 56.8525 264.575C57.2464 264.715 57.5828 264.887 57.8618 265.092L57.3571 265.862C57.1069 265.697 56.832 265.562 56.5325 265.455C56.2371 265.345 55.8884 265.289 55.4864 265.289C55.0064 265.289 54.6638 265.363 54.4587 265.511C54.2577 265.654 54.1571 265.845 54.1571 266.083C54.1571 266.264 54.2064 266.413 54.3048 266.532C54.4074 266.647 54.5818 266.754 54.8279 266.852C55.0741 266.947 55.4146 267.053 55.8494 267.172C56.272 267.287 56.6412 267.423 56.9571 267.578C57.273 267.734 57.5171 267.939 57.6894 268.194C57.8659 268.444 57.9541 268.774 57.9541 269.185C57.9541 269.648 57.8207 270.026 57.5541 270.317C57.2874 270.604 56.9407 270.815 56.5141 270.951C56.0915 271.086 55.6402 271.154 55.1602 271.154C54.5694 271.154 54.0607 271.068 53.6341 270.895C53.2115 270.723 52.8566 270.512 52.5694 270.262L53.2218 269.511C53.472 269.72 53.7612 269.89 54.0894 270.022C54.4218 270.149 54.7787 270.212 55.1602 270.212ZM61.4969 265.695C61.4969 265.408 61.5974 265.164 61.7984 264.963C61.9994 264.758 62.2456 264.655 62.5369 264.655C62.8364 264.655 63.0866 264.758 63.2876 264.963C63.4887 265.164 63.5892 265.408 63.5892 265.695C63.5892 265.983 63.4887 266.229 63.2876 266.434C63.0866 266.639 62.8364 266.742 62.5369 266.742C62.2456 266.742 61.9994 266.639 61.7984 266.434C61.5974 266.229 61.4969 265.983 61.4969 265.695ZM61.4969 270.102C61.4969 269.823 61.5974 269.581 61.7984 269.375C61.9994 269.17 62.2456 269.068 62.5369 269.068C62.8364 269.068 63.0866 269.17 63.2876 269.375C63.4887 269.581 63.5892 269.823 63.5892 270.102C63.5892 270.393 63.4887 270.641 63.2876 270.846C63.0866 271.051 62.8364 271.154 62.5369 271.154C62.2456 271.154 61.9994 271.051 61.7984 270.846C61.5974 270.641 61.4969 270.393 61.4969 270.102ZM80.004 266.766C80.004 267.628 79.8851 268.389 79.6471 269.049C79.4092 269.71 79.0543 270.227 78.5825 270.6C78.1148 270.969 77.5322 271.154 76.8348 271.154C76.1374 271.154 75.5528 270.973 75.081 270.612C74.6133 270.247 74.2605 269.736 74.0225 269.08C73.7846 268.424 73.6656 267.656 73.6656 266.778C73.6656 265.913 73.7846 265.15 74.0225 264.489C74.2605 263.825 74.6133 263.306 75.081 262.932C75.5528 262.555 76.1374 262.366 76.8348 262.366C77.5322 262.366 78.1148 262.549 78.5825 262.914C79.0543 263.279 79.4092 263.792 79.6471 264.452C79.8851 265.113 80.004 265.884 80.004 266.766ZM78.7302 266.766C78.7302 265.65 78.5825 264.803 78.2871 264.225C77.9958 263.646 77.5117 263.357 76.8348 263.357C76.1579 263.357 75.6717 263.648 75.3763 264.231C75.0851 264.813 74.9394 265.663 74.9394 266.778C74.9394 267.89 75.0892 268.733 75.3887 269.308C75.6922 269.878 76.1743 270.163 76.8348 270.163C77.5117 270.163 77.9958 269.876 78.2871 269.302C78.5825 268.723 78.7302 267.878 78.7302 266.766ZM84.4761 264.36C85.0504 264.36 85.5099 264.502 85.8545 264.785C86.1992 265.064 86.4474 265.457 86.5992 265.966C86.7509 266.471 86.8268 267.066 86.8268 267.751C86.8268 268.407 86.7345 268.992 86.5499 269.505C86.3653 270.017 86.0884 270.422 85.7192 270.717C85.3499 271.008 84.8863 271.154 84.3284 271.154C83.6309 271.154 83.0689 270.908 82.6422 270.415V273.486L81.4607 273.628V264.514H82.4761L82.5622 265.388C83.0627 264.703 83.7007 264.36 84.4761 264.36ZM84.1745 265.289C83.8381 265.289 83.5407 265.392 83.2822 265.597C83.0238 265.798 82.8104 266.028 82.6422 266.286V269.425C82.8063 269.667 83.0074 269.857 83.2453 269.997C83.4833 270.132 83.7479 270.2 84.0392 270.2C84.5479 270.2 84.9315 270.003 85.1899 269.609C85.4484 269.211 85.5776 268.592 85.5776 267.751C85.5776 266.91 85.4627 266.29 85.233 265.892C85.0033 265.49 84.6504 265.289 84.1745 265.289ZM89.5574 268.157C89.5902 268.871 89.783 269.39 90.1358 269.714C90.4927 270.038 90.9153 270.2 91.4035 270.2C91.7276 270.2 92.025 270.151 92.2958 270.052C92.5666 269.954 92.8415 269.81 93.1204 269.622L93.6558 270.366C93.3522 270.608 93.0015 270.801 92.6035 270.945C92.2056 271.084 91.7933 271.154 91.3666 271.154C90.7184 271.154 90.1666 271.012 89.7112 270.729C89.2599 270.442 88.9153 270.044 88.6774 269.535C88.4435 269.027 88.3266 268.436 88.3266 267.763C88.3266 267.111 88.4435 266.528 88.6774 266.015C88.9153 265.503 89.2497 265.098 89.6804 264.803C90.1112 264.508 90.624 264.36 91.2189 264.36C92.0558 264.36 92.7143 264.647 93.1943 265.222C93.6784 265.792 93.9204 266.573 93.9204 267.566C93.9204 267.677 93.9184 267.784 93.9143 267.886C93.9102 267.989 93.904 268.079 93.8958 268.157H89.5574ZM91.2312 265.283C90.7676 265.283 90.384 265.447 90.0804 265.775C89.7768 266.104 89.6025 266.61 89.5574 267.295H92.782C92.7697 266.639 92.6261 266.141 92.3512 265.8C92.0804 265.455 91.7071 265.283 91.2312 265.283ZM95.7463 271V264.514H96.7617L96.8479 265.388C97.1145 265.055 97.4386 264.801 97.8202 264.625C98.2058 264.448 98.5894 264.36 98.9709 264.36C99.5945 264.36 100.054 264.53 100.349 264.871C100.645 265.207 100.792 265.677 100.792 266.28V271H99.6109V267.006C99.6109 266.596 99.5863 266.264 99.5371 266.009C99.492 265.755 99.3956 265.57 99.2479 265.455C99.1002 265.336 98.8766 265.277 98.5771 265.277C98.2243 265.277 97.9043 265.386 97.6171 265.603C97.3299 265.821 97.1002 266.054 96.9279 266.305V271H95.7463ZM104.274 270.015C104.274 269.704 104.38 269.439 104.594 269.222C104.811 269.004 105.078 268.895 105.394 268.895C105.718 268.895 105.989 269.004 106.206 269.222C106.423 269.439 106.532 269.704 106.532 270.015C106.532 270.331 106.423 270.6 106.206 270.822C105.989 271.043 105.718 271.154 105.394 271.154C105.078 271.154 104.811 271.043 104.594 270.822C104.38 270.6 104.274 270.331 104.274 270.015ZM121.267 268.889H118.055L117.415 271H116.19L118.922 262.52H120.461L123.199 271H121.907L121.267 268.889ZM118.338 267.911H120.984L119.667 263.505L118.338 267.911ZM125.499 264.514V269.08C125.499 269.49 125.581 269.786 125.745 269.966C125.913 270.143 126.172 270.231 126.521 270.231C126.849 270.231 127.163 270.134 127.462 269.942C127.766 269.749 128.002 269.519 128.17 269.252V264.514H129.351V271H128.336L128.25 270.145C128 270.473 127.688 270.723 127.314 270.895C126.945 271.068 126.57 271.154 126.188 271.154C125.561 271.154 125.091 270.984 124.779 270.643C124.471 270.303 124.318 269.831 124.318 269.228V264.514H125.499ZM136.728 270.668C136.498 270.815 136.221 270.932 135.897 271.018C135.577 271.109 135.253 271.154 134.925 271.154C134.203 271.154 133.649 270.965 133.263 270.588C132.882 270.21 132.691 269.72 132.691 269.117V265.4H131.22V264.514H132.691V263.049L133.873 262.908V264.514H136.088L135.953 265.4H133.873V269.105C133.873 269.462 133.963 269.73 134.143 269.911C134.328 270.091 134.634 270.182 135.06 270.182C135.298 270.182 135.518 270.155 135.719 270.102C135.924 270.044 136.113 269.968 136.285 269.874L136.728 270.668ZM139.785 261.788V265.357C140.043 265.029 140.353 264.781 140.714 264.612C141.079 264.444 141.45 264.36 141.828 264.36C142.451 264.36 142.911 264.53 143.206 264.871C143.502 265.207 143.649 265.677 143.649 266.28V271H142.468V266.385C142.468 265.995 142.384 265.714 142.216 265.542C142.051 265.365 141.789 265.277 141.428 265.277C141.083 265.277 140.765 265.386 140.474 265.603C140.187 265.821 139.957 266.056 139.785 266.311V271H138.603V261.917L139.785 261.788ZM148.275 264.36C149.202 264.36 149.906 264.668 150.386 265.283C150.87 265.898 151.112 266.721 151.112 267.751C151.112 268.419 151.001 269.01 150.78 269.523C150.562 270.036 150.242 270.436 149.82 270.723C149.397 271.01 148.878 271.154 148.263 271.154C147.336 271.154 146.628 270.846 146.14 270.231C145.656 269.615 145.414 268.793 145.414 267.763C145.414 267.09 145.522 266.499 145.74 265.991C145.961 265.478 146.283 265.078 146.706 264.791C147.133 264.504 147.656 264.36 148.275 264.36ZM148.275 265.302C147.742 265.302 147.34 265.503 147.069 265.905C146.798 266.303 146.663 266.922 146.663 267.763C146.663 268.596 146.796 269.213 147.063 269.615C147.33 270.013 147.73 270.212 148.263 270.212C148.796 270.212 149.196 270.013 149.463 269.615C149.73 269.213 149.863 268.592 149.863 267.751C149.863 266.914 149.73 266.296 149.463 265.898C149.196 265.501 148.8 265.302 148.275 265.302ZM152.95 271V270.126H153.935V265.388H152.95V264.514H154.84L155.055 266.034C155.301 265.496 155.603 265.084 155.96 264.797C156.321 264.506 156.788 264.36 157.363 264.36C157.551 264.36 157.718 264.374 157.861 264.403C158.009 264.432 158.159 264.469 158.31 264.514L158.126 266.791H157.215V265.437H157.209C156.237 265.437 155.539 266.132 155.117 267.523V270.126H156.433V271H152.95ZM161.496 265.695C161.496 265.408 161.597 265.164 161.798 264.963C161.999 264.758 162.245 264.655 162.536 264.655C162.836 264.655 163.086 264.758 163.287 264.963C163.488 265.164 163.589 265.408 163.589 265.695C163.589 265.983 163.488 266.229 163.287 266.434C163.086 266.639 162.836 266.742 162.536 266.742C162.245 266.742 161.999 266.639 161.798 266.434C161.597 266.229 161.496 265.983 161.496 265.695ZM161.496 270.102C161.496 269.823 161.597 269.581 161.798 269.375C161.999 269.17 162.245 269.068 162.536 269.068C162.836 269.068 163.086 269.17 163.287 269.375C163.488 269.581 163.589 269.823 163.589 270.102C163.589 270.393 163.488 270.641 163.287 270.846C163.086 271.051 162.836 271.154 162.536 271.154C162.245 271.154 161.999 271.051 161.798 270.846C161.597 270.641 161.496 270.393 161.496 270.102ZM179.671 263.763L180.016 264.809C179.745 264.895 179.454 264.951 179.142 264.975C178.834 265 178.494 265.012 178.12 265.012C178.888 265.357 179.271 265.903 179.271 266.649C179.271 267.289 179.05 267.816 178.606 268.231C178.168 268.645 177.558 268.852 176.779 268.852C176.574 268.852 176.399 268.844 176.256 268.828C176.112 268.807 175.975 268.776 175.843 268.735C175.634 268.883 175.53 269.08 175.53 269.326C175.53 269.47 175.587 269.593 175.702 269.695C175.817 269.794 176.04 269.843 176.373 269.843H177.523C177.971 269.843 178.369 269.921 178.717 270.077C179.07 270.233 179.347 270.446 179.548 270.717C179.749 270.984 179.85 271.285 179.85 271.622C179.85 272.266 179.575 272.76 179.025 273.105C178.479 273.453 177.7 273.628 176.686 273.628C175.973 273.628 175.411 273.554 175 273.406C174.594 273.258 174.305 273.039 174.133 272.748C173.964 272.456 173.88 272.091 173.88 271.652H174.945C174.945 271.894 174.992 272.093 175.086 272.249C175.181 272.409 175.353 272.526 175.603 272.6C175.854 272.678 176.215 272.717 176.686 272.717C177.384 272.717 177.886 272.631 178.194 272.458C178.502 272.286 178.656 272.034 178.656 271.702C178.656 271.41 178.526 271.189 178.268 271.037C178.01 270.889 177.679 270.815 177.277 270.815H176.139C175.556 270.815 175.128 270.692 174.853 270.446C174.582 270.2 174.446 269.913 174.446 269.585C174.446 269.129 174.684 268.746 175.16 268.434C174.426 268.048 174.059 267.447 174.059 266.631C174.059 266.188 174.17 265.796 174.391 265.455C174.617 265.111 174.929 264.842 175.326 264.649C175.724 264.456 176.182 264.36 176.699 264.36C177.236 264.36 177.677 264.335 178.022 264.286C178.366 264.237 178.664 264.167 178.914 264.077C179.164 263.987 179.417 263.882 179.671 263.763ZM176.705 265.197C176.217 265.197 175.854 265.332 175.616 265.603C175.382 265.87 175.265 266.212 175.265 266.631C175.265 267.057 175.386 267.404 175.628 267.671C175.87 267.937 176.237 268.071 176.73 268.071C177.164 268.071 177.497 267.944 177.726 267.689C177.956 267.435 178.071 267.078 178.071 266.618C178.071 265.671 177.616 265.197 176.705 265.197ZM182.642 264.514V269.08C182.642 269.49 182.724 269.786 182.888 269.966C183.056 270.143 183.314 270.231 183.663 270.231C183.991 270.231 184.305 270.134 184.605 269.942C184.908 269.749 185.144 269.519 185.312 269.252V264.514H186.494V271H185.479L185.392 270.145C185.142 270.473 184.83 270.723 184.457 270.895C184.088 271.068 183.712 271.154 183.331 271.154C182.703 271.154 182.233 270.984 181.922 270.643C181.614 270.303 181.46 269.831 181.46 269.228V264.514H182.642ZM194.123 264.514L191.858 271.037C191.702 271.496 191.501 271.911 191.255 272.28C191.009 272.653 190.691 272.957 190.301 273.191C189.916 273.425 189.43 273.57 188.843 273.628L188.677 272.711C189.12 272.641 189.471 272.534 189.729 272.391C189.992 272.247 190.197 272.061 190.344 271.831C190.496 271.601 190.632 271.324 190.751 271H190.351L188.117 264.514H189.378L191.144 270.138L192.904 264.514H194.123ZM198.263 261.412C198.509 261.412 198.706 261.488 198.853 261.64C199.005 261.792 199.081 261.976 199.081 262.194C199.081 262.419 199.005 262.61 198.853 262.766C198.706 262.918 198.509 262.994 198.263 262.994C198.021 262.994 197.824 262.918 197.672 262.766C197.524 262.61 197.45 262.419 197.45 262.194C197.45 261.976 197.524 261.792 197.672 261.64C197.824 261.488 198.021 261.412 198.263 261.412ZM199.143 264.514V270.102H200.946V271H195.986V270.102H197.961V265.412H196.047V264.514H199.143ZM202.889 271V264.514H203.904L203.99 265.388C204.257 265.055 204.581 264.801 204.962 264.625C205.348 264.448 205.732 264.36 206.113 264.36C206.737 264.36 207.196 264.53 207.492 264.871C207.787 265.207 207.935 265.677 207.935 266.28V271H206.753V267.006C206.753 266.596 206.729 266.264 206.679 266.009C206.634 265.755 206.538 265.57 206.39 265.455C206.242 265.336 206.019 265.277 205.719 265.277C205.366 265.277 205.046 265.386 204.759 265.603C204.472 265.821 204.242 266.054 204.07 266.305V271H202.889ZM213.047 270.157C213.363 270.157 213.656 270.106 213.927 270.003C214.202 269.896 214.458 269.759 214.696 269.591L215.262 270.36C214.975 270.598 214.63 270.791 214.228 270.938C213.83 271.082 213.43 271.154 213.028 271.154C212.376 271.154 211.818 271.014 211.354 270.735C210.895 270.456 210.544 270.065 210.302 269.56C210.06 269.055 209.939 268.465 209.939 267.788C209.939 267.131 210.06 266.547 210.302 266.034C210.548 265.517 210.903 265.109 211.367 264.809C211.83 264.51 212.39 264.36 213.047 264.36C213.892 264.36 214.626 264.614 215.25 265.123L214.69 265.892C214.144 265.515 213.599 265.326 213.053 265.326C212.511 265.326 212.068 265.527 211.724 265.929C211.379 266.331 211.207 266.951 211.207 267.788C211.207 268.629 211.379 269.234 211.724 269.603C212.072 269.972 212.513 270.157 213.047 270.157ZM219.703 264.36C220.631 264.36 221.334 264.668 221.814 265.283C222.298 265.898 222.54 266.721 222.54 267.751C222.54 268.419 222.43 269.01 222.208 269.523C221.991 270.036 221.671 270.436 221.248 270.723C220.825 271.01 220.306 271.154 219.691 271.154C218.764 271.154 218.056 270.846 217.568 270.231C217.084 269.615 216.842 268.793 216.842 267.763C216.842 267.09 216.951 266.499 217.168 265.991C217.39 265.478 217.712 265.078 218.134 264.791C218.561 264.504 219.084 264.36 219.703 264.36ZM219.703 265.302C219.17 265.302 218.768 265.503 218.497 265.905C218.226 266.303 218.091 266.922 218.091 267.763C218.091 268.596 218.224 269.213 218.491 269.615C218.758 270.013 219.158 270.212 219.691 270.212C220.224 270.212 220.624 270.013 220.891 269.615C221.158 269.213 221.291 268.592 221.291 267.751C221.291 266.914 221.158 266.296 220.891 265.898C220.624 265.501 220.228 265.302 219.703 265.302ZM229.671 263.763L230.015 264.809C229.745 264.895 229.453 264.951 229.142 264.975C228.834 265 228.493 265.012 228.12 265.012C228.887 265.357 229.271 265.903 229.271 266.649C229.271 267.289 229.049 267.816 228.606 268.231C228.167 268.645 227.558 268.852 226.778 268.852C226.573 268.852 226.399 268.844 226.255 268.828C226.112 268.807 225.974 268.776 225.843 268.735C225.634 268.883 225.529 269.08 225.529 269.326C225.529 269.47 225.587 269.593 225.702 269.695C225.816 269.794 226.04 269.843 226.372 269.843H227.523C227.97 269.843 228.368 269.921 228.717 270.077C229.07 270.233 229.347 270.446 229.548 270.717C229.749 270.984 229.849 271.285 229.849 271.622C229.849 272.266 229.574 272.76 229.025 273.105C228.479 273.453 227.7 273.628 226.686 273.628C225.972 273.628 225.41 273.554 225 273.406C224.594 273.258 224.305 273.039 224.132 272.748C223.964 272.456 223.88 272.091 223.88 271.652H224.945C224.945 271.894 224.992 272.093 225.086 272.249C225.181 272.409 225.353 272.526 225.603 272.6C225.853 272.678 226.214 272.717 226.686 272.717C227.384 272.717 227.886 272.631 228.194 272.458C228.502 272.286 228.655 272.034 228.655 271.702C228.655 271.41 228.526 271.189 228.268 271.037C228.009 270.889 227.679 270.815 227.277 270.815H226.138C225.556 270.815 225.127 270.692 224.852 270.446C224.582 270.2 224.446 269.913 224.446 269.585C224.446 269.129 224.684 268.746 225.16 268.434C224.426 268.048 224.058 267.447 224.058 266.631C224.058 266.188 224.169 265.796 224.391 265.455C224.616 265.111 224.928 264.842 225.326 264.649C225.724 264.456 226.182 264.36 226.698 264.36C227.236 264.36 227.677 264.335 228.022 264.286C228.366 264.237 228.664 264.167 228.914 264.077C229.164 263.987 229.416 263.882 229.671 263.763ZM226.705 265.197C226.216 265.197 225.853 265.332 225.615 265.603C225.382 265.87 225.265 266.212 225.265 266.631C225.265 267.057 225.386 267.404 225.628 267.671C225.87 267.937 226.237 268.071 226.729 268.071C227.164 268.071 227.496 267.944 227.726 267.689C227.956 267.435 228.071 267.078 228.071 266.618C228.071 265.671 227.615 265.197 226.705 265.197ZM231.46 271V264.514H232.475L232.561 265.388C232.828 265.055 233.152 264.801 233.534 264.625C233.919 264.448 234.303 264.36 234.684 264.36C235.308 264.36 235.767 264.53 236.063 264.871C236.358 265.207 236.506 265.677 236.506 266.28V271H235.324V267.006C235.324 266.596 235.3 266.264 235.251 266.009C235.205 265.755 235.109 265.57 234.961 265.455C234.814 265.336 234.59 265.277 234.291 265.277C233.938 265.277 233.618 265.386 233.331 265.603C233.043 265.821 232.814 266.054 232.641 266.305V271H231.46ZM241.119 261.412C241.366 261.412 241.563 261.488 241.71 261.64C241.862 261.792 241.938 261.976 241.938 262.194C241.938 262.419 241.862 262.61 241.71 262.766C241.563 262.918 241.366 262.994 241.119 262.994C240.877 262.994 240.681 262.918 240.529 262.766C240.381 262.61 240.307 262.419 240.307 262.194C240.307 261.976 240.381 261.792 240.529 261.64C240.681 261.488 240.877 261.412 241.119 261.412ZM241.999 264.514V270.102H243.803V271H238.843V270.102H240.818V265.412H238.904V264.514H241.999ZM251.013 270.668C250.783 270.815 250.506 270.932 250.182 271.018C249.862 271.109 249.538 271.154 249.21 271.154C248.488 271.154 247.934 270.965 247.548 270.588C247.167 270.21 246.976 269.72 246.976 269.117V265.4H245.505V264.514H246.976V263.049L248.158 262.908V264.514H250.373L250.238 265.4H248.158V269.105C248.158 269.462 248.248 269.73 248.428 269.911C248.613 270.091 248.919 270.182 249.345 270.182C249.583 270.182 249.803 270.155 250.004 270.102C250.209 270.044 250.398 269.968 250.57 269.874L251.013 270.668ZM255.417 264.36C256.345 264.36 257.048 264.668 257.528 265.283C258.012 265.898 258.254 266.721 258.254 267.751C258.254 268.419 258.144 269.01 257.922 269.523C257.705 270.036 257.385 270.436 256.962 270.723C256.539 271.01 256.021 271.154 255.405 271.154C254.478 271.154 253.77 270.846 253.282 270.231C252.798 269.615 252.556 268.793 252.556 267.763C252.556 267.09 252.665 266.499 252.882 265.991C253.104 265.478 253.426 265.078 253.848 264.791C254.275 264.504 254.798 264.36 255.417 264.36ZM255.417 265.302C254.884 265.302 254.482 265.503 254.211 265.905C253.941 266.303 253.805 266.922 253.805 267.763C253.805 268.596 253.938 269.213 254.205 269.615C254.472 270.013 254.872 270.212 255.405 270.212C255.938 270.212 256.338 270.013 256.605 269.615C256.872 269.213 257.005 268.592 257.005 267.751C257.005 266.914 256.872 266.296 256.605 265.898C256.338 265.501 255.943 265.302 255.417 265.302ZM261.416 270.015C261.416 269.704 261.522 269.439 261.736 269.222C261.953 269.004 262.22 268.895 262.536 268.895C262.86 268.895 263.13 269.004 263.348 269.222C263.565 269.439 263.674 269.704 263.674 270.015C263.674 270.331 263.565 270.6 263.348 270.822C263.13 271.043 262.86 271.154 262.536 271.154C262.22 271.154 261.953 271.043 261.736 270.822C261.522 270.6 261.416 270.331 261.416 270.015ZM279.695 262.52L280.175 271H279.03L278.79 266.698C278.77 266.296 278.756 265.896 278.747 265.498C278.739 265.101 278.735 264.737 278.735 264.409C278.739 264.077 278.745 263.812 278.754 263.615L277.4 269.492H276.255L274.803 263.615C274.815 263.804 274.823 264.071 274.827 264.415C274.836 264.76 274.838 265.135 274.834 265.542C274.834 265.944 274.827 266.329 274.815 266.698L274.612 271H273.492L273.972 262.52H275.554L276.858 268.274L278.101 262.52H279.695ZM283.989 264.36C284.916 264.36 285.619 264.668 286.099 265.283C286.584 265.898 286.826 266.721 286.826 267.751C286.826 268.419 286.715 269.01 286.493 269.523C286.276 270.036 285.956 270.436 285.533 270.723C285.111 271.01 284.592 271.154 283.976 271.154C283.049 271.154 282.341 270.846 281.853 270.231C281.369 269.615 281.127 268.793 281.127 267.763C281.127 267.09 281.236 266.499 281.453 265.991C281.675 265.478 281.997 265.078 282.419 264.791C282.846 264.504 283.369 264.36 283.989 264.36ZM283.989 265.302C283.455 265.302 283.053 265.503 282.783 265.905C282.512 266.303 282.376 266.922 282.376 267.763C282.376 268.596 282.51 269.213 282.776 269.615C283.043 270.013 283.443 270.212 283.976 270.212C284.51 270.212 284.91 270.013 285.176 269.615C285.443 269.213 285.576 268.592 285.576 267.751C285.576 266.914 285.443 266.296 285.176 265.898C284.91 265.501 284.514 265.302 283.989 265.302ZM288.664 271V270.126H289.648V265.388H288.664V264.514H290.553L290.768 266.034C291.015 265.496 291.316 265.084 291.673 264.797C292.034 264.506 292.502 264.36 293.076 264.36C293.265 264.36 293.431 264.374 293.575 264.403C293.722 264.432 293.872 264.469 294.024 264.514L293.839 266.791H292.928V265.437H292.922C291.95 265.437 291.253 266.132 290.83 267.523V270.126H292.147V271H288.664ZM296.699 268.157C296.732 268.871 296.925 269.39 297.277 269.714C297.634 270.038 298.057 270.2 298.545 270.2C298.869 270.2 299.167 270.151 299.437 270.052C299.708 269.954 299.983 269.81 300.262 269.622L300.797 270.366C300.494 270.608 300.143 270.801 299.745 270.945C299.347 271.084 298.935 271.154 298.508 271.154C297.86 271.154 297.308 271.012 296.853 270.729C296.401 270.442 296.057 270.044 295.819 269.535C295.585 269.027 295.468 268.436 295.468 267.763C295.468 267.111 295.585 266.528 295.819 266.015C296.057 265.503 296.391 265.098 296.822 264.803C297.253 264.508 297.766 264.36 298.36 264.36C299.197 264.36 299.856 264.647 300.336 265.222C300.82 265.792 301.062 266.573 301.062 267.566C301.062 267.677 301.06 267.784 301.056 267.886C301.052 267.989 301.046 268.079 301.037 268.157H296.699ZM298.373 265.283C297.909 265.283 297.526 265.447 297.222 265.775C296.918 266.104 296.744 266.61 296.699 267.295H299.924C299.911 266.639 299.768 266.141 299.493 265.8C299.222 265.455 298.849 265.283 298.373 265.283ZM312.548 261.412C312.794 261.412 312.991 261.488 313.138 261.64C313.29 261.792 313.366 261.976 313.366 262.194C313.366 262.419 313.29 262.61 313.138 262.766C312.991 262.918 312.794 262.994 312.548 262.994C312.306 262.994 312.109 262.918 311.957 262.766C311.809 262.61 311.735 262.419 311.735 262.194C311.735 261.976 311.809 261.792 311.957 261.64C312.109 261.488 312.306 261.412 312.548 261.412ZM313.428 264.514V270.102H315.231V271H310.271V270.102H312.246V265.412H310.332V264.514H313.428ZM317.174 271V264.514H318.189L318.275 265.388C318.542 265.055 318.866 264.801 319.247 264.625C319.633 264.448 320.017 264.36 320.398 264.36C321.022 264.36 321.481 264.53 321.777 264.871C322.072 265.207 322.22 265.677 322.22 266.28V271H321.038V267.006C321.038 266.596 321.014 266.264 320.964 266.009C320.919 265.755 320.823 265.57 320.675 265.455C320.527 265.336 320.304 265.277 320.004 265.277C319.651 265.277 319.331 265.386 319.044 265.603C318.757 265.821 318.527 266.054 318.355 266.305V271H317.174ZM328.199 261.763C328.569 261.763 328.901 261.796 329.196 261.862C329.492 261.923 329.771 262.011 330.033 262.126L329.664 262.975C329.455 262.881 329.231 262.813 328.993 262.772C328.759 262.727 328.519 262.705 328.273 262.705C327.395 262.705 326.956 263.055 326.956 263.757V265H329.147L329.018 265.898H326.956V271H325.781V265.898H324.261V265H325.781V263.763C325.781 263.361 325.883 263.01 326.089 262.711C326.298 262.411 326.583 262.179 326.944 262.015C327.309 261.847 327.728 261.763 328.199 261.763ZM333.988 264.36C334.916 264.36 335.619 264.668 336.099 265.283C336.583 265.898 336.825 266.721 336.825 267.751C336.825 268.419 336.715 269.01 336.493 269.523C336.276 270.036 335.956 270.436 335.533 270.723C335.11 271.01 334.591 271.154 333.976 271.154C333.049 271.154 332.341 270.846 331.853 270.231C331.369 269.615 331.127 268.793 331.127 267.763C331.127 267.09 331.236 266.499 331.453 265.991C331.675 265.478 331.997 265.078 332.419 264.791C332.846 264.504 333.369 264.36 333.988 264.36ZM333.988 265.302C333.455 265.302 333.053 265.503 332.782 265.905C332.511 266.303 332.376 266.922 332.376 267.763C332.376 268.596 332.509 269.213 332.776 269.615C333.043 270.013 333.443 270.212 333.976 270.212C334.509 270.212 334.909 270.013 335.176 269.615C335.443 269.213 335.576 268.592 335.576 267.751C335.576 266.914 335.443 266.296 335.176 265.898C334.909 265.501 334.513 265.302 333.988 265.302ZM338.663 271V270.126H339.648V265.388H338.663V264.514H340.553L340.768 266.034C341.014 265.496 341.316 265.084 341.673 264.797C342.034 264.506 342.501 264.36 343.076 264.36C343.265 264.36 343.431 264.374 343.574 264.403C343.722 264.432 343.872 264.469 344.023 264.514L343.839 266.791H342.928V265.437H342.922C341.95 265.437 341.252 266.132 340.83 267.523V270.126H342.147V271H338.663ZM350.108 264.36C350.329 264.36 350.537 264.409 350.729 264.508C350.926 264.606 351.084 264.787 351.203 265.049C351.322 265.308 351.382 265.683 351.382 266.175V271H350.305V266.348C350.305 265.97 350.28 265.699 350.231 265.535C350.186 265.367 350.054 265.283 349.837 265.283C349.657 265.283 349.476 265.338 349.296 265.449C349.119 265.56 348.947 265.745 348.779 266.003V271H347.745V266.348C347.745 265.97 347.72 265.699 347.671 265.535C347.626 265.367 347.494 265.283 347.277 265.283C347.092 265.283 346.912 265.338 346.736 265.449C346.559 265.56 346.387 265.745 346.219 266.003V271H345.142V264.514H346.052L346.126 265.24C346.307 264.99 346.506 264.781 346.723 264.612C346.945 264.444 347.213 264.36 347.529 264.36C347.776 264.36 348.003 264.419 348.212 264.538C348.426 264.657 348.582 264.879 348.68 265.203C348.857 264.953 349.058 264.75 349.283 264.594C349.509 264.438 349.784 264.36 350.108 264.36ZM357.669 269.511C357.669 269.769 357.71 269.958 357.792 270.077C357.874 270.192 358.003 270.278 358.18 270.335L357.903 271.148C357.608 271.111 357.349 271.023 357.128 270.883C356.91 270.744 356.75 270.53 356.648 270.243C356.414 270.547 356.118 270.774 355.761 270.926C355.404 271.078 355.017 271.154 354.598 271.154C353.946 271.154 353.431 270.969 353.054 270.6C352.676 270.231 352.488 269.745 352.488 269.142C352.488 268.469 352.75 267.952 353.275 267.591C353.804 267.226 354.563 267.043 355.552 267.043H356.494V266.551C356.494 266.104 356.36 265.786 356.094 265.597C355.831 265.408 355.464 265.314 354.992 265.314C354.775 265.314 354.518 265.341 354.223 265.394C353.932 265.447 353.62 265.531 353.288 265.646L352.986 264.785C353.384 264.633 353.768 264.524 354.137 264.458C354.506 264.393 354.851 264.36 355.171 264.36C356.003 264.36 356.627 264.551 357.041 264.932C357.46 265.314 357.669 265.833 357.669 266.489V269.511ZM354.931 270.268C355.23 270.268 355.519 270.19 355.798 270.034C356.081 269.878 356.313 269.661 356.494 269.382V267.812H355.632C354.947 267.812 354.461 267.929 354.174 268.163C353.887 268.393 353.743 268.709 353.743 269.111C353.743 269.882 354.139 270.268 354.931 270.268ZM365.298 270.668C365.068 270.815 364.791 270.932 364.467 271.018C364.147 271.109 363.823 271.154 363.495 271.154C362.773 271.154 362.219 270.965 361.833 270.588C361.452 270.21 361.261 269.72 361.261 269.117V265.4H359.79V264.514H361.261V263.049L362.443 262.908V264.514H364.658L364.523 265.4H362.443V269.105C362.443 269.462 362.533 269.73 362.713 269.911C362.898 270.091 363.204 270.182 363.63 270.182C363.868 270.182 364.088 270.155 364.289 270.102C364.494 270.044 364.683 269.968 364.855 269.874L365.298 270.668ZM369.69 261.412C369.936 261.412 370.133 261.488 370.281 261.64C370.433 261.792 370.509 261.976 370.509 262.194C370.509 262.419 370.433 262.61 370.281 262.766C370.133 262.918 369.936 262.994 369.69 262.994C369.448 262.994 369.251 262.918 369.099 262.766C368.952 262.61 368.878 262.419 368.878 262.194C368.878 261.976 368.952 261.792 369.099 261.64C369.251 261.488 369.448 261.412 369.69 261.412ZM370.57 264.514V270.102H372.373V271H367.413V270.102H369.389V265.412H367.475V264.514H370.57ZM376.845 264.36C377.772 264.36 378.476 264.668 378.956 265.283C379.44 265.898 379.682 266.721 379.682 267.751C379.682 268.419 379.571 269.01 379.35 269.523C379.132 270.036 378.812 270.436 378.39 270.723C377.967 271.01 377.448 271.154 376.833 271.154C375.906 271.154 375.198 270.846 374.71 270.231C374.226 269.615 373.984 268.793 373.984 267.763C373.984 267.09 374.092 266.499 374.31 265.991C374.531 265.478 374.853 265.078 375.276 264.791C375.703 264.504 376.226 264.36 376.845 264.36ZM376.845 265.302C376.312 265.302 375.91 265.503 375.639 265.905C375.368 266.303 375.233 266.922 375.233 267.763C375.233 268.596 375.366 269.213 375.633 269.615C375.9 270.013 376.3 270.212 376.833 270.212C377.366 270.212 377.766 270.013 378.033 269.615C378.3 269.213 378.433 268.592 378.433 267.751C378.433 266.914 378.3 266.296 378.033 265.898C377.766 265.501 377.37 265.302 376.845 265.302ZM381.459 271V264.514H382.474L382.56 265.388C382.827 265.055 383.151 264.801 383.533 264.625C383.918 264.448 384.302 264.36 384.683 264.36C385.307 264.36 385.767 264.53 386.062 264.871C386.357 265.207 386.505 265.677 386.505 266.28V271H385.323V267.006C385.323 266.596 385.299 266.264 385.25 266.009C385.204 265.755 385.108 265.57 384.96 265.455C384.813 265.336 384.589 265.277 384.29 265.277C383.937 265.277 383.617 265.386 383.33 265.603C383.042 265.821 382.813 266.054 382.64 266.305V271H381.459ZM21.9569 287.511C21.9569 287.769 21.9979 287.958 22.08 288.077C22.1621 288.192 22.2913 288.278 22.4677 288.335L22.1908 289.148C21.8954 289.111 21.6369 289.023 21.4154 288.883C21.1979 288.744 21.0379 288.53 20.9354 288.243C20.7015 288.547 20.4062 288.774 20.0492 288.926C19.6923 289.078 19.3046 289.154 18.8862 289.154C18.2338 289.154 17.719 288.969 17.3415 288.6C16.9641 288.231 16.7754 287.745 16.7754 287.142C16.7754 286.469 17.0379 285.952 17.5631 285.591C18.0923 285.226 18.8513 285.043 19.84 285.043H20.7815V284.551C20.7815 284.104 20.6482 283.786 20.3815 283.597C20.119 283.408 19.7518 283.314 19.28 283.314C19.0626 283.314 18.8062 283.341 18.5108 283.394C18.2195 283.447 17.9077 283.531 17.5754 283.646L17.2738 282.785C17.6718 282.633 18.0554 282.524 18.4246 282.458C18.7938 282.393 19.1385 282.36 19.4585 282.36C20.2913 282.36 20.9149 282.551 21.3292 282.932C21.7477 283.314 21.9569 283.833 21.9569 284.489V287.511ZM19.2185 288.268C19.5179 288.268 19.8072 288.19 20.0862 288.034C20.3692 287.878 20.601 287.661 20.7815 287.382V285.812H19.92C19.2349 285.812 18.7487 285.929 18.4615 286.163C18.1744 286.393 18.0308 286.709 18.0308 287.111C18.0308 287.882 18.4267 288.268 19.2185 288.268ZM29.8444 282.514L27.5182 289H26.1397L23.8259 282.514H25.0813L26.8597 287.972L28.632 282.514H29.8444ZM36.2425 287.511C36.2425 287.769 36.2836 287.958 36.3656 288.077C36.4477 288.192 36.5769 288.278 36.7533 288.335L36.4764 289.148C36.181 289.111 35.9225 289.023 35.701 288.883C35.4836 288.744 35.3236 288.53 35.221 288.243C34.9872 288.547 34.6918 288.774 34.3349 288.926C33.9779 289.078 33.5902 289.154 33.1718 289.154C32.5195 289.154 32.0046 288.969 31.6272 288.6C31.2497 288.231 31.061 287.745 31.061 287.142C31.061 286.469 31.3236 285.952 31.8487 285.591C32.3779 285.226 33.1369 285.043 34.1256 285.043H35.0672V284.551C35.0672 284.104 34.9338 283.786 34.6672 283.597C34.4046 283.408 34.0374 283.314 33.5656 283.314C33.3482 283.314 33.0918 283.341 32.7964 283.394C32.5051 283.447 32.1933 283.531 31.861 283.646L31.5595 282.785C31.9574 282.633 32.341 282.524 32.7102 282.458C33.0795 282.393 33.4241 282.36 33.7441 282.36C34.5769 282.36 35.2005 282.551 35.6149 282.932C36.0333 283.314 36.2425 283.833 36.2425 284.489V287.511ZM33.5041 288.268C33.8036 288.268 34.0928 288.19 34.3718 288.034C34.6549 287.878 34.8867 287.661 35.0672 287.382V285.812H34.2056C33.5205 285.812 33.0343 285.929 32.7472 286.163C32.46 286.393 32.3164 286.709 32.3164 287.111C32.3164 287.882 32.7123 288.268 33.5041 288.268ZM41.1207 279.412C41.3669 279.412 41.5638 279.488 41.7115 279.64C41.8633 279.792 41.9392 279.976 41.9392 280.194C41.9392 280.419 41.8633 280.61 41.7115 280.766C41.5638 280.918 41.3669 280.994 41.1207 280.994C40.8787 280.994 40.6818 280.918 40.53 280.766C40.3823 280.61 40.3084 280.419 40.3084 280.194C40.3084 279.976 40.3823 279.792 40.53 279.64C40.6818 279.488 40.8787 279.412 41.1207 279.412ZM42.0007 282.514V288.102H43.8038V289H38.8438V288.102H40.8192V283.412H38.9054V282.514H42.0007ZM48.4113 279.905V287.326C48.4113 287.638 48.5077 287.859 48.7005 287.991C48.8933 288.118 49.1415 288.182 49.4451 288.182C49.6379 288.182 49.8205 288.163 49.9928 288.126C50.1692 288.085 50.3415 288.03 50.5097 287.96L50.8174 288.803C50.6369 288.897 50.4113 288.979 50.1405 289.049C49.8697 289.119 49.5641 289.154 49.2236 289.154C48.6123 289.154 48.1261 288.984 47.7651 288.643C47.4082 288.303 47.2297 287.835 47.2297 287.24V280.803H45.2543V279.905H48.4113ZM57.671 287.511C57.671 287.769 57.712 287.958 57.7941 288.077C57.8761 288.192 58.0053 288.278 58.1818 288.335L57.9048 289.148C57.6094 289.111 57.351 289.023 57.1294 288.883C56.912 288.744 56.752 288.53 56.6494 288.243C56.4156 288.547 56.1202 288.774 55.7633 288.926C55.4064 289.078 55.0187 289.154 54.6002 289.154C53.9479 289.154 53.433 288.969 53.0556 288.6C52.6782 288.231 52.4894 287.745 52.4894 287.142C52.4894 286.469 52.752 285.952 53.2771 285.591C53.8064 285.226 54.5653 285.043 55.5541 285.043H56.4956V284.551C56.4956 284.104 56.3623 283.786 56.0956 283.597C55.833 283.408 55.4659 283.314 54.9941 283.314C54.7766 283.314 54.5202 283.341 54.2248 283.394C53.9335 283.447 53.6218 283.531 53.2894 283.646L52.9879 282.785C53.3859 282.633 53.7694 282.524 54.1387 282.458C54.5079 282.393 54.8525 282.36 55.1725 282.36C56.0053 282.36 56.6289 282.551 57.0433 282.932C57.4618 283.314 57.671 283.833 57.671 284.489V287.511ZM54.9325 288.268C55.232 288.268 55.5212 288.19 55.8002 288.034C56.0833 287.878 56.3151 287.661 56.4956 287.382V285.812H55.6341C54.9489 285.812 54.4628 285.929 54.1756 286.163C53.8884 286.393 53.7448 286.709 53.7448 287.111C53.7448 287.882 54.1407 288.268 54.9325 288.268ZM61.2138 283.326C61.4435 283.023 61.7123 282.787 62.02 282.618C62.3317 282.446 62.6702 282.36 63.0353 282.36C63.6097 282.36 64.0753 282.502 64.4323 282.785C64.7892 283.064 65.0497 283.457 65.2138 283.966C65.3779 284.471 65.46 285.066 65.46 285.751C65.46 286.407 65.3615 286.992 65.1646 287.505C64.9676 288.017 64.6784 288.422 64.2969 288.717C63.9153 289.008 63.4456 289.154 62.8876 289.154C62.1451 289.154 61.5646 288.883 61.1461 288.342L61.0723 289H60.0323V279.905L61.2138 279.763V283.326ZM62.5984 288.225C63.1071 288.225 63.4989 288.024 63.7738 287.622C64.0528 287.215 64.1923 286.592 64.1923 285.751C64.1923 284.91 64.0671 284.29 63.8169 283.892C63.5707 283.49 63.2138 283.289 62.7461 283.289C62.4097 283.289 62.1123 283.392 61.8538 283.597C61.5953 283.798 61.382 284.028 61.2138 284.286V287.425C61.3779 287.671 61.5789 287.866 61.8169 288.009C62.0548 288.153 62.3153 288.225 62.5984 288.225ZM69.8397 279.905V287.326C69.8397 287.638 69.9361 287.859 70.1289 287.991C70.3217 288.118 70.5699 288.182 70.8735 288.182C71.0664 288.182 71.2489 288.163 71.4212 288.126C71.5976 288.085 71.7699 288.03 71.9381 287.96L72.2458 288.803C72.0653 288.897 71.8397 288.979 71.5689 289.049C71.2981 289.119 70.9925 289.154 70.652 289.154C70.0407 289.154 69.5546 288.984 69.1935 288.643C68.8366 288.303 68.6581 287.835 68.6581 287.24V280.803H66.6828V279.905H69.8397ZM75.2717 286.157C75.3046 286.871 75.4974 287.39 75.8502 287.714C76.2071 288.038 76.6297 288.2 77.1179 288.2C77.442 288.2 77.7394 288.151 78.0102 288.052C78.281 287.954 78.5558 287.81 78.8348 287.622L79.3702 288.366C79.0666 288.608 78.7158 288.801 78.3179 288.945C77.9199 289.084 77.5076 289.154 77.081 289.154C76.4328 289.154 75.881 289.012 75.4256 288.729C74.9743 288.442 74.6297 288.044 74.3917 287.535C74.1579 287.027 74.041 286.436 74.041 285.763C74.041 285.111 74.1579 284.528 74.3917 284.015C74.6297 283.503 74.964 283.098 75.3948 282.803C75.8256 282.508 76.3384 282.36 76.9333 282.36C77.7702 282.36 78.4287 282.647 78.9087 283.222C79.3928 283.792 79.6348 284.573 79.6348 285.566C79.6348 285.677 79.6328 285.784 79.6287 285.886C79.6246 285.989 79.6184 286.079 79.6102 286.157H75.2717ZM76.9456 283.283C76.482 283.283 76.0984 283.447 75.7948 283.775C75.4912 284.104 75.3169 284.61 75.2717 285.295H78.4963C78.484 284.639 78.3405 284.141 78.0656 283.8C77.7948 283.455 77.4215 283.283 76.9456 283.283ZM89.785 283.326C90.0148 283.023 90.2835 282.787 90.5912 282.618C90.903 282.446 91.2415 282.36 91.6066 282.36C92.1809 282.36 92.6466 282.502 93.0035 282.785C93.3604 283.064 93.6209 283.457 93.785 283.966C93.9491 284.471 94.0312 285.066 94.0312 285.751C94.0312 286.407 93.9327 286.992 93.7358 287.505C93.5389 288.017 93.2497 288.422 92.8681 288.717C92.4866 289.008 92.0168 289.154 91.4589 289.154C90.7163 289.154 90.1358 288.883 89.7174 288.342L89.6435 289H88.6035V279.905L89.785 279.763V283.326ZM91.1697 288.225C91.6784 288.225 92.0702 288.024 92.345 287.622C92.624 287.215 92.7635 286.592 92.7635 285.751C92.7635 284.91 92.6384 284.29 92.3881 283.892C92.142 283.49 91.785 283.289 91.3174 283.289C90.9809 283.289 90.6835 283.392 90.425 283.597C90.1666 283.798 89.9533 284.028 89.785 284.286V287.425C89.9491 287.671 90.1502 287.866 90.3881 288.009C90.6261 288.153 90.8866 288.225 91.1697 288.225ZM96.7002 286.157C96.733 286.871 96.9258 287.39 97.2786 287.714C97.6356 288.038 98.0581 288.2 98.5463 288.2C98.8704 288.2 99.1679 288.151 99.4386 288.052C99.7094 287.954 99.9843 287.81 100.263 287.622L100.799 288.366C100.495 288.608 100.144 288.801 99.7463 288.945C99.3484 289.084 98.9361 289.154 98.5094 289.154C97.8612 289.154 97.3094 289.012 96.854 288.729C96.4027 288.442 96.0581 288.044 95.8202 287.535C95.5863 287.027 95.4694 286.436 95.4694 285.763C95.4694 285.111 95.5863 284.528 95.8202 284.015C96.0581 283.503 96.3925 283.098 96.8232 282.803C97.254 282.508 97.7668 282.36 98.3617 282.36C99.1986 282.36 99.8571 282.647 100.337 283.222C100.821 283.792 101.063 284.573 101.063 285.566C101.063 285.677 101.061 285.784 101.057 285.886C101.053 285.989 101.047 286.079 101.039 286.157H96.7002ZM98.374 283.283C97.9104 283.283 97.5268 283.447 97.2232 283.775C96.9197 284.104 96.7453 284.61 96.7002 285.295H99.9248C99.9125 284.639 99.7689 284.141 99.494 283.8C99.2232 283.455 98.8499 283.283 98.374 283.283ZM105.554 279.905V287.326C105.554 287.638 105.65 287.859 105.843 287.991C106.036 288.118 106.284 288.182 106.588 288.182C106.78 288.182 106.963 288.163 107.135 288.126C107.312 288.085 107.484 288.03 107.652 287.96L107.96 288.803C107.779 288.897 107.554 288.979 107.283 289.049C107.012 289.119 106.707 289.154 106.366 289.154C105.755 289.154 105.269 288.984 104.908 288.643C104.551 288.303 104.372 287.835 104.372 287.24V280.803H102.397V279.905H105.554ZM112.561 282.36C113.488 282.36 114.192 282.668 114.672 283.283C115.156 283.898 115.398 284.721 115.398 285.751C115.398 286.419 115.287 287.01 115.066 287.523C114.848 288.036 114.528 288.436 114.106 288.723C113.683 289.01 113.164 289.154 112.549 289.154C111.622 289.154 110.914 288.846 110.426 288.231C109.942 287.615 109.7 286.793 109.7 285.763C109.7 285.09 109.808 284.499 110.026 283.991C110.247 283.478 110.569 283.078 110.992 282.791C111.419 282.504 111.942 282.36 112.561 282.36ZM112.561 283.302C112.028 283.302 111.626 283.503 111.355 283.905C111.084 284.303 110.949 284.922 110.949 285.763C110.949 286.596 111.082 287.213 111.349 287.615C111.616 288.013 112.016 288.212 112.549 288.212C113.082 288.212 113.482 288.013 113.749 287.615C114.016 287.213 114.149 286.592 114.149 285.751C114.149 284.914 114.016 284.296 113.749 283.898C113.482 283.501 113.086 283.302 112.561 283.302ZM122.098 289H120.522L119.729 284.305L118.873 289H117.335L116.184 282.514H117.359L118.122 288.268L119.101 283.338H120.393L121.31 288.268L122.073 282.514H123.199L122.098 289ZM125.702 288.015C125.702 287.704 125.809 287.439 126.022 287.222C126.24 287.004 126.506 286.895 126.822 286.895C127.146 286.895 127.417 287.004 127.634 287.222C127.852 287.439 127.961 287.704 127.961 288.015C127.961 288.331 127.852 288.6 127.634 288.822C127.417 289.043 127.146 289.154 126.822 289.154C126.506 289.154 126.24 289.043 126.022 288.822C125.809 288.6 125.702 288.331 125.702 288.015Z" fill="#F8F8F2"/>
<rect x="1.5" y="37.5" width="447" height="161" rx="5.5" fill="#F3F3F3" fill-opacity="0.25" stroke="#F3F3F3" stroke-width="3"/>
<rect x="77.5" y="52.5" width="293" height="37" rx="5.5" fill="#83C0F3" stroke="#83C0F3"/>
<rect x="77.5" y="130.5" width="124" height="15" rx="5.5" fill="#83C0F3" stroke="#83C0F3"/>
<rect x="210" y="130" width="70" height="16" rx="6" fill="#CCCCCC"/>
<circle cx="38.5" cy="83.5" r="22.5" fill="#83C0F3"/>
<path d="M210.469 3.27273V12H209.148V4.59375H209.097L207.009 5.95739V4.69602L209.186 3.27273H210.469ZM212.943 12.081C212.71 12.081 212.509 11.9986 212.342 11.8338C212.174 11.6662 212.09 11.4645 212.09 11.2287C212.09 10.9957 212.174 10.7969 212.342 10.6321C212.509 10.4645 212.71 10.3807 212.943 10.3807C213.175 10.3807 213.376 10.4645 213.543 10.6321C213.711 10.7969 213.795 10.9957 213.795 11.2287C213.795 11.3849 213.755 11.5284 213.675 11.6591C213.599 11.7869 213.496 11.8892 213.369 11.9659C213.241 12.0426 213.099 12.081 212.943 12.081ZM217.728 4.40625V3.27273H224.483V4.40625H221.76V12H220.447V4.40625H217.728ZM225.633 12V5.45455H226.907V12H225.633ZM226.276 4.4446C226.055 4.4446 225.865 4.37074 225.705 4.22301C225.549 4.07244 225.471 3.89347 225.471 3.68608C225.471 3.47585 225.549 3.29687 225.705 3.14915C225.865 2.99858 226.055 2.9233 226.276 2.9233C226.498 2.9233 226.687 2.99858 226.843 3.14915C227.002 3.29687 227.082 3.47585 227.082 3.68608C227.082 3.89347 227.002 4.07244 226.843 4.22301C226.687 4.37074 226.498 4.4446 226.276 4.4446ZM231.437 5.45455V6.47727H227.861V5.45455H231.437ZM228.82 3.88636H230.094V10.0781C230.094 10.3253 230.131 10.5114 230.205 10.6364C230.279 10.7585 230.374 10.8423 230.491 10.8878C230.61 10.9304 230.739 10.9517 230.878 10.9517C230.981 10.9517 231.07 10.9446 231.147 10.9304C231.224 10.9162 231.283 10.9048 231.326 10.8963L231.556 11.9489C231.482 11.9773 231.377 12.0057 231.241 12.0341C231.104 12.0653 230.934 12.0824 230.729 12.0852C230.394 12.0909 230.082 12.0312 229.792 11.9062C229.502 11.7812 229.268 11.5881 229.089 11.3267C228.91 11.0653 228.82 10.7372 228.82 10.3423V3.88636ZM234.021 3.27273V12H232.747V3.27273H234.021ZM238.316 12.1321C237.671 12.1321 237.116 11.9943 236.65 11.7188C236.187 11.4403 235.829 11.0497 235.576 10.5469C235.326 10.0412 235.201 9.44886 235.201 8.76989C235.201 8.09943 235.326 7.50852 235.576 6.99716C235.829 6.4858 236.181 6.08665 236.633 5.79972C237.087 5.51278 237.619 5.36932 238.227 5.36932C238.596 5.36932 238.954 5.4304 239.3 5.55256C239.647 5.67472 239.958 5.86648 240.234 6.12784C240.509 6.3892 240.727 6.72869 240.886 7.14631C241.045 7.56108 241.124 8.06534 241.124 8.65909V9.1108H235.921V8.15625H239.876C239.876 7.82102 239.808 7.52415 239.671 7.26562C239.535 7.00426 239.343 6.7983 239.096 6.64773C238.852 6.49716 238.565 6.42188 238.235 6.42188C237.877 6.42188 237.565 6.50994 237.298 6.68608C237.033 6.85937 236.829 7.08665 236.684 7.3679C236.542 7.64631 236.471 7.94886 236.471 8.27557V9.02131C236.471 9.45881 236.548 9.83097 236.701 10.1378C236.857 10.4446 237.075 10.679 237.353 10.8409C237.631 11 237.957 11.0795 238.329 11.0795C238.57 11.0795 238.791 11.0455 238.989 10.9773C239.188 10.9062 239.36 10.8011 239.505 10.6619C239.65 10.5227 239.761 10.3509 239.837 10.1463L241.043 10.3636C240.947 10.7187 240.773 11.0298 240.523 11.2969C240.276 11.5611 239.965 11.767 239.59 11.9148C239.218 12.0597 238.793 12.1321 238.316 12.1321Z" fill="#5E5E5E"/>
<path d="M14.8757 12V11.0455L17.8288 7.9858C18.1441 7.65341 18.4041 7.36222 18.6086 7.11222C18.816 6.85937 18.9708 6.61932 19.0731 6.39205C19.1754 6.16477 19.2265 5.9233 19.2265 5.66761C19.2265 5.37784 19.1583 5.12784 19.022 4.91761C18.8856 4.70455 18.6995 4.54119 18.4637 4.42756C18.2279 4.31108 17.9623 4.25284 17.6669 4.25284C17.3544 4.25284 17.0816 4.31676 16.8487 4.4446C16.6157 4.57244 16.4367 4.75284 16.3117 4.9858C16.1867 5.21875 16.1242 5.49148 16.1242 5.80398H14.8671C14.8671 5.27273 14.9893 4.80824 15.2336 4.41051C15.4779 4.01278 15.8132 3.70455 16.2393 3.4858C16.6654 3.2642 17.1498 3.15341 17.6924 3.15341C18.2407 3.15341 18.7237 3.26278 19.1413 3.48153C19.5617 3.69744 19.8899 3.9929 20.1257 4.3679C20.3615 4.74006 20.4794 5.16051 20.4794 5.62926C20.4794 5.95312 20.4183 6.26989 20.2961 6.57955C20.1768 6.8892 19.968 7.23437 19.6697 7.61506C19.3714 7.9929 18.9566 8.4517 18.4254 8.99148L16.691 10.8068V10.8707H20.62V12H14.8757ZM22.8516 12.081C22.6186 12.081 22.4183 11.9986 22.2507 11.8338C22.0831 11.6662 21.9993 11.4645 21.9993 11.2287C21.9993 10.9957 22.0831 10.7969 22.2507 10.6321C22.4183 10.4645 22.6186 10.3807 22.8516 10.3807C23.0845 10.3807 23.2848 10.4645 23.4524 10.6321C23.62 10.7969 23.7038 10.9957 23.7038 11.2287C23.7038 11.3849 23.6641 11.5284 23.5845 11.6591C23.5078 11.7869 23.4055 11.8892 23.2777 11.9659C23.1499 12.0426 23.0078 12.081 22.8516 12.081ZM32.8279 5.56534C32.7824 5.16193 32.5949 4.84943 32.2654 4.62784C31.9358 4.40341 31.5211 4.29119 31.0211 4.29119C30.6631 4.29119 30.3535 4.34801 30.0921 4.46165C29.8307 4.57244 29.6276 4.72585 29.4827 4.92188C29.3407 5.11506 29.2697 5.33523 29.2697 5.58239C29.2697 5.78977 29.3179 5.96875 29.4145 6.11932C29.514 6.26989 29.6432 6.39631 29.8023 6.49858C29.9643 6.59801 30.1375 6.68182 30.3222 6.75C30.5069 6.81534 30.6844 6.86932 30.8549 6.91193L31.7072 7.13352C31.9856 7.2017 32.2711 7.29403 32.5637 7.41051C32.8563 7.52699 33.1276 7.6804 33.3776 7.87074C33.6276 8.06108 33.8293 8.29688 33.9827 8.57812C34.139 8.85938 34.2171 9.19602 34.2171 9.58807C34.2171 10.0824 34.0893 10.5213 33.8336 10.9048C33.5807 11.2884 33.2128 11.5909 32.7299 11.8125C32.2498 12.0341 31.6688 12.1449 30.987 12.1449C30.3336 12.1449 29.7682 12.0412 29.291 11.8338C28.8137 11.6264 28.4401 11.3324 28.1702 10.9517C27.9003 10.5682 27.7512 10.1136 27.7228 9.58807H29.0438C29.0694 9.90341 29.1716 10.1662 29.3506 10.3764C29.5324 10.5838 29.764 10.7386 30.0452 10.8409C30.3293 10.9403 30.6404 10.9901 30.9785 10.9901C31.3506 10.9901 31.6816 10.9318 31.9714 10.8153C32.264 10.696 32.4941 10.5312 32.6617 10.321C32.8293 10.108 32.9131 9.85937 32.9131 9.57528C32.9131 9.31676 32.8393 9.10511 32.6915 8.94034C32.5466 8.77557 32.3492 8.6392 32.0992 8.53125C31.852 8.4233 31.5722 8.32812 31.2597 8.24574L30.2285 7.96449C29.5296 7.77415 28.9756 7.49432 28.5665 7.125C28.1603 6.75568 27.9572 6.26705 27.9572 5.65909C27.9572 5.15625 28.0935 4.71733 28.3662 4.34233C28.639 3.96733 29.0083 3.67614 29.4742 3.46875C29.9401 3.25852 30.4657 3.15341 31.0509 3.15341C31.6418 3.15341 32.1631 3.2571 32.6148 3.46449C33.0694 3.67188 33.4273 3.95739 33.6887 4.32102C33.95 4.68182 34.0864 5.09659 34.0978 5.56534H32.8279ZM38.5037 5.45455V6.47727H34.9284V5.45455H38.5037ZM35.8873 3.88636H37.1614V10.0781C37.1614 10.3253 37.1983 10.5114 37.2722 10.6364C37.3461 10.7585 37.4412 10.8423 37.5577 10.8878C37.677 10.9304 37.8063 10.9517 37.9455 10.9517C38.0478 10.9517 38.1373 10.9446 38.214 10.9304C38.2907 10.9162 38.3503 10.9048 38.3929 10.8963L38.623 11.9489C38.5492 11.9773 38.4441 12.0057 38.3077 12.0341C38.1713 12.0653 38.0009 12.0824 37.7963 12.0852C37.4611 12.0909 37.1486 12.0312 36.8588 11.9062C36.5691 11.7812 36.3347 11.5881 36.1557 11.3267C35.9767 11.0653 35.8873 10.7372 35.8873 10.3423V3.88636ZM41.578 12.1449C41.1632 12.1449 40.7882 12.0682 40.453 11.9148C40.1178 11.7585 39.8522 11.5327 39.6561 11.2372C39.4629 10.9418 39.3664 10.5795 39.3664 10.1506C39.3664 9.78125 39.4374 9.47727 39.5794 9.23864C39.7215 9 39.9132 8.81108 40.1547 8.67188C40.3962 8.53267 40.6661 8.42756 40.9644 8.35653C41.2627 8.28551 41.5666 8.23153 41.8763 8.1946C42.2683 8.14915 42.5865 8.11222 42.8308 8.08381C43.0752 8.05256 43.2527 8.00284 43.3635 7.93466C43.4743 7.86648 43.5297 7.75568 43.5297 7.60227V7.57244C43.5297 7.20028 43.4246 6.91193 43.2144 6.70739C43.007 6.50284 42.6973 6.40057 42.2854 6.40057C41.8564 6.40057 41.5183 6.49574 41.2712 6.68608C41.0269 6.87358 40.8578 7.08239 40.7641 7.3125L39.5666 7.03977C39.7087 6.64205 39.9161 6.32102 40.1888 6.0767C40.4644 5.82955 40.7811 5.65057 41.1391 5.53977C41.497 5.42614 41.8735 5.36932 42.2683 5.36932C42.5297 5.36932 42.8067 5.40057 43.0993 5.46307C43.3948 5.52273 43.6703 5.63352 43.926 5.79545C44.1845 5.95739 44.3962 6.18892 44.561 6.49006C44.7257 6.78835 44.8081 7.17614 44.8081 7.65341V12H43.5638V11.1051H43.5127C43.4303 11.2699 43.3067 11.4318 43.1419 11.5909C42.9772 11.75 42.7655 11.8821 42.507 11.9872C42.2485 12.0923 41.9388 12.1449 41.578 12.1449ZM41.855 11.1222C42.2073 11.1222 42.5084 11.0526 42.7584 10.9134C43.0112 10.7741 43.203 10.5923 43.3337 10.3679C43.4672 10.1406 43.534 9.89773 43.534 9.6392V8.79545C43.4885 8.84091 43.4004 8.88352 43.2698 8.9233C43.1419 8.96023 42.9956 8.9929 42.8308 9.02131C42.6661 9.04687 42.5056 9.07102 42.3493 9.09375C42.1931 9.11364 42.0624 9.13068 41.9573 9.14489C41.7101 9.17614 41.4843 9.22869 41.2797 9.30256C41.078 9.37642 40.9161 9.48295 40.7939 9.62216C40.6746 9.75852 40.6149 9.94034 40.6149 10.1676C40.6149 10.483 40.7314 10.7216 40.9644 10.8835C41.1973 11.0426 41.4942 11.1222 41.855 11.1222ZM49.3206 5.45455V6.47727H45.7453V5.45455H49.3206ZM46.7041 3.88636H47.9783V10.0781C47.9783 10.3253 48.0152 10.5114 48.0891 10.6364C48.1629 10.7585 48.2581 10.8423 48.3746 10.8878C48.4939 10.9304 48.6232 10.9517 48.7624 10.9517C48.8646 10.9517 48.9541 10.9446 49.0308 10.9304C49.1075 10.9162 49.1672 10.9048 49.2098 10.8963L49.4399 11.9489C49.3661 11.9773 49.2609 12.0057 49.1246 12.0341C48.9882 12.0653 48.8178 12.0824 48.6132 12.0852C48.278 12.0909 47.9655 12.0312 47.6757 11.9062C47.3859 11.7812 47.1516 11.5881 46.9726 11.3267C46.7936 11.0653 46.7041 10.7372 46.7041 10.3423V3.88636ZM54.6364 9.28551V5.45455H55.9148V12H54.6619V10.8665H54.5937C54.4432 11.2159 54.2017 11.5071 53.8693 11.7401C53.5398 11.9702 53.1293 12.0852 52.6378 12.0852C52.2173 12.0852 51.8452 11.9929 51.5213 11.8082C51.2003 11.6207 50.9474 11.3438 50.7628 10.9773C50.581 10.6108 50.49 10.1577 50.49 9.6179V5.45455H51.7642V9.46449C51.7642 9.91051 51.8878 10.2656 52.1349 10.5298C52.3821 10.794 52.7031 10.9261 53.098 10.9261C53.3366 10.9261 53.5739 10.8665 53.8097 10.7472C54.0483 10.6278 54.2457 10.4474 54.402 10.206C54.5611 9.96449 54.6392 9.65767 54.6364 9.28551ZM62.2916 7.05256L61.1368 7.2571C61.0885 7.10937 61.0118 6.96875 60.9067 6.83523C60.8044 6.7017 60.6652 6.59233 60.489 6.5071C60.3129 6.42187 60.0927 6.37926 59.8285 6.37926C59.4677 6.37926 59.1666 6.46023 58.9251 6.62216C58.6836 6.78125 58.5629 6.98722 58.5629 7.24006C58.5629 7.45881 58.6439 7.63494 58.8058 7.76847C58.9677 7.90199 59.2291 8.01136 59.5899 8.09659L60.6297 8.33523C61.2319 8.47443 61.6808 8.68892 61.9763 8.97869C62.2717 9.26847 62.4194 9.64489 62.4194 10.108C62.4194 10.5 62.3058 10.8494 62.0785 11.1562C61.8541 11.4602 61.5402 11.6989 61.1368 11.8722C60.7362 12.0455 60.2717 12.1321 59.7433 12.1321C59.0103 12.1321 58.4123 11.9759 57.9493 11.6634C57.4862 11.348 57.2021 10.9006 57.097 10.321L58.3285 10.1335C58.4052 10.4545 58.5629 10.6974 58.8015 10.8622C59.0402 11.0241 59.3513 11.1051 59.7348 11.1051C60.1524 11.1051 60.4862 11.0185 60.7362 10.8452C60.9862 10.669 61.1112 10.4545 61.1112 10.2017C61.1112 9.99716 61.0345 9.82528 60.8811 9.68608C60.7305 9.54687 60.499 9.44176 60.1865 9.37074L59.0785 9.12784C58.4677 8.98864 58.016 8.76705 57.7234 8.46307C57.4336 8.15909 57.2888 7.77415 57.2888 7.30824C57.2888 6.92187 57.3967 6.58381 57.6126 6.29403C57.8285 6.00426 58.1268 5.77841 58.5075 5.61648C58.8882 5.4517 59.3243 5.36932 59.8157 5.36932C60.5231 5.36932 61.08 5.52273 61.4862 5.82955C61.8925 6.13352 62.1609 6.54119 62.2916 7.05256Z" fill="#5E5E5E"/>
<path d="M13.6634 142.119C13.0782 142.119 12.5555 142.018 12.0952 141.817C11.6379 141.615 11.2756 141.335 11.0086 140.977C10.7444 140.616 10.6023 140.199 10.5825 139.724H11.9205C11.9376 139.983 12.0242 140.207 12.1805 140.398C12.3396 140.585 12.547 140.73 12.8026 140.832C13.0583 140.935 13.3424 140.986 13.6549 140.986C13.9987 140.986 14.3026 140.926 14.5668 140.807C14.8339 140.687 15.0427 140.521 15.1933 140.308C15.3438 140.092 15.4191 139.844 15.4191 139.562C15.4191 139.27 15.3438 139.013 15.1933 138.791C15.0455 138.567 14.8282 138.391 14.5413 138.263C14.2572 138.135 13.9134 138.071 13.51 138.071H12.7728V136.997H13.51C13.8339 136.997 14.118 136.939 14.3623 136.822C14.6095 136.706 14.8026 136.544 14.9418 136.337C15.081 136.126 15.1506 135.881 15.1506 135.599C15.1506 135.33 15.0896 135.095 14.9674 134.896C14.8481 134.695 14.6776 134.537 14.456 134.423C14.2373 134.31 13.9788 134.253 13.6805 134.253C13.3964 134.253 13.1308 134.305 12.8836 134.411C12.6393 134.513 12.4404 134.661 12.287 134.854C12.1336 135.044 12.0512 135.273 12.0398 135.54H10.7657C10.7799 135.068 10.9191 134.653 11.1833 134.295C11.4504 133.937 11.8026 133.658 12.2401 133.456C12.6776 133.254 13.1634 133.153 13.6975 133.153C14.2572 133.153 14.7401 133.263 15.1464 133.482C15.5555 133.697 15.8708 133.986 16.0924 134.347C16.3168 134.707 16.4276 135.102 16.4248 135.531C16.4276 136.02 16.2913 136.435 16.0157 136.776C15.743 137.116 15.3793 137.345 14.9248 137.462V137.53C15.5043 137.618 15.9532 137.848 16.2714 138.22C16.5924 138.592 16.7515 139.054 16.7487 139.605C16.7515 140.085 16.618 140.516 16.3481 140.896C16.081 141.277 15.716 141.577 15.2529 141.795C14.7898 142.011 14.26 142.119 13.6634 142.119ZM19.3108 142.081C19.0778 142.081 18.8776 141.999 18.7099 141.834C18.5423 141.666 18.4585 141.464 18.4585 141.229C18.4585 140.996 18.5423 140.797 18.7099 140.632C18.8776 140.464 19.0778 140.381 19.3108 140.381C19.5438 140.381 19.744 140.464 19.9117 140.632C20.0793 140.797 20.1631 140.996 20.1631 141.229C20.1631 141.385 20.1233 141.528 20.0438 141.659C19.9671 141.787 19.8648 141.889 19.7369 141.966C19.6091 142.043 19.4671 142.081 19.3108 142.081ZM26.6964 142H25.2987L28.4393 133.273H29.9606L33.1012 142H31.7035L29.2362 134.858H29.168L26.6964 142ZM26.9308 138.582H31.4649V139.69H26.9308V138.582ZM38.1656 139.286V135.455H39.444V142H38.1911V140.866H38.123C37.9724 141.216 37.7309 141.507 37.3985 141.74C37.069 141.97 36.6585 142.085 36.167 142.085C35.7465 142.085 35.3744 141.993 35.0505 141.808C34.7295 141.621 34.4767 141.344 34.292 140.977C34.1102 140.611 34.0193 140.158 34.0193 139.618V135.455H35.2934V139.464C35.2934 139.911 35.417 140.266 35.6642 140.53C35.9113 140.794 36.2323 140.926 36.6272 140.926C36.8659 140.926 37.1031 140.866 37.3389 140.747C37.5775 140.628 37.775 140.447 37.9312 140.206C38.0903 139.964 38.1684 139.658 38.1656 139.286ZM43.9714 135.455V136.477H40.3961V135.455H43.9714ZM41.3549 133.886H42.6291V140.078C42.6291 140.325 42.666 140.511 42.7399 140.636C42.8137 140.759 42.9089 140.842 43.0254 140.888C43.1447 140.93 43.2739 140.952 43.4131 140.952C43.5154 140.952 43.6049 140.945 43.6816 140.93C43.7583 140.916 43.818 140.905 43.8606 140.896L44.0907 141.949C44.0168 141.977 43.9117 142.006 43.7754 142.034C43.639 142.065 43.4685 142.082 43.264 142.085C42.9288 142.091 42.6163 142.031 42.3265 141.906C42.0367 141.781 41.8024 141.588 41.6234 141.327C41.4444 141.065 41.3549 140.737 41.3549 140.342V133.886ZM46.5556 138.114V142H45.2815V133.273H46.5386V136.52H46.6195C46.7729 136.168 47.0073 135.888 47.3226 135.68C47.638 135.473 48.0499 135.369 48.5584 135.369C49.0073 135.369 49.3994 135.462 49.7346 135.646C50.0726 135.831 50.334 136.107 50.5187 136.473C50.7062 136.837 50.7999 137.291 50.7999 137.837V142H49.5258V137.99C49.5258 137.51 49.4022 137.138 49.155 136.874C48.9079 136.607 48.5641 136.473 48.1238 136.473C47.8226 136.473 47.5528 136.537 47.3141 136.665C47.0783 136.793 46.8922 136.98 46.7559 137.227C46.6224 137.472 46.5556 137.767 46.5556 138.114ZM55.0173 142.132C54.4037 142.132 53.8682 141.991 53.4108 141.71C52.9534 141.429 52.5983 141.036 52.3454 140.53C52.0926 140.024 51.9662 139.433 51.9662 138.757C51.9662 138.078 52.0926 137.484 52.3454 136.976C52.5983 136.467 52.9534 136.072 53.4108 135.791C53.8682 135.51 54.4037 135.369 55.0173 135.369C55.6309 135.369 56.1665 135.51 56.6238 135.791C57.0812 136.072 57.4363 136.467 57.6892 136.976C57.942 137.484 58.0684 138.078 58.0684 138.757C58.0684 139.433 57.942 140.024 57.6892 140.53C57.4363 141.036 57.0812 141.429 56.6238 141.71C56.1665 141.991 55.6309 142.132 55.0173 142.132ZM55.0216 141.062C55.4193 141.062 55.7488 140.957 56.0102 140.747C56.2716 140.537 56.4648 140.257 56.5898 139.908C56.7176 139.558 56.7815 139.173 56.7815 138.753C56.7815 138.335 56.7176 137.952 56.5898 137.602C56.4648 137.25 56.2716 136.967 56.0102 136.754C55.7488 136.541 55.4193 136.435 55.0216 136.435C54.621 136.435 54.2886 136.541 54.0244 136.754C53.763 136.967 53.5684 137.25 53.4406 137.602C53.3156 137.952 53.2531 138.335 53.2531 138.753C53.2531 139.173 53.3156 139.558 53.4406 139.908C53.5684 140.257 53.763 140.537 54.0244 140.747C54.2886 140.957 54.621 141.062 55.0216 141.062ZM59.2507 142V135.455H60.4822V136.494H60.5504C60.6697 136.142 60.8799 135.865 61.1811 135.663C61.4851 135.459 61.8288 135.357 62.2123 135.357C62.2919 135.357 62.3856 135.359 62.4936 135.365C62.6044 135.371 62.691 135.378 62.7535 135.386V136.605C62.7024 136.591 62.6115 136.575 62.4808 136.558C62.3501 136.538 62.2194 136.528 62.0887 136.528C61.7876 136.528 61.5191 136.592 61.2833 136.72C61.0504 136.845 60.8657 137.02 60.7294 137.244C60.593 137.466 60.5248 137.719 60.5248 138.003V142H59.2507Z" fill="#5E5E5E"/>
<line x1="38" y1="20" x2="38" y2="61" stroke="#5E5E5E"/>
<line x1="224.5" y1="20" x2="224.5" y2="52" stroke="#5E5E5E"/>
<rect x="76" y="98" width="70" height="16" rx="6" fill="#CCCCCC"/>
<rect x="154" y="98" width="70" height="16" rx="6" fill="#CCCCCC"/>
<rect x="115" y="154" width="30" height="30" rx="6" fill="#CCCCCC"/>
<rect x="77" y="154" width="30" height="30" rx="6" fill="#CCCCCC"/>
<line x1="77" y1="138.5" x2="69" y2="138.5" stroke="#5E5E5E"/>
<circle cx="168" cy="169" r="15" fill="#CCCCCC"/>
</g>
<defs>
<clipPath id="clip0_2_20">
<rect width="450" height="309" fill="white"/>
</clipPath>
</defs>
</svg>
