<svg width="450" height="309" viewBox="0 0 450 309" fill="none" xmlns="http://www.w3.org/2000/svg">
<g clip-path="url(#clip0_2_20)">
<rect y="224" width="450" height="85" rx="4" fill="#2B2B2B"/>
<path d="M44.0931 250.631C44.0931 251.123 43.9679 251.56 43.7177 251.942C43.4715 252.319 43.1125 252.616 42.6407 252.834C42.1731 253.047 41.6048 253.154 40.9361 253.154C40.2879 253.154 39.7095 253.055 39.2007 252.858C38.692 252.662 38.2592 252.391 37.9023 252.046L38.5977 251.265C38.8931 251.539 39.2315 251.757 39.6131 251.917C39.9946 252.077 40.4397 252.157 40.9484 252.157C41.2807 252.157 41.5884 252.104 41.8715 251.997C42.1587 251.886 42.3884 251.722 42.5607 251.505C42.7372 251.283 42.8254 251.006 42.8254 250.674C42.8254 250.411 42.772 250.188 42.6654 250.003C42.5628 249.814 42.3802 249.648 42.1177 249.505C41.8551 249.361 41.4879 249.219 41.0161 249.08C40.4418 248.912 39.9495 248.721 39.5392 248.508C39.1331 248.29 38.8213 248.03 38.6038 247.726C38.3905 247.418 38.2838 247.041 38.2838 246.594C38.2838 246.155 38.4048 245.769 38.6469 245.437C38.889 245.101 39.2213 244.838 39.6438 244.649C40.0664 244.461 40.5525 244.366 41.1023 244.366C41.6972 244.366 42.2161 244.452 42.6592 244.625C43.1064 244.797 43.5084 245.041 43.8654 245.357L43.1884 246.12C42.8848 245.853 42.5587 245.661 42.21 245.542C41.8654 245.418 41.5146 245.357 41.1577 245.357C40.7064 245.357 40.3228 245.455 40.0069 245.652C39.691 245.845 39.5331 246.141 39.5331 246.538C39.5331 246.776 39.5966 246.979 39.7238 247.148C39.851 247.312 40.0643 247.464 40.3638 247.603C40.6674 247.743 41.0818 247.89 41.6069 248.046C42.0623 248.182 42.4766 248.348 42.85 248.545C43.2274 248.737 43.529 249 43.7546 249.332C43.9802 249.661 44.0931 250.093 44.0931 250.631ZM48.2759 246.36C49.203 246.36 49.9066 246.668 50.3866 247.283C50.8707 247.898 51.1128 248.721 51.1128 249.751C51.1128 250.419 51.002 251.01 50.7805 251.523C50.563 252.036 50.243 252.436 49.8205 252.723C49.3979 253.01 48.8789 253.154 48.2636 253.154C47.3364 253.154 46.6287 252.846 46.1405 252.231C45.6564 251.615 45.4143 250.793 45.4143 249.763C45.4143 249.09 45.523 248.499 45.7405 247.991C45.962 247.478 46.2841 247.078 46.7066 246.791C47.1333 246.504 47.6564 246.36 48.2759 246.36ZM48.2759 247.302C47.7425 247.302 47.3405 247.503 47.0697 247.905C46.7989 248.303 46.6636 248.922 46.6636 249.763C46.6636 250.596 46.7969 251.213 47.0636 251.615C47.3302 252.013 47.7302 252.212 48.2636 252.212C48.7969 252.212 49.1969 252.013 49.4636 251.615C49.7302 251.213 49.8636 250.592 49.8636 249.751C49.8636 248.914 49.7302 248.296 49.4636 247.898C49.1969 247.501 48.801 247.302 48.2759 247.302ZM52.951 253V252.126H53.9356V247.388H52.951V246.514H54.8402L55.0556 248.034C55.3018 247.496 55.6033 247.084 55.9602 246.797C56.3212 246.506 56.7889 246.36 57.3633 246.36C57.552 246.36 57.7182 246.374 57.8618 246.403C58.0094 246.432 58.1592 246.469 58.311 246.514L58.1264 248.791H57.2156V247.437H57.2094C56.2371 247.437 55.5397 248.132 55.1171 249.523V252.126H56.4341V253H52.951ZM65.3 252.668C65.0702 252.815 64.7933 252.932 64.4692 253.018C64.1492 253.109 63.8251 253.154 63.4969 253.154C62.7748 253.154 62.221 252.965 61.8353 252.588C61.4538 252.21 61.263 251.72 61.263 251.117V247.4H59.7923V246.514H61.263V245.049L62.4446 244.908V246.514H64.66L64.5246 247.4H62.4446V251.105C62.4446 251.462 62.5348 251.73 62.7153 251.911C62.9 252.091 63.2056 252.182 63.6323 252.182C63.8702 252.182 64.0897 252.155 64.2907 252.102C64.4959 252.044 64.6846 251.968 64.8569 251.874L65.3 252.668ZM69.692 243.412C69.9381 243.412 70.1351 243.488 70.2828 243.64C70.4346 243.792 70.5105 243.976 70.5105 244.194C70.5105 244.419 70.4346 244.61 70.2828 244.766C70.1351 244.918 69.9381 244.994 69.692 244.994C69.4499 244.994 69.253 244.918 69.1012 244.766C68.9535 244.61 68.8797 244.419 68.8797 244.194C68.8797 243.976 68.9535 243.792 69.1012 243.64C69.253 243.488 69.4499 243.412 69.692 243.412ZM70.572 246.514V252.102H72.3751V253H67.4151V252.102H69.3905V247.412H67.4766V246.514H70.572ZM74.3179 253V246.514H75.3333L75.4194 247.388C75.6861 247.055 76.0102 246.801 76.3917 246.625C76.7774 246.448 77.161 246.36 77.5425 246.36C78.1661 246.36 78.6256 246.53 78.921 246.871C79.2163 247.207 79.364 247.677 79.364 248.28V253H78.1825V249.006C78.1825 248.596 78.1579 248.264 78.1087 248.009C78.0635 247.755 77.9671 247.57 77.8194 247.455C77.6717 247.336 77.4481 247.277 77.1487 247.277C76.7958 247.277 76.4758 247.386 76.1887 247.603C75.9015 247.821 75.6717 248.054 75.4994 248.305V253H74.3179ZM86.8145 245.763L87.1592 246.809C86.8884 246.895 86.5971 246.951 86.2853 246.975C85.9776 247 85.6371 247.012 85.2638 247.012C86.0309 247.357 86.4145 247.903 86.4145 248.649C86.4145 249.289 86.193 249.816 85.7499 250.231C85.3109 250.645 84.7017 250.852 83.9222 250.852C83.7171 250.852 83.5427 250.844 83.3992 250.828C83.2556 250.807 83.1181 250.776 82.9868 250.735C82.7776 250.883 82.673 251.08 82.673 251.326C82.673 251.47 82.7304 251.593 82.8453 251.695C82.9602 251.794 83.1838 251.843 83.5161 251.843H84.6668C85.114 251.843 85.512 251.921 85.8607 252.077C86.2135 252.233 86.4904 252.446 86.6915 252.717C86.8925 252.984 86.993 253.285 86.993 253.622C86.993 254.266 86.7181 254.76 86.1684 255.105C85.6227 255.453 84.8433 255.628 83.8299 255.628C83.1161 255.628 82.554 255.554 82.1438 255.406C81.7376 255.258 81.4484 255.039 81.2761 254.748C81.1079 254.456 81.0238 254.091 81.0238 253.652H82.0884C82.0884 253.894 82.1356 254.093 82.2299 254.249C82.3243 254.409 82.4966 254.526 82.7468 254.6C82.9971 254.678 83.3581 254.717 83.8299 254.717C84.5274 254.717 85.0299 254.631 85.3376 254.458C85.6453 254.286 85.7992 254.034 85.7992 253.702C85.7992 253.41 85.6699 253.189 85.4115 253.037C85.153 252.889 84.8227 252.815 84.4207 252.815H83.2822C82.6997 252.815 82.2709 252.692 81.9961 252.446C81.7253 252.2 81.5899 251.913 81.5899 251.585C81.5899 251.129 81.8279 250.746 82.3038 250.434C81.5694 250.048 81.2022 249.447 81.2022 248.631C81.2022 248.188 81.313 247.796 81.5345 247.455C81.7602 247.111 82.072 246.842 82.4699 246.649C82.8679 246.456 83.3253 246.36 83.8422 246.36C84.3797 246.36 84.8207 246.335 85.1653 246.286C85.5099 246.237 85.8074 246.167 86.0576 246.077C86.3079 245.987 86.5602 245.882 86.8145 245.763ZM83.8484 247.197C83.3602 247.197 82.9971 247.332 82.7592 247.603C82.5253 247.87 82.4084 248.212 82.4084 248.631C82.4084 249.057 82.5294 249.404 82.7715 249.671C83.0135 249.937 83.3807 250.071 83.873 250.071C84.3079 250.071 84.6402 249.944 84.8699 249.689C85.0997 249.435 85.2145 249.078 85.2145 248.618C85.2145 247.671 84.7592 247.197 83.8484 247.197ZM96.9279 247.326C97.1576 247.023 97.4263 246.787 97.734 246.618C98.0458 246.446 98.3843 246.36 98.7494 246.36C99.3238 246.36 99.7894 246.502 100.146 246.785C100.503 247.064 100.764 247.457 100.928 247.966C101.092 248.471 101.174 249.066 101.174 249.751C101.174 250.407 101.076 250.992 100.879 251.505C100.682 252.017 100.392 252.422 100.011 252.717C99.6294 253.008 99.1597 253.154 98.6017 253.154C97.8591 253.154 97.2786 252.883 96.8602 252.342L96.7863 253H95.7463V243.905L96.9279 243.763V247.326ZM98.3125 252.225C98.8212 252.225 99.213 252.024 99.4879 251.622C99.7668 251.215 99.9063 250.592 99.9063 249.751C99.9063 248.91 99.7812 248.29 99.5309 247.892C99.2848 247.49 98.9279 247.289 98.4602 247.289C98.1238 247.289 97.8263 247.392 97.5679 247.597C97.3094 247.798 97.0961 248.028 96.9279 248.286V251.425C97.092 251.671 97.293 251.866 97.5309 252.009C97.7689 252.153 98.0294 252.225 98.3125 252.225ZM105.554 243.905V251.326C105.554 251.638 105.65 251.859 105.843 251.991C106.036 252.118 106.284 252.182 106.588 252.182C106.78 252.182 106.963 252.163 107.135 252.126C107.312 252.085 107.484 252.03 107.652 251.96L107.96 252.803C107.779 252.897 107.554 252.979 107.283 253.049C107.012 253.119 106.707 253.154 106.366 253.154C105.755 253.154 105.269 252.984 104.908 252.643C104.551 252.303 104.372 251.835 104.372 251.24V244.803H102.397V243.905H105.554ZM112.561 246.36C113.488 246.36 114.192 246.668 114.672 247.283C115.156 247.898 115.398 248.721 115.398 249.751C115.398 250.419 115.287 251.01 115.066 251.523C114.848 252.036 114.528 252.436 114.106 252.723C113.683 253.01 113.164 253.154 112.549 253.154C111.622 253.154 110.914 252.846 110.426 252.231C109.942 251.615 109.7 250.793 109.7 249.763C109.7 249.09 109.808 248.499 110.026 247.991C110.247 247.478 110.569 247.078 110.992 246.791C111.419 246.504 111.942 246.36 112.561 246.36ZM112.561 247.302C112.028 247.302 111.626 247.503 111.355 247.905C111.084 248.303 110.949 248.922 110.949 249.763C110.949 250.596 111.082 251.213 111.349 251.615C111.616 252.013 112.016 252.212 112.549 252.212C113.082 252.212 113.482 252.013 113.749 251.615C114.016 251.213 114.149 250.592 114.149 249.751C114.149 248.914 114.016 248.296 113.749 247.898C113.482 247.501 113.086 247.302 112.561 247.302ZM122.529 245.763L122.873 246.809C122.602 246.895 122.311 246.951 121.999 246.975C121.692 247 121.351 247.012 120.978 247.012C121.745 247.357 122.129 247.903 122.129 248.649C122.129 249.289 121.907 249.816 121.464 250.231C121.025 250.645 120.416 250.852 119.636 250.852C119.431 250.852 119.257 250.844 119.113 250.828C118.97 250.807 118.832 250.776 118.701 250.735C118.492 250.883 118.387 251.08 118.387 251.326C118.387 251.47 118.445 251.593 118.559 251.695C118.674 251.794 118.898 251.843 119.23 251.843H120.381C120.828 251.843 121.226 251.921 121.575 252.077C121.928 252.233 122.205 252.446 122.406 252.717C122.607 252.984 122.707 253.285 122.707 253.622C122.707 254.266 122.432 254.76 121.882 255.105C121.337 255.453 120.557 255.628 119.544 255.628C118.83 255.628 118.268 255.554 117.858 255.406C117.452 255.258 117.162 255.039 116.99 254.748C116.822 254.456 116.738 254.091 116.738 253.652H117.802C117.802 253.894 117.85 254.093 117.944 254.249C118.038 254.409 118.211 254.526 118.461 254.6C118.711 254.678 119.072 254.717 119.544 254.717C120.241 254.717 120.744 254.631 121.052 254.458C121.359 254.286 121.513 254.034 121.513 253.702C121.513 253.41 121.384 253.189 121.126 253.037C120.867 252.889 120.537 252.815 120.135 252.815H118.996C118.414 252.815 117.985 252.692 117.71 252.446C117.439 252.2 117.304 251.913 117.304 251.585C117.304 251.129 117.542 250.746 118.018 250.434C117.283 250.048 116.916 249.447 116.916 248.631C116.916 248.188 117.027 247.796 117.249 247.455C117.474 247.111 117.786 246.842 118.184 246.649C118.582 246.456 119.039 246.36 119.556 246.36C120.094 246.36 120.535 246.335 120.879 246.286C121.224 246.237 121.521 246.167 121.772 246.077C122.022 245.987 122.274 245.882 122.529 245.763ZM119.562 247.197C119.074 247.197 118.711 247.332 118.473 247.603C118.239 247.87 118.122 248.212 118.122 248.631C118.122 249.057 118.243 249.404 118.486 249.671C118.728 249.937 119.095 250.071 119.587 250.071C120.022 250.071 120.354 249.944 120.584 249.689C120.814 249.435 120.929 249.078 120.929 248.618C120.929 247.671 120.473 247.197 119.562 247.197ZM134.476 246.36C135.05 246.36 135.51 246.502 135.854 246.785C136.199 247.064 136.447 247.457 136.599 247.966C136.751 248.471 136.827 249.066 136.827 249.751C136.827 250.407 136.734 250.992 136.55 251.505C136.365 252.017 136.088 252.422 135.719 252.717C135.35 253.008 134.886 253.154 134.328 253.154C133.631 253.154 133.069 252.908 132.642 252.415V255.486L131.46 255.628V246.514H132.476L132.562 247.388C133.062 246.703 133.7 246.36 134.476 246.36ZM134.174 247.289C133.838 247.289 133.54 247.392 133.282 247.597C133.023 247.798 132.81 248.028 132.642 248.286V251.425C132.806 251.667 133.007 251.857 133.245 251.997C133.483 252.132 133.748 252.2 134.039 252.2C134.548 252.2 134.931 252.003 135.19 251.609C135.448 251.211 135.577 250.592 135.577 249.751C135.577 248.91 135.462 248.29 135.233 247.892C135.003 247.49 134.65 247.289 134.174 247.289ZM141.132 246.36C142.06 246.36 142.763 246.668 143.243 247.283C143.727 247.898 143.969 248.721 143.969 249.751C143.969 250.419 143.859 251.01 143.637 251.523C143.42 252.036 143.1 252.436 142.677 252.723C142.254 253.01 141.736 253.154 141.12 253.154C140.193 253.154 139.485 252.846 138.997 252.231C138.513 251.615 138.271 250.793 138.271 249.763C138.271 249.09 138.38 248.499 138.597 247.991C138.819 247.478 139.141 247.078 139.563 246.791C139.99 246.504 140.513 246.36 141.132 246.36ZM141.132 247.302C140.599 247.302 140.197 247.503 139.926 247.905C139.656 248.303 139.52 248.922 139.52 249.763C139.52 250.596 139.653 251.213 139.92 251.615C140.187 252.013 140.587 252.212 141.12 252.212C141.653 252.212 142.053 252.013 142.32 251.615C142.587 251.213 142.72 250.592 142.72 249.751C142.72 248.914 142.587 248.296 142.32 247.898C142.053 247.501 141.658 247.302 141.132 247.302ZM148.017 252.212C148.489 252.212 148.86 252.126 149.131 251.954C149.405 251.782 149.543 251.548 149.543 251.252C149.543 251.064 149.506 250.904 149.432 250.772C149.362 250.637 149.215 250.514 148.989 250.403C148.768 250.288 148.431 250.173 147.98 250.058C147.537 249.948 147.151 249.818 146.823 249.671C146.499 249.523 146.247 249.33 146.066 249.092C145.89 248.854 145.801 248.547 145.801 248.169C145.801 247.619 146.031 247.181 146.491 246.852C146.95 246.524 147.559 246.36 148.318 246.36C148.852 246.36 149.315 246.432 149.709 246.575C150.103 246.715 150.439 246.887 150.718 247.092L150.214 247.862C149.963 247.697 149.689 247.562 149.389 247.455C149.094 247.345 148.745 247.289 148.343 247.289C147.863 247.289 147.52 247.363 147.315 247.511C147.114 247.654 147.014 247.845 147.014 248.083C147.014 248.264 147.063 248.413 147.161 248.532C147.264 248.647 147.438 248.754 147.684 248.852C147.931 248.947 148.271 249.053 148.706 249.172C149.129 249.287 149.498 249.423 149.814 249.578C150.13 249.734 150.374 249.939 150.546 250.194C150.722 250.444 150.811 250.774 150.811 251.185C150.811 251.648 150.677 252.026 150.411 252.317C150.144 252.604 149.797 252.815 149.371 252.951C148.948 253.086 148.497 253.154 148.017 253.154C147.426 253.154 146.917 253.068 146.491 252.895C146.068 252.723 145.713 252.512 145.426 252.262L146.078 251.511C146.329 251.72 146.618 251.89 146.946 252.022C147.278 252.149 147.635 252.212 148.017 252.212ZM158.157 252.668C157.927 252.815 157.65 252.932 157.326 253.018C157.006 253.109 156.682 253.154 156.353 253.154C155.631 253.154 155.078 252.965 154.692 252.588C154.31 252.21 154.12 251.72 154.12 251.117V247.4H152.649V246.514H154.12V245.049L155.301 244.908V246.514H157.517L157.381 247.4H155.301V251.105C155.301 251.462 155.391 251.73 155.572 251.911C155.757 252.091 156.062 252.182 156.489 252.182C156.727 252.182 156.946 252.155 157.147 252.102C157.352 252.044 157.541 251.968 157.713 251.874L158.157 252.668ZM162.302 252.212C162.774 252.212 163.145 252.126 163.416 251.954C163.691 251.782 163.829 251.548 163.829 251.252C163.829 251.064 163.792 250.904 163.718 250.772C163.648 250.637 163.5 250.514 163.275 250.403C163.053 250.288 162.717 250.173 162.265 250.058C161.822 249.948 161.437 249.818 161.109 249.671C160.784 249.523 160.532 249.33 160.352 249.092C160.175 248.854 160.087 248.547 160.087 248.169C160.087 247.619 160.317 247.181 160.776 246.852C161.236 246.524 161.845 246.36 162.604 246.36C163.137 246.36 163.601 246.432 163.995 246.575C164.389 246.715 164.725 246.887 165.004 247.092L164.499 247.862C164.249 247.697 163.974 247.562 163.675 247.455C163.379 247.345 163.031 247.289 162.629 247.289C162.149 247.289 161.806 247.363 161.601 247.511C161.4 247.654 161.299 247.845 161.299 248.083C161.299 248.264 161.349 248.413 161.447 248.532C161.55 248.647 161.724 248.754 161.97 248.852C162.216 248.947 162.557 249.053 162.992 249.172C163.414 249.287 163.783 249.423 164.099 249.578C164.415 249.734 164.659 249.939 164.832 250.194C165.008 250.444 165.096 250.774 165.096 251.185C165.096 251.648 164.963 252.026 164.696 252.317C164.43 252.604 164.083 252.815 163.656 252.951C163.234 253.086 162.782 253.154 162.302 253.154C161.712 253.154 161.203 253.068 160.776 252.895C160.354 252.723 159.999 252.512 159.712 252.262L160.364 251.511C160.614 251.72 160.903 251.89 161.232 252.022C161.564 252.149 161.921 252.212 162.302 252.212ZM176.834 243.412C177.08 243.412 177.277 243.488 177.425 243.64C177.577 243.792 177.653 243.976 177.653 244.194C177.653 244.419 177.577 244.61 177.425 244.766C177.277 244.918 177.08 244.994 176.834 244.994C176.592 244.994 176.395 244.918 176.243 244.766C176.096 244.61 176.022 244.419 176.022 244.194C176.022 243.976 176.096 243.792 176.243 243.64C176.395 243.488 176.592 243.412 176.834 243.412ZM177.714 246.514V252.102H179.517V253H174.557V252.102H176.533V247.412H174.619V246.514H177.714ZM181.46 253V246.514H182.475L182.562 247.388C182.828 247.055 183.152 246.801 183.534 246.625C183.92 246.448 184.303 246.36 184.685 246.36C185.308 246.36 185.768 246.53 186.063 246.871C186.359 247.207 186.506 247.677 186.506 248.28V253H185.325V249.006C185.325 248.596 185.3 248.264 185.251 248.009C185.206 247.755 185.109 247.57 184.962 247.455C184.814 247.336 184.59 247.277 184.291 247.277C183.938 247.277 183.618 247.386 183.331 247.603C183.044 247.821 182.814 248.054 182.642 248.305V253H181.46ZM200.527 251.511C200.527 251.769 200.568 251.958 200.65 252.077C200.732 252.192 200.862 252.278 201.038 252.335L200.761 253.148C200.466 253.111 200.207 253.023 199.986 252.883C199.768 252.744 199.608 252.53 199.506 252.243C199.272 252.547 198.976 252.774 198.62 252.926C198.263 253.078 197.875 253.154 197.456 253.154C196.804 253.154 196.289 252.969 195.912 252.6C195.534 252.231 195.346 251.745 195.346 251.142C195.346 250.469 195.608 249.952 196.133 249.591C196.663 249.226 197.422 249.043 198.41 249.043H199.352V248.551C199.352 248.104 199.219 247.786 198.952 247.597C198.689 247.408 198.322 247.314 197.85 247.314C197.633 247.314 197.376 247.341 197.081 247.394C196.79 247.447 196.478 247.531 196.146 247.646L195.844 246.785C196.242 246.633 196.626 246.524 196.995 246.458C197.364 246.393 197.709 246.36 198.029 246.36C198.862 246.36 199.485 246.551 199.9 246.932C200.318 247.314 200.527 247.833 200.527 248.489V251.511ZM197.789 252.268C198.088 252.268 198.377 252.19 198.656 252.034C198.94 251.878 199.171 251.661 199.352 251.382V249.812H198.49C197.805 249.812 197.319 249.929 197.032 250.163C196.745 250.393 196.601 250.709 196.601 251.111C196.601 251.882 196.997 252.268 197.789 252.268ZM212.302 252.212C212.774 252.212 213.145 252.126 213.416 251.954C213.691 251.782 213.828 251.548 213.828 251.252C213.828 251.064 213.791 250.904 213.717 250.772C213.648 250.637 213.5 250.514 213.274 250.403C213.053 250.288 212.716 250.173 212.265 250.058C211.822 249.948 211.436 249.818 211.108 249.671C210.784 249.523 210.532 249.33 210.351 249.092C210.175 248.854 210.087 248.547 210.087 248.169C210.087 247.619 210.316 247.181 210.776 246.852C211.235 246.524 211.845 246.36 212.604 246.36C213.137 246.36 213.601 246.432 213.994 246.575C214.388 246.715 214.725 246.887 215.004 247.092L214.499 247.862C214.249 247.697 213.974 247.562 213.674 247.455C213.379 247.345 213.03 247.289 212.628 247.289C212.148 247.289 211.806 247.363 211.601 247.511C211.4 247.654 211.299 247.845 211.299 248.083C211.299 248.264 211.348 248.413 211.447 248.532C211.549 248.647 211.724 248.754 211.97 248.852C212.216 248.947 212.556 249.053 212.991 249.172C213.414 249.287 213.783 249.423 214.099 249.578C214.415 249.734 214.659 249.939 214.831 250.194C215.008 250.444 215.096 250.774 215.096 251.185C215.096 251.648 214.963 252.026 214.696 252.317C214.429 252.604 214.083 252.815 213.656 252.951C213.233 253.086 212.782 253.154 212.302 253.154C211.711 253.154 211.203 253.068 210.776 252.895C210.353 252.723 209.999 252.512 209.711 252.262L210.364 251.511C210.614 251.72 210.903 251.89 211.231 252.022C211.564 252.149 211.921 252.212 212.302 252.212ZM218.356 246.514V251.08C218.356 251.49 218.438 251.786 218.602 251.966C218.77 252.143 219.028 252.231 219.377 252.231C219.705 252.231 220.019 252.134 220.319 251.942C220.622 251.749 220.858 251.519 221.026 251.252V246.514H222.208V253H221.193L221.106 252.145C220.856 252.473 220.544 252.723 220.171 252.895C219.802 253.068 219.426 253.154 219.045 253.154C218.417 253.154 217.947 252.984 217.636 252.643C217.328 252.303 217.174 251.831 217.174 251.228V246.514H218.356ZM225.498 247.326C225.728 247.023 225.997 246.787 226.305 246.618C226.616 246.446 226.955 246.36 227.32 246.36C227.894 246.36 228.36 246.502 228.717 246.785C229.074 247.064 229.334 247.457 229.498 247.966C229.663 248.471 229.745 249.066 229.745 249.751C229.745 250.407 229.646 250.992 229.449 251.505C229.252 252.017 228.963 252.422 228.582 252.717C228.2 253.008 227.73 253.154 227.172 253.154C226.43 253.154 225.849 252.883 225.431 252.342L225.357 253H224.317V243.905L225.498 243.763V247.326ZM226.883 252.225C227.392 252.225 227.784 252.024 228.058 251.622C228.337 251.215 228.477 250.592 228.477 249.751C228.477 248.91 228.352 248.29 228.102 247.892C227.855 247.49 227.498 247.289 227.031 247.289C226.694 247.289 226.397 247.392 226.138 247.597C225.88 247.798 225.667 248.028 225.498 248.286V251.425C225.663 251.671 225.864 251.866 226.102 252.009C226.34 252.153 226.6 252.225 226.883 252.225ZM235.343 243.763C235.712 243.763 236.044 243.796 236.34 243.862C236.635 243.923 236.914 244.011 237.177 244.126L236.807 244.975C236.598 244.881 236.375 244.813 236.137 244.772C235.903 244.727 235.663 244.705 235.417 244.705C234.539 244.705 234.1 245.055 234.1 245.757V247H236.291L236.161 247.898H234.1V253H232.924V247.898H231.404V247H232.924V245.763C232.924 245.361 233.027 245.01 233.232 244.711C233.441 244.411 233.726 244.179 234.087 244.015C234.453 243.847 234.871 243.763 235.343 243.763ZM241.132 246.36C242.059 246.36 242.763 246.668 243.243 247.283C243.727 247.898 243.969 248.721 243.969 249.751C243.969 250.419 243.858 251.01 243.636 251.523C243.419 252.036 243.099 252.436 242.676 252.723C242.254 253.01 241.735 253.154 241.119 253.154C240.192 253.154 239.485 252.846 238.996 252.231C238.512 251.615 238.27 250.793 238.27 249.763C238.27 249.09 238.379 248.499 238.596 247.991C238.818 247.478 239.14 247.078 239.563 246.791C239.989 246.504 240.512 246.36 241.132 246.36ZM241.132 247.302C240.598 247.302 240.196 247.503 239.926 247.905C239.655 248.303 239.519 248.922 239.519 249.763C239.519 250.596 239.653 251.213 239.919 251.615C240.186 252.013 240.586 252.212 241.119 252.212C241.653 252.212 242.053 252.013 242.319 251.615C242.586 251.213 242.719 250.592 242.719 249.751C242.719 248.914 242.586 248.296 242.319 247.898C242.053 247.501 241.657 247.302 241.132 247.302ZM248.41 243.905V251.326C248.41 251.638 248.506 251.859 248.699 251.991C248.892 252.118 249.14 252.182 249.444 252.182C249.637 252.182 249.819 252.163 249.992 252.126C250.168 252.085 250.34 252.03 250.508 251.96L250.816 252.803C250.636 252.897 250.41 252.979 250.139 253.049C249.868 253.119 249.563 253.154 249.222 253.154C248.611 253.154 248.125 252.984 247.764 252.643C247.407 252.303 247.228 251.835 247.228 251.24V244.803H245.253V243.905H248.41ZM256.741 243.763L257.922 243.905V253H256.882L256.784 252.169C256.324 252.826 255.713 253.154 254.95 253.154C254.392 253.154 253.93 253.012 253.565 252.729C253.204 252.442 252.935 252.044 252.759 251.535C252.583 251.027 252.494 250.436 252.494 249.763C252.494 249.107 252.595 248.524 252.796 248.015C253.001 247.503 253.292 247.098 253.67 246.803C254.051 246.508 254.511 246.36 255.048 246.36C255.746 246.36 256.31 246.606 256.741 247.098V243.763ZM255.356 247.289C254.847 247.289 254.453 247.492 254.174 247.898C253.899 248.305 253.762 248.926 253.762 249.763C253.762 250.596 253.887 251.213 254.137 251.615C254.392 252.017 254.757 252.218 255.233 252.218C255.573 252.218 255.867 252.122 256.113 251.929C256.363 251.732 256.572 251.503 256.741 251.24V248.071C256.572 247.825 256.369 247.634 256.131 247.498C255.897 247.359 255.639 247.289 255.356 247.289ZM260.985 250.157C261.018 250.871 261.21 251.39 261.563 251.714C261.92 252.038 262.343 252.2 262.831 252.2C263.155 252.2 263.453 252.151 263.723 252.052C263.994 251.954 264.269 251.81 264.548 251.622L265.083 252.366C264.78 252.608 264.429 252.801 264.031 252.945C263.633 253.084 263.221 253.154 262.794 253.154C262.146 253.154 261.594 253.012 261.139 252.729C260.687 252.442 260.343 252.044 260.105 251.535C259.871 251.027 259.754 250.436 259.754 249.763C259.754 249.111 259.871 248.528 260.105 248.015C260.343 247.503 260.677 247.098 261.108 246.803C261.539 246.508 262.052 246.36 262.646 246.36C263.483 246.36 264.142 246.647 264.622 247.222C265.106 247.792 265.348 248.573 265.348 249.566C265.348 249.677 265.346 249.784 265.342 249.886C265.338 249.989 265.332 250.079 265.323 250.157H260.985ZM262.659 247.283C262.195 247.283 261.812 247.447 261.508 247.775C261.204 248.104 261.03 248.61 260.985 249.295H264.209C264.197 248.639 264.054 248.141 263.779 247.8C263.508 247.455 263.135 247.283 262.659 247.283ZM267.235 253V252.126H268.22V247.388H267.235V246.514H269.125L269.34 248.034C269.586 247.496 269.888 247.084 270.245 246.797C270.606 246.506 271.073 246.36 271.648 246.36C271.836 246.36 272.003 246.374 272.146 246.403C272.294 246.432 272.444 246.469 272.595 246.514L272.411 248.791H271.5V247.437H271.494C270.522 247.437 269.824 248.132 269.402 249.523V252.126H270.718V253H267.235ZM285.312 243.763L286.493 243.905V253H285.453L285.355 252.169C284.895 252.826 284.284 253.154 283.521 253.154C282.963 253.154 282.501 253.012 282.136 252.729C281.775 252.442 281.507 252.044 281.33 251.535C281.154 251.027 281.066 250.436 281.066 249.763C281.066 249.107 281.166 248.524 281.367 248.015C281.572 247.503 281.864 247.098 282.241 246.803C282.623 246.508 283.082 246.36 283.619 246.36C284.317 246.36 284.881 246.606 285.312 247.098V243.763ZM283.927 247.289C283.418 247.289 283.025 247.492 282.746 247.898C282.471 248.305 282.333 248.926 282.333 249.763C282.333 250.596 282.458 251.213 282.709 251.615C282.963 252.017 283.328 252.218 283.804 252.218C284.145 252.218 284.438 252.122 284.684 251.929C284.934 251.732 285.144 251.503 285.312 251.24V248.071C285.144 247.825 284.94 247.634 284.703 247.498C284.469 247.359 284.21 247.289 283.927 247.289ZM291.131 246.36C292.059 246.36 292.762 246.668 293.242 247.283C293.726 247.898 293.968 248.721 293.968 249.751C293.968 250.419 293.858 251.01 293.636 251.523C293.419 252.036 293.099 252.436 292.676 252.723C292.254 253.01 291.735 253.154 291.119 253.154C290.192 253.154 289.484 252.846 288.996 252.231C288.512 251.615 288.27 250.793 288.27 249.763C288.27 249.09 288.379 248.499 288.596 247.991C288.818 247.478 289.14 247.078 289.562 246.791C289.989 246.504 290.512 246.36 291.131 246.36ZM291.131 247.302C290.598 247.302 290.196 247.503 289.925 247.905C289.655 248.303 289.519 248.922 289.519 249.763C289.519 250.596 289.653 251.213 289.919 251.615C290.186 252.013 290.586 252.212 291.119 252.212C291.653 252.212 292.053 252.013 292.319 251.615C292.586 251.213 292.719 250.592 292.719 249.751C292.719 248.914 292.586 248.296 292.319 247.898C292.053 247.501 291.657 247.302 291.131 247.302ZM296.699 250.157C296.732 250.871 296.925 251.39 297.277 251.714C297.634 252.038 298.057 252.2 298.545 252.2C298.869 252.2 299.167 252.151 299.437 252.052C299.708 251.954 299.983 251.81 300.262 251.622L300.797 252.366C300.494 252.608 300.143 252.801 299.745 252.945C299.347 253.084 298.935 253.154 298.508 253.154C297.86 253.154 297.308 253.012 296.853 252.729C296.401 252.442 296.057 252.044 295.819 251.535C295.585 251.027 295.468 250.436 295.468 249.763C295.468 249.111 295.585 248.528 295.819 248.015C296.057 247.503 296.391 247.098 296.822 246.803C297.253 246.508 297.766 246.36 298.36 246.36C299.197 246.36 299.856 246.647 300.336 247.222C300.82 247.792 301.062 248.573 301.062 249.566C301.062 249.677 301.06 249.784 301.056 249.886C301.052 249.989 301.046 250.079 301.037 250.157H296.699ZM298.373 247.283C297.909 247.283 297.526 247.447 297.222 247.775C296.918 248.104 296.744 248.61 296.699 249.295H299.924C299.911 248.639 299.768 248.141 299.493 247.8C299.222 247.455 298.849 247.283 298.373 247.283ZM305.159 252.212C305.63 252.212 306.002 252.126 306.272 251.954C306.547 251.782 306.685 251.548 306.685 251.252C306.685 251.064 306.648 250.904 306.574 250.772C306.504 250.637 306.357 250.514 306.131 250.403C305.909 250.288 305.573 250.173 305.122 250.058C304.679 249.948 304.293 249.818 303.965 249.671C303.641 249.523 303.388 249.33 303.208 249.092C303.031 248.854 302.943 248.547 302.943 248.169C302.943 247.619 303.173 247.181 303.632 246.852C304.092 246.524 304.701 246.36 305.46 246.36C305.994 246.36 306.457 246.432 306.851 246.575C307.245 246.715 307.581 246.887 307.86 247.092L307.356 247.862C307.105 247.697 306.83 247.562 306.531 247.455C306.236 247.345 305.887 247.289 305.485 247.289C305.005 247.289 304.662 247.363 304.457 247.511C304.256 247.654 304.156 247.845 304.156 248.083C304.156 248.264 304.205 248.413 304.303 248.532C304.406 248.647 304.58 248.754 304.826 248.852C305.072 248.947 305.413 249.053 305.848 249.172C306.27 249.287 306.64 249.423 306.956 249.578C307.271 249.734 307.516 249.939 307.688 250.194C307.864 250.444 307.952 250.774 307.952 251.185C307.952 251.648 307.819 252.026 307.552 252.317C307.286 252.604 306.939 252.815 306.512 252.951C306.09 253.086 305.639 253.154 305.159 253.154C304.568 253.154 304.059 253.068 303.632 252.895C303.21 252.723 302.855 252.512 302.568 252.262L303.22 251.511C303.47 251.72 303.76 251.89 304.088 252.022C304.42 252.149 304.777 252.212 305.159 252.212ZM317.174 253V246.514H318.189L318.275 247.388C318.542 247.055 318.866 246.801 319.247 246.625C319.633 246.448 320.017 246.36 320.398 246.36C321.022 246.36 321.481 246.53 321.777 246.871C322.072 247.207 322.22 247.677 322.22 248.28V253H321.038V249.006C321.038 248.596 321.014 248.264 320.964 248.009C320.919 247.755 320.823 247.57 320.675 247.455C320.527 247.336 320.304 247.277 320.004 247.277C319.651 247.277 319.331 247.386 319.044 247.603C318.757 247.821 318.527 248.054 318.355 248.305V253H317.174ZM326.846 246.36C327.773 246.36 328.476 246.668 328.956 247.283C329.44 247.898 329.682 248.721 329.682 249.751C329.682 250.419 329.572 251.01 329.35 251.523C329.133 252.036 328.813 252.436 328.39 252.723C327.968 253.01 327.449 253.154 326.833 253.154C325.906 253.154 325.198 252.846 324.71 252.231C324.226 251.615 323.984 250.793 323.984 249.763C323.984 249.09 324.093 248.499 324.31 247.991C324.532 247.478 324.854 247.078 325.276 246.791C325.703 246.504 326.226 246.36 326.846 246.36ZM326.846 247.302C326.312 247.302 325.91 247.503 325.639 247.905C325.369 248.303 325.233 248.922 325.233 249.763C325.233 250.596 325.367 251.213 325.633 251.615C325.9 252.013 326.3 252.212 326.833 252.212C327.367 252.212 327.767 252.013 328.033 251.615C328.3 251.213 328.433 250.592 328.433 249.751C328.433 248.914 328.3 248.296 328.033 247.898C327.767 247.501 327.371 247.302 326.846 247.302ZM336.727 252.668C336.497 252.815 336.22 252.932 335.896 253.018C335.576 253.109 335.252 253.154 334.924 253.154C334.202 253.154 333.648 252.965 333.262 252.588C332.881 252.21 332.69 251.72 332.69 251.117V247.4H331.219V246.514H332.69V245.049L333.871 244.908V246.514H336.087L335.951 247.4H333.871V251.105C333.871 251.462 333.962 251.73 334.142 251.911C334.327 252.091 334.632 252.182 335.059 252.182C335.297 252.182 335.517 252.155 335.718 252.102C335.923 252.044 336.111 251.968 336.284 251.874L336.727 252.668ZM350.668 253H349.092L348.299 248.305L347.443 253H345.905L344.754 246.514H345.929L346.692 252.268L347.671 247.338H348.963L349.88 252.268L350.643 246.514H351.769L350.668 253ZM355.417 246.36C356.344 246.36 357.048 246.668 357.528 247.283C358.012 247.898 358.254 248.721 358.254 249.751C358.254 250.419 358.143 251.01 357.921 251.523C357.704 252.036 357.384 252.436 356.961 252.723C356.539 253.01 356.02 253.154 355.404 253.154C354.477 253.154 353.77 252.846 353.281 252.231C352.797 251.615 352.555 250.793 352.555 249.763C352.555 249.09 352.664 248.499 352.881 247.991C353.103 247.478 353.425 247.078 353.848 246.791C354.274 246.504 354.797 246.36 355.417 246.36ZM355.417 247.302C354.883 247.302 354.481 247.503 354.211 247.905C353.94 248.303 353.804 248.922 353.804 249.763C353.804 250.596 353.938 251.213 354.204 251.615C354.471 252.013 354.871 252.212 355.404 252.212C355.938 252.212 356.338 252.013 356.604 251.615C356.871 251.213 357.004 250.592 357.004 249.751C357.004 248.914 356.871 248.296 356.604 247.898C356.338 247.501 355.942 247.302 355.417 247.302ZM360.092 253V252.126H361.077V247.388H360.092V246.514H361.981L362.197 248.034C362.443 247.496 362.744 247.084 363.101 246.797C363.462 246.506 363.93 246.36 364.504 246.36C364.693 246.36 364.859 246.374 365.003 246.403C365.15 246.432 365.3 246.469 365.452 246.514L365.267 248.791H364.357V247.437H364.35C363.378 247.437 362.681 248.132 362.258 249.523V252.126H363.575V253H360.092ZM368.41 243.763V253H367.229V243.905L368.41 243.763ZM372.73 246.514L369.936 249.425L373.038 253H371.542L368.521 249.455L371.272 246.514H372.73ZM375.701 252.015C375.701 251.704 375.807 251.439 376.021 251.222C376.238 251.004 376.505 250.895 376.821 250.895C377.145 250.895 377.415 251.004 377.633 251.222C377.85 251.439 377.959 251.704 377.959 252.015C377.959 252.331 377.85 252.6 377.633 252.822C377.415 253.043 377.145 253.154 376.821 253.154C376.505 253.154 376.238 253.043 376.021 252.822C375.807 252.6 375.701 252.331 375.701 252.015ZM44.0931 268.631C44.0931 269.123 43.9679 269.56 43.7177 269.942C43.4715 270.319 43.1125 270.616 42.6407 270.834C42.1731 271.047 41.6048 271.154 40.9361 271.154C40.2879 271.154 39.7095 271.055 39.2007 270.858C38.692 270.662 38.2592 270.391 37.9023 270.046L38.5977 269.265C38.8931 269.539 39.2315 269.757 39.6131 269.917C39.9946 270.077 40.4397 270.157 40.9484 270.157C41.2807 270.157 41.5884 270.104 41.8715 269.997C42.1587 269.886 42.3884 269.722 42.5607 269.505C42.7372 269.283 42.8254 269.006 42.8254 268.674C42.8254 268.411 42.772 268.188 42.6654 268.003C42.5628 267.814 42.3802 267.648 42.1177 267.505C41.8551 267.361 41.4879 267.219 41.0161 267.08C40.4418 266.912 39.9495 266.721 39.5392 266.508C39.1331 266.29 38.8213 266.03 38.6038 265.726C38.3905 265.418 38.2838 265.041 38.2838 264.594C38.2838 264.155 38.4048 263.769 38.6469 263.437C38.889 263.101 39.2213 262.838 39.6438 262.649C40.0664 262.461 40.5525 262.366 41.1023 262.366C41.6972 262.366 42.2161 262.452 42.6592 262.625C43.1064 262.797 43.5084 263.041 43.8654 263.357L43.1884 264.12C42.8848 263.853 42.5587 263.661 42.21 263.542C41.8654 263.418 41.5146 263.357 41.1577 263.357C40.7064 263.357 40.3228 263.455 40.0069 263.652C39.691 263.845 39.5331 264.141 39.5331 264.538C39.5331 264.776 39.5966 264.979 39.7238 265.148C39.851 265.312 40.0643 265.464 40.3638 265.603C40.6674 265.743 41.0818 265.89 41.6069 266.046C42.0623 266.182 42.4766 266.348 42.85 266.545C43.2274 266.737 43.529 267 43.7546 267.332C43.9802 267.661 44.0931 268.093 44.0931 268.631ZM51.0143 270.668C50.7846 270.815 50.5077 270.932 50.1836 271.018C49.8636 271.109 49.5395 271.154 49.2113 271.154C48.4892 271.154 47.9354 270.965 47.5497 270.588C47.1682 270.21 46.9774 269.72 46.9774 269.117V265.4H45.5066V264.514H46.9774V263.049L48.1589 262.908V264.514H50.3743L50.2389 265.4H48.1589V269.105C48.1589 269.462 48.2492 269.73 48.4297 269.911C48.6143 270.091 48.92 270.182 49.3466 270.182C49.5846 270.182 49.8041 270.155 50.0051 270.102C50.2102 270.044 50.3989 269.968 50.5713 269.874L51.0143 270.668ZM57.671 269.511C57.671 269.769 57.712 269.958 57.7941 270.077C57.8761 270.192 58.0053 270.278 58.1818 270.335L57.9048 271.148C57.6094 271.111 57.351 271.023 57.1294 270.883C56.912 270.744 56.752 270.53 56.6494 270.243C56.4156 270.547 56.1202 270.774 55.7633 270.926C55.4064 271.078 55.0187 271.154 54.6002 271.154C53.9479 271.154 53.433 270.969 53.0556 270.6C52.6782 270.231 52.4894 269.745 52.4894 269.142C52.4894 268.469 52.752 267.952 53.2771 267.591C53.8064 267.226 54.5653 267.043 55.5541 267.043H56.4956V266.551C56.4956 266.104 56.3623 265.786 56.0956 265.597C55.833 265.408 55.4659 265.314 54.9941 265.314C54.7766 265.314 54.5202 265.341 54.2248 265.394C53.9335 265.447 53.6218 265.531 53.2894 265.646L52.9879 264.785C53.3859 264.633 53.7694 264.524 54.1387 264.458C54.5079 264.393 54.8525 264.36 55.1725 264.36C56.0053 264.36 56.6289 264.551 57.0433 264.932C57.4618 265.314 57.671 265.833 57.671 266.489V269.511ZM54.9325 270.268C55.232 270.268 55.5212 270.19 55.8002 270.034C56.0833 269.878 56.3151 269.661 56.4956 269.382V267.812H55.6341C54.9489 267.812 54.4628 267.929 54.1756 268.163C53.8884 268.393 53.7448 268.709 53.7448 269.111C53.7448 269.882 54.1407 270.268 54.9325 270.268ZM65.3 270.668C65.0702 270.815 64.7933 270.932 64.4692 271.018C64.1492 271.109 63.8251 271.154 63.4969 271.154C62.7748 271.154 62.221 270.965 61.8353 270.588C61.4538 270.21 61.263 269.72 61.263 269.117V265.4H59.7923V264.514H61.263V263.049L62.4446 262.908V264.514H64.66L64.5246 265.4H62.4446V269.105C62.4446 269.462 62.5348 269.73 62.7153 269.911C62.9 270.091 63.2056 270.182 63.6323 270.182C63.8702 270.182 64.0897 270.155 64.2907 270.102C64.4959 270.044 64.6846 269.968 64.8569 269.874L65.3 270.668ZM68.3566 264.514V269.08C68.3566 269.49 68.4387 269.786 68.6028 269.966C68.771 270.143 69.0294 270.231 69.3781 270.231C69.7064 270.231 70.0202 270.134 70.3197 269.942C70.6233 269.749 70.8592 269.519 71.0274 269.252V264.514H72.2089V271H71.1935L71.1074 270.145C70.8571 270.473 70.5453 270.723 70.172 270.895C69.8028 271.068 69.4274 271.154 69.0458 271.154C68.4181 271.154 67.9484 270.984 67.6366 270.643C67.3289 270.303 67.1751 269.831 67.1751 269.228V264.514H68.3566ZM76.5887 270.212C77.0605 270.212 77.4317 270.126 77.7025 269.954C77.9774 269.782 78.1148 269.548 78.1148 269.252C78.1148 269.064 78.0779 268.904 78.004 268.772C77.9343 268.637 77.7866 268.514 77.561 268.403C77.3394 268.288 77.003 268.173 76.5517 268.058C76.1087 267.948 75.723 267.818 75.3948 267.671C75.0707 267.523 74.8184 267.33 74.6379 267.092C74.4615 266.854 74.3733 266.547 74.3733 266.169C74.3733 265.619 74.603 265.181 75.0625 264.852C75.522 264.524 76.1312 264.36 76.8902 264.36C77.4235 264.36 77.8871 264.432 78.281 264.575C78.6748 264.715 79.0112 264.887 79.2902 265.092L78.7856 265.862C78.5353 265.697 78.2605 265.562 77.961 265.455C77.6656 265.345 77.3169 265.289 76.9148 265.289C76.4348 265.289 76.0922 265.363 75.8871 265.511C75.6861 265.654 75.5856 265.845 75.5856 266.083C75.5856 266.264 75.6348 266.413 75.7333 266.532C75.8358 266.647 76.0102 266.754 76.2563 266.852C76.5025 266.947 76.843 267.053 77.2779 267.172C77.7005 267.287 78.0697 267.423 78.3856 267.578C78.7015 267.734 78.9456 267.939 79.1179 268.194C79.2943 268.444 79.3825 268.774 79.3825 269.185C79.3825 269.648 79.2492 270.026 78.9825 270.317C78.7158 270.604 78.3692 270.815 77.9425 270.951C77.5199 271.086 77.0687 271.154 76.5887 271.154C75.9979 271.154 75.4892 271.068 75.0625 270.895C74.6399 270.723 74.2851 270.512 73.9979 270.262L74.6502 269.511C74.9005 269.72 75.1897 269.89 75.5179 270.022C75.8502 270.149 76.2071 270.212 76.5887 270.212ZM82.9253 265.695C82.9253 265.408 83.0258 265.164 83.2268 264.963C83.4279 264.758 83.674 264.655 83.9653 264.655C84.2648 264.655 84.5151 264.758 84.7161 264.963C84.9171 265.164 85.0176 265.408 85.0176 265.695C85.0176 265.983 84.9171 266.229 84.7161 266.434C84.5151 266.639 84.2648 266.742 83.9653 266.742C83.674 266.742 83.4279 266.639 83.2268 266.434C83.0258 266.229 82.9253 265.983 82.9253 265.695ZM82.9253 270.102C82.9253 269.823 83.0258 269.581 83.2268 269.375C83.4279 269.17 83.674 269.068 83.9653 269.068C84.2648 269.068 84.5151 269.17 84.7161 269.375C84.9171 269.581 85.0176 269.823 85.0176 270.102C85.0176 270.393 84.9171 270.641 84.7161 270.846C84.5151 271.051 84.2648 271.154 83.9653 271.154C83.674 271.154 83.4279 271.051 83.2268 270.846C83.0258 270.641 82.9253 270.393 82.9253 270.102ZM101.432 266.766C101.432 267.628 101.314 268.389 101.076 269.049C100.838 269.71 100.483 270.227 100.011 270.6C99.5432 270.969 98.9607 271.154 98.2632 271.154C97.5658 271.154 96.9812 270.973 96.5094 270.612C96.0417 270.247 95.6889 269.736 95.4509 269.08C95.213 268.424 95.094 267.656 95.094 266.778C95.094 265.913 95.213 265.15 95.4509 264.489C95.6889 263.825 96.0417 263.306 96.5094 262.932C96.9812 262.555 97.5658 262.366 98.2632 262.366C98.9607 262.366 99.5432 262.549 100.011 262.914C100.483 263.279 100.838 263.792 101.076 264.452C101.314 265.113 101.432 265.884 101.432 266.766ZM100.159 266.766C100.159 265.65 100.011 264.803 99.7156 264.225C99.4243 263.646 98.9402 263.357 98.2632 263.357C97.5863 263.357 97.1002 263.648 96.8048 264.231C96.5135 264.813 96.3679 265.663 96.3679 266.778C96.3679 267.89 96.5176 268.733 96.8171 269.308C97.1207 269.878 97.6027 270.163 98.2632 270.163C98.9402 270.163 99.4243 269.876 99.7156 269.302C100.011 268.723 100.159 267.878 100.159 266.766ZM105.905 264.36C106.479 264.36 106.938 264.502 107.283 264.785C107.628 265.064 107.876 265.457 108.028 265.966C108.179 266.471 108.255 267.066 108.255 267.751C108.255 268.407 108.163 268.992 107.978 269.505C107.794 270.017 107.517 270.422 107.148 270.717C106.778 271.008 106.315 271.154 105.757 271.154C105.059 271.154 104.497 270.908 104.071 270.415V273.486L102.889 273.628V264.514H103.905L103.991 265.388C104.491 264.703 105.129 264.36 105.905 264.36ZM105.603 265.289C105.267 265.289 104.969 265.392 104.711 265.597C104.452 265.798 104.239 266.028 104.071 266.286V269.425C104.235 269.667 104.436 269.857 104.674 269.997C104.912 270.132 105.176 270.2 105.468 270.2C105.976 270.2 106.36 270.003 106.618 269.609C106.877 269.211 107.006 268.592 107.006 267.751C107.006 266.91 106.891 266.29 106.661 265.892C106.432 265.49 106.079 265.289 105.603 265.289ZM110.986 268.157C111.019 268.871 111.211 269.39 111.564 269.714C111.921 270.038 112.344 270.2 112.832 270.2C113.156 270.2 113.453 270.151 113.724 270.052C113.995 269.954 114.27 269.81 114.549 269.622L115.084 270.366C114.781 270.608 114.43 270.801 114.032 270.945C113.634 271.084 113.222 271.154 112.795 271.154C112.147 271.154 111.595 271.012 111.14 270.729C110.688 270.442 110.344 270.044 110.106 269.535C109.872 269.027 109.755 268.436 109.755 267.763C109.755 267.111 109.872 266.528 110.106 266.015C110.344 265.503 110.678 265.098 111.109 264.803C111.54 264.508 112.052 264.36 112.647 264.36C113.484 264.36 114.143 264.647 114.623 265.222C115.107 265.792 115.349 266.573 115.349 267.566C115.349 267.677 115.347 267.784 115.343 267.886C115.339 267.989 115.332 268.079 115.324 268.157H110.986ZM112.66 265.283C112.196 265.283 111.812 265.447 111.509 265.775C111.205 266.104 111.031 266.61 110.986 267.295H114.21C114.198 266.639 114.055 266.141 113.78 265.8C113.509 265.455 113.136 265.283 112.66 265.283ZM117.175 271V264.514H118.19L118.276 265.388C118.543 265.055 118.867 264.801 119.249 264.625C119.634 264.448 120.018 264.36 120.399 264.36C121.023 264.36 121.482 264.53 121.778 264.871C122.073 265.207 122.221 265.677 122.221 266.28V271H121.039V267.006C121.039 266.596 121.015 266.264 120.966 266.009C120.92 265.755 120.824 265.57 120.676 265.455C120.529 265.336 120.305 265.277 120.006 265.277C119.653 265.277 119.333 265.386 119.046 265.603C118.758 265.821 118.529 266.054 118.356 266.305V271H117.175ZM125.702 270.015C125.702 269.704 125.809 269.439 126.022 269.222C126.24 269.004 126.506 268.895 126.822 268.895C127.146 268.895 127.417 269.004 127.634 269.222C127.852 269.439 127.961 269.704 127.961 270.015C127.961 270.331 127.852 270.6 127.634 270.822C127.417 271.043 127.146 271.154 126.822 271.154C126.506 271.154 126.24 271.043 126.022 270.822C125.809 270.6 125.702 270.331 125.702 270.015ZM164.124 268.889H160.912L160.272 271H159.047L161.779 262.52H163.318L166.056 271H164.764L164.124 268.889ZM161.195 267.911H163.841L162.524 263.505L161.195 267.911ZM168.356 264.514V269.08C168.356 269.49 168.438 269.786 168.602 269.966C168.77 270.143 169.029 270.231 169.378 270.231C169.706 270.231 170.02 270.134 170.319 269.942C170.623 269.749 170.859 269.519 171.027 269.252V264.514H172.208V271H171.193L171.107 270.145C170.857 270.473 170.545 270.723 170.171 270.895C169.802 271.068 169.427 271.154 169.045 271.154C168.418 271.154 167.948 270.984 167.636 270.643C167.328 270.303 167.174 269.831 167.174 269.228V264.514H168.356ZM179.585 270.668C179.355 270.815 179.078 270.932 178.754 271.018C178.434 271.109 178.11 271.154 177.782 271.154C177.06 271.154 176.506 270.965 176.12 270.588C175.739 270.21 175.548 269.72 175.548 269.117V265.4H174.077V264.514H175.548V263.049L176.73 262.908V264.514H178.945L178.81 265.4H176.73V269.105C176.73 269.462 176.82 269.73 177 269.911C177.185 270.091 177.491 270.182 177.917 270.182C178.155 270.182 178.375 270.155 178.576 270.102C178.781 270.044 178.97 269.968 179.142 269.874L179.585 270.668ZM182.642 261.788V265.357C182.9 265.029 183.21 264.781 183.571 264.612C183.936 264.444 184.307 264.36 184.685 264.36C185.308 264.36 185.768 264.53 186.063 264.871C186.359 265.207 186.506 265.677 186.506 266.28V271H185.325V266.385C185.325 265.995 185.241 265.714 185.072 265.542C184.908 265.365 184.646 265.277 184.285 265.277C183.94 265.277 183.622 265.386 183.331 265.603C183.044 265.821 182.814 266.056 182.642 266.311V271H181.46V261.917L182.642 261.788ZM191.132 264.36C192.059 264.36 192.763 264.668 193.243 265.283C193.727 265.898 193.969 266.721 193.969 267.751C193.969 268.419 193.858 269.01 193.637 269.523C193.419 270.036 193.099 270.436 192.677 270.723C192.254 271.01 191.735 271.154 191.12 271.154C190.193 271.154 189.485 270.846 188.997 270.231C188.513 269.615 188.271 268.793 188.271 267.763C188.271 267.09 188.379 266.499 188.597 265.991C188.818 265.478 189.14 265.078 189.563 264.791C189.99 264.504 190.513 264.36 191.132 264.36ZM191.132 265.302C190.599 265.302 190.197 265.503 189.926 265.905C189.655 266.303 189.52 266.922 189.52 267.763C189.52 268.596 189.653 269.213 189.92 269.615C190.186 270.013 190.586 270.212 191.12 270.212C191.653 270.212 192.053 270.013 192.32 269.615C192.586 269.213 192.72 268.592 192.72 267.751C192.72 266.914 192.586 266.296 192.32 265.898C192.053 265.501 191.657 265.302 191.132 265.302ZM195.807 271V270.126H196.792V265.388H195.807V264.514H197.696L197.912 266.034C198.158 265.496 198.46 265.084 198.816 264.797C199.177 264.506 199.645 264.36 200.22 264.36C200.408 264.36 200.574 264.374 200.718 264.403C200.866 264.432 201.015 264.469 201.167 264.514L200.983 266.791H200.072V265.437H200.066C199.093 265.437 198.396 266.132 197.973 267.523V270.126H199.29V271H195.807ZM204.353 265.695C204.353 265.408 204.454 265.164 204.655 264.963C204.856 264.758 205.102 264.655 205.393 264.655C205.693 264.655 205.943 264.758 206.144 264.963C206.345 265.164 206.445 265.408 206.445 265.695C206.445 265.983 206.345 266.229 206.144 266.434C205.943 266.639 205.693 266.742 205.393 266.742C205.102 266.742 204.856 266.639 204.655 266.434C204.454 266.229 204.353 265.983 204.353 265.695ZM204.353 270.102C204.353 269.823 204.454 269.581 204.655 269.375C204.856 269.17 205.102 269.068 205.393 269.068C205.693 269.068 205.943 269.17 206.144 269.375C206.345 269.581 206.445 269.823 206.445 270.102C206.445 270.393 206.345 270.641 206.144 270.846C205.943 271.051 205.693 271.154 205.393 271.154C205.102 271.154 204.856 271.051 204.655 270.846C204.454 270.641 204.353 270.393 204.353 270.102ZM222.528 263.763L222.873 264.809C222.602 264.895 222.311 264.951 221.999 264.975C221.691 265 221.351 265.012 220.977 265.012C221.744 265.357 222.128 265.903 222.128 266.649C222.128 267.289 221.906 267.816 221.463 268.231C221.024 268.645 220.415 268.852 219.636 268.852C219.431 268.852 219.256 268.844 219.113 268.828C218.969 268.807 218.832 268.776 218.7 268.735C218.491 268.883 218.386 269.08 218.386 269.326C218.386 269.47 218.444 269.593 218.559 269.695C218.674 269.794 218.897 269.843 219.23 269.843H220.38C220.827 269.843 221.225 269.921 221.574 270.077C221.927 270.233 222.204 270.446 222.405 270.717C222.606 270.984 222.706 271.285 222.706 271.622C222.706 272.266 222.432 272.76 221.882 273.105C221.336 273.453 220.557 273.628 219.543 273.628C218.83 273.628 218.267 273.554 217.857 273.406C217.451 273.258 217.162 273.039 216.99 272.748C216.821 272.456 216.737 272.091 216.737 271.652H217.802C217.802 271.894 217.849 272.093 217.943 272.249C218.038 272.409 218.21 272.526 218.46 272.6C218.711 272.678 219.072 272.717 219.543 272.717C220.241 272.717 220.743 272.631 221.051 272.458C221.359 272.286 221.513 272.034 221.513 271.702C221.513 271.41 221.383 271.189 221.125 271.037C220.866 270.889 220.536 270.815 220.134 270.815H218.996C218.413 270.815 217.984 270.692 217.71 270.446C217.439 270.2 217.303 269.913 217.303 269.585C217.303 269.129 217.541 268.746 218.017 268.434C217.283 268.048 216.916 267.447 216.916 266.631C216.916 266.188 217.026 265.796 217.248 265.455C217.474 265.111 217.785 264.842 218.183 264.649C218.581 264.456 219.039 264.36 219.556 264.36C220.093 264.36 220.534 264.335 220.879 264.286C221.223 264.237 221.521 264.167 221.771 264.077C222.021 263.987 222.274 263.882 222.528 263.763ZM219.562 265.197C219.074 265.197 218.711 265.332 218.473 265.603C218.239 265.87 218.122 266.212 218.122 266.631C218.122 267.057 218.243 267.404 218.485 267.671C218.727 267.937 219.094 268.071 219.586 268.071C220.021 268.071 220.354 267.944 220.583 267.689C220.813 267.435 220.928 267.078 220.928 266.618C220.928 265.671 220.473 265.197 219.562 265.197ZM225.498 264.514V269.08C225.498 269.49 225.581 269.786 225.745 269.966C225.913 270.143 226.171 270.231 226.52 270.231C226.848 270.231 227.162 270.134 227.462 269.942C227.765 269.749 228.001 269.519 228.169 269.252V264.514H229.351V271H228.335L228.249 270.145C227.999 270.473 227.687 270.723 227.314 270.895C226.945 271.068 226.569 271.154 226.188 271.154C225.56 271.154 225.09 270.984 224.778 270.643C224.471 270.303 224.317 269.831 224.317 269.228V264.514H225.498ZM236.98 264.514L234.715 271.037C234.559 271.496 234.358 271.911 234.112 272.28C233.866 272.653 233.548 272.957 233.158 273.191C232.773 273.425 232.286 273.57 231.7 273.628L231.534 272.711C231.977 272.641 232.327 272.534 232.586 272.391C232.848 272.247 233.054 272.061 233.201 271.831C233.353 271.601 233.488 271.324 233.607 271H233.207L230.974 264.514H232.235L234.001 270.138L235.761 264.514H236.98ZM241.119 261.412C241.366 261.412 241.563 261.488 241.71 261.64C241.862 261.792 241.938 261.976 241.938 262.194C241.938 262.419 241.862 262.61 241.71 262.766C241.563 262.918 241.366 262.994 241.119 262.994C240.877 262.994 240.681 262.918 240.529 262.766C240.381 262.61 240.307 262.419 240.307 262.194C240.307 261.976 240.381 261.792 240.529 261.64C240.681 261.488 240.877 261.412 241.119 261.412ZM241.999 264.514V270.102H243.803V271H238.843V270.102H240.818V265.412H238.904V264.514H241.999ZM245.745 271V264.514H246.761L246.847 265.388C247.114 265.055 247.438 264.801 247.819 264.625C248.205 264.448 248.588 264.36 248.97 264.36C249.594 264.36 250.053 264.53 250.348 264.871C250.644 265.207 250.792 265.677 250.792 266.28V271H249.61V267.006C249.61 266.596 249.585 266.264 249.536 266.009C249.491 265.755 249.395 265.57 249.247 265.455C249.099 265.336 248.876 265.277 248.576 265.277C248.223 265.277 247.903 265.386 247.616 265.603C247.329 265.821 247.099 266.054 246.927 266.305V271H245.745ZM255.904 270.157C256.219 270.157 256.513 270.106 256.784 270.003C257.058 269.896 257.315 269.759 257.553 269.591L258.119 270.36C257.832 270.598 257.487 270.791 257.085 270.938C256.687 271.082 256.287 271.154 255.885 271.154C255.233 271.154 254.675 271.014 254.211 270.735C253.752 270.456 253.401 270.065 253.159 269.56C252.917 269.055 252.796 268.465 252.796 267.788C252.796 267.131 252.917 266.547 253.159 266.034C253.405 265.517 253.76 265.109 254.224 264.809C254.687 264.51 255.247 264.36 255.904 264.36C256.749 264.36 257.483 264.614 258.107 265.123L257.547 265.892C257.001 265.515 256.455 265.326 255.91 265.326C255.368 265.326 254.925 265.527 254.581 265.929C254.236 266.331 254.064 266.951 254.064 267.788C254.064 268.629 254.236 269.234 254.581 269.603C254.929 269.972 255.37 270.157 255.904 270.157ZM262.56 264.36C263.487 264.36 264.191 264.668 264.671 265.283C265.155 265.898 265.397 266.721 265.397 267.751C265.397 268.419 265.286 269.01 265.065 269.523C264.847 270.036 264.527 270.436 264.105 270.723C263.682 271.01 263.163 271.154 262.548 271.154C261.621 271.154 260.913 270.846 260.425 270.231C259.941 269.615 259.699 268.793 259.699 267.763C259.699 267.09 259.807 266.499 260.025 265.991C260.246 265.478 260.568 265.078 260.991 264.791C261.418 264.504 261.941 264.36 262.56 264.36ZM262.56 265.302C262.027 265.302 261.625 265.503 261.354 265.905C261.083 266.303 260.948 266.922 260.948 267.763C260.948 268.596 261.081 269.213 261.348 269.615C261.615 270.013 262.015 270.212 262.548 270.212C263.081 270.212 263.481 270.013 263.748 269.615C264.015 269.213 264.148 268.592 264.148 267.751C264.148 266.914 264.015 266.296 263.748 265.898C263.481 265.501 263.085 265.302 262.56 265.302ZM272.528 263.763L272.872 264.809C272.602 264.895 272.31 264.951 271.998 264.975C271.691 265 271.35 265.012 270.977 265.012C271.744 265.357 272.128 265.903 272.128 266.649C272.128 267.289 271.906 267.816 271.463 268.231C271.024 268.645 270.415 268.852 269.635 268.852C269.43 268.852 269.256 268.844 269.112 268.828C268.969 268.807 268.831 268.776 268.7 268.735C268.491 268.883 268.386 269.08 268.386 269.326C268.386 269.47 268.444 269.593 268.558 269.695C268.673 269.794 268.897 269.843 269.229 269.843H270.38C270.827 269.843 271.225 269.921 271.574 270.077C271.927 270.233 272.204 270.446 272.405 270.717C272.606 270.984 272.706 271.285 272.706 271.622C272.706 272.266 272.431 272.76 271.882 273.105C271.336 273.453 270.556 273.628 269.543 273.628C268.829 273.628 268.267 273.554 267.857 273.406C267.451 273.258 267.162 273.039 266.989 272.748C266.821 272.456 266.737 272.091 266.737 271.652H267.802C267.802 271.894 267.849 272.093 267.943 272.249C268.037 272.409 268.21 272.526 268.46 272.6C268.71 272.678 269.071 272.717 269.543 272.717C270.24 272.717 270.743 272.631 271.051 272.458C271.358 272.286 271.512 272.034 271.512 271.702C271.512 271.41 271.383 271.189 271.125 271.037C270.866 270.889 270.536 270.815 270.134 270.815H268.995C268.413 270.815 267.984 270.692 267.709 270.446C267.438 270.2 267.303 269.913 267.303 269.585C267.303 269.129 267.541 268.746 268.017 268.434C267.283 268.048 266.915 267.447 266.915 266.631C266.915 266.188 267.026 265.796 267.248 265.455C267.473 265.111 267.785 264.842 268.183 264.649C268.581 264.456 269.038 264.36 269.555 264.36C270.093 264.36 270.534 264.335 270.878 264.286C271.223 264.237 271.52 264.167 271.771 264.077C272.021 263.987 272.273 263.882 272.528 263.763ZM269.562 265.197C269.073 265.197 268.71 265.332 268.472 265.603C268.238 265.87 268.122 266.212 268.122 266.631C268.122 267.057 268.243 267.404 268.485 267.671C268.727 267.937 269.094 268.071 269.586 268.071C270.021 268.071 270.353 267.944 270.583 267.689C270.813 267.435 270.928 267.078 270.928 266.618C270.928 265.671 270.472 265.197 269.562 265.197ZM274.317 271V264.514H275.332L275.418 265.388C275.685 265.055 276.009 264.801 276.39 264.625C276.776 264.448 277.16 264.36 277.541 264.36C278.165 264.36 278.624 264.53 278.92 264.871C279.215 265.207 279.363 265.677 279.363 266.28V271H278.181V267.006C278.181 266.596 278.157 266.264 278.107 266.009C278.062 265.755 277.966 265.57 277.818 265.455C277.67 265.336 277.447 265.277 277.147 265.277C276.795 265.277 276.475 265.386 276.187 265.603C275.9 265.821 275.67 266.054 275.498 266.305V271H274.317ZM283.976 261.412C284.223 261.412 284.419 261.488 284.567 261.64C284.719 261.792 284.795 261.976 284.795 262.194C284.795 262.419 284.719 262.61 284.567 262.766C284.419 262.918 284.223 262.994 283.976 262.994C283.734 262.994 283.537 262.918 283.386 262.766C283.238 262.61 283.164 262.419 283.164 262.194C283.164 261.976 283.238 261.792 283.386 261.64C283.537 261.488 283.734 261.412 283.976 261.412ZM284.856 264.514V270.102H286.659V271H281.699V270.102H283.675V265.412H281.761V264.514H284.856ZM293.87 270.668C293.64 270.815 293.363 270.932 293.039 271.018C292.719 271.109 292.395 271.154 292.067 271.154C291.345 271.154 290.791 270.965 290.405 270.588C290.024 270.21 289.833 269.72 289.833 269.117V265.4H288.362V264.514H289.833V263.049L291.015 262.908V264.514H293.23L293.095 265.4H291.015V269.105C291.015 269.462 291.105 269.73 291.285 269.911C291.47 270.091 291.776 270.182 292.202 270.182C292.44 270.182 292.66 270.155 292.861 270.102C293.066 270.044 293.255 269.968 293.427 269.874L293.87 270.668ZM298.274 264.36C299.201 264.36 299.905 264.668 300.385 265.283C300.869 265.898 301.111 266.721 301.111 267.751C301.111 268.419 301 269.01 300.779 269.523C300.561 270.036 300.241 270.436 299.819 270.723C299.396 271.01 298.877 271.154 298.262 271.154C297.335 271.154 296.627 270.846 296.139 270.231C295.655 269.615 295.413 268.793 295.413 267.763C295.413 267.09 295.521 266.499 295.739 265.991C295.96 265.478 296.283 265.078 296.705 264.791C297.132 264.504 297.655 264.36 298.274 264.36ZM298.274 265.302C297.741 265.302 297.339 265.503 297.068 265.905C296.797 266.303 296.662 266.922 296.662 267.763C296.662 268.596 296.795 269.213 297.062 269.615C297.329 270.013 297.729 270.212 298.262 270.212C298.795 270.212 299.195 270.013 299.462 269.615C299.729 269.213 299.862 268.592 299.862 267.751C299.862 266.914 299.729 266.296 299.462 265.898C299.195 265.501 298.799 265.302 298.274 265.302ZM304.272 270.015C304.272 269.704 304.379 269.439 304.592 269.222C304.81 269.004 305.077 268.895 305.392 268.895C305.717 268.895 305.987 269.004 306.205 269.222C306.422 269.439 306.531 269.704 306.531 270.015C306.531 270.331 306.422 270.6 306.205 270.822C305.987 271.043 305.717 271.154 305.392 271.154C305.077 271.154 304.81 271.043 304.592 270.822C304.379 270.6 304.272 270.331 304.272 270.015ZM322.552 262.52L323.032 271H321.887L321.647 266.698C321.627 266.296 321.612 265.896 321.604 265.498C321.596 265.101 321.592 264.737 321.592 264.409C321.596 264.077 321.602 263.812 321.61 263.615L320.257 269.492H319.112L317.66 263.615C317.672 263.804 317.68 264.071 317.684 264.415C317.692 264.76 317.695 265.135 317.69 265.542C317.69 265.944 317.684 266.329 317.672 266.698L317.469 271H316.349L316.829 262.52H318.41L319.715 268.274L320.958 262.52H322.552ZM326.846 264.36C327.773 264.36 328.476 264.668 328.956 265.283C329.44 265.898 329.682 266.721 329.682 267.751C329.682 268.419 329.572 269.01 329.35 269.523C329.133 270.036 328.813 270.436 328.39 270.723C327.968 271.01 327.449 271.154 326.833 271.154C325.906 271.154 325.198 270.846 324.71 270.231C324.226 269.615 323.984 268.793 323.984 267.763C323.984 267.09 324.093 266.499 324.31 265.991C324.532 265.478 324.854 265.078 325.276 264.791C325.703 264.504 326.226 264.36 326.846 264.36ZM326.846 265.302C326.312 265.302 325.91 265.503 325.639 265.905C325.369 266.303 325.233 266.922 325.233 267.763C325.233 268.596 325.367 269.213 325.633 269.615C325.9 270.013 326.3 270.212 326.833 270.212C327.367 270.212 327.767 270.013 328.033 269.615C328.3 269.213 328.433 268.592 328.433 267.751C328.433 266.914 328.3 266.296 328.033 265.898C327.767 265.501 327.371 265.302 326.846 265.302ZM331.521 271V270.126H332.505V265.388H331.521V264.514H333.41L333.625 266.034C333.871 265.496 334.173 265.084 334.53 264.797C334.891 264.506 335.359 264.36 335.933 264.36C336.122 264.36 336.288 264.374 336.431 264.403C336.579 264.432 336.729 264.469 336.881 264.514L336.696 266.791H335.785V265.437H335.779C334.807 265.437 334.109 266.132 333.687 267.523V270.126H335.004V271H331.521ZM339.556 268.157C339.589 268.871 339.781 269.39 340.134 269.714C340.491 270.038 340.914 270.2 341.402 270.2C341.726 270.2 342.023 270.151 342.294 270.052C342.565 269.954 342.84 269.81 343.119 269.622L343.654 270.366C343.351 270.608 343 270.801 342.602 270.945C342.204 271.084 341.792 271.154 341.365 271.154C340.717 271.154 340.165 271.012 339.71 270.729C339.258 270.442 338.914 270.044 338.676 269.535C338.442 269.027 338.325 268.436 338.325 267.763C338.325 267.111 338.442 266.528 338.676 266.015C338.914 265.503 339.248 265.098 339.679 264.803C340.11 264.508 340.622 264.36 341.217 264.36C342.054 264.36 342.713 264.647 343.193 265.222C343.677 265.792 343.919 266.573 343.919 267.566C343.919 267.677 343.917 267.784 343.913 267.886C343.909 267.989 343.902 268.079 343.894 268.157H339.556ZM341.23 265.283C340.766 265.283 340.382 265.447 340.079 265.775C339.775 266.104 339.601 266.61 339.556 267.295H342.78C342.768 266.639 342.625 266.141 342.35 265.8C342.079 265.455 341.706 265.283 341.23 265.283ZM355.404 261.412C355.651 261.412 355.848 261.488 355.995 261.64C356.147 261.792 356.223 261.976 356.223 262.194C356.223 262.419 356.147 262.61 355.995 262.766C355.848 262.918 355.651 262.994 355.404 262.994C355.162 262.994 354.966 262.918 354.814 262.766C354.666 262.61 354.592 262.419 354.592 262.194C354.592 261.976 354.666 261.792 354.814 261.64C354.966 261.488 355.162 261.412 355.404 261.412ZM356.284 264.514V270.102H358.088V271H353.128V270.102H355.103V265.412H353.189V264.514H356.284ZM360.03 271V264.514H361.046L361.132 265.388C361.399 265.055 361.723 264.801 362.104 264.625C362.49 264.448 362.873 264.36 363.255 264.36C363.879 264.36 364.338 264.53 364.633 264.871C364.929 265.207 365.077 265.677 365.077 266.28V271H363.895V267.006C363.895 266.596 363.87 266.264 363.821 266.009C363.776 265.755 363.68 265.57 363.532 265.455C363.384 265.336 363.161 265.277 362.861 265.277C362.508 265.277 362.188 265.386 361.901 265.603C361.614 265.821 361.384 266.054 361.212 266.305V271H360.03ZM371.056 261.763C371.425 261.763 371.758 261.796 372.053 261.862C372.349 261.923 372.628 262.011 372.89 262.126L372.521 262.975C372.312 262.881 372.088 262.813 371.85 262.772C371.616 262.727 371.376 262.705 371.13 262.705C370.252 262.705 369.813 263.055 369.813 263.757V265H372.004L371.875 265.898H369.813V271H368.638V265.898H367.118V265H368.638V263.763C368.638 263.361 368.74 263.01 368.945 262.711C369.155 262.411 369.44 262.179 369.801 262.015C370.166 261.847 370.584 261.763 371.056 261.763ZM376.845 264.36C377.772 264.36 378.476 264.668 378.956 265.283C379.44 265.898 379.682 266.721 379.682 267.751C379.682 268.419 379.571 269.01 379.35 269.523C379.132 270.036 378.812 270.436 378.39 270.723C377.967 271.01 377.448 271.154 376.833 271.154C375.906 271.154 375.198 270.846 374.71 270.231C374.226 269.615 373.984 268.793 373.984 267.763C373.984 267.09 374.092 266.499 374.31 265.991C374.531 265.478 374.853 265.078 375.276 264.791C375.703 264.504 376.226 264.36 376.845 264.36ZM376.845 265.302C376.312 265.302 375.91 265.503 375.639 265.905C375.368 266.303 375.233 266.922 375.233 267.763C375.233 268.596 375.366 269.213 375.633 269.615C375.9 270.013 376.3 270.212 376.833 270.212C377.366 270.212 377.766 270.013 378.033 269.615C378.3 269.213 378.433 268.592 378.433 267.751C378.433 266.914 378.3 266.296 378.033 265.898C377.766 265.501 377.37 265.302 376.845 265.302ZM381.52 271V270.126H382.505V265.388H381.52V264.514H383.41L383.625 266.034C383.871 265.496 384.173 265.084 384.53 264.797C384.891 264.506 385.358 264.36 385.933 264.36C386.121 264.36 386.288 264.374 386.431 264.403C386.579 264.432 386.729 264.469 386.88 264.514L386.696 266.791H385.785V265.437H385.779C384.807 265.437 384.109 266.132 383.687 267.523V270.126H385.003V271H381.52ZM392.965 264.36C393.186 264.36 393.393 264.409 393.586 264.508C393.783 264.606 393.941 264.787 394.06 265.049C394.179 265.308 394.239 265.683 394.239 266.175V271H393.162V266.348C393.162 265.97 393.137 265.699 393.088 265.535C393.043 265.367 392.911 265.283 392.694 265.283C392.513 265.283 392.333 265.338 392.152 265.449C391.976 265.56 391.804 265.745 391.635 266.003V271H390.602V266.348C390.602 265.97 390.577 265.699 390.528 265.535C390.483 265.367 390.351 265.283 390.134 265.283C389.949 265.283 389.769 265.338 389.592 265.449C389.416 265.56 389.244 265.745 389.075 266.003V271H387.999V264.514H388.909L388.983 265.24C389.164 264.99 389.363 264.781 389.58 264.612C389.802 264.444 390.07 264.36 390.386 264.36C390.632 264.36 390.86 264.419 391.069 264.538C391.283 264.657 391.439 264.879 391.537 265.203C391.713 264.953 391.914 264.75 392.14 264.594C392.366 264.438 392.641 264.36 392.965 264.36ZM400.526 269.511C400.526 269.769 400.567 269.958 400.649 270.077C400.731 270.192 400.86 270.278 401.037 270.335L400.76 271.148C400.464 271.111 400.206 271.023 399.984 270.883C399.767 270.744 399.607 270.53 399.504 270.243C399.271 270.547 398.975 270.774 398.618 270.926C398.261 271.078 397.874 271.154 397.455 271.154C396.803 271.154 396.288 270.969 395.911 270.6C395.533 270.231 395.344 269.745 395.344 269.142C395.344 268.469 395.607 267.952 396.132 267.591C396.661 267.226 397.42 267.043 398.409 267.043H399.351V266.551C399.351 266.104 399.217 265.786 398.951 265.597C398.688 265.408 398.321 265.314 397.849 265.314C397.632 265.314 397.375 265.341 397.08 265.394C396.789 265.447 396.477 265.531 396.144 265.646L395.843 264.785C396.241 264.633 396.624 264.524 396.994 264.458C397.363 264.393 397.708 264.36 398.028 264.36C398.86 264.36 399.484 264.551 399.898 264.932C400.317 265.314 400.526 265.833 400.526 266.489V269.511ZM397.788 270.268C398.087 270.268 398.376 270.19 398.655 270.034C398.938 269.878 399.17 269.661 399.351 269.382V267.812H398.489C397.804 267.812 397.318 267.929 397.031 268.163C396.743 268.393 396.6 268.709 396.6 269.111C396.6 269.882 396.996 270.268 397.788 270.268ZM408.155 270.668C407.925 270.815 407.648 270.932 407.324 271.018C407.004 271.109 406.68 271.154 406.352 271.154C405.63 271.154 405.076 270.965 404.69 270.588C404.309 270.21 404.118 269.72 404.118 269.117V265.4H402.647V264.514H404.118V263.049L405.3 262.908V264.514H407.515L407.38 265.4H405.3V269.105C405.3 269.462 405.39 269.73 405.57 269.911C405.755 270.091 406.061 270.182 406.487 270.182C406.725 270.182 406.945 270.155 407.146 270.102C407.351 270.044 407.54 269.968 407.712 269.874L408.155 270.668ZM412.547 261.412C412.793 261.412 412.99 261.488 413.138 261.64C413.29 261.792 413.365 261.976 413.365 262.194C413.365 262.419 413.29 262.61 413.138 262.766C412.99 262.918 412.793 262.994 412.547 262.994C412.305 262.994 412.108 262.918 411.956 262.766C411.809 262.61 411.735 262.419 411.735 262.194C411.735 261.976 411.809 261.792 411.956 261.64C412.108 261.488 412.305 261.412 412.547 261.412ZM413.427 264.514V270.102H415.23V271H410.27V270.102H412.245V265.412H410.332V264.514H413.427ZM419.702 264.36C420.629 264.36 421.333 264.668 421.813 265.283C422.297 265.898 422.539 266.721 422.539 267.751C422.539 268.419 422.428 269.01 422.207 269.523C421.989 270.036 421.669 270.436 421.247 270.723C420.824 271.01 420.305 271.154 419.69 271.154C418.763 271.154 418.055 270.846 417.567 270.231C417.083 269.615 416.841 268.793 416.841 267.763C416.841 267.09 416.949 266.499 417.167 265.991C417.388 265.478 417.71 265.078 418.133 264.791C418.56 264.504 419.083 264.36 419.702 264.36ZM419.702 265.302C419.169 265.302 418.767 265.503 418.496 265.905C418.225 266.303 418.09 266.922 418.09 267.763C418.09 268.596 418.223 269.213 418.49 269.615C418.756 270.013 419.156 270.212 419.69 270.212C420.223 270.212 420.623 270.013 420.89 269.615C421.156 269.213 421.29 268.592 421.29 267.751C421.29 266.914 421.156 266.296 420.89 265.898C420.623 265.501 420.227 265.302 419.702 265.302ZM424.316 271V264.514H425.331L425.417 265.388C425.684 265.055 426.008 264.801 426.39 264.625C426.775 264.448 427.159 264.36 427.54 264.36C428.164 264.36 428.623 264.53 428.919 264.871C429.214 265.207 429.362 265.677 429.362 266.28V271H428.18V267.006C428.18 266.596 428.156 266.264 428.106 266.009C428.061 265.755 427.965 265.57 427.817 265.455C427.67 265.336 427.446 265.277 427.146 265.277C426.794 265.277 426.474 265.386 426.186 265.603C425.899 265.821 425.67 266.054 425.497 266.305V271H424.316ZM21.9569 287.511C21.9569 287.769 21.9979 287.958 22.08 288.077C22.1621 288.192 22.2913 288.278 22.4677 288.335L22.1908 289.148C21.8954 289.111 21.6369 289.023 21.4154 288.883C21.1979 288.744 21.0379 288.53 20.9354 288.243C20.7015 288.547 20.4062 288.774 20.0492 288.926C19.6923 289.078 19.3046 289.154 18.8862 289.154C18.2338 289.154 17.719 288.969 17.3415 288.6C16.9641 288.231 16.7754 287.745 16.7754 287.142C16.7754 286.469 17.0379 285.952 17.5631 285.591C18.0923 285.226 18.8513 285.043 19.84 285.043H20.7815V284.551C20.7815 284.104 20.6482 283.786 20.3815 283.597C20.119 283.408 19.7518 283.314 19.28 283.314C19.0626 283.314 18.8062 283.341 18.5108 283.394C18.2195 283.447 17.9077 283.531 17.5754 283.646L17.2738 282.785C17.6718 282.633 18.0554 282.524 18.4246 282.458C18.7938 282.393 19.1385 282.36 19.4585 282.36C20.2913 282.36 20.9149 282.551 21.3292 282.932C21.7477 283.314 21.9569 283.833 21.9569 284.489V287.511ZM19.2185 288.268C19.5179 288.268 19.8072 288.19 20.0862 288.034C20.3692 287.878 20.601 287.661 20.7815 287.382V285.812H19.92C19.2349 285.812 18.7487 285.929 18.4615 286.163C18.1744 286.393 18.0308 286.709 18.0308 287.111C18.0308 287.882 18.4267 288.268 19.2185 288.268ZM29.8444 282.514L27.5182 289H26.1397L23.8259 282.514H25.0813L26.8597 287.972L28.632 282.514H29.8444ZM36.2425 287.511C36.2425 287.769 36.2836 287.958 36.3656 288.077C36.4477 288.192 36.5769 288.278 36.7533 288.335L36.4764 289.148C36.181 289.111 35.9225 289.023 35.701 288.883C35.4836 288.744 35.3236 288.53 35.221 288.243C34.9872 288.547 34.6918 288.774 34.3349 288.926C33.9779 289.078 33.5902 289.154 33.1718 289.154C32.5195 289.154 32.0046 288.969 31.6272 288.6C31.2497 288.231 31.061 287.745 31.061 287.142C31.061 286.469 31.3236 285.952 31.8487 285.591C32.3779 285.226 33.1369 285.043 34.1256 285.043H35.0672V284.551C35.0672 284.104 34.9338 283.786 34.6672 283.597C34.4046 283.408 34.0374 283.314 33.5656 283.314C33.3482 283.314 33.0918 283.341 32.7964 283.394C32.5051 283.447 32.1933 283.531 31.861 283.646L31.5595 282.785C31.9574 282.633 32.341 282.524 32.7102 282.458C33.0795 282.393 33.4241 282.36 33.7441 282.36C34.5769 282.36 35.2005 282.551 35.6149 282.932C36.0333 283.314 36.2425 283.833 36.2425 284.489V287.511ZM33.5041 288.268C33.8036 288.268 34.0928 288.19 34.3718 288.034C34.6549 287.878 34.8867 287.661 35.0672 287.382V285.812H34.2056C33.5205 285.812 33.0343 285.929 32.7472 286.163C32.46 286.393 32.3164 286.709 32.3164 287.111C32.3164 287.882 32.7123 288.268 33.5041 288.268ZM41.1207 279.412C41.3669 279.412 41.5638 279.488 41.7115 279.64C41.8633 279.792 41.9392 279.976 41.9392 280.194C41.9392 280.419 41.8633 280.61 41.7115 280.766C41.5638 280.918 41.3669 280.994 41.1207 280.994C40.8787 280.994 40.6818 280.918 40.53 280.766C40.3823 280.61 40.3084 280.419 40.3084 280.194C40.3084 279.976 40.3823 279.792 40.53 279.64C40.6818 279.488 40.8787 279.412 41.1207 279.412ZM42.0007 282.514V288.102H43.8038V289H38.8438V288.102H40.8192V283.412H38.9054V282.514H42.0007ZM48.4113 279.905V287.326C48.4113 287.638 48.5077 287.859 48.7005 287.991C48.8933 288.118 49.1415 288.182 49.4451 288.182C49.6379 288.182 49.8205 288.163 49.9928 288.126C50.1692 288.085 50.3415 288.03 50.5097 287.96L50.8174 288.803C50.6369 288.897 50.4113 288.979 50.1405 289.049C49.8697 289.119 49.5641 289.154 49.2236 289.154C48.6123 289.154 48.1261 288.984 47.7651 288.643C47.4082 288.303 47.2297 287.835 47.2297 287.24V280.803H45.2543V279.905H48.4113ZM57.671 287.511C57.671 287.769 57.712 287.958 57.7941 288.077C57.8761 288.192 58.0053 288.278 58.1818 288.335L57.9048 289.148C57.6094 289.111 57.351 289.023 57.1294 288.883C56.912 288.744 56.752 288.53 56.6494 288.243C56.4156 288.547 56.1202 288.774 55.7633 288.926C55.4064 289.078 55.0187 289.154 54.6002 289.154C53.9479 289.154 53.433 288.969 53.0556 288.6C52.6782 288.231 52.4894 287.745 52.4894 287.142C52.4894 286.469 52.752 285.952 53.2771 285.591C53.8064 285.226 54.5653 285.043 55.5541 285.043H56.4956V284.551C56.4956 284.104 56.3623 283.786 56.0956 283.597C55.833 283.408 55.4659 283.314 54.9941 283.314C54.7766 283.314 54.5202 283.341 54.2248 283.394C53.9335 283.447 53.6218 283.531 53.2894 283.646L52.9879 282.785C53.3859 282.633 53.7694 282.524 54.1387 282.458C54.5079 282.393 54.8525 282.36 55.1725 282.36C56.0053 282.36 56.6289 282.551 57.0433 282.932C57.4618 283.314 57.671 283.833 57.671 284.489V287.511ZM54.9325 288.268C55.232 288.268 55.5212 288.19 55.8002 288.034C56.0833 287.878 56.3151 287.661 56.4956 287.382V285.812H55.6341C54.9489 285.812 54.4628 285.929 54.1756 286.163C53.8884 286.393 53.7448 286.709 53.7448 287.111C53.7448 287.882 54.1407 288.268 54.9325 288.268ZM61.2138 283.326C61.4435 283.023 61.7123 282.787 62.02 282.618C62.3317 282.446 62.6702 282.36 63.0353 282.36C63.6097 282.36 64.0753 282.502 64.4323 282.785C64.7892 283.064 65.0497 283.457 65.2138 283.966C65.3779 284.471 65.46 285.066 65.46 285.751C65.46 286.407 65.3615 286.992 65.1646 287.505C64.9676 288.017 64.6784 288.422 64.2969 288.717C63.9153 289.008 63.4456 289.154 62.8876 289.154C62.1451 289.154 61.5646 288.883 61.1461 288.342L61.0723 289H60.0323V279.905L61.2138 279.763V283.326ZM62.5984 288.225C63.1071 288.225 63.4989 288.024 63.7738 287.622C64.0528 287.215 64.1923 286.592 64.1923 285.751C64.1923 284.91 64.0671 284.29 63.8169 283.892C63.5707 283.49 63.2138 283.289 62.7461 283.289C62.4097 283.289 62.1123 283.392 61.8538 283.597C61.5953 283.798 61.382 284.028 61.2138 284.286V287.425C61.3779 287.671 61.5789 287.866 61.8169 288.009C62.0548 288.153 62.3153 288.225 62.5984 288.225ZM69.8397 279.905V287.326C69.8397 287.638 69.9361 287.859 70.1289 287.991C70.3217 288.118 70.5699 288.182 70.8735 288.182C71.0664 288.182 71.2489 288.163 71.4212 288.126C71.5976 288.085 71.7699 288.03 71.9381 287.96L72.2458 288.803C72.0653 288.897 71.8397 288.979 71.5689 289.049C71.2981 289.119 70.9925 289.154 70.652 289.154C70.0407 289.154 69.5546 288.984 69.1935 288.643C68.8366 288.303 68.6581 287.835 68.6581 287.24V280.803H66.6828V279.905H69.8397ZM75.2717 286.157C75.3046 286.871 75.4974 287.39 75.8502 287.714C76.2071 288.038 76.6297 288.2 77.1179 288.2C77.442 288.2 77.7394 288.151 78.0102 288.052C78.281 287.954 78.5558 287.81 78.8348 287.622L79.3702 288.366C79.0666 288.608 78.7158 288.801 78.3179 288.945C77.9199 289.084 77.5076 289.154 77.081 289.154C76.4328 289.154 75.881 289.012 75.4256 288.729C74.9743 288.442 74.6297 288.044 74.3917 287.535C74.1579 287.027 74.041 286.436 74.041 285.763C74.041 285.111 74.1579 284.528 74.3917 284.015C74.6297 283.503 74.964 283.098 75.3948 282.803C75.8256 282.508 76.3384 282.36 76.9333 282.36C77.7702 282.36 78.4287 282.647 78.9087 283.222C79.3928 283.792 79.6348 284.573 79.6348 285.566C79.6348 285.677 79.6328 285.784 79.6287 285.886C79.6246 285.989 79.6184 286.079 79.6102 286.157H75.2717ZM76.9456 283.283C76.482 283.283 76.0984 283.447 75.7948 283.775C75.4912 284.104 75.3169 284.61 75.2717 285.295H78.4963C78.484 284.639 78.3405 284.141 78.0656 283.8C77.7948 283.455 77.4215 283.283 76.9456 283.283ZM89.785 283.326C90.0148 283.023 90.2835 282.787 90.5912 282.618C90.903 282.446 91.2415 282.36 91.6066 282.36C92.1809 282.36 92.6466 282.502 93.0035 282.785C93.3604 283.064 93.6209 283.457 93.785 283.966C93.9491 284.471 94.0312 285.066 94.0312 285.751C94.0312 286.407 93.9327 286.992 93.7358 287.505C93.5389 288.017 93.2497 288.422 92.8681 288.717C92.4866 289.008 92.0168 289.154 91.4589 289.154C90.7163 289.154 90.1358 288.883 89.7174 288.342L89.6435 289H88.6035V279.905L89.785 279.763V283.326ZM91.1697 288.225C91.6784 288.225 92.0702 288.024 92.345 287.622C92.624 287.215 92.7635 286.592 92.7635 285.751C92.7635 284.91 92.6384 284.29 92.3881 283.892C92.142 283.49 91.785 283.289 91.3174 283.289C90.9809 283.289 90.6835 283.392 90.425 283.597C90.1666 283.798 89.9533 284.028 89.785 284.286V287.425C89.9491 287.671 90.1502 287.866 90.3881 288.009C90.6261 288.153 90.8866 288.225 91.1697 288.225ZM96.7002 286.157C96.733 286.871 96.9258 287.39 97.2786 287.714C97.6356 288.038 98.0581 288.2 98.5463 288.2C98.8704 288.2 99.1679 288.151 99.4386 288.052C99.7094 287.954 99.9843 287.81 100.263 287.622L100.799 288.366C100.495 288.608 100.144 288.801 99.7463 288.945C99.3484 289.084 98.9361 289.154 98.5094 289.154C97.8612 289.154 97.3094 289.012 96.854 288.729C96.4027 288.442 96.0581 288.044 95.8202 287.535C95.5863 287.027 95.4694 286.436 95.4694 285.763C95.4694 285.111 95.5863 284.528 95.8202 284.015C96.0581 283.503 96.3925 283.098 96.8232 282.803C97.254 282.508 97.7668 282.36 98.3617 282.36C99.1986 282.36 99.8571 282.647 100.337 283.222C100.821 283.792 101.063 284.573 101.063 285.566C101.063 285.677 101.061 285.784 101.057 285.886C101.053 285.989 101.047 286.079 101.039 286.157H96.7002ZM98.374 283.283C97.9104 283.283 97.5268 283.447 97.2232 283.775C96.9197 284.104 96.7453 284.61 96.7002 285.295H99.9248C99.9125 284.639 99.7689 284.141 99.494 283.8C99.2232 283.455 98.8499 283.283 98.374 283.283ZM105.554 279.905V287.326C105.554 287.638 105.65 287.859 105.843 287.991C106.036 288.118 106.284 288.182 106.588 288.182C106.78 288.182 106.963 288.163 107.135 288.126C107.312 288.085 107.484 288.03 107.652 287.96L107.96 288.803C107.779 288.897 107.554 288.979 107.283 289.049C107.012 289.119 106.707 289.154 106.366 289.154C105.755 289.154 105.269 288.984 104.908 288.643C104.551 288.303 104.372 287.835 104.372 287.24V280.803H102.397V279.905H105.554ZM112.561 282.36C113.488 282.36 114.192 282.668 114.672 283.283C115.156 283.898 115.398 284.721 115.398 285.751C115.398 286.419 115.287 287.01 115.066 287.523C114.848 288.036 114.528 288.436 114.106 288.723C113.683 289.01 113.164 289.154 112.549 289.154C111.622 289.154 110.914 288.846 110.426 288.231C109.942 287.615 109.7 286.793 109.7 285.763C109.7 285.09 109.808 284.499 110.026 283.991C110.247 283.478 110.569 283.078 110.992 282.791C111.419 282.504 111.942 282.36 112.561 282.36ZM112.561 283.302C112.028 283.302 111.626 283.503 111.355 283.905C111.084 284.303 110.949 284.922 110.949 285.763C110.949 286.596 111.082 287.213 111.349 287.615C111.616 288.013 112.016 288.212 112.549 288.212C113.082 288.212 113.482 288.013 113.749 287.615C114.016 287.213 114.149 286.592 114.149 285.751C114.149 284.914 114.016 284.296 113.749 283.898C113.482 283.501 113.086 283.302 112.561 283.302ZM122.098 289H120.522L119.729 284.305L118.873 289H117.335L116.184 282.514H117.359L118.122 288.268L119.101 283.338H120.393L121.31 288.268L122.073 282.514H123.199L122.098 289ZM125.702 288.015C125.702 287.704 125.809 287.439 126.022 287.222C126.24 287.004 126.506 286.895 126.822 286.895C127.146 286.895 127.417 287.004 127.634 287.222C127.852 287.439 127.961 287.704 127.961 288.015C127.961 288.331 127.852 288.6 127.634 288.822C127.417 289.043 127.146 289.154 126.822 289.154C126.506 289.154 126.24 289.043 126.022 288.822C125.809 288.6 125.702 288.331 125.702 288.015Z" fill="#F8F8F2"/>
<ellipse cx="23" cy="249" rx="7" ry="7" fill="#E0EFFC"/>
<path d="M23.9787 245.455V252H23.1861V246.286H23.1477L21.5497 247.347V246.541L23.1861 245.455H23.9787Z" fill="#2B2B2B"/>
<ellipse cx="23" cy="266" rx="7" ry="7" fill="#E0EFFC"/>
<path d="M21.1776 269V268.425L23.3381 266.06C23.5916 265.783 23.8004 265.542 23.9645 265.337C24.1286 265.131 24.25 264.937 24.3288 264.756C24.4098 264.572 24.4503 264.381 24.4503 264.18C24.4503 263.95 24.3949 263.751 24.2841 263.583C24.1754 263.414 24.0263 263.284 23.8366 263.193C23.647 263.101 23.4339 263.055 23.1974 263.055C22.946 263.055 22.7266 263.108 22.5391 263.212C22.3537 263.314 22.2099 263.458 22.1076 263.643C22.0075 263.829 21.9574 264.046 21.9574 264.295H21.2031C21.2031 263.912 21.2915 263.575 21.4684 263.286C21.6452 262.996 21.886 262.77 22.1907 262.608C22.4975 262.446 22.8416 262.365 23.223 262.365C23.6065 262.365 23.9464 262.446 24.2425 262.608C24.5387 262.77 24.771 262.988 24.9393 263.263C25.1076 263.538 25.1918 263.844 25.1918 264.18C25.1918 264.421 25.1481 264.657 25.0607 264.887C24.9755 265.115 24.8263 265.369 24.6133 265.651C24.4023 265.93 24.1094 266.271 23.7344 266.673L22.2642 268.246V268.297H25.3068V269H21.1776Z" fill="#2B2B2B"/>
<ellipse cx="144" cy="266" rx="7" ry="7" fill="#E0EFFC"/>
<path d="M143.889 269.089C143.467 269.089 143.091 269.017 142.761 268.872C142.433 268.727 142.172 268.526 141.978 268.268C141.786 268.008 141.682 267.707 141.665 267.364H142.47C142.487 267.575 142.56 267.757 142.688 267.91C142.815 268.061 142.983 268.179 143.189 268.262C143.396 268.345 143.625 268.386 143.876 268.386C144.158 268.386 144.407 268.337 144.624 268.239C144.842 268.141 145.012 268.005 145.136 267.83C145.259 267.656 145.321 267.453 145.321 267.223C145.321 266.982 145.261 266.77 145.142 266.587C145.023 266.402 144.848 266.257 144.618 266.152C144.388 266.048 144.107 265.996 143.774 265.996H143.25V265.293H143.774C144.034 265.293 144.262 265.246 144.458 265.152C144.656 265.058 144.811 264.926 144.922 264.756C145.034 264.585 145.091 264.385 145.091 264.155C145.091 263.933 145.042 263.74 144.944 263.576C144.846 263.412 144.707 263.284 144.528 263.193C144.352 263.101 144.143 263.055 143.902 263.055C143.676 263.055 143.463 263.097 143.263 263.18C143.065 263.261 142.903 263.379 142.777 263.535C142.651 263.688 142.583 263.874 142.572 264.091H141.805C141.818 263.748 141.922 263.447 142.115 263.19C142.309 262.93 142.563 262.727 142.876 262.582C143.191 262.437 143.538 262.365 143.915 262.365C144.32 262.365 144.667 262.447 144.957 262.611C145.246 262.773 145.469 262.987 145.625 263.254C145.78 263.52 145.858 263.808 145.858 264.116C145.858 264.485 145.761 264.799 145.567 265.059C145.375 265.319 145.114 265.499 144.784 265.599V265.651C145.197 265.719 145.52 265.895 145.752 266.178C145.985 266.459 146.101 266.808 146.101 267.223C146.101 267.579 146.004 267.898 145.81 268.182C145.618 268.463 145.356 268.685 145.024 268.847C144.691 269.009 144.313 269.089 143.889 269.089Z" fill="#2B2B2B"/>
<rect x="1.5" y="37.5" width="447" height="161" rx="5.5" fill="#F3F3F3" fill-opacity="0.25" stroke="#F3F3F3" stroke-width="3"/>
<rect x="77.5" y="52.5" width="293" height="37" rx="5.5" fill="#83C0F3" stroke="#83C0F3"/>
<rect x="77.5" y="130.5" width="124" height="15" rx="5.5" fill="#83C0F3" stroke="#83C0F3"/>
<rect x="210" y="130" width="70" height="16" rx="6" fill="#CCCCCC"/>
<circle cx="38.5" cy="83.5" r="22.5" fill="#83C0F3"/>
<path d="M210.469 3.27273V12H209.148V4.59375H209.097L207.009 5.95739V4.69602L209.186 3.27273H210.469ZM212.943 12.081C212.71 12.081 212.509 11.9986 212.342 11.8338C212.174 11.6662 212.09 11.4645 212.09 11.2287C212.09 10.9957 212.174 10.7969 212.342 10.6321C212.509 10.4645 212.71 10.3807 212.943 10.3807C213.175 10.3807 213.376 10.4645 213.543 10.6321C213.711 10.7969 213.795 10.9957 213.795 11.2287C213.795 11.3849 213.755 11.5284 213.675 11.6591C213.599 11.7869 213.496 11.8892 213.369 11.9659C213.241 12.0426 213.099 12.081 212.943 12.081ZM217.728 4.40625V3.27273H224.483V4.40625H221.76V12H220.447V4.40625H217.728ZM225.633 12V5.45455H226.907V12H225.633ZM226.276 4.4446C226.055 4.4446 225.865 4.37074 225.705 4.22301C225.549 4.07244 225.471 3.89347 225.471 3.68608C225.471 3.47585 225.549 3.29687 225.705 3.14915C225.865 2.99858 226.055 2.9233 226.276 2.9233C226.498 2.9233 226.687 2.99858 226.843 3.14915C227.002 3.29687 227.082 3.47585 227.082 3.68608C227.082 3.89347 227.002 4.07244 226.843 4.22301C226.687 4.37074 226.498 4.4446 226.276 4.4446ZM231.437 5.45455V6.47727H227.861V5.45455H231.437ZM228.82 3.88636H230.094V10.0781C230.094 10.3253 230.131 10.5114 230.205 10.6364C230.279 10.7585 230.374 10.8423 230.491 10.8878C230.61 10.9304 230.739 10.9517 230.878 10.9517C230.981 10.9517 231.07 10.9446 231.147 10.9304C231.224 10.9162 231.283 10.9048 231.326 10.8963L231.556 11.9489C231.482 11.9773 231.377 12.0057 231.241 12.0341C231.104 12.0653 230.934 12.0824 230.729 12.0852C230.394 12.0909 230.082 12.0312 229.792 11.9062C229.502 11.7812 229.268 11.5881 229.089 11.3267C228.91 11.0653 228.82 10.7372 228.82 10.3423V3.88636ZM234.021 3.27273V12H232.747V3.27273H234.021ZM238.316 12.1321C237.671 12.1321 237.116 11.9943 236.65 11.7188C236.187 11.4403 235.829 11.0497 235.576 10.5469C235.326 10.0412 235.201 9.44886 235.201 8.76989C235.201 8.09943 235.326 7.50852 235.576 6.99716C235.829 6.4858 236.181 6.08665 236.633 5.79972C237.087 5.51278 237.619 5.36932 238.227 5.36932C238.596 5.36932 238.954 5.4304 239.3 5.55256C239.647 5.67472 239.958 5.86648 240.234 6.12784C240.509 6.3892 240.727 6.72869 240.886 7.14631C241.045 7.56108 241.124 8.06534 241.124 8.65909V9.1108H235.921V8.15625H239.876C239.876 7.82102 239.808 7.52415 239.671 7.26562C239.535 7.00426 239.343 6.7983 239.096 6.64773C238.852 6.49716 238.565 6.42188 238.235 6.42188C237.877 6.42188 237.565 6.50994 237.298 6.68608C237.033 6.85937 236.829 7.08665 236.684 7.3679C236.542 7.64631 236.471 7.94886 236.471 8.27557V9.02131C236.471 9.45881 236.548 9.83097 236.701 10.1378C236.857 10.4446 237.075 10.679 237.353 10.8409C237.631 11 237.957 11.0795 238.329 11.0795C238.57 11.0795 238.791 11.0455 238.989 10.9773C239.188 10.9062 239.36 10.8011 239.505 10.6619C239.65 10.5227 239.761 10.3509 239.837 10.1463L241.043 10.3636C240.947 10.7187 240.773 11.0298 240.523 11.2969C240.276 11.5611 239.965 11.767 239.59 11.9148C239.218 12.0597 238.793 12.1321 238.316 12.1321Z" fill="#5E5E5E"/>
<path d="M14.8757 12V11.0455L17.8288 7.9858C18.1441 7.65341 18.4041 7.36222 18.6086 7.11222C18.816 6.85937 18.9708 6.61932 19.0731 6.39205C19.1754 6.16477 19.2265 5.9233 19.2265 5.66761C19.2265 5.37784 19.1583 5.12784 19.022 4.91761C18.8856 4.70455 18.6995 4.54119 18.4637 4.42756C18.2279 4.31108 17.9623 4.25284 17.6669 4.25284C17.3544 4.25284 17.0816 4.31676 16.8487 4.4446C16.6157 4.57244 16.4367 4.75284 16.3117 4.9858C16.1867 5.21875 16.1242 5.49148 16.1242 5.80398H14.8671C14.8671 5.27273 14.9893 4.80824 15.2336 4.41051C15.4779 4.01278 15.8132 3.70455 16.2393 3.4858C16.6654 3.2642 17.1498 3.15341 17.6924 3.15341C18.2407 3.15341 18.7237 3.26278 19.1413 3.48153C19.5617 3.69744 19.8899 3.9929 20.1257 4.3679C20.3615 4.74006 20.4794 5.16051 20.4794 5.62926C20.4794 5.95312 20.4183 6.26989 20.2961 6.57955C20.1768 6.8892 19.968 7.23437 19.6697 7.61506C19.3714 7.9929 18.9566 8.4517 18.4254 8.99148L16.691 10.8068V10.8707H20.62V12H14.8757ZM22.8516 12.081C22.6186 12.081 22.4183 11.9986 22.2507 11.8338C22.0831 11.6662 21.9993 11.4645 21.9993 11.2287C21.9993 10.9957 22.0831 10.7969 22.2507 10.6321C22.4183 10.4645 22.6186 10.3807 22.8516 10.3807C23.0845 10.3807 23.2848 10.4645 23.4524 10.6321C23.62 10.7969 23.7038 10.9957 23.7038 11.2287C23.7038 11.3849 23.6641 11.5284 23.5845 11.6591C23.5078 11.7869 23.4055 11.8892 23.2777 11.9659C23.1499 12.0426 23.0078 12.081 22.8516 12.081ZM32.8279 5.56534C32.7824 5.16193 32.5949 4.84943 32.2654 4.62784C31.9358 4.40341 31.5211 4.29119 31.0211 4.29119C30.6631 4.29119 30.3535 4.34801 30.0921 4.46165C29.8307 4.57244 29.6276 4.72585 29.4827 4.92188C29.3407 5.11506 29.2697 5.33523 29.2697 5.58239C29.2697 5.78977 29.3179 5.96875 29.4145 6.11932C29.514 6.26989 29.6432 6.39631 29.8023 6.49858C29.9643 6.59801 30.1375 6.68182 30.3222 6.75C30.5069 6.81534 30.6844 6.86932 30.8549 6.91193L31.7072 7.13352C31.9856 7.2017 32.2711 7.29403 32.5637 7.41051C32.8563 7.52699 33.1276 7.6804 33.3776 7.87074C33.6276 8.06108 33.8293 8.29688 33.9827 8.57812C34.139 8.85938 34.2171 9.19602 34.2171 9.58807C34.2171 10.0824 34.0893 10.5213 33.8336 10.9048C33.5807 11.2884 33.2128 11.5909 32.7299 11.8125C32.2498 12.0341 31.6688 12.1449 30.987 12.1449C30.3336 12.1449 29.7682 12.0412 29.291 11.8338C28.8137 11.6264 28.4401 11.3324 28.1702 10.9517C27.9003 10.5682 27.7512 10.1136 27.7228 9.58807H29.0438C29.0694 9.90341 29.1716 10.1662 29.3506 10.3764C29.5324 10.5838 29.764 10.7386 30.0452 10.8409C30.3293 10.9403 30.6404 10.9901 30.9785 10.9901C31.3506 10.9901 31.6816 10.9318 31.9714 10.8153C32.264 10.696 32.4941 10.5312 32.6617 10.321C32.8293 10.108 32.9131 9.85937 32.9131 9.57528C32.9131 9.31676 32.8393 9.10511 32.6915 8.94034C32.5466 8.77557 32.3492 8.6392 32.0992 8.53125C31.852 8.4233 31.5722 8.32812 31.2597 8.24574L30.2285 7.96449C29.5296 7.77415 28.9756 7.49432 28.5665 7.125C28.1603 6.75568 27.9572 6.26705 27.9572 5.65909C27.9572 5.15625 28.0935 4.71733 28.3662 4.34233C28.639 3.96733 29.0083 3.67614 29.4742 3.46875C29.9401 3.25852 30.4657 3.15341 31.0509 3.15341C31.6418 3.15341 32.1631 3.2571 32.6148 3.46449C33.0694 3.67188 33.4273 3.95739 33.6887 4.32102C33.95 4.68182 34.0864 5.09659 34.0978 5.56534H32.8279ZM38.5037 5.45455V6.47727H34.9284V5.45455H38.5037ZM35.8873 3.88636H37.1614V10.0781C37.1614 10.3253 37.1983 10.5114 37.2722 10.6364C37.3461 10.7585 37.4412 10.8423 37.5577 10.8878C37.677 10.9304 37.8063 10.9517 37.9455 10.9517C38.0478 10.9517 38.1373 10.9446 38.214 10.9304C38.2907 10.9162 38.3503 10.9048 38.3929 10.8963L38.623 11.9489C38.5492 11.9773 38.4441 12.0057 38.3077 12.0341C38.1713 12.0653 38.0009 12.0824 37.7963 12.0852C37.4611 12.0909 37.1486 12.0312 36.8588 11.9062C36.5691 11.7812 36.3347 11.5881 36.1557 11.3267C35.9767 11.0653 35.8873 10.7372 35.8873 10.3423V3.88636ZM41.578 12.1449C41.1632 12.1449 40.7882 12.0682 40.453 11.9148C40.1178 11.7585 39.8522 11.5327 39.6561 11.2372C39.4629 10.9418 39.3664 10.5795 39.3664 10.1506C39.3664 9.78125 39.4374 9.47727 39.5794 9.23864C39.7215 9 39.9132 8.81108 40.1547 8.67188C40.3962 8.53267 40.6661 8.42756 40.9644 8.35653C41.2627 8.28551 41.5666 8.23153 41.8763 8.1946C42.2683 8.14915 42.5865 8.11222 42.8308 8.08381C43.0752 8.05256 43.2527 8.00284 43.3635 7.93466C43.4743 7.86648 43.5297 7.75568 43.5297 7.60227V7.57244C43.5297 7.20028 43.4246 6.91193 43.2144 6.70739C43.007 6.50284 42.6973 6.40057 42.2854 6.40057C41.8564 6.40057 41.5183 6.49574 41.2712 6.68608C41.0269 6.87358 40.8578 7.08239 40.7641 7.3125L39.5666 7.03977C39.7087 6.64205 39.9161 6.32102 40.1888 6.0767C40.4644 5.82955 40.7811 5.65057 41.1391 5.53977C41.497 5.42614 41.8735 5.36932 42.2683 5.36932C42.5297 5.36932 42.8067 5.40057 43.0993 5.46307C43.3948 5.52273 43.6703 5.63352 43.926 5.79545C44.1845 5.95739 44.3962 6.18892 44.561 6.49006C44.7257 6.78835 44.8081 7.17614 44.8081 7.65341V12H43.5638V11.1051H43.5127C43.4303 11.2699 43.3067 11.4318 43.1419 11.5909C42.9772 11.75 42.7655 11.8821 42.507 11.9872C42.2485 12.0923 41.9388 12.1449 41.578 12.1449ZM41.855 11.1222C42.2073 11.1222 42.5084 11.0526 42.7584 10.9134C43.0112 10.7741 43.203 10.5923 43.3337 10.3679C43.4672 10.1406 43.534 9.89773 43.534 9.6392V8.79545C43.4885 8.84091 43.4004 8.88352 43.2698 8.9233C43.1419 8.96023 42.9956 8.9929 42.8308 9.02131C42.6661 9.04687 42.5056 9.07102 42.3493 9.09375C42.1931 9.11364 42.0624 9.13068 41.9573 9.14489C41.7101 9.17614 41.4843 9.22869 41.2797 9.30256C41.078 9.37642 40.9161 9.48295 40.7939 9.62216C40.6746 9.75852 40.6149 9.94034 40.6149 10.1676C40.6149 10.483 40.7314 10.7216 40.9644 10.8835C41.1973 11.0426 41.4942 11.1222 41.855 11.1222ZM49.3206 5.45455V6.47727H45.7453V5.45455H49.3206ZM46.7041 3.88636H47.9783V10.0781C47.9783 10.3253 48.0152 10.5114 48.0891 10.6364C48.1629 10.7585 48.2581 10.8423 48.3746 10.8878C48.4939 10.9304 48.6232 10.9517 48.7624 10.9517C48.8646 10.9517 48.9541 10.9446 49.0308 10.9304C49.1075 10.9162 49.1672 10.9048 49.2098 10.8963L49.4399 11.9489C49.3661 11.9773 49.2609 12.0057 49.1246 12.0341C48.9882 12.0653 48.8178 12.0824 48.6132 12.0852C48.278 12.0909 47.9655 12.0312 47.6757 11.9062C47.3859 11.7812 47.1516 11.5881 46.9726 11.3267C46.7936 11.0653 46.7041 10.7372 46.7041 10.3423V3.88636ZM54.6364 9.28551V5.45455H55.9148V12H54.6619V10.8665H54.5937C54.4432 11.2159 54.2017 11.5071 53.8693 11.7401C53.5398 11.9702 53.1293 12.0852 52.6378 12.0852C52.2173 12.0852 51.8452 11.9929 51.5213 11.8082C51.2003 11.6207 50.9474 11.3438 50.7628 10.9773C50.581 10.6108 50.49 10.1577 50.49 9.6179V5.45455H51.7642V9.46449C51.7642 9.91051 51.8878 10.2656 52.1349 10.5298C52.3821 10.794 52.7031 10.9261 53.098 10.9261C53.3366 10.9261 53.5739 10.8665 53.8097 10.7472C54.0483 10.6278 54.2457 10.4474 54.402 10.206C54.5611 9.96449 54.6392 9.65767 54.6364 9.28551ZM62.2916 7.05256L61.1368 7.2571C61.0885 7.10937 61.0118 6.96875 60.9067 6.83523C60.8044 6.7017 60.6652 6.59233 60.489 6.5071C60.3129 6.42187 60.0927 6.37926 59.8285 6.37926C59.4677 6.37926 59.1666 6.46023 58.9251 6.62216C58.6836 6.78125 58.5629 6.98722 58.5629 7.24006C58.5629 7.45881 58.6439 7.63494 58.8058 7.76847C58.9677 7.90199 59.2291 8.01136 59.5899 8.09659L60.6297 8.33523C61.2319 8.47443 61.6808 8.68892 61.9763 8.97869C62.2717 9.26847 62.4194 9.64489 62.4194 10.108C62.4194 10.5 62.3058 10.8494 62.0785 11.1562C61.8541 11.4602 61.5402 11.6989 61.1368 11.8722C60.7362 12.0455 60.2717 12.1321 59.7433 12.1321C59.0103 12.1321 58.4123 11.9759 57.9493 11.6634C57.4862 11.348 57.2021 10.9006 57.097 10.321L58.3285 10.1335C58.4052 10.4545 58.5629 10.6974 58.8015 10.8622C59.0402 11.0241 59.3513 11.1051 59.7348 11.1051C60.1524 11.1051 60.4862 11.0185 60.7362 10.8452C60.9862 10.669 61.1112 10.4545 61.1112 10.2017C61.1112 9.99716 61.0345 9.82528 60.8811 9.68608C60.7305 9.54687 60.499 9.44176 60.1865 9.37074L59.0785 9.12784C58.4677 8.98864 58.016 8.76705 57.7234 8.46307C57.4336 8.15909 57.2888 7.77415 57.2888 7.30824C57.2888 6.92187 57.3967 6.58381 57.6126 6.29403C57.8285 6.00426 58.1268 5.77841 58.5075 5.61648C58.8882 5.4517 59.3243 5.36932 59.8157 5.36932C60.5231 5.36932 61.08 5.52273 61.4862 5.82955C61.8925 6.13352 62.1609 6.54119 62.2916 7.05256Z" fill="#5E5E5E"/>
<path d="M13.6634 142.119C13.0782 142.119 12.5555 142.018 12.0952 141.817C11.6379 141.615 11.2756 141.335 11.0086 140.977C10.7444 140.616 10.6023 140.199 10.5825 139.724H11.9205C11.9376 139.983 12.0242 140.207 12.1805 140.398C12.3396 140.585 12.547 140.73 12.8026 140.832C13.0583 140.935 13.3424 140.986 13.6549 140.986C13.9987 140.986 14.3026 140.926 14.5668 140.807C14.8339 140.687 15.0427 140.521 15.1933 140.308C15.3438 140.092 15.4191 139.844 15.4191 139.562C15.4191 139.27 15.3438 139.013 15.1933 138.791C15.0455 138.567 14.8282 138.391 14.5413 138.263C14.2572 138.135 13.9134 138.071 13.51 138.071H12.7728V136.997H13.51C13.8339 136.997 14.118 136.939 14.3623 136.822C14.6095 136.706 14.8026 136.544 14.9418 136.337C15.081 136.126 15.1506 135.881 15.1506 135.599C15.1506 135.33 15.0896 135.095 14.9674 134.896C14.8481 134.695 14.6776 134.537 14.456 134.423C14.2373 134.31 13.9788 134.253 13.6805 134.253C13.3964 134.253 13.1308 134.305 12.8836 134.411C12.6393 134.513 12.4404 134.661 12.287 134.854C12.1336 135.044 12.0512 135.273 12.0398 135.54H10.7657C10.7799 135.068 10.9191 134.653 11.1833 134.295C11.4504 133.937 11.8026 133.658 12.2401 133.456C12.6776 133.254 13.1634 133.153 13.6975 133.153C14.2572 133.153 14.7401 133.263 15.1464 133.482C15.5555 133.697 15.8708 133.986 16.0924 134.347C16.3168 134.707 16.4276 135.102 16.4248 135.531C16.4276 136.02 16.2913 136.435 16.0157 136.776C15.743 137.116 15.3793 137.345 14.9248 137.462V137.53C15.5043 137.618 15.9532 137.848 16.2714 138.22C16.5924 138.592 16.7515 139.054 16.7487 139.605C16.7515 140.085 16.618 140.516 16.3481 140.896C16.081 141.277 15.716 141.577 15.2529 141.795C14.7898 142.011 14.26 142.119 13.6634 142.119ZM19.3108 142.081C19.0778 142.081 18.8776 141.999 18.7099 141.834C18.5423 141.666 18.4585 141.464 18.4585 141.229C18.4585 140.996 18.5423 140.797 18.7099 140.632C18.8776 140.464 19.0778 140.381 19.3108 140.381C19.5438 140.381 19.744 140.464 19.9117 140.632C20.0793 140.797 20.1631 140.996 20.1631 141.229C20.1631 141.385 20.1233 141.528 20.0438 141.659C19.9671 141.787 19.8648 141.889 19.7369 141.966C19.6091 142.043 19.4671 142.081 19.3108 142.081ZM26.6964 142H25.2987L28.4393 133.273H29.9606L33.1012 142H31.7035L29.2362 134.858H29.168L26.6964 142ZM26.9308 138.582H31.4649V139.69H26.9308V138.582ZM38.1656 139.286V135.455H39.444V142H38.1911V140.866H38.123C37.9724 141.216 37.7309 141.507 37.3985 141.74C37.069 141.97 36.6585 142.085 36.167 142.085C35.7465 142.085 35.3744 141.993 35.0505 141.808C34.7295 141.621 34.4767 141.344 34.292 140.977C34.1102 140.611 34.0193 140.158 34.0193 139.618V135.455H35.2934V139.464C35.2934 139.911 35.417 140.266 35.6642 140.53C35.9113 140.794 36.2323 140.926 36.6272 140.926C36.8659 140.926 37.1031 140.866 37.3389 140.747C37.5775 140.628 37.775 140.447 37.9312 140.206C38.0903 139.964 38.1684 139.658 38.1656 139.286ZM43.9714 135.455V136.477H40.3961V135.455H43.9714ZM41.3549 133.886H42.6291V140.078C42.6291 140.325 42.666 140.511 42.7399 140.636C42.8137 140.759 42.9089 140.842 43.0254 140.888C43.1447 140.93 43.2739 140.952 43.4131 140.952C43.5154 140.952 43.6049 140.945 43.6816 140.93C43.7583 140.916 43.818 140.905 43.8606 140.896L44.0907 141.949C44.0168 141.977 43.9117 142.006 43.7754 142.034C43.639 142.065 43.4685 142.082 43.264 142.085C42.9288 142.091 42.6163 142.031 42.3265 141.906C42.0367 141.781 41.8024 141.588 41.6234 141.327C41.4444 141.065 41.3549 140.737 41.3549 140.342V133.886ZM46.5556 138.114V142H45.2815V133.273H46.5386V136.52H46.6195C46.7729 136.168 47.0073 135.888 47.3226 135.68C47.638 135.473 48.0499 135.369 48.5584 135.369C49.0073 135.369 49.3994 135.462 49.7346 135.646C50.0726 135.831 50.334 136.107 50.5187 136.473C50.7062 136.837 50.7999 137.291 50.7999 137.837V142H49.5258V137.99C49.5258 137.51 49.4022 137.138 49.155 136.874C48.9079 136.607 48.5641 136.473 48.1238 136.473C47.8226 136.473 47.5528 136.537 47.3141 136.665C47.0783 136.793 46.8922 136.98 46.7559 137.227C46.6224 137.472 46.5556 137.767 46.5556 138.114ZM55.0173 142.132C54.4037 142.132 53.8682 141.991 53.4108 141.71C52.9534 141.429 52.5983 141.036 52.3454 140.53C52.0926 140.024 51.9662 139.433 51.9662 138.757C51.9662 138.078 52.0926 137.484 52.3454 136.976C52.5983 136.467 52.9534 136.072 53.4108 135.791C53.8682 135.51 54.4037 135.369 55.0173 135.369C55.6309 135.369 56.1665 135.51 56.6238 135.791C57.0812 136.072 57.4363 136.467 57.6892 136.976C57.942 137.484 58.0684 138.078 58.0684 138.757C58.0684 139.433 57.942 140.024 57.6892 140.53C57.4363 141.036 57.0812 141.429 56.6238 141.71C56.1665 141.991 55.6309 142.132 55.0173 142.132ZM55.0216 141.062C55.4193 141.062 55.7488 140.957 56.0102 140.747C56.2716 140.537 56.4648 140.257 56.5898 139.908C56.7176 139.558 56.7815 139.173 56.7815 138.753C56.7815 138.335 56.7176 137.952 56.5898 137.602C56.4648 137.25 56.2716 136.967 56.0102 136.754C55.7488 136.541 55.4193 136.435 55.0216 136.435C54.621 136.435 54.2886 136.541 54.0244 136.754C53.763 136.967 53.5684 137.25 53.4406 137.602C53.3156 137.952 53.2531 138.335 53.2531 138.753C53.2531 139.173 53.3156 139.558 53.4406 139.908C53.5684 140.257 53.763 140.537 54.0244 140.747C54.2886 140.957 54.621 141.062 55.0216 141.062ZM59.2507 142V135.455H60.4822V136.494H60.5504C60.6697 136.142 60.8799 135.865 61.1811 135.663C61.4851 135.459 61.8288 135.357 62.2123 135.357C62.2919 135.357 62.3856 135.359 62.4936 135.365C62.6044 135.371 62.691 135.378 62.7535 135.386V136.605C62.7024 136.591 62.6115 136.575 62.4808 136.558C62.3501 136.538 62.2194 136.528 62.0887 136.528C61.7876 136.528 61.5191 136.592 61.2833 136.72C61.0504 136.845 60.8657 137.02 60.7294 137.244C60.593 137.466 60.5248 137.719 60.5248 138.003V142H59.2507Z" fill="#5E5E5E"/>
<line x1="38" y1="20" x2="38" y2="61" stroke="#5E5E5E"/>
<line x1="224.5" y1="20" x2="224.5" y2="52" stroke="#5E5E5E"/>
<rect x="76" y="98" width="70" height="16" rx="8" fill="#CCCCCC"/>
<rect x="154" y="98" width="70" height="16" rx="8" fill="#CCCCCC"/>
<rect x="232" y="98" width="70" height="16" rx="8" fill="#CCCCCC"/>
<rect x="115" y="154" width="30" height="30" rx="6" fill="#CCCCCC"/>
<rect x="77" y="154" width="30" height="30" rx="6" fill="#CCCCCC"/>
<line x1="77" y1="138.5" x2="69" y2="138.5" stroke="#5E5E5E"/>
<circle cx="168" cy="169" r="15" fill="#CCCCCC"/>
</g>
<defs>
<clipPath id="clip0_2_20">
<rect width="450" height="309" fill="white"/>
</clipPath>
</defs>
</svg>
