<svg width="900" height="400" viewBox="0 0 900 400" fill="none" xmlns="http://www.w3.org/2000/svg">
<g clip-path="url(#clip0_1_89)">
<rect x="1.5" y="1.5" width="897" height="91" rx="5.5" fill="#83C0F3" fill-opacity="0.25" stroke="#83C0F3" stroke-width="3"/>
<rect x="16" y="16" width="400" height="38" rx="6" fill="#83C0F3"/>
<rect x="846" y="16" width="38" height="38" rx="6" fill="#83C0F3"/>
<rect x="800" y="16" width="38" height="38" rx="6" fill="#83C0F3"/>
<rect x="678" y="16" width="114" height="38" rx="6" fill="#83C0F3"/>
<rect x="16" y="62" width="183" height="16" rx="6" fill="#83C0F3"/>
<rect x="207" y="62" width="70" height="16" rx="6" fill="#83C0F3"/>
<rect x="1.5" y="103.5" width="897" height="91" rx="5.5" fill="#83C0F3" fill-opacity="0.25" stroke="#83C0F3" stroke-width="3"/>
<rect x="16" y="118" width="358" height="38" rx="6" fill="#83C0F3"/>
<rect x="846" y="118" width="38" height="38" rx="6" fill="#83C0F3"/>
<rect x="800" y="118" width="38" height="38" rx="6" fill="#83C0F3"/>
<rect x="678" y="118" width="114" height="38" rx="6" fill="#83C0F3"/>
<rect x="16" y="164" width="138" height="16" rx="6" fill="#83C0F3"/>
<rect x="162" y="164" width="70" height="16" rx="6" fill="#83C0F3"/>
<rect x="1.5" y="205.5" width="897" height="91" rx="5.5" fill="#83C0F3" fill-opacity="0.25" stroke="#83C0F3" stroke-width="3"/>
<rect x="16" y="220" width="200" height="38" rx="6" fill="#83C0F3"/>
<rect x="224" y="220" width="307" height="38" rx="6" fill="#83C0F3"/>
<rect x="846" y="220" width="38" height="38" rx="6" fill="#83C0F3"/>
<rect x="800" y="220" width="38" height="38" rx="6" fill="#83C0F3"/>
<rect x="678" y="220" width="114" height="38" rx="6" fill="#83C0F3"/>
<rect x="16" y="266" width="85" height="16" rx="6" fill="#83C0F3"/>
<rect x="1.5" y="307.5" width="897" height="91" rx="5.5" fill="#83C0F3" fill-opacity="0.25" stroke="#83C0F3" stroke-width="3"/>
<rect x="16" y="322" width="336" height="38" rx="6" fill="#83C0F3"/>
<rect x="846" y="322" width="38" height="38" rx="6" fill="#83C0F3"/>
<rect x="800" y="322" width="38" height="38" rx="6" fill="#83C0F3"/>
<rect x="678" y="322" width="114" height="38" rx="6" fill="#83C0F3"/>
<rect x="16" y="368" width="391" height="16" rx="6" fill="#83C0F3"/>
<rect x="415" y="368" width="70" height="16" rx="6" fill="#83C0F3"/>
</g>
<defs>
<clipPath id="clip0_1_89">
<rect width="900" height="400" fill="white"/>
</clipPath>
</defs>
</svg>
