<svg width="450" height="164" viewBox="0 0 450 164" fill="none" xmlns="http://www.w3.org/2000/svg">
<g clip-path="url(#clip0_2_98)">
<path d="M14 1.5H443C446.038 1.5 448.5 3.96243 448.5 7V157C448.5 160.038 446.038 162.5 443 162.5H7C3.96244 162.5 1.5 160.038 1.5 157V14C1.5 7.09644 7.09644 1.5 14 1.5Z" fill="#F3F3F3" fill-opacity="0.25" stroke="#CCCCCC" stroke-width="3"/>
<rect x="77.5" y="16.5" width="293" height="37" rx="5.5" fill="#CCCCCC" stroke="#CCCCCC"/>
<rect x="77" y="62" width="70" height="16" rx="6" fill="#CCCCCC"/>
<rect x="77.5" y="94.5" width="124" height="15" rx="5.5" fill="#CCCCCC" stroke="#CCCCCC"/>
<rect x="115" y="118" width="30" height="30" rx="6" fill="#CCCCCC"/>
<rect x="77" y="118" width="30" height="30" rx="6" fill="#CCCCCC"/>
<circle cx="168" cy="133" r="15" fill="#CCCCCC"/>
<rect x="210" y="94" width="70" height="16" rx="6" fill="#CCCCCC"/>
<circle cx="38.5" cy="47.5" r="22.5" fill="#CCCCCC"/>
<line x1="12.0562" y1="11.5032" x2="224.056" y2="35.5032" stroke="#E0007B"/>
<line x1="111.855" y1="69.5216" x2="223.855" y2="35.5216" stroke="#E0007B"/>
<line x1="111.856" y1="70.4787" x2="38.8557" y2="48.4787" stroke="#E0007B"/>
<line x1="139.764" y1="102.441" x2="38.7643" y2="48.4409" stroke="#E0007B"/>
<line x1="140" y1="101.5" x2="245" y2="101.5" stroke="#E0007B"/>
<line x1="91.9288" y1="123.505" x2="244.929" y2="101.505" stroke="#E0007B"/>
<line x1="92" y1="132.5" x2="168" y2="132.5" stroke="#E0007B"/>
<circle cx="12" cy="12" r="12" fill="#E0007B"/>
<path d="M13.3146 7.77273V16.5H11.9936V9.09375H11.9425L9.8544 10.4574V9.19602L12.032 7.77273H13.3146Z" fill="white"/>
<circle cx="224" cy="35" r="12" fill="#E0007B"/>
<path d="M221.16 39.5V38.5455L224.113 35.4858C224.428 35.1534 224.688 34.8622 224.893 34.6122C225.1 34.3594 225.255 34.1193 225.357 33.892C225.46 33.6648 225.511 33.4233 225.511 33.1676C225.511 32.8778 225.442 32.6278 225.306 32.4176C225.17 32.2045 224.984 32.0412 224.748 31.9276C224.512 31.8111 224.246 31.7528 223.951 31.7528C223.638 31.7528 223.366 31.8168 223.133 31.9446C222.9 32.0724 222.721 32.2528 222.596 32.4858C222.471 32.7187 222.408 32.9915 222.408 33.304H221.151C221.151 32.7727 221.273 32.3082 221.518 31.9105C221.762 31.5128 222.097 31.2045 222.523 30.9858C222.95 30.7642 223.434 30.6534 223.977 30.6534C224.525 30.6534 225.008 30.7628 225.425 30.9815C225.846 31.1974 226.174 31.4929 226.41 31.8679C226.646 32.2401 226.763 32.6605 226.763 33.1293C226.763 33.4531 226.702 33.7699 226.58 34.0795C226.461 34.3892 226.252 34.7344 225.954 35.1151C225.656 35.4929 225.241 35.9517 224.71 36.4915L222.975 38.3068V38.3707H226.904V39.5H221.16Z" fill="white"/>
<circle cx="112" cy="70" r="12" fill="#E0007B"/>
<path d="M112.011 74.6193C111.425 74.6193 110.903 74.5185 110.442 74.3168C109.985 74.1151 109.623 73.8352 109.356 73.4773C109.092 73.1165 108.95 72.6989 108.93 72.2244H110.268C110.285 72.483 110.371 72.7074 110.528 72.8977C110.687 73.0852 110.894 73.2301 111.15 73.3324C111.406 73.4347 111.69 73.4858 112.002 73.4858C112.346 73.4858 112.65 73.4261 112.914 73.3068C113.181 73.1875 113.39 73.0213 113.54 72.8082C113.691 72.5923 113.766 72.3438 113.766 72.0625C113.766 71.7699 113.691 71.5128 113.54 71.2912C113.393 71.0668 113.175 70.8906 112.888 70.7628C112.604 70.6349 112.261 70.571 111.857 70.571H111.12V69.4972H111.857C112.181 69.4972 112.465 69.4389 112.71 69.3224C112.957 69.206 113.15 69.044 113.289 68.8366C113.428 68.6264 113.498 68.3807 113.498 68.0994C113.498 67.8295 113.437 67.5952 113.315 67.3963C113.195 67.1946 113.025 67.0369 112.803 66.9233C112.585 66.8097 112.326 66.7528 112.028 66.7528C111.744 66.7528 111.478 66.8054 111.231 66.9105C110.987 67.0128 110.788 67.1605 110.634 67.3537C110.481 67.544 110.398 67.7727 110.387 68.0398H109.113C109.127 67.5682 109.266 67.1534 109.531 66.7955C109.798 66.4375 110.15 66.1577 110.587 65.956C111.025 65.7543 111.511 65.6534 112.045 65.6534C112.604 65.6534 113.087 65.7628 113.494 65.9815C113.903 66.1974 114.218 66.4858 114.44 66.8466C114.664 67.2074 114.775 67.6023 114.772 68.0312C114.775 68.5199 114.638 68.9347 114.363 69.2756C114.09 69.6165 113.727 69.8452 113.272 69.9616V70.0298C113.852 70.1179 114.3 70.348 114.619 70.7202C114.94 71.0923 115.099 71.554 115.096 72.1051C115.099 72.5852 114.965 73.0156 114.695 73.3963C114.428 73.777 114.063 74.0767 113.6 74.2955C113.137 74.5114 112.607 74.6193 112.011 74.6193Z" fill="white"/>
<circle cx="39" cy="48" r="12" fill="#E0007B"/>
<path d="M35.7305 50.7955V49.7301L39.5018 43.7727H40.3413V45.3409H39.8086L37.1112 49.6108V49.679H42.2802V50.7955H35.7305ZM39.8683 52.5V50.4716L39.8768 49.9858V43.7727H41.1254V52.5H39.8683Z" fill="white"/>
<circle cx="140" cy="102" r="12" fill="#E0007B"/>
<path d="M139.999 106.619C139.465 106.619 138.985 106.517 138.559 106.312C138.136 106.105 137.798 105.821 137.545 105.46C137.292 105.099 137.157 104.688 137.14 104.224H138.419C138.45 104.599 138.616 104.908 138.917 105.149C139.218 105.391 139.579 105.511 139.999 105.511C140.335 105.511 140.632 105.435 140.89 105.281C141.151 105.125 141.356 104.911 141.504 104.638C141.654 104.365 141.73 104.054 141.73 103.705C141.73 103.349 141.653 103.033 141.499 102.754C141.346 102.476 141.134 102.257 140.865 102.098C140.597 101.939 140.291 101.858 139.944 101.855C139.68 101.855 139.414 101.901 139.147 101.991C138.88 102.082 138.664 102.202 138.499 102.349L137.294 102.17L137.784 97.7727H142.582V98.902H138.879L138.602 101.344H138.653C138.823 101.179 139.049 101.041 139.33 100.93C139.615 100.82 139.919 100.764 140.242 100.764C140.774 100.764 141.247 100.891 141.661 101.143C142.079 101.396 142.407 101.741 142.646 102.179C142.887 102.614 143.007 103.114 143.004 103.679C143.007 104.244 142.879 104.749 142.62 105.192C142.365 105.635 142.009 105.984 141.555 106.24C141.103 106.493 140.585 106.619 139.999 106.619Z" fill="white"/>
<circle cx="245" cy="102" r="12" fill="#E0007B"/>
<path d="M245.072 106.619C244.683 106.614 244.299 106.543 243.921 106.406C243.546 106.27 243.205 106.043 242.899 105.724C242.592 105.406 242.346 104.979 242.161 104.442C241.98 103.905 241.889 103.234 241.889 102.43C241.889 101.669 241.964 100.993 242.115 100.402C242.268 99.8111 242.488 99.3125 242.775 98.9062C243.062 98.4972 243.409 98.1861 243.815 97.973C244.221 97.7599 244.677 97.6534 245.183 97.6534C245.703 97.6534 246.164 97.7557 246.568 97.9602C246.971 98.1648 247.298 98.4474 247.548 98.8082C247.801 99.169 247.961 99.5795 248.029 100.04H246.73C246.642 99.6761 246.467 99.3793 246.205 99.1491C245.944 98.919 245.603 98.804 245.183 98.804C244.544 98.804 244.045 99.0824 243.687 99.6392C243.332 100.196 243.153 100.97 243.15 101.962H243.214C243.365 101.714 243.549 101.504 243.768 101.331C243.99 101.155 244.237 101.02 244.509 100.926C244.785 100.83 245.075 100.781 245.379 100.781C245.884 100.781 246.342 100.905 246.751 101.152C247.163 101.396 247.491 101.734 247.735 102.166C247.98 102.598 248.102 103.092 248.102 103.649C248.102 104.206 247.975 104.71 247.722 105.162C247.472 105.614 247.12 105.972 246.666 106.236C246.211 106.497 245.68 106.625 245.072 106.619ZM245.068 105.511C245.403 105.511 245.703 105.429 245.967 105.264C246.231 105.099 246.44 104.878 246.593 104.599C246.747 104.321 246.823 104.01 246.823 103.666C246.823 103.331 246.748 103.026 246.597 102.75C246.45 102.474 246.245 102.256 245.984 102.094C245.725 101.932 245.43 101.851 245.097 101.851C244.845 101.851 244.61 101.899 244.394 101.996C244.181 102.092 243.994 102.226 243.832 102.396C243.67 102.567 243.542 102.763 243.448 102.984C243.357 103.203 243.312 103.435 243.312 103.679C243.312 104.006 243.387 104.308 243.538 104.587C243.691 104.865 243.9 105.089 244.164 105.26C244.431 105.428 244.732 105.511 245.068 105.511Z" fill="white"/>
<circle cx="92" cy="133" r="12" fill="#E0007B"/>
<path d="M90.1589 137.5L93.9686 129.966V129.902H89.5623V128.773H95.3322V129.94L91.5353 137.5H90.1589Z" fill="white"/>
<circle cx="130" cy="133" r="12" fill="#E0007B"/>
<path d="M129.997 137.619C129.387 137.619 128.847 137.514 128.378 137.304C127.912 137.094 127.547 136.804 127.283 136.435C127.019 136.065 126.888 135.645 126.891 135.173C126.888 134.804 126.963 134.464 127.117 134.155C127.273 133.842 127.485 133.582 127.752 133.375C128.019 133.165 128.317 133.031 128.646 132.974V132.923C128.212 132.818 127.864 132.585 127.602 132.224C127.341 131.864 127.212 131.449 127.215 130.98C127.212 130.534 127.33 130.136 127.568 129.787C127.81 129.435 128.141 129.158 128.561 128.956C128.982 128.754 129.46 128.653 129.997 128.653C130.529 128.653 131.003 128.756 131.421 128.96C131.841 129.162 132.172 129.439 132.414 129.791C132.655 130.141 132.777 130.537 132.78 130.98C132.777 131.449 132.644 131.864 132.379 132.224C132.115 132.585 131.771 132.818 131.348 132.923V132.974C131.675 133.031 131.969 133.165 132.23 133.375C132.494 133.582 132.705 133.842 132.861 134.155C133.02 134.464 133.101 134.804 133.104 135.173C133.101 135.645 132.968 136.065 132.703 136.435C132.439 136.804 132.073 137.094 131.604 137.304C131.138 137.514 130.602 137.619 129.997 137.619ZM129.997 136.541C130.358 136.541 130.671 136.482 130.935 136.362C131.199 136.24 131.404 136.071 131.548 135.855C131.693 135.636 131.767 135.381 131.77 135.088C131.767 134.784 131.688 134.516 131.531 134.283C131.378 134.05 131.169 133.866 130.905 133.733C130.641 133.599 130.338 133.533 129.997 133.533C129.654 133.533 129.348 133.599 129.081 133.733C128.814 133.866 128.604 134.05 128.45 134.283C128.297 134.516 128.222 134.784 128.225 135.088C128.222 135.381 128.291 135.636 128.433 135.855C128.578 136.071 128.784 136.24 129.051 136.362C129.318 136.482 129.634 136.541 129.997 136.541ZM129.997 132.48C130.287 132.48 130.544 132.422 130.769 132.305C130.993 132.189 131.169 132.027 131.297 131.82C131.428 131.612 131.494 131.369 131.497 131.091C131.494 130.818 131.429 130.58 131.301 130.375C131.176 130.17 131.002 130.013 130.777 129.902C130.553 129.788 130.293 129.732 129.997 129.732C129.696 129.732 129.432 129.788 129.205 129.902C128.98 130.013 128.806 130.17 128.681 130.375C128.556 130.58 128.494 130.818 128.497 131.091C128.494 131.369 128.557 131.612 128.685 131.82C128.813 132.027 128.989 132.189 129.213 132.305C129.441 132.422 129.702 132.48 129.997 132.48Z" fill="white"/>
<circle cx="168" cy="133" r="12" fill="#E0007B"/>
<path d="M167.927 128.653C168.316 128.656 168.7 128.727 169.078 128.866C169.455 129.006 169.796 129.233 170.1 129.548C170.407 129.864 170.651 130.29 170.833 130.827C171.018 131.361 171.112 132.026 171.115 132.821C171.115 133.585 171.038 134.266 170.884 134.862C170.731 135.456 170.511 135.957 170.224 136.366C169.94 136.776 169.595 137.087 169.188 137.3C168.782 137.513 168.325 137.619 167.816 137.619C167.296 137.619 166.835 137.517 166.431 137.312C166.028 137.108 165.7 136.825 165.447 136.464C165.194 136.101 165.036 135.683 164.974 135.212H166.274C166.359 135.587 166.532 135.891 166.794 136.124C167.058 136.354 167.399 136.469 167.816 136.469C168.455 136.469 168.954 136.19 169.312 135.634C169.67 135.074 169.85 134.293 169.853 133.29H169.785C169.637 133.534 169.453 133.744 169.231 133.92C169.012 134.097 168.767 134.233 168.494 134.33C168.221 134.426 167.93 134.474 167.62 134.474C167.117 134.474 166.66 134.351 166.248 134.104C165.836 133.857 165.508 133.517 165.264 133.085C165.019 132.653 164.897 132.161 164.897 131.607C164.897 131.055 165.022 130.555 165.272 130.107C165.525 129.658 165.877 129.303 166.329 129.041C166.784 128.777 167.316 128.648 167.927 128.653ZM167.931 129.761C167.599 129.761 167.299 129.844 167.032 130.009C166.768 130.17 166.559 130.391 166.406 130.669C166.252 130.945 166.176 131.251 166.176 131.589C166.176 131.928 166.249 132.234 166.397 132.51C166.548 132.783 166.752 133 167.011 133.162C167.272 133.321 167.57 133.401 167.906 133.401C168.156 133.401 168.389 133.352 168.605 133.256C168.82 133.159 169.009 133.026 169.171 132.855C169.333 132.682 169.46 132.486 169.551 132.267C169.642 132.048 169.687 131.818 169.687 131.577C169.687 131.256 169.61 130.957 169.457 130.682C169.306 130.406 169.099 130.185 168.835 130.017C168.57 129.847 168.269 129.761 167.931 129.761Z" fill="white"/>
</g>
<defs>
<clipPath id="clip0_2_98">
<rect width="450" height="164" fill="white"/>
</clipPath>
</defs>
</svg>
