<svg width="911" height="110" viewBox="0 0 911 110" fill="none" xmlns="http://www.w3.org/2000/svg">
<g clip-path="url(#clip0_1_171)">
<rect x="12.5" y="12.5" width="897" height="96" rx="5.5" fill="#F3F3F3" fill-opacity="0.25" stroke="#CCCCCC" stroke-width="3"/>
<rect x="780" y="40" width="38" height="38" rx="6" fill="#CCCCCC"/>
<rect x="734" y="40" width="38" height="38" rx="6" fill="#CCCCCC"/>
<rect x="88.5" y="27.5" width="293" height="37" rx="5.5" fill="#CCCCCC" stroke="#CCCCCC"/>
<rect x="390" y="38" width="70" height="16" rx="6" fill="#CCCCCC"/>
<rect x="88.5" y="78.5" width="124" height="15" rx="5.5" fill="#CCCCCC" stroke="#CCCCCC"/>
<rect x="221" y="78" width="70" height="16" rx="6" fill="#CCCCCC"/>
<circle cx="49.5" cy="58.5" r="22.5" fill="#CCCCCC"/>
<circle cx="864.5" cy="58.5" r="30.5" fill="#CCCCCC"/>
<line x1="12.0775" y1="11.506" x2="235.078" y2="46.506" stroke="#E0007B"/>
<line x1="235" y1="45.5" x2="425" y2="45.5" stroke="#E0007B"/>
<line x1="753" y1="58.5" x2="865" y2="58.5" stroke="#E0007B"/>
<line x1="48.9576" y1="77.5018" x2="424.958" y2="45.5018" stroke="#E0007B"/>
<line x1="49.0444" y1="77.502" x2="150.044" y2="86.502" stroke="#E0007B"/>
<line x1="150" y1="86" x2="256" y2="86" stroke="#E0007B"/>
<line x1="753.028" y1="59.4992" x2="256.028" y2="86.9992" stroke="#E0007B"/>
<circle cx="49" cy="78" r="12" fill="#E0007B"/>
<path d="M45.7305 80.7955V79.7301L49.5018 73.7727H50.3413V75.3409H49.8086L47.1112 79.6108V79.679H52.2802V80.7955H45.7305ZM49.8683 82.5V80.4716L49.8768 79.9858V73.7727H51.1254V82.5H49.8683Z" fill="white"/>
<circle cx="12" cy="12" r="12" fill="#E0007B"/>
<path d="M13.3146 7.77273V16.5H11.9936V9.09375H11.9425L9.8544 10.4574V9.19602L12.032 7.77273H13.3146Z" fill="white"/>
<circle cx="235" cy="46" r="12" fill="#E0007B"/>
<path d="M232.16 50.5V49.5455L235.113 46.4858C235.428 46.1534 235.688 45.8622 235.893 45.6122C236.1 45.3594 236.255 45.1193 236.357 44.892C236.46 44.6648 236.511 44.4233 236.511 44.1676C236.511 43.8778 236.442 43.6278 236.306 43.4176C236.17 43.2045 235.984 43.0412 235.748 42.9276C235.512 42.8111 235.246 42.7528 234.951 42.7528C234.638 42.7528 234.366 42.8168 234.133 42.9446C233.9 43.0724 233.721 43.2528 233.596 43.4858C233.471 43.7187 233.408 43.9915 233.408 44.304H232.151C232.151 43.7727 232.273 43.3082 232.518 42.9105C232.762 42.5128 233.097 42.2045 233.523 41.9858C233.95 41.7642 234.434 41.6534 234.977 41.6534C235.525 41.6534 236.008 41.7628 236.425 41.9815C236.846 42.1974 237.174 42.4929 237.41 42.8679C237.646 43.2401 237.763 43.6605 237.763 44.1293C237.763 44.4531 237.702 44.7699 237.58 45.0795C237.461 45.3892 237.252 45.7344 236.954 46.1151C236.656 46.4929 236.241 46.9517 235.71 47.4915L233.975 49.3068V49.3707H237.904V50.5H232.16Z" fill="white"/>
<circle cx="150" cy="86" r="12" fill="#E0007B"/>
<path d="M149.999 90.6193C149.465 90.6193 148.985 90.517 148.559 90.3125C148.136 90.1051 147.798 89.821 147.545 89.4602C147.292 89.0994 147.157 88.6875 147.14 88.2244H148.419C148.45 88.5994 148.616 88.9077 148.917 89.1491C149.218 89.3906 149.579 89.5114 149.999 89.5114C150.335 89.5114 150.632 89.4347 150.89 89.2812C151.151 89.125 151.356 88.9105 151.504 88.6378C151.654 88.3651 151.73 88.054 151.73 87.7045C151.73 87.3494 151.653 87.0327 151.499 86.7543C151.346 86.4759 151.134 86.2571 150.865 86.098C150.597 85.9389 150.291 85.858 149.944 85.8551C149.68 85.8551 149.414 85.9006 149.147 85.9915C148.88 86.0824 148.664 86.2017 148.499 86.3494L147.294 86.1705L147.784 81.7727H152.582V82.902H148.879L148.602 85.3438H148.653C148.823 85.179 149.049 85.0412 149.33 84.9304C149.615 84.8196 149.919 84.7642 150.242 84.7642C150.774 84.7642 151.247 84.8906 151.661 85.1435C152.079 85.3963 152.407 85.7415 152.646 86.179C152.887 86.6136 153.007 87.1136 153.004 87.679C153.007 88.2443 152.879 88.7486 152.62 89.1918C152.365 89.6349 152.009 89.9844 151.555 90.2401C151.103 90.4929 150.585 90.6193 149.999 90.6193Z" fill="white"/>
<circle cx="256" cy="86" r="12" fill="#E0007B"/>
<path d="M256.072 90.6193C255.683 90.6136 255.299 90.5426 254.921 90.4062C254.546 90.2699 254.205 90.0426 253.899 89.7244C253.592 89.4062 253.346 88.9787 253.161 88.4418C252.98 87.9048 252.889 87.2344 252.889 86.4304C252.889 85.669 252.964 84.9929 253.115 84.402C253.268 83.8111 253.488 83.3125 253.775 82.9062C254.062 82.4972 254.409 82.1861 254.815 81.973C255.221 81.7599 255.677 81.6534 256.183 81.6534C256.703 81.6534 257.164 81.7557 257.568 81.9602C257.971 82.1648 258.298 82.4474 258.548 82.8082C258.801 83.169 258.961 83.5795 259.029 84.0398H257.73C257.642 83.6761 257.467 83.3793 257.205 83.1491C256.944 82.919 256.603 82.804 256.183 82.804C255.544 82.804 255.045 83.0824 254.687 83.6392C254.332 84.196 254.153 84.9702 254.15 85.9616H254.214C254.365 85.7145 254.549 85.5043 254.768 85.331C254.99 85.1548 255.237 85.0199 255.509 84.9261C255.785 84.8295 256.075 84.7812 256.379 84.7812C256.884 84.7812 257.342 84.9048 257.751 85.152C258.163 85.3963 258.491 85.7344 258.735 86.1662C258.98 86.598 259.102 87.0923 259.102 87.6491C259.102 88.206 258.975 88.7102 258.722 89.1619C258.472 89.6136 258.12 89.9716 257.666 90.2358C257.211 90.4972 256.68 90.625 256.072 90.6193ZM256.068 89.5114C256.403 89.5114 256.703 89.429 256.967 89.2642C257.231 89.0994 257.44 88.8778 257.593 88.5994C257.747 88.321 257.823 88.0099 257.823 87.6662C257.823 87.331 257.748 87.0256 257.597 86.75C257.45 86.4744 257.245 86.2557 256.984 86.0938C256.725 85.9318 256.43 85.8509 256.097 85.8509C255.845 85.8509 255.61 85.8991 255.394 85.9957C255.181 86.0923 254.994 86.2259 254.832 86.3963C254.67 86.5668 254.542 86.7628 254.448 86.9844C254.357 87.2031 254.312 87.4347 254.312 87.679C254.312 88.0057 254.387 88.3082 254.538 88.5866C254.691 88.8651 254.9 89.0895 255.164 89.2599C255.431 89.4276 255.732 89.5114 256.068 89.5114Z" fill="white"/>
<circle cx="425" cy="46" r="12" fill="#E0007B"/>
<path d="M425.011 50.6193C424.425 50.6193 423.903 50.5185 423.442 50.3168C422.985 50.1151 422.623 49.8352 422.356 49.4773C422.092 49.1165 421.95 48.6989 421.93 48.2244H423.268C423.285 48.483 423.371 48.7074 423.528 48.8977C423.687 49.0852 423.894 49.2301 424.15 49.3324C424.406 49.4347 424.69 49.4858 425.002 49.4858C425.346 49.4858 425.65 49.4261 425.914 49.3068C426.181 49.1875 426.39 49.0213 426.54 48.8082C426.691 48.5923 426.766 48.3438 426.766 48.0625C426.766 47.7699 426.691 47.5128 426.54 47.2912C426.393 47.0668 426.175 46.8906 425.888 46.7628C425.604 46.6349 425.261 46.571 424.857 46.571H424.12V45.4972H424.857C425.181 45.4972 425.465 45.4389 425.71 45.3224C425.957 45.206 426.15 45.044 426.289 44.8366C426.428 44.6264 426.498 44.3807 426.498 44.0994C426.498 43.8295 426.437 43.5952 426.315 43.3963C426.195 43.1946 426.025 43.0369 425.803 42.9233C425.585 42.8097 425.326 42.7528 425.028 42.7528C424.744 42.7528 424.478 42.8054 424.231 42.9105C423.987 43.0128 423.788 43.1605 423.634 43.3537C423.481 43.544 423.398 43.7727 423.387 44.0398H422.113C422.127 43.5682 422.266 43.1534 422.531 42.7955C422.798 42.4375 423.15 42.1577 423.587 41.956C424.025 41.7543 424.511 41.6534 425.045 41.6534C425.604 41.6534 426.087 41.7628 426.494 41.9815C426.903 42.1974 427.218 42.4858 427.44 42.8466C427.664 43.2074 427.775 43.6023 427.772 44.0312C427.775 44.5199 427.638 44.9347 427.363 45.2756C427.09 45.6165 426.727 45.8452 426.272 45.9616V46.0298C426.852 46.1179 427.3 46.348 427.619 46.7202C427.94 47.0923 428.099 47.554 428.096 48.1051C428.099 48.5852 427.965 49.0156 427.695 49.3963C427.428 49.777 427.063 50.0767 426.6 50.2955C426.137 50.5114 425.607 50.6193 425.011 50.6193Z" fill="white"/>
<circle cx="753" cy="59" r="12" fill="#E0007B"/>
<path d="M751.159 63.5L754.969 55.9659V55.902H750.562V54.7727H756.332V55.9403L752.535 63.5H751.159Z" fill="white"/>
<circle cx="799" cy="59" r="12" fill="#E0007B"/>
<path d="M798.997 63.6193C798.387 63.6193 797.847 63.5142 797.378 63.304C796.912 63.0937 796.547 62.804 796.283 62.4347C796.019 62.0653 795.888 61.6449 795.891 61.1733C795.888 60.804 795.963 60.4645 796.117 60.1548C796.273 59.8423 796.485 59.5824 796.752 59.375C797.019 59.1648 797.317 59.0312 797.646 58.9744V58.9233C797.212 58.8182 796.864 58.5852 796.602 58.2244C796.341 57.8636 796.212 57.4489 796.215 56.9801C796.212 56.5341 796.33 56.1364 796.568 55.7869C796.81 55.4347 797.141 55.1577 797.561 54.956C797.982 54.7543 798.46 54.6534 798.997 54.6534C799.529 54.6534 800.003 54.7557 800.421 54.9602C800.841 55.1619 801.172 55.4389 801.414 55.7912C801.655 56.1406 801.777 56.5369 801.78 56.9801C801.777 57.4489 801.644 57.8636 801.379 58.2244C801.115 58.5852 800.771 58.8182 800.348 58.9233V58.9744C800.675 59.0312 800.969 59.1648 801.23 59.375C801.494 59.5824 801.705 59.8423 801.861 60.1548C802.02 60.4645 802.101 60.804 802.104 61.1733C802.101 61.6449 801.968 62.0653 801.703 62.4347C801.439 62.804 801.073 63.0937 800.604 63.304C800.138 63.5142 799.602 63.6193 798.997 63.6193ZM798.997 62.5412C799.358 62.5412 799.671 62.4815 799.935 62.3622C800.199 62.2401 800.404 62.071 800.548 61.8551C800.693 61.6364 800.767 61.3807 800.77 61.0881C800.767 60.7841 800.688 60.5156 800.531 60.2827C800.378 60.0497 800.169 59.8665 799.905 59.733C799.641 59.5994 799.338 59.5327 798.997 59.5327C798.654 59.5327 798.348 59.5994 798.081 59.733C797.814 59.8665 797.604 60.0497 797.45 60.2827C797.297 60.5156 797.222 60.7841 797.225 61.0881C797.222 61.3807 797.291 61.6364 797.433 61.8551C797.578 62.071 797.784 62.2401 798.051 62.3622C798.318 62.4815 798.634 62.5412 798.997 62.5412ZM798.997 58.4801C799.287 58.4801 799.544 58.4219 799.769 58.3054C799.993 58.1889 800.169 58.027 800.297 57.8196C800.428 57.6122 800.494 57.3693 800.497 57.0909C800.494 56.8182 800.429 56.5795 800.301 56.375C800.176 56.1705 800.002 56.0128 799.777 55.902C799.553 55.7884 799.293 55.7315 798.997 55.7315C798.696 55.7315 798.432 55.7884 798.205 55.902C797.98 56.0128 797.806 56.1705 797.681 56.375C797.556 56.5795 797.494 56.8182 797.497 57.0909C797.494 57.3693 797.557 57.6122 797.685 57.8196C797.813 58.027 797.989 58.1889 798.213 58.3054C798.441 58.4219 798.702 58.4801 798.997 58.4801Z" fill="white"/>
<circle cx="865" cy="59" r="12" fill="#E0007B"/>
<path d="M864.927 54.6534C865.316 54.6562 865.7 54.7273 866.078 54.8665C866.455 55.0057 866.796 55.233 867.1 55.5483C867.407 55.8636 867.651 56.2898 867.833 56.8267C868.018 57.3608 868.112 58.0256 868.115 58.821C868.115 59.5852 868.038 60.2656 867.884 60.8622C867.731 61.456 867.511 61.9574 867.224 62.3665C866.94 62.7756 866.595 63.0866 866.188 63.2997C865.782 63.5128 865.325 63.6193 864.816 63.6193C864.296 63.6193 863.835 63.517 863.431 63.3125C863.028 63.108 862.7 62.8253 862.447 62.4645C862.194 62.1009 862.036 61.6832 861.974 61.2116H863.274C863.359 61.5866 863.532 61.8906 863.794 62.1236C864.058 62.3537 864.399 62.4688 864.816 62.4688C865.455 62.4688 865.954 62.1903 866.312 61.6335C866.67 61.0739 866.85 60.2926 866.853 59.2898H866.785C866.637 59.5341 866.453 59.7443 866.231 59.9205C866.012 60.0966 865.767 60.233 865.494 60.3295C865.221 60.4261 864.93 60.4744 864.62 60.4744C864.117 60.4744 863.66 60.3509 863.248 60.1037C862.836 59.8565 862.508 59.517 862.264 59.0852C862.019 58.6534 861.897 58.1605 861.897 57.6065C861.897 57.0554 862.022 56.5554 862.272 56.1065C862.525 55.6577 862.877 55.3026 863.329 55.0412C863.784 54.777 864.316 54.6477 864.927 54.6534ZM864.931 55.7614C864.599 55.7614 864.299 55.8437 864.032 56.0085C863.768 56.1705 863.559 56.3906 863.406 56.669C863.252 56.9446 863.176 57.2514 863.176 57.5895C863.176 57.9276 863.249 58.2344 863.397 58.5099C863.548 58.7827 863.752 59 864.011 59.1619C864.272 59.321 864.57 59.4006 864.906 59.4006C865.156 59.4006 865.389 59.3523 865.605 59.2557C865.82 59.1591 866.009 59.0256 866.171 58.8551C866.333 58.6818 866.46 58.4858 866.551 58.267C866.642 58.0483 866.687 57.8182 866.687 57.5767C866.687 57.2557 866.61 56.9574 866.457 56.6818C866.306 56.4062 866.099 56.1847 865.835 56.017C865.57 55.8466 865.269 55.7614 864.931 55.7614Z" fill="white"/>
</g>
<defs>
<clipPath id="clip0_1_171">
<rect width="911" height="110" fill="white"/>
</clipPath>
</defs>
</svg>
