<svg width="458" height="172" viewBox="0 0 458 172" fill="none" xmlns="http://www.w3.org/2000/svg">
<g clip-path="url(#clip0_2_98)">
<path d="M9.5 15C9.5 11.9624 11.9624 9.5 15 9.5H451C454.038 9.5 456.5 11.9624 456.5 15V165C456.5 168.038 454.038 170.5 451 170.5H15C11.9624 170.5 9.5 168.038 9.5 165V15Z" fill="#F3F3F3" fill-opacity="0.25" stroke="#CCCCCC" stroke-width="3"/>
<rect x="85.5" y="24.5" width="293" height="37" rx="5.5" fill="#CCCCCC" stroke="#CCCCCC"/>
<rect x="85" y="70" width="70" height="16" rx="6" fill="#CCCCCC"/>
<rect x="85.5" y="102.5" width="124" height="15" rx="5.5" fill="#CCCCCC" stroke="#CCCCCC"/>
<rect x="123" y="126" width="30" height="30" rx="6" fill="#CCCCCC"/>
<rect x="85" y="126" width="30" height="30" rx="6" fill="#CCCCCC"/>
<circle cx="176" cy="141" r="15" fill="#CCCCCC"/>
<rect x="218" y="102" width="70" height="16" rx="6" fill="#CCCCCC"/>
<circle cx="46.5" cy="55.5" r="22.5" fill="#CCCCCC"/>
<line x1="12.1051" y1="11.2574" x2="231.105" y2="42.2574" stroke="#E0007B" stroke-width="1.5"/>
<line x1="119.782" y1="77.2823" x2="231.782" y2="43.2823" stroke="#E0007B" stroke-width="1.5"/>
<line x1="119.784" y1="78.7181" x2="46.7836" y2="56.7181" stroke="#E0007B" stroke-width="1.5"/>
<line x1="147.646" y1="110.661" x2="46.6464" y2="56.6614" stroke="#E0007B" stroke-width="1.5"/>
<line x1="148" y1="110.25" x2="253" y2="110.25" stroke="#E0007B" stroke-width="1.5"/>
<line x1="99.8933" y1="131.258" x2="252.893" y2="109.258" stroke="#E0007B" stroke-width="1.5"/>
<line x1="100" y1="141.25" x2="176" y2="141.25" stroke="#E0007B" stroke-width="1.5"/>
<circle cx="12" cy="12" r="12" fill="#E0007B"/>
<path d="M13.3146 7.77273V16.5H11.9936V9.09375H11.9425L9.8544 10.4574V9.19602L12.032 7.77273H13.3146Z" fill="white"/>
<circle cx="232" cy="43" r="12" fill="#E0007B"/>
<path d="M229.16 47.5V46.5455L232.113 43.4858C232.428 43.1534 232.688 42.8622 232.893 42.6122C233.1 42.3594 233.255 42.1193 233.357 41.892C233.46 41.6648 233.511 41.4233 233.511 41.1676C233.511 40.8778 233.442 40.6278 233.306 40.4176C233.17 40.2045 232.984 40.0412 232.748 39.9276C232.512 39.8111 232.246 39.7528 231.951 39.7528C231.638 39.7528 231.366 39.8168 231.133 39.9446C230.9 40.0724 230.721 40.2528 230.596 40.4858C230.471 40.7187 230.408 40.9915 230.408 41.304H229.151C229.151 40.7727 229.273 40.3082 229.518 39.9105C229.762 39.5128 230.097 39.2045 230.523 38.9858C230.95 38.7642 231.434 38.6534 231.977 38.6534C232.525 38.6534 233.008 38.7628 233.425 38.9815C233.846 39.1974 234.174 39.4929 234.41 39.8679C234.646 40.2401 234.763 40.6605 234.763 41.1293C234.763 41.4531 234.702 41.7699 234.58 42.0795C234.461 42.3892 234.252 42.7344 233.954 43.1151C233.656 43.4929 233.241 43.9517 232.71 44.4915L230.975 46.3068V46.3707H234.904V47.5H229.16Z" fill="white"/>
<circle cx="120" cy="78" r="12" fill="#E0007B"/>
<path d="M120.011 82.6193C119.425 82.6193 118.903 82.5185 118.442 82.3168C117.985 82.1151 117.623 81.8352 117.356 81.4773C117.092 81.1165 116.95 80.6989 116.93 80.2244H118.268C118.285 80.483 118.371 80.7074 118.528 80.8977C118.687 81.0852 118.894 81.2301 119.15 81.3324C119.406 81.4347 119.69 81.4858 120.002 81.4858C120.346 81.4858 120.65 81.4261 120.914 81.3068C121.181 81.1875 121.39 81.0213 121.54 80.8082C121.691 80.5923 121.766 80.3438 121.766 80.0625C121.766 79.7699 121.691 79.5128 121.54 79.2912C121.393 79.0668 121.175 78.8906 120.888 78.7628C120.604 78.6349 120.261 78.571 119.857 78.571H119.12V77.4972H119.857C120.181 77.4972 120.465 77.4389 120.71 77.3224C120.957 77.206 121.15 77.044 121.289 76.8366C121.428 76.6264 121.498 76.3807 121.498 76.0994C121.498 75.8295 121.437 75.5952 121.315 75.3963C121.195 75.1946 121.025 75.0369 120.803 74.9233C120.585 74.8097 120.326 74.7528 120.028 74.7528C119.744 74.7528 119.478 74.8054 119.231 74.9105C118.987 75.0128 118.788 75.1605 118.634 75.3537C118.481 75.544 118.398 75.7727 118.387 76.0398H117.113C117.127 75.5682 117.266 75.1534 117.531 74.7955C117.798 74.4375 118.15 74.1577 118.587 73.956C119.025 73.7543 119.511 73.6534 120.045 73.6534C120.604 73.6534 121.087 73.7628 121.494 73.9815C121.903 74.1974 122.218 74.4858 122.44 74.8466C122.664 75.2074 122.775 75.6023 122.772 76.0312C122.775 76.5199 122.638 76.9347 122.363 77.2756C122.09 77.6165 121.727 77.8452 121.272 77.9616V78.0298C121.852 78.1179 122.3 78.348 122.619 78.7202C122.94 79.0923 123.099 79.554 123.096 80.1051C123.099 80.5852 122.965 81.0156 122.695 81.3963C122.428 81.777 122.063 82.0767 121.6 82.2955C121.137 82.5114 120.607 82.6193 120.011 82.6193Z" fill="white"/>
<circle cx="47" cy="56" r="12" fill="#E0007B"/>
<path d="M43.7305 58.7955V57.7301L47.5018 51.7727H48.3413V53.3409H47.8086L45.1112 57.6108V57.679H50.2802V58.7955H43.7305ZM47.8683 60.5V58.4716L47.8768 57.9858V51.7727H49.1254V60.5H47.8683Z" fill="white"/>
<circle cx="148" cy="110" r="12" fill="#E0007B"/>
<path d="M147.999 114.619C147.465 114.619 146.985 114.517 146.559 114.312C146.136 114.105 145.798 113.821 145.545 113.46C145.292 113.099 145.157 112.688 145.14 112.224H146.419C146.45 112.599 146.616 112.908 146.917 113.149C147.218 113.391 147.579 113.511 147.999 113.511C148.335 113.511 148.632 113.435 148.89 113.281C149.151 113.125 149.356 112.911 149.504 112.638C149.654 112.365 149.73 112.054 149.73 111.705C149.73 111.349 149.653 111.033 149.499 110.754C149.346 110.476 149.134 110.257 148.865 110.098C148.597 109.939 148.291 109.858 147.944 109.855C147.68 109.855 147.414 109.901 147.147 109.991C146.88 110.082 146.664 110.202 146.499 110.349L145.294 110.17L145.784 105.773H150.582V106.902H146.879L146.602 109.344H146.653C146.823 109.179 147.049 109.041 147.33 108.93C147.615 108.82 147.919 108.764 148.242 108.764C148.774 108.764 149.247 108.891 149.661 109.143C150.079 109.396 150.407 109.741 150.646 110.179C150.887 110.614 151.007 111.114 151.004 111.679C151.007 112.244 150.879 112.749 150.62 113.192C150.365 113.635 150.009 113.984 149.555 114.24C149.103 114.493 148.585 114.619 147.999 114.619Z" fill="white"/>
<circle cx="253" cy="110" r="12" fill="#E0007B"/>
<path d="M253.072 114.619C252.683 114.614 252.299 114.543 251.921 114.406C251.546 114.27 251.205 114.043 250.899 113.724C250.592 113.406 250.346 112.979 250.161 112.442C249.98 111.905 249.889 111.234 249.889 110.43C249.889 109.669 249.964 108.993 250.115 108.402C250.268 107.811 250.488 107.312 250.775 106.906C251.062 106.497 251.409 106.186 251.815 105.973C252.221 105.76 252.677 105.653 253.183 105.653C253.703 105.653 254.164 105.756 254.568 105.96C254.971 106.165 255.298 106.447 255.548 106.808C255.801 107.169 255.961 107.58 256.029 108.04H254.73C254.642 107.676 254.467 107.379 254.205 107.149C253.944 106.919 253.603 106.804 253.183 106.804C252.544 106.804 252.045 107.082 251.687 107.639C251.332 108.196 251.153 108.97 251.15 109.962H251.214C251.365 109.714 251.549 109.504 251.768 109.331C251.99 109.155 252.237 109.02 252.509 108.926C252.785 108.83 253.075 108.781 253.379 108.781C253.884 108.781 254.342 108.905 254.751 109.152C255.163 109.396 255.491 109.734 255.735 110.166C255.98 110.598 256.102 111.092 256.102 111.649C256.102 112.206 255.975 112.71 255.722 113.162C255.472 113.614 255.12 113.972 254.666 114.236C254.211 114.497 253.68 114.625 253.072 114.619ZM253.068 113.511C253.403 113.511 253.703 113.429 253.967 113.264C254.231 113.099 254.44 112.878 254.593 112.599C254.747 112.321 254.823 112.01 254.823 111.666C254.823 111.331 254.748 111.026 254.597 110.75C254.45 110.474 254.245 110.256 253.984 110.094C253.725 109.932 253.43 109.851 253.097 109.851C252.845 109.851 252.61 109.899 252.394 109.996C252.181 110.092 251.994 110.226 251.832 110.396C251.67 110.567 251.542 110.763 251.448 110.984C251.357 111.203 251.312 111.435 251.312 111.679C251.312 112.006 251.387 112.308 251.538 112.587C251.691 112.865 251.9 113.089 252.164 113.26C252.431 113.428 252.732 113.511 253.068 113.511Z" fill="white"/>
<circle cx="100" cy="141" r="12" fill="#E0007B"/>
<path d="M98.1589 145.5L101.969 137.966V137.902H97.5623V136.773H103.332V137.94L99.5353 145.5H98.1589Z" fill="white"/>
<circle cx="138" cy="141" r="12" fill="#E0007B"/>
<path d="M137.997 145.619C137.387 145.619 136.847 145.514 136.378 145.304C135.912 145.094 135.547 144.804 135.283 144.435C135.019 144.065 134.888 143.645 134.891 143.173C134.888 142.804 134.963 142.464 135.117 142.155C135.273 141.842 135.485 141.582 135.752 141.375C136.019 141.165 136.317 141.031 136.646 140.974V140.923C136.212 140.818 135.864 140.585 135.602 140.224C135.341 139.864 135.212 139.449 135.215 138.98C135.212 138.534 135.33 138.136 135.568 137.787C135.81 137.435 136.141 137.158 136.561 136.956C136.982 136.754 137.46 136.653 137.997 136.653C138.529 136.653 139.003 136.756 139.421 136.96C139.841 137.162 140.172 137.439 140.414 137.791C140.655 138.141 140.777 138.537 140.78 138.98C140.777 139.449 140.644 139.864 140.379 140.224C140.115 140.585 139.771 140.818 139.348 140.923V140.974C139.675 141.031 139.969 141.165 140.23 141.375C140.494 141.582 140.705 141.842 140.861 142.155C141.02 142.464 141.101 142.804 141.104 143.173C141.101 143.645 140.968 144.065 140.703 144.435C140.439 144.804 140.073 145.094 139.604 145.304C139.138 145.514 138.602 145.619 137.997 145.619ZM137.997 144.541C138.358 144.541 138.671 144.482 138.935 144.362C139.199 144.24 139.404 144.071 139.548 143.855C139.693 143.636 139.767 143.381 139.77 143.088C139.767 142.784 139.688 142.516 139.531 142.283C139.378 142.05 139.169 141.866 138.905 141.733C138.641 141.599 138.338 141.533 137.997 141.533C137.654 141.533 137.348 141.599 137.081 141.733C136.814 141.866 136.604 142.05 136.45 142.283C136.297 142.516 136.222 142.784 136.225 143.088C136.222 143.381 136.291 143.636 136.433 143.855C136.578 144.071 136.784 144.24 137.051 144.362C137.318 144.482 137.634 144.541 137.997 144.541ZM137.997 140.48C138.287 140.48 138.544 140.422 138.769 140.305C138.993 140.189 139.169 140.027 139.297 139.82C139.428 139.612 139.494 139.369 139.497 139.091C139.494 138.818 139.429 138.58 139.301 138.375C139.176 138.17 139.002 138.013 138.777 137.902C138.553 137.788 138.293 137.732 137.997 137.732C137.696 137.732 137.432 137.788 137.205 137.902C136.98 138.013 136.806 138.17 136.681 138.375C136.556 138.58 136.494 138.818 136.497 139.091C136.494 139.369 136.557 139.612 136.685 139.82C136.813 140.027 136.989 140.189 137.213 140.305C137.441 140.422 137.702 140.48 137.997 140.48Z" fill="white"/>
<circle cx="176" cy="141" r="12" fill="#E0007B"/>
<path d="M175.927 136.653C176.316 136.656 176.7 136.727 177.078 136.866C177.455 137.006 177.796 137.233 178.1 137.548C178.407 137.864 178.651 138.29 178.833 138.827C179.018 139.361 179.112 140.026 179.115 140.821C179.115 141.585 179.038 142.266 178.884 142.862C178.731 143.456 178.511 143.957 178.224 144.366C177.94 144.776 177.595 145.087 177.188 145.3C176.782 145.513 176.325 145.619 175.816 145.619C175.296 145.619 174.835 145.517 174.431 145.312C174.028 145.108 173.7 144.825 173.447 144.464C173.194 144.101 173.036 143.683 172.974 143.212H174.274C174.359 143.587 174.532 143.891 174.794 144.124C175.058 144.354 175.399 144.469 175.816 144.469C176.455 144.469 176.954 144.19 177.312 143.634C177.67 143.074 177.85 142.293 177.853 141.29H177.785C177.637 141.534 177.453 141.744 177.231 141.92C177.012 142.097 176.767 142.233 176.494 142.33C176.221 142.426 175.93 142.474 175.62 142.474C175.117 142.474 174.66 142.351 174.248 142.104C173.836 141.857 173.508 141.517 173.264 141.085C173.019 140.653 172.897 140.161 172.897 139.607C172.897 139.055 173.022 138.555 173.272 138.107C173.525 137.658 173.877 137.303 174.329 137.041C174.784 136.777 175.316 136.648 175.927 136.653ZM175.931 137.761C175.599 137.761 175.299 137.844 175.032 138.009C174.768 138.17 174.559 138.391 174.406 138.669C174.252 138.945 174.176 139.251 174.176 139.589C174.176 139.928 174.249 140.234 174.397 140.51C174.548 140.783 174.752 141 175.011 141.162C175.272 141.321 175.57 141.401 175.906 141.401C176.156 141.401 176.389 141.352 176.605 141.256C176.82 141.159 177.009 141.026 177.171 140.855C177.333 140.682 177.46 140.486 177.551 140.267C177.642 140.048 177.687 139.818 177.687 139.577C177.687 139.256 177.61 138.957 177.457 138.682C177.306 138.406 177.099 138.185 176.835 138.017C176.57 137.847 176.269 137.761 175.931 137.761Z" fill="white"/>
</g>
<defs>
<clipPath id="clip0_2_98">
<rect width="458" height="172" fill="white"/>
</clipPath>
</defs>
</svg>
