<svg xmlns="http://www.w3.org/2000/svg" viewBox="0 0 480 105"><path fill="#4A4A4A" fill-rule="evenodd" d="M0 4.053h37.666v8.226H0V4.052zM59 .485l30.36 82.1H76.813L46.55.488h12.46L59 .485zM82.637 96.43v-5.464h60.346v5.464H82.637zm71.262-73.4c3.305-7.55 7.406-14.73 12.234-21.41h11.39l-3.23 6.053c-4.404 8.203-7.53 17.03-9.274 26.174-1.167 6.45-1.732 12.997-1.688 19.553-.108 10.336 1.482 20.62 4.707 30.44 2.664 7.282 5.925 14.33 9.75 21.076H166.61l-3.762-5.245c-2.44-3.166-5.035-7.885-7.78-14.156-4.73-10.393-7.24-21.66-7.37-33.077.054-10.123 2.163-20.13 6.2-29.412l.007.01-.008-.005zM231.14.01L220.93 6.1c3.15 4.54 6.29 9.52 9.337 14.943 1.733 3.093 4.448 8.19 8.246 15.492l10.094-6.645c-5.166-10.333-11-20.317-17.467-29.89v.01zm42.316 4.213c-3.476 18.936-9.556 34.2-18.015 45.715-9.547 12.84-23.004 22.25-40.255 28.45l7.588 10.738c18.663-6.64 33.2-17.492 43.835-32.43 9.22-13.182 15.733-30 19.417-50.373l-12.58-2.1h.01zm-67.6 3.872l-10.307 6.53c3.15 4.537 6.29 9.627 9.44 15.16 2.716 4.65 5.427 9.743 8.032 15.056l10.413-6.31c-5.144-10.543-11.018-20.714-17.58-30.44v.005zM324.678 23.03c4.044 9.275 6.154 19.278 6.2 29.396-.124 11.415-2.63 22.68-7.362 33.068-2.05 5.004-4.66 9.76-7.78 14.175l-3.77 5.243h-11.172c3.826-6.746 7.087-13.796 9.75-21.08 3.228-9.818 4.82-20.1 4.708-30.434.047-6.56-.52-13.11-1.692-19.563-1.736-9.144-4.86-17.97-9.266-26.168l-3.228-6.053h11.386c4.82 6.682 8.923 13.855 12.236 21.4l-.007.007-.002.006zm11.13 73.4v-5.468h60.33v5.468h-60.33zM420.472.486h12.552l-30.357 82.1h-12.46l30.256-82.1h.012-.003zm21.864 3.564H480v8.228h-37.67v-8.23l.006.002z" /></svg>
