<svg xmlns="http://www.w3.org/2000/svg" viewBox="0 0 240 240"><path fill-rule="evenodd" d="M237.758 119.93c0 43.06-14.57 83.082-43.713 120.07l-10.227-7.986c27.367-33.812 41.05-71.173 41.05-112.084 0-39.977-13.636-77.29-40.91-111.944L194.186 0c29.048 36.894 43.572 76.87 43.572 119.93zm-30.823 0c0 35.773-12.05 69.4-36.147 100.876L160.56 213.1c22.324-29.142 33.485-60.2 33.485-93.17 0-32.785-11.16-63.795-33.485-93.03l10.228-7.706c24.098 30.917 36.147 64.495 36.147 100.736zm-30.823 0c0 28.3-9.574 55.528-28.722 81.68l-10.367-7.564c17.466-23.445 26.2-48.15 26.2-74.116 0-25.5-8.734-50.204-26.2-74.116l10.367-7.565c19.148 26.245 28.722 53.472 28.722 81.68zm-68.51 101.996L41.61 160.98H0v-82.1h41.75l65.85-60.806v203.852z"/></svg>
