<svg width="1200" height="779" viewBox="0 0 1200 779" fill="none" xmlns="http://www.w3.org/2000/svg">
<path d="M1200 4L1 391.5L1200 779V4Z" fill="url(#paint0_linear_42_628)"/>
<path d="M1021.78 383.864H1029.34C1030.55 383.864 1031.55 384.04 1032.31 384.392C1033.08 384.744 1033.67 385.184 1034.09 385.712C1034.51 386.24 1034.79 386.816 1034.93 387.44C1035.09 388.064 1035.17 388.64 1035.17 389.168C1035.17 389.696 1035.09 390.272 1034.93 390.896C1034.79 391.504 1034.51 392.072 1034.09 392.6C1033.67 393.128 1033.08 393.568 1032.31 393.92C1031.55 394.256 1030.55 394.424 1029.34 394.424H1024.78V401H1021.78V383.864ZM1024.78 391.976H1029.17C1029.51 391.976 1029.85 391.928 1030.2 391.832C1030.55 391.736 1030.87 391.584 1031.16 391.376C1031.47 391.152 1031.71 390.864 1031.88 390.512C1032.07 390.144 1032.17 389.688 1032.17 389.144C1032.17 388.584 1032.09 388.12 1031.93 387.752C1031.77 387.384 1031.55 387.096 1031.28 386.888C1031.01 386.664 1030.7 386.512 1030.35 386.432C1029.99 386.352 1029.62 386.312 1029.22 386.312H1024.78V391.976ZM1037.4 388.592H1039.97V390.992H1040.02C1040.1 390.656 1040.25 390.328 1040.47 390.008C1040.71 389.688 1040.99 389.4 1041.31 389.144C1041.65 388.872 1042.02 388.656 1042.42 388.496C1042.82 388.336 1043.22 388.256 1043.64 388.256C1043.96 388.256 1044.18 388.264 1044.29 388.28C1044.42 388.296 1044.54 388.312 1044.67 388.328V390.968C1044.48 390.936 1044.28 390.912 1044.07 390.896C1043.88 390.864 1043.69 390.848 1043.5 390.848C1043.03 390.848 1042.59 390.944 1042.18 391.136C1041.78 391.312 1041.42 391.584 1041.12 391.952C1040.82 392.304 1040.58 392.744 1040.4 393.272C1040.22 393.8 1040.14 394.408 1040.14 395.096V401H1037.4V388.592ZM1053.94 393.704C1053.9 393.272 1053.81 392.856 1053.65 392.456C1053.5 392.056 1053.3 391.712 1053.02 391.424C1052.77 391.12 1052.45 390.88 1052.06 390.704C1051.7 390.512 1051.28 390.416 1050.82 390.416C1050.34 390.416 1049.9 390.504 1049.5 390.68C1049.11 390.84 1048.78 391.072 1048.49 391.376C1048.22 391.664 1047.99 392.008 1047.82 392.408C1047.66 392.808 1047.57 393.24 1047.55 393.704H1053.94ZM1047.55 395.504C1047.55 395.984 1047.62 396.448 1047.74 396.896C1047.89 397.344 1048.1 397.736 1048.37 398.072C1048.64 398.408 1048.98 398.68 1049.4 398.888C1049.82 399.08 1050.31 399.176 1050.89 399.176C1051.69 399.176 1052.33 399.008 1052.81 398.672C1053.3 398.32 1053.67 397.8 1053.91 397.112H1056.5C1056.36 397.784 1056.11 398.384 1055.76 398.912C1055.41 399.44 1054.98 399.888 1054.49 400.256C1053.99 400.608 1053.43 400.872 1052.81 401.048C1052.2 401.24 1051.56 401.336 1050.89 401.336C1049.91 401.336 1049.05 401.176 1048.3 400.856C1047.54 400.536 1046.9 400.088 1046.38 399.512C1045.86 398.936 1045.47 398.248 1045.2 397.448C1044.94 396.648 1044.82 395.768 1044.82 394.808C1044.82 393.928 1044.95 393.096 1045.22 392.312C1045.51 391.512 1045.91 390.816 1046.42 390.224C1046.95 389.616 1047.58 389.136 1048.32 388.784C1049.06 388.432 1049.89 388.256 1050.82 388.256C1051.79 388.256 1052.66 388.464 1053.43 388.88C1054.22 389.28 1054.86 389.816 1055.38 390.488C1055.89 391.16 1056.26 391.936 1056.48 392.816C1056.72 393.68 1056.78 394.576 1056.67 395.504H1047.55ZM1060.82 397.016C1060.9 397.816 1061.2 398.376 1061.73 398.696C1062.26 399.016 1062.89 399.176 1063.62 399.176C1063.88 399.176 1064.17 399.16 1064.49 399.128C1064.82 399.08 1065.14 399 1065.42 398.888C1065.71 398.776 1065.94 398.616 1066.12 398.408C1066.31 398.184 1066.4 397.896 1066.38 397.544C1066.37 397.192 1066.24 396.904 1066 396.68C1065.76 396.456 1065.45 396.28 1065.06 396.152C1064.7 396.008 1064.27 395.888 1063.79 395.792C1063.31 395.696 1062.82 395.592 1062.33 395.48C1061.82 395.368 1061.32 395.232 1060.84 395.072C1060.38 394.912 1059.95 394.696 1059.57 394.424C1059.2 394.152 1058.9 393.808 1058.68 393.392C1058.46 392.96 1058.34 392.432 1058.34 391.808C1058.34 391.136 1058.5 390.576 1058.82 390.128C1059.16 389.664 1059.58 389.296 1060.07 389.024C1060.58 388.736 1061.14 388.536 1061.75 388.424C1062.38 388.312 1062.97 388.256 1063.53 388.256C1064.17 388.256 1064.78 388.328 1065.35 388.472C1065.94 388.6 1066.47 388.816 1066.94 389.12C1067.42 389.424 1067.81 389.824 1068.11 390.32C1068.43 390.8 1068.63 391.384 1068.71 392.072H1065.86C1065.73 391.416 1065.42 390.976 1064.94 390.752C1064.48 390.528 1063.94 390.416 1063.34 390.416C1063.14 390.416 1062.91 390.432 1062.64 390.464C1062.38 390.496 1062.14 390.56 1061.9 390.656C1061.67 390.736 1061.48 390.864 1061.32 391.04C1061.16 391.2 1061.08 391.416 1061.08 391.688C1061.08 392.024 1061.19 392.296 1061.42 392.504C1061.66 392.712 1061.96 392.888 1062.33 393.032C1062.71 393.16 1063.14 393.272 1063.62 393.368C1064.1 393.464 1064.6 393.568 1065.11 393.68C1065.61 393.792 1066.1 393.928 1066.58 394.088C1067.06 394.248 1067.48 394.464 1067.85 394.736C1068.23 395.008 1068.54 395.352 1068.76 395.768C1069 396.184 1069.12 396.696 1069.12 397.304C1069.12 398.04 1068.95 398.664 1068.62 399.176C1068.28 399.688 1067.84 400.104 1067.3 400.424C1066.77 400.744 1066.18 400.976 1065.52 401.12C1064.86 401.264 1064.22 401.336 1063.58 401.336C1062.79 401.336 1062.06 401.248 1061.39 401.072C1060.74 400.896 1060.16 400.632 1059.66 400.28C1059.18 399.912 1058.8 399.464 1058.51 398.936C1058.24 398.392 1058.1 397.752 1058.08 397.016H1060.82ZM1079.72 393.704C1079.69 393.272 1079.59 392.856 1079.43 392.456C1079.29 392.056 1079.08 391.712 1078.81 391.424C1078.55 391.12 1078.23 390.88 1077.85 390.704C1077.48 390.512 1077.06 390.416 1076.6 390.416C1076.12 390.416 1075.68 390.504 1075.28 390.68C1074.89 390.84 1074.56 391.072 1074.27 391.376C1074 391.664 1073.77 392.008 1073.6 392.408C1073.44 392.808 1073.35 393.24 1073.33 393.704H1079.72ZM1073.33 395.504C1073.33 395.984 1073.4 396.448 1073.53 396.896C1073.67 397.344 1073.88 397.736 1074.15 398.072C1074.42 398.408 1074.77 398.68 1075.18 398.888C1075.6 399.08 1076.09 399.176 1076.67 399.176C1077.47 399.176 1078.11 399.008 1078.59 398.672C1079.09 398.32 1079.45 397.8 1079.69 397.112H1082.29C1082.14 397.784 1081.89 398.384 1081.54 398.912C1081.19 399.44 1080.77 399.888 1080.27 400.256C1079.77 400.608 1079.21 400.872 1078.59 401.048C1077.98 401.24 1077.34 401.336 1076.67 401.336C1075.69 401.336 1074.83 401.176 1074.08 400.856C1073.33 400.536 1072.69 400.088 1072.16 399.512C1071.65 398.936 1071.25 398.248 1070.98 397.448C1070.73 396.648 1070.6 395.768 1070.6 394.808C1070.6 393.928 1070.73 393.096 1071.01 392.312C1071.29 391.512 1071.69 390.816 1072.21 390.224C1072.73 389.616 1073.37 389.136 1074.1 388.784C1074.84 388.432 1075.67 388.256 1076.6 388.256C1077.57 388.256 1078.45 388.464 1079.21 388.88C1080 389.28 1080.65 389.816 1081.16 390.488C1081.67 391.16 1082.04 391.936 1082.26 392.816C1082.5 393.68 1082.57 394.576 1082.45 395.504H1073.33ZM1084.53 388.592H1087.13V390.416L1087.17 390.464C1087.59 389.776 1088.13 389.24 1088.81 388.856C1089.48 388.456 1090.22 388.256 1091.04 388.256C1092.4 388.256 1093.47 388.608 1094.25 389.312C1095.04 390.016 1095.43 391.072 1095.43 392.48V401H1092.69V393.2C1092.66 392.224 1092.45 391.52 1092.07 391.088C1091.69 390.64 1091.09 390.416 1090.27 390.416C1089.81 390.416 1089.39 390.504 1089.02 390.68C1088.65 390.84 1088.34 391.072 1088.09 391.376C1087.83 391.664 1087.63 392.008 1087.49 392.408C1087.34 392.808 1087.27 393.232 1087.27 393.68V401H1084.53V388.592ZM1097.07 388.592H1099.13V384.872H1101.87V388.592H1104.34V390.632H1101.87V397.256C1101.87 397.544 1101.88 397.792 1101.89 398C1101.92 398.208 1101.98 398.384 1102.06 398.528C1102.16 398.672 1102.29 398.784 1102.47 398.864C1102.64 398.928 1102.88 398.96 1103.19 398.96C1103.38 398.96 1103.57 398.96 1103.76 398.96C1103.96 398.944 1104.15 398.912 1104.34 398.864V400.976C1104.04 401.008 1103.74 401.04 1103.45 401.072C1103.16 401.104 1102.87 401.12 1102.56 401.12C1101.84 401.12 1101.26 401.056 1100.81 400.928C1100.38 400.784 1100.04 400.584 1099.78 400.328C1099.54 400.056 1099.37 399.72 1099.28 399.32C1099.2 398.92 1099.15 398.464 1099.13 397.952V390.632H1097.07V388.592ZM1124.67 401H1122.08V399.32H1122.03C1121.67 400.04 1121.13 400.56 1120.43 400.88C1119.72 401.184 1118.98 401.336 1118.19 401.336C1117.22 401.336 1116.36 401.168 1115.63 400.832C1114.91 400.48 1114.31 400.008 1113.83 399.416C1113.35 398.824 1112.99 398.128 1112.75 397.328C1112.51 396.512 1112.39 395.64 1112.39 394.712C1112.39 393.592 1112.54 392.624 1112.84 391.808C1113.15 390.992 1113.55 390.32 1114.04 389.792C1114.55 389.264 1115.13 388.88 1115.77 388.64C1116.43 388.384 1117.09 388.256 1117.76 388.256C1118.15 388.256 1118.54 388.296 1118.94 388.376C1119.34 388.44 1119.72 388.552 1120.09 388.712C1120.46 388.872 1120.79 389.08 1121.1 389.336C1121.42 389.576 1121.68 389.864 1121.89 390.2H1121.94V383.864H1124.67V401ZM1115.12 394.928C1115.12 395.456 1115.19 395.976 1115.31 396.488C1115.46 397 1115.67 397.456 1115.94 397.856C1116.23 398.256 1116.59 398.576 1117.02 398.816C1117.45 399.056 1117.96 399.176 1118.55 399.176C1119.16 399.176 1119.68 399.048 1120.11 398.792C1120.56 398.536 1120.92 398.2 1121.19 397.784C1121.48 397.368 1121.69 396.904 1121.82 396.392C1121.96 395.864 1122.03 395.328 1122.03 394.784C1122.03 393.408 1121.72 392.336 1121.1 391.568C1120.49 390.8 1119.66 390.416 1118.6 390.416C1117.96 390.416 1117.42 390.552 1116.97 390.824C1116.54 391.08 1116.18 391.424 1115.89 391.856C1115.62 392.272 1115.42 392.752 1115.29 393.296C1115.18 393.824 1115.12 394.368 1115.12 394.928ZM1138.05 398.24C1138.05 398.576 1138.09 398.816 1138.17 398.96C1138.27 399.104 1138.44 399.176 1138.7 399.176C1138.78 399.176 1138.87 399.176 1138.99 399.176C1139.1 399.176 1139.23 399.16 1139.37 399.128V401.024C1139.27 401.056 1139.15 401.088 1138.99 401.12C1138.84 401.168 1138.69 401.208 1138.53 401.24C1138.37 401.272 1138.21 401.296 1138.05 401.312C1137.89 401.328 1137.75 401.336 1137.64 401.336C1137.08 401.336 1136.62 401.224 1136.25 401C1135.88 400.776 1135.64 400.384 1135.53 399.824C1134.99 400.352 1134.31 400.736 1133.51 400.976C1132.73 401.216 1131.97 401.336 1131.23 401.336C1130.67 401.336 1130.14 401.256 1129.63 401.096C1129.11 400.952 1128.66 400.736 1128.26 400.448C1127.87 400.144 1127.56 399.768 1127.32 399.32C1127.1 398.856 1126.99 398.32 1126.99 397.712C1126.99 396.944 1127.12 396.32 1127.39 395.84C1127.68 395.36 1128.05 394.984 1128.5 394.712C1128.96 394.44 1129.47 394.248 1130.03 394.136C1130.61 394.008 1131.19 393.912 1131.76 393.848C1132.26 393.752 1132.73 393.688 1133.18 393.656C1133.63 393.608 1134.02 393.536 1134.35 393.44C1134.71 393.344 1134.98 393.2 1135.17 393.008C1135.38 392.8 1135.48 392.496 1135.48 392.096C1135.48 391.744 1135.39 391.456 1135.22 391.232C1135.06 391.008 1134.85 390.84 1134.59 390.728C1134.35 390.6 1134.08 390.52 1133.78 390.488C1133.47 390.44 1133.19 390.416 1132.91 390.416C1132.15 390.416 1131.51 390.576 1131.02 390.896C1130.52 391.216 1130.24 391.712 1130.18 392.384H1127.44C1127.49 391.584 1127.68 390.92 1128.02 390.392C1128.35 389.864 1128.78 389.44 1129.29 389.12C1129.82 388.8 1130.41 388.576 1131.07 388.448C1131.72 388.32 1132.39 388.256 1133.08 388.256C1133.69 388.256 1134.29 388.32 1134.88 388.448C1135.47 388.576 1136 388.784 1136.47 389.072C1136.95 389.36 1137.33 389.736 1137.62 390.2C1137.91 390.648 1138.05 391.2 1138.05 391.856V398.24ZM1135.31 394.784C1134.9 395.056 1134.39 395.224 1133.78 395.288C1133.17 395.336 1132.56 395.416 1131.95 395.528C1131.67 395.576 1131.39 395.648 1131.11 395.744C1130.84 395.824 1130.6 395.944 1130.39 396.104C1130.19 396.248 1130.02 396.448 1129.89 396.704C1129.78 396.944 1129.72 397.24 1129.72 397.592C1129.72 397.896 1129.81 398.152 1129.99 398.36C1130.16 398.568 1130.37 398.736 1130.61 398.864C1130.87 398.976 1131.14 399.056 1131.43 399.104C1131.73 399.152 1132 399.176 1132.24 399.176C1132.55 399.176 1132.87 399.136 1133.23 399.056C1133.58 398.976 1133.91 398.84 1134.21 398.648C1134.53 398.456 1134.79 398.216 1135 397.928C1135.21 397.624 1135.31 397.256 1135.31 396.824V394.784ZM1139.63 388.592H1142.63L1145.87 397.856H1145.91L1149.06 388.592H1151.91L1147.09 401.672C1146.87 402.232 1146.64 402.768 1146.42 403.28C1146.21 403.792 1145.95 404.24 1145.63 404.624C1145.32 405.024 1144.94 405.336 1144.47 405.56C1144.01 405.8 1143.42 405.92 1142.7 405.92C1142.06 405.92 1141.43 405.872 1140.8 405.776V403.472C1141.03 403.504 1141.24 403.536 1141.45 403.568C1141.66 403.616 1141.87 403.64 1142.1 403.64C1142.42 403.64 1142.68 403.6 1142.89 403.52C1143.1 403.44 1143.27 403.32 1143.39 403.16C1143.54 403.016 1143.66 402.84 1143.75 402.632C1143.85 402.424 1143.94 402.184 1144.02 401.912L1144.33 400.952L1139.63 388.592Z" fill="white"/>
<path d="M136.408 383.864H139.6L146.2 401H142.984L141.376 396.464H134.536L132.928 401H129.832L136.408 383.864ZM135.352 394.184H140.584L138.016 386.816H137.944L135.352 394.184ZM147.448 388.592H150.04V390.32H150.112C150.32 390.016 150.544 389.736 150.784 389.48C151.024 389.224 151.288 389.008 151.576 388.832C151.88 388.656 152.224 388.52 152.608 388.424C152.992 388.312 153.432 388.256 153.928 388.256C154.68 388.256 155.376 388.424 156.016 388.76C156.672 389.096 157.136 389.616 157.408 390.32C157.872 389.68 158.408 389.176 159.016 388.808C159.624 388.44 160.384 388.256 161.296 388.256C162.608 388.256 163.624 388.576 164.344 389.216C165.08 389.856 165.448 390.928 165.448 392.432V401H162.712V393.752C162.712 393.256 162.696 392.808 162.664 392.408C162.632 391.992 162.536 391.64 162.376 391.352C162.232 391.048 162.008 390.816 161.704 390.656C161.4 390.496 160.984 390.416 160.456 390.416C159.528 390.416 158.856 390.704 158.44 391.28C158.024 391.856 157.816 392.672 157.816 393.728V401H155.08V393.032C155.08 392.168 154.92 391.52 154.6 391.088C154.296 390.64 153.728 390.416 152.896 390.416C152.544 390.416 152.2 390.488 151.864 390.632C151.544 390.776 151.256 390.984 151 391.256C150.76 391.528 150.56 391.864 150.4 392.264C150.256 392.664 150.184 393.12 150.184 393.632V401H147.448V388.592ZM174.019 401.336C173.027 401.336 172.139 401.176 171.355 400.856C170.587 400.52 169.931 400.064 169.387 399.488C168.859 398.912 168.451 398.224 168.163 397.424C167.891 396.624 167.755 395.744 167.755 394.784C167.755 393.84 167.891 392.968 168.163 392.168C168.451 391.368 168.859 390.68 169.387 390.104C169.931 389.528 170.587 389.08 171.355 388.76C172.139 388.424 173.027 388.256 174.019 388.256C175.011 388.256 175.891 388.424 176.659 388.76C177.443 389.08 178.099 389.528 178.627 390.104C179.171 390.68 179.579 391.368 179.851 392.168C180.139 392.968 180.283 393.84 180.283 394.784C180.283 395.744 180.139 396.624 179.851 397.424C179.579 398.224 179.171 398.912 178.627 399.488C178.099 400.064 177.443 400.52 176.659 400.856C175.891 401.176 175.011 401.336 174.019 401.336ZM174.019 399.176C174.627 399.176 175.155 399.048 175.603 398.792C176.051 398.536 176.419 398.2 176.707 397.784C176.995 397.368 177.203 396.904 177.331 396.392C177.475 395.864 177.547 395.328 177.547 394.784C177.547 394.256 177.475 393.728 177.331 393.2C177.203 392.672 176.995 392.208 176.707 391.808C176.419 391.392 176.051 391.056 175.603 390.8C175.155 390.544 174.627 390.416 174.019 390.416C173.411 390.416 172.883 390.544 172.435 390.8C171.987 391.056 171.619 391.392 171.331 391.808C171.043 392.208 170.827 392.672 170.683 393.2C170.555 393.728 170.491 394.256 170.491 394.784C170.491 395.328 170.555 395.864 170.683 396.392C170.827 396.904 171.043 397.368 171.331 397.784C171.619 398.2 171.987 398.536 172.435 398.792C172.883 399.048 173.411 399.176 174.019 399.176ZM193.453 401H190.765V399.272H190.717C190.381 399.896 189.877 400.4 189.205 400.784C188.549 401.152 187.877 401.336 187.189 401.336C185.557 401.336 184.373 400.936 183.637 400.136C182.917 399.32 182.557 398.096 182.557 396.464V388.592H185.293V396.2C185.293 397.288 185.501 398.056 185.917 398.504C186.333 398.952 186.917 399.176 187.669 399.176C188.245 399.176 188.725 399.088 189.109 398.912C189.493 398.736 189.805 398.504 190.045 398.216C190.285 397.912 190.453 397.552 190.549 397.136C190.661 396.72 190.717 396.272 190.717 395.792V388.592H193.453V401ZM196.338 388.592H198.93V390.416L198.978 390.464C199.394 389.776 199.938 389.24 200.61 388.856C201.282 388.456 202.026 388.256 202.842 388.256C204.202 388.256 205.274 388.608 206.058 389.312C206.842 390.016 207.234 391.072 207.234 392.48V401H204.498V393.2C204.466 392.224 204.258 391.52 203.874 391.088C203.49 390.64 202.89 390.416 202.074 390.416C201.61 390.416 201.194 390.504 200.826 390.68C200.458 390.84 200.146 391.072 199.89 391.376C199.634 391.664 199.434 392.008 199.29 392.408C199.146 392.808 199.074 393.232 199.074 393.68V401H196.338V388.592ZM208.872 388.592H210.936V384.872H213.672V388.592H216.144V390.632H213.672V397.256C213.672 397.544 213.68 397.792 213.696 398C213.728 398.208 213.784 398.384 213.864 398.528C213.96 398.672 214.096 398.784 214.272 398.864C214.448 398.928 214.688 398.96 214.992 398.96C215.184 398.96 215.376 398.96 215.568 398.96C215.76 398.944 215.952 398.912 216.144 398.864V400.976C215.84 401.008 215.544 401.04 215.256 401.072C214.968 401.104 214.672 401.12 214.368 401.12C213.648 401.12 213.064 401.056 212.616 400.928C212.184 400.784 211.84 400.584 211.584 400.328C211.344 400.056 211.176 399.72 211.08 399.32C211 398.92 210.952 398.464 210.936 397.952V390.632H208.872V388.592ZM230.48 401.336C229.488 401.336 228.6 401.176 227.816 400.856C227.048 400.52 226.392 400.064 225.848 399.488C225.32 398.912 224.912 398.224 224.624 397.424C224.352 396.624 224.216 395.744 224.216 394.784C224.216 393.84 224.352 392.968 224.624 392.168C224.912 391.368 225.32 390.68 225.848 390.104C226.392 389.528 227.048 389.08 227.816 388.76C228.6 388.424 229.488 388.256 230.48 388.256C231.472 388.256 232.352 388.424 233.12 388.76C233.904 389.08 234.56 389.528 235.088 390.104C235.632 390.68 236.04 391.368 236.312 392.168C236.6 392.968 236.744 393.84 236.744 394.784C236.744 395.744 236.6 396.624 236.312 397.424C236.04 398.224 235.632 398.912 235.088 399.488C234.56 400.064 233.904 400.52 233.12 400.856C232.352 401.176 231.472 401.336 230.48 401.336ZM230.48 399.176C231.088 399.176 231.616 399.048 232.064 398.792C232.512 398.536 232.88 398.2 233.168 397.784C233.456 397.368 233.664 396.904 233.792 396.392C233.936 395.864 234.008 395.328 234.008 394.784C234.008 394.256 233.936 393.728 233.792 393.2C233.664 392.672 233.456 392.208 233.168 391.808C232.88 391.392 232.512 391.056 232.064 390.8C231.616 390.544 231.088 390.416 230.48 390.416C229.872 390.416 229.344 390.544 228.896 390.8C228.448 391.056 228.08 391.392 227.792 391.808C227.504 392.208 227.288 392.672 227.144 393.2C227.016 393.728 226.952 394.256 226.952 394.784C226.952 395.328 227.016 395.864 227.144 396.392C227.288 396.904 227.504 397.368 227.792 397.784C228.08 398.2 228.448 398.536 228.896 398.792C229.344 399.048 229.872 399.176 230.48 399.176ZM237.794 388.592H239.834V387.56C239.834 386.776 239.93 386.144 240.122 385.664C240.314 385.168 240.57 384.792 240.89 384.536C241.21 384.264 241.57 384.088 241.97 384.008C242.386 383.912 242.818 383.864 243.266 383.864C244.146 383.864 244.786 383.92 245.186 384.032V386.168C245.01 386.12 244.818 386.088 244.61 386.072C244.418 386.04 244.186 386.024 243.914 386.024C243.546 386.024 243.226 386.112 242.954 386.288C242.698 386.464 242.57 386.808 242.57 387.32V388.592H244.898V390.632H242.57V401H239.834V390.632H237.794V388.592ZM255.332 397.016C255.412 397.816 255.716 398.376 256.244 398.696C256.772 399.016 257.404 399.176 258.14 399.176C258.396 399.176 258.684 399.16 259.004 399.128C259.34 399.08 259.652 399 259.94 398.888C260.228 398.776 260.46 398.616 260.636 398.408C260.828 398.184 260.916 397.896 260.9 397.544C260.884 397.192 260.756 396.904 260.516 396.68C260.276 396.456 259.964 396.28 259.58 396.152C259.212 396.008 258.788 395.888 258.308 395.792C257.828 395.696 257.34 395.592 256.844 395.48C256.332 395.368 255.836 395.232 255.356 395.072C254.892 394.912 254.468 394.696 254.084 394.424C253.716 394.152 253.42 393.808 253.196 393.392C252.972 392.96 252.86 392.432 252.86 391.808C252.86 391.136 253.02 390.576 253.34 390.128C253.676 389.664 254.092 389.296 254.588 389.024C255.1 388.736 255.66 388.536 256.268 388.424C256.892 388.312 257.484 388.256 258.044 388.256C258.684 388.256 259.292 388.328 259.868 388.472C260.46 388.6 260.988 388.816 261.452 389.12C261.932 389.424 262.324 389.824 262.628 390.32C262.948 390.8 263.148 391.384 263.228 392.072H260.372C260.244 391.416 259.94 390.976 259.46 390.752C258.996 390.528 258.46 390.416 257.852 390.416C257.66 390.416 257.428 390.432 257.156 390.464C256.9 390.496 256.652 390.56 256.412 390.656C256.188 390.736 255.996 390.864 255.836 391.04C255.676 391.2 255.596 391.416 255.596 391.688C255.596 392.024 255.708 392.296 255.932 392.504C256.172 392.712 256.476 392.888 256.844 393.032C257.228 393.16 257.66 393.272 258.14 393.368C258.62 393.464 259.116 393.568 259.628 393.68C260.124 393.792 260.612 393.928 261.092 394.088C261.572 394.248 261.996 394.464 262.364 394.736C262.748 395.008 263.052 395.352 263.276 395.768C263.516 396.184 263.636 396.696 263.636 397.304C263.636 398.04 263.468 398.664 263.132 399.176C262.796 399.688 262.356 400.104 261.812 400.424C261.284 400.744 260.692 400.976 260.036 401.12C259.38 401.264 258.732 401.336 258.092 401.336C257.308 401.336 256.58 401.248 255.908 401.072C255.252 400.896 254.676 400.632 254.18 400.28C253.7 399.912 253.316 399.464 253.028 398.936C252.756 398.392 252.612 397.752 252.596 397.016H255.332ZM276.609 401H273.921V399.272H273.873C273.537 399.896 273.033 400.4 272.361 400.784C271.705 401.152 271.033 401.336 270.345 401.336C268.713 401.336 267.529 400.936 266.793 400.136C266.073 399.32 265.713 398.096 265.713 396.464V388.592H268.449V396.2C268.449 397.288 268.657 398.056 269.073 398.504C269.489 398.952 270.073 399.176 270.825 399.176C271.401 399.176 271.881 399.088 272.265 398.912C272.649 398.736 272.961 398.504 273.201 398.216C273.441 397.912 273.609 397.552 273.705 397.136C273.817 396.72 273.873 396.272 273.873 395.792V388.592H276.609V401ZM279.495 388.592H282.063V390.992H282.111C282.191 390.656 282.343 390.328 282.567 390.008C282.807 389.688 283.087 389.4 283.407 389.144C283.743 388.872 284.111 388.656 284.511 388.496C284.911 388.336 285.319 388.256 285.735 388.256C286.055 388.256 286.271 388.264 286.383 388.28C286.511 388.296 286.639 388.312 286.767 388.328V390.968C286.575 390.936 286.375 390.912 286.167 390.896C285.975 390.864 285.783 390.848 285.591 390.848C285.127 390.848 284.687 390.944 284.271 391.136C283.871 391.312 283.519 391.584 283.215 391.952C282.911 392.304 282.671 392.744 282.495 393.272C282.319 393.8 282.231 394.408 282.231 395.096V401H279.495V388.592ZM286.708 388.592H288.748V387.56C288.748 386.776 288.844 386.144 289.036 385.664C289.228 385.168 289.484 384.792 289.804 384.536C290.124 384.264 290.484 384.088 290.884 384.008C291.3 383.912 291.732 383.864 292.18 383.864C293.06 383.864 293.7 383.92 294.1 384.032V386.168C293.924 386.12 293.732 386.088 293.524 386.072C293.332 386.04 293.1 386.024 292.828 386.024C292.46 386.024 292.14 386.112 291.868 386.288C291.612 386.464 291.484 386.808 291.484 387.32V388.592H293.812V390.632H291.484V401H288.748V390.632H286.708V388.592ZM305.895 398.24C305.895 398.576 305.935 398.816 306.015 398.96C306.111 399.104 306.287 399.176 306.543 399.176C306.623 399.176 306.719 399.176 306.831 399.176C306.943 399.176 307.071 399.16 307.215 399.128V401.024C307.119 401.056 306.991 401.088 306.831 401.12C306.687 401.168 306.535 401.208 306.375 401.24C306.215 401.272 306.055 401.296 305.895 401.312C305.735 401.328 305.599 401.336 305.487 401.336C304.927 401.336 304.463 401.224 304.095 401C303.727 400.776 303.487 400.384 303.375 399.824C302.831 400.352 302.159 400.736 301.359 400.976C300.575 401.216 299.815 401.336 299.079 401.336C298.519 401.336 297.983 401.256 297.471 401.096C296.959 400.952 296.503 400.736 296.103 400.448C295.719 400.144 295.407 399.768 295.167 399.32C294.943 398.856 294.831 398.32 294.831 397.712C294.831 396.944 294.967 396.32 295.239 395.84C295.527 395.36 295.895 394.984 296.343 394.712C296.807 394.44 297.319 394.248 297.879 394.136C298.455 394.008 299.031 393.912 299.607 393.848C300.103 393.752 300.575 393.688 301.023 393.656C301.471 393.608 301.863 393.536 302.199 393.44C302.551 393.344 302.823 393.2 303.015 393.008C303.223 392.8 303.327 392.496 303.327 392.096C303.327 391.744 303.239 391.456 303.063 391.232C302.903 391.008 302.695 390.84 302.439 390.728C302.199 390.6 301.927 390.52 301.623 390.488C301.319 390.44 301.031 390.416 300.759 390.416C299.991 390.416 299.359 390.576 298.863 390.896C298.367 391.216 298.087 391.712 298.023 392.384H295.287C295.335 391.584 295.527 390.92 295.863 390.392C296.199 389.864 296.623 389.44 297.135 389.12C297.663 388.8 298.255 388.576 298.911 388.448C299.567 388.32 300.239 388.256 300.927 388.256C301.535 388.256 302.135 388.32 302.727 388.448C303.319 388.576 303.847 388.784 304.311 389.072C304.791 389.36 305.175 389.736 305.463 390.2C305.751 390.648 305.895 391.2 305.895 391.856V398.24ZM303.159 394.784C302.743 395.056 302.231 395.224 301.623 395.288C301.015 395.336 300.407 395.416 299.799 395.528C299.511 395.576 299.231 395.648 298.959 395.744C298.687 395.824 298.447 395.944 298.239 396.104C298.031 396.248 297.863 396.448 297.735 396.704C297.623 396.944 297.567 397.24 297.567 397.592C297.567 397.896 297.655 398.152 297.831 398.36C298.007 398.568 298.215 398.736 298.455 398.864C298.711 398.976 298.983 399.056 299.271 399.104C299.575 399.152 299.847 399.176 300.087 399.176C300.391 399.176 300.719 399.136 301.071 399.056C301.423 398.976 301.751 398.84 302.055 398.648C302.375 398.456 302.639 398.216 302.847 397.928C303.055 397.624 303.159 397.256 303.159 396.824V394.784ZM317.214 392.744C317.102 391.976 316.79 391.4 316.278 391.016C315.782 390.616 315.15 390.416 314.382 390.416C314.03 390.416 313.654 390.48 313.254 390.608C312.854 390.72 312.486 390.944 312.15 391.28C311.814 391.6 311.534 392.056 311.31 392.648C311.086 393.224 310.974 393.984 310.974 394.928C310.974 395.44 311.03 395.952 311.142 396.464C311.27 396.976 311.462 397.432 311.718 397.832C311.99 398.232 312.334 398.56 312.75 398.816C313.166 399.056 313.67 399.176 314.262 399.176C315.062 399.176 315.718 398.928 316.23 398.432C316.758 397.936 317.086 397.24 317.214 396.344H319.95C319.694 397.96 319.078 399.2 318.102 400.064C317.142 400.912 315.862 401.336 314.262 401.336C313.286 401.336 312.422 401.176 311.67 400.856C310.934 400.52 310.31 400.072 309.798 399.512C309.286 398.936 308.894 398.256 308.622 397.472C308.366 396.688 308.238 395.84 308.238 394.928C308.238 394 308.366 393.128 308.622 392.312C308.878 391.496 309.262 390.792 309.774 390.2C310.286 389.592 310.918 389.12 311.67 388.784C312.438 388.432 313.334 388.256 314.358 388.256C315.078 388.256 315.758 388.352 316.398 388.544C317.054 388.72 317.63 388.992 318.126 389.36C318.638 389.728 319.054 390.192 319.374 390.752C319.694 391.312 319.886 391.976 319.95 392.744H317.214ZM330.694 393.704C330.662 393.272 330.566 392.856 330.406 392.456C330.262 392.056 330.054 391.712 329.782 391.424C329.526 391.12 329.206 390.88 328.822 390.704C328.454 390.512 328.038 390.416 327.574 390.416C327.094 390.416 326.654 390.504 326.254 390.68C325.87 390.84 325.534 391.072 325.246 391.376C324.974 391.664 324.75 392.008 324.574 392.408C324.414 392.808 324.326 393.24 324.31 393.704H330.694ZM324.31 395.504C324.31 395.984 324.374 396.448 324.502 396.896C324.646 397.344 324.854 397.736 325.126 398.072C325.398 398.408 325.742 398.68 326.158 398.888C326.574 399.08 327.07 399.176 327.646 399.176C328.446 399.176 329.086 399.008 329.566 398.672C330.062 398.32 330.43 397.8 330.67 397.112H333.262C333.118 397.784 332.87 398.384 332.518 398.912C332.166 399.44 331.742 399.888 331.246 400.256C330.75 400.608 330.19 400.872 329.566 401.048C328.958 401.24 328.318 401.336 327.646 401.336C326.67 401.336 325.806 401.176 325.054 400.856C324.302 400.536 323.662 400.088 323.134 399.512C322.622 398.936 322.23 398.248 321.958 397.448C321.702 396.648 321.574 395.768 321.574 394.808C321.574 393.928 321.71 393.096 321.982 392.312C322.27 391.512 322.67 390.816 323.182 390.224C323.71 389.616 324.342 389.136 325.078 388.784C325.814 388.432 326.646 388.256 327.574 388.256C328.55 388.256 329.422 388.464 330.19 388.88C330.974 389.28 331.622 389.816 332.134 390.488C332.646 391.16 333.014 391.936 333.238 392.816C333.478 393.68 333.542 394.576 333.43 395.504H324.31ZM352.582 398.24C352.582 398.576 352.622 398.816 352.702 398.96C352.798 399.104 352.974 399.176 353.23 399.176C353.31 399.176 353.406 399.176 353.518 399.176C353.63 399.176 353.758 399.16 353.902 399.128V401.024C353.806 401.056 353.678 401.088 353.518 401.12C353.374 401.168 353.222 401.208 353.062 401.24C352.902 401.272 352.742 401.296 352.582 401.312C352.422 401.328 352.286 401.336 352.174 401.336C351.614 401.336 351.15 401.224 350.782 401C350.414 400.776 350.174 400.384 350.062 399.824C349.518 400.352 348.846 400.736 348.046 400.976C347.262 401.216 346.502 401.336 345.766 401.336C345.206 401.336 344.67 401.256 344.158 401.096C343.646 400.952 343.19 400.736 342.79 400.448C342.406 400.144 342.094 399.768 341.854 399.32C341.63 398.856 341.518 398.32 341.518 397.712C341.518 396.944 341.654 396.32 341.926 395.84C342.214 395.36 342.582 394.984 343.03 394.712C343.494 394.44 344.006 394.248 344.566 394.136C345.142 394.008 345.718 393.912 346.294 393.848C346.79 393.752 347.262 393.688 347.71 393.656C348.158 393.608 348.55 393.536 348.886 393.44C349.238 393.344 349.51 393.2 349.702 393.008C349.91 392.8 350.014 392.496 350.014 392.096C350.014 391.744 349.926 391.456 349.75 391.232C349.59 391.008 349.382 390.84 349.126 390.728C348.886 390.6 348.614 390.52 348.31 390.488C348.006 390.44 347.718 390.416 347.446 390.416C346.678 390.416 346.046 390.576 345.55 390.896C345.054 391.216 344.774 391.712 344.71 392.384H341.974C342.022 391.584 342.214 390.92 342.55 390.392C342.886 389.864 343.31 389.44 343.822 389.12C344.35 388.8 344.942 388.576 345.598 388.448C346.254 388.32 346.926 388.256 347.614 388.256C348.222 388.256 348.822 388.32 349.414 388.448C350.006 388.576 350.534 388.784 350.998 389.072C351.478 389.36 351.862 389.736 352.15 390.2C352.438 390.648 352.582 391.2 352.582 391.856V398.24ZM349.846 394.784C349.43 395.056 348.918 395.224 348.31 395.288C347.702 395.336 347.094 395.416 346.486 395.528C346.198 395.576 345.918 395.648 345.646 395.744C345.374 395.824 345.134 395.944 344.926 396.104C344.718 396.248 344.55 396.448 344.422 396.704C344.31 396.944 344.254 397.24 344.254 397.592C344.254 397.896 344.342 398.152 344.518 398.36C344.694 398.568 344.902 398.736 345.142 398.864C345.398 398.976 345.67 399.056 345.958 399.104C346.262 399.152 346.534 399.176 346.774 399.176C347.078 399.176 347.406 399.136 347.758 399.056C348.11 398.976 348.438 398.84 348.742 398.648C349.062 398.456 349.326 398.216 349.534 397.928C349.742 397.624 349.846 397.256 349.846 396.824V394.784ZM355.526 388.592H358.094V390.992H358.142C358.222 390.656 358.374 390.328 358.598 390.008C358.838 389.688 359.118 389.4 359.438 389.144C359.774 388.872 360.142 388.656 360.542 388.496C360.942 388.336 361.35 388.256 361.766 388.256C362.086 388.256 362.302 388.264 362.414 388.28C362.542 388.296 362.67 388.312 362.798 388.328V390.968C362.606 390.936 362.406 390.912 362.198 390.896C362.006 390.864 361.814 390.848 361.622 390.848C361.158 390.848 360.718 390.944 360.302 391.136C359.902 391.312 359.55 391.584 359.246 391.952C358.942 392.304 358.702 392.744 358.526 393.272C358.35 393.8 358.262 394.408 358.262 395.096V401H355.526V388.592ZM372.062 393.704C372.03 393.272 371.934 392.856 371.774 392.456C371.63 392.056 371.422 391.712 371.15 391.424C370.894 391.12 370.574 390.88 370.19 390.704C369.822 390.512 369.406 390.416 368.942 390.416C368.462 390.416 368.022 390.504 367.622 390.68C367.238 390.84 366.902 391.072 366.614 391.376C366.342 391.664 366.118 392.008 365.942 392.408C365.782 392.808 365.694 393.24 365.678 393.704H372.062ZM365.678 395.504C365.678 395.984 365.742 396.448 365.87 396.896C366.014 397.344 366.222 397.736 366.494 398.072C366.766 398.408 367.11 398.68 367.526 398.888C367.942 399.08 368.438 399.176 369.014 399.176C369.814 399.176 370.454 399.008 370.934 398.672C371.43 398.32 371.798 397.8 372.038 397.112H374.63C374.486 397.784 374.238 398.384 373.886 398.912C373.534 399.44 373.11 399.888 372.614 400.256C372.118 400.608 371.558 400.872 370.934 401.048C370.326 401.24 369.686 401.336 369.014 401.336C368.038 401.336 367.174 401.176 366.422 400.856C365.67 400.536 365.03 400.088 364.502 399.512C363.99 398.936 363.598 398.248 363.326 397.448C363.07 396.648 362.942 395.768 362.942 394.808C362.942 393.928 363.078 393.096 363.35 392.312C363.638 391.512 364.038 390.816 364.55 390.224C365.078 389.616 365.71 389.136 366.446 388.784C367.182 388.432 368.014 388.256 368.942 388.256C369.918 388.256 370.79 388.464 371.558 388.88C372.342 389.28 372.99 389.816 373.502 390.488C374.014 391.16 374.382 391.936 374.606 392.816C374.846 393.68 374.91 394.576 374.798 395.504H365.678ZM387.27 398.24C387.27 398.576 387.31 398.816 387.39 398.96C387.486 399.104 387.662 399.176 387.918 399.176C387.998 399.176 388.094 399.176 388.206 399.176C388.318 399.176 388.446 399.16 388.59 399.128V401.024C388.494 401.056 388.366 401.088 388.206 401.12C388.062 401.168 387.91 401.208 387.75 401.24C387.59 401.272 387.43 401.296 387.27 401.312C387.11 401.328 386.974 401.336 386.862 401.336C386.302 401.336 385.838 401.224 385.47 401C385.102 400.776 384.862 400.384 384.75 399.824C384.206 400.352 383.534 400.736 382.734 400.976C381.95 401.216 381.19 401.336 380.454 401.336C379.894 401.336 379.358 401.256 378.846 401.096C378.334 400.952 377.878 400.736 377.478 400.448C377.094 400.144 376.782 399.768 376.542 399.32C376.318 398.856 376.206 398.32 376.206 397.712C376.206 396.944 376.342 396.32 376.614 395.84C376.902 395.36 377.27 394.984 377.718 394.712C378.182 394.44 378.694 394.248 379.254 394.136C379.83 394.008 380.406 393.912 380.982 393.848C381.478 393.752 381.95 393.688 382.398 393.656C382.846 393.608 383.238 393.536 383.574 393.44C383.926 393.344 384.198 393.2 384.39 393.008C384.598 392.8 384.702 392.496 384.702 392.096C384.702 391.744 384.614 391.456 384.438 391.232C384.278 391.008 384.07 390.84 383.814 390.728C383.574 390.6 383.302 390.52 382.998 390.488C382.694 390.44 382.406 390.416 382.134 390.416C381.366 390.416 380.734 390.576 380.238 390.896C379.742 391.216 379.462 391.712 379.398 392.384H376.662C376.71 391.584 376.902 390.92 377.238 390.392C377.574 389.864 377.998 389.44 378.51 389.12C379.038 388.8 379.63 388.576 380.286 388.448C380.942 388.32 381.614 388.256 382.302 388.256C382.91 388.256 383.51 388.32 384.102 388.448C384.694 388.576 385.222 388.784 385.686 389.072C386.166 389.36 386.55 389.736 386.838 390.2C387.126 390.648 387.27 391.2 387.27 391.856V398.24ZM384.534 394.784C384.118 395.056 383.606 395.224 382.998 395.288C382.39 395.336 381.782 395.416 381.174 395.528C380.886 395.576 380.606 395.648 380.334 395.744C380.062 395.824 379.822 395.944 379.614 396.104C379.406 396.248 379.238 396.448 379.11 396.704C378.998 396.944 378.942 397.24 378.942 397.592C378.942 397.896 379.03 398.152 379.206 398.36C379.382 398.568 379.59 398.736 379.83 398.864C380.086 398.976 380.358 399.056 380.646 399.104C380.95 399.152 381.222 399.176 381.462 399.176C381.766 399.176 382.094 399.136 382.446 399.056C382.798 398.976 383.126 398.84 383.43 398.648C383.75 398.456 384.014 398.216 384.222 397.928C384.43 397.624 384.534 397.256 384.534 396.824V394.784Z" fill="white"/>
<circle cx="16" cy="391.5" r="16" fill="#747474"/>
<path d="M987 393L977 387.226V398.774L987 393ZM421 394H978V392H421V394Z" fill="white"/>
<defs>
<linearGradient id="paint0_linear_42_628" x1="1200" y1="391.5" x2="1" y2="391.5" gradientUnits="userSpaceOnUse">
<stop stop-color="#4A4A4A"/>
<stop offset="0.91" stop-color="#747474"/>
</linearGradient>
</defs>
</svg>
