<svg width="1200" height="779" viewBox="0 0 1200 779" fill="none" xmlns="http://www.w3.org/2000/svg">
<path d="M1200 4L1 391.5L1200 779V4Z" fill="url(#paint0_linear_42_628)"/>
<circle cx="16" cy="391.5" r="16" fill="#747474"/>
<path d="M978.37 379.152H988.45C990.071 379.152 991.394 379.387 992.418 379.856C993.442 380.325 994.231 380.912 994.786 381.616C995.34 382.32 995.714 383.088 995.906 383.92C996.119 384.752 996.226 385.52 996.226 386.224C996.226 386.928 996.119 387.696 995.906 388.528C995.714 389.339 995.34 390.096 994.786 390.8C994.231 391.504 993.442 392.091 992.418 392.56C991.394 393.008 990.071 393.232 988.45 393.232H982.37V402H978.37V379.152ZM982.37 389.968H988.226C988.674 389.968 989.132 389.904 989.602 389.776C990.071 389.648 990.498 389.445 990.882 389.168C991.287 388.869 991.607 388.485 991.842 388.016C992.098 387.525 992.226 386.917 992.226 386.192C992.226 385.445 992.119 384.827 991.906 384.336C991.692 383.845 991.404 383.461 991.042 383.184C990.679 382.885 990.263 382.683 989.794 382.576C989.324 382.469 988.823 382.416 988.29 382.416H982.37V389.968ZM999.201 385.456H1002.63V388.656H1002.69C1002.8 388.208 1003 387.771 1003.3 387.344C1003.62 386.917 1003.99 386.533 1004.42 386.192C1004.87 385.829 1005.36 385.541 1005.89 385.328C1006.42 385.115 1006.97 385.008 1007.52 385.008C1007.95 385.008 1008.24 385.019 1008.39 385.04C1008.56 385.061 1008.73 385.083 1008.9 385.104V388.624C1008.64 388.581 1008.37 388.549 1008.1 388.528C1007.84 388.485 1007.59 388.464 1007.33 388.464C1006.71 388.464 1006.12 388.592 1005.57 388.848C1005.04 389.083 1004.57 389.445 1004.16 389.936C1003.76 390.405 1003.44 390.992 1003.2 391.696C1002.97 392.4 1002.85 393.211 1002.85 394.128V402H999.201V385.456ZM1021.25 392.272C1021.21 391.696 1021.08 391.141 1020.86 390.608C1020.67 390.075 1020.4 389.616 1020.03 389.232C1019.69 388.827 1019.26 388.507 1018.75 388.272C1018.26 388.016 1017.71 387.888 1017.09 387.888C1016.45 387.888 1015.86 388.005 1015.33 388.24C1014.82 388.453 1014.37 388.763 1013.98 389.168C1013.62 389.552 1013.32 390.011 1013.09 390.544C1012.88 391.077 1012.76 391.653 1012.74 392.272H1021.25ZM1012.74 394.672C1012.74 395.312 1012.82 395.931 1012.99 396.528C1013.18 397.125 1013.46 397.648 1013.82 398.096C1014.19 398.544 1014.65 398.907 1015.2 399.184C1015.76 399.44 1016.42 399.568 1017.18 399.568C1018.25 399.568 1019.1 399.344 1019.74 398.896C1020.41 398.427 1020.9 397.733 1021.22 396.816H1024.67C1024.48 397.712 1024.15 398.512 1023.68 399.216C1023.21 399.92 1022.65 400.517 1021.98 401.008C1021.32 401.477 1020.58 401.829 1019.74 402.064C1018.93 402.32 1018.08 402.448 1017.18 402.448C1015.88 402.448 1014.73 402.235 1013.73 401.808C1012.73 401.381 1011.87 400.784 1011.17 400.016C1010.49 399.248 1009.96 398.331 1009.6 397.264C1009.26 396.197 1009.09 395.024 1009.09 393.744C1009.09 392.571 1009.27 391.461 1009.63 390.416C1010.02 389.349 1010.55 388.421 1011.23 387.632C1011.94 386.821 1012.78 386.181 1013.76 385.712C1014.74 385.243 1015.85 385.008 1017.09 385.008C1018.39 385.008 1019.55 385.285 1020.58 385.84C1021.62 386.373 1022.49 387.088 1023.17 387.984C1023.85 388.88 1024.34 389.915 1024.64 391.088C1024.96 392.24 1025.05 393.435 1024.9 394.672H1012.74ZM1030.42 396.688C1030.53 397.755 1030.93 398.501 1031.64 398.928C1032.34 399.355 1033.18 399.568 1034.17 399.568C1034.51 399.568 1034.89 399.547 1035.32 399.504C1035.77 399.44 1036.18 399.333 1036.57 399.184C1036.95 399.035 1037.26 398.821 1037.49 398.544C1037.75 398.245 1037.87 397.861 1037.85 397.392C1037.82 396.923 1037.65 396.539 1037.33 396.24C1037.01 395.941 1036.6 395.707 1036.09 395.536C1035.6 395.344 1035.03 395.184 1034.39 395.056C1033.75 394.928 1033.1 394.789 1032.44 394.64C1031.76 394.491 1031.09 394.309 1030.45 394.096C1029.84 393.883 1029.27 393.595 1028.76 393.232C1028.27 392.869 1027.87 392.411 1027.57 391.856C1027.28 391.28 1027.13 390.576 1027.13 389.744C1027.13 388.848 1027.34 388.101 1027.77 387.504C1028.21 386.885 1028.77 386.395 1029.43 386.032C1030.11 385.648 1030.86 385.381 1031.67 385.232C1032.5 385.083 1033.29 385.008 1034.04 385.008C1034.89 385.008 1035.7 385.104 1036.47 385.296C1037.26 385.467 1037.96 385.755 1038.58 386.16C1039.22 386.565 1039.74 387.099 1040.15 387.76C1040.58 388.4 1040.84 389.179 1040.95 390.096H1037.14C1036.97 389.221 1036.57 388.635 1035.93 388.336C1035.31 388.037 1034.59 387.888 1033.78 387.888C1033.53 387.888 1033.22 387.909 1032.85 387.952C1032.51 387.995 1032.18 388.08 1031.86 388.208C1031.56 388.315 1031.31 388.485 1031.09 388.72C1030.88 388.933 1030.77 389.221 1030.77 389.584C1030.77 390.032 1030.92 390.395 1031.22 390.672C1031.54 390.949 1031.95 391.184 1032.44 391.376C1032.95 391.547 1033.53 391.696 1034.17 391.824C1034.81 391.952 1035.47 392.091 1036.15 392.24C1036.81 392.389 1037.46 392.571 1038.1 392.784C1038.74 392.997 1039.31 393.285 1039.8 393.648C1040.31 394.011 1040.72 394.469 1041.01 395.024C1041.33 395.579 1041.49 396.261 1041.49 397.072C1041.49 398.053 1041.27 398.885 1040.82 399.568C1040.37 400.251 1039.79 400.805 1039.06 401.232C1038.36 401.659 1037.57 401.968 1036.69 402.16C1035.82 402.352 1034.96 402.448 1034.1 402.448C1033.06 402.448 1032.09 402.331 1031.19 402.096C1030.32 401.861 1029.55 401.509 1028.89 401.04C1028.25 400.549 1027.73 399.952 1027.35 399.248C1026.99 398.523 1026.8 397.669 1026.77 396.688H1030.42ZM1055.62 392.272C1055.58 391.696 1055.45 391.141 1055.24 390.608C1055.05 390.075 1054.77 389.616 1054.41 389.232C1054.07 388.827 1053.64 388.507 1053.13 388.272C1052.64 388.016 1052.08 387.888 1051.46 387.888C1050.82 387.888 1050.24 388.005 1049.7 388.24C1049.19 388.453 1048.74 388.763 1048.36 389.168C1048 389.552 1047.7 390.011 1047.46 390.544C1047.25 391.077 1047.13 391.653 1047.11 392.272H1055.62ZM1047.11 394.672C1047.11 395.312 1047.2 395.931 1047.37 396.528C1047.56 397.125 1047.84 397.648 1048.2 398.096C1048.56 398.544 1049.02 398.907 1049.58 399.184C1050.13 399.44 1050.79 399.568 1051.56 399.568C1052.63 399.568 1053.48 399.344 1054.12 398.896C1054.78 398.427 1055.27 397.733 1055.59 396.816H1059.05C1058.86 397.712 1058.53 398.512 1058.06 399.216C1057.59 399.92 1057.02 400.517 1056.36 401.008C1055.7 401.477 1054.95 401.829 1054.12 402.064C1053.31 402.32 1052.46 402.448 1051.56 402.448C1050.26 402.448 1049.11 402.235 1048.1 401.808C1047.1 401.381 1046.25 400.784 1045.54 400.016C1044.86 399.248 1044.34 398.331 1043.98 397.264C1043.63 396.197 1043.46 395.024 1043.46 393.744C1043.46 392.571 1043.65 391.461 1044.01 390.416C1044.39 389.349 1044.93 388.421 1045.61 387.632C1046.31 386.821 1047.15 386.181 1048.14 385.712C1049.12 385.243 1050.23 385.008 1051.46 385.008C1052.77 385.008 1053.93 385.285 1054.95 385.84C1056 386.373 1056.86 387.088 1057.54 387.984C1058.23 388.88 1058.72 389.915 1059.02 391.088C1059.34 392.24 1059.42 393.435 1059.27 394.672H1047.11ZM1062.05 385.456H1065.5V387.888L1065.57 387.952C1066.12 387.035 1066.85 386.32 1067.74 385.808C1068.64 385.275 1069.63 385.008 1070.72 385.008C1072.53 385.008 1073.96 385.477 1075.01 386.416C1076.05 387.355 1076.57 388.763 1076.57 390.64V402H1072.93V391.6C1072.88 390.299 1072.61 389.36 1072.09 388.784C1071.58 388.187 1070.78 387.888 1069.69 387.888C1069.07 387.888 1068.52 388.005 1068.03 388.24C1067.54 388.453 1067.12 388.763 1066.78 389.168C1066.44 389.552 1066.17 390.011 1065.98 390.544C1065.79 391.077 1065.69 391.643 1065.69 392.24V402H1062.05V385.456ZM1078.76 385.456H1081.51V380.496H1085.16V385.456H1088.45V388.176H1085.16V397.008C1085.16 397.392 1085.17 397.723 1085.19 398C1085.23 398.277 1085.31 398.512 1085.41 398.704C1085.54 398.896 1085.72 399.045 1085.96 399.152C1086.19 399.237 1086.51 399.28 1086.92 399.28C1087.17 399.28 1087.43 399.28 1087.68 399.28C1087.94 399.259 1088.2 399.216 1088.45 399.152V401.968C1088.05 402.011 1087.65 402.053 1087.27 402.096C1086.88 402.139 1086.49 402.16 1086.08 402.16C1085.12 402.16 1084.35 402.075 1083.75 401.904C1083.17 401.712 1082.71 401.445 1082.37 401.104C1082.05 400.741 1081.83 400.293 1081.7 399.76C1081.59 399.227 1081.53 398.619 1081.51 397.936V388.176H1078.76V385.456ZM1115.57 402H1112.11V399.76H1112.05C1111.56 400.72 1110.84 401.413 1109.9 401.84C1108.96 402.245 1107.97 402.448 1106.93 402.448C1105.63 402.448 1104.48 402.224 1103.5 401.776C1102.54 401.307 1101.74 400.677 1101.1 399.888C1100.46 399.099 1099.98 398.171 1099.66 397.104C1099.34 396.016 1099.18 394.853 1099.18 393.616C1099.18 392.123 1099.39 390.832 1099.79 389.744C1100.2 388.656 1100.73 387.76 1101.39 387.056C1102.07 386.352 1102.84 385.84 1103.69 385.52C1104.57 385.179 1105.45 385.008 1106.35 385.008C1106.86 385.008 1107.39 385.061 1107.92 385.168C1108.45 385.253 1108.96 385.403 1109.45 385.616C1109.95 385.829 1110.39 386.107 1110.8 386.448C1111.23 386.768 1111.58 387.152 1111.85 387.6H1111.92V379.152H1115.57V402ZM1102.83 393.904C1102.83 394.608 1102.92 395.301 1103.09 395.984C1103.28 396.667 1103.56 397.275 1103.92 397.808C1104.3 398.341 1104.78 398.768 1105.36 399.088C1105.93 399.408 1106.62 399.568 1107.41 399.568C1108.22 399.568 1108.91 399.397 1109.49 399.056C1110.08 398.715 1110.56 398.267 1110.93 397.712C1111.31 397.157 1111.59 396.539 1111.76 395.856C1111.95 395.152 1112.05 394.437 1112.05 393.712C1112.05 391.877 1111.63 390.448 1110.8 389.424C1109.99 388.4 1108.88 387.888 1107.47 387.888C1106.62 387.888 1105.89 388.069 1105.29 388.432C1104.72 388.773 1104.24 389.232 1103.85 389.808C1103.49 390.363 1103.23 391.003 1103.05 391.728C1102.91 392.432 1102.83 393.157 1102.83 393.904ZM1133.4 398.32C1133.4 398.768 1133.45 399.088 1133.56 399.28C1133.69 399.472 1133.92 399.568 1134.27 399.568C1134.37 399.568 1134.5 399.568 1134.65 399.568C1134.8 399.568 1134.97 399.547 1135.16 399.504V402.032C1135.03 402.075 1134.86 402.117 1134.65 402.16C1134.46 402.224 1134.25 402.277 1134.04 402.32C1133.83 402.363 1133.61 402.395 1133.4 402.416C1133.19 402.437 1133.01 402.448 1132.86 402.448C1132.11 402.448 1131.49 402.299 1131 402C1130.51 401.701 1130.19 401.179 1130.04 400.432C1129.32 401.136 1128.42 401.648 1127.35 401.968C1126.31 402.288 1125.29 402.448 1124.31 402.448C1123.57 402.448 1122.85 402.341 1122.17 402.128C1121.49 401.936 1120.88 401.648 1120.35 401.264C1119.83 400.859 1119.42 400.357 1119.1 399.76C1118.8 399.141 1118.65 398.427 1118.65 397.616C1118.65 396.592 1118.83 395.76 1119.19 395.12C1119.58 394.48 1120.07 393.979 1120.67 393.616C1121.28 393.253 1121.97 392.997 1122.71 392.848C1123.48 392.677 1124.25 392.549 1125.02 392.464C1125.68 392.336 1126.31 392.251 1126.91 392.208C1127.5 392.144 1128.03 392.048 1128.47 391.92C1128.94 391.792 1129.31 391.6 1129.56 391.344C1129.84 391.067 1129.98 390.661 1129.98 390.128C1129.98 389.659 1129.86 389.275 1129.63 388.976C1129.41 388.677 1129.13 388.453 1128.79 388.304C1128.47 388.133 1128.11 388.027 1127.71 387.984C1127.3 387.92 1126.92 387.888 1126.55 387.888C1125.53 387.888 1124.69 388.101 1124.03 388.528C1123.36 388.955 1122.99 389.616 1122.91 390.512H1119.26C1119.32 389.445 1119.58 388.56 1120.03 387.856C1120.47 387.152 1121.04 386.587 1121.72 386.16C1122.43 385.733 1123.21 385.435 1124.09 385.264C1124.96 385.093 1125.86 385.008 1126.78 385.008C1127.59 385.008 1128.39 385.093 1129.18 385.264C1129.97 385.435 1130.67 385.712 1131.29 386.096C1131.93 386.48 1132.44 386.981 1132.83 387.6C1133.21 388.197 1133.4 388.933 1133.4 389.808V398.32ZM1129.75 393.712C1129.2 394.075 1128.52 394.299 1127.71 394.384C1126.89 394.448 1126.08 394.555 1125.27 394.704C1124.89 394.768 1124.52 394.864 1124.15 394.992C1123.79 395.099 1123.47 395.259 1123.19 395.472C1122.92 395.664 1122.69 395.931 1122.52 396.272C1122.37 396.592 1122.3 396.987 1122.3 397.456C1122.3 397.861 1122.41 398.203 1122.65 398.48C1122.88 398.757 1123.16 398.981 1123.48 399.152C1123.82 399.301 1124.19 399.408 1124.57 399.472C1124.97 399.536 1125.34 399.568 1125.66 399.568C1126.06 399.568 1126.5 399.515 1126.97 399.408C1127.44 399.301 1127.88 399.12 1128.28 398.864C1128.71 398.608 1129.06 398.288 1129.34 397.904C1129.61 397.499 1129.75 397.008 1129.75 396.432V393.712ZM1135.5 385.456H1139.5L1143.82 397.808H1143.89L1148.08 385.456H1151.89L1145.45 402.896C1145.16 403.643 1144.86 404.357 1144.56 405.04C1144.28 405.723 1143.93 406.32 1143.5 406.832C1143.1 407.365 1142.58 407.781 1141.97 408.08C1141.35 408.4 1140.56 408.56 1139.6 408.56C1138.74 408.56 1137.9 408.496 1137.07 408.368V405.296C1137.37 405.339 1137.66 405.381 1137.93 405.424C1138.21 405.488 1138.5 405.52 1138.8 405.52C1139.22 405.52 1139.58 405.467 1139.85 405.36C1140.13 405.253 1140.36 405.093 1140.53 404.88C1140.72 404.688 1140.88 404.453 1141.01 404.176C1141.13 403.899 1141.25 403.579 1141.36 403.216L1141.77 401.936L1135.5 385.456Z" fill="white"/>
<path d="M138.544 379.152H142.8L151.6 402H147.312L145.168 395.952H136.048L133.904 402H129.776L138.544 379.152ZM137.136 392.912H144.112L140.688 383.088H140.592L137.136 392.912ZM153.264 385.456H156.72V387.76H156.816C157.093 387.355 157.392 386.981 157.712 386.64C158.032 386.299 158.384 386.011 158.768 385.776C159.173 385.541 159.632 385.36 160.144 385.232C160.656 385.083 161.242 385.008 161.904 385.008C162.906 385.008 163.834 385.232 164.688 385.68C165.562 386.128 166.181 386.821 166.544 387.76C167.162 386.907 167.877 386.235 168.688 385.744C169.498 385.253 170.512 385.008 171.728 385.008C173.477 385.008 174.832 385.435 175.792 386.288C176.773 387.141 177.264 388.571 177.264 390.576V402H173.616V392.336C173.616 391.675 173.594 391.077 173.552 390.544C173.509 389.989 173.381 389.52 173.168 389.136C172.976 388.731 172.677 388.421 172.272 388.208C171.866 387.995 171.312 387.888 170.608 387.888C169.37 387.888 168.474 388.272 167.92 389.04C167.365 389.808 167.088 390.896 167.088 392.304V402H163.44V391.376C163.44 390.224 163.226 389.36 162.8 388.784C162.394 388.187 161.637 387.888 160.528 387.888C160.058 387.888 159.6 387.984 159.152 388.176C158.725 388.368 158.341 388.645 158 389.008C157.68 389.371 157.413 389.819 157.2 390.352C157.008 390.885 156.912 391.493 156.912 392.176V402H153.264V385.456ZM188.692 402.448C187.369 402.448 186.185 402.235 185.14 401.808C184.116 401.36 183.241 400.752 182.516 399.984C181.812 399.216 181.268 398.299 180.884 397.232C180.521 396.165 180.34 394.992 180.34 393.712C180.34 392.453 180.521 391.291 180.884 390.224C181.268 389.157 181.812 388.24 182.516 387.472C183.241 386.704 184.116 386.107 185.14 385.68C186.185 385.232 187.369 385.008 188.692 385.008C190.014 385.008 191.188 385.232 192.212 385.68C193.257 386.107 194.132 386.704 194.836 387.472C195.561 388.24 196.105 389.157 196.468 390.224C196.852 391.291 197.044 392.453 197.044 393.712C197.044 394.992 196.852 396.165 196.468 397.232C196.105 398.299 195.561 399.216 194.836 399.984C194.132 400.752 193.257 401.36 192.212 401.808C191.188 402.235 190.014 402.448 188.692 402.448ZM188.692 399.568C189.502 399.568 190.206 399.397 190.804 399.056C191.401 398.715 191.892 398.267 192.276 397.712C192.66 397.157 192.937 396.539 193.108 395.856C193.3 395.152 193.396 394.437 193.396 393.712C193.396 393.008 193.3 392.304 193.108 391.6C192.937 390.896 192.66 390.277 192.276 389.744C191.892 389.189 191.401 388.741 190.804 388.4C190.206 388.059 189.502 387.888 188.692 387.888C187.881 387.888 187.177 388.059 186.58 388.4C185.982 388.741 185.492 389.189 185.108 389.744C184.724 390.277 184.436 390.896 184.244 391.6C184.073 392.304 183.988 393.008 183.988 393.712C183.988 394.437 184.073 395.152 184.244 395.856C184.436 396.539 184.724 397.157 185.108 397.712C185.492 398.267 185.982 398.715 186.58 399.056C187.177 399.397 187.881 399.568 188.692 399.568ZM214.604 402H211.02V399.696H210.956C210.508 400.528 209.836 401.2 208.94 401.712C208.066 402.203 207.17 402.448 206.252 402.448C204.076 402.448 202.498 401.915 201.516 400.848C200.556 399.76 200.076 398.128 200.076 395.952V385.456H203.724V395.6C203.724 397.051 204.002 398.075 204.556 398.672C205.111 399.269 205.89 399.568 206.892 399.568C207.66 399.568 208.3 399.451 208.812 399.216C209.324 398.981 209.74 398.672 210.06 398.288C210.38 397.883 210.604 397.403 210.732 396.848C210.882 396.293 210.956 395.696 210.956 395.056V385.456H214.604V402ZM218.451 385.456H221.907V387.888L221.971 387.952C222.526 387.035 223.251 386.32 224.147 385.808C225.043 385.275 226.035 385.008 227.123 385.008C228.937 385.008 230.366 385.477 231.411 386.416C232.457 387.355 232.979 388.763 232.979 390.64V402H229.331V391.6C229.289 390.299 229.011 389.36 228.499 388.784C227.987 388.187 227.187 387.888 226.099 387.888C225.481 387.888 224.926 388.005 224.435 388.24C223.945 388.453 223.529 388.763 223.187 389.168C222.846 389.552 222.579 390.011 222.387 390.544C222.195 391.077 222.099 391.643 222.099 392.24V402H218.451V385.456ZM235.162 385.456H237.914V380.496H241.562V385.456H244.858V388.176H241.562V397.008C241.562 397.392 241.573 397.723 241.594 398C241.637 398.277 241.712 398.512 241.818 398.704C241.946 398.896 242.128 399.045 242.362 399.152C242.597 399.237 242.917 399.28 243.322 399.28C243.578 399.28 243.834 399.28 244.09 399.28C244.346 399.259 244.602 399.216 244.858 399.152V401.968C244.453 402.011 244.058 402.053 243.674 402.096C243.29 402.139 242.896 402.16 242.49 402.16C241.53 402.16 240.752 402.075 240.154 401.904C239.578 401.712 239.12 401.445 238.778 401.104C238.458 400.741 238.234 400.293 238.106 399.76C238 399.227 237.936 398.619 237.914 397.936V388.176H235.162V385.456ZM263.973 402.448C262.65 402.448 261.466 402.235 260.421 401.808C259.397 401.36 258.522 400.752 257.797 399.984C257.093 399.216 256.549 398.299 256.165 397.232C255.802 396.165 255.621 394.992 255.621 393.712C255.621 392.453 255.802 391.291 256.165 390.224C256.549 389.157 257.093 388.24 257.797 387.472C258.522 386.704 259.397 386.107 260.421 385.68C261.466 385.232 262.65 385.008 263.973 385.008C265.295 385.008 266.469 385.232 267.493 385.68C268.538 386.107 269.413 386.704 270.117 387.472C270.842 388.24 271.386 389.157 271.749 390.224C272.133 391.291 272.325 392.453 272.325 393.712C272.325 394.992 272.133 396.165 271.749 397.232C271.386 398.299 270.842 399.216 270.117 399.984C269.413 400.752 268.538 401.36 267.493 401.808C266.469 402.235 265.295 402.448 263.973 402.448ZM263.973 399.568C264.783 399.568 265.487 399.397 266.085 399.056C266.682 398.715 267.173 398.267 267.557 397.712C267.941 397.157 268.218 396.539 268.389 395.856C268.581 395.152 268.677 394.437 268.677 393.712C268.677 393.008 268.581 392.304 268.389 391.6C268.218 390.896 267.941 390.277 267.557 389.744C267.173 389.189 266.682 388.741 266.085 388.4C265.487 388.059 264.783 387.888 263.973 387.888C263.162 387.888 262.458 388.059 261.861 388.4C261.263 388.741 260.773 389.189 260.389 389.744C260.005 390.277 259.717 390.896 259.525 391.6C259.354 392.304 259.269 393.008 259.269 393.712C259.269 394.437 259.354 395.152 259.525 395.856C259.717 396.539 260.005 397.157 260.389 397.712C260.773 398.267 261.263 398.715 261.861 399.056C262.458 399.397 263.162 399.568 263.973 399.568ZM273.726 385.456H276.446V384.08C276.446 383.035 276.574 382.192 276.83 381.552C277.086 380.891 277.427 380.389 277.854 380.048C278.28 379.685 278.76 379.451 279.294 379.344C279.848 379.216 280.424 379.152 281.022 379.152C282.195 379.152 283.048 379.227 283.582 379.376V382.224C283.347 382.16 283.091 382.117 282.814 382.096C282.558 382.053 282.248 382.032 281.885 382.032C281.395 382.032 280.968 382.149 280.606 382.384C280.264 382.619 280.094 383.077 280.094 383.76V385.456H283.198V388.176H280.094V402H276.446V388.176H273.726V385.456ZM297.11 396.688C297.216 397.755 297.622 398.501 298.326 398.928C299.03 399.355 299.872 399.568 300.854 399.568C301.195 399.568 301.579 399.547 302.006 399.504C302.454 399.44 302.87 399.333 303.254 399.184C303.638 399.035 303.947 398.821 304.182 398.544C304.438 398.245 304.555 397.861 304.534 397.392C304.512 396.923 304.342 396.539 304.022 396.24C303.702 395.941 303.286 395.707 302.774 395.536C302.283 395.344 301.718 395.184 301.078 395.056C300.438 394.928 299.787 394.789 299.126 394.64C298.443 394.491 297.782 394.309 297.141 394.096C296.523 393.883 295.958 393.595 295.446 393.232C294.955 392.869 294.56 392.411 294.262 391.856C293.963 391.28 293.814 390.576 293.814 389.744C293.814 388.848 294.027 388.101 294.454 387.504C294.902 386.885 295.456 386.395 296.118 386.032C296.8 385.648 297.547 385.381 298.358 385.232C299.19 385.083 299.979 385.008 300.726 385.008C301.579 385.008 302.39 385.104 303.158 385.296C303.947 385.467 304.651 385.755 305.27 386.16C305.91 386.565 306.432 387.099 306.838 387.76C307.264 388.4 307.531 389.179 307.638 390.096H303.83C303.659 389.221 303.254 388.635 302.614 388.336C301.995 388.037 301.28 387.888 300.47 387.888C300.214 387.888 299.904 387.909 299.542 387.952C299.2 387.995 298.87 388.08 298.55 388.208C298.251 388.315 297.995 388.485 297.782 388.72C297.568 388.933 297.462 389.221 297.462 389.584C297.462 390.032 297.611 390.395 297.91 390.672C298.23 390.949 298.635 391.184 299.126 391.376C299.638 391.547 300.214 391.696 300.854 391.824C301.494 391.952 302.155 392.091 302.838 392.24C303.499 392.389 304.15 392.571 304.79 392.784C305.43 392.997 305.995 393.285 306.486 393.648C306.998 394.011 307.403 394.469 307.702 395.024C308.022 395.579 308.182 396.261 308.182 397.072C308.182 398.053 307.958 398.885 307.51 399.568C307.062 400.251 306.475 400.805 305.75 401.232C305.046 401.659 304.256 401.968 303.382 402.16C302.507 402.352 301.643 402.448 300.79 402.448C299.744 402.448 298.774 402.331 297.878 402.096C297.003 401.861 296.235 401.509 295.574 401.04C294.934 400.549 294.422 399.952 294.038 399.248C293.675 398.523 293.483 397.669 293.462 396.688H297.11ZM325.479 402H321.895V399.696H321.831C321.383 400.528 320.711 401.2 319.815 401.712C318.941 402.203 318.045 402.448 317.127 402.448C314.951 402.448 313.373 401.915 312.391 400.848C311.431 399.76 310.951 398.128 310.951 395.952V385.456H314.599V395.6C314.599 397.051 314.877 398.075 315.431 398.672C315.986 399.269 316.765 399.568 317.767 399.568C318.535 399.568 319.175 399.451 319.687 399.216C320.199 398.981 320.615 398.672 320.935 398.288C321.255 397.883 321.479 397.403 321.607 396.848C321.757 396.293 321.831 395.696 321.831 395.056V385.456H325.479V402ZM329.326 385.456H332.75V388.656H332.814C332.921 388.208 333.124 387.771 333.422 387.344C333.742 386.917 334.116 386.533 334.542 386.192C334.99 385.829 335.481 385.541 336.014 385.328C336.548 385.115 337.092 385.008 337.646 385.008C338.073 385.008 338.361 385.019 338.51 385.04C338.681 385.061 338.852 385.083 339.022 385.104V388.624C338.766 388.581 338.5 388.549 338.222 388.528C337.966 388.485 337.71 388.464 337.454 388.464C336.836 388.464 336.249 388.592 335.694 388.848C335.161 389.083 334.692 389.445 334.286 389.936C333.881 390.405 333.561 390.992 333.326 391.696C333.092 392.4 332.974 393.211 332.974 394.128V402H329.326V385.456ZM338.944 385.456H341.664V384.08C341.664 383.035 341.792 382.192 342.048 381.552C342.304 380.891 342.646 380.389 343.072 380.048C343.499 379.685 343.979 379.451 344.512 379.344C345.067 379.216 345.643 379.152 346.24 379.152C347.414 379.152 348.267 379.227 348.8 379.376V382.224C348.566 382.16 348.31 382.117 348.032 382.096C347.776 382.053 347.467 382.032 347.104 382.032C346.614 382.032 346.187 382.149 345.824 382.384C345.483 382.619 345.312 383.077 345.312 383.76V385.456H348.416V388.176H345.312V402H341.664V388.176H338.944V385.456ZM364.526 398.32C364.526 398.768 364.579 399.088 364.686 399.28C364.814 399.472 365.049 399.568 365.39 399.568C365.497 399.568 365.625 399.568 365.774 399.568C365.923 399.568 366.094 399.547 366.286 399.504V402.032C366.158 402.075 365.987 402.117 365.774 402.16C365.582 402.224 365.379 402.277 365.166 402.32C364.953 402.363 364.739 402.395 364.526 402.416C364.313 402.437 364.131 402.448 363.982 402.448C363.235 402.448 362.617 402.299 362.126 402C361.635 401.701 361.315 401.179 361.166 400.432C360.441 401.136 359.545 401.648 358.478 401.968C357.433 402.288 356.419 402.448 355.438 402.448C354.691 402.448 353.977 402.341 353.294 402.128C352.611 401.936 352.003 401.648 351.47 401.264C350.958 400.859 350.542 400.357 350.222 399.76C349.923 399.141 349.774 398.427 349.774 397.616C349.774 396.592 349.955 395.76 350.318 395.12C350.702 394.48 351.193 393.979 351.79 393.616C352.409 393.253 353.091 392.997 353.838 392.848C354.606 392.677 355.374 392.549 356.142 392.464C356.803 392.336 357.433 392.251 358.03 392.208C358.627 392.144 359.15 392.048 359.598 391.92C360.067 391.792 360.43 391.6 360.686 391.344C360.963 391.067 361.102 390.661 361.102 390.128C361.102 389.659 360.985 389.275 360.75 388.976C360.537 388.677 360.259 388.453 359.918 388.304C359.598 388.133 359.235 388.027 358.83 387.984C358.425 387.92 358.041 387.888 357.678 387.888C356.654 387.888 355.811 388.101 355.15 388.528C354.489 388.955 354.115 389.616 354.03 390.512H350.382C350.446 389.445 350.702 388.56 351.15 387.856C351.598 387.152 352.163 386.587 352.846 386.16C353.55 385.733 354.339 385.435 355.214 385.264C356.089 385.093 356.985 385.008 357.902 385.008C358.713 385.008 359.513 385.093 360.302 385.264C361.091 385.435 361.795 385.712 362.414 386.096C363.054 386.48 363.566 386.981 363.95 387.6C364.334 388.197 364.526 388.933 364.526 389.808V398.32ZM360.878 393.712C360.323 394.075 359.641 394.299 358.83 394.384C358.019 394.448 357.209 394.555 356.398 394.704C356.014 394.768 355.641 394.864 355.278 394.992C354.915 395.099 354.595 395.259 354.318 395.472C354.041 395.664 353.817 395.931 353.646 396.272C353.497 396.592 353.422 396.987 353.422 397.456C353.422 397.861 353.539 398.203 353.774 398.48C354.009 398.757 354.286 398.981 354.606 399.152C354.947 399.301 355.31 399.408 355.694 399.472C356.099 399.536 356.462 399.568 356.782 399.568C357.187 399.568 357.625 399.515 358.094 399.408C358.563 399.301 359.001 399.12 359.406 398.864C359.833 398.608 360.185 398.288 360.462 397.904C360.739 397.499 360.878 397.008 360.878 396.432V393.712ZM379.619 390.992C379.47 389.968 379.054 389.2 378.371 388.688C377.71 388.155 376.867 387.888 375.843 387.888C375.374 387.888 374.873 387.973 374.339 388.144C373.806 388.293 373.315 388.592 372.867 389.04C372.419 389.467 372.046 390.075 371.747 390.864C371.449 391.632 371.299 392.645 371.299 393.904C371.299 394.587 371.374 395.269 371.523 395.952C371.694 396.635 371.95 397.243 372.291 397.776C372.654 398.309 373.113 398.747 373.667 399.088C374.222 399.408 374.894 399.568 375.683 399.568C376.75 399.568 377.625 399.237 378.307 398.576C379.011 397.915 379.449 396.987 379.619 395.792H383.267C382.926 397.947 382.105 399.6 380.803 400.752C379.523 401.883 377.817 402.448 375.683 402.448C374.382 402.448 373.23 402.235 372.227 401.808C371.246 401.36 370.414 400.763 369.731 400.016C369.049 399.248 368.526 398.341 368.163 397.296C367.822 396.251 367.651 395.12 367.651 393.904C367.651 392.667 367.822 391.504 368.163 390.416C368.505 389.328 369.017 388.389 369.699 387.6C370.382 386.789 371.225 386.16 372.227 385.712C373.251 385.243 374.446 385.008 375.811 385.008C376.771 385.008 377.678 385.136 378.531 385.392C379.406 385.627 380.174 385.989 380.835 386.48C381.518 386.971 382.073 387.589 382.499 388.336C382.926 389.083 383.182 389.968 383.267 390.992H379.619ZM397.593 392.272C397.55 391.696 397.422 391.141 397.209 390.608C397.017 390.075 396.739 389.616 396.377 389.232C396.035 388.827 395.609 388.507 395.097 388.272C394.606 388.016 394.051 387.888 393.433 387.888C392.793 387.888 392.206 388.005 391.673 388.24C391.161 388.453 390.713 388.763 390.329 389.168C389.966 389.552 389.667 390.011 389.433 390.544C389.219 391.077 389.102 391.653 389.081 392.272H397.593ZM389.081 394.672C389.081 395.312 389.166 395.931 389.337 396.528C389.529 397.125 389.806 397.648 390.169 398.096C390.531 398.544 390.99 398.907 391.545 399.184C392.099 399.44 392.761 399.568 393.529 399.568C394.595 399.568 395.449 399.344 396.089 398.896C396.75 398.427 397.241 397.733 397.561 396.816H401.017C400.825 397.712 400.494 398.512 400.025 399.216C399.555 399.92 398.99 400.517 398.329 401.008C397.667 401.477 396.921 401.829 396.089 402.064C395.278 402.32 394.425 402.448 393.529 402.448C392.227 402.448 391.075 402.235 390.073 401.808C389.07 401.381 388.217 400.784 387.513 400.016C386.83 399.248 386.307 398.331 385.945 397.264C385.603 396.197 385.433 395.024 385.433 393.744C385.433 392.571 385.614 391.461 385.977 390.416C386.361 389.349 386.894 388.421 387.577 387.632C388.281 386.821 389.123 386.181 390.105 385.712C391.086 385.243 392.195 385.008 393.433 385.008C394.734 385.008 395.897 385.285 396.921 385.84C397.966 386.373 398.83 387.088 399.513 387.984C400.195 388.88 400.686 389.915 400.985 391.088C401.305 392.24 401.39 393.435 401.241 394.672H389.081ZM426.776 398.32C426.776 398.768 426.829 399.088 426.936 399.28C427.064 399.472 427.299 399.568 427.64 399.568C427.747 399.568 427.875 399.568 428.024 399.568C428.173 399.568 428.344 399.547 428.536 399.504V402.032C428.408 402.075 428.237 402.117 428.024 402.16C427.832 402.224 427.629 402.277 427.416 402.32C427.203 402.363 426.989 402.395 426.776 402.416C426.563 402.437 426.381 402.448 426.232 402.448C425.485 402.448 424.867 402.299 424.376 402C423.885 401.701 423.565 401.179 423.416 400.432C422.691 401.136 421.795 401.648 420.728 401.968C419.683 402.288 418.669 402.448 417.688 402.448C416.941 402.448 416.227 402.341 415.544 402.128C414.861 401.936 414.253 401.648 413.72 401.264C413.208 400.859 412.792 400.357 412.472 399.76C412.173 399.141 412.024 398.427 412.024 397.616C412.024 396.592 412.205 395.76 412.568 395.12C412.952 394.48 413.443 393.979 414.04 393.616C414.659 393.253 415.341 392.997 416.088 392.848C416.856 392.677 417.624 392.549 418.392 392.464C419.053 392.336 419.683 392.251 420.28 392.208C420.877 392.144 421.4 392.048 421.848 391.92C422.317 391.792 422.68 391.6 422.936 391.344C423.213 391.067 423.352 390.661 423.352 390.128C423.352 389.659 423.235 389.275 423 388.976C422.787 388.677 422.509 388.453 422.168 388.304C421.848 388.133 421.485 388.027 421.08 387.984C420.675 387.92 420.291 387.888 419.928 387.888C418.904 387.888 418.061 388.101 417.4 388.528C416.739 388.955 416.365 389.616 416.28 390.512H412.632C412.696 389.445 412.952 388.56 413.4 387.856C413.848 387.152 414.413 386.587 415.096 386.16C415.8 385.733 416.589 385.435 417.464 385.264C418.339 385.093 419.235 385.008 420.152 385.008C420.963 385.008 421.763 385.093 422.552 385.264C423.341 385.435 424.045 385.712 424.664 386.096C425.304 386.48 425.816 386.981 426.2 387.6C426.584 388.197 426.776 388.933 426.776 389.808V398.32ZM423.128 393.712C422.573 394.075 421.891 394.299 421.08 394.384C420.269 394.448 419.459 394.555 418.648 394.704C418.264 394.768 417.891 394.864 417.528 394.992C417.165 395.099 416.845 395.259 416.568 395.472C416.291 395.664 416.067 395.931 415.896 396.272C415.747 396.592 415.672 396.987 415.672 397.456C415.672 397.861 415.789 398.203 416.024 398.48C416.259 398.757 416.536 398.981 416.856 399.152C417.197 399.301 417.56 399.408 417.944 399.472C418.349 399.536 418.712 399.568 419.032 399.568C419.437 399.568 419.875 399.515 420.344 399.408C420.813 399.301 421.251 399.12 421.656 398.864C422.083 398.608 422.435 398.288 422.712 397.904C422.989 397.499 423.128 397.008 423.128 396.432V393.712ZM430.701 385.456H434.125V388.656H434.189C434.296 388.208 434.499 387.771 434.797 387.344C435.117 386.917 435.491 386.533 435.917 386.192C436.365 385.829 436.856 385.541 437.389 385.328C437.923 385.115 438.467 385.008 439.021 385.008C439.448 385.008 439.736 385.019 439.885 385.04C440.056 385.061 440.227 385.083 440.397 385.104V388.624C440.141 388.581 439.875 388.549 439.597 388.528C439.341 388.485 439.085 388.464 438.829 388.464C438.211 388.464 437.624 388.592 437.069 388.848C436.536 389.083 436.067 389.445 435.661 389.936C435.256 390.405 434.936 390.992 434.701 391.696C434.467 392.4 434.349 393.211 434.349 394.128V402H430.701V385.456ZM452.749 392.272C452.706 391.696 452.578 391.141 452.365 390.608C452.173 390.075 451.895 389.616 451.533 389.232C451.191 388.827 450.765 388.507 450.253 388.272C449.762 388.016 449.207 387.888 448.589 387.888C447.949 387.888 447.362 388.005 446.829 388.24C446.317 388.453 445.869 388.763 445.485 389.168C445.122 389.552 444.823 390.011 444.589 390.544C444.375 391.077 444.258 391.653 444.237 392.272H452.749ZM444.237 394.672C444.237 395.312 444.322 395.931 444.493 396.528C444.685 397.125 444.962 397.648 445.325 398.096C445.687 398.544 446.146 398.907 446.701 399.184C447.255 399.44 447.917 399.568 448.685 399.568C449.751 399.568 450.605 399.344 451.245 398.896C451.906 398.427 452.397 397.733 452.717 396.816H456.173C455.981 397.712 455.65 398.512 455.181 399.216C454.711 399.92 454.146 400.517 453.485 401.008C452.823 401.477 452.077 401.829 451.245 402.064C450.434 402.32 449.581 402.448 448.685 402.448C447.383 402.448 446.231 402.235 445.229 401.808C444.226 401.381 443.373 400.784 442.669 400.016C441.986 399.248 441.463 398.331 441.101 397.264C440.759 396.197 440.589 395.024 440.589 393.744C440.589 392.571 440.77 391.461 441.133 390.416C441.517 389.349 442.05 388.421 442.733 387.632C443.437 386.821 444.279 386.181 445.261 385.712C446.242 385.243 447.351 385.008 448.589 385.008C449.89 385.008 451.053 385.285 452.077 385.84C453.122 386.373 453.986 387.088 454.669 387.984C455.351 388.88 455.842 389.915 456.141 391.088C456.461 392.24 456.546 393.435 456.397 394.672H444.237ZM473.026 398.32C473.026 398.768 473.079 399.088 473.186 399.28C473.314 399.472 473.549 399.568 473.89 399.568C473.997 399.568 474.125 399.568 474.274 399.568C474.423 399.568 474.594 399.547 474.786 399.504V402.032C474.658 402.075 474.487 402.117 474.274 402.16C474.082 402.224 473.879 402.277 473.666 402.32C473.453 402.363 473.239 402.395 473.026 402.416C472.813 402.437 472.631 402.448 472.482 402.448C471.735 402.448 471.117 402.299 470.626 402C470.135 401.701 469.815 401.179 469.666 400.432C468.941 401.136 468.045 401.648 466.978 401.968C465.933 402.288 464.919 402.448 463.938 402.448C463.191 402.448 462.477 402.341 461.794 402.128C461.111 401.936 460.503 401.648 459.97 401.264C459.458 400.859 459.042 400.357 458.722 399.76C458.423 399.141 458.274 398.427 458.274 397.616C458.274 396.592 458.455 395.76 458.818 395.12C459.202 394.48 459.693 393.979 460.29 393.616C460.909 393.253 461.591 392.997 462.338 392.848C463.106 392.677 463.874 392.549 464.642 392.464C465.303 392.336 465.933 392.251 466.53 392.208C467.127 392.144 467.65 392.048 468.098 391.92C468.567 391.792 468.93 391.6 469.186 391.344C469.463 391.067 469.602 390.661 469.602 390.128C469.602 389.659 469.485 389.275 469.25 388.976C469.037 388.677 468.759 388.453 468.418 388.304C468.098 388.133 467.735 388.027 467.33 387.984C466.925 387.92 466.541 387.888 466.178 387.888C465.154 387.888 464.311 388.101 463.65 388.528C462.989 388.955 462.615 389.616 462.53 390.512H458.882C458.946 389.445 459.202 388.56 459.65 387.856C460.098 387.152 460.663 386.587 461.346 386.16C462.05 385.733 462.839 385.435 463.714 385.264C464.589 385.093 465.485 385.008 466.402 385.008C467.213 385.008 468.013 385.093 468.802 385.264C469.591 385.435 470.295 385.712 470.914 386.096C471.554 386.48 472.066 386.981 472.45 387.6C472.834 388.197 473.026 388.933 473.026 389.808V398.32ZM469.378 393.712C468.823 394.075 468.141 394.299 467.33 394.384C466.519 394.448 465.709 394.555 464.898 394.704C464.514 394.768 464.141 394.864 463.778 394.992C463.415 395.099 463.095 395.259 462.818 395.472C462.541 395.664 462.317 395.931 462.146 396.272C461.997 396.592 461.922 396.987 461.922 397.456C461.922 397.861 462.039 398.203 462.274 398.48C462.509 398.757 462.786 398.981 463.106 399.152C463.447 399.301 463.81 399.408 464.194 399.472C464.599 399.536 464.962 399.568 465.282 399.568C465.687 399.568 466.125 399.515 466.594 399.408C467.063 399.301 467.501 399.12 467.906 398.864C468.333 398.608 468.685 398.288 468.962 397.904C469.239 397.499 469.378 397.008 469.378 396.432V393.712Z" fill="white"/>
<path d="M959 393L949 387.227L949 398.774L959 393ZM492 394L950 394L950 392L492 392L492 394Z" fill="white"/>
<defs>
<linearGradient id="paint0_linear_42_628" x1="1200" y1="391.5" x2="1" y2="391.5" gradientUnits="userSpaceOnUse">
<stop stop-color="#4A4A4A"/>
<stop offset="0.91" stop-color="#747474"/>
</linearGradient>
</defs>
</svg>
