<svg width="1000" height="591" viewBox="0 0 1000 591" fill="none" xmlns="http://www.w3.org/2000/svg">
<g clip-path="url(#clip0_28_253)">
<rect width="1000" height="591" fill="white"/>
<path d="M1000 0H0V221H1000V0Z" fill="#F6F8FA"/>
<path d="M170.806 173H47.8491C41.8573 173 37 178.373 37 185C37 191.627 41.8573 197 47.8491 197H170.806C176.798 197 181.655 191.627 181.655 185C181.655 178.373 176.798 173 170.806 173Z" fill="#D1D7DD"/>
<path d="M865.151 173H742.194C736.202 173 731.345 178.373 731.345 185C731.345 191.627 736.202 197 742.194 197H865.151C871.143 197 876 191.627 876 185C876 178.373 871.143 173 865.151 173Z" fill="#D1D7DD"/>
<path d="M344.392 173H221.435C215.444 173 210.586 178.373 210.586 185C210.586 191.627 215.444 197 221.435 197H344.392C350.384 197 355.241 191.627 355.241 185C355.241 178.373 350.384 173 344.392 173Z" fill="#868F99"/>
<path d="M517.978 173H395.022C389.03 173 384.172 178.373 384.172 185C384.172 191.627 389.03 197 395.022 197H517.978C523.97 197 528.828 191.627 528.828 185C528.828 178.373 523.97 173 517.978 173Z" fill="#D1D7DD"/>
<path d="M691.565 173H568.608C562.616 173 557.759 178.373 557.759 185C557.759 191.627 562.616 197 568.608 197H691.565C697.556 197 702.414 191.627 702.414 185C702.414 178.373 697.556 173 691.565 173Z" fill="#D1D7DD"/>
<rect x="22" y="151" width="952" height="68" stroke="#E56F4F" stroke-width="2"/>
<path d="M940 96C953.255 96 964 85.2548 964 72C964 58.7452 953.255 48 940 48C926.745 48 916 58.7452 916 72C916 85.2548 926.745 96 940 96Z" fill="#868F99"/>
<path d="M888 48H864C857.373 48 852 53.3726 852 60V84C852 90.6274 857.373 96 864 96H888C894.627 96 900 90.6274 900 84V60C900 53.3726 894.627 48 888 48Z" fill="#D1D7DD"/>
<path d="M832 48H808C801.373 48 796 53.3726 796 60V84C796 90.6274 801.373 96 808 96H832C838.627 96 844 90.6274 844 84V60C844 53.3726 838.627 48 832 48Z" fill="#D1D7DD"/>
<path d="M92 40H36C33.7909 40 32 41.7909 32 44V100C32 102.209 33.7909 104 36 104H92C94.2091 104 96 102.209 96 100V44C96 41.7909 94.2091 40 92 40Z" fill="#868F99"/>
<path d="M48 62H80" stroke="#F6F8FA" stroke-width="4" stroke-linecap="round"/>
<path d="M48 73H80" stroke="#F6F8FA" stroke-width="4" stroke-linecap="round"/>
<path d="M48 84H80" stroke="#F6F8FA" stroke-width="4" stroke-linecap="round"/>
<path d="M152 112C174.091 112 192 94.0914 192 72C192 49.9086 174.091 32 152 32C129.909 32 112 49.9086 112 72C112 94.0914 129.909 112 152 112Z" fill="#D1D7DD"/>
<rect x="22" y="22" width="394" height="100" stroke="#E56F4F" stroke-width="2"/>
<path d="M429 73C429.552 73 430 72.5523 430 72C430 71.4477 429.552 71 429 71V73ZM417 73H429V71H417V73Z" fill="#E56F4F"/>
<path fill-rule="evenodd" clip-rule="evenodd" d="M464.968 77.7613L444.357 90L471.045 88.189L473.1 61.2791L464.968 77.7613Z" fill="url(#paint0_linear_28_253)"/>
<path fill-rule="evenodd" clip-rule="evenodd" d="M471.088 88.1706L468.795 72.3389L462.547 80.5891L471.088 88.1706Z" fill="url(#paint1_linear_28_253)"/>
<path fill-rule="evenodd" clip-rule="evenodd" d="M471.119 88.1707L454.315 86.8515L444.447 89.9656L471.119 88.1707Z" fill="url(#paint2_linear_28_253)"/>
<path fill-rule="evenodd" clip-rule="evenodd" d="M444.47 89.969L448.668 76.2162L439.431 78.1915L444.47 89.969Z" fill="url(#paint3_linear_28_253)"/>
<path fill-rule="evenodd" clip-rule="evenodd" d="M462.545 80.6347L458.682 65.5044L447.628 75.8664L462.545 80.6347Z" fill="url(#paint4_linear_28_253)"/>
<path fill-rule="evenodd" clip-rule="evenodd" d="M472.224 65.7176L461.774 57.1831L458.865 66.5903L472.224 65.7176Z" fill="url(#paint5_linear_28_253)"/>
<path fill-rule="evenodd" clip-rule="evenodd" d="M467.337 54.1403L461.191 57.5366L457.314 54.0947L467.337 54.1403Z" fill="url(#paint6_linear_28_253)"/>
<path fill-rule="evenodd" clip-rule="evenodd" d="M437 82.8047L439.575 78.1093L437.492 72.5156L437 82.8047Z" fill="url(#paint7_linear_28_253)"/>
<path fill-rule="evenodd" clip-rule="evenodd" d="M437.353 72.3389L439.449 78.2824L448.554 76.2397L458.948 66.5792L461.882 57.2615L457.263 54L449.41 56.939C446.936 59.2402 442.135 63.7935 441.961 63.8791C441.79 63.9666 438.791 69.635 437.353 72.3389Z" fill="white"/>
<path fill-rule="evenodd" clip-rule="evenodd" d="M444.711 61.6617C450.073 56.345 456.986 53.2038 459.639 55.8804C462.29 58.557 459.479 65.0617 454.116 70.3766C448.754 75.6915 441.927 79.0058 439.276 76.3292C436.623 73.6544 439.349 66.9766 444.711 61.6617Z" fill="url(#paint8_linear_28_253)"/>
<path fill-rule="evenodd" clip-rule="evenodd" d="M444.47 89.9635L448.636 76.167L462.469 80.611C457.467 85.3009 451.904 89.2657 444.47 89.9635Z" fill="url(#paint9_linear_28_253)"/>
<path fill-rule="evenodd" clip-rule="evenodd" d="M458.967 66.5521L462.518 80.6183C466.696 76.2253 470.445 71.5026 472.282 65.6611L458.967 66.5521Z" fill="url(#paint10_linear_28_253)"/>
<path fill-rule="evenodd" clip-rule="evenodd" d="M472.246 65.7322C473.667 61.4431 473.995 55.29 467.293 54.1476L461.794 57.1849L472.246 65.7322Z" fill="url(#paint11_linear_28_253)"/>
<path fill-rule="evenodd" clip-rule="evenodd" d="M437 82.7428C437.197 89.8216 442.304 89.9271 444.48 89.9892L439.454 78.2532L437 82.7428Z" fill="#9E1209"/>
<path fill-rule="evenodd" clip-rule="evenodd" d="M458.986 66.574C462.197 68.5472 468.667 72.5102 468.798 72.5831C469.002 72.6979 471.588 68.2229 472.175 65.6939L458.986 66.574Z" fill="url(#paint12_radial_28_253)"/>
<path fill-rule="evenodd" clip-rule="evenodd" d="M448.63 76.167L454.198 86.9098C457.491 85.1242 460.069 82.9486 462.43 80.6183L448.63 76.167Z" fill="url(#paint13_radial_28_253)"/>
<path fill-rule="evenodd" clip-rule="evenodd" d="M439.432 78.2678L438.643 87.6623C440.132 89.6957 442.18 89.8725 444.328 89.7139C442.774 85.8457 439.669 78.1112 439.432 78.2678Z" fill="url(#paint14_linear_28_253)"/>
<path fill-rule="evenodd" clip-rule="evenodd" d="M461.762 57.2086L472.823 58.761C472.233 56.2594 470.42 54.645 467.33 54.1403L461.762 57.2086Z" fill="url(#paint15_linear_28_253)"/>
<path d="M394 62H220C213.373 62 208 67.3726 208 74C208 80.6274 213.373 86 220 86H394C400.627 86 406 80.6274 406 74C406 67.3726 400.627 62 394 62Z" fill="#868F99"/>
<path d="M952 161H928C921.373 161 916 166.373 916 173V197C916 203.627 921.373 209 928 209H952C958.627 209 964 203.627 964 197V173C964 166.373 958.627 161 952 161Z" fill="#D1D7DD"/>
<rect x="64" y="438" width="466.715" height="17" rx="8.5" fill="#D1D7DD"/>
<rect x="64" y="463" width="357.467" height="17" rx="8.5" fill="#D1D7DD"/>
<rect x="427.893" y="463" width="232.152" height="17" rx="8.5" fill="#D1D7DD"/>
<rect x="666.472" y="463" width="143.79" height="17" rx="8.5" fill="#D1D7DD"/>
<rect x="537.141" y="438" width="79.5263" height="17" rx="8.5" fill="#D1D7DD"/>
<rect x="623.094" y="438" width="220.906" height="17" rx="8.5" fill="#D1D7DD"/>
<rect width="435.002" height="17" rx="8.5" transform="matrix(-1 0 0 1 791 488)" fill="#D1D7DD"/>
<rect width="333.177" height="17" rx="8.5" transform="matrix(-1 0 0 1 759.554 513)" fill="#D1D7DD"/>
<rect width="216.378" height="17" rx="8.5" transform="matrix(-1 0 0 1 420.387 513)" fill="#D1D7DD"/>
<rect width="134.02" height="17" rx="8.5" transform="matrix(-1 0 0 1 198.02 513)" fill="#D1D7DD"/>
<rect width="74.1225" height="17" rx="8.5" transform="matrix(-1 0 0 1 350.008 488)" fill="#D1D7DD"/>
<rect width="205.896" height="17" rx="8.5" transform="matrix(-1 0 0 1 269.896 488)" fill="#D1D7DD"/>
<rect x="64" y="538" width="466.715" height="17" rx="8.5" fill="#D1D7DD"/>
<rect x="64" y="563" width="357.467" height="17" rx="8.5" fill="#D1D7DD"/>
<rect x="427.893" y="563" width="232.152" height="17" rx="8.5" fill="#D1D7DD"/>
<rect x="666.472" y="563" width="143.79" height="17" rx="8.5" fill="#D1D7DD"/>
<rect x="537.141" y="538" width="79.5263" height="17" rx="8.5" fill="#D1D7DD"/>
<rect x="623.094" y="538" width="220.906" height="17" rx="8.5" fill="#D1D7DD"/>
<rect x="64" y="277" width="600" height="48" rx="12" fill="#868F99"/>
<rect x="27" y="267" width="838" height="337" stroke="#3BAED4" stroke-width="2"/>
<path d="M931.014 487.396C930.564 487.192 930.091 487 929.611 486.812C929.689 486.3 929.76 485.798 929.809 485.305C930.311 480.334 929.349 475.823 925.998 473.888C922.65 471.953 918.262 473.376 914.204 476.296C913.802 476.584 913.4 476.899 912.995 477.219C912.593 476.895 912.188 476.584 911.79 476.296C907.735 473.372 903.347 471.953 899.999 473.888C896.651 475.823 895.686 480.331 896.188 485.305C896.237 485.798 896.308 486.304 896.386 486.812C895.903 487 895.433 487.192 894.982 487.396C890.426 489.447 887 492.539 887 496.405C887 500.272 890.422 503.36 894.982 505.412C895.433 505.616 895.906 505.807 896.386 505.995C896.308 506.507 896.237 507.01 896.188 507.502C895.686 512.474 896.648 516.985 899.999 518.92C903.347 520.855 907.735 519.432 911.79 516.512C912.191 516.223 912.593 515.909 912.998 515.588C913.4 515.912 913.805 516.223 914.207 516.512C918.262 519.435 922.65 520.855 926.001 518.92C929.349 516.985 930.314 512.477 929.812 507.502C929.763 507.01 929.692 506.504 929.614 505.995C930.097 505.807 930.567 505.616 931.018 505.412C935.574 503.36 939 500.272 939 496.405C939 492.539 935.574 489.45 931.018 487.399L931.014 487.396ZM915.653 478.308C919.571 475.486 922.779 474.892 924.76 476.033C926.74 477.177 927.829 480.253 927.343 485.056C927.31 485.36 927.274 485.675 927.229 485.989C924.999 485.309 922.527 484.79 919.895 484.456C918.288 482.343 916.602 480.464 914.901 478.872C915.154 478.678 915.403 478.487 915.653 478.308ZM926.782 504.362C925.275 504.835 923.635 505.234 921.888 505.545C922.517 504.595 923.129 503.613 923.719 502.592C924.309 501.575 924.854 500.551 925.359 499.53C925.962 501.199 926.438 502.816 926.782 504.359V504.362ZM912.998 512.321C911.835 511.252 910.668 510.033 909.527 508.675C910.665 508.747 911.822 508.786 912.998 508.786C914.175 508.786 915.332 508.747 916.469 508.675C915.325 510.033 914.162 511.252 912.998 512.321ZM912.998 506.31C911.083 506.31 909.226 506.206 907.45 506.018C906.397 504.572 905.382 503.017 904.423 501.357C903.464 499.698 902.628 498.039 901.902 496.405C902.628 494.772 903.467 493.113 904.423 491.453C905.382 489.794 906.397 488.238 907.45 486.793C909.229 486.605 911.083 486.501 912.998 486.501C914.914 486.501 916.771 486.605 918.547 486.793C919.6 488.238 920.614 489.794 921.574 491.453C922.533 493.113 923.369 494.772 924.098 496.405C923.372 498.039 922.533 499.698 921.574 501.357C920.614 503.017 919.6 504.572 918.547 506.018C916.768 506.206 914.914 506.31 912.995 506.31H912.998ZM900.638 499.533C901.146 500.554 901.691 501.575 902.278 502.592C902.867 503.61 903.48 504.595 904.109 505.545C902.362 505.234 900.722 504.835 899.215 504.362C899.558 502.819 900.032 501.202 900.638 499.533ZM899.215 488.446C900.722 487.973 902.362 487.574 904.109 487.263C903.48 488.212 902.867 489.194 902.278 490.215C901.688 491.233 901.143 492.257 900.638 493.275C900.035 491.606 899.558 489.988 899.215 488.446ZM912.998 480.489C914.162 481.559 915.329 482.777 916.469 484.135C915.332 484.064 914.175 484.025 912.998 484.025C911.822 484.025 910.665 484.064 909.527 484.135C910.671 482.777 911.835 481.559 912.998 480.489ZM925.362 493.275C924.854 492.254 924.309 491.233 923.722 490.212C923.133 489.194 922.52 488.209 921.891 487.26C923.638 487.571 925.278 487.969 926.785 488.443C926.442 489.985 925.968 491.602 925.362 493.271V493.275ZM898.654 485.056C898.168 480.253 899.257 477.177 901.237 476.033C903.217 474.889 906.426 475.486 910.344 478.308C910.594 478.487 910.843 478.678 911.096 478.872C909.391 480.464 907.706 482.343 906.102 484.456C903.47 484.79 900.997 485.309 898.768 485.989C898.726 485.675 898.687 485.364 898.654 485.056ZM896 503.156C891.596 501.176 889.479 498.693 889.479 496.405C889.479 494.117 891.599 491.638 896 489.655C896.282 489.528 896.57 489.405 896.865 489.285C897.39 491.557 898.178 493.959 899.205 496.405C898.178 498.852 897.394 501.254 896.865 503.526C896.57 503.406 896.282 503.283 896 503.156ZM910.344 514.503C906.426 517.325 903.217 517.918 901.237 516.778C899.257 515.634 898.168 512.558 898.654 507.755C898.687 507.45 898.722 507.136 898.768 506.822C900.997 507.502 903.47 508.021 906.102 508.355C907.709 510.468 909.395 512.347 911.096 513.939C910.843 514.133 910.594 514.324 910.344 514.503ZM927.343 507.752C927.829 512.555 926.74 515.634 924.76 516.774C922.779 517.918 919.571 517.322 915.653 514.499C915.403 514.321 915.154 514.13 914.901 513.935C916.605 512.344 918.291 510.464 919.898 508.351C922.53 508.018 925.003 507.499 927.232 506.818C927.274 507.133 927.313 507.444 927.346 507.752H927.343ZM930 503.156C929.718 503.283 929.43 503.406 929.135 503.526C928.61 501.254 927.822 498.852 926.795 496.405C927.822 493.959 928.606 491.557 929.135 489.285C929.43 489.405 929.718 489.528 930 489.655C934.404 491.635 936.521 494.117 936.521 496.405C936.521 498.693 934.401 501.173 930 503.156Z" fill="#0A7EA4"/>
<path d="M913.249 501.351C915.981 501.214 918.084 498.889 917.948 496.158C917.812 493.426 915.487 491.322 912.755 491.459C910.023 491.595 907.92 493.92 908.056 496.652C908.193 499.383 910.518 501.487 913.249 501.351Z" fill="#0A7EA4"/>
<path d="M867 495H866V497H867V495ZM879 497C879.552 497 880 496.552 880 496C880 495.448 879.552 495 879 495V497ZM867 497H879V495H867V497Z" fill="#3BAED4"/>
<path d="M952 277H928C921.373 277 916 282.373 916 289V313C916 319.627 921.373 325 928 325H952C958.627 325 964 319.627 964 313V289C964 282.373 958.627 277 952 277Z" fill="#D1D7DD"/>
<rect x="907" y="268" width="66" height="66" stroke="#E56F4F" stroke-width="2"/>
<path d="M939 348C939 348.552 939.448 349 940 349C940.552 349 941 348.552 941 348H939ZM941 336V335H939V336H941ZM941 348V336H939V348H941Z" fill="#E56F4F"/>
<path fill-rule="evenodd" clip-rule="evenodd" d="M949.968 379.761L929.357 392L956.045 390.189L958.1 363.279L949.968 379.761Z" fill="url(#paint16_linear_28_253)"/>
<path fill-rule="evenodd" clip-rule="evenodd" d="M956.089 390.171L953.795 374.339L947.547 382.589L956.089 390.171Z" fill="url(#paint17_linear_28_253)"/>
<path fill-rule="evenodd" clip-rule="evenodd" d="M956.119 390.171L939.315 388.852L929.447 391.966L956.119 390.171Z" fill="url(#paint18_linear_28_253)"/>
<path fill-rule="evenodd" clip-rule="evenodd" d="M929.47 391.969L933.668 378.216L924.431 380.191L929.47 391.969Z" fill="url(#paint19_linear_28_253)"/>
<path fill-rule="evenodd" clip-rule="evenodd" d="M947.545 382.635L943.682 367.504L932.628 377.866L947.545 382.635Z" fill="url(#paint20_linear_28_253)"/>
<path fill-rule="evenodd" clip-rule="evenodd" d="M957.224 367.718L946.774 359.183L943.865 368.59L957.224 367.718Z" fill="url(#paint21_linear_28_253)"/>
<path fill-rule="evenodd" clip-rule="evenodd" d="M952.337 356.14L946.191 359.537L942.314 356.095L952.337 356.14Z" fill="url(#paint22_linear_28_253)"/>
<path fill-rule="evenodd" clip-rule="evenodd" d="M922 384.805L924.575 380.109L922.492 374.516L922 384.805Z" fill="url(#paint23_linear_28_253)"/>
<path fill-rule="evenodd" clip-rule="evenodd" d="M922.353 374.339L924.449 380.282L933.554 378.24L943.948 368.579L946.882 359.261L942.263 356L934.41 358.939C931.936 361.24 927.135 365.794 926.961 365.879C926.79 365.967 923.791 371.635 922.353 374.339Z" fill="white"/>
<path fill-rule="evenodd" clip-rule="evenodd" d="M929.711 363.662C935.073 358.345 941.986 355.204 944.639 357.88C947.29 360.557 944.479 367.062 939.116 372.377C933.754 377.691 926.927 381.006 924.276 378.329C921.623 375.654 924.349 368.977 929.711 363.662Z" fill="url(#paint24_linear_28_253)"/>
<path fill-rule="evenodd" clip-rule="evenodd" d="M929.47 391.964L933.636 378.167L947.469 382.611C942.467 387.301 936.904 391.266 929.47 391.964Z" fill="url(#paint25_linear_28_253)"/>
<path fill-rule="evenodd" clip-rule="evenodd" d="M943.967 368.552L947.518 382.618C951.696 378.225 955.446 373.503 957.282 367.661L943.967 368.552Z" fill="url(#paint26_linear_28_253)"/>
<path fill-rule="evenodd" clip-rule="evenodd" d="M957.246 367.732C958.667 363.443 958.995 357.29 952.293 356.148L946.794 359.185L957.246 367.732Z" fill="url(#paint27_linear_28_253)"/>
<path fill-rule="evenodd" clip-rule="evenodd" d="M922 384.743C922.197 391.822 927.304 391.927 929.48 391.989L924.454 380.253L922 384.743Z" fill="#9E1209"/>
<path fill-rule="evenodd" clip-rule="evenodd" d="M943.986 368.574C947.197 370.547 953.667 374.51 953.798 374.583C954.002 374.698 956.588 370.223 957.175 367.694L943.986 368.574Z" fill="url(#paint28_radial_28_253)"/>
<path fill-rule="evenodd" clip-rule="evenodd" d="M933.63 378.167L939.198 388.91C942.491 387.124 945.069 384.949 947.43 382.618L933.63 378.167Z" fill="url(#paint29_radial_28_253)"/>
<path fill-rule="evenodd" clip-rule="evenodd" d="M924.432 380.268L923.643 389.662C925.132 391.696 927.18 391.872 929.328 391.714C927.774 387.846 924.669 380.111 924.432 380.268Z" fill="url(#paint30_linear_28_253)"/>
<path fill-rule="evenodd" clip-rule="evenodd" d="M946.762 359.209L957.823 360.761C957.233 358.259 955.42 356.645 952.33 356.14L946.762 359.209Z" fill="url(#paint31_linear_28_253)"/>
<rect x="64" y="341" width="158" height="36" rx="12" fill="#D1D7DD"/>
<rect x="233" y="341" width="88" height="36" rx="12" fill="#D1D7DD"/>
<rect x="786" y="38" width="188" height="68" stroke="#3BAED4" stroke-width="2"/>
<path d="M755.014 63.3958C754.564 63.1916 754.091 63.0004 753.611 62.8124C753.689 62.3003 753.76 61.798 753.809 61.3054C754.311 56.3339 753.349 51.8226 749.998 49.8877C746.65 47.9529 742.262 49.3757 738.204 52.2957C737.802 52.5842 737.4 52.8985 736.995 53.2194C736.593 52.8953 736.188 52.5842 735.79 52.2957C731.735 49.3724 727.347 47.9529 723.999 49.8877C720.651 51.8226 719.686 56.3306 720.188 61.3054C720.237 61.798 720.308 62.3036 720.386 62.8124C719.903 63.0004 719.433 63.1916 718.982 63.3958C714.426 65.4472 711 68.539 711 72.4054C711 76.2718 714.422 79.3604 718.982 81.4118C719.433 81.616 719.906 81.8072 720.386 81.9952C720.308 82.5073 720.237 83.0096 720.188 83.5022C719.686 88.4737 720.648 92.985 723.999 94.9198C727.347 96.8546 731.735 95.4319 735.79 92.5119C736.191 92.2234 736.593 91.9091 736.998 91.5882C737.4 91.9123 737.805 92.2234 738.207 92.5119C742.262 95.4351 746.65 96.8546 750.001 94.9198C753.349 92.985 754.314 88.477 753.812 83.5022C753.763 83.0096 753.692 82.504 753.614 81.9952C754.097 81.8072 754.567 81.616 755.018 81.4118C759.574 79.3604 763 76.2718 763 72.4054C763 68.539 759.574 65.4505 755.018 63.399L755.014 63.3958ZM739.653 54.3083C743.571 51.4855 746.779 50.8924 748.76 52.0332C750.74 53.1772 751.829 56.2528 751.343 61.0558C751.31 61.3605 751.274 61.6748 751.229 61.9892C748.999 61.3086 746.527 60.7901 743.895 60.4563C742.288 58.3432 740.602 56.4635 738.901 54.8722C739.154 54.6778 739.403 54.4866 739.653 54.3083ZM750.782 80.3618C749.275 80.835 747.635 81.2336 745.888 81.5447C746.517 80.5951 747.129 79.6131 747.719 78.5923C748.309 77.5746 748.854 76.5505 749.359 75.5296C749.962 77.1987 750.438 78.8159 750.782 80.3585V80.3618ZM736.998 88.3214C735.835 87.2519 734.668 86.0333 733.527 84.6754C734.665 84.7467 735.822 84.7856 736.998 84.7856C738.175 84.7856 739.332 84.7467 740.469 84.6754C739.325 86.0333 738.162 87.2519 736.998 88.3214ZM736.998 82.3096C735.083 82.3096 733.226 82.2059 731.45 82.0179C730.397 80.5724 729.382 79.0168 728.423 77.3575C727.464 75.6982 726.628 74.0388 725.902 72.4054C726.628 70.772 727.467 69.1127 728.423 67.4533C729.382 65.794 730.397 64.2384 731.45 62.793C733.229 62.605 735.083 62.5013 736.998 62.5013C738.914 62.5013 740.771 62.605 742.547 62.793C743.6 64.2384 744.614 65.794 745.574 67.4533C746.533 69.1127 747.369 70.772 748.098 72.4054C747.372 74.0388 746.533 75.6982 745.574 77.3575C744.614 79.0168 743.6 80.5724 742.547 82.0179C740.768 82.2059 738.914 82.3096 736.995 82.3096H736.998ZM724.638 75.5329C725.146 76.5537 725.691 77.5746 726.278 78.5923C726.867 79.6099 727.48 80.5951 728.109 81.5447C726.362 81.2336 724.722 80.835 723.215 80.3618C723.558 78.8191 724.032 77.2019 724.638 75.5329ZM723.215 64.4458C724.722 63.9726 726.362 63.574 728.109 63.2629C727.48 64.2125 726.867 65.1944 726.278 66.2153C725.688 67.233 725.143 68.2571 724.638 69.2747C724.035 67.6057 723.558 65.9885 723.215 64.4458ZM736.998 56.4894C738.162 57.5589 739.329 58.7775 740.469 60.1354C739.332 60.0641 738.175 60.0252 736.998 60.0252C735.822 60.0252 734.665 60.0641 733.527 60.1354C734.671 58.7775 735.835 57.5589 736.998 56.4894ZM749.362 69.2747C748.854 68.2538 748.309 67.233 747.722 66.2121C747.133 65.1944 746.52 64.2092 745.891 63.2596C747.638 63.5708 749.278 63.9694 750.785 64.4426C750.442 65.9852 749.968 67.6024 749.362 69.2715V69.2747ZM722.654 61.0558C722.168 56.2528 723.257 53.1772 725.237 52.0332C727.217 50.8892 730.426 51.4855 734.344 54.3083C734.594 54.4866 734.843 54.6778 735.096 54.8722C733.391 56.4635 731.706 58.3432 730.102 60.4563C727.47 60.7901 724.997 61.3086 722.768 61.9892C722.726 61.6748 722.687 61.3637 722.654 61.0558ZM720 79.1562C715.596 77.176 713.479 74.6935 713.479 72.4054C713.479 70.1174 715.599 67.6381 720 65.6547C720.282 65.5283 720.57 65.4051 720.865 65.2852C721.39 67.5571 722.178 69.9585 723.205 72.4054C722.178 74.8523 721.394 77.2538 720.865 79.5256C720.57 79.4057 720.282 79.2826 720 79.1562ZM734.344 90.5025C730.426 93.3253 727.217 93.9184 725.237 92.7776C723.257 91.6336 722.168 88.558 722.654 83.755C722.687 83.4504 722.722 83.136 722.768 82.8216C724.997 83.5022 727.47 84.0207 730.102 84.3546C731.709 86.4676 733.395 88.3473 735.096 89.9386C734.843 90.1331 734.594 90.3243 734.344 90.5025ZM751.343 83.7518C751.829 88.5547 750.74 91.6336 748.76 92.7744C746.779 93.9184 743.571 93.3221 739.653 90.4993C739.403 90.321 739.154 90.1298 738.901 89.9354C740.605 88.3441 742.291 86.4644 743.898 84.3513C746.53 84.0175 749.003 83.499 751.232 82.8184C751.274 83.1327 751.313 83.4439 751.346 83.7518H751.343ZM754 79.1562C753.718 79.2826 753.43 79.4057 753.135 79.5256C752.61 77.2538 751.822 74.8523 750.795 72.4054C751.822 69.9585 752.606 67.5571 753.135 65.2852C753.43 65.4051 753.718 65.5283 754 65.6547C758.404 67.6348 760.521 70.1174 760.521 72.4054C760.521 74.6935 758.401 77.1728 754 79.1562Z" fill="#0A7EA4"/>
<path d="M737.249 77.3507C739.981 77.2143 742.084 74.8893 741.948 72.1577C741.812 69.4262 739.487 67.3224 736.755 67.4589C734.023 67.5954 731.92 69.9203 732.056 72.6519C732.193 75.3834 734.518 77.4872 737.249 77.3507Z" fill="#0A7EA4"/>
<path d="M772 71C771.448 71 771 71.4477 771 72C771 72.5523 771.448 73 772 73V71ZM784 73H785V71H784V73ZM772 73H784V71H772V73Z" fill="#3BAED4"/>
<path d="M602 138C602 137.448 601.552 137 601 137C600.448 137 600 137.448 600 138H602ZM602 150V138H600V150H602Z" fill="#E56F4F"/>
<path fill-rule="evenodd" clip-rule="evenodd" d="M610.968 117.761L590.357 130L617.045 128.189L619.1 101.279L610.968 117.761Z" fill="url(#paint32_linear_28_253)"/>
<path fill-rule="evenodd" clip-rule="evenodd" d="M617.088 128.171L614.795 112.339L608.547 120.589L617.088 128.171Z" fill="url(#paint33_linear_28_253)"/>
<path fill-rule="evenodd" clip-rule="evenodd" d="M617.119 128.171L600.315 126.852L590.447 129.966L617.119 128.171Z" fill="url(#paint34_linear_28_253)"/>
<path fill-rule="evenodd" clip-rule="evenodd" d="M590.47 129.969L594.668 116.216L585.431 118.191L590.47 129.969Z" fill="url(#paint35_linear_28_253)"/>
<path fill-rule="evenodd" clip-rule="evenodd" d="M608.545 120.635L604.682 105.504L593.628 115.866L608.545 120.635Z" fill="url(#paint36_linear_28_253)"/>
<path fill-rule="evenodd" clip-rule="evenodd" d="M618.224 105.718L607.774 97.1831L604.865 106.59L618.224 105.718Z" fill="url(#paint37_linear_28_253)"/>
<path fill-rule="evenodd" clip-rule="evenodd" d="M613.337 94.1403L607.191 97.5366L603.314 94.0947L613.337 94.1403Z" fill="url(#paint38_linear_28_253)"/>
<path fill-rule="evenodd" clip-rule="evenodd" d="M583 122.805L585.575 118.109L583.492 112.516L583 122.805Z" fill="url(#paint39_linear_28_253)"/>
<path fill-rule="evenodd" clip-rule="evenodd" d="M583.353 112.339L585.449 118.282L594.554 116.24L604.948 106.579L607.882 97.2615L603.263 94L595.41 96.939C592.936 99.2402 588.135 103.794 587.961 103.879C587.79 103.967 584.791 109.635 583.353 112.339Z" fill="white"/>
<path fill-rule="evenodd" clip-rule="evenodd" d="M590.711 101.662C596.073 96.345 602.986 93.2038 605.639 95.8804C608.29 98.557 605.479 105.062 600.116 110.377C594.754 115.691 587.927 119.006 585.276 116.329C582.623 113.654 585.349 106.977 590.711 101.662Z" fill="url(#paint40_linear_28_253)"/>
<path fill-rule="evenodd" clip-rule="evenodd" d="M590.47 129.964L594.636 116.167L608.469 120.611C603.467 125.301 597.904 129.266 590.47 129.964Z" fill="url(#paint41_linear_28_253)"/>
<path fill-rule="evenodd" clip-rule="evenodd" d="M604.967 106.552L608.518 120.618C612.696 116.225 616.446 111.503 618.282 105.661L604.967 106.552Z" fill="url(#paint42_linear_28_253)"/>
<path fill-rule="evenodd" clip-rule="evenodd" d="M618.246 105.732C619.667 101.443 619.995 95.29 613.293 94.1476L607.794 97.1849L618.246 105.732Z" fill="url(#paint43_linear_28_253)"/>
<path fill-rule="evenodd" clip-rule="evenodd" d="M583 122.743C583.197 129.822 588.304 129.927 590.48 129.989L585.454 118.253L583 122.743Z" fill="#9E1209"/>
<path fill-rule="evenodd" clip-rule="evenodd" d="M604.986 106.574C608.197 108.547 614.667 112.51 614.798 112.583C615.002 112.698 617.588 108.223 618.175 105.694L604.986 106.574Z" fill="url(#paint44_radial_28_253)"/>
<path fill-rule="evenodd" clip-rule="evenodd" d="M594.63 116.167L600.198 126.91C603.491 125.124 606.069 122.949 608.43 120.618L594.63 116.167Z" fill="url(#paint45_radial_28_253)"/>
<path fill-rule="evenodd" clip-rule="evenodd" d="M585.432 118.268L584.643 127.662C586.132 129.696 588.18 129.872 590.328 129.714C588.774 125.846 585.669 118.111 585.432 118.268Z" fill="url(#paint46_linear_28_253)"/>
<path fill-rule="evenodd" clip-rule="evenodd" d="M607.762 97.2086L618.823 98.761C618.233 96.2594 616.42 94.645 613.33 94.1403L607.762 97.2086Z" fill="url(#paint47_linear_28_253)"/>
</g>
<defs>
<linearGradient id="paint0_linear_28_253" x1="468.717" y1="93.274" x2="461.101" y2="79.8281" gradientUnits="userSpaceOnUse">
<stop stop-color="#FB7655"/>
<stop offset="0.41" stop-color="#E42B1E"/>
<stop offset="0.99" stop-color="#990000"/>
<stop offset="1" stop-color="#990000"/>
</linearGradient>
<linearGradient id="paint1_linear_28_253" x1="472.511" y1="81.9789" x2="462.696" y2="75.3925" gradientUnits="userSpaceOnUse">
<stop stop-color="#871101"/>
<stop offset="0.99" stop-color="#911209"/>
<stop offset="1" stop-color="#911209"/>
</linearGradient>
<linearGradient id="paint2_linear_28_253" x1="464.658" y1="93.6815" x2="454.843" y2="87.0953" gradientUnits="userSpaceOnUse">
<stop stop-color="#871101"/>
<stop offset="0.99" stop-color="#911209"/>
<stop offset="1" stop-color="#911209"/>
</linearGradient>
<linearGradient id="paint3_linear_28_253" x1="444.051" y1="77.2111" x2="445.572" y2="87.0995" gradientUnits="userSpaceOnUse">
<stop stop-color="white"/>
<stop offset="0.23" stop-color="#E57252"/>
<stop offset="0.46" stop-color="#DE3B20"/>
<stop offset="0.99" stop-color="#A60003"/>
<stop offset="1" stop-color="#A60003"/>
</linearGradient>
<linearGradient id="paint4_linear_28_253" x1="454.516" y1="67.9779" x2="455.076" y2="78.0696" gradientUnits="userSpaceOnUse">
<stop stop-color="white"/>
<stop offset="0.23" stop-color="#E4714E"/>
<stop offset="0.56" stop-color="#BE1A0D"/>
<stop offset="0.99" stop-color="#A80D00"/>
<stop offset="1" stop-color="#A80D00"/>
</linearGradient>
<linearGradient id="paint5_linear_28_253" x1="463.803" y1="58.65" x2="465.481" y2="65.8827" gradientUnits="userSpaceOnUse">
<stop stop-color="white"/>
<stop offset="0.18" stop-color="#E46342"/>
<stop offset="0.4" stop-color="#C82410"/>
<stop offset="0.99" stop-color="#A80D00"/>
<stop offset="1" stop-color="#A80D00"/>
</linearGradient>
<linearGradient id="paint6_linear_28_253" x1="458.678" y1="56.1029" x2="465.91" y2="52.4868" gradientUnits="userSpaceOnUse">
<stop stop-color="white"/>
<stop offset="0.54" stop-color="#C81F11"/>
<stop offset="0.99" stop-color="#BF0905"/>
<stop offset="1" stop-color="#BF0905"/>
</linearGradient>
<linearGradient id="paint7_linear_28_253" x1="437.711" y1="74.6902" x2="438.306" y2="80.6498" gradientUnits="userSpaceOnUse">
<stop stop-color="white"/>
<stop offset="0.31" stop-color="#DE4024"/>
<stop offset="0.99" stop-color="#BF190B"/>
<stop offset="1" stop-color="#BF190B"/>
</linearGradient>
<linearGradient id="paint8_linear_28_253" x1="433.619" y1="82.2608" x2="461.6" y2="53.4882" gradientUnits="userSpaceOnUse">
<stop stop-color="#BD0012"/>
<stop offset="0.07" stop-color="white"/>
<stop offset="0.17" stop-color="white"/>
<stop offset="0.27" stop-color="#C82F1C"/>
<stop offset="0.33" stop-color="#820C01"/>
<stop offset="0.46" stop-color="#A31601"/>
<stop offset="0.72" stop-color="#B31301"/>
<stop offset="0.99" stop-color="#E82609"/>
<stop offset="1" stop-color="#E82609"/>
</linearGradient>
<linearGradient id="paint9_linear_28_253" x1="455.052" y1="85.163" x2="446.624" y2="83.0829" gradientUnits="userSpaceOnUse">
<stop stop-color="#8C0C01"/>
<stop offset="0.54" stop-color="#990C00"/>
<stop offset="0.99" stop-color="#A80D0E"/>
<stop offset="1" stop-color="#A80D0E"/>
</linearGradient>
<linearGradient id="paint10_linear_28_253" x1="469.528" y1="75.0473" x2="462.041" y2="68.3366" gradientUnits="userSpaceOnUse">
<stop stop-color="#7E110B"/>
<stop offset="0.99" stop-color="#9E0C00"/>
<stop offset="1" stop-color="#9E0C00"/>
</linearGradient>
<linearGradient id="paint11_linear_28_253" x1="472.279" y1="62.7343" x2="468.55" y2="58.7471" gradientUnits="userSpaceOnUse">
<stop stop-color="#79130D"/>
<stop offset="0.99" stop-color="#9E120B"/>
<stop offset="1" stop-color="#9E120B"/>
</linearGradient>
<radialGradient id="paint12_radial_28_253" cx="0" cy="0" r="1" gradientUnits="userSpaceOnUse" gradientTransform="translate(463.207 68.4649) scale(9.17539)">
<stop stop-color="#A80D00"/>
<stop offset="0.99" stop-color="#7E0E08"/>
<stop offset="1" stop-color="#7E0E08"/>
</radialGradient>
<radialGradient id="paint13_radial_28_253" cx="0" cy="0" r="1" gradientUnits="userSpaceOnUse" gradientTransform="translate(450.5 80.5565) scale(12.1975 12.1975)">
<stop stop-color="#A30C00"/>
<stop offset="0.99" stop-color="#800E08"/>
<stop offset="1" stop-color="#800E08"/>
</radialGradient>
<linearGradient id="paint14_linear_28_253" x1="441.859" y1="89.9555" x2="438.82" y2="79.6439" gradientUnits="userSpaceOnUse">
<stop stop-color="#8B2114"/>
<stop offset="0.43" stop-color="#9E100A"/>
<stop offset="0.99" stop-color="#B3100C"/>
<stop offset="1" stop-color="#B3100C"/>
</linearGradient>
<linearGradient id="paint15_linear_28_253" x1="465.176" y1="55.7852" x2="471.99" y2="58.7931" gradientUnits="userSpaceOnUse">
<stop stop-color="#B31000"/>
<stop offset="0.44" stop-color="#910F08"/>
<stop offset="0.99" stop-color="#791C12"/>
<stop offset="1" stop-color="#791C12"/>
</linearGradient>
<linearGradient id="paint16_linear_28_253" x1="953.717" y1="395.274" x2="946.101" y2="381.828" gradientUnits="userSpaceOnUse">
<stop stop-color="#FB7655"/>
<stop offset="0.41" stop-color="#E42B1E"/>
<stop offset="0.99" stop-color="#990000"/>
<stop offset="1" stop-color="#990000"/>
</linearGradient>
<linearGradient id="paint17_linear_28_253" x1="957.511" y1="383.979" x2="947.696" y2="377.392" gradientUnits="userSpaceOnUse">
<stop stop-color="#871101"/>
<stop offset="0.99" stop-color="#911209"/>
<stop offset="1" stop-color="#911209"/>
</linearGradient>
<linearGradient id="paint18_linear_28_253" x1="949.658" y1="395.682" x2="939.843" y2="389.095" gradientUnits="userSpaceOnUse">
<stop stop-color="#871101"/>
<stop offset="0.99" stop-color="#911209"/>
<stop offset="1" stop-color="#911209"/>
</linearGradient>
<linearGradient id="paint19_linear_28_253" x1="929.051" y1="379.211" x2="930.572" y2="389.1" gradientUnits="userSpaceOnUse">
<stop stop-color="white"/>
<stop offset="0.23" stop-color="#E57252"/>
<stop offset="0.46" stop-color="#DE3B20"/>
<stop offset="0.99" stop-color="#A60003"/>
<stop offset="1" stop-color="#A60003"/>
</linearGradient>
<linearGradient id="paint20_linear_28_253" x1="939.516" y1="369.978" x2="940.076" y2="380.07" gradientUnits="userSpaceOnUse">
<stop stop-color="white"/>
<stop offset="0.23" stop-color="#E4714E"/>
<stop offset="0.56" stop-color="#BE1A0D"/>
<stop offset="0.99" stop-color="#A80D00"/>
<stop offset="1" stop-color="#A80D00"/>
</linearGradient>
<linearGradient id="paint21_linear_28_253" x1="948.803" y1="360.65" x2="950.481" y2="367.883" gradientUnits="userSpaceOnUse">
<stop stop-color="white"/>
<stop offset="0.18" stop-color="#E46342"/>
<stop offset="0.4" stop-color="#C82410"/>
<stop offset="0.99" stop-color="#A80D00"/>
<stop offset="1" stop-color="#A80D00"/>
</linearGradient>
<linearGradient id="paint22_linear_28_253" x1="943.678" y1="358.103" x2="950.91" y2="354.487" gradientUnits="userSpaceOnUse">
<stop stop-color="white"/>
<stop offset="0.54" stop-color="#C81F11"/>
<stop offset="0.99" stop-color="#BF0905"/>
<stop offset="1" stop-color="#BF0905"/>
</linearGradient>
<linearGradient id="paint23_linear_28_253" x1="922.711" y1="376.69" x2="923.306" y2="382.65" gradientUnits="userSpaceOnUse">
<stop stop-color="white"/>
<stop offset="0.31" stop-color="#DE4024"/>
<stop offset="0.99" stop-color="#BF190B"/>
<stop offset="1" stop-color="#BF190B"/>
</linearGradient>
<linearGradient id="paint24_linear_28_253" x1="918.619" y1="384.261" x2="946.6" y2="355.488" gradientUnits="userSpaceOnUse">
<stop stop-color="#BD0012"/>
<stop offset="0.07" stop-color="white"/>
<stop offset="0.17" stop-color="white"/>
<stop offset="0.27" stop-color="#C82F1C"/>
<stop offset="0.33" stop-color="#820C01"/>
<stop offset="0.46" stop-color="#A31601"/>
<stop offset="0.72" stop-color="#B31301"/>
<stop offset="0.99" stop-color="#E82609"/>
<stop offset="1" stop-color="#E82609"/>
</linearGradient>
<linearGradient id="paint25_linear_28_253" x1="940.052" y1="387.163" x2="931.624" y2="385.083" gradientUnits="userSpaceOnUse">
<stop stop-color="#8C0C01"/>
<stop offset="0.54" stop-color="#990C00"/>
<stop offset="0.99" stop-color="#A80D0E"/>
<stop offset="1" stop-color="#A80D0E"/>
</linearGradient>
<linearGradient id="paint26_linear_28_253" x1="954.528" y1="377.047" x2="947.041" y2="370.337" gradientUnits="userSpaceOnUse">
<stop stop-color="#7E110B"/>
<stop offset="0.99" stop-color="#9E0C00"/>
<stop offset="1" stop-color="#9E0C00"/>
</linearGradient>
<linearGradient id="paint27_linear_28_253" x1="957.279" y1="364.734" x2="953.55" y2="360.747" gradientUnits="userSpaceOnUse">
<stop stop-color="#79130D"/>
<stop offset="0.99" stop-color="#9E120B"/>
<stop offset="1" stop-color="#9E120B"/>
</linearGradient>
<radialGradient id="paint28_radial_28_253" cx="0" cy="0" r="1" gradientUnits="userSpaceOnUse" gradientTransform="translate(948.207 370.465) scale(9.17539)">
<stop stop-color="#A80D00"/>
<stop offset="0.99" stop-color="#7E0E08"/>
<stop offset="1" stop-color="#7E0E08"/>
</radialGradient>
<radialGradient id="paint29_radial_28_253" cx="0" cy="0" r="1" gradientUnits="userSpaceOnUse" gradientTransform="translate(935.5 382.556) scale(12.1975 12.1975)">
<stop stop-color="#A30C00"/>
<stop offset="0.99" stop-color="#800E08"/>
<stop offset="1" stop-color="#800E08"/>
</radialGradient>
<linearGradient id="paint30_linear_28_253" x1="926.859" y1="391.956" x2="923.82" y2="381.644" gradientUnits="userSpaceOnUse">
<stop stop-color="#8B2114"/>
<stop offset="0.43" stop-color="#9E100A"/>
<stop offset="0.99" stop-color="#B3100C"/>
<stop offset="1" stop-color="#B3100C"/>
</linearGradient>
<linearGradient id="paint31_linear_28_253" x1="950.176" y1="357.785" x2="956.99" y2="360.793" gradientUnits="userSpaceOnUse">
<stop stop-color="#B31000"/>
<stop offset="0.44" stop-color="#910F08"/>
<stop offset="0.99" stop-color="#791C12"/>
<stop offset="1" stop-color="#791C12"/>
</linearGradient>
<linearGradient id="paint32_linear_28_253" x1="614.717" y1="133.274" x2="607.101" y2="119.828" gradientUnits="userSpaceOnUse">
<stop stop-color="#FB7655"/>
<stop offset="0.41" stop-color="#E42B1E"/>
<stop offset="0.99" stop-color="#990000"/>
<stop offset="1" stop-color="#990000"/>
</linearGradient>
<linearGradient id="paint33_linear_28_253" x1="618.511" y1="121.979" x2="608.696" y2="115.392" gradientUnits="userSpaceOnUse">
<stop stop-color="#871101"/>
<stop offset="0.99" stop-color="#911209"/>
<stop offset="1" stop-color="#911209"/>
</linearGradient>
<linearGradient id="paint34_linear_28_253" x1="610.658" y1="133.681" x2="600.843" y2="127.095" gradientUnits="userSpaceOnUse">
<stop stop-color="#871101"/>
<stop offset="0.99" stop-color="#911209"/>
<stop offset="1" stop-color="#911209"/>
</linearGradient>
<linearGradient id="paint35_linear_28_253" x1="590.051" y1="117.211" x2="591.572" y2="127.1" gradientUnits="userSpaceOnUse">
<stop stop-color="white"/>
<stop offset="0.23" stop-color="#E57252"/>
<stop offset="0.46" stop-color="#DE3B20"/>
<stop offset="0.99" stop-color="#A60003"/>
<stop offset="1" stop-color="#A60003"/>
</linearGradient>
<linearGradient id="paint36_linear_28_253" x1="600.516" y1="107.978" x2="601.076" y2="118.07" gradientUnits="userSpaceOnUse">
<stop stop-color="white"/>
<stop offset="0.23" stop-color="#E4714E"/>
<stop offset="0.56" stop-color="#BE1A0D"/>
<stop offset="0.99" stop-color="#A80D00"/>
<stop offset="1" stop-color="#A80D00"/>
</linearGradient>
<linearGradient id="paint37_linear_28_253" x1="609.803" y1="98.65" x2="611.481" y2="105.883" gradientUnits="userSpaceOnUse">
<stop stop-color="white"/>
<stop offset="0.18" stop-color="#E46342"/>
<stop offset="0.4" stop-color="#C82410"/>
<stop offset="0.99" stop-color="#A80D00"/>
<stop offset="1" stop-color="#A80D00"/>
</linearGradient>
<linearGradient id="paint38_linear_28_253" x1="604.678" y1="96.1029" x2="611.91" y2="92.4868" gradientUnits="userSpaceOnUse">
<stop stop-color="white"/>
<stop offset="0.54" stop-color="#C81F11"/>
<stop offset="0.99" stop-color="#BF0905"/>
<stop offset="1" stop-color="#BF0905"/>
</linearGradient>
<linearGradient id="paint39_linear_28_253" x1="583.711" y1="114.69" x2="584.306" y2="120.65" gradientUnits="userSpaceOnUse">
<stop stop-color="white"/>
<stop offset="0.31" stop-color="#DE4024"/>
<stop offset="0.99" stop-color="#BF190B"/>
<stop offset="1" stop-color="#BF190B"/>
</linearGradient>
<linearGradient id="paint40_linear_28_253" x1="579.619" y1="122.261" x2="607.6" y2="93.4882" gradientUnits="userSpaceOnUse">
<stop stop-color="#BD0012"/>
<stop offset="0.07" stop-color="white"/>
<stop offset="0.17" stop-color="white"/>
<stop offset="0.27" stop-color="#C82F1C"/>
<stop offset="0.33" stop-color="#820C01"/>
<stop offset="0.46" stop-color="#A31601"/>
<stop offset="0.72" stop-color="#B31301"/>
<stop offset="0.99" stop-color="#E82609"/>
<stop offset="1" stop-color="#E82609"/>
</linearGradient>
<linearGradient id="paint41_linear_28_253" x1="601.052" y1="125.163" x2="592.624" y2="123.083" gradientUnits="userSpaceOnUse">
<stop stop-color="#8C0C01"/>
<stop offset="0.54" stop-color="#990C00"/>
<stop offset="0.99" stop-color="#A80D0E"/>
<stop offset="1" stop-color="#A80D0E"/>
</linearGradient>
<linearGradient id="paint42_linear_28_253" x1="615.528" y1="115.047" x2="608.041" y2="108.337" gradientUnits="userSpaceOnUse">
<stop stop-color="#7E110B"/>
<stop offset="0.99" stop-color="#9E0C00"/>
<stop offset="1" stop-color="#9E0C00"/>
</linearGradient>
<linearGradient id="paint43_linear_28_253" x1="618.279" y1="102.734" x2="614.549" y2="98.7471" gradientUnits="userSpaceOnUse">
<stop stop-color="#79130D"/>
<stop offset="0.99" stop-color="#9E120B"/>
<stop offset="1" stop-color="#9E120B"/>
</linearGradient>
<radialGradient id="paint44_radial_28_253" cx="0" cy="0" r="1" gradientUnits="userSpaceOnUse" gradientTransform="translate(609.207 108.465) scale(9.17539)">
<stop stop-color="#A80D00"/>
<stop offset="0.99" stop-color="#7E0E08"/>
<stop offset="1" stop-color="#7E0E08"/>
</radialGradient>
<radialGradient id="paint45_radial_28_253" cx="0" cy="0" r="1" gradientUnits="userSpaceOnUse" gradientTransform="translate(596.5 120.556) scale(12.1975 12.1975)">
<stop stop-color="#A30C00"/>
<stop offset="0.99" stop-color="#800E08"/>
<stop offset="1" stop-color="#800E08"/>
</radialGradient>
<linearGradient id="paint46_linear_28_253" x1="587.859" y1="129.956" x2="584.82" y2="119.644" gradientUnits="userSpaceOnUse">
<stop stop-color="#8B2114"/>
<stop offset="0.43" stop-color="#9E100A"/>
<stop offset="0.99" stop-color="#B3100C"/>
<stop offset="1" stop-color="#B3100C"/>
</linearGradient>
<linearGradient id="paint47_linear_28_253" x1="611.176" y1="95.7852" x2="617.99" y2="98.7931" gradientUnits="userSpaceOnUse">
<stop stop-color="#B31000"/>
<stop offset="0.44" stop-color="#910F08"/>
<stop offset="0.99" stop-color="#791C12"/>
<stop offset="1" stop-color="#791C12"/>
</linearGradient>
<clipPath id="clip0_28_253">
<rect width="1000" height="591" fill="white"/>
</clipPath>
</defs>
</svg>
