<svg width="1000" height="591" viewBox="0 0 1000 591" fill="none" xmlns="http://www.w3.org/2000/svg">
<rect width="1000" height="591" fill="white"/>
<path d="M1000 0H0V221H1000V0Z" fill="#89CFF0"/>
<path d="M170.806 173H47.8491C41.8573 173 37 178.373 37 185C37 191.627 41.8573 197 47.8491 197H170.806C176.798 197 181.655 191.627 181.655 185C181.655 178.373 176.798 173 170.806 173Z" fill="#D1D7DD"/>
<path d="M865.151 173H742.194C736.202 173 731.345 178.373 731.345 185C731.345 191.627 736.202 197 742.194 197H865.151C871.143 197 876 191.627 876 185C876 178.373 871.143 173 865.151 173Z" fill="#D1D7DD"/>
<path d="M344.392 173H221.435C215.444 173 210.586 178.373 210.586 185C210.586 191.627 215.444 197 221.435 197H344.392C350.384 197 355.241 191.627 355.241 185C355.241 178.373 350.384 173 344.392 173Z" fill="#868F99"/>
<path d="M517.978 173H395.022C389.03 173 384.172 178.373 384.172 185C384.172 191.627 389.03 197 395.022 197H517.978C523.97 197 528.828 191.627 528.828 185C528.828 178.373 523.97 173 517.978 173Z" fill="#D1D7DD"/>
<path d="M691.565 173H568.608C562.616 173 557.759 178.373 557.759 185C557.759 191.627 562.616 197 568.608 197H691.565C697.556 197 702.414 191.627 702.414 185C702.414 178.373 697.556 173 691.565 173Z" fill="#D1D7DD"/>
<path d="M940 96C953.255 96 964 85.2548 964 72C964 58.7452 953.255 48 940 48C926.745 48 916 58.7452 916 72C916 85.2548 926.745 96 940 96Z" fill="#77DD77"/>
<path d="M888 48H864C857.373 48 852 53.3726 852 60V84C852 90.6274 857.373 96 864 96H888C894.627 96 900 90.6274 900 84V60C900 53.3726 894.627 48 888 48Z" fill="#DDA0DD"/>
<path d="M832 48H808C801.373 48 796 53.3726 796 60V84C796 90.6274 801.373 96 808 96H832C838.627 96 844 90.6274 844 84V60C844 53.3726 838.627 48 832 48Z" fill="#DDA0DD"/>
<path d="M92 40H36C33.7909 40 32 41.7909 32 44V100C32 102.209 33.7909 104 36 104H92C94.2091 104 96 102.209 96 100V44C96 41.7909 94.2091 40 92 40Z" fill="#007AA5"/>
<path d="M48 62H80" stroke="#E62020" stroke-width="4" stroke-linecap="round"/>
<path d="M48 73H80" stroke="#E62020" stroke-width="4" stroke-linecap="round"/>
<path d="M48 84H80" stroke="#E62020" stroke-width="4" stroke-linecap="round"/>
<path d="M152 112C174.091 112 192 94.0914 192 72C192 49.9086 174.091 32 152 32C129.909 32 112 49.9086 112 72C112 94.0914 129.909 112 152 112Z" fill="#D1D7DD"/>
<path d="M394 62H220C213.373 62 208 67.3726 208 74C208 80.6274 213.373 86 220 86H394C400.627 86 406 80.6274 406 74C406 67.3726 400.627 62 394 62Z" fill="#00FFFF"/>
<path d="M952 161H928C921.373 161 916 166.373 916 173V197C916 203.627 921.373 209 928 209H952C958.627 209 964 203.627 964 197V173C964 166.373 958.627 161 952 161Z" fill="#FC89AC"/>
<rect x="64" y="438" width="466.715" height="17" rx="8.5" fill="#D1D7DD"/>
<rect x="64" y="463" width="357.467" height="17" rx="8.5" fill="#D1D7DD"/>
<rect x="427.893" y="463" width="232.152" height="17" rx="8.5" fill="#D1D7DD"/>
<rect x="666.472" y="463" width="143.79" height="17" rx="8.5" fill="#D1D7DD"/>
<rect x="537.141" y="438" width="79.5263" height="17" rx="8.5" fill="#D1D7DD"/>
<rect x="623.094" y="438" width="220.906" height="17" rx="8.5" fill="#D1D7DD"/>
<rect width="435.002" height="17" rx="8.5" transform="matrix(-1 0 0 1 791 488)" fill="#D1D7DD"/>
<rect width="333.177" height="17" rx="8.5" transform="matrix(-1 0 0 1 759.554 513)" fill="#D1D7DD"/>
<rect width="216.378" height="17" rx="8.5" transform="matrix(-1 0 0 1 420.387 513)" fill="#D1D7DD"/>
<rect width="134.02" height="17" rx="8.5" transform="matrix(-1 0 0 1 198.02 513)" fill="#D1D7DD"/>
<rect width="74.1225" height="17" rx="8.5" transform="matrix(-1 0 0 1 350.008 488)" fill="#D1D7DD"/>
<rect width="205.896" height="17" rx="8.5" transform="matrix(-1 0 0 1 269.896 488)" fill="#D1D7DD"/>
<rect x="64" y="538" width="466.715" height="17" rx="8.5" fill="#D1D7DD"/>
<rect x="64" y="563" width="357.467" height="17" rx="8.5" fill="#D1D7DD"/>
<rect x="427.893" y="563" width="232.152" height="17" rx="8.5" fill="#D1D7DD"/>
<rect x="666.472" y="563" width="143.79" height="17" rx="8.5" fill="#D1D7DD"/>
<rect x="537.141" y="538" width="79.5263" height="17" rx="8.5" fill="#D1D7DD"/>
<rect x="623.094" y="538" width="220.906" height="17" rx="8.5" fill="#D1D7DD"/>
<rect x="64" y="277" width="600" height="48" rx="12" fill="#868F99"/>
<path d="M952 277H928C921.373 277 916 282.373 916 289V313C916 319.627 921.373 325 928 325H952C958.627 325 964 319.627 964 313V289C964 282.373 958.627 277 952 277Z" fill="#A020F0"/>
<rect x="64" y="341" width="158" height="36" rx="12" fill="#D1D7DD"/>
<rect x="233" y="341" width="88" height="36" rx="12" fill="#CD5700"/>
</svg>
