<svg width="1770" height="487" viewBox="0 0 1770 487" fill="none" xmlns="http://www.w3.org/2000/svg">
<g clip-path="url(#clip0_40_407)">
<rect width="1770" height="487" fill="white"/>
<path d="M1770 0H0V221H1770V0Z" fill="#89CFF0"/>
<path d="M92 40H36C33.7909 40 32 41.7909 32 44V100C32 102.209 33.7909 104 36 104H92C94.2091 104 96 102.209 96 100V44C96 41.7909 94.2091 40 92 40Z" fill="#007AA5"/>
<path d="M48 62H80" stroke="#E62020" stroke-width="4" stroke-linecap="round"/>
<path d="M48 73H80" stroke="#E62020" stroke-width="4" stroke-linecap="round"/>
<path d="M48 84H80" stroke="#E62020" stroke-width="4" stroke-linecap="round"/>
<path d="M152 112C174.091 112 192 94.0914 192 72C192 49.9086 174.091 32 152 32C129.909 32 112 49.9086 112 72C112 94.0914 129.909 112 152 112Z" fill="#D1D7DD"/>
<path d="M394 62H220C213.373 62 208 67.3726 208 74C208 80.6274 213.373 86 220 86H394C400.627 86 406 80.6274 406 74C406 67.3726 400.627 62 394 62Z" fill="#00FFFF"/>
<path d="M185 173H49C42.3726 173 37 178.373 37 185C37 191.627 42.3726 197 49 197H185C191.627 197 197 191.627 197 185C197 178.373 191.627 173 185 173Z" fill="#D1D7DD"/>
<path d="M953 173H817C810.373 173 805 178.373 805 185C805 191.627 810.373 197 817 197H953C959.627 197 965 191.627 965 185C965 178.373 959.627 173 953 173Z" fill="#D1D7DD"/>
<path d="M377 173H241C234.373 173 229 178.373 229 185C229 191.627 234.373 197 241 197H377C383.627 197 389 191.627 389 185C389 178.373 383.627 173 377 173Z" fill="#868F99"/>
<path d="M1145 173H1009C1002.37 173 997 178.373 997 185C997 191.627 1002.37 197 1009 197H1145C1151.63 197 1157 191.627 1157 185C1157 178.373 1151.63 173 1145 173Z" fill="#D1D7DD"/>
<path d="M569 173H433C426.373 173 421 178.373 421 185C421 191.627 426.373 197 433 197H569C575.627 197 581 191.627 581 185C581 178.373 575.627 173 569 173Z" fill="#D1D7DD"/>
<path d="M1337 173H1201C1194.37 173 1189 178.373 1189 185C1189 191.627 1194.37 197 1201 197H1337C1343.63 197 1349 191.627 1349 185C1349 178.373 1343.63 173 1337 173Z" fill="#D1D7DD"/>
<path d="M761 173H625C618.373 173 613 178.373 613 185C613 191.627 618.373 197 625 197H761C767.627 197 773 191.627 773 185C773 178.373 767.627 173 761 173Z" fill="#D1D7DD"/>
<path d="M1529 173H1393C1386.37 173 1381 178.373 1381 185C1381 191.627 1386.37 197 1393 197H1529C1535.63 197 1541 191.627 1541 185C1541 178.373 1535.63 173 1529 173Z" fill="#D1D7DD"/>
<path d="M1721 173H1585C1578.37 173 1573 178.373 1573 185C1573 191.627 1578.37 197 1585 197H1721C1727.63 197 1733 191.627 1733 185C1733 178.373 1727.63 173 1721 173Z" fill="#D1D7DD"/>
<path d="M1710 96C1723.25 96 1734 85.2548 1734 72C1734 58.7452 1723.25 48 1710 48C1696.75 48 1686 58.7452 1686 72C1686 85.2548 1696.75 96 1710 96Z" fill="#77DD77"/>
<path d="M1418 48H866C859.373 48 854 53.3726 854 60V84C854 90.6274 859.373 96 866 96H1418C1424.63 96 1430 90.6274 1430 84V60C1430 53.3726 1424.63 48 1418 48Z" fill="#7FB5B5"/>
<path d="M1658 48H1634C1627.37 48 1622 53.3726 1622 60V84C1622 90.6274 1627.37 96 1634 96H1658C1664.63 96 1670 90.6274 1670 84V60C1670 53.3726 1664.63 48 1658 48Z" fill="#DDA0DD"/>
<path d="M1602 48H1578C1571.37 48 1566 53.3726 1566 60V84C1566 90.6274 1571.37 96 1578 96H1602C1608.63 96 1614 90.6274 1614 84V60C1614 53.3726 1608.63 48 1602 48Z" fill="#DDA0DD"/>
<path d="M1546 48H1522C1515.37 48 1510 53.3726 1510 60V84C1510 90.6274 1515.37 96 1522 96H1546C1552.63 96 1558 90.6274 1558 84V60C1558 53.3726 1552.63 48 1546 48Z" fill="#DDA0DD"/>
<path d="M1490 48H1466C1459.37 48 1454 53.3726 1454 60V84C1454 90.6274 1459.37 96 1466 96H1490C1496.63 96 1502 90.6274 1502 84V60C1502 53.3726 1496.63 48 1490 48Z" fill="#DDA0DD"/>
<path d="M833 277H92C85.3726 277 80 282.373 80 289V313C80 319.627 85.3726 325 92 325H833C839.627 325 845 319.627 845 313V289C845 282.373 839.627 277 833 277Z" fill="#868F99"/>
<path d="M263 341H98C88.0589 341 80 349.059 80 359C80 368.941 88.0589 377 98 377H263C272.941 377 281 368.941 281 359C281 349.059 272.941 341 263 341Z" fill="#D1D7DD"/>
<path d="M652.5 438H88.5C83.8056 438 80 441.806 80 446.5C80 451.194 83.8056 455 88.5 455H652.5C657.194 455 661 451.194 661 446.5C661 441.806 657.194 438 652.5 438Z" fill="#D1D7DD"/>
<path d="M759.5 438H677.5C672.806 438 669 441.806 669 446.5C669 451.194 672.806 455 677.5 455H759.5C764.194 455 768 451.194 768 446.5C768 441.806 764.194 438 759.5 438Z" fill="#D1D7DD"/>
<path d="M1000.5 463H838.5C833.806 463 830 466.806 830 471.5C830 476.194 833.806 480 838.5 480H1000.5C1005.19 480 1009 476.194 1009 471.5C1009 466.806 1005.19 463 1000.5 463Z" fill="#D1D7DD"/>
<path d="M1042.5 438H784.5C779.806 438 776 441.806 776 446.5C776 451.194 779.806 455 784.5 455H1042.5C1047.19 455 1051 451.194 1051 446.5C1051 441.806 1047.19 438 1042.5 438Z" fill="#D1D7DD"/>
<path d="M516.5 463H88.5C83.8056 463 80 466.806 80 471.5C80 476.194 83.8056 480 88.5 480H516.5C521.194 480 525 476.194 525 471.5C525 466.806 521.194 463 516.5 463Z" fill="#D1D7DD"/>
<path d="M813.5 463H541.5C536.806 463 533 466.806 533 471.5C533 476.194 536.806 480 541.5 480H813.5C818.194 480 822 476.194 822 471.5C822 466.806 818.194 463 813.5 463Z" fill="#D1D7DD"/>
<path d="M390 341H313C303.059 341 295 349.059 295 359C295 368.941 303.059 377 313 377H390C399.941 377 408 368.941 408 359C408 349.059 399.941 341 390 341Z" fill="#CD5700"/>
<path d="M1635 283H1558C1548.06 283 1540 291.059 1540 301C1540 310.941 1548.06 319 1558 319H1635C1644.94 319 1653 310.941 1653 301C1653 291.059 1644.94 283 1635 283Z" fill="#CD5700"/>
<path d="M1514 283H1479C1469.06 283 1461 291.059 1461 301C1461 310.941 1469.06 319 1479 319H1514C1523.94 319 1532 310.941 1532 301C1532 291.059 1523.94 283 1514 283Z" fill="#A020F0"/>
<path d="M1679 319C1688.94 319 1697 310.941 1697 301C1697 291.059 1688.94 283 1679 283C1669.06 283 1661 291.059 1661 301C1661 310.941 1669.06 319 1679 319Z" fill="#66424D"/>
</g>
<defs>
<clipPath id="clip0_40_407">
<rect width="1770" height="487" fill="white"/>
</clipPath>
</defs>
</svg>
