<svg width="32" height="32" xmlns="http://www.w3.org/2000/svg"><style>.favicon{fill:#4a4a4a}@media (prefers-color-scheme:dark){.favicon{fill:#fff}}</style><g id="favicon" fill="none" fill-rule="evenodd"><path class="favicon" d="M14.216 26.197c2.788 0 5.453-.451 7.708-1.312v-4.018c-1.927.779-4.018 1.23-5.986 1.23-2.829 0-3.772-.697-3.772-3.034 0-.451.082-1.148.123-1.599 7.995-.246 12.915-2.624 12.915-7.503 0-2.46-1.558-4.961-6.601-4.961C12.166 5 7 10.781 7 19.309c0 4.51 2.05 6.888 7.216 6.888zm-1.353-12.218c.738-2.665 2.419-5.125 5.084-5.125 1.312 0 2.05.656 2.05 1.804 0 1.968-2.296 3.157-7.134 3.321z" id="e" fill="#4A4A4A" fill-rule="nonzero"/></g></svg>