<svg width="593" height="435" viewBox="0 0 593 435" fill="none" xmlns="http://www.w3.org/2000/svg">
<rect width="593" height="435" fill="white"/>
<rect x="10.5" y="29.5" width="572" height="396" fill="#FBFBFB" stroke="#E5E5E5"/>
<path d="M12.3945 13.4688V22H11.2637V13.4688H12.3945ZM15.9688 17.3066V18.2324H12.1484V17.3066H15.9688ZM16.5488 13.4688V14.3945H12.1484V13.4688H16.5488ZM18.6641 16.6562V22H17.5801V15.6602H18.6348L18.6641 16.6562ZM20.6445 15.625L20.6387 16.6328C20.5488 16.6133 20.4629 16.6016 20.3809 16.5977C20.3027 16.5898 20.2129 16.5859 20.1113 16.5859C19.8613 16.5859 19.6406 16.625 19.4492 16.7031C19.2578 16.7812 19.0957 16.8906 18.9629 17.0312C18.8301 17.1719 18.7246 17.3398 18.6465 17.5352C18.5723 17.7266 18.5234 17.9375 18.5 18.168L18.1953 18.3438C18.1953 17.9609 18.2324 17.6016 18.3066 17.2656C18.3848 16.9297 18.5039 16.6328 18.6641 16.375C18.8242 16.1133 19.0273 15.9102 19.2734 15.7656C19.5234 15.6172 19.8203 15.543 20.1641 15.543C20.2422 15.543 20.332 15.5527 20.4336 15.5723C20.5352 15.5879 20.6055 15.6055 20.6445 15.625ZM25.1504 20.916V17.6523C25.1504 17.4023 25.0996 17.1855 24.998 17.002C24.9004 16.8145 24.752 16.6699 24.5527 16.5684C24.3535 16.4668 24.1074 16.416 23.8145 16.416C23.541 16.416 23.3008 16.4629 23.0938 16.5566C22.8906 16.6504 22.7305 16.7734 22.6133 16.9258C22.5 17.0781 22.4434 17.2422 22.4434 17.418H21.3594C21.3594 17.1914 21.418 16.9668 21.5352 16.7441C21.6523 16.5215 21.8203 16.3203 22.0391 16.1406C22.2617 15.957 22.5273 15.8125 22.8359 15.707C23.1484 15.5977 23.4961 15.543 23.8789 15.543C24.3398 15.543 24.7461 15.6211 25.0977 15.7773C25.4531 15.9336 25.7305 16.1699 25.9297 16.4863C26.1328 16.7988 26.2344 17.1914 26.2344 17.6641V20.6172C26.2344 20.8281 26.252 21.0527 26.2871 21.291C26.3262 21.5293 26.3828 21.7344 26.457 21.9062V22H25.3262C25.2715 21.875 25.2285 21.709 25.1973 21.502C25.166 21.291 25.1504 21.0957 25.1504 20.916ZM25.3379 18.1562L25.3496 18.918H24.2539C23.9453 18.918 23.6699 18.9434 23.4277 18.9941C23.1855 19.041 22.9824 19.1133 22.8184 19.2109C22.6543 19.3086 22.5293 19.4316 22.4434 19.5801C22.3574 19.7246 22.3145 19.8945 22.3145 20.0898C22.3145 20.2891 22.3594 20.4707 22.4492 20.6348C22.5391 20.7988 22.6738 20.9297 22.8535 21.0273C23.0371 21.1211 23.2617 21.168 23.5273 21.168C23.8594 21.168 24.1523 21.0977 24.4062 20.957C24.6602 20.8164 24.8613 20.6445 25.0098 20.4414C25.1621 20.2383 25.2441 20.041 25.2559 19.8496L25.7188 20.3711C25.6914 20.5352 25.6172 20.7168 25.4961 20.916C25.375 21.1152 25.2129 21.3066 25.0098 21.4902C24.8105 21.6699 24.5723 21.8203 24.2949 21.9414C24.0215 22.0586 23.7129 22.1172 23.3691 22.1172C22.9395 22.1172 22.5625 22.0332 22.2383 21.8652C21.918 21.6973 21.668 21.4727 21.4883 21.1914C21.3125 20.9062 21.2246 20.5879 21.2246 20.2363C21.2246 19.8965 21.291 19.5977 21.4238 19.3398C21.5566 19.0781 21.748 18.8613 21.998 18.6895C22.248 18.5137 22.5488 18.3809 22.9004 18.291C23.252 18.2012 23.6445 18.1562 24.0781 18.1562H25.3379ZM29.0176 16.9199V22H27.9277V15.6602H28.959L29.0176 16.9199ZM28.7949 18.5898L28.291 18.5723C28.2949 18.1387 28.3516 17.7383 28.4609 17.3711C28.5703 17 28.7324 16.6777 28.9473 16.4043C29.1621 16.1309 29.4297 15.9199 29.75 15.7715C30.0703 15.6191 30.4414 15.543 30.8633 15.543C31.1602 15.543 31.4336 15.5859 31.6836 15.6719C31.9336 15.7539 32.1504 15.8848 32.334 16.0645C32.5176 16.2441 32.6602 16.4746 32.7617 16.7559C32.8633 17.0371 32.9141 17.377 32.9141 17.7754V22H31.8301V17.8281C31.8301 17.4961 31.7734 17.2305 31.6602 17.0312C31.5508 16.832 31.3945 16.6875 31.1914 16.5977C30.9883 16.5039 30.75 16.457 30.4766 16.457C30.1562 16.457 29.8887 16.5137 29.6738 16.627C29.459 16.7402 29.2871 16.8965 29.1582 17.0957C29.0293 17.2949 28.9355 17.5234 28.877 17.7812C28.8223 18.0352 28.7949 18.3047 28.7949 18.5898ZM32.9023 17.9922L32.1758 18.2148C32.1797 17.8672 32.2363 17.5332 32.3457 17.2129C32.459 16.8926 32.6211 16.6074 32.832 16.3574C33.0469 16.1074 33.3105 15.9102 33.623 15.7656C33.9355 15.6172 34.293 15.543 34.6953 15.543C35.0352 15.543 35.3359 15.5879 35.5977 15.6777C35.8633 15.7676 36.0859 15.9062 36.2656 16.0938C36.4492 16.2773 36.5879 16.5137 36.6816 16.8027C36.7754 17.0918 36.8223 17.4355 36.8223 17.834V22H35.7324V17.8223C35.7324 17.4668 35.6758 17.1914 35.5625 16.9961C35.4531 16.7969 35.2969 16.6582 35.0938 16.5801C34.8945 16.498 34.6562 16.457 34.3789 16.457C34.1406 16.457 33.9297 16.498 33.7461 16.5801C33.5625 16.6621 33.4082 16.7754 33.2832 16.9199C33.1582 17.0605 33.0625 17.2227 32.9961 17.4062C32.9336 17.5898 32.9023 17.7852 32.9023 17.9922ZM41.0938 22.1172C40.6523 22.1172 40.252 22.043 39.8926 21.8945C39.5371 21.7422 39.2305 21.5293 38.9727 21.2559C38.7188 20.9824 38.5234 20.6582 38.3867 20.2832C38.25 19.9082 38.1816 19.498 38.1816 19.0527V18.8066C38.1816 18.291 38.2578 17.832 38.4102 17.4297C38.5625 17.0234 38.7695 16.6797 39.0312 16.3984C39.293 16.1172 39.5898 15.9043 39.9219 15.7598C40.2539 15.6152 40.5977 15.543 40.9531 15.543C41.4062 15.543 41.7969 15.6211 42.125 15.7773C42.457 15.9336 42.7285 16.1523 42.9395 16.4336C43.1504 16.7109 43.3066 17.0391 43.4082 17.418C43.5098 17.793 43.5605 18.2031 43.5605 18.6484V19.1348H38.8262V18.25H42.4766V18.168C42.4609 17.8867 42.4023 17.6133 42.3008 17.3477C42.2031 17.082 42.0469 16.8633 41.832 16.6914C41.6172 16.5195 41.3242 16.4336 40.9531 16.4336C40.707 16.4336 40.4805 16.4863 40.2734 16.5918C40.0664 16.6934 39.8887 16.8457 39.7402 17.0488C39.5918 17.252 39.4766 17.5 39.3945 17.793C39.3125 18.0859 39.2715 18.4238 39.2715 18.8066V19.0527C39.2715 19.3535 39.3125 19.6367 39.3945 19.9023C39.4805 20.1641 39.6035 20.3945 39.7637 20.5938C39.9277 20.793 40.125 20.9492 40.3555 21.0625C40.5898 21.1758 40.8555 21.2324 41.1523 21.2324C41.5352 21.2324 41.8594 21.1543 42.125 20.998C42.3906 20.8418 42.623 20.6328 42.8223 20.3711L43.4785 20.8926C43.3418 21.0996 43.168 21.2969 42.957 21.4844C42.7461 21.6719 42.4863 21.8242 42.1777 21.9414C41.873 22.0586 41.5117 22.1172 41.0938 22.1172ZM51.248 13.4219V22H50.1641V14.7754L47.9785 15.5723V14.5938L51.0781 13.4219H51.248Z" fill="#858585"/>
<rect x="196" y="217" width="200" height="73" rx="36.5" fill="#3465FF"/>
<path d="M272.268 244.24C273.985 244.24 275.497 244.511 276.804 245.052C278.129 245.575 279.277 246.349 280.248 247.376L277.924 250.484C277.121 249.644 276.253 249.019 275.32 248.608C274.405 248.179 273.36 247.964 272.184 247.964C271.493 247.964 270.933 248.039 270.504 248.188C270.075 248.337 269.767 248.543 269.58 248.804C269.393 249.065 269.3 249.364 269.3 249.7C269.3 250.092 269.477 250.428 269.832 250.708C270.205 250.969 270.803 251.193 271.624 251.38L274.732 252.08C276.58 252.509 277.933 253.135 278.792 253.956C279.651 254.777 280.08 255.869 280.08 257.232C280.08 258.539 279.744 259.649 279.072 260.564C278.4 261.46 277.476 262.141 276.3 262.608C275.124 263.056 273.78 263.28 272.268 263.28C271.036 263.28 269.86 263.149 268.74 262.888C267.62 262.608 266.612 262.216 265.716 261.712C264.82 261.208 264.064 260.629 263.448 259.976L265.772 256.756C266.239 257.297 266.808 257.783 267.48 258.212C268.171 258.623 268.917 258.949 269.72 259.192C270.541 259.435 271.372 259.556 272.212 259.556C272.865 259.556 273.407 259.491 273.836 259.36C274.284 259.229 274.611 259.033 274.816 258.772C275.021 258.511 275.124 258.203 275.124 257.848C275.124 257.456 274.984 257.129 274.704 256.868C274.424 256.588 273.892 256.355 273.108 256.168L269.692 255.412C268.647 255.169 267.713 254.852 266.892 254.46C266.089 254.049 265.455 253.508 264.988 252.836C264.521 252.145 264.288 251.287 264.288 250.26C264.288 249.103 264.605 248.076 265.24 247.18C265.875 246.265 266.789 245.547 267.984 245.024C269.179 244.501 270.607 244.24 272.268 244.24ZM290.458 254.124C290.458 253.471 290.271 252.957 289.898 252.584C289.543 252.192 289.058 251.996 288.442 251.996C287.826 251.996 287.294 252.155 286.846 252.472C286.416 252.771 286.118 253.312 285.95 254.096L281.918 253.144C282.179 251.8 282.87 250.727 283.99 249.924C285.11 249.121 286.687 248.72 288.722 248.72C290.084 248.72 291.242 248.925 292.194 249.336C293.164 249.728 293.902 250.325 294.406 251.128C294.928 251.912 295.19 252.883 295.19 254.04V259.164C295.19 259.892 295.516 260.256 296.17 260.256C296.506 260.256 296.776 260.219 296.982 260.144L296.702 262.86C296.142 263.121 295.46 263.252 294.658 263.252C293.93 263.252 293.286 263.14 292.726 262.916C292.166 262.673 291.727 262.319 291.41 261.852C291.092 261.367 290.934 260.76 290.934 260.032V259.864L291.466 259.668C291.466 260.471 291.223 261.143 290.738 261.684C290.271 262.225 289.655 262.627 288.89 262.888C288.143 263.149 287.359 263.28 286.538 263.28C285.586 263.28 284.755 263.131 284.046 262.832C283.336 262.533 282.786 262.104 282.394 261.544C282.02 260.965 281.834 260.256 281.834 259.416C281.834 258.408 282.132 257.577 282.73 256.924C283.346 256.252 284.307 255.785 285.614 255.524L290.906 254.432L290.878 256.952L288.19 257.512C287.63 257.624 287.21 257.792 286.93 258.016C286.668 258.221 286.538 258.539 286.538 258.968C286.538 259.379 286.687 259.687 286.986 259.892C287.284 260.097 287.639 260.2 288.05 260.2C288.367 260.2 288.666 260.153 288.946 260.06C289.244 259.967 289.506 259.827 289.73 259.64C289.954 259.435 290.131 259.183 290.262 258.884C290.392 258.585 290.458 258.231 290.458 257.82V254.124ZM307.359 249H312.287L307.247 263H301.563L296.523 249H301.535L304.419 259.668L307.359 249ZM320.54 263.28C318.991 263.28 317.647 262.991 316.508 262.412C315.388 261.833 314.52 261.003 313.904 259.92C313.288 258.837 312.98 257.531 312.98 256C312.98 254.469 313.288 253.163 313.904 252.08C314.52 250.997 315.379 250.167 316.48 249.588C317.6 249.009 318.879 248.72 320.316 248.72C321.791 248.72 323.041 249.009 324.068 249.588C325.113 250.148 325.907 250.932 326.448 251.94C326.989 252.929 327.26 254.068 327.26 255.356C327.26 255.692 327.251 256.028 327.232 256.364C327.213 256.7 327.185 256.98 327.148 257.204H316.06V254.656H325.048L322.78 255.524C322.78 254.404 322.575 253.545 322.164 252.948C321.772 252.351 321.156 252.052 320.316 252.052C319.719 252.052 319.205 252.192 318.776 252.472C318.365 252.752 318.048 253.191 317.824 253.788C317.619 254.385 317.516 255.151 317.516 256.084C317.516 256.999 317.637 257.745 317.88 258.324C318.123 258.884 318.468 259.295 318.916 259.556C319.364 259.799 319.905 259.92 320.54 259.92C321.249 259.92 321.809 259.78 322.22 259.5C322.649 259.22 322.967 258.828 323.172 258.324L326.98 259.584C326.719 260.387 326.261 261.068 325.608 261.628C324.973 262.169 324.208 262.58 323.312 262.86C322.435 263.14 321.511 263.28 320.54 263.28Z" fill="white"/>
<rect x="282" y="188.385" width="20" height="20" transform="rotate(-45 282 188.385)" fill="#6D6D6D"/>
<rect x="247" y="146" width="98" height="43" rx="7" fill="#6D6D6D"/>
<path d="M277.836 167.68H274.953L274.938 166.469H277.555C277.987 166.469 278.365 166.396 278.688 166.25C279.01 166.104 279.26 165.896 279.438 165.625C279.62 165.349 279.711 165.021 279.711 164.641C279.711 164.224 279.63 163.885 279.469 163.625C279.312 163.359 279.07 163.167 278.742 163.047C278.419 162.922 278.008 162.859 277.508 162.859H275.289V173H273.781V161.625H277.508C278.091 161.625 278.612 161.685 279.07 161.805C279.529 161.919 279.917 162.102 280.234 162.352C280.557 162.596 280.802 162.909 280.969 163.289C281.135 163.669 281.219 164.125 281.219 164.656C281.219 165.125 281.099 165.549 280.859 165.93C280.62 166.305 280.286 166.612 279.859 166.852C279.438 167.091 278.943 167.245 278.375 167.312L277.836 167.68ZM277.766 173H274.359L275.211 171.773H277.766C278.245 171.773 278.651 171.69 278.984 171.523C279.323 171.357 279.581 171.122 279.758 170.82C279.935 170.513 280.023 170.151 280.023 169.734C280.023 169.312 279.948 168.948 279.797 168.641C279.646 168.333 279.409 168.096 279.086 167.93C278.763 167.763 278.346 167.68 277.836 167.68H275.688L275.703 166.469H278.641L278.961 166.906C279.508 166.953 279.971 167.109 280.352 167.375C280.732 167.635 281.021 167.969 281.219 168.375C281.422 168.781 281.523 169.229 281.523 169.719C281.523 170.427 281.367 171.026 281.055 171.516C280.747 172 280.312 172.37 279.75 172.625C279.188 172.875 278.526 173 277.766 173ZM288.703 171.047V164.547H290.156V173H288.773L288.703 171.047ZM288.977 169.266L289.578 169.25C289.578 169.812 289.518 170.333 289.398 170.812C289.284 171.286 289.096 171.698 288.836 172.047C288.576 172.396 288.234 172.669 287.812 172.867C287.391 173.06 286.878 173.156 286.273 173.156C285.862 173.156 285.484 173.096 285.141 172.977C284.802 172.857 284.51 172.672 284.266 172.422C284.021 172.172 283.831 171.846 283.695 171.445C283.565 171.044 283.5 170.562 283.5 170V164.547H284.945V170.016C284.945 170.396 284.987 170.711 285.07 170.961C285.159 171.206 285.276 171.401 285.422 171.547C285.573 171.688 285.74 171.786 285.922 171.844C286.109 171.901 286.302 171.93 286.5 171.93C287.115 171.93 287.602 171.812 287.961 171.578C288.32 171.339 288.578 171.018 288.734 170.617C288.896 170.211 288.977 169.76 288.977 169.266ZM295.898 164.547V165.656H291.328V164.547H295.898ZM292.875 162.492H294.32V170.906C294.32 171.193 294.365 171.409 294.453 171.555C294.542 171.701 294.656 171.797 294.797 171.844C294.938 171.891 295.089 171.914 295.25 171.914C295.37 171.914 295.495 171.904 295.625 171.883C295.76 171.857 295.862 171.836 295.93 171.82L295.938 173C295.823 173.036 295.672 173.07 295.484 173.102C295.302 173.138 295.081 173.156 294.82 173.156C294.466 173.156 294.141 173.086 293.844 172.945C293.547 172.805 293.31 172.57 293.133 172.242C292.961 171.909 292.875 171.461 292.875 170.898V162.492ZM301.133 164.547V165.656H296.562V164.547H301.133ZM298.109 162.492H299.555V170.906C299.555 171.193 299.599 171.409 299.688 171.555C299.776 171.701 299.891 171.797 300.031 171.844C300.172 171.891 300.323 171.914 300.484 171.914C300.604 171.914 300.729 171.904 300.859 171.883C300.995 171.857 301.096 171.836 301.164 171.82L301.172 173C301.057 173.036 300.906 173.07 300.719 173.102C300.536 173.138 300.315 173.156 300.055 173.156C299.701 173.156 299.375 173.086 299.078 172.945C298.781 172.805 298.544 172.57 298.367 172.242C298.195 171.909 298.109 171.461 298.109 170.898V162.492ZM302.289 168.867V168.688C302.289 168.078 302.378 167.513 302.555 166.992C302.732 166.466 302.987 166.01 303.32 165.625C303.654 165.234 304.057 164.932 304.531 164.719C305.005 164.5 305.536 164.391 306.125 164.391C306.719 164.391 307.253 164.5 307.727 164.719C308.206 164.932 308.612 165.234 308.945 165.625C309.284 166.01 309.542 166.466 309.719 166.992C309.896 167.513 309.984 168.078 309.984 168.688V168.867C309.984 169.477 309.896 170.042 309.719 170.562C309.542 171.083 309.284 171.539 308.945 171.93C308.612 172.315 308.208 172.617 307.734 172.836C307.266 173.049 306.734 173.156 306.141 173.156C305.547 173.156 305.013 173.049 304.539 172.836C304.065 172.617 303.659 172.315 303.32 171.93C302.987 171.539 302.732 171.083 302.555 170.562C302.378 170.042 302.289 169.477 302.289 168.867ZM303.734 168.688V168.867C303.734 169.289 303.784 169.688 303.883 170.062C303.982 170.432 304.13 170.76 304.328 171.047C304.531 171.333 304.784 171.56 305.086 171.727C305.388 171.888 305.74 171.969 306.141 171.969C306.536 171.969 306.883 171.888 307.18 171.727C307.482 171.56 307.732 171.333 307.93 171.047C308.128 170.76 308.276 170.432 308.375 170.062C308.479 169.688 308.531 169.289 308.531 168.867V168.688C308.531 168.271 308.479 167.878 308.375 167.508C308.276 167.133 308.125 166.802 307.922 166.516C307.724 166.224 307.474 165.995 307.172 165.828C306.875 165.661 306.526 165.578 306.125 165.578C305.729 165.578 305.38 165.661 305.078 165.828C304.781 165.995 304.531 166.224 304.328 166.516C304.13 166.802 303.982 167.133 303.883 167.508C303.784 167.878 303.734 168.271 303.734 168.688ZM313.242 166.352V173H311.797V164.547H313.164L313.242 166.352ZM312.898 168.453L312.297 168.43C312.302 167.852 312.388 167.318 312.555 166.828C312.721 166.333 312.956 165.904 313.258 165.539C313.56 165.174 313.919 164.893 314.336 164.695C314.758 164.492 315.224 164.391 315.734 164.391C316.151 164.391 316.526 164.448 316.859 164.562C317.193 164.672 317.477 164.849 317.711 165.094C317.951 165.339 318.133 165.656 318.258 166.047C318.383 166.432 318.445 166.904 318.445 167.461V173H316.992V167.445C316.992 167.003 316.927 166.648 316.797 166.383C316.667 166.112 316.477 165.917 316.227 165.797C315.977 165.672 315.669 165.609 315.305 165.609C314.945 165.609 314.617 165.685 314.32 165.836C314.029 165.987 313.776 166.195 313.562 166.461C313.354 166.727 313.19 167.031 313.07 167.375C312.956 167.714 312.898 168.073 312.898 168.453Z" fill="white"/>
<rect x="194.375" y="215.375" width="203.25" height="76.25" stroke="#9746FF" stroke-width="0.75"/>
<rect x="191.375" y="212.375" width="5.25" height="5.25" fill="white" stroke="#9746FF" stroke-width="0.75"/>
<path d="M210.266 205.243H210.993V210.422L210.93 211.243H210.266V205.243ZM213.848 209.094V209.176C213.848 209.484 213.812 209.769 213.739 210.032C213.666 210.292 213.559 210.519 213.418 210.711C213.278 210.904 213.106 211.054 212.903 211.161C212.7 211.267 212.467 211.321 212.204 211.321C211.935 211.321 211.7 211.275 211.497 211.184C211.296 211.09 211.127 210.956 210.989 210.782C210.851 210.607 210.74 210.396 210.657 210.149C210.576 209.902 210.52 209.623 210.489 209.313V208.954C210.52 208.641 210.576 208.361 210.657 208.114C210.74 207.866 210.851 207.655 210.989 207.481C211.127 207.304 211.296 207.17 211.497 207.079C211.697 206.985 211.93 206.938 212.196 206.938C212.461 206.938 212.697 206.99 212.903 207.094C213.109 207.196 213.28 207.342 213.418 207.532C213.559 207.722 213.666 207.95 213.739 208.215C213.812 208.478 213.848 208.771 213.848 209.094ZM213.122 209.176V209.094C213.122 208.883 213.102 208.685 213.063 208.5C213.024 208.313 212.961 208.149 212.875 208.008C212.79 207.865 212.676 207.753 212.536 207.672C212.395 207.589 212.222 207.547 212.016 207.547C211.834 207.547 211.675 207.579 211.54 207.641C211.407 207.704 211.293 207.788 211.2 207.895C211.106 207.999 211.029 208.119 210.969 208.254C210.912 208.387 210.869 208.525 210.84 208.668V209.61C210.882 209.792 210.95 209.968 211.043 210.137C211.14 210.304 211.267 210.441 211.426 210.547C211.588 210.654 211.787 210.708 212.024 210.708C212.219 210.708 212.386 210.668 212.524 210.59C212.665 210.51 212.778 210.399 212.864 210.258C212.952 210.118 213.017 209.955 213.059 209.77C213.101 209.585 213.122 209.387 213.122 209.176ZM217.348 210.266V207.016H218.075V211.243H217.383L217.348 210.266ZM217.485 209.375L217.786 209.368C217.786 209.649 217.756 209.909 217.696 210.149C217.639 210.386 217.545 210.592 217.415 210.766C217.284 210.941 217.114 211.077 216.903 211.176C216.692 211.273 216.435 211.321 216.133 211.321C215.928 211.321 215.739 211.291 215.567 211.231C215.398 211.171 215.252 211.079 215.129 210.954C215.007 210.829 214.912 210.666 214.844 210.465C214.779 210.265 214.747 210.024 214.747 209.743V207.016H215.469V209.75C215.469 209.941 215.49 210.098 215.532 210.223C215.576 210.346 215.635 210.443 215.708 210.516C215.783 210.586 215.866 210.636 215.958 210.665C216.051 210.693 216.148 210.708 216.247 210.708C216.554 210.708 216.797 210.649 216.977 210.532C217.157 210.412 217.286 210.252 217.364 210.051C217.444 209.848 217.485 209.623 217.485 209.375ZM220.946 207.016V207.571H218.661V207.016H220.946ZM219.434 205.989H220.157V210.196C220.157 210.339 220.179 210.447 220.223 210.52C220.267 210.593 220.325 210.641 220.395 210.665C220.465 210.688 220.541 210.7 220.622 210.7C220.681 210.7 220.744 210.694 220.809 210.684C220.877 210.671 220.928 210.661 220.961 210.653L220.965 211.243C220.908 211.261 220.833 211.278 220.739 211.293C220.648 211.312 220.537 211.321 220.407 211.321C220.23 211.321 220.067 211.286 219.918 211.215C219.77 211.145 219.652 211.028 219.563 210.864C219.477 210.697 219.434 210.473 219.434 210.192V205.989ZM223.563 207.016V207.571H221.278V207.016H223.563ZM222.051 205.989H222.774V210.196C222.774 210.339 222.796 210.447 222.84 210.52C222.885 210.593 222.942 210.641 223.012 210.665C223.083 210.688 223.158 210.7 223.239 210.7C223.299 210.7 223.361 210.694 223.426 210.684C223.494 210.671 223.545 210.661 223.579 210.653L223.583 211.243C223.525 211.261 223.45 211.278 223.356 211.293C223.265 211.312 223.154 211.321 223.024 211.321C222.847 211.321 222.684 211.286 222.536 211.215C222.387 211.145 222.269 211.028 222.18 210.864C222.094 210.697 222.051 210.473 222.051 210.192V205.989ZM224.141 209.176V209.086C224.141 208.782 224.185 208.499 224.274 208.239C224.362 207.976 224.49 207.748 224.657 207.555C224.823 207.36 225.025 207.209 225.262 207.102C225.499 206.993 225.765 206.938 226.059 206.938C226.356 206.938 226.623 206.993 226.86 207.102C227.099 207.209 227.303 207.36 227.469 207.555C227.639 207.748 227.767 207.976 227.856 208.239C227.944 208.499 227.989 208.782 227.989 209.086V209.176C227.989 209.481 227.944 209.764 227.856 210.024C227.767 210.284 227.639 210.512 227.469 210.708C227.303 210.9 227.101 211.051 226.864 211.161C226.629 211.267 226.364 211.321 226.067 211.321C225.77 211.321 225.503 211.267 225.266 211.161C225.029 211.051 224.826 210.9 224.657 210.708C224.49 210.512 224.362 210.284 224.274 210.024C224.185 209.764 224.141 209.481 224.141 209.176ZM224.864 209.086V209.176C224.864 209.387 224.889 209.586 224.938 209.774C224.987 209.959 225.062 210.123 225.161 210.266C225.262 210.409 225.389 210.523 225.54 210.606C225.691 210.687 225.866 210.727 226.067 210.727C226.265 210.727 226.438 210.687 226.586 210.606C226.737 210.523 226.862 210.409 226.961 210.266C227.06 210.123 227.135 209.959 227.184 209.774C227.236 209.586 227.262 209.387 227.262 209.176V209.086C227.262 208.878 227.236 208.681 227.184 208.497C227.135 208.309 227.059 208.144 226.958 208C226.859 207.855 226.734 207.74 226.583 207.657C226.434 207.573 226.26 207.532 226.059 207.532C225.861 207.532 225.687 207.573 225.536 207.657C225.387 207.74 225.262 207.855 225.161 208C225.062 208.144 224.987 208.309 224.938 208.497C224.889 208.681 224.864 208.878 224.864 209.086ZM229.618 207.918V211.243H228.895V207.016H229.579L229.618 207.918ZM229.446 208.969L229.145 208.958C229.148 208.668 229.191 208.402 229.274 208.157C229.357 207.909 229.474 207.694 229.625 207.512C229.777 207.33 229.956 207.189 230.165 207.09C230.375 206.989 230.609 206.938 230.864 206.938C231.072 206.938 231.26 206.967 231.426 207.024C231.593 207.079 231.735 207.167 231.852 207.29C231.972 207.412 232.063 207.571 232.125 207.766C232.188 207.959 232.219 208.194 232.219 208.473V211.243H231.493V208.465C231.493 208.244 231.46 208.067 231.395 207.934C231.33 207.799 231.235 207.701 231.11 207.641C230.985 207.579 230.831 207.547 230.649 207.547C230.469 207.547 230.305 207.585 230.157 207.661C230.011 207.736 229.885 207.84 229.778 207.973C229.674 208.106 229.592 208.258 229.532 208.43C229.474 208.599 229.446 208.779 229.446 208.969Z" fill="#9746FF"/>
<rect x="199.707" y="208.243" width="5" height="5" transform="rotate(-45 199.707 208.243)" fill="white" stroke="#9746FF"/>
<rect x="191.375" y="289.375" width="5.25" height="5.25" fill="white" stroke="#9746FF" stroke-width="0.75"/>
<rect x="395.375" y="212.375" width="5.25" height="5.25" fill="white" stroke="#9746FF" stroke-width="0.75"/>
<rect x="395.375" y="289.375" width="5.25" height="5.25" fill="white" stroke="#9746FF" stroke-width="0.75"/>
</svg>
