<svg width="350" height="307" viewBox="0 0 350 307" fill="none" xmlns="http://www.w3.org/2000/svg">
<g clip-path="url(#clip0_40_2)">
<rect x="0.5" y="18.5" width="349" height="288" fill="#FBFBFB" stroke="#E5E5E5"/>
<path d="M6.38477 8.28711H7.50977C7.45117 8.82617 7.29688 9.30859 7.04688 9.73438C6.79688 10.1602 6.44336 10.498 5.98633 10.748C5.5293 10.9941 4.95898 11.1172 4.27539 11.1172C3.77539 11.1172 3.32031 11.0234 2.91016 10.8359C2.50391 10.6484 2.1543 10.3828 1.86133 10.0391C1.56836 9.69141 1.3418 9.27539 1.18164 8.79102C1.02539 8.30273 0.947266 7.75977 0.947266 7.16211V6.3125C0.947266 5.71484 1.02539 5.17383 1.18164 4.68945C1.3418 4.20117 1.57031 3.7832 1.86719 3.43555C2.16797 3.08789 2.5293 2.82031 2.95117 2.63281C3.37305 2.44531 3.84766 2.35156 4.375 2.35156C5.01953 2.35156 5.56445 2.47266 6.00977 2.71484C6.45508 2.95703 6.80078 3.29297 7.04688 3.72266C7.29688 4.14844 7.45117 4.64258 7.50977 5.20508H6.38477C6.33008 4.80664 6.22852 4.46484 6.08008 4.17969C5.93164 3.89063 5.7207 3.66797 5.44727 3.51172C5.17383 3.35547 4.81641 3.27734 4.375 3.27734C3.99609 3.27734 3.66211 3.34961 3.37305 3.49414C3.08789 3.63867 2.84766 3.84375 2.65234 4.10938C2.46094 4.375 2.31641 4.69336 2.21875 5.06445C2.12109 5.43555 2.07227 5.84766 2.07227 6.30078V7.16211C2.07227 7.58008 2.11523 7.97266 2.20117 8.33984C2.29102 8.70703 2.42578 9.0293 2.60547 9.30664C2.78516 9.58398 3.01367 9.80273 3.29102 9.96289C3.56836 10.1191 3.89648 10.1973 4.27539 10.1973C4.75586 10.1973 5.13867 10.1211 5.42383 9.96875C5.70898 9.81641 5.92383 9.59766 6.06836 9.3125C6.2168 9.02734 6.32227 8.68555 6.38477 8.28711ZM8.59961 7.90039V7.76562C8.59961 7.30859 8.66602 6.88477 8.79883 6.49414C8.93164 6.09961 9.12305 5.75781 9.37305 5.46875C9.62305 5.17578 9.92578 4.94922 10.2812 4.78906C10.6367 4.625 11.0352 4.54297 11.4766 4.54297C11.9219 4.54297 12.3223 4.625 12.6777 4.78906C13.0371 4.94922 13.3418 5.17578 13.5918 5.46875C13.8457 5.75781 14.0391 6.09961 14.1719 6.49414C14.3047 6.88477 14.3711 7.30859 14.3711 7.76562V7.90039C14.3711 8.35742 14.3047 8.78125 14.1719 9.17188C14.0391 9.5625 13.8457 9.9043 13.5918 10.1973C13.3418 10.4863 13.0391 10.7129 12.6836 10.877C12.332 11.0371 11.9336 11.1172 11.4883 11.1172C11.043 11.1172 10.6426 11.0371 10.2871 10.877C9.93164 10.7129 9.62695 10.4863 9.37305 10.1973C9.12305 9.9043 8.93164 9.5625 8.79883 9.17188C8.66602 8.78125 8.59961 8.35742 8.59961 7.90039ZM9.68359 7.76562V7.90039C9.68359 8.2168 9.7207 8.51562 9.79492 8.79688C9.86914 9.07422 9.98047 9.32031 10.1289 9.53516C10.2812 9.75 10.4707 9.91992 10.6973 10.0449C10.9238 10.166 11.1875 10.2266 11.4883 10.2266C11.7852 10.2266 12.0449 10.166 12.2676 10.0449C12.4941 9.91992 12.6816 9.75 12.8301 9.53516C12.9785 9.32031 13.0898 9.07422 13.1641 8.79688C13.2422 8.51562 13.2812 8.2168 13.2812 7.90039V7.76562C13.2812 7.45312 13.2422 7.1582 13.1641 6.88086C13.0898 6.59961 12.9766 6.35156 12.8242 6.13672C12.6758 5.91797 12.4883 5.74609 12.2617 5.62109C12.0391 5.49609 11.7773 5.43359 11.4766 5.43359C11.1797 5.43359 10.918 5.49609 10.6914 5.62109C10.4688 5.74609 10.2812 5.91797 10.1289 6.13672C9.98047 6.35156 9.86914 6.59961 9.79492 6.88086C9.7207 7.1582 9.68359 7.45312 9.68359 7.76562ZM16.8086 5.91992V11H15.7188V4.66016H16.75L16.8086 5.91992ZM16.5859 7.58984L16.082 7.57227C16.0859 7.13867 16.1426 6.73828 16.252 6.37109C16.3613 6 16.5234 5.67773 16.7383 5.4043C16.9531 5.13086 17.2207 4.91992 17.541 4.77148C17.8613 4.61914 18.2324 4.54297 18.6543 4.54297C18.9512 4.54297 19.2246 4.58594 19.4746 4.67188C19.7246 4.75391 19.9414 4.88477 20.125 5.06445C20.3086 5.24414 20.4512 5.47461 20.5527 5.75586C20.6543 6.03711 20.7051 6.37695 20.7051 6.77539V11H19.6211V6.82812C19.6211 6.49609 19.5645 6.23047 19.4512 6.03125C19.3418 5.83203 19.1855 5.6875 18.9824 5.59766C18.7793 5.50391 18.541 5.45703 18.2676 5.45703C17.9473 5.45703 17.6797 5.51367 17.4648 5.62695C17.25 5.74023 17.0781 5.89648 16.9492 6.0957C16.8203 6.29492 16.7266 6.52344 16.668 6.78125C16.6133 7.03516 16.5859 7.30469 16.5859 7.58984ZM20.6934 6.99219L19.9668 7.21484C19.9707 6.86719 20.0273 6.5332 20.1367 6.21289C20.25 5.89258 20.4121 5.60742 20.623 5.35742C20.8379 5.10742 21.1016 4.91016 21.4141 4.76562C21.7266 4.61719 22.084 4.54297 22.4863 4.54297C22.8262 4.54297 23.127 4.58789 23.3887 4.67773C23.6543 4.76758 23.877 4.90625 24.0566 5.09375C24.2402 5.27734 24.3789 5.51367 24.4727 5.80273C24.5664 6.0918 24.6133 6.43555 24.6133 6.83398V11H23.5234V6.82227C23.5234 6.4668 23.4668 6.19141 23.3535 5.99609C23.2441 5.79688 23.0879 5.6582 22.8848 5.58008C22.6855 5.49805 22.4473 5.45703 22.1699 5.45703C21.9316 5.45703 21.7207 5.49805 21.5371 5.58008C21.3535 5.66211 21.1992 5.77539 21.0742 5.91992C20.9492 6.06055 20.8535 6.22266 20.7871 6.40625C20.7246 6.58984 20.6934 6.78516 20.6934 6.99219ZM27.3379 5.87891V13.4375H26.248V4.66016H27.2441L27.3379 5.87891ZM31.6094 7.77734V7.90039C31.6094 8.36133 31.5547 8.78906 31.4453 9.18359C31.3359 9.57422 31.1758 9.91406 30.9648 10.2031C30.7578 10.4922 30.502 10.7168 30.1973 10.877C29.8926 11.0371 29.543 11.1172 29.1484 11.1172C28.7461 11.1172 28.3906 11.0508 28.082 10.918C27.7734 10.7852 27.5117 10.5918 27.2969 10.3379C27.082 10.084 26.9102 9.7793 26.7812 9.42383C26.6562 9.06836 26.5703 8.66797 26.5234 8.22266V7.56641C26.5703 7.09766 26.6582 6.67773 26.7871 6.30664C26.916 5.93555 27.0859 5.61914 27.2969 5.35742C27.5117 5.0918 27.7715 4.89062 28.0762 4.75391C28.3809 4.61328 28.7324 4.54297 29.1309 4.54297C29.5293 4.54297 29.8828 4.62109 30.1914 4.77734C30.5 4.92969 30.7598 5.14844 30.9707 5.43359C31.1816 5.71875 31.3398 6.06055 31.4453 6.45898C31.5547 6.85352 31.6094 7.29297 31.6094 7.77734ZM30.5195 7.90039V7.77734C30.5195 7.46094 30.4863 7.16406 30.4199 6.88672C30.3535 6.60547 30.25 6.35938 30.1094 6.14844C29.9727 5.93359 29.7969 5.76562 29.582 5.64453C29.3672 5.51953 29.1113 5.45703 28.8145 5.45703C28.541 5.45703 28.3027 5.50391 28.0996 5.59766C27.9004 5.69141 27.7305 5.81836 27.5898 5.97852C27.4492 6.13477 27.334 6.31445 27.2441 6.51758C27.1582 6.7168 27.0938 6.92383 27.0508 7.13867V8.65625C27.1289 8.92969 27.2383 9.1875 27.3789 9.42969C27.5195 9.66797 27.707 9.86133 27.9414 10.0098C28.1758 10.1543 28.4707 10.2266 28.8262 10.2266C29.1191 10.2266 29.3711 10.166 29.582 10.0449C29.7969 9.91992 29.9727 9.75 30.1094 9.53516C30.25 9.32031 30.3535 9.07422 30.4199 8.79688C30.4863 8.51562 30.5195 8.2168 30.5195 7.90039ZM32.7051 7.90039V7.76562C32.7051 7.30859 32.7715 6.88477 32.9043 6.49414C33.0371 6.09961 33.2285 5.75781 33.4785 5.46875C33.7285 5.17578 34.0312 4.94922 34.3867 4.78906C34.7422 4.625 35.1406 4.54297 35.582 4.54297C36.0273 4.54297 36.4277 4.625 36.7832 4.78906C37.1426 4.94922 37.4473 5.17578 37.6973 5.46875C37.9512 5.75781 38.1445 6.09961 38.2773 6.49414C38.4102 6.88477 38.4766 7.30859 38.4766 7.76562V7.90039C38.4766 8.35742 38.4102 8.78125 38.2773 9.17188C38.1445 9.5625 37.9512 9.9043 37.6973 10.1973C37.4473 10.4863 37.1445 10.7129 36.7891 10.877C36.4375 11.0371 36.0391 11.1172 35.5938 11.1172C35.1484 11.1172 34.748 11.0371 34.3926 10.877C34.0371 10.7129 33.7324 10.4863 33.4785 10.1973C33.2285 9.9043 33.0371 9.5625 32.9043 9.17188C32.7715 8.78125 32.7051 8.35742 32.7051 7.90039ZM33.7891 7.76562V7.90039C33.7891 8.2168 33.8262 8.51562 33.9004 8.79688C33.9746 9.07422 34.0859 9.32031 34.2344 9.53516C34.3867 9.75 34.5762 9.91992 34.8027 10.0449C35.0293 10.166 35.293 10.2266 35.5938 10.2266C35.8906 10.2266 36.1504 10.166 36.373 10.0449C36.5996 9.91992 36.7871 9.75 36.9355 9.53516C37.084 9.32031 37.1953 9.07422 37.2695 8.79688C37.3477 8.51562 37.3867 8.2168 37.3867 7.90039V7.76562C37.3867 7.45312 37.3477 7.1582 37.2695 6.88086C37.1953 6.59961 37.082 6.35156 36.9297 6.13672C36.7812 5.91797 36.5938 5.74609 36.3672 5.62109C36.1445 5.49609 35.8828 5.43359 35.582 5.43359C35.2852 5.43359 35.0234 5.49609 34.7969 5.62109C34.5742 5.74609 34.3867 5.91797 34.2344 6.13672C34.0859 6.35156 33.9746 6.59961 33.9004 6.88086C33.8262 7.1582 33.7891 7.45312 33.7891 7.76562ZM40.9199 6.01367V11H39.8359V4.66016H40.8613L40.9199 6.01367ZM40.6621 7.58984L40.2109 7.57227C40.2148 7.13867 40.2793 6.73828 40.4043 6.37109C40.5293 6 40.7051 5.67773 40.9316 5.4043C41.1582 5.13086 41.4277 4.91992 41.7402 4.77148C42.0566 4.61914 42.4062 4.54297 42.7891 4.54297C43.1016 4.54297 43.3828 4.58594 43.6328 4.67188C43.8828 4.75391 44.0957 4.88672 44.2715 5.07031C44.4512 5.25391 44.5879 5.49219 44.6816 5.78516C44.7754 6.07422 44.8223 6.42773 44.8223 6.8457V11H43.7324V6.83398C43.7324 6.50195 43.6836 6.23633 43.5859 6.03711C43.4883 5.83398 43.3457 5.6875 43.1582 5.59766C42.9707 5.50391 42.7402 5.45703 42.4668 5.45703C42.1973 5.45703 41.9512 5.51367 41.7285 5.62695C41.5098 5.74023 41.3203 5.89648 41.1602 6.0957C41.0039 6.29492 40.8809 6.52344 40.791 6.78125C40.7051 7.03516 40.6621 7.30469 40.6621 7.58984ZM49.0996 11.1172C48.6582 11.1172 48.2578 11.043 47.8984 10.8945C47.543 10.7422 47.2363 10.5293 46.9785 10.2559C46.7246 9.98242 46.5293 9.6582 46.3926 9.2832C46.2559 8.9082 46.1875 8.49805 46.1875 8.05273V7.80664C46.1875 7.29102 46.2637 6.83203 46.416 6.42969C46.5684 6.02344 46.7754 5.67969 47.0371 5.39844C47.2988 5.11719 47.5957 4.9043 47.9277 4.75977C48.2598 4.61523 48.6035 4.54297 48.959 4.54297C49.4121 4.54297 49.8027 4.62109 50.1309 4.77734C50.4629 4.93359 50.7344 5.15234 50.9453 5.43359C51.1562 5.71094 51.3125 6.03906 51.4141 6.41797C51.5156 6.79297 51.5664 7.20312 51.5664 7.64844V8.13477H46.832V7.25H50.4824V7.16797C50.4668 6.88672 50.4082 6.61328 50.3066 6.34766C50.209 6.08203 50.0527 5.86328 49.8379 5.69141C49.623 5.51953 49.3301 5.43359 48.959 5.43359C48.7129 5.43359 48.4863 5.48633 48.2793 5.5918C48.0723 5.69336 47.8945 5.8457 47.7461 6.04883C47.5977 6.25195 47.4824 6.5 47.4004 6.79297C47.3184 7.08594 47.2773 7.42383 47.2773 7.80664V8.05273C47.2773 8.35352 47.3184 8.63672 47.4004 8.90234C47.4863 9.16406 47.6094 9.39453 47.7695 9.59375C47.9336 9.79297 48.1309 9.94922 48.3613 10.0625C48.5957 10.1758 48.8613 10.2324 49.1582 10.2324C49.541 10.2324 49.8652 10.1543 50.1309 9.99805C50.3965 9.8418 50.6289 9.63281 50.8281 9.37109L51.4844 9.89258C51.3477 10.0996 51.1738 10.2969 50.9629 10.4844C50.752 10.6719 50.4922 10.8242 50.1836 10.9414C49.8789 11.0586 49.5176 11.1172 49.0996 11.1172ZM53.916 6.01367V11H52.832V4.66016H53.8574L53.916 6.01367ZM53.6582 7.58984L53.207 7.57227C53.2109 7.13867 53.2754 6.73828 53.4004 6.37109C53.5254 6 53.7012 5.67773 53.9277 5.4043C54.1543 5.13086 54.4238 4.91992 54.7363 4.77148C55.0527 4.61914 55.4023 4.54297 55.7852 4.54297C56.0977 4.54297 56.3789 4.58594 56.6289 4.67188C56.8789 4.75391 57.0918 4.88672 57.2676 5.07031C57.4473 5.25391 57.584 5.49219 57.6777 5.78516C57.7715 6.07422 57.8184 6.42773 57.8184 6.8457V11H56.7285V6.83398C56.7285 6.50195 56.6797 6.23633 56.582 6.03711C56.4844 5.83398 56.3418 5.6875 56.1543 5.59766C55.9668 5.50391 55.7363 5.45703 55.4629 5.45703C55.1934 5.45703 54.9473 5.51367 54.7246 5.62695C54.5059 5.74023 54.3164 5.89648 54.1562 6.0957C54 6.29492 53.877 6.52344 53.7871 6.78125C53.7012 7.03516 53.6582 7.30469 53.6582 7.58984ZM62.1191 4.66016V5.49219H58.6914V4.66016H62.1191ZM59.8516 3.11914H60.9355V9.42969C60.9355 9.64453 60.9688 9.80664 61.0352 9.91602C61.1016 10.0254 61.1875 10.0977 61.293 10.1328C61.3984 10.168 61.5117 10.1855 61.6328 10.1855C61.7227 10.1855 61.8164 10.1777 61.9141 10.1621C62.0156 10.1426 62.0918 10.127 62.1426 10.1152L62.1484 11C62.0625 11.0273 61.9492 11.0527 61.8086 11.0762C61.6719 11.1035 61.5059 11.1172 61.3105 11.1172C61.0449 11.1172 60.8008 11.0645 60.5781 10.959C60.3555 10.8535 60.1777 10.6777 60.0449 10.4316C59.916 10.1816 59.8516 9.8457 59.8516 9.42383V3.11914ZM63.3438 10.4258C63.3438 10.2422 63.4004 10.0879 63.5137 9.96289C63.6309 9.83398 63.7988 9.76953 64.0176 9.76953C64.2363 9.76953 64.4023 9.83398 64.5156 9.96289C64.6328 10.0879 64.6914 10.2422 64.6914 10.4258C64.6914 10.6055 64.6328 10.7578 64.5156 10.8828C64.4023 11.0078 64.2363 11.0703 64.0176 11.0703C63.7988 11.0703 63.6309 11.0078 63.5137 10.8828C63.4004 10.7578 63.3438 10.6055 63.3438 10.4258ZM63.3496 5.25195C63.3496 5.06836 63.4062 4.91406 63.5195 4.78906C63.6367 4.66016 63.8047 4.5957 64.0234 4.5957C64.2422 4.5957 64.4082 4.66016 64.5215 4.78906C64.6387 4.91406 64.6973 5.06836 64.6973 5.25195C64.6973 5.43164 64.6387 5.58398 64.5215 5.70898C64.4082 5.83398 64.2422 5.89648 64.0234 5.89648C63.8047 5.89648 63.6367 5.83398 63.5195 5.70898C63.4062 5.58398 63.3496 5.43164 63.3496 5.25195ZM72.4785 7.00977H70.3164L70.3047 6.10156H72.2676C72.5918 6.10156 72.875 6.04688 73.1172 5.9375C73.3594 5.82812 73.5469 5.67188 73.6797 5.46875C73.8164 5.26172 73.8848 5.01562 73.8848 4.73047C73.8848 4.41797 73.8242 4.16406 73.7031 3.96875C73.5859 3.76953 73.4043 3.625 73.1582 3.53516C72.916 3.44141 72.6074 3.39453 72.2324 3.39453H70.5684V11H69.4375V2.46875H72.2324C72.6699 2.46875 73.0605 2.51367 73.4043 2.60352C73.748 2.68945 74.0391 2.82617 74.2773 3.01367C74.5195 3.19727 74.7031 3.43164 74.8281 3.7168C74.9531 4.00195 75.0156 4.34375 75.0156 4.74219C75.0156 5.09375 74.9258 5.41211 74.7461 5.69727C74.5664 5.97852 74.3164 6.20898 73.9961 6.38867C73.6797 6.56836 73.3086 6.68359 72.8828 6.73438L72.4785 7.00977ZM72.4258 11H69.8711L70.5098 10.0801H72.4258C72.7852 10.0801 73.0898 10.0176 73.3398 9.89258C73.5938 9.76758 73.7871 9.5918 73.9199 9.36523C74.0527 9.13477 74.1191 8.86328 74.1191 8.55078C74.1191 8.23438 74.0625 7.96094 73.9492 7.73047C73.8359 7.5 73.6582 7.32227 73.416 7.19727C73.1738 7.07227 72.8613 7.00977 72.4785 7.00977H70.8672L70.8789 6.10156H73.082L73.3223 6.42969C73.7324 6.46484 74.0801 6.58203 74.3652 6.78125C74.6504 6.97656 74.8672 7.22656 75.0156 7.53125C75.168 7.83594 75.2441 8.17188 75.2441 8.53906C75.2441 9.07031 75.127 9.51953 74.8926 9.88672C74.6621 10.25 74.3359 10.5273 73.9141 10.7188C73.4922 10.9062 72.9961 11 72.4258 11ZM80.6289 9.53516V4.66016H81.7188V11H80.6816L80.6289 9.53516ZM80.834 8.19922L81.2852 8.1875C81.2852 8.60938 81.2402 9 81.1504 9.35938C81.0645 9.71484 80.9238 10.0234 80.7285 10.2852C80.5332 10.5469 80.2773 10.752 79.9609 10.9004C79.6445 11.0449 79.2598 11.1172 78.8066 11.1172C78.498 11.1172 78.2148 11.0723 77.957 10.9824C77.7031 10.8926 77.4844 10.7539 77.3008 10.5664C77.1172 10.3789 76.9746 10.1348 76.873 9.83398C76.7754 9.5332 76.7266 9.17188 76.7266 8.75V4.66016H77.8105V8.76172C77.8105 9.04688 77.8418 9.2832 77.9043 9.4707C77.9707 9.6543 78.0586 9.80078 78.168 9.91016C78.2812 10.0156 78.4062 10.0898 78.543 10.1328C78.6836 10.1758 78.8281 10.1973 78.9766 10.1973C79.4375 10.1973 79.8027 10.1094 80.0723 9.93359C80.3418 9.75391 80.5352 9.51367 80.6523 9.21289C80.7734 8.9082 80.834 8.57031 80.834 8.19922ZM86.0254 4.66016V5.49219H82.5977V4.66016H86.0254ZM83.7578 3.11914H84.8418V9.42969C84.8418 9.64453 84.875 9.80664 84.9414 9.91602C85.0078 10.0254 85.0938 10.0977 85.1992 10.1328C85.3047 10.168 85.418 10.1855 85.5391 10.1855C85.6289 10.1855 85.7227 10.1777 85.8203 10.1621C85.9219 10.1426 85.998 10.127 86.0488 10.1152L86.0547 11C85.9688 11.0273 85.8555 11.0527 85.7148 11.0762C85.5781 11.1035 85.4121 11.1172 85.2168 11.1172C84.9512 11.1172 84.707 11.0645 84.4844 10.959C84.2617 10.8535 84.084 10.6777 83.9512 10.4316C83.8223 10.1816 83.7578 9.8457 83.7578 9.42383V3.11914ZM89.9512 4.66016V5.49219H86.5234V4.66016H89.9512ZM87.6836 3.11914H88.7676V9.42969C88.7676 9.64453 88.8008 9.80664 88.8672 9.91602C88.9336 10.0254 89.0195 10.0977 89.125 10.1328C89.2305 10.168 89.3438 10.1855 89.4648 10.1855C89.5547 10.1855 89.6484 10.1777 89.7461 10.1621C89.8477 10.1426 89.9238 10.127 89.9746 10.1152L89.9805 11C89.8945 11.0273 89.7812 11.0527 89.6406 11.0762C89.5039 11.1035 89.3379 11.1172 89.1426 11.1172C88.877 11.1172 88.6328 11.0645 88.4102 10.959C88.1875 10.8535 88.0098 10.6777 87.877 10.4316C87.748 10.1816 87.6836 9.8457 87.6836 9.42383V3.11914ZM90.8184 7.90039V7.76562C90.8184 7.30859 90.8848 6.88477 91.0176 6.49414C91.1504 6.09961 91.3418 5.75781 91.5918 5.46875C91.8418 5.17578 92.1445 4.94922 92.5 4.78906C92.8555 4.625 93.2539 4.54297 93.6953 4.54297C94.1406 4.54297 94.541 4.625 94.8965 4.78906C95.2559 4.94922 95.5605 5.17578 95.8105 5.46875C96.0645 5.75781 96.2578 6.09961 96.3906 6.49414C96.5234 6.88477 96.5898 7.30859 96.5898 7.76562V7.90039C96.5898 8.35742 96.5234 8.78125 96.3906 9.17188C96.2578 9.5625 96.0645 9.9043 95.8105 10.1973C95.5605 10.4863 95.2578 10.7129 94.9023 10.877C94.5508 11.0371 94.1523 11.1172 93.707 11.1172C93.2617 11.1172 92.8613 11.0371 92.5059 10.877C92.1504 10.7129 91.8457 10.4863 91.5918 10.1973C91.3418 9.9043 91.1504 9.5625 91.0176 9.17188C90.8848 8.78125 90.8184 8.35742 90.8184 7.90039ZM91.9023 7.76562V7.90039C91.9023 8.2168 91.9395 8.51562 92.0137 8.79688C92.0879 9.07422 92.1992 9.32031 92.3477 9.53516C92.5 9.75 92.6895 9.91992 92.916 10.0449C93.1426 10.166 93.4062 10.2266 93.707 10.2266C94.0039 10.2266 94.2637 10.166 94.4863 10.0449C94.7129 9.91992 94.9004 9.75 95.0488 9.53516C95.1973 9.32031 95.3086 9.07422 95.3828 8.79688C95.4609 8.51562 95.5 8.2168 95.5 7.90039V7.76562C95.5 7.45312 95.4609 7.1582 95.3828 6.88086C95.3086 6.59961 95.1953 6.35156 95.043 6.13672C94.8945 5.91797 94.707 5.74609 94.4805 5.62109C94.2578 5.49609 93.9961 5.43359 93.6953 5.43359C93.3984 5.43359 93.1367 5.49609 92.9102 5.62109C92.6875 5.74609 92.5 5.91797 92.3477 6.13672C92.1992 6.35156 92.0879 6.59961 92.0137 6.88086C91.9395 7.1582 91.9023 7.45312 91.9023 7.76562ZM99.0332 6.01367V11H97.9492V4.66016H98.9746L99.0332 6.01367ZM98.7754 7.58984L98.3242 7.57227C98.3281 7.13867 98.3926 6.73828 98.5176 6.37109C98.6426 6 98.8184 5.67773 99.0449 5.4043C99.2715 5.13086 99.541 4.91992 99.8535 4.77148C100.17 4.61914 100.52 4.54297 100.902 4.54297C101.215 4.54297 101.496 4.58594 101.746 4.67188C101.996 4.75391 102.209 4.88672 102.385 5.07031C102.564 5.25391 102.701 5.49219 102.795 5.78516C102.889 6.07422 102.936 6.42773 102.936 6.8457V11H101.846V6.83398C101.846 6.50195 101.797 6.23633 101.699 6.03711C101.602 5.83398 101.459 5.6875 101.271 5.59766C101.084 5.50391 100.854 5.45703 100.58 5.45703C100.311 5.45703 100.064 5.51367 99.8418 5.62695C99.623 5.74023 99.4336 5.89648 99.2734 6.0957C99.1172 6.29492 98.9941 6.52344 98.9043 6.78125C98.8184 7.03516 98.7754 7.30469 98.7754 7.58984Z" fill="#858585"/>
<rect x="65" y="159" width="200" height="73" rx="36.5" fill="#3465FF"/>
<path d="M141.268 186.24C142.985 186.24 144.497 186.511 145.804 187.052C147.129 187.575 148.277 188.349 149.248 189.376L146.924 192.484C146.121 191.644 145.253 191.019 144.32 190.608C143.405 190.179 142.36 189.964 141.184 189.964C140.493 189.964 139.933 190.039 139.504 190.188C139.075 190.337 138.767 190.543 138.58 190.804C138.393 191.065 138.3 191.364 138.3 191.7C138.3 192.092 138.477 192.428 138.832 192.708C139.205 192.969 139.803 193.193 140.624 193.38L143.732 194.08C145.58 194.509 146.933 195.135 147.792 195.956C148.651 196.777 149.08 197.869 149.08 199.232C149.08 200.539 148.744 201.649 148.072 202.564C147.4 203.46 146.476 204.141 145.3 204.608C144.124 205.056 142.78 205.28 141.268 205.28C140.036 205.28 138.86 205.149 137.74 204.888C136.62 204.608 135.612 204.216 134.716 203.712C133.82 203.208 133.064 202.629 132.448 201.976L134.772 198.756C135.239 199.297 135.808 199.783 136.48 200.212C137.171 200.623 137.917 200.949 138.72 201.192C139.541 201.435 140.372 201.556 141.212 201.556C141.865 201.556 142.407 201.491 142.836 201.36C143.284 201.229 143.611 201.033 143.816 200.772C144.021 200.511 144.124 200.203 144.124 199.848C144.124 199.456 143.984 199.129 143.704 198.868C143.424 198.588 142.892 198.355 142.108 198.168L138.692 197.412C137.647 197.169 136.713 196.852 135.892 196.46C135.089 196.049 134.455 195.508 133.988 194.836C133.521 194.145 133.288 193.287 133.288 192.26C133.288 191.103 133.605 190.076 134.24 189.18C134.875 188.265 135.789 187.547 136.984 187.024C138.179 186.501 139.607 186.24 141.268 186.24ZM159.458 196.124C159.458 195.471 159.271 194.957 158.898 194.584C158.543 194.192 158.058 193.996 157.442 193.996C156.826 193.996 156.294 194.155 155.846 194.472C155.416 194.771 155.118 195.312 154.95 196.096L150.918 195.144C151.179 193.8 151.87 192.727 152.99 191.924C154.11 191.121 155.687 190.72 157.722 190.72C159.084 190.72 160.242 190.925 161.194 191.336C162.164 191.728 162.902 192.325 163.406 193.128C163.928 193.912 164.19 194.883 164.19 196.04V201.164C164.19 201.892 164.516 202.256 165.17 202.256C165.506 202.256 165.776 202.219 165.982 202.144L165.702 204.86C165.142 205.121 164.46 205.252 163.658 205.252C162.93 205.252 162.286 205.14 161.726 204.916C161.166 204.673 160.727 204.319 160.41 203.852C160.092 203.367 159.934 202.76 159.934 202.032V201.864L160.466 201.668C160.466 202.471 160.223 203.143 159.738 203.684C159.271 204.225 158.655 204.627 157.89 204.888C157.143 205.149 156.359 205.28 155.538 205.28C154.586 205.28 153.755 205.131 153.046 204.832C152.336 204.533 151.786 204.104 151.394 203.544C151.02 202.965 150.834 202.256 150.834 201.416C150.834 200.408 151.132 199.577 151.73 198.924C152.346 198.252 153.307 197.785 154.614 197.524L159.906 196.432L159.878 198.952L157.19 199.512C156.63 199.624 156.21 199.792 155.93 200.016C155.668 200.221 155.538 200.539 155.538 200.968C155.538 201.379 155.687 201.687 155.986 201.892C156.284 202.097 156.639 202.2 157.05 202.2C157.367 202.2 157.666 202.153 157.946 202.06C158.244 201.967 158.506 201.827 158.73 201.64C158.954 201.435 159.131 201.183 159.262 200.884C159.392 200.585 159.458 200.231 159.458 199.82V196.124ZM176.359 191H181.287L176.247 205H170.563L165.523 191H170.535L173.419 201.668L176.359 191ZM189.54 205.28C187.991 205.28 186.647 204.991 185.508 204.412C184.388 203.833 183.52 203.003 182.904 201.92C182.288 200.837 181.98 199.531 181.98 198C181.98 196.469 182.288 195.163 182.904 194.08C183.52 192.997 184.379 192.167 185.48 191.588C186.6 191.009 187.879 190.72 189.316 190.72C190.791 190.72 192.041 191.009 193.068 191.588C194.113 192.148 194.907 192.932 195.448 193.94C195.989 194.929 196.26 196.068 196.26 197.356C196.26 197.692 196.251 198.028 196.232 198.364C196.213 198.7 196.185 198.98 196.148 199.204H185.06V196.656H194.048L191.78 197.524C191.78 196.404 191.575 195.545 191.164 194.948C190.772 194.351 190.156 194.052 189.316 194.052C188.719 194.052 188.205 194.192 187.776 194.472C187.365 194.752 187.048 195.191 186.824 195.788C186.619 196.385 186.516 197.151 186.516 198.084C186.516 198.999 186.637 199.745 186.88 200.324C187.123 200.884 187.468 201.295 187.916 201.556C188.364 201.799 188.905 201.92 189.54 201.92C190.249 201.92 190.809 201.78 191.22 201.5C191.649 201.22 191.967 200.828 192.172 200.324L195.98 201.584C195.719 202.387 195.261 203.068 194.608 203.628C193.973 204.169 193.208 204.58 192.312 204.86C191.435 205.14 190.511 205.28 189.54 205.28Z" fill="white"/>
<rect x="151" y="130.385" width="20" height="20" transform="rotate(-45 151 130.385)" fill="#6D6D6D"/>
<rect x="116" y="88" width="98" height="43" rx="7" fill="#6D6D6D"/>
<path d="M146.836 109.68H143.953L143.938 108.469H146.555C146.987 108.469 147.365 108.396 147.688 108.25C148.01 108.104 148.26 107.896 148.438 107.625C148.62 107.349 148.711 107.021 148.711 106.641C148.711 106.224 148.63 105.885 148.469 105.625C148.312 105.359 148.07 105.167 147.742 105.047C147.419 104.922 147.008 104.859 146.508 104.859H144.289V115H142.781V103.625H146.508C147.091 103.625 147.612 103.685 148.07 103.805C148.529 103.919 148.917 104.102 149.234 104.352C149.557 104.596 149.802 104.909 149.969 105.289C150.135 105.669 150.219 106.125 150.219 106.656C150.219 107.125 150.099 107.549 149.859 107.93C149.62 108.305 149.286 108.612 148.859 108.852C148.438 109.091 147.943 109.245 147.375 109.312L146.836 109.68ZM146.766 115H143.359L144.211 113.773H146.766C147.245 113.773 147.651 113.69 147.984 113.523C148.323 113.357 148.581 113.122 148.758 112.82C148.935 112.513 149.023 112.151 149.023 111.734C149.023 111.312 148.948 110.948 148.797 110.641C148.646 110.333 148.409 110.096 148.086 109.93C147.763 109.763 147.346 109.68 146.836 109.68H144.688L144.703 108.469H147.641L147.961 108.906C148.508 108.953 148.971 109.109 149.352 109.375C149.732 109.635 150.021 109.969 150.219 110.375C150.422 110.781 150.523 111.229 150.523 111.719C150.523 112.427 150.367 113.026 150.055 113.516C149.747 114 149.312 114.37 148.75 114.625C148.188 114.875 147.526 115 146.766 115ZM157.703 113.047V106.547H159.156V115H157.773L157.703 113.047ZM157.977 111.266L158.578 111.25C158.578 111.812 158.518 112.333 158.398 112.812C158.284 113.286 158.096 113.698 157.836 114.047C157.576 114.396 157.234 114.669 156.812 114.867C156.391 115.06 155.878 115.156 155.273 115.156C154.862 115.156 154.484 115.096 154.141 114.977C153.802 114.857 153.51 114.672 153.266 114.422C153.021 114.172 152.831 113.846 152.695 113.445C152.565 113.044 152.5 112.562 152.5 112V106.547H153.945V112.016C153.945 112.396 153.987 112.711 154.07 112.961C154.159 113.206 154.276 113.401 154.422 113.547C154.573 113.688 154.74 113.786 154.922 113.844C155.109 113.901 155.302 113.93 155.5 113.93C156.115 113.93 156.602 113.812 156.961 113.578C157.32 113.339 157.578 113.018 157.734 112.617C157.896 112.211 157.977 111.76 157.977 111.266ZM164.898 106.547V107.656H160.328V106.547H164.898ZM161.875 104.492H163.32V112.906C163.32 113.193 163.365 113.409 163.453 113.555C163.542 113.701 163.656 113.797 163.797 113.844C163.938 113.891 164.089 113.914 164.25 113.914C164.37 113.914 164.495 113.904 164.625 113.883C164.76 113.857 164.862 113.836 164.93 113.82L164.938 115C164.823 115.036 164.672 115.07 164.484 115.102C164.302 115.138 164.081 115.156 163.82 115.156C163.466 115.156 163.141 115.086 162.844 114.945C162.547 114.805 162.31 114.57 162.133 114.242C161.961 113.909 161.875 113.461 161.875 112.898V104.492ZM170.133 106.547V107.656H165.562V106.547H170.133ZM167.109 104.492H168.555V112.906C168.555 113.193 168.599 113.409 168.688 113.555C168.776 113.701 168.891 113.797 169.031 113.844C169.172 113.891 169.323 113.914 169.484 113.914C169.604 113.914 169.729 113.904 169.859 113.883C169.995 113.857 170.096 113.836 170.164 113.82L170.172 115C170.057 115.036 169.906 115.07 169.719 115.102C169.536 115.138 169.315 115.156 169.055 115.156C168.701 115.156 168.375 115.086 168.078 114.945C167.781 114.805 167.544 114.57 167.367 114.242C167.195 113.909 167.109 113.461 167.109 112.898V104.492ZM171.289 110.867V110.688C171.289 110.078 171.378 109.513 171.555 108.992C171.732 108.466 171.987 108.01 172.32 107.625C172.654 107.234 173.057 106.932 173.531 106.719C174.005 106.5 174.536 106.391 175.125 106.391C175.719 106.391 176.253 106.5 176.727 106.719C177.206 106.932 177.612 107.234 177.945 107.625C178.284 108.01 178.542 108.466 178.719 108.992C178.896 109.513 178.984 110.078 178.984 110.688V110.867C178.984 111.477 178.896 112.042 178.719 112.562C178.542 113.083 178.284 113.539 177.945 113.93C177.612 114.315 177.208 114.617 176.734 114.836C176.266 115.049 175.734 115.156 175.141 115.156C174.547 115.156 174.013 115.049 173.539 114.836C173.065 114.617 172.659 114.315 172.32 113.93C171.987 113.539 171.732 113.083 171.555 112.562C171.378 112.042 171.289 111.477 171.289 110.867ZM172.734 110.688V110.867C172.734 111.289 172.784 111.688 172.883 112.062C172.982 112.432 173.13 112.76 173.328 113.047C173.531 113.333 173.784 113.56 174.086 113.727C174.388 113.888 174.74 113.969 175.141 113.969C175.536 113.969 175.883 113.888 176.18 113.727C176.482 113.56 176.732 113.333 176.93 113.047C177.128 112.76 177.276 112.432 177.375 112.062C177.479 111.688 177.531 111.289 177.531 110.867V110.688C177.531 110.271 177.479 109.878 177.375 109.508C177.276 109.133 177.125 108.802 176.922 108.516C176.724 108.224 176.474 107.995 176.172 107.828C175.875 107.661 175.526 107.578 175.125 107.578C174.729 107.578 174.38 107.661 174.078 107.828C173.781 107.995 173.531 108.224 173.328 108.516C173.13 108.802 172.982 109.133 172.883 109.508C172.784 109.878 172.734 110.271 172.734 110.688ZM182.242 108.352V115H180.797V106.547H182.164L182.242 108.352ZM181.898 110.453L181.297 110.43C181.302 109.852 181.388 109.318 181.555 108.828C181.721 108.333 181.956 107.904 182.258 107.539C182.56 107.174 182.919 106.893 183.336 106.695C183.758 106.492 184.224 106.391 184.734 106.391C185.151 106.391 185.526 106.448 185.859 106.562C186.193 106.672 186.477 106.849 186.711 107.094C186.951 107.339 187.133 107.656 187.258 108.047C187.383 108.432 187.445 108.904 187.445 109.461V115H185.992V109.445C185.992 109.003 185.927 108.648 185.797 108.383C185.667 108.112 185.477 107.917 185.227 107.797C184.977 107.672 184.669 107.609 184.305 107.609C183.945 107.609 183.617 107.685 183.32 107.836C183.029 107.987 182.776 108.195 182.562 108.461C182.354 108.727 182.19 109.031 182.07 109.375C181.956 109.714 181.898 110.073 181.898 110.453Z" fill="white"/>
<rect x="63.375" y="157.375" width="203.25" height="76.25" stroke="#9746FF" stroke-width="0.75"/>
<rect x="60.375" y="154.375" width="5.25" height="5.25" fill="white" stroke="#9746FF" stroke-width="0.75"/>
<path d="M79.2661 147.243H79.9927V152.422L79.9302 153.243H79.2661V147.243ZM82.8481 151.094V151.176C82.8481 151.484 82.8117 151.769 82.7388 152.032C82.6659 152.292 82.5591 152.519 82.4185 152.711C82.2778 152.904 82.106 153.054 81.9028 153.161C81.6997 153.267 81.4666 153.321 81.2036 153.321C80.9354 153.321 80.6997 153.275 80.4966 153.184C80.2961 153.09 80.1268 152.956 79.9888 152.782C79.8507 152.607 79.7401 152.396 79.6567 152.149C79.576 151.902 79.52 151.623 79.4888 151.313V150.954C79.52 150.641 79.576 150.361 79.6567 150.114C79.7401 149.866 79.8507 149.655 79.9888 149.481C80.1268 149.304 80.2961 149.17 80.4966 149.079C80.6971 148.985 80.9302 148.938 81.1958 148.938C81.4614 148.938 81.6971 148.99 81.9028 149.094C82.1086 149.196 82.2804 149.342 82.4185 149.532C82.5591 149.722 82.6659 149.95 82.7388 150.215C82.8117 150.478 82.8481 150.771 82.8481 151.094ZM82.1216 151.176V151.094C82.1216 150.883 82.1021 150.685 82.063 150.5C82.0239 150.313 81.9614 150.149 81.8755 150.008C81.7896 149.865 81.6763 149.753 81.5356 149.672C81.395 149.589 81.2218 149.547 81.0161 149.547C80.8338 149.547 80.675 149.579 80.5396 149.641C80.4067 149.704 80.2935 149.788 80.1997 149.895C80.106 149.999 80.0291 150.119 79.9692 150.254C79.9119 150.387 79.869 150.525 79.8403 150.668V151.61C79.882 151.792 79.9497 151.968 80.0435 152.137C80.1398 152.304 80.2674 152.441 80.4263 152.547C80.5877 152.654 80.7869 152.708 81.0239 152.708C81.2192 152.708 81.3859 152.668 81.5239 152.59C81.6646 152.51 81.7778 152.399 81.8638 152.258C81.9523 152.118 82.0174 151.955 82.0591 151.77C82.1007 151.585 82.1216 151.387 82.1216 151.176ZM86.3481 152.266V149.016H87.0747V153.243H86.3833L86.3481 152.266ZM86.4849 151.375L86.7856 151.368C86.7856 151.649 86.7557 151.909 86.6958 152.149C86.6385 152.386 86.5448 152.592 86.4146 152.766C86.2843 152.941 86.1138 153.077 85.9028 153.176C85.6919 153.273 85.4354 153.321 85.1333 153.321C84.9276 153.321 84.7388 153.291 84.5669 153.231C84.3976 153.171 84.2518 153.079 84.1294 152.954C84.007 152.829 83.9119 152.666 83.8442 152.465C83.7791 152.265 83.7466 152.024 83.7466 151.743V149.016H84.4692V151.75C84.4692 151.941 84.4901 152.098 84.5317 152.223C84.576 152.346 84.6346 152.443 84.7075 152.516C84.783 152.586 84.8664 152.636 84.9575 152.665C85.0513 152.693 85.1476 152.708 85.2466 152.708C85.5539 152.708 85.7974 152.649 85.9771 152.532C86.1567 152.412 86.2856 152.252 86.3638 152.051C86.4445 151.848 86.4849 151.623 86.4849 151.375ZM89.9458 149.016V149.571H87.6606V149.016H89.9458ZM88.4341 147.989H89.1567V152.196C89.1567 152.339 89.1789 152.447 89.2231 152.52C89.2674 152.593 89.3247 152.641 89.395 152.665C89.4653 152.688 89.5409 152.7 89.6216 152.7C89.6815 152.7 89.744 152.694 89.8091 152.684C89.8768 152.671 89.9276 152.661 89.9614 152.653L89.9653 153.243C89.908 153.261 89.8325 153.278 89.7388 153.293C89.6476 153.312 89.5369 153.321 89.4067 153.321C89.2297 153.321 89.0669 153.286 88.9185 153.215C88.77 153.145 88.6515 153.028 88.563 152.864C88.4771 152.697 88.4341 152.473 88.4341 152.192V147.989ZM92.563 149.016V149.571H90.2778V149.016H92.563ZM91.0513 147.989H91.7739V152.196C91.7739 152.339 91.7961 152.447 91.8403 152.52C91.8846 152.593 91.9419 152.641 92.0122 152.665C92.0825 152.688 92.158 152.7 92.2388 152.7C92.2987 152.7 92.3612 152.694 92.4263 152.684C92.494 152.671 92.5448 152.661 92.5786 152.653L92.5825 153.243C92.5252 153.261 92.4497 153.278 92.356 153.293C92.2648 153.312 92.1541 153.321 92.0239 153.321C91.8468 153.321 91.6841 153.286 91.5356 153.215C91.3872 153.145 91.2687 153.028 91.1802 152.864C91.0942 152.697 91.0513 152.473 91.0513 152.192V147.989ZM93.1411 151.176V151.086C93.1411 150.782 93.1854 150.499 93.2739 150.239C93.3625 149.976 93.4901 149.748 93.6567 149.555C93.8234 149.36 94.0252 149.209 94.2622 149.102C94.4992 148.993 94.7648 148.938 95.0591 148.938C95.356 148.938 95.6229 148.993 95.8599 149.102C96.0994 149.209 96.3026 149.36 96.4692 149.555C96.6385 149.748 96.7674 149.976 96.856 150.239C96.9445 150.499 96.9888 150.782 96.9888 151.086V151.176C96.9888 151.481 96.9445 151.764 96.856 152.024C96.7674 152.284 96.6385 152.512 96.4692 152.708C96.3026 152.9 96.1007 153.051 95.8638 153.161C95.6294 153.267 95.3638 153.321 95.0669 153.321C94.77 153.321 94.5031 153.267 94.2661 153.161C94.0291 153.051 93.826 152.9 93.6567 152.708C93.4901 152.512 93.3625 152.284 93.2739 152.024C93.1854 151.764 93.1411 151.481 93.1411 151.176ZM93.8638 151.086V151.176C93.8638 151.387 93.8885 151.586 93.938 151.774C93.9875 151.959 94.0617 152.123 94.1606 152.266C94.2622 152.409 94.3885 152.523 94.5396 152.606C94.6906 152.687 94.8664 152.727 95.0669 152.727C95.2648 152.727 95.438 152.687 95.5864 152.606C95.7375 152.523 95.8625 152.409 95.9614 152.266C96.0604 152.123 96.1346 151.959 96.1841 151.774C96.2362 151.586 96.2622 151.387 96.2622 151.176V151.086C96.2622 150.878 96.2362 150.681 96.1841 150.497C96.1346 150.309 96.0591 150.144 95.9575 150C95.8586 149.855 95.7336 149.74 95.5825 149.657C95.4341 149.573 95.2596 149.532 95.0591 149.532C94.8612 149.532 94.6867 149.573 94.5356 149.657C94.3872 149.74 94.2622 149.855 94.1606 150C94.0617 150.144 93.9875 150.309 93.938 150.497C93.8885 150.681 93.8638 150.878 93.8638 151.086ZM98.6177 149.918V153.243H97.895V149.016H98.5786L98.6177 149.918ZM98.4458 150.969L98.145 150.958C98.1476 150.668 98.1906 150.402 98.2739 150.157C98.3573 149.909 98.4744 149.694 98.6255 149.512C98.7765 149.33 98.9562 149.189 99.1646 149.09C99.3755 148.989 99.6086 148.938 99.8638 148.938C100.072 148.938 100.26 148.967 100.426 149.024C100.593 149.079 100.735 149.167 100.852 149.29C100.972 149.412 101.063 149.571 101.125 149.766C101.188 149.959 101.219 150.194 101.219 150.473V153.243H100.493V150.465C100.493 150.244 100.46 150.067 100.395 149.934C100.33 149.799 100.235 149.701 100.11 149.641C99.9849 149.579 99.8312 149.547 99.6489 149.547C99.4692 149.547 99.3052 149.585 99.1567 149.661C99.0109 149.736 98.8846 149.84 98.7778 149.973C98.6737 150.106 98.5916 150.258 98.5317 150.43C98.4744 150.599 98.4458 150.779 98.4458 150.969Z" fill="#9746FF"/>
<rect x="68.7071" y="150.243" width="5" height="5" transform="rotate(-45 68.7071 150.243)" fill="white" stroke="#9746FF"/>
<rect x="60.375" y="231.375" width="5.25" height="5.25" fill="white" stroke="#9746FF" stroke-width="0.75"/>
<rect x="264.375" y="154.375" width="5.25" height="5.25" fill="white" stroke="#9746FF" stroke-width="0.75"/>
<rect x="264.375" y="231.375" width="5.25" height="5.25" fill="white" stroke="#9746FF" stroke-width="0.75"/>
</g>
<defs>
<clipPath id="clip0_40_2">
<rect width="350" height="307" fill="white"/>
</clipPath>
</defs>
</svg>
