<svg width="370" height="328" viewBox="0 0 370 328" fill="none" xmlns="http://www.w3.org/2000/svg">
<rect x="10.5" y="29.5" width="349" height="288" fill="#FBFBFB" stroke="#E5E5E5"/>
<path d="M12.3945 13.4688V22H11.2637V13.4688H12.3945ZM15.9688 17.3066V18.2324H12.1484V17.3066H15.9688ZM16.5488 13.4688V14.3945H12.1484V13.4688H16.5488ZM18.6641 16.6562V22H17.5801V15.6602H18.6348L18.6641 16.6562ZM20.6445 15.625L20.6387 16.6328C20.5488 16.6133 20.4629 16.6016 20.3809 16.5977C20.3027 16.5898 20.2129 16.5859 20.1113 16.5859C19.8613 16.5859 19.6406 16.625 19.4492 16.7031C19.2578 16.7812 19.0957 16.8906 18.9629 17.0312C18.8301 17.1719 18.7246 17.3398 18.6465 17.5352C18.5723 17.7266 18.5234 17.9375 18.5 18.168L18.1953 18.3438C18.1953 17.9609 18.2324 17.6016 18.3066 17.2656C18.3848 16.9297 18.5039 16.6328 18.6641 16.375C18.8242 16.1133 19.0273 15.9102 19.2734 15.7656C19.5234 15.6172 19.8203 15.543 20.1641 15.543C20.2422 15.543 20.332 15.5527 20.4336 15.5723C20.5352 15.5879 20.6055 15.6055 20.6445 15.625ZM25.1504 20.916V17.6523C25.1504 17.4023 25.0996 17.1855 24.998 17.002C24.9004 16.8145 24.752 16.6699 24.5527 16.5684C24.3535 16.4668 24.1074 16.416 23.8145 16.416C23.541 16.416 23.3008 16.4629 23.0938 16.5566C22.8906 16.6504 22.7305 16.7734 22.6133 16.9258C22.5 17.0781 22.4434 17.2422 22.4434 17.418H21.3594C21.3594 17.1914 21.418 16.9668 21.5352 16.7441C21.6523 16.5215 21.8203 16.3203 22.0391 16.1406C22.2617 15.957 22.5273 15.8125 22.8359 15.707C23.1484 15.5977 23.4961 15.543 23.8789 15.543C24.3398 15.543 24.7461 15.6211 25.0977 15.7773C25.4531 15.9336 25.7305 16.1699 25.9297 16.4863C26.1328 16.7988 26.2344 17.1914 26.2344 17.6641V20.6172C26.2344 20.8281 26.252 21.0527 26.2871 21.291C26.3262 21.5293 26.3828 21.7344 26.457 21.9062V22H25.3262C25.2715 21.875 25.2285 21.709 25.1973 21.502C25.166 21.291 25.1504 21.0957 25.1504 20.916ZM25.3379 18.1562L25.3496 18.918H24.2539C23.9453 18.918 23.6699 18.9434 23.4277 18.9941C23.1855 19.041 22.9824 19.1133 22.8184 19.2109C22.6543 19.3086 22.5293 19.4316 22.4434 19.5801C22.3574 19.7246 22.3145 19.8945 22.3145 20.0898C22.3145 20.2891 22.3594 20.4707 22.4492 20.6348C22.5391 20.7988 22.6738 20.9297 22.8535 21.0273C23.0371 21.1211 23.2617 21.168 23.5273 21.168C23.8594 21.168 24.1523 21.0977 24.4062 20.957C24.6602 20.8164 24.8613 20.6445 25.0098 20.4414C25.1621 20.2383 25.2441 20.041 25.2559 19.8496L25.7188 20.3711C25.6914 20.5352 25.6172 20.7168 25.4961 20.916C25.375 21.1152 25.2129 21.3066 25.0098 21.4902C24.8105 21.6699 24.5723 21.8203 24.2949 21.9414C24.0215 22.0586 23.7129 22.1172 23.3691 22.1172C22.9395 22.1172 22.5625 22.0332 22.2383 21.8652C21.918 21.6973 21.668 21.4727 21.4883 21.1914C21.3125 20.9062 21.2246 20.5879 21.2246 20.2363C21.2246 19.8965 21.291 19.5977 21.4238 19.3398C21.5566 19.0781 21.748 18.8613 21.998 18.6895C22.248 18.5137 22.5488 18.3809 22.9004 18.291C23.252 18.2012 23.6445 18.1562 24.0781 18.1562H25.3379ZM29.0176 16.9199V22H27.9277V15.6602H28.959L29.0176 16.9199ZM28.7949 18.5898L28.291 18.5723C28.2949 18.1387 28.3516 17.7383 28.4609 17.3711C28.5703 17 28.7324 16.6777 28.9473 16.4043C29.1621 16.1309 29.4297 15.9199 29.75 15.7715C30.0703 15.6191 30.4414 15.543 30.8633 15.543C31.1602 15.543 31.4336 15.5859 31.6836 15.6719C31.9336 15.7539 32.1504 15.8848 32.334 16.0645C32.5176 16.2441 32.6602 16.4746 32.7617 16.7559C32.8633 17.0371 32.9141 17.377 32.9141 17.7754V22H31.8301V17.8281C31.8301 17.4961 31.7734 17.2305 31.6602 17.0312C31.5508 16.832 31.3945 16.6875 31.1914 16.5977C30.9883 16.5039 30.75 16.457 30.4766 16.457C30.1562 16.457 29.8887 16.5137 29.6738 16.627C29.459 16.7402 29.2871 16.8965 29.1582 17.0957C29.0293 17.2949 28.9355 17.5234 28.877 17.7812C28.8223 18.0352 28.7949 18.3047 28.7949 18.5898ZM32.9023 17.9922L32.1758 18.2148C32.1797 17.8672 32.2363 17.5332 32.3457 17.2129C32.459 16.8926 32.6211 16.6074 32.832 16.3574C33.0469 16.1074 33.3105 15.9102 33.623 15.7656C33.9355 15.6172 34.293 15.543 34.6953 15.543C35.0352 15.543 35.3359 15.5879 35.5977 15.6777C35.8633 15.7676 36.0859 15.9062 36.2656 16.0938C36.4492 16.2773 36.5879 16.5137 36.6816 16.8027C36.7754 17.0918 36.8223 17.4355 36.8223 17.834V22H35.7324V17.8223C35.7324 17.4668 35.6758 17.1914 35.5625 16.9961C35.4531 16.7969 35.2969 16.6582 35.0938 16.5801C34.8945 16.498 34.6562 16.457 34.3789 16.457C34.1406 16.457 33.9297 16.498 33.7461 16.5801C33.5625 16.6621 33.4082 16.7754 33.2832 16.9199C33.1582 17.0605 33.0625 17.2227 32.9961 17.4062C32.9336 17.5898 32.9023 17.7852 32.9023 17.9922ZM41.0938 22.1172C40.6523 22.1172 40.252 22.043 39.8926 21.8945C39.5371 21.7422 39.2305 21.5293 38.9727 21.2559C38.7188 20.9824 38.5234 20.6582 38.3867 20.2832C38.25 19.9082 38.1816 19.498 38.1816 19.0527V18.8066C38.1816 18.291 38.2578 17.832 38.4102 17.4297C38.5625 17.0234 38.7695 16.6797 39.0312 16.3984C39.293 16.1172 39.5898 15.9043 39.9219 15.7598C40.2539 15.6152 40.5977 15.543 40.9531 15.543C41.4062 15.543 41.7969 15.6211 42.125 15.7773C42.457 15.9336 42.7285 16.1523 42.9395 16.4336C43.1504 16.7109 43.3066 17.0391 43.4082 17.418C43.5098 17.793 43.5605 18.2031 43.5605 18.6484V19.1348H38.8262V18.25H42.4766V18.168C42.4609 17.8867 42.4023 17.6133 42.3008 17.3477C42.2031 17.082 42.0469 16.8633 41.832 16.6914C41.6172 16.5195 41.3242 16.4336 40.9531 16.4336C40.707 16.4336 40.4805 16.4863 40.2734 16.5918C40.0664 16.6934 39.8887 16.8457 39.7402 17.0488C39.5918 17.252 39.4766 17.5 39.3945 17.793C39.3125 18.0859 39.2715 18.4238 39.2715 18.8066V19.0527C39.2715 19.3535 39.3125 19.6367 39.3945 19.9023C39.4805 20.1641 39.6035 20.3945 39.7637 20.5938C39.9277 20.793 40.125 20.9492 40.3555 21.0625C40.5898 21.1758 40.8555 21.2324 41.1523 21.2324C41.5352 21.2324 41.8594 21.1543 42.125 20.998C42.3906 20.8418 42.623 20.6328 42.8223 20.3711L43.4785 20.8926C43.3418 21.0996 43.168 21.2969 42.957 21.4844C42.7461 21.6719 42.4863 21.8242 42.1777 21.9414C41.873 22.0586 41.5117 22.1172 41.0938 22.1172ZM51.248 13.4219V22H50.1641V14.7754L47.9785 15.5723V14.5938L51.0781 13.4219H51.248Z" fill="#858585"/>
<rect x="75" y="170" width="200" height="73" rx="36.5" fill="#3465FF"/>
<path d="M151.268 197.24C152.985 197.24 154.497 197.511 155.804 198.052C157.129 198.575 158.277 199.349 159.248 200.376L156.924 203.484C156.121 202.644 155.253 202.019 154.32 201.608C153.405 201.179 152.36 200.964 151.184 200.964C150.493 200.964 149.933 201.039 149.504 201.188C149.075 201.337 148.767 201.543 148.58 201.804C148.393 202.065 148.3 202.364 148.3 202.7C148.3 203.092 148.477 203.428 148.832 203.708C149.205 203.969 149.803 204.193 150.624 204.38L153.732 205.08C155.58 205.509 156.933 206.135 157.792 206.956C158.651 207.777 159.08 208.869 159.08 210.232C159.08 211.539 158.744 212.649 158.072 213.564C157.4 214.46 156.476 215.141 155.3 215.608C154.124 216.056 152.78 216.28 151.268 216.28C150.036 216.28 148.86 216.149 147.74 215.888C146.62 215.608 145.612 215.216 144.716 214.712C143.82 214.208 143.064 213.629 142.448 212.976L144.772 209.756C145.239 210.297 145.808 210.783 146.48 211.212C147.171 211.623 147.917 211.949 148.72 212.192C149.541 212.435 150.372 212.556 151.212 212.556C151.865 212.556 152.407 212.491 152.836 212.36C153.284 212.229 153.611 212.033 153.816 211.772C154.021 211.511 154.124 211.203 154.124 210.848C154.124 210.456 153.984 210.129 153.704 209.868C153.424 209.588 152.892 209.355 152.108 209.168L148.692 208.412C147.647 208.169 146.713 207.852 145.892 207.46C145.089 207.049 144.455 206.508 143.988 205.836C143.521 205.145 143.288 204.287 143.288 203.26C143.288 202.103 143.605 201.076 144.24 200.18C144.875 199.265 145.789 198.547 146.984 198.024C148.179 197.501 149.607 197.24 151.268 197.24ZM169.458 207.124C169.458 206.471 169.271 205.957 168.898 205.584C168.543 205.192 168.058 204.996 167.442 204.996C166.826 204.996 166.294 205.155 165.846 205.472C165.416 205.771 165.118 206.312 164.95 207.096L160.918 206.144C161.179 204.8 161.87 203.727 162.99 202.924C164.11 202.121 165.687 201.72 167.722 201.72C169.084 201.72 170.242 201.925 171.194 202.336C172.164 202.728 172.902 203.325 173.406 204.128C173.928 204.912 174.19 205.883 174.19 207.04V212.164C174.19 212.892 174.516 213.256 175.17 213.256C175.506 213.256 175.776 213.219 175.982 213.144L175.702 215.86C175.142 216.121 174.46 216.252 173.658 216.252C172.93 216.252 172.286 216.14 171.726 215.916C171.166 215.673 170.727 215.319 170.41 214.852C170.092 214.367 169.934 213.76 169.934 213.032V212.864L170.466 212.668C170.466 213.471 170.223 214.143 169.738 214.684C169.271 215.225 168.655 215.627 167.89 215.888C167.143 216.149 166.359 216.28 165.538 216.28C164.586 216.28 163.755 216.131 163.046 215.832C162.336 215.533 161.786 215.104 161.394 214.544C161.02 213.965 160.834 213.256 160.834 212.416C160.834 211.408 161.132 210.577 161.73 209.924C162.346 209.252 163.307 208.785 164.614 208.524L169.906 207.432L169.878 209.952L167.19 210.512C166.63 210.624 166.21 210.792 165.93 211.016C165.668 211.221 165.538 211.539 165.538 211.968C165.538 212.379 165.687 212.687 165.986 212.892C166.284 213.097 166.639 213.2 167.05 213.2C167.367 213.2 167.666 213.153 167.946 213.06C168.244 212.967 168.506 212.827 168.73 212.64C168.954 212.435 169.131 212.183 169.262 211.884C169.392 211.585 169.458 211.231 169.458 210.82V207.124ZM186.359 202H191.287L186.247 216H180.563L175.523 202H180.535L183.419 212.668L186.359 202ZM199.54 216.28C197.991 216.28 196.647 215.991 195.508 215.412C194.388 214.833 193.52 214.003 192.904 212.92C192.288 211.837 191.98 210.531 191.98 209C191.98 207.469 192.288 206.163 192.904 205.08C193.52 203.997 194.379 203.167 195.48 202.588C196.6 202.009 197.879 201.72 199.316 201.72C200.791 201.72 202.041 202.009 203.068 202.588C204.113 203.148 204.907 203.932 205.448 204.94C205.989 205.929 206.26 207.068 206.26 208.356C206.26 208.692 206.251 209.028 206.232 209.364C206.213 209.7 206.185 209.98 206.148 210.204H195.06V207.656H204.048L201.78 208.524C201.78 207.404 201.575 206.545 201.164 205.948C200.772 205.351 200.156 205.052 199.316 205.052C198.719 205.052 198.205 205.192 197.776 205.472C197.365 205.752 197.048 206.191 196.824 206.788C196.619 207.385 196.516 208.151 196.516 209.084C196.516 209.999 196.637 210.745 196.88 211.324C197.123 211.884 197.468 212.295 197.916 212.556C198.364 212.799 198.905 212.92 199.54 212.92C200.249 212.92 200.809 212.78 201.22 212.5C201.649 212.22 201.967 211.828 202.172 211.324L205.98 212.584C205.719 213.387 205.261 214.068 204.608 214.628C203.973 215.169 203.208 215.58 202.312 215.86C201.435 216.14 200.511 216.28 199.54 216.28Z" fill="white"/>
<rect x="161" y="141.385" width="20" height="20" transform="rotate(-45 161 141.385)" fill="#6D6D6D"/>
<rect x="126" y="99" width="98" height="43" rx="7" fill="#6D6D6D"/>
<path d="M156.836 120.68H153.953L153.938 119.469H156.555C156.987 119.469 157.365 119.396 157.688 119.25C158.01 119.104 158.26 118.896 158.438 118.625C158.62 118.349 158.711 118.021 158.711 117.641C158.711 117.224 158.63 116.885 158.469 116.625C158.312 116.359 158.07 116.167 157.742 116.047C157.419 115.922 157.008 115.859 156.508 115.859H154.289V126H152.781V114.625H156.508C157.091 114.625 157.612 114.685 158.07 114.805C158.529 114.919 158.917 115.102 159.234 115.352C159.557 115.596 159.802 115.909 159.969 116.289C160.135 116.669 160.219 117.125 160.219 117.656C160.219 118.125 160.099 118.549 159.859 118.93C159.62 119.305 159.286 119.612 158.859 119.852C158.438 120.091 157.943 120.245 157.375 120.312L156.836 120.68ZM156.766 126H153.359L154.211 124.773H156.766C157.245 124.773 157.651 124.69 157.984 124.523C158.323 124.357 158.581 124.122 158.758 123.82C158.935 123.513 159.023 123.151 159.023 122.734C159.023 122.312 158.948 121.948 158.797 121.641C158.646 121.333 158.409 121.096 158.086 120.93C157.763 120.763 157.346 120.68 156.836 120.68H154.688L154.703 119.469H157.641L157.961 119.906C158.508 119.953 158.971 120.109 159.352 120.375C159.732 120.635 160.021 120.969 160.219 121.375C160.422 121.781 160.523 122.229 160.523 122.719C160.523 123.427 160.367 124.026 160.055 124.516C159.747 125 159.312 125.37 158.75 125.625C158.188 125.875 157.526 126 156.766 126ZM167.703 124.047V117.547H169.156V126H167.773L167.703 124.047ZM167.977 122.266L168.578 122.25C168.578 122.812 168.518 123.333 168.398 123.812C168.284 124.286 168.096 124.698 167.836 125.047C167.576 125.396 167.234 125.669 166.812 125.867C166.391 126.06 165.878 126.156 165.273 126.156C164.862 126.156 164.484 126.096 164.141 125.977C163.802 125.857 163.51 125.672 163.266 125.422C163.021 125.172 162.831 124.846 162.695 124.445C162.565 124.044 162.5 123.562 162.5 123V117.547H163.945V123.016C163.945 123.396 163.987 123.711 164.07 123.961C164.159 124.206 164.276 124.401 164.422 124.547C164.573 124.688 164.74 124.786 164.922 124.844C165.109 124.901 165.302 124.93 165.5 124.93C166.115 124.93 166.602 124.812 166.961 124.578C167.32 124.339 167.578 124.018 167.734 123.617C167.896 123.211 167.977 122.76 167.977 122.266ZM174.898 117.547V118.656H170.328V117.547H174.898ZM171.875 115.492H173.32V123.906C173.32 124.193 173.365 124.409 173.453 124.555C173.542 124.701 173.656 124.797 173.797 124.844C173.938 124.891 174.089 124.914 174.25 124.914C174.37 124.914 174.495 124.904 174.625 124.883C174.76 124.857 174.862 124.836 174.93 124.82L174.938 126C174.823 126.036 174.672 126.07 174.484 126.102C174.302 126.138 174.081 126.156 173.82 126.156C173.466 126.156 173.141 126.086 172.844 125.945C172.547 125.805 172.31 125.57 172.133 125.242C171.961 124.909 171.875 124.461 171.875 123.898V115.492ZM180.133 117.547V118.656H175.562V117.547H180.133ZM177.109 115.492H178.555V123.906C178.555 124.193 178.599 124.409 178.688 124.555C178.776 124.701 178.891 124.797 179.031 124.844C179.172 124.891 179.323 124.914 179.484 124.914C179.604 124.914 179.729 124.904 179.859 124.883C179.995 124.857 180.096 124.836 180.164 124.82L180.172 126C180.057 126.036 179.906 126.07 179.719 126.102C179.536 126.138 179.315 126.156 179.055 126.156C178.701 126.156 178.375 126.086 178.078 125.945C177.781 125.805 177.544 125.57 177.367 125.242C177.195 124.909 177.109 124.461 177.109 123.898V115.492ZM181.289 121.867V121.688C181.289 121.078 181.378 120.513 181.555 119.992C181.732 119.466 181.987 119.01 182.32 118.625C182.654 118.234 183.057 117.932 183.531 117.719C184.005 117.5 184.536 117.391 185.125 117.391C185.719 117.391 186.253 117.5 186.727 117.719C187.206 117.932 187.612 118.234 187.945 118.625C188.284 119.01 188.542 119.466 188.719 119.992C188.896 120.513 188.984 121.078 188.984 121.688V121.867C188.984 122.477 188.896 123.042 188.719 123.562C188.542 124.083 188.284 124.539 187.945 124.93C187.612 125.315 187.208 125.617 186.734 125.836C186.266 126.049 185.734 126.156 185.141 126.156C184.547 126.156 184.013 126.049 183.539 125.836C183.065 125.617 182.659 125.315 182.32 124.93C181.987 124.539 181.732 124.083 181.555 123.562C181.378 123.042 181.289 122.477 181.289 121.867ZM182.734 121.688V121.867C182.734 122.289 182.784 122.688 182.883 123.062C182.982 123.432 183.13 123.76 183.328 124.047C183.531 124.333 183.784 124.56 184.086 124.727C184.388 124.888 184.74 124.969 185.141 124.969C185.536 124.969 185.883 124.888 186.18 124.727C186.482 124.56 186.732 124.333 186.93 124.047C187.128 123.76 187.276 123.432 187.375 123.062C187.479 122.688 187.531 122.289 187.531 121.867V121.688C187.531 121.271 187.479 120.878 187.375 120.508C187.276 120.133 187.125 119.802 186.922 119.516C186.724 119.224 186.474 118.995 186.172 118.828C185.875 118.661 185.526 118.578 185.125 118.578C184.729 118.578 184.38 118.661 184.078 118.828C183.781 118.995 183.531 119.224 183.328 119.516C183.13 119.802 182.982 120.133 182.883 120.508C182.784 120.878 182.734 121.271 182.734 121.688ZM192.242 119.352V126H190.797V117.547H192.164L192.242 119.352ZM191.898 121.453L191.297 121.43C191.302 120.852 191.388 120.318 191.555 119.828C191.721 119.333 191.956 118.904 192.258 118.539C192.56 118.174 192.919 117.893 193.336 117.695C193.758 117.492 194.224 117.391 194.734 117.391C195.151 117.391 195.526 117.448 195.859 117.562C196.193 117.672 196.477 117.849 196.711 118.094C196.951 118.339 197.133 118.656 197.258 119.047C197.383 119.432 197.445 119.904 197.445 120.461V126H195.992V120.445C195.992 120.003 195.927 119.648 195.797 119.383C195.667 119.112 195.477 118.917 195.227 118.797C194.977 118.672 194.669 118.609 194.305 118.609C193.945 118.609 193.617 118.685 193.32 118.836C193.029 118.987 192.776 119.195 192.562 119.461C192.354 119.727 192.19 120.031 192.07 120.375C191.956 120.714 191.898 121.073 191.898 121.453Z" fill="white"/>
<rect x="73.375" y="168.375" width="203.25" height="76.25" stroke="#9746FF" stroke-width="0.75"/>
<rect x="70.375" y="165.375" width="5.25" height="5.25" fill="white" stroke="#9746FF" stroke-width="0.75"/>
<path d="M89.2661 158.243H89.9927V163.422L89.9302 164.243H89.2661V158.243ZM92.8481 162.094V162.176C92.8481 162.484 92.8117 162.769 92.7388 163.032C92.6659 163.292 92.5591 163.519 92.4185 163.711C92.2778 163.904 92.106 164.054 91.9028 164.161C91.6997 164.267 91.4666 164.321 91.2036 164.321C90.9354 164.321 90.6997 164.275 90.4966 164.184C90.2961 164.09 90.1268 163.956 89.9888 163.782C89.8507 163.607 89.7401 163.396 89.6567 163.149C89.576 162.902 89.52 162.623 89.4888 162.313V161.954C89.52 161.641 89.576 161.361 89.6567 161.114C89.7401 160.866 89.8507 160.655 89.9888 160.481C90.1268 160.304 90.2961 160.17 90.4966 160.079C90.6971 159.985 90.9302 159.938 91.1958 159.938C91.4614 159.938 91.6971 159.99 91.9028 160.094C92.1086 160.196 92.2804 160.342 92.4185 160.532C92.5591 160.722 92.6659 160.95 92.7388 161.215C92.8117 161.478 92.8481 161.771 92.8481 162.094ZM92.1216 162.176V162.094C92.1216 161.883 92.1021 161.685 92.063 161.5C92.0239 161.313 91.9614 161.149 91.8755 161.008C91.7896 160.865 91.6763 160.753 91.5356 160.672C91.395 160.589 91.2218 160.547 91.0161 160.547C90.8338 160.547 90.675 160.579 90.5396 160.641C90.4067 160.704 90.2935 160.788 90.1997 160.895C90.106 160.999 90.0291 161.119 89.9692 161.254C89.9119 161.387 89.869 161.525 89.8403 161.668V162.61C89.882 162.792 89.9497 162.968 90.0435 163.137C90.1398 163.304 90.2674 163.441 90.4263 163.547C90.5877 163.654 90.7869 163.708 91.0239 163.708C91.2192 163.708 91.3859 163.668 91.5239 163.59C91.6646 163.51 91.7778 163.399 91.8638 163.258C91.9523 163.118 92.0174 162.955 92.0591 162.77C92.1007 162.585 92.1216 162.387 92.1216 162.176ZM96.3481 163.266V160.016H97.0747V164.243H96.3833L96.3481 163.266ZM96.4849 162.375L96.7856 162.368C96.7856 162.649 96.7557 162.909 96.6958 163.149C96.6385 163.386 96.5448 163.592 96.4146 163.766C96.2843 163.941 96.1138 164.077 95.9028 164.176C95.6919 164.273 95.4354 164.321 95.1333 164.321C94.9276 164.321 94.7388 164.291 94.5669 164.231C94.3976 164.171 94.2518 164.079 94.1294 163.954C94.007 163.829 93.9119 163.666 93.8442 163.465C93.7791 163.265 93.7466 163.024 93.7466 162.743V160.016H94.4692V162.75C94.4692 162.941 94.4901 163.098 94.5317 163.223C94.576 163.346 94.6346 163.443 94.7075 163.516C94.783 163.586 94.8664 163.636 94.9575 163.665C95.0513 163.693 95.1476 163.708 95.2466 163.708C95.5539 163.708 95.7974 163.649 95.9771 163.532C96.1567 163.412 96.2856 163.252 96.3638 163.051C96.4445 162.848 96.4849 162.623 96.4849 162.375ZM99.9458 160.016V160.571H97.6606V160.016H99.9458ZM98.4341 158.989H99.1567V163.196C99.1567 163.339 99.1789 163.447 99.2231 163.52C99.2674 163.593 99.3247 163.641 99.395 163.665C99.4653 163.688 99.5409 163.7 99.6216 163.7C99.6815 163.7 99.744 163.694 99.8091 163.684C99.8768 163.671 99.9276 163.661 99.9614 163.653L99.9653 164.243C99.908 164.261 99.8325 164.278 99.7388 164.293C99.6476 164.312 99.5369 164.321 99.4067 164.321C99.2297 164.321 99.0669 164.286 98.9185 164.215C98.77 164.145 98.6515 164.028 98.563 163.864C98.4771 163.697 98.4341 163.473 98.4341 163.192V158.989ZM102.563 160.016V160.571H100.278V160.016H102.563ZM101.051 158.989H101.774V163.196C101.774 163.339 101.796 163.447 101.84 163.52C101.885 163.593 101.942 163.641 102.012 163.665C102.083 163.688 102.158 163.7 102.239 163.7C102.299 163.7 102.361 163.694 102.426 163.684C102.494 163.671 102.545 163.661 102.579 163.653L102.583 164.243C102.525 164.261 102.45 164.278 102.356 164.293C102.265 164.312 102.154 164.321 102.024 164.321C101.847 164.321 101.684 164.286 101.536 164.215C101.387 164.145 101.269 164.028 101.18 163.864C101.094 163.697 101.051 163.473 101.051 163.192V158.989ZM103.141 162.176V162.086C103.141 161.782 103.185 161.499 103.274 161.239C103.362 160.976 103.49 160.748 103.657 160.555C103.823 160.36 104.025 160.209 104.262 160.102C104.499 159.993 104.765 159.938 105.059 159.938C105.356 159.938 105.623 159.993 105.86 160.102C106.099 160.209 106.303 160.36 106.469 160.555C106.639 160.748 106.767 160.976 106.856 161.239C106.944 161.499 106.989 161.782 106.989 162.086V162.176C106.989 162.481 106.944 162.764 106.856 163.024C106.767 163.284 106.639 163.512 106.469 163.708C106.303 163.9 106.101 164.051 105.864 164.161C105.629 164.267 105.364 164.321 105.067 164.321C104.77 164.321 104.503 164.267 104.266 164.161C104.029 164.051 103.826 163.9 103.657 163.708C103.49 163.512 103.362 163.284 103.274 163.024C103.185 162.764 103.141 162.481 103.141 162.176ZM103.864 162.086V162.176C103.864 162.387 103.889 162.586 103.938 162.774C103.987 162.959 104.062 163.123 104.161 163.266C104.262 163.409 104.389 163.523 104.54 163.606C104.691 163.687 104.866 163.727 105.067 163.727C105.265 163.727 105.438 163.687 105.586 163.606C105.737 163.523 105.862 163.409 105.961 163.266C106.06 163.123 106.135 162.959 106.184 162.774C106.236 162.586 106.262 162.387 106.262 162.176V162.086C106.262 161.878 106.236 161.681 106.184 161.497C106.135 161.309 106.059 161.144 105.958 161C105.859 160.855 105.734 160.74 105.583 160.657C105.434 160.573 105.26 160.532 105.059 160.532C104.861 160.532 104.687 160.573 104.536 160.657C104.387 160.74 104.262 160.855 104.161 161C104.062 161.144 103.987 161.309 103.938 161.497C103.889 161.681 103.864 161.878 103.864 162.086ZM108.618 160.918V164.243H107.895V160.016H108.579L108.618 160.918ZM108.446 161.969L108.145 161.958C108.148 161.668 108.191 161.402 108.274 161.157C108.357 160.909 108.474 160.694 108.625 160.512C108.777 160.33 108.956 160.189 109.165 160.09C109.375 159.989 109.609 159.938 109.864 159.938C110.072 159.938 110.26 159.967 110.426 160.024C110.593 160.079 110.735 160.167 110.852 160.29C110.972 160.412 111.063 160.571 111.125 160.766C111.188 160.959 111.219 161.194 111.219 161.473V164.243H110.493V161.465C110.493 161.244 110.46 161.067 110.395 160.934C110.33 160.799 110.235 160.701 110.11 160.641C109.985 160.579 109.831 160.547 109.649 160.547C109.469 160.547 109.305 160.585 109.157 160.661C109.011 160.736 108.885 160.84 108.778 160.973C108.674 161.106 108.592 161.258 108.532 161.43C108.474 161.599 108.446 161.779 108.446 161.969Z" fill="#9746FF"/>
<rect x="78.7071" y="161.243" width="5" height="5" transform="rotate(-45 78.7071 161.243)" fill="white" stroke="#9746FF"/>
<rect x="70.375" y="242.375" width="5.25" height="5.25" fill="white" stroke="#9746FF" stroke-width="0.75"/>
<rect x="274.375" y="165.375" width="5.25" height="5.25" fill="white" stroke="#9746FF" stroke-width="0.75"/>
<rect x="274.375" y="242.375" width="5.25" height="5.25" fill="white" stroke="#9746FF" stroke-width="0.75"/>
</svg>
