<svg width="787" height="585" viewBox="0 0 787 585" fill="none" xmlns="http://www.w3.org/2000/svg">
<rect x="31.2774" y="173.783" width="712" height="389" transform="rotate(-3 31.2774 173.783)" fill="white"/>
<rect x="5.27066" y="44.7417" width="749.005" height="535.96" rx="44.5" transform="rotate(-3 5.27066 44.7417)" fill="#E30713" stroke="white" stroke-width="9"/>
<rect x="38.294" y="206.735" width="700" height="348" rx="26" transform="rotate(-3 38.294 206.735)" fill="white"/>
<path d="M229.577 130.62L228.265 105.598L204.969 106.819L206.281 131.841L185.094 132.951L181.637 66.9939L202.824 65.8835L204.085 89.9465L227.381 88.7256L226.12 64.6626L247.307 63.5523L250.764 129.51L229.577 130.62ZM275.877 62.055L332.918 59.0656L333.747 74.8838L297.893 76.7629L298.37 85.8704L329.048 84.2627L329.842 99.4099L299.164 101.018L299.691 111.084L336.217 109.17L337.046 124.988L279.333 128.012L275.877 62.055ZM359.443 57.6754L380.63 56.5651L383.203 105.65L417.044 103.876L417.928 120.749L362.9 123.633L359.443 57.6754ZM437.767 53.5707L458.954 52.4603L461.526 101.545L495.368 99.7714L496.252 116.644L441.224 119.528L437.767 53.5707ZM547.226 46.6806C558.602 46.0844 567.543 48.5318 574.047 54.023C580.551 59.5141 584.095 67.82 584.678 78.9407C585.26 90.0615 582.604 98.6923 576.71 104.833C570.815 110.974 562.179 114.343 550.803 114.939C539.427 115.535 530.488 113.12 523.987 107.692C517.547 102.198 514.033 93.8584 513.447 82.6738C512.861 71.4891 515.485 62.8599 521.319 56.7863C527.214 50.6454 535.849 47.2768 547.226 46.6806ZM548.055 62.4989C543.517 62.7367 540.138 64.2917 537.917 67.1638C535.696 70.036 534.708 73.8049 534.953 78.4705L535.274 84.6061C535.519 89.2717 536.895 92.9166 539.404 95.5409C541.913 98.1652 545.436 99.3584 549.974 99.1206C554.512 98.8828 557.891 97.3278 560.112 94.4557C562.396 91.5802 563.417 87.8096 563.172 83.144L562.85 77.0084C562.606 72.3428 561.197 68.6996 558.625 66.0786C556.116 63.4543 552.593 62.2611 548.055 62.4989Z" fill="white"/>
<path d="M278.527 171.114L278.008 161.207C277.944 159.982 277.918 158.729 277.931 157.446C277.969 156.136 278.018 155.038 278.079 154.154C278.139 153.27 278.176 152.707 278.19 152.466L278.031 152.474L273.933 171.354L267.023 171.717L260.936 153.41L260.776 153.418C260.816 153.657 260.912 154.212 261.064 155.086C261.242 155.931 261.418 157.003 261.593 158.302C261.767 159.575 261.886 160.824 261.95 162.049L262.469 171.955L254.36 172.38L252.92 144.898L265.383 144.245L270.368 159.885L270.528 159.877L273.811 143.803L285.835 143.173L287.275 170.655L278.527 171.114ZM309.698 169.48L300.87 169.943L300.311 159.277L288.524 143.032L298.67 142.5L304.423 151.371L304.582 151.363L309.376 141.939L319.003 141.435L309.139 158.815L309.698 169.48ZM356.686 167.018L344.443 154.281L345.142 167.623L337.033 168.048L335.593 140.565L343.302 140.161L355.556 153.098L354.846 139.556L362.955 139.131L364.396 166.614L356.686 167.018ZM388.332 165.359L386.971 161.545L377.344 162.05L376.389 165.985L367.361 166.458L375.947 138.45L386.213 137.912L397.68 164.869L388.332 165.359ZM378.859 155.802L384.811 155.49L381.422 145.854L381.262 145.862L378.859 155.802ZM424.615 163.458L424.096 153.551C424.032 152.326 424.006 151.072 424.019 149.79C424.057 148.48 424.107 147.382 424.167 146.498C424.228 145.613 424.265 145.051 424.279 144.81L424.119 144.818L420.022 163.698L413.111 164.06L407.025 145.754L406.865 145.762C406.904 146.001 407 146.556 407.153 147.43C407.331 148.275 407.507 149.347 407.682 150.646C407.855 151.919 407.974 153.168 408.038 154.393L408.558 164.299L400.449 164.724L399.008 137.242L411.471 136.589L416.457 152.229L416.616 152.221L419.9 136.147L431.923 135.517L433.363 162.999L424.615 163.458ZM437.289 135.236L461.057 133.99L461.402 140.581L446.463 141.364L446.661 145.159L459.444 144.489L459.775 150.8L446.992 151.47L447.212 155.664L462.431 154.867L462.777 161.458L438.73 162.718L437.289 135.236ZM481.259 160.489L479.818 133.007L488.646 132.544L490.087 160.026L481.259 160.489ZM506.464 131.13C509.979 130.945 512.906 131.513 515.245 132.832C517.582 134.125 518.851 136.168 519.051 138.962L519.076 139.441L510.807 139.874L510.799 139.715C510.757 138.916 510.429 138.265 509.815 137.763C509.202 137.261 508.295 137.042 507.097 137.105C505.925 137.166 505.029 137.387 504.408 137.766C503.814 138.145 503.53 138.587 503.556 139.093C503.594 139.812 504.048 140.322 504.918 140.624C505.789 140.925 507.179 141.213 509.089 141.486C511.323 141.823 513.159 142.208 514.597 142.64C516.06 143.044 517.354 143.777 518.478 144.84C519.601 145.902 520.227 147.392 520.354 149.308C520.524 152.556 519.545 155.024 517.417 156.711C515.316 158.397 512.428 159.336 508.753 159.529C504.466 159.753 501.086 159.21 498.614 157.897C496.168 156.583 494.85 154.102 494.659 150.454L503.007 150.016C503.08 151.401 503.488 152.314 504.232 152.756C504.975 153.171 506.105 153.339 507.623 153.259C508.742 153.201 509.654 153.033 510.361 152.755C511.094 152.477 511.441 151.964 511.402 151.219C511.367 150.553 510.928 150.082 510.086 149.806C509.269 149.501 507.932 149.211 506.075 148.934C503.813 148.572 501.936 148.177 500.445 147.747C498.952 147.292 497.629 146.493 496.474 145.352C495.32 144.211 494.688 142.615 494.581 140.564C494.423 137.555 495.466 135.284 497.709 133.751C499.977 132.191 502.895 131.317 506.464 131.13Z" fill="white"/>
<path d="M152.243 323.31C152.375 324.209 152.561 326.013 152.799 328.722C152.869 329.519 152.531 330.245 151.786 330.899C151.04 331.554 150.136 331.928 149.074 332.021C147.214 332.185 145.696 331.355 144.518 329.531C142.357 330.524 140.453 331.093 138.806 331.238C134.024 331.658 130.784 329.213 129.085 323.901C128.425 321.871 127.935 319.345 127.616 316.321C127.532 315.365 127.424 314.143 127.293 312.655C127.201 311.003 127.137 309.965 127.1 309.54C126.819 306.352 126.213 301.587 125.28 295.245C124.4 288.897 123.821 284.13 123.54 280.942C123.461 280.039 123.765 279.236 124.453 278.533C125.193 277.825 126.122 277.422 127.237 277.324C130.584 277.03 132.914 282.206 134.225 292.852C134.702 296.45 135.034 300.838 135.222 306.015C135.475 311.935 135.604 314.922 135.608 314.975C135.8 317.154 135.991 318.716 136.181 319.663C136.5 321.456 137.317 323.445 138.634 325.631C142.161 323.126 143.574 316.363 142.872 305.342C142.684 301.986 142.331 297.974 141.814 293.308C141.164 287.744 140.846 285.041 140.86 285.201C140.673 283.076 140.709 281.654 140.967 280.935C141.39 279.666 142.532 278.95 144.392 278.787C147.207 278.539 149.105 281.852 150.084 288.726C150.279 289.726 150.447 291.023 150.587 292.617C151.54 303.455 151.54 311.968 150.585 318.156C151.348 319.534 151.901 321.252 152.243 323.31ZM176.17 317.913C175.422 316.105 174.361 313.173 172.987 309.118C171.838 305.792 169.868 301.656 167.077 296.708C168.453 309.918 169.396 319.419 169.905 325.21C169.985 326.113 169.656 326.945 168.92 327.706C168.232 328.409 167.331 328.809 166.215 328.907C165.152 329.001 164.195 328.764 163.342 328.196C162.484 327.576 162.015 326.814 161.936 325.911C161.497 320.917 160.756 313.406 159.713 303.379C158.666 293.299 157.92 285.735 157.476 280.688C157.294 278.616 158.983 277.423 162.543 277.11C166.102 276.797 167.973 277.676 168.155 279.748C168.38 282.298 169.183 285.039 170.565 287.969C171.28 289.405 173.791 293.601 178.097 300.557C177.745 297.162 177.377 293.901 176.996 290.776C176.646 288.023 176.439 286.274 176.373 285.531C176.074 282.13 176.026 279.752 176.228 278.396C176.604 275.365 177.828 273.758 179.9 273.576C182.503 273.347 184.162 275.771 184.876 280.848C185.141 282.645 185.289 284.934 185.319 287.715C185.329 290.873 185.346 292.585 185.369 292.85C185.669 296.251 186.33 301.332 187.353 308.095C188.424 314.801 189.11 319.853 189.409 323.253C189.488 324.157 188.932 325.142 187.742 326.211C186.546 327.226 185.337 327.788 184.115 327.895C181.671 328.11 179.023 324.783 176.17 317.913ZM220.96 317.507C219.801 322.588 216.831 325.339 212.049 325.759C201.583 326.68 195.572 318.294 194.016 300.603C193.371 293.271 193.354 287.597 193.964 283.582C195.121 276.038 198.25 272.042 203.35 271.593C209.566 271.047 214.219 274.947 217.309 283.295C219.014 288.071 220.256 294.895 221.037 303.767C221.598 310.143 221.572 314.723 220.96 317.507ZM204.503 278.318C201.91 281.705 201.097 288.897 202.065 299.895C202.401 303.72 203.235 307.421 204.567 310.998C206.598 316.441 209.184 319.051 212.323 318.829C213.183 317.04 213.644 315.286 213.707 313.567C213.729 312.602 213.656 311.162 213.488 309.25C212.297 295.702 210.071 285.618 206.812 278.998L204.503 278.318ZM244.661 313.013C243.98 311.36 243.027 308.74 241.801 305.153C240.786 302.137 238.944 298.23 236.273 293.433L238.558 319.412C238.628 320.209 238.293 320.962 237.552 321.669C236.811 322.377 235.883 322.78 234.767 322.878C233.705 322.971 232.747 322.734 231.894 322.167C231.041 321.599 230.579 320.917 230.509 320.12L226.451 273.978C226.362 272.969 226.847 272.096 227.907 271.361C228.962 270.572 230.26 270.11 231.801 269.974L238.335 269.4C241.682 269.105 244.674 270.555 247.311 273.75C249.654 276.649 250.975 279.799 251.274 283.199C251.653 287.502 249.634 291.026 245.217 293.77C245.909 294.941 247.905 299.37 251.204 307.057C254.48 314.478 256.126 318.269 256.14 318.428C256.21 319.225 255.821 319.982 254.974 320.699C254.175 321.358 253.218 321.737 252.103 321.835C249.712 322.045 247.231 319.105 244.661 313.013ZM234.738 275.98L235.972 290.006C238.653 289.449 240.524 288.802 241.583 288.067C242.841 287.153 243.389 285.766 243.225 283.907C242.889 280.082 241.096 277.348 237.846 275.707L234.738 275.98ZM286.738 310.838C285.844 315.896 282.98 318.637 278.145 319.062C277.242 319.142 275.852 319.157 273.973 319.108C272.095 319.059 270.704 319.074 269.801 319.154C269.323 319.196 268.697 319.385 267.924 319.721C267.513 319.917 267.254 320.02 267.148 320.03C266.032 320.128 265.021 319.896 264.115 319.333C263.209 318.77 262.719 318.064 262.644 317.214C262.2 312.166 261.72 304.579 261.204 294.452C260.683 284.272 260.201 276.658 259.757 271.611C259.505 268.742 262.805 267.006 269.659 266.404C275.822 265.861 280.311 269.723 283.126 277.988C284.567 282.198 285.663 288.58 286.416 297.134C286.832 301.862 287.026 304.067 286.998 303.748C287.192 306.568 287.106 308.932 286.738 310.838ZM268.03 273.453C268.244 276.486 268.581 281.543 269.043 288.623C269.417 294.694 269.753 299.429 270.052 302.829C270.122 303.626 270.301 305.056 270.59 307.119C270.874 309.128 271.052 310.852 271.125 312.292C273.988 312.575 276.271 312.669 277.976 312.572C278.705 311.116 279.052 309.587 279.018 307.983C279.064 307.283 279.014 306.11 278.869 304.463L278.301 298.008C277.082 284.141 274.583 275.822 270.806 273.049L268.03 273.453ZM317.195 312.014C317.272 312.275 317.324 312.565 317.352 312.884C317.539 315.009 315.986 316.216 312.692 316.506C308.654 316.861 305.742 316.93 303.956 316.712L301.406 316.936C301.198 317.008 300.961 317.056 300.696 317.079C299.527 317.182 298.465 316.981 297.511 316.476C296.551 315.918 296.037 315.24 295.967 314.443C295.911 313.806 295.959 312.838 296.113 311.539C296.315 310.183 296.385 309.16 296.325 308.469C296.212 307.194 295.914 305.319 295.428 302.846C294.939 300.319 294.637 298.418 294.525 297.143C294.24 293.902 293.895 289.061 293.489 282.618C293.136 276.171 292.817 271.327 292.532 268.086C292.345 265.961 293.234 264.812 295.2 264.639C295.891 264.578 296.668 264.59 297.532 264.675C298.065 264.039 298.783 263.681 299.686 263.602C301.652 263.429 305.322 263.454 310.695 263.678C312.467 263.736 313.428 264.615 313.578 266.315C313.68 267.484 313.306 268.4 312.454 269.064C312.146 270.43 311.275 271.176 309.84 271.302L306.42 271.683C306.217 271.808 305.956 271.884 305.637 271.912C305.212 271.95 304.483 271.88 303.451 271.703C302.466 271.469 301.68 271.35 301.091 271.349L302.506 290.177C304.365 290.013 305.614 289.904 306.251 289.848C307.425 289.798 308.393 289.847 309.155 289.994C310.594 289.921 311.857 289.97 312.943 290.142C314.463 290.383 315.289 291.248 315.42 292.735C315.49 293.532 315.287 294.273 314.812 294.957C314.337 295.641 313.674 296.021 312.824 296.096C312.558 296.119 312.261 296.092 311.933 296.013C311.011 295.88 309.782 295.908 308.246 296.097C306.498 296.304 305.247 296.387 304.494 296.347L302.98 296.48C303.159 297.91 303.505 300.021 304.019 302.813C304.437 305.132 304.7 306.902 304.807 308.124L304.842 308.523C307.859 308.739 310.909 308.712 313.99 308.441C315.956 308.268 317.027 309.191 317.205 311.21C317.228 311.476 317.225 311.744 317.195 312.014ZM338.05 304.799C337.37 303.146 336.416 300.526 335.191 296.939C334.176 293.923 332.333 290.016 329.663 285.219L331.948 311.198C332.018 311.995 331.682 312.747 330.941 313.455C330.201 314.163 329.272 314.566 328.157 314.664C327.094 314.757 326.136 314.52 325.283 313.953C324.43 313.385 323.969 312.703 323.899 311.906L319.84 265.764C319.751 264.755 320.237 263.882 321.297 263.147C322.351 262.358 323.649 261.896 325.19 261.76L331.725 261.185C335.072 260.891 338.064 262.341 340.7 265.536C343.043 268.435 344.365 271.585 344.664 274.985C345.042 279.288 343.023 282.812 338.607 285.556C339.298 286.727 341.294 291.156 344.594 298.843C347.87 306.264 349.515 310.055 349.529 310.214C349.599 311.011 349.211 311.768 348.363 312.485C347.565 313.144 346.608 313.523 345.492 313.621C343.101 313.831 340.621 310.89 338.05 304.799ZM328.127 267.766L329.361 281.792C332.043 281.235 333.913 280.588 334.973 279.853C336.231 278.939 336.778 277.552 336.615 275.693C336.278 271.868 334.485 269.134 331.235 267.493L328.127 267.766ZM377.276 306.73C377.353 306.99 377.405 307.28 377.433 307.599C377.62 309.724 376.066 310.932 372.772 311.221C368.735 311.577 365.823 311.645 364.037 311.428L361.487 311.652C361.279 311.724 361.042 311.771 360.776 311.795C359.608 311.897 358.546 311.696 357.591 311.191C356.632 310.633 356.117 309.956 356.047 309.159C355.991 308.521 356.04 307.553 356.193 306.255C356.395 304.899 356.466 303.875 356.405 303.185C356.293 301.909 355.994 300.035 355.509 297.561C355.019 295.035 354.718 293.134 354.606 291.859C354.321 288.618 353.975 283.776 353.569 277.334C353.216 270.886 352.897 266.042 352.612 262.802C352.425 260.676 353.315 259.527 355.281 259.354C355.971 259.294 356.749 259.306 357.613 259.39C358.146 258.754 358.864 258.397 359.767 258.317C361.733 258.145 365.402 258.17 370.776 258.393C372.548 258.451 373.509 259.331 373.658 261.031C373.761 262.2 373.386 263.116 372.535 263.78C372.226 265.145 371.355 265.891 369.921 266.017L366.501 266.398C366.298 266.523 366.037 266.6 365.718 266.628C365.293 266.665 364.564 266.596 363.531 266.419C362.547 266.184 361.76 266.066 361.171 266.064L362.586 284.893C364.446 284.729 365.694 284.619 366.332 284.563C367.505 284.513 368.473 284.562 369.236 284.709C370.675 284.636 371.937 284.686 373.023 284.858C374.544 285.099 375.369 285.963 375.5 287.451C375.57 288.248 375.368 288.988 374.892 289.673C374.417 290.357 373.755 290.737 372.904 290.811C372.639 290.835 372.342 290.807 372.014 290.729C371.092 290.596 369.863 290.624 368.327 290.812C366.578 291.02 365.328 291.103 364.574 291.062L363.06 291.195C363.24 292.625 363.586 294.736 364.099 297.529C364.517 299.848 364.78 301.618 364.888 302.84L364.923 303.238C367.94 303.455 370.989 303.428 374.071 303.157C376.036 302.984 377.108 303.907 377.286 305.926C377.309 306.191 377.306 306.459 377.276 306.73ZM408.066 300.167C407.173 305.224 404.309 307.966 399.474 308.391C398.571 308.47 397.18 308.486 395.302 308.437C393.424 308.388 392.033 308.403 391.13 308.482C390.652 308.524 390.026 308.713 389.252 309.049C388.841 309.246 388.583 309.349 388.476 309.358C387.361 309.456 386.35 309.224 385.444 308.661C384.537 308.099 384.047 307.392 383.972 306.542C383.528 301.495 383.048 293.908 382.532 283.781C382.012 273.6 381.529 265.987 381.086 260.94C380.833 258.071 384.134 256.335 390.987 255.732C397.15 255.19 401.639 259.052 404.454 267.317C405.895 271.527 406.992 277.908 407.744 286.462C408.16 291.19 408.354 293.395 408.326 293.076C408.521 295.897 408.434 298.26 408.066 300.167ZM389.359 262.782C389.572 265.815 389.91 270.871 390.372 277.951C390.745 284.022 391.081 288.757 391.38 292.158C391.45 292.955 391.63 294.384 391.918 296.447C392.202 298.457 392.381 300.181 392.454 301.62C395.316 301.904 397.6 301.997 399.305 301.901C400.033 300.445 400.38 298.915 400.346 297.312C400.392 296.612 400.342 295.438 400.197 293.791L399.63 287.336C398.41 273.47 395.911 265.15 392.134 262.377L389.359 262.782ZM449.433 303.997C446.298 304.273 443.973 304.316 442.458 304.128C439.697 303.782 438.244 302.786 438.099 301.139C437.655 296.092 436.622 288.607 434.999 278.684C433.43 268.757 432.426 261.296 431.987 256.302C431.767 253.805 433.039 252.435 435.801 252.192C437.873 252.01 439.3 253.009 440.08 255.189C442.031 260.317 443.4 266.756 444.188 274.503C444.457 276.942 444.724 280.292 444.992 284.551C445.336 289.072 445.599 292.368 445.781 294.44L446.02 297.15C447.3 297.091 449.055 296.963 451.286 296.767C452.885 296.68 454.198 296.698 455.226 296.822C457.601 297.041 458.864 298.001 459.013 299.701C459.214 301.985 457.03 303.329 452.461 303.73L449.433 303.997ZM464.188 299.246L460.123 253.024C460.043 252.121 460.425 251.284 461.267 250.514C462.163 249.739 463.275 249.294 464.603 249.177C465.931 249.06 467.104 249.305 468.121 249.911C469.138 250.518 469.686 251.273 469.766 252.176C470.158 256.639 470.856 263.35 471.858 272.31C472.855 281.217 473.553 287.928 473.95 292.444C474.198 295.26 474.187 297.269 473.918 298.47C473.317 300.772 471.768 302.032 469.271 302.252C467.943 302.369 466.77 302.124 465.753 301.517C464.789 300.906 464.268 300.149 464.188 299.246ZM493.761 258.819C493.329 258.161 492.6 257.181 491.575 255.879C490.511 254.742 488.78 253.93 486.382 253.445C485.806 255.423 485.563 256.917 485.652 257.926C485.759 259.148 486.824 260.902 488.845 263.187C492.055 266.813 495.265 270.439 498.475 274.065C501.924 278.58 503.828 282.883 504.188 286.974C504.931 295.421 501.318 299.995 493.349 300.696C490.214 300.972 487.515 300.112 485.252 298.116C483.161 296.265 481.99 293.905 481.738 291.037C481.476 288.061 482.116 286.506 483.656 286.37C485.25 286.23 486.684 287.014 487.959 288.723C488.324 289.226 488.884 290.113 489.639 291.386C490.393 292.658 491.187 293.766 492.019 294.71C495.149 294.381 496.578 292.676 496.307 289.594C495.887 284.813 493.882 280.278 490.292 275.989C487.029 272.368 483.737 268.722 480.416 265.052C478.665 262.797 477.701 260.66 477.523 258.641C477.285 255.932 477.823 253.529 479.138 251.432C480.54 249.114 482.596 247.835 485.305 247.597C489.024 247.27 492.723 248.229 496.4 250.476C500.078 252.722 502.048 255.333 502.309 258.308C502.379 259.105 501.989 259.836 501.137 260.499C500.333 261.105 499.374 261.458 498.258 261.556C496.611 261.701 495.112 260.788 493.761 258.819ZM520.488 271.165C520.717 273.768 521.008 277.678 521.359 282.894C521.706 288.056 521.992 291.913 522.216 294.463C522.291 295.313 521.958 296.092 521.217 296.8C520.472 297.454 519.541 297.83 518.425 297.929C517.31 298.027 516.328 297.819 515.479 297.304C514.626 296.737 514.162 296.028 514.088 295.178C513.863 292.628 513.578 288.771 513.231 283.609C512.932 278.388 512.671 274.503 512.446 271.953C511.806 264.674 510.788 257.964 509.391 251.823C504.508 252.306 501.973 251.485 501.786 249.36C501.716 248.563 502.053 247.837 502.799 247.183C503.54 246.475 504.468 246.072 505.584 245.974L522 244.53C523.116 244.432 524.1 244.666 524.953 245.234C525.802 245.748 526.261 246.404 526.331 247.201C526.504 249.167 524.815 250.359 521.265 250.778C520.681 250.83 519.432 250.94 517.519 251.108C518.868 257.307 519.857 263.993 520.488 271.165Z" fill="#393939"/>
<path d="M220.987 402.466C221.096 407.365 221.158 414.715 221.176 424.517C221.19 434.219 221.251 441.47 221.357 446.268C221.393 447.868 220.674 449.284 219.201 450.517C217.726 451.65 215.938 452.24 213.839 452.287C211.739 452.333 209.928 451.823 208.404 450.757C206.877 449.59 206.097 448.207 206.061 446.607C205.955 441.809 205.894 434.558 205.879 424.856C205.962 415.052 205.95 407.75 205.844 402.952C205.541 389.255 204.459 376.576 202.601 364.914C193.405 365.218 188.763 363.37 188.674 359.371C188.641 357.872 189.362 356.555 190.838 355.422C192.311 354.189 194.097 353.55 196.196 353.503L227.089 352.819C229.188 352.772 231.001 353.332 232.527 354.499C234.051 355.565 234.83 356.848 234.863 358.348C234.945 362.047 231.639 364.071 224.945 364.419C223.845 364.443 221.496 364.495 217.897 364.575C219.658 376.339 220.688 388.969 220.987 402.466ZM270.93 434.217C269.859 431.04 268.397 426.022 266.545 419.161C265.017 413.393 262.049 405.857 257.642 396.553L258.725 445.441C258.758 446.94 258.038 448.306 256.565 449.539C255.092 450.772 253.306 451.412 251.207 451.459C249.207 451.503 247.444 450.942 245.918 449.775C244.392 448.609 243.612 447.276 243.579 445.776L241.655 358.947C241.613 357.048 242.628 355.475 244.701 354.229C246.772 352.883 249.257 352.177 252.156 352.113L264.453 351.841C270.752 351.701 276.171 354.782 280.712 361.083C284.739 366.795 286.824 372.85 286.966 379.249C287.145 387.347 282.935 393.692 274.334 398.283C275.485 400.558 278.675 409.09 283.904 423.877C289.121 438.165 291.734 445.459 291.74 445.759C291.774 447.259 290.954 448.627 289.281 449.865C287.705 451 285.868 451.591 283.769 451.637C279.27 451.737 274.99 445.93 270.93 434.217ZM256.914 363.711L257.499 390.104C262.585 389.391 266.164 388.412 268.237 387.166C270.703 385.611 271.897 383.083 271.82 379.584C271.66 372.386 268.641 367.052 262.763 363.581L256.914 363.711ZM344.082 442.649C344.193 443.147 344.256 443.695 344.269 444.295C344.357 448.294 341.303 450.363 335.104 450.5C327.506 450.668 322.049 450.439 318.735 449.812L313.936 449.919C313.538 450.027 313.089 450.087 312.59 450.098C310.39 450.147 308.428 449.641 306.704 448.578C304.978 447.416 304.099 446.086 304.065 444.586C304.039 443.386 304.249 441.581 304.696 439.171C305.24 436.658 305.498 434.752 305.469 433.452C305.416 431.053 305.087 427.509 304.483 422.821C303.877 418.034 303.547 414.44 303.494 412.041C303.359 405.942 303.308 396.841 303.339 384.737C303.471 372.631 303.47 363.529 303.335 357.431C303.246 353.432 305.051 351.391 308.75 351.309C310.05 351.28 311.503 351.398 313.109 351.663C314.185 350.539 315.572 349.958 317.272 349.92C320.971 349.838 327.833 350.336 337.86 351.415C341.168 351.741 342.857 353.504 342.928 356.704C342.977 358.903 342.164 360.571 340.488 361.709C339.744 364.226 338.022 365.514 335.323 365.574L328.878 365.867C328.482 366.076 327.985 366.187 327.385 366.2C326.585 366.218 325.23 365.998 323.319 365.54C321.506 364.98 320.049 364.662 318.947 364.587L319.281 399.988C322.78 399.91 325.13 399.858 326.329 399.832C328.531 399.883 330.336 400.093 331.745 400.462C334.446 400.502 336.802 400.75 338.813 401.206C341.628 401.843 343.066 403.562 343.128 406.361C343.161 407.861 342.692 409.222 341.718 410.444C340.745 411.665 339.459 412.294 337.859 412.329C337.359 412.341 336.807 412.253 336.203 412.066C334.494 411.704 332.192 411.605 329.295 411.769C325.998 411.942 323.647 411.944 322.243 411.775L319.394 411.838C319.554 414.536 319.942 418.528 320.559 423.816C321.057 428.206 321.331 431.55 321.382 433.85L321.398 434.6C327.017 435.375 332.726 435.699 338.524 435.57C342.223 435.488 344.115 437.347 344.199 441.146C344.21 441.646 344.171 442.147 344.082 442.649ZM396.657 441.484C396.768 441.982 396.831 442.531 396.844 443.13C396.932 447.129 393.877 449.198 387.679 449.335C380.081 449.503 374.624 449.274 371.31 448.647L366.511 448.754C366.113 448.863 365.664 448.923 365.165 448.934C362.965 448.982 361.003 448.476 359.279 447.414C357.553 446.252 356.674 444.921 356.64 443.421C356.614 442.221 356.824 440.416 357.271 438.006C357.815 435.493 358.073 433.587 358.044 432.287C357.991 429.888 357.662 426.344 357.058 421.656C356.452 416.869 356.122 413.275 356.069 410.876C355.934 404.777 355.883 395.676 355.914 383.572C356.046 371.467 356.045 362.364 355.91 356.266C355.821 352.267 357.626 350.226 361.325 350.144C362.625 350.116 364.078 350.233 365.684 350.498C366.76 349.374 368.147 348.793 369.847 348.755C373.546 348.673 380.408 349.171 390.435 350.25C393.743 350.576 395.432 352.339 395.503 355.539C395.552 357.738 394.739 359.407 393.063 360.544C392.319 363.061 390.597 364.349 387.898 364.409L381.453 364.702C381.057 364.911 380.56 365.022 379.96 365.035C379.16 365.053 377.805 364.833 375.894 364.375C374.081 363.815 372.624 363.497 371.522 363.422L371.856 398.823C375.355 398.746 377.705 398.693 378.904 398.667C381.106 398.718 382.911 398.928 384.32 399.297C387.021 399.337 389.377 399.585 391.388 400.041C394.203 400.679 395.641 402.397 395.703 405.196C395.736 406.696 395.266 408.057 394.293 409.279C393.32 410.5 392.034 411.129 390.434 411.165C389.934 411.176 389.382 411.088 388.778 410.901C387.069 410.539 384.767 410.44 381.87 410.604C378.573 410.777 376.222 410.779 374.818 410.61L371.969 410.673C372.129 413.371 372.517 417.363 373.134 422.651C373.632 427.041 373.906 430.385 373.957 432.685L373.973 433.435C379.592 434.21 385.301 434.534 391.099 434.406C394.798 434.324 396.69 436.182 396.774 439.981C396.785 440.481 396.746 440.982 396.657 441.484ZM486.931 415.478C483.786 436.053 477.614 446.442 468.417 446.646C465.817 446.703 463.678 444.95 461.999 441.387C459.375 435.843 455.507 421.526 450.394 398.433C445.281 375.341 442.654 360.595 442.512 354.197C442.415 349.798 444.916 347.542 450.014 347.429C454.613 347.327 458.551 353.492 461.827 365.922C463.02 370.097 464.303 376.12 465.678 383.991C468.088 397.941 469.632 406.709 470.312 410.295C472.777 390.636 473.808 371.708 473.405 353.512C473.372 352.013 474.093 350.697 475.568 349.564C477.041 348.331 478.827 347.691 480.927 347.644C483.026 347.598 484.839 348.158 486.365 349.324C487.889 350.391 488.668 351.674 488.701 353.174L489.08 370.269C489.479 388.265 488.762 403.335 486.931 415.478ZM502.926 439.43L500.999 352.451C500.961 350.751 501.777 349.233 503.448 347.896C505.219 346.556 507.354 345.859 509.853 345.803C512.353 345.748 514.517 346.35 516.345 347.61C518.173 348.87 519.106 350.349 519.144 352.049C519.33 360.447 519.81 373.089 520.585 389.976C521.357 406.763 521.837 419.406 522.025 427.904C522.143 433.202 521.876 436.959 521.225 439.174C519.818 443.406 516.765 445.575 512.066 445.679C509.567 445.734 507.403 445.132 505.575 443.872C503.846 442.61 502.963 441.129 502.926 439.43ZM577.228 437.483C577.339 437.981 577.401 438.53 577.415 439.13C577.503 443.129 574.448 445.197 568.25 445.334C560.652 445.502 555.195 445.273 551.881 444.646L547.082 444.753C546.684 444.862 546.235 444.922 545.736 444.933C543.536 444.981 541.574 444.475 539.85 443.413C538.124 442.251 537.245 440.92 537.211 439.42C537.185 438.22 537.395 436.415 537.842 434.005C538.386 431.492 538.644 429.586 538.615 428.286C538.562 425.887 538.233 422.343 537.629 417.656C537.023 412.868 536.693 409.274 536.64 406.875C536.505 400.776 536.453 391.675 536.485 379.572C536.617 367.466 536.616 358.363 536.481 352.265C536.392 348.266 538.197 346.225 541.896 346.143C543.196 346.115 544.649 346.233 546.255 346.497C547.33 345.373 548.718 344.792 550.418 344.754C554.117 344.672 560.979 345.171 571.006 346.249C574.314 346.576 576.003 348.339 576.074 351.538C576.123 353.737 575.31 355.406 573.634 356.543C572.89 359.06 571.168 360.349 568.469 360.408L562.024 360.701C561.628 360.91 561.131 361.021 560.531 361.034C559.731 361.052 558.376 360.832 556.465 360.374C554.652 359.814 553.195 359.496 552.093 359.421L552.427 394.822C555.926 394.745 558.276 394.693 559.475 394.666C561.677 394.717 563.482 394.927 564.891 395.296C567.592 395.336 569.948 395.584 571.959 396.04C574.774 396.678 576.212 398.396 576.274 401.195C576.307 402.695 575.837 404.056 574.864 405.278C573.891 406.5 572.605 407.128 571.005 407.164C570.505 407.175 569.953 407.087 569.349 406.9C567.64 406.538 565.338 406.439 562.441 406.603C559.144 406.776 556.793 406.778 555.389 406.609L552.54 406.673C552.699 409.37 553.088 413.362 553.705 418.65C554.203 423.04 554.477 426.385 554.528 428.684L554.544 429.434C560.163 430.209 565.871 430.533 571.67 430.405C575.369 430.323 577.261 432.181 577.345 435.98C577.356 436.48 577.317 436.981 577.228 437.483ZM637.001 442.911C631.902 443.024 627.326 441.875 623.271 439.464C619.828 442.041 616.306 443.369 612.707 443.449C606.109 443.595 601.288 440.451 598.244 434.017C597.296 431.837 595.761 425.77 593.64 415.814C589.063 394.311 586.526 372.361 586.03 349.967C585.992 348.267 586.66 346.802 588.033 345.571C589.506 344.338 591.242 343.7 593.242 343.656C595.241 343.611 596.954 344.173 598.38 345.342C599.906 346.509 600.688 347.942 600.726 349.641C601.229 372.336 605.287 402.003 612.901 438.643C614.354 427.508 615.086 417.64 615.095 409.037C615.106 409.537 614.973 403.539 614.697 391.042C614.654 389.142 615.319 387.527 616.69 386.197C618.158 384.764 619.892 384.025 621.892 383.981C626.291 383.883 628.968 387.325 629.923 394.305C630.282 396.998 630.408 400.396 630.298 404.5C630.123 410.105 630.031 412.758 630.025 412.458C630.14 417.656 631.323 423.632 633.573 430.383L638.078 430.584C643.604 422.659 646.011 402.651 645.3 370.559C645.252 368.359 644.78 365.119 643.885 360.838C642.987 356.457 642.514 353.166 642.466 350.967C642.43 349.367 643.15 348.001 644.625 346.868C646.198 345.633 647.985 344.993 649.984 344.949C654.583 344.847 657.668 348.63 659.238 356.297C659.911 359.583 660.329 364.925 660.493 372.323C660.912 391.218 660.227 405.437 658.438 414.979C655.044 433.359 647.898 442.669 637.001 442.911Z" fill="#393939"/>
<path d="M113.293 299.998L539.496 269.039" stroke="#393939" stroke-width="4" stroke-linecap="round"/>
</svg>
