<svg width="767" height="565" viewBox="0 0 767 565" fill="none" xmlns="http://www.w3.org/2000/svg">
<g clip-path="url(#clip0_1_2)">
<rect x="-4.72934" y="34.4706" width="749.005" height="535.96" rx="44.5" transform="rotate(-3 -4.72934 34.4706)" fill="#E30713" stroke="white" stroke-width="9"/>
<rect x="28.294" y="196.464" width="700" height="348" rx="26" transform="rotate(-3 28.294 196.464)" fill="white"/>
<path d="M219.577 120.349L218.265 95.3273L194.969 96.5482L196.281 121.57L175.094 122.68L171.637 56.7227L192.824 55.6124L194.085 79.6754L217.381 78.4545L216.12 54.3915L237.307 53.2811L240.764 119.239L219.577 120.349ZM265.877 51.7839L322.918 48.7944L323.747 64.6127L287.893 66.4918L288.37 75.5993L319.048 73.9915L319.842 89.1388L289.164 90.7465L289.691 100.813L326.217 98.8985L327.046 114.717L269.333 117.741L265.877 51.7839ZM349.443 47.4043L370.63 46.294L373.203 95.3786L407.044 93.605L407.928 110.478L352.9 113.362L349.443 47.4043ZM427.767 43.2996L448.954 42.1892L451.526 91.2738L485.368 89.5003L486.252 106.373L431.224 109.257L427.767 43.2996ZM537.226 36.4095C548.602 35.8133 557.543 38.2607 564.047 43.7518C570.551 49.243 574.095 57.5489 574.678 68.6696C575.26 79.7904 572.604 88.4212 566.71 94.5621C560.815 100.703 552.179 104.072 540.803 104.668C529.427 105.264 520.488 102.849 513.987 97.4213C507.547 91.9268 504.033 83.5873 503.447 72.4026C502.861 61.218 505.485 52.5888 511.319 46.5152C517.214 40.3743 525.849 37.0057 537.226 36.4095ZM538.055 52.2278C533.517 52.4656 530.138 54.0206 527.917 56.8927C525.696 59.7649 524.708 63.5338 524.953 68.1994L525.274 74.3349C525.519 79.0005 526.895 82.6455 529.404 85.2698C531.913 87.8941 535.436 89.0873 539.974 88.8495C544.512 88.6117 547.891 87.0567 550.112 84.1845C552.396 81.309 553.417 77.5385 553.172 72.8729L552.85 66.7373C552.606 62.0717 551.197 58.4284 548.625 55.8075C546.116 53.1832 542.593 51.99 538.055 52.2278Z" fill="white"/>
<path d="M268.527 160.843L268.008 150.936C267.944 149.711 267.918 148.458 267.931 147.175C267.969 145.865 268.018 144.767 268.079 143.883C268.139 142.998 268.176 142.436 268.19 142.195L268.031 142.203L263.933 161.083L257.023 161.446L250.936 143.139L250.776 143.147C250.816 143.386 250.912 143.941 251.064 144.815C251.242 145.66 251.418 146.732 251.593 148.031C251.767 149.304 251.886 150.553 251.95 151.778L252.469 161.684L244.36 162.109L242.92 134.627L255.383 133.974L260.368 149.614L260.528 149.606L263.811 133.532L275.835 132.902L277.275 160.384L268.527 160.843ZM299.698 159.209L290.87 159.672L290.311 149.006L278.524 132.761L288.67 132.229L294.423 141.1L294.582 141.092L299.376 131.668L309.003 131.164L299.139 148.544L299.698 159.209ZM346.686 156.746L334.443 144.01L335.142 157.351L327.033 157.776L325.593 130.294L333.302 129.89L345.556 142.827L344.846 129.285L352.955 128.86L354.396 156.342L346.686 156.746ZM378.332 155.088L376.971 151.274L367.344 151.778L366.389 155.714L357.361 156.187L365.947 128.179L376.213 127.641L387.68 154.598L378.332 155.088ZM368.859 145.531L374.811 145.219L371.422 135.583L371.262 135.591L368.859 145.531ZM414.615 153.186L414.096 143.28C414.032 142.055 414.006 140.801 414.019 139.519C414.057 138.208 414.107 137.111 414.167 136.227C414.228 135.342 414.265 134.78 414.279 134.538L414.119 134.547L410.022 153.427L403.111 153.789L397.025 135.483L396.865 135.491C396.904 135.729 397 136.285 397.153 137.158C397.331 138.004 397.507 139.076 397.682 140.375C397.855 141.648 397.974 142.897 398.038 144.122L398.558 154.028L390.449 154.453L389.008 126.971L401.471 126.318L406.457 141.958L406.616 141.95L409.9 125.876L421.923 125.246L423.363 152.728L414.615 153.186ZM427.289 124.964L451.057 123.719L451.402 130.31L436.463 131.093L436.661 134.888L449.444 134.218L449.775 140.529L436.992 141.199L437.212 145.393L452.431 144.596L452.777 151.186L428.73 152.447L427.289 124.964ZM471.259 150.218L469.818 122.736L478.646 122.273L480.087 149.755L471.259 150.218ZM496.464 120.859C499.979 120.674 502.906 121.242 505.245 122.561C507.582 123.854 508.851 125.897 509.051 128.691L509.076 129.17L500.807 129.603L500.799 129.443C500.757 128.645 500.429 127.994 499.815 127.492C499.202 126.99 498.295 126.771 497.097 126.834C495.925 126.895 495.029 127.116 494.408 127.495C493.814 127.873 493.53 128.316 493.556 128.822C493.594 129.541 494.048 130.051 494.918 130.352C495.789 130.654 497.179 130.942 499.089 131.215C501.323 131.552 503.159 131.937 504.597 132.369C506.06 132.773 507.354 133.506 508.478 134.569C509.601 135.631 510.227 137.121 510.354 139.036C510.524 142.285 509.545 144.753 507.417 146.44C505.316 148.126 502.428 149.065 498.753 149.258C494.466 149.482 491.086 148.938 488.614 147.626C486.168 146.312 484.85 143.831 484.659 140.183L493.007 139.745C493.08 141.13 493.488 142.043 494.232 142.485C494.975 142.9 496.105 143.068 497.623 142.988C498.742 142.93 499.654 142.762 500.361 142.484C501.094 142.205 501.441 141.693 501.402 140.948C501.367 140.282 500.928 139.811 500.086 139.535C499.269 139.23 497.932 138.94 496.075 138.663C493.813 138.301 491.936 137.906 490.445 137.476C488.952 137.02 487.629 136.222 486.474 135.081C485.32 133.94 484.688 132.344 484.581 130.293C484.423 127.284 485.466 125.013 487.709 123.48C489.977 121.919 492.895 121.046 496.464 120.859Z" fill="white"/>
<path d="M142.243 313.039C142.375 313.937 142.561 315.741 142.799 318.451C142.869 319.248 142.531 319.974 141.786 320.628C141.04 321.283 140.136 321.657 139.074 321.75C137.214 321.914 135.696 321.084 134.518 319.26C132.357 320.253 130.453 320.822 128.806 320.967C124.024 321.387 120.784 318.942 119.085 313.63C118.425 311.6 117.935 309.073 117.616 306.05C117.532 305.094 117.424 303.872 117.293 302.384C117.201 300.732 117.137 299.694 117.1 299.269C116.819 296.081 116.213 291.316 115.28 284.973C114.4 278.626 113.821 273.859 113.54 270.671C113.461 269.768 113.765 268.965 114.453 268.262C115.193 267.554 116.122 267.151 117.237 267.053C120.584 266.759 122.914 271.934 124.225 282.581C124.702 286.179 125.034 290.567 125.222 295.744C125.475 301.664 125.604 304.651 125.608 304.704C125.8 306.883 125.991 308.445 126.181 309.392C126.5 311.185 127.317 313.174 128.634 315.36C132.161 312.855 133.574 306.092 132.872 295.071C132.684 291.714 132.331 287.703 131.814 283.037C131.164 277.473 130.846 274.77 130.86 274.93C130.673 272.805 130.709 271.383 130.967 270.664C131.39 269.395 132.532 268.679 134.392 268.516C137.207 268.268 139.105 271.581 140.084 278.455C140.279 279.455 140.447 280.752 140.587 282.346C141.54 293.184 141.54 301.697 140.585 307.884C141.348 309.263 141.901 310.981 142.243 313.039ZM166.17 307.642C165.422 305.834 164.361 302.902 162.987 298.847C161.838 295.521 159.868 291.385 157.077 286.437C158.453 299.647 159.396 309.148 159.905 314.939C159.985 315.842 159.656 316.674 158.92 317.435C158.232 318.138 157.331 318.538 156.215 318.636C155.152 318.73 154.195 318.493 153.342 317.925C152.484 317.305 152.015 316.543 151.936 315.64C151.497 310.646 150.756 303.135 149.713 293.108C148.666 283.027 147.92 275.464 147.476 270.416C147.294 268.344 148.983 267.152 152.543 266.839C156.102 266.526 157.973 267.405 158.155 269.477C158.38 272.027 159.183 274.768 160.565 277.698C161.28 279.134 163.791 283.33 168.097 290.286C167.745 286.891 167.377 283.63 166.996 280.505C166.646 277.752 166.439 276.003 166.373 275.259C166.074 271.859 166.026 269.481 166.228 268.125C166.604 265.093 167.828 263.487 169.9 263.304C172.503 263.075 174.162 265.499 174.876 270.576C175.141 272.373 175.289 274.663 175.319 277.444C175.329 280.602 175.346 282.314 175.369 282.579C175.669 285.98 176.33 291.061 177.353 297.824C178.424 304.529 179.11 309.582 179.409 312.982C179.488 313.886 178.932 314.871 177.742 315.94C176.546 316.955 175.337 317.517 174.115 317.624C171.671 317.839 169.023 314.512 166.17 307.642ZM210.96 307.236C209.801 312.317 206.831 315.068 202.049 315.488C191.583 316.409 185.572 308.023 184.016 290.332C183.371 283 183.354 277.326 183.964 273.311C185.121 265.767 188.25 261.771 193.35 261.322C199.566 260.775 204.219 264.676 207.309 273.024C209.014 277.8 210.256 284.624 211.037 293.496C211.598 299.872 211.572 304.451 210.96 307.236ZM194.503 268.047C191.91 271.434 191.097 278.626 192.065 289.624C192.401 293.449 193.235 297.15 194.567 300.727C196.598 306.17 199.184 308.78 202.323 308.558C203.183 306.769 203.644 305.015 203.707 303.296C203.729 302.33 203.656 300.891 203.488 298.979C202.297 285.431 200.071 275.347 196.812 268.727L194.503 268.047ZM234.661 302.742C233.98 301.089 233.027 298.469 231.801 294.882C230.786 291.866 228.944 287.959 226.273 283.162L228.558 309.141C228.628 309.938 228.293 310.69 227.552 311.398C226.811 312.106 225.883 312.509 224.767 312.607C223.705 312.7 222.747 312.463 221.894 311.896C221.041 311.328 220.579 310.646 220.509 309.849L216.451 263.707C216.362 262.698 216.847 261.825 217.907 261.09C218.962 260.301 220.26 259.839 221.801 259.703L228.335 259.128C231.682 258.834 234.674 260.284 237.311 263.479C239.654 266.378 240.975 269.528 241.274 272.928C241.653 277.231 239.634 280.755 235.217 283.499C235.909 284.67 237.905 289.099 241.204 296.786C244.48 304.207 246.126 307.998 246.14 308.157C246.21 308.954 245.821 309.711 244.974 310.428C244.175 311.087 243.218 311.466 242.103 311.564C239.712 311.774 237.231 308.833 234.661 302.742ZM224.738 265.709L225.972 279.735C228.653 279.178 230.524 278.531 231.583 277.796C232.841 276.882 233.389 275.495 233.225 273.636C232.889 269.811 231.096 267.077 227.846 265.436L224.738 265.709ZM276.738 300.567C275.844 305.625 272.98 308.366 268.145 308.791C267.242 308.871 265.852 308.886 263.973 308.837C262.095 308.788 260.704 308.803 259.801 308.883C259.323 308.925 258.697 309.114 257.924 309.449C257.513 309.646 257.254 309.749 257.148 309.759C256.032 309.857 255.021 309.624 254.115 309.062C253.209 308.499 252.719 307.793 252.644 306.942C252.2 301.895 251.72 294.308 251.204 284.181C250.683 274.001 250.201 266.387 249.757 261.34C249.505 258.471 252.805 256.735 259.659 256.132C265.822 255.59 270.311 259.452 273.126 267.717C274.567 271.927 275.663 278.309 276.416 286.862C276.832 291.591 277.026 293.796 276.998 293.477C277.192 296.297 277.106 298.661 276.738 300.567ZM258.03 263.182C258.244 266.215 258.581 271.272 259.043 278.352C259.417 284.422 259.753 289.158 260.052 292.558C260.122 293.355 260.301 294.785 260.59 296.847C260.874 298.857 261.052 300.581 261.125 302.02C263.988 302.304 266.271 302.398 267.976 302.301C268.705 300.845 269.052 299.315 269.018 297.712C269.064 297.012 269.014 295.839 268.869 294.192L268.301 287.737C267.082 273.87 264.583 265.551 260.806 262.778L258.03 263.182ZM307.195 301.743C307.272 302.004 307.324 302.294 307.352 302.612C307.539 304.738 305.986 305.945 302.692 306.235C298.654 306.59 295.742 306.659 293.956 306.441L291.406 306.665C291.198 306.737 290.961 306.785 290.696 306.808C289.527 306.911 288.465 306.71 287.511 306.205C286.551 305.647 286.037 304.969 285.967 304.172C285.911 303.535 285.959 302.567 286.113 301.268C286.315 299.912 286.385 298.888 286.325 298.198C286.212 296.923 285.914 295.048 285.428 292.575C284.939 290.048 284.637 288.147 284.525 286.872C284.24 283.631 283.895 278.789 283.489 272.347C283.136 265.9 282.817 261.056 282.532 257.815C282.345 255.69 283.234 254.541 285.2 254.368C285.891 254.307 286.668 254.319 287.532 254.404C288.065 253.768 288.783 253.41 289.686 253.331C291.652 253.158 295.322 253.183 300.695 253.406C302.467 253.465 303.428 254.344 303.578 256.044C303.68 257.213 303.306 258.129 302.454 258.793C302.146 260.159 301.275 260.905 299.84 261.031L296.42 261.412C296.217 261.537 295.956 261.613 295.637 261.641C295.212 261.679 294.483 261.609 293.451 261.432C292.466 261.197 291.68 261.079 291.091 261.077L292.506 279.906C294.365 279.742 295.614 279.633 296.251 279.576C297.425 279.527 298.393 279.575 299.155 279.723C300.594 279.65 301.857 279.699 302.943 279.871C304.463 280.112 305.289 280.977 305.42 282.464C305.49 283.261 305.287 284.002 304.812 284.686C304.337 285.37 303.674 285.75 302.824 285.825C302.558 285.848 302.261 285.821 301.933 285.742C301.011 285.609 299.782 285.637 298.246 285.826C296.498 286.033 295.247 286.116 294.494 286.075L292.98 286.209C293.159 287.638 293.505 289.75 294.019 292.542C294.437 294.861 294.7 296.631 294.807 297.853L294.842 298.252C297.859 298.468 300.909 298.441 303.99 298.17C305.956 297.997 307.027 298.92 307.205 300.939C307.228 301.205 307.225 301.472 307.195 301.743ZM328.05 294.528C327.37 292.874 326.416 290.255 325.191 286.668C324.176 283.652 322.333 279.745 319.663 274.947L321.948 300.927C322.018 301.724 321.682 302.476 320.941 303.184C320.201 303.892 319.272 304.294 318.157 304.393C317.094 304.486 316.136 304.249 315.283 303.682C314.43 303.114 313.969 302.432 313.899 301.635L309.84 255.493C309.751 254.484 310.237 253.611 311.297 252.876C312.351 252.087 313.649 251.625 315.19 251.489L321.725 250.914C325.072 250.62 328.064 252.07 330.7 255.265C333.043 258.164 334.365 261.314 334.664 264.714C335.042 269.017 333.023 272.541 328.607 275.285C329.298 276.456 331.294 280.884 334.594 288.572C337.87 295.993 339.515 299.784 339.529 299.943C339.599 300.74 339.211 301.497 338.363 302.214C337.565 302.873 336.608 303.252 335.492 303.35C333.101 303.56 330.621 300.619 328.05 294.528ZM318.127 257.495L319.361 271.521C322.043 270.964 323.913 270.317 324.973 269.582C326.231 268.668 326.778 267.281 326.615 265.422C326.278 261.596 324.485 258.863 321.235 257.221L318.127 257.495ZM367.276 296.458C367.353 296.719 367.405 297.009 367.433 297.328C367.62 299.453 366.066 300.661 362.772 300.95C358.735 301.305 355.823 301.374 354.037 301.156L351.487 301.381C351.279 301.453 351.042 301.5 350.776 301.524C349.608 301.626 348.546 301.425 347.591 300.92C346.632 300.362 346.117 299.685 346.047 298.888C345.991 298.25 346.04 297.282 346.193 295.984C346.395 294.628 346.466 293.604 346.405 292.913C346.293 291.638 345.994 289.764 345.509 287.29C345.019 284.764 344.718 282.863 344.606 281.587C344.321 278.347 343.975 273.505 343.569 267.062C343.216 260.615 342.897 255.771 342.612 252.53C342.425 250.405 343.315 249.256 345.281 249.083C345.971 249.023 346.749 249.035 347.613 249.119C348.146 248.483 348.864 248.126 349.767 248.046C351.733 247.873 355.402 247.899 360.776 248.122C362.548 248.18 363.509 249.06 363.658 250.76C363.761 251.928 363.386 252.845 362.535 253.509C362.226 254.874 361.355 255.62 359.921 255.746L356.501 256.127C356.298 256.252 356.037 256.329 355.718 256.357C355.293 256.394 354.564 256.324 353.531 256.148C352.547 255.913 351.76 255.795 351.171 255.793L352.586 274.621C354.446 274.458 355.694 274.348 356.332 274.292C357.505 274.242 358.473 274.291 359.236 274.438C360.675 274.365 361.937 274.415 363.023 274.587C364.544 274.828 365.369 275.692 365.5 277.18C365.57 277.977 365.368 278.717 364.892 279.402C364.417 280.086 363.755 280.465 362.904 280.54C362.639 280.564 362.342 280.536 362.014 280.458C361.092 280.325 359.863 280.353 358.327 280.541C356.578 280.749 355.328 280.832 354.574 280.791L353.06 280.924C353.24 282.354 353.586 284.465 354.099 287.258C354.517 289.576 354.78 291.347 354.888 292.569L354.923 292.967C357.94 293.184 360.989 293.157 364.071 292.885C366.036 292.713 367.108 293.636 367.286 295.654C367.309 295.92 367.306 296.188 367.276 296.458ZM398.066 289.895C397.173 294.953 394.309 297.695 389.474 298.12C388.571 298.199 387.18 298.215 385.302 298.166C383.424 298.117 382.033 298.132 381.13 298.211C380.652 298.253 380.026 298.442 379.252 298.778C378.841 298.975 378.583 299.078 378.476 299.087C377.361 299.185 376.35 298.953 375.444 298.39C374.537 297.827 374.047 297.121 373.972 296.271C373.528 291.224 373.048 283.637 372.532 273.51C372.012 263.329 371.529 255.716 371.086 250.669C370.833 247.8 374.134 246.064 380.987 245.461C387.15 244.919 391.639 248.78 394.454 257.046C395.895 261.255 396.992 267.637 397.744 276.191C398.16 280.919 398.354 283.124 398.326 282.805C398.521 285.626 398.434 287.989 398.066 289.895ZM379.359 252.511C379.572 255.544 379.91 260.6 380.372 267.68C380.745 273.751 381.081 278.486 381.38 281.887C381.45 282.683 381.63 284.113 381.918 286.176C382.202 288.185 382.381 289.91 382.454 291.349C385.316 291.633 387.6 291.726 389.305 291.63C390.033 290.174 390.38 288.644 390.346 287.041C390.392 286.341 390.342 285.167 390.197 283.52L389.63 277.065C388.41 263.199 385.911 254.879 382.134 252.106L379.359 252.511ZM439.433 293.726C436.298 294.001 433.973 294.045 432.458 293.857C429.697 293.511 428.244 292.515 428.099 290.868C427.655 285.821 426.622 278.336 424.999 268.413C423.43 258.486 422.426 251.025 421.987 246.031C421.767 243.534 423.039 242.164 425.801 241.921C427.873 241.739 429.3 242.737 430.08 244.917C432.031 250.046 433.4 256.484 434.188 264.232C434.457 266.671 434.724 270.02 434.992 274.28C435.336 278.801 435.599 282.097 435.781 284.169L436.02 286.878C437.3 286.819 439.055 286.692 441.286 286.495C442.885 286.408 444.198 286.427 445.226 286.55C447.601 286.77 448.864 287.73 449.013 289.43C449.214 291.714 447.03 293.057 442.461 293.459L439.433 293.726ZM454.188 288.975L450.123 242.753C450.043 241.85 450.425 241.013 451.267 240.243C452.163 239.468 453.275 239.023 454.603 238.906C455.931 238.789 457.104 239.034 458.121 239.64C459.138 240.247 459.686 241.002 459.766 241.905C460.158 246.368 460.856 253.079 461.858 262.039C462.855 270.946 463.553 277.657 463.95 282.173C464.198 284.989 464.187 286.998 463.918 288.199C463.317 290.501 461.768 291.761 459.271 291.981C457.943 292.098 456.77 291.853 455.753 291.246C454.789 290.635 454.268 289.878 454.188 288.975ZM483.761 248.548C483.329 247.89 482.6 246.91 481.575 245.608C480.511 244.47 478.78 243.659 476.382 243.174C475.806 245.152 475.563 246.646 475.652 247.655C475.759 248.877 476.824 250.631 478.845 252.916C482.055 256.542 485.265 260.168 488.475 263.794C491.924 268.309 493.828 272.612 494.188 276.703C494.931 285.15 491.318 289.724 483.349 290.425C480.214 290.701 477.515 289.841 475.252 287.845C473.161 285.994 471.99 283.634 471.738 280.765C471.476 277.79 472.116 276.235 473.656 276.099C475.25 275.959 476.684 276.743 477.959 278.451C478.324 278.955 478.884 279.842 479.639 281.114C480.393 282.387 481.187 283.495 482.019 284.439C485.149 284.11 486.578 282.405 486.307 279.323C485.887 274.542 483.882 270.007 480.292 265.718C477.029 262.097 473.737 258.451 470.416 254.781C468.665 252.526 467.701 250.389 467.523 248.37C467.285 245.661 467.823 243.257 469.138 241.161C470.54 238.842 472.596 237.564 475.305 237.326C479.024 236.999 482.723 237.958 486.4 240.205C490.078 242.451 492.048 245.062 492.309 248.037C492.379 248.834 491.989 249.564 491.137 250.228C490.333 250.834 489.374 251.186 488.258 251.285C486.611 251.429 485.112 250.517 483.761 248.548ZM510.488 260.894C510.717 263.497 511.008 267.407 511.359 272.623C511.706 277.785 511.992 281.642 512.216 284.192C512.291 285.042 511.958 285.821 511.217 286.528C510.472 287.183 509.541 287.559 508.425 287.657C507.31 287.756 506.328 287.547 505.479 287.033C504.626 286.466 504.162 285.757 504.088 284.907C503.863 282.357 503.578 278.5 503.231 273.338C502.932 268.117 502.671 264.232 502.446 261.681C501.806 254.403 500.788 247.693 499.391 241.552C494.508 242.035 491.973 241.214 491.786 239.089C491.716 238.292 492.053 237.566 492.799 236.911C493.54 236.204 494.468 235.801 495.584 235.703L512 234.259C513.116 234.161 514.1 234.395 514.953 234.963C515.802 235.477 516.261 236.133 516.331 236.93C516.504 238.895 514.815 240.088 511.265 240.507C510.681 240.559 509.432 240.669 507.519 240.837C508.868 247.036 509.857 253.721 510.488 260.894Z" fill="#393939"/>
<path d="M210.987 392.195C211.096 397.094 211.158 404.444 211.176 414.246C211.19 423.948 211.251 431.199 211.357 435.997C211.393 437.597 210.674 439.013 209.201 440.246C207.726 441.379 205.938 441.969 203.839 442.015C201.739 442.062 199.928 441.552 198.404 440.485C196.877 439.319 196.097 437.936 196.061 436.336C195.955 431.537 195.894 424.287 195.879 414.585C195.962 404.781 195.95 397.479 195.844 392.68C195.541 378.984 194.459 366.305 192.601 354.643C183.405 354.947 178.763 353.099 178.674 349.1C178.641 347.6 179.362 346.284 180.838 345.151C182.311 343.918 184.097 343.278 186.196 343.232L217.089 342.547C219.188 342.501 221.001 343.061 222.527 344.227C224.051 345.294 224.83 346.577 224.863 348.077C224.945 351.776 221.639 353.799 214.945 354.148C213.845 354.172 211.496 354.224 207.897 354.304C209.658 366.068 210.688 378.698 210.987 392.195ZM260.93 423.946C259.859 420.769 258.397 415.75 256.545 408.89C255.017 403.122 252.049 395.586 247.642 386.281L248.725 435.169C248.758 436.669 248.038 438.035 246.565 439.268C245.092 440.501 243.306 441.141 241.207 441.187C239.207 441.232 237.444 440.671 235.918 439.504C234.392 438.338 233.612 437.005 233.579 435.505L231.655 348.676C231.613 346.777 232.628 345.204 234.701 343.958C236.772 342.611 239.257 341.906 242.156 341.842L254.453 341.57C260.752 341.43 266.171 344.511 270.712 350.812C274.739 356.524 276.824 362.579 276.966 368.978C277.145 377.076 272.935 383.42 264.334 388.012C265.485 390.287 268.675 398.819 273.904 413.606C279.121 427.894 281.734 435.188 281.74 435.488C281.774 436.988 280.954 438.356 279.281 439.594C277.705 440.729 275.868 441.32 273.769 441.366C269.27 441.466 264.99 435.659 260.93 423.946ZM246.914 353.439L247.499 379.833C252.585 379.12 256.164 378.141 258.237 376.894C260.703 375.339 261.897 372.812 261.82 369.313C261.66 362.115 258.641 356.781 252.763 353.31L246.914 353.439ZM334.082 432.378C334.193 432.876 334.256 433.424 334.269 434.024C334.357 438.023 331.303 440.091 325.104 440.229C317.506 440.397 312.049 440.168 308.735 439.541L303.936 439.648C303.538 439.756 303.089 439.816 302.59 439.827C300.39 439.876 298.428 439.369 296.704 438.307C294.978 437.145 294.099 435.814 294.065 434.315C294.039 433.115 294.249 431.31 294.696 428.9C295.24 426.387 295.498 424.481 295.469 423.181C295.416 420.782 295.087 417.238 294.483 412.55C293.877 407.763 293.547 404.169 293.494 401.77C293.359 395.671 293.308 386.57 293.339 374.466C293.471 362.36 293.47 353.258 293.335 347.16C293.246 343.161 295.051 341.12 298.75 341.038C300.05 341.009 301.503 341.127 303.109 341.392C304.185 340.268 305.572 339.687 307.272 339.649C310.971 339.567 317.833 340.065 327.86 341.143C331.168 341.47 332.857 343.233 332.928 346.432C332.977 348.632 332.164 350.3 330.488 351.438C329.744 353.955 328.022 355.243 325.323 355.303L318.878 355.596C318.482 355.805 317.985 355.916 317.385 355.929C316.585 355.947 315.23 355.727 313.319 355.269C311.506 354.709 310.049 354.391 308.947 354.316L309.281 389.717C312.78 389.639 315.13 389.587 316.329 389.561C318.531 389.612 320.336 389.822 321.745 390.191C324.446 390.231 326.802 390.479 328.813 390.934C331.628 391.572 333.066 393.291 333.128 396.09C333.161 397.59 332.692 398.951 331.718 400.172C330.745 401.394 329.459 402.023 327.859 402.058C327.359 402.069 326.807 401.982 326.203 401.795C324.494 401.433 322.192 401.334 319.295 401.498C315.998 401.671 313.647 401.673 312.243 401.504L309.394 401.567C309.554 404.264 309.942 408.257 310.559 413.544C311.057 417.934 311.331 421.279 311.382 423.579L311.398 424.328C317.017 425.104 322.726 425.428 328.524 425.299C332.223 425.217 334.115 427.076 334.199 430.875C334.21 431.375 334.171 431.876 334.082 432.378ZM386.657 431.213C386.768 431.711 386.831 432.259 386.844 432.859C386.932 436.858 383.877 438.927 377.679 439.064C370.081 439.232 364.624 439.003 361.31 438.376L356.511 438.483C356.113 438.591 355.664 438.651 355.165 438.662C352.965 438.711 351.003 438.205 349.279 437.142C347.553 435.98 346.674 434.65 346.64 433.15C346.614 431.95 346.824 430.145 347.271 427.735C347.815 425.222 348.073 423.316 348.044 422.016C347.991 419.617 347.662 416.073 347.058 411.385C346.452 406.598 346.122 403.004 346.069 400.605C345.934 394.506 345.883 385.405 345.914 373.301C346.046 361.195 346.045 352.093 345.91 345.995C345.821 341.996 347.626 339.955 351.325 339.873C352.625 339.844 354.078 339.962 355.684 340.227C356.76 339.103 358.147 338.522 359.847 338.484C363.546 338.402 370.408 338.9 380.435 339.978C383.743 340.305 385.432 342.068 385.503 345.268C385.552 347.467 384.739 349.135 383.063 350.273C382.319 352.79 380.597 354.078 377.898 354.138L371.453 354.431C371.057 354.64 370.56 354.751 369.96 354.764C369.16 354.782 367.805 354.562 365.894 354.104C364.081 353.544 362.624 353.226 361.522 353.151L361.856 388.552C365.355 388.474 367.705 388.422 368.904 388.396C371.106 388.447 372.911 388.657 374.32 389.026C377.021 389.066 379.377 389.314 381.388 389.77C384.203 390.407 385.641 392.126 385.703 394.925C385.736 396.425 385.266 397.786 384.293 399.007C383.32 400.229 382.034 400.858 380.434 400.893C379.934 400.905 379.382 400.817 378.778 400.63C377.069 400.268 374.767 400.169 371.87 400.333C368.573 400.506 366.222 400.508 364.818 400.339L361.969 400.402C362.129 403.099 362.517 407.092 363.134 412.379C363.632 416.77 363.906 420.114 363.957 422.414L363.973 423.164C369.592 423.939 375.301 424.263 381.099 424.134C384.798 424.052 386.69 425.911 386.774 429.71C386.785 430.21 386.746 430.711 386.657 431.213ZM476.931 405.207C473.786 425.782 467.614 436.171 458.417 436.375C455.817 436.432 453.678 434.679 451.999 431.116C449.375 425.572 445.507 411.255 440.394 388.162C435.281 365.07 432.654 350.324 432.512 343.926C432.415 339.527 434.916 337.271 440.014 337.158C444.613 337.056 448.551 343.22 451.827 355.651C453.02 359.825 454.303 365.849 455.678 373.72C458.088 387.67 459.632 396.438 460.312 400.024C462.777 380.364 463.808 361.437 463.405 343.241C463.372 341.742 464.093 340.425 465.568 339.292C467.041 338.06 468.827 337.42 470.927 337.373C473.026 337.327 474.839 337.887 476.365 339.053C477.889 340.12 478.668 341.403 478.701 342.902L479.08 359.998C479.479 377.994 478.762 393.063 476.931 405.207ZM492.926 429.159L490.999 342.18C490.961 340.48 491.777 338.962 493.448 337.624C495.219 336.285 497.354 335.587 499.853 335.532C502.353 335.477 504.517 336.079 506.345 337.339C508.173 338.599 509.106 340.078 509.144 341.778C509.33 350.176 509.81 362.818 510.585 379.705C511.357 396.492 511.837 409.135 512.025 417.633C512.143 422.931 511.876 426.688 511.225 428.903C509.818 433.135 506.765 435.303 502.066 435.408C499.567 435.463 497.403 434.861 495.575 433.601C493.846 432.339 492.963 430.858 492.926 429.159ZM567.228 427.212C567.339 427.71 567.401 428.259 567.415 428.858C567.503 432.857 564.448 434.926 558.25 435.063C550.652 435.231 545.195 435.002 541.881 434.375L537.082 434.482C536.684 434.591 536.235 434.65 535.736 434.662C533.536 434.71 531.574 434.204 529.85 433.142C528.124 431.98 527.245 430.649 527.211 429.149C527.185 427.949 527.395 426.144 527.842 423.734C528.386 421.221 528.644 419.315 528.615 418.015C528.562 415.616 528.233 412.072 527.629 407.384C527.023 402.597 526.693 399.003 526.64 396.604C526.505 390.505 526.453 381.404 526.485 369.3C526.617 357.195 526.616 348.092 526.481 341.994C526.392 337.995 528.197 335.954 531.896 335.872C533.196 335.844 534.649 335.961 536.255 336.226C537.33 335.102 538.718 334.521 540.418 334.483C544.117 334.401 550.979 334.899 561.006 335.978C564.314 336.304 566.003 338.067 566.074 341.267C566.123 343.466 565.31 345.134 563.634 346.272C562.89 348.789 561.168 350.077 558.469 350.137L552.024 350.43C551.628 350.639 551.131 350.75 550.531 350.763C549.731 350.781 548.376 350.561 546.465 350.103C544.652 349.543 543.195 349.225 542.093 349.15L542.427 384.551C545.926 384.474 548.276 384.421 549.475 384.395C551.677 384.446 553.482 384.656 554.891 385.025C557.592 385.065 559.948 385.313 561.959 385.769C564.774 386.406 566.212 388.125 566.274 390.924C566.307 392.424 565.837 393.785 564.864 395.007C563.891 396.228 562.605 396.857 561.005 396.893C560.505 396.904 559.953 396.816 559.349 396.629C557.64 396.267 555.338 396.168 552.441 396.332C549.144 396.505 546.793 396.507 545.389 396.338L542.54 396.401C542.699 399.099 543.088 403.091 543.705 408.379C544.203 412.769 544.477 416.113 544.528 418.413L544.544 419.163C550.163 419.938 555.871 420.262 561.67 420.134C565.369 420.052 567.261 421.91 567.345 425.709C567.356 426.209 567.317 426.71 567.228 427.212ZM627.001 432.639C621.902 432.752 617.326 431.603 613.271 429.193C609.828 431.77 606.306 433.098 602.707 433.178C596.109 433.324 591.288 430.18 588.244 423.746C587.296 421.566 585.761 415.499 583.64 405.543C579.063 384.039 576.526 362.09 576.03 339.696C575.992 337.996 576.66 336.531 578.033 335.3C579.506 334.067 581.242 333.429 583.242 333.384C585.241 333.34 586.954 333.902 588.38 335.071C589.906 336.237 590.688 337.67 590.726 339.37C591.229 362.064 595.287 391.732 602.901 428.372C604.354 417.237 605.086 407.369 605.095 398.766C605.106 399.266 604.973 393.268 604.697 380.771C604.654 378.871 605.319 377.256 606.69 375.925C608.158 374.493 609.892 373.754 611.892 373.71C616.291 373.612 618.968 377.054 619.923 384.034C620.282 386.727 620.408 390.125 620.298 394.228C620.123 399.834 620.031 402.486 620.025 402.186C620.14 407.385 621.323 413.36 623.573 420.112L628.078 420.313C633.604 412.388 636.011 392.38 635.3 360.288C635.252 358.088 634.78 354.848 633.885 350.567C632.987 346.186 632.514 342.895 632.466 340.696C632.43 339.096 633.15 337.73 634.625 336.597C636.198 335.362 637.985 334.722 639.984 334.678C644.583 334.576 647.668 338.358 649.238 346.026C649.911 349.311 650.329 354.654 650.493 362.052C650.912 380.947 650.227 395.166 648.438 404.708C645.044 423.087 637.898 432.398 627.001 432.639Z" fill="#393939"/>
<path d="M103.293 289.727L529.496 258.768" stroke="#393939" stroke-width="4" stroke-linecap="round"/>
</g>
<defs>
<clipPath id="clip0_1_2">
<rect width="767" height="565" fill="white"/>
</clipPath>
</defs>
</svg>
