<svg width="573" height="416" viewBox="0 0 573 416" fill="none" xmlns="http://www.w3.org/2000/svg">
<g clip-path="url(#clip0_57_102)">
<rect x="0.5" y="19.5" width="572" height="396" fill="#FBFBFB" stroke="#E5E5E5"/>
<rect width="123" height="43" transform="translate(225 92)" fill="#137EAD"/>
<path d="M243.562 111.875V119H242.117V110.547H243.523L243.562 111.875ZM246.203 110.5L246.195 111.844C246.076 111.818 245.961 111.802 245.852 111.797C245.747 111.786 245.628 111.781 245.492 111.781C245.159 111.781 244.865 111.833 244.609 111.938C244.354 112.042 244.138 112.188 243.961 112.375C243.784 112.562 243.643 112.786 243.539 113.047C243.44 113.302 243.375 113.583 243.344 113.891L242.938 114.125C242.938 113.615 242.987 113.135 243.086 112.688C243.19 112.24 243.349 111.844 243.562 111.5C243.776 111.151 244.047 110.88 244.375 110.688C244.708 110.49 245.104 110.391 245.562 110.391C245.667 110.391 245.786 110.404 245.922 110.43C246.057 110.451 246.151 110.474 246.203 110.5ZM247 114.867V114.688C247 114.078 247.089 113.513 247.266 112.992C247.443 112.466 247.698 112.01 248.031 111.625C248.365 111.234 248.768 110.932 249.242 110.719C249.716 110.5 250.247 110.391 250.836 110.391C251.43 110.391 251.964 110.5 252.438 110.719C252.917 110.932 253.323 111.234 253.656 111.625C253.995 112.01 254.253 112.466 254.43 112.992C254.607 113.513 254.695 114.078 254.695 114.688V114.867C254.695 115.477 254.607 116.042 254.43 116.562C254.253 117.083 253.995 117.539 253.656 117.93C253.323 118.315 252.919 118.617 252.445 118.836C251.977 119.049 251.445 119.156 250.852 119.156C250.258 119.156 249.724 119.049 249.25 118.836C248.776 118.617 248.37 118.315 248.031 117.93C247.698 117.539 247.443 117.083 247.266 116.562C247.089 116.042 247 115.477 247 114.867ZM248.445 114.688V114.867C248.445 115.289 248.495 115.688 248.594 116.062C248.693 116.432 248.841 116.76 249.039 117.047C249.242 117.333 249.495 117.56 249.797 117.727C250.099 117.888 250.451 117.969 250.852 117.969C251.247 117.969 251.594 117.888 251.891 117.727C252.193 117.56 252.443 117.333 252.641 117.047C252.839 116.76 252.987 116.432 253.086 116.062C253.19 115.688 253.242 115.289 253.242 114.867V114.688C253.242 114.271 253.19 113.878 253.086 113.508C252.987 113.133 252.836 112.802 252.633 112.516C252.435 112.224 252.185 111.995 251.883 111.828C251.586 111.661 251.237 111.578 250.836 111.578C250.44 111.578 250.091 111.661 249.789 111.828C249.492 111.995 249.242 112.224 249.039 112.516C248.841 112.802 248.693 113.133 248.594 113.508C248.495 113.878 248.445 114.271 248.445 114.688ZM258.078 107V119H256.625V107H258.078ZM263.906 119.156C263.318 119.156 262.784 119.057 262.305 118.859C261.831 118.656 261.422 118.372 261.078 118.008C260.74 117.643 260.479 117.211 260.297 116.711C260.115 116.211 260.023 115.664 260.023 115.07V114.742C260.023 114.055 260.125 113.443 260.328 112.906C260.531 112.365 260.807 111.906 261.156 111.531C261.505 111.156 261.901 110.872 262.344 110.68C262.786 110.487 263.245 110.391 263.719 110.391C264.323 110.391 264.844 110.495 265.281 110.703C265.724 110.911 266.086 111.203 266.367 111.578C266.648 111.948 266.857 112.385 266.992 112.891C267.128 113.391 267.195 113.938 267.195 114.531V115.18H260.883V114H265.75V113.891C265.729 113.516 265.651 113.151 265.516 112.797C265.385 112.443 265.177 112.151 264.891 111.922C264.604 111.693 264.214 111.578 263.719 111.578C263.391 111.578 263.089 111.648 262.812 111.789C262.536 111.924 262.299 112.128 262.102 112.398C261.904 112.669 261.75 113 261.641 113.391C261.531 113.781 261.477 114.232 261.477 114.742V115.07C261.477 115.471 261.531 115.849 261.641 116.203C261.755 116.552 261.919 116.859 262.133 117.125C262.352 117.391 262.615 117.599 262.922 117.75C263.234 117.901 263.589 117.977 263.984 117.977C264.495 117.977 264.927 117.872 265.281 117.664C265.635 117.456 265.945 117.177 266.211 116.828L267.086 117.523C266.904 117.799 266.672 118.062 266.391 118.312C266.109 118.562 265.763 118.766 265.352 118.922C264.945 119.078 264.464 119.156 263.906 119.156ZM275.484 111.383V112.641H268.969V111.383H275.484ZM275.484 114.625V115.883H268.969V114.625H275.484ZM278.734 107V108.062L278.5 110.852H277.633V108.133V107H278.734ZM280.844 107V108.062L280.609 110.852H279.742V108.078V107H280.844ZM287.086 116.758C287.086 116.549 287.039 116.357 286.945 116.18C286.857 115.997 286.672 115.833 286.391 115.688C286.115 115.536 285.698 115.406 285.141 115.297C284.672 115.198 284.247 115.081 283.867 114.945C283.492 114.81 283.172 114.646 282.906 114.453C282.646 114.26 282.445 114.034 282.305 113.773C282.164 113.513 282.094 113.208 282.094 112.859C282.094 112.526 282.167 112.211 282.312 111.914C282.464 111.617 282.674 111.354 282.945 111.125C283.221 110.896 283.552 110.716 283.938 110.586C284.323 110.456 284.753 110.391 285.227 110.391C285.904 110.391 286.482 110.51 286.961 110.75C287.44 110.99 287.807 111.31 288.062 111.711C288.318 112.107 288.445 112.547 288.445 113.031H287C287 112.797 286.93 112.57 286.789 112.352C286.654 112.128 286.453 111.943 286.188 111.797C285.927 111.651 285.607 111.578 285.227 111.578C284.826 111.578 284.5 111.641 284.25 111.766C284.005 111.885 283.826 112.039 283.711 112.227C283.602 112.414 283.547 112.612 283.547 112.82C283.547 112.977 283.573 113.117 283.625 113.242C283.682 113.362 283.781 113.474 283.922 113.578C284.062 113.677 284.26 113.771 284.516 113.859C284.771 113.948 285.096 114.036 285.492 114.125C286.185 114.281 286.755 114.469 287.203 114.688C287.651 114.906 287.984 115.174 288.203 115.492C288.422 115.81 288.531 116.195 288.531 116.648C288.531 117.018 288.453 117.357 288.297 117.664C288.146 117.971 287.924 118.237 287.633 118.461C287.346 118.68 287.003 118.852 286.602 118.977C286.206 119.096 285.76 119.156 285.266 119.156C284.521 119.156 283.891 119.023 283.375 118.758C282.859 118.492 282.469 118.148 282.203 117.727C281.938 117.305 281.805 116.859 281.805 116.391H283.258C283.279 116.786 283.393 117.102 283.602 117.336C283.81 117.565 284.065 117.729 284.367 117.828C284.669 117.922 284.969 117.969 285.266 117.969C285.661 117.969 285.992 117.917 286.258 117.812C286.529 117.708 286.734 117.565 286.875 117.383C287.016 117.201 287.086 116.992 287.086 116.758ZM292.57 117.5L294.742 110.547H295.695L295.508 111.93L293.297 119H292.367L292.57 117.5ZM291.109 110.547L292.961 117.578L293.094 119H292.117L289.664 110.547H291.109ZM297.773 117.523L299.539 110.547H300.977L298.523 119H297.555L297.773 117.523ZM295.906 110.547L298.031 117.383L298.273 119H297.352L295.078 111.914L294.891 110.547H295.906ZM304.031 110.547V119H302.578V110.547H304.031ZM302.469 108.305C302.469 108.07 302.539 107.872 302.68 107.711C302.826 107.549 303.039 107.469 303.32 107.469C303.596 107.469 303.807 107.549 303.953 107.711C304.104 107.872 304.18 108.07 304.18 108.305C304.18 108.529 304.104 108.721 303.953 108.883C303.807 109.039 303.596 109.117 303.32 109.117C303.039 109.117 302.826 109.039 302.68 108.883C302.539 108.721 302.469 108.529 302.469 108.305ZM309.891 110.547V111.656H305.32V110.547H309.891ZM306.867 108.492H308.312V116.906C308.312 117.193 308.357 117.409 308.445 117.555C308.534 117.701 308.648 117.797 308.789 117.844C308.93 117.891 309.081 117.914 309.242 117.914C309.362 117.914 309.487 117.904 309.617 117.883C309.753 117.857 309.854 117.836 309.922 117.82L309.93 119C309.815 119.036 309.664 119.07 309.477 119.102C309.294 119.138 309.073 119.156 308.812 119.156C308.458 119.156 308.133 119.086 307.836 118.945C307.539 118.805 307.302 118.57 307.125 118.242C306.953 117.909 306.867 117.461 306.867 116.898V108.492ZM314.969 117.969C315.312 117.969 315.63 117.898 315.922 117.758C316.214 117.617 316.453 117.424 316.641 117.18C316.828 116.93 316.935 116.646 316.961 116.328H318.336C318.31 116.828 318.141 117.294 317.828 117.727C317.521 118.154 317.117 118.5 316.617 118.766C316.117 119.026 315.568 119.156 314.969 119.156C314.333 119.156 313.779 119.044 313.305 118.82C312.836 118.596 312.445 118.289 312.133 117.898C311.826 117.508 311.594 117.06 311.438 116.555C311.286 116.044 311.211 115.505 311.211 114.938V114.609C311.211 114.042 311.286 113.505 311.438 113C311.594 112.49 311.826 112.039 312.133 111.648C312.445 111.258 312.836 110.951 313.305 110.727C313.779 110.503 314.333 110.391 314.969 110.391C315.63 110.391 316.208 110.526 316.703 110.797C317.198 111.062 317.586 111.427 317.867 111.891C318.154 112.349 318.31 112.87 318.336 113.453H316.961C316.935 113.104 316.836 112.789 316.664 112.508C316.497 112.227 316.268 112.003 315.977 111.836C315.69 111.664 315.354 111.578 314.969 111.578C314.526 111.578 314.154 111.667 313.852 111.844C313.555 112.016 313.318 112.25 313.141 112.547C312.969 112.839 312.844 113.164 312.766 113.523C312.693 113.878 312.656 114.24 312.656 114.609V114.938C312.656 115.307 312.693 115.672 312.766 116.031C312.839 116.391 312.961 116.716 313.133 117.008C313.31 117.299 313.547 117.534 313.844 117.711C314.146 117.883 314.521 117.969 314.969 117.969ZM321.406 107V119H319.961V107H321.406ZM321.062 114.453L320.461 114.43C320.466 113.852 320.552 113.318 320.719 112.828C320.885 112.333 321.12 111.904 321.422 111.539C321.724 111.174 322.083 110.893 322.5 110.695C322.922 110.492 323.388 110.391 323.898 110.391C324.315 110.391 324.69 110.448 325.023 110.562C325.357 110.672 325.641 110.849 325.875 111.094C326.115 111.339 326.297 111.656 326.422 112.047C326.547 112.432 326.609 112.904 326.609 113.461V119H325.156V113.445C325.156 113.003 325.091 112.648 324.961 112.383C324.831 112.112 324.641 111.917 324.391 111.797C324.141 111.672 323.833 111.609 323.469 111.609C323.109 111.609 322.781 111.685 322.484 111.836C322.193 111.987 321.94 112.195 321.727 112.461C321.518 112.727 321.354 113.031 321.234 113.375C321.12 113.714 321.062 114.073 321.062 114.453ZM329.031 107V108.062L328.797 110.852H327.93V108.133V107H329.031ZM331.141 107V108.062L330.906 110.852H330.039V108.078V107H331.141Z" fill="white"/>
<circle cx="286" cy="131" r="12" fill="#137EAD"/>
<path d="M2.12109 2.46875V11H0.990234V2.46875H2.12109ZM5.69531 6.30664V7.23242H1.875V6.30664H5.69531ZM6.27539 2.46875V3.39453H1.875V2.46875H6.27539ZM8.39062 5.65625V11H7.30664V4.66016H8.36133L8.39062 5.65625ZM10.3711 4.625L10.3652 5.63281C10.2754 5.61328 10.1895 5.60156 10.1074 5.59766C10.0293 5.58984 9.93945 5.58594 9.83789 5.58594C9.58789 5.58594 9.36719 5.625 9.17578 5.70312C8.98438 5.78125 8.82227 5.89062 8.68945 6.03125C8.55664 6.17188 8.45117 6.33984 8.37305 6.53516C8.29883 6.72656 8.25 6.9375 8.22656 7.16797L7.92188 7.34375C7.92188 6.96094 7.95898 6.60156 8.0332 6.26562C8.11133 5.92969 8.23047 5.63281 8.39062 5.375C8.55078 5.11328 8.75391 4.91016 9 4.76562C9.25 4.61719 9.54688 4.54297 9.89062 4.54297C9.96875 4.54297 10.0586 4.55273 10.1602 4.57227C10.2617 4.58789 10.332 4.60547 10.3711 4.625ZM14.877 9.91602V6.65234C14.877 6.40234 14.8262 6.18555 14.7246 6.00195C14.627 5.81445 14.4785 5.66992 14.2793 5.56836C14.0801 5.4668 13.834 5.41602 13.541 5.41602C13.2676 5.41602 13.0273 5.46289 12.8203 5.55664C12.6172 5.65039 12.457 5.77344 12.3398 5.92578C12.2266 6.07812 12.1699 6.24219 12.1699 6.41797H11.0859C11.0859 6.19141 11.1445 5.9668 11.2617 5.74414C11.3789 5.52148 11.5469 5.32031 11.7656 5.14062C11.9883 4.95703 12.2539 4.8125 12.5625 4.70703C12.875 4.59766 13.2227 4.54297 13.6055 4.54297C14.0664 4.54297 14.4727 4.62109 14.8242 4.77734C15.1797 4.93359 15.457 5.16992 15.6562 5.48633C15.8594 5.79883 15.9609 6.19141 15.9609 6.66406V9.61719C15.9609 9.82812 15.9785 10.0527 16.0137 10.291C16.0527 10.5293 16.1094 10.7344 16.1836 10.9062V11H15.0527C14.998 10.875 14.9551 10.709 14.9238 10.502C14.8926 10.291 14.877 10.0957 14.877 9.91602ZM15.0645 7.15625L15.0762 7.91797H13.9805C13.6719 7.91797 13.3965 7.94336 13.1543 7.99414C12.9121 8.04102 12.709 8.11328 12.5449 8.21094C12.3809 8.30859 12.2559 8.43164 12.1699 8.58008C12.084 8.72461 12.041 8.89453 12.041 9.08984C12.041 9.28906 12.0859 9.4707 12.1758 9.63477C12.2656 9.79883 12.4004 9.92969 12.5801 10.0273C12.7637 10.1211 12.9883 10.168 13.2539 10.168C13.5859 10.168 13.8789 10.0977 14.1328 9.95703C14.3867 9.81641 14.5879 9.64453 14.7363 9.44141C14.8887 9.23828 14.9707 9.04102 14.9824 8.84961L15.4453 9.37109C15.418 9.53516 15.3438 9.7168 15.2227 9.91602C15.1016 10.1152 14.9395 10.3066 14.7363 10.4902C14.5371 10.6699 14.2988 10.8203 14.0215 10.9414C13.748 11.0586 13.4395 11.1172 13.0957 11.1172C12.666 11.1172 12.2891 11.0332 11.9648 10.8652C11.6445 10.6973 11.3945 10.4727 11.2148 10.1914C11.0391 9.90625 10.9512 9.58789 10.9512 9.23633C10.9512 8.89648 11.0176 8.59766 11.1504 8.33984C11.2832 8.07812 11.4746 7.86133 11.7246 7.68945C11.9746 7.51367 12.2754 7.38086 12.627 7.29102C12.9785 7.20117 13.3711 7.15625 13.8047 7.15625H15.0645ZM18.7441 5.91992V11H17.6543V4.66016H18.6855L18.7441 5.91992ZM18.5215 7.58984L18.0176 7.57227C18.0215 7.13867 18.0781 6.73828 18.1875 6.37109C18.2969 6 18.459 5.67773 18.6738 5.4043C18.8887 5.13086 19.1562 4.91992 19.4766 4.77148C19.7969 4.61914 20.168 4.54297 20.5898 4.54297C20.8867 4.54297 21.1602 4.58594 21.4102 4.67188C21.6602 4.75391 21.877 4.88477 22.0605 5.06445C22.2441 5.24414 22.3867 5.47461 22.4883 5.75586C22.5898 6.03711 22.6406 6.37695 22.6406 6.77539V11H21.5566V6.82812C21.5566 6.49609 21.5 6.23047 21.3867 6.03125C21.2773 5.83203 21.1211 5.6875 20.918 5.59766C20.7148 5.50391 20.4766 5.45703 20.2031 5.45703C19.8828 5.45703 19.6152 5.51367 19.4004 5.62695C19.1855 5.74023 19.0137 5.89648 18.8848 6.0957C18.7559 6.29492 18.6621 6.52344 18.6035 6.78125C18.5488 7.03516 18.5215 7.30469 18.5215 7.58984ZM22.6289 6.99219L21.9023 7.21484C21.9062 6.86719 21.9629 6.5332 22.0723 6.21289C22.1855 5.89258 22.3477 5.60742 22.5586 5.35742C22.7734 5.10742 23.0371 4.91016 23.3496 4.76562C23.6621 4.61719 24.0195 4.54297 24.4219 4.54297C24.7617 4.54297 25.0625 4.58789 25.3242 4.67773C25.5898 4.76758 25.8125 4.90625 25.9922 5.09375C26.1758 5.27734 26.3145 5.51367 26.4082 5.80273C26.502 6.0918 26.5488 6.43555 26.5488 6.83398V11H25.459V6.82227C25.459 6.4668 25.4023 6.19141 25.2891 5.99609C25.1797 5.79688 25.0234 5.6582 24.8203 5.58008C24.6211 5.49805 24.3828 5.45703 24.1055 5.45703C23.8672 5.45703 23.6562 5.49805 23.4727 5.58008C23.2891 5.66211 23.1348 5.77539 23.0098 5.91992C22.8848 6.06055 22.7891 6.22266 22.7227 6.40625C22.6602 6.58984 22.6289 6.78516 22.6289 6.99219ZM30.8203 11.1172C30.3789 11.1172 29.9785 11.043 29.6191 10.8945C29.2637 10.7422 28.957 10.5293 28.6992 10.2559C28.4453 9.98242 28.25 9.6582 28.1133 9.2832C27.9766 8.9082 27.9082 8.49805 27.9082 8.05273V7.80664C27.9082 7.29102 27.9844 6.83203 28.1367 6.42969C28.2891 6.02344 28.4961 5.67969 28.7578 5.39844C29.0195 5.11719 29.3164 4.9043 29.6484 4.75977C29.9805 4.61523 30.3242 4.54297 30.6797 4.54297C31.1328 4.54297 31.5234 4.62109 31.8516 4.77734C32.1836 4.93359 32.4551 5.15234 32.666 5.43359C32.877 5.71094 33.0332 6.03906 33.1348 6.41797C33.2363 6.79297 33.2871 7.20312 33.2871 7.64844V8.13477H28.5527V7.25H32.2031V7.16797C32.1875 6.88672 32.1289 6.61328 32.0273 6.34766C31.9297 6.08203 31.7734 5.86328 31.5586 5.69141C31.3438 5.51953 31.0508 5.43359 30.6797 5.43359C30.4336 5.43359 30.207 5.48633 30 5.5918C29.793 5.69336 29.6152 5.8457 29.4668 6.04883C29.3184 6.25195 29.2031 6.5 29.1211 6.79297C29.0391 7.08594 28.998 7.42383 28.998 7.80664V8.05273C28.998 8.35352 29.0391 8.63672 29.1211 8.90234C29.207 9.16406 29.3301 9.39453 29.4902 9.59375C29.6543 9.79297 29.8516 9.94922 30.082 10.0625C30.3164 10.1758 30.582 10.2324 30.8789 10.2324C31.2617 10.2324 31.5859 10.1543 31.8516 9.99805C32.1172 9.8418 32.3496 9.63281 32.5488 9.37109L33.2051 9.89258C33.0684 10.0996 32.8945 10.2969 32.6836 10.4844C32.4727 10.6719 32.2129 10.8242 31.9043 10.9414C31.5996 11.0586 31.2383 11.1172 30.8203 11.1172ZM42.9258 2.46875V3.07812L39.3926 11H38.25L41.7773 3.35938H37.1602V2.46875H42.9258Z" fill="#858585"/>
<rect width="166" height="43" transform="translate(261 290)" fill="#D83898"/>
<path d="M281.086 315.555V311.203C281.086 310.87 281.018 310.581 280.883 310.336C280.753 310.086 280.555 309.893 280.289 309.758C280.023 309.622 279.695 309.555 279.305 309.555C278.94 309.555 278.62 309.617 278.344 309.742C278.073 309.867 277.859 310.031 277.703 310.234C277.552 310.438 277.477 310.656 277.477 310.891H276.031C276.031 310.589 276.109 310.289 276.266 309.992C276.422 309.695 276.646 309.427 276.938 309.188C277.234 308.943 277.589 308.75 278 308.609C278.417 308.464 278.88 308.391 279.391 308.391C280.005 308.391 280.547 308.495 281.016 308.703C281.49 308.911 281.859 309.227 282.125 309.648C282.396 310.065 282.531 310.589 282.531 311.219V315.156C282.531 315.438 282.555 315.737 282.602 316.055C282.654 316.372 282.729 316.646 282.828 316.875V317H281.32C281.247 316.833 281.19 316.612 281.148 316.336C281.107 316.055 281.086 315.794 281.086 315.555ZM281.336 311.875L281.352 312.891H279.891C279.479 312.891 279.112 312.924 278.789 312.992C278.466 313.055 278.195 313.151 277.977 313.281C277.758 313.411 277.591 313.576 277.477 313.773C277.362 313.966 277.305 314.193 277.305 314.453C277.305 314.719 277.365 314.961 277.484 315.18C277.604 315.398 277.784 315.573 278.023 315.703C278.268 315.828 278.568 315.891 278.922 315.891C279.365 315.891 279.755 315.797 280.094 315.609C280.432 315.422 280.701 315.193 280.898 314.922C281.102 314.651 281.211 314.388 281.227 314.133L281.844 314.828C281.807 315.047 281.708 315.289 281.547 315.555C281.385 315.82 281.169 316.076 280.898 316.32C280.633 316.56 280.315 316.76 279.945 316.922C279.581 317.078 279.169 317.156 278.711 317.156C278.138 317.156 277.635 317.044 277.203 316.82C276.776 316.596 276.443 316.297 276.203 315.922C275.969 315.542 275.852 315.117 275.852 314.648C275.852 314.195 275.94 313.797 276.117 313.453C276.294 313.104 276.549 312.815 276.883 312.586C277.216 312.352 277.617 312.174 278.086 312.055C278.555 311.935 279.078 311.875 279.656 311.875H281.336ZM286.25 309.875V317H284.805V308.547H286.211L286.25 309.875ZM288.891 308.5L288.883 309.844C288.763 309.818 288.648 309.802 288.539 309.797C288.435 309.786 288.315 309.781 288.18 309.781C287.846 309.781 287.552 309.833 287.297 309.938C287.042 310.042 286.826 310.188 286.648 310.375C286.471 310.562 286.331 310.786 286.227 311.047C286.128 311.302 286.062 311.583 286.031 311.891L285.625 312.125C285.625 311.615 285.674 311.135 285.773 310.688C285.878 310.24 286.036 309.844 286.25 309.5C286.464 309.151 286.734 308.88 287.062 308.688C287.396 308.49 287.792 308.391 288.25 308.391C288.354 308.391 288.474 308.404 288.609 308.43C288.745 308.451 288.839 308.474 288.891 308.5ZM291.797 308.547V317H290.344V308.547H291.797ZM290.234 306.305C290.234 306.07 290.305 305.872 290.445 305.711C290.591 305.549 290.805 305.469 291.086 305.469C291.362 305.469 291.573 305.549 291.719 305.711C291.87 305.872 291.945 306.07 291.945 306.305C291.945 306.529 291.87 306.721 291.719 306.883C291.573 307.039 291.362 307.117 291.086 307.117C290.805 307.117 290.591 307.039 290.445 306.883C290.305 306.721 290.234 306.529 290.234 306.305ZM299.102 315.555V311.203C299.102 310.87 299.034 310.581 298.898 310.336C298.768 310.086 298.57 309.893 298.305 309.758C298.039 309.622 297.711 309.555 297.32 309.555C296.956 309.555 296.635 309.617 296.359 309.742C296.089 309.867 295.875 310.031 295.719 310.234C295.568 310.438 295.492 310.656 295.492 310.891H294.047C294.047 310.589 294.125 310.289 294.281 309.992C294.438 309.695 294.661 309.427 294.953 309.188C295.25 308.943 295.604 308.75 296.016 308.609C296.432 308.464 296.896 308.391 297.406 308.391C298.021 308.391 298.562 308.495 299.031 308.703C299.505 308.911 299.875 309.227 300.141 309.648C300.411 310.065 300.547 310.589 300.547 311.219V315.156C300.547 315.438 300.57 315.737 300.617 316.055C300.669 316.372 300.745 316.646 300.844 316.875V317H299.336C299.263 316.833 299.206 316.612 299.164 316.336C299.122 316.055 299.102 315.794 299.102 315.555ZM299.352 311.875L299.367 312.891H297.906C297.495 312.891 297.128 312.924 296.805 312.992C296.482 313.055 296.211 313.151 295.992 313.281C295.773 313.411 295.607 313.576 295.492 313.773C295.378 313.966 295.32 314.193 295.32 314.453C295.32 314.719 295.38 314.961 295.5 315.18C295.62 315.398 295.799 315.573 296.039 315.703C296.284 315.828 296.583 315.891 296.938 315.891C297.38 315.891 297.771 315.797 298.109 315.609C298.448 315.422 298.716 315.193 298.914 314.922C299.117 314.651 299.227 314.388 299.242 314.133L299.859 314.828C299.823 315.047 299.724 315.289 299.562 315.555C299.401 315.82 299.185 316.076 298.914 316.32C298.648 316.56 298.331 316.76 297.961 316.922C297.596 317.078 297.185 317.156 296.727 317.156C296.154 317.156 295.651 317.044 295.219 316.82C294.792 316.596 294.458 316.297 294.219 315.922C293.984 315.542 293.867 315.117 293.867 314.648C293.867 314.195 293.956 313.797 294.133 313.453C294.31 313.104 294.565 312.815 294.898 312.586C295.232 312.352 295.633 312.174 296.102 312.055C296.57 311.935 297.094 311.875 297.672 311.875H299.352ZM305.828 311.57V312.758H302.016V311.57H305.828ZM310.625 315.969C310.969 315.969 311.286 315.898 311.578 315.758C311.87 315.617 312.109 315.424 312.297 315.18C312.484 314.93 312.591 314.646 312.617 314.328H313.992C313.966 314.828 313.797 315.294 313.484 315.727C313.177 316.154 312.773 316.5 312.273 316.766C311.773 317.026 311.224 317.156 310.625 317.156C309.99 317.156 309.435 317.044 308.961 316.82C308.492 316.596 308.102 316.289 307.789 315.898C307.482 315.508 307.25 315.06 307.094 314.555C306.943 314.044 306.867 313.505 306.867 312.938V312.609C306.867 312.042 306.943 311.505 307.094 311C307.25 310.49 307.482 310.039 307.789 309.648C308.102 309.258 308.492 308.951 308.961 308.727C309.435 308.503 309.99 308.391 310.625 308.391C311.286 308.391 311.865 308.526 312.359 308.797C312.854 309.062 313.242 309.427 313.523 309.891C313.81 310.349 313.966 310.87 313.992 311.453H312.617C312.591 311.104 312.492 310.789 312.32 310.508C312.154 310.227 311.924 310.003 311.633 309.836C311.346 309.664 311.01 309.578 310.625 309.578C310.182 309.578 309.81 309.667 309.508 309.844C309.211 310.016 308.974 310.25 308.797 310.547C308.625 310.839 308.5 311.164 308.422 311.523C308.349 311.878 308.312 312.24 308.312 312.609V312.938C308.312 313.307 308.349 313.672 308.422 314.031C308.495 314.391 308.617 314.716 308.789 315.008C308.966 315.299 309.203 315.534 309.5 315.711C309.802 315.883 310.177 315.969 310.625 315.969ZM317.062 305V317H315.617V305H317.062ZM316.719 312.453L316.117 312.43C316.122 311.852 316.208 311.318 316.375 310.828C316.542 310.333 316.776 309.904 317.078 309.539C317.38 309.174 317.74 308.893 318.156 308.695C318.578 308.492 319.044 308.391 319.555 308.391C319.971 308.391 320.346 308.448 320.68 308.562C321.013 308.672 321.297 308.849 321.531 309.094C321.771 309.339 321.953 309.656 322.078 310.047C322.203 310.432 322.266 310.904 322.266 311.461V317H320.812V311.445C320.812 311.003 320.747 310.648 320.617 310.383C320.487 310.112 320.297 309.917 320.047 309.797C319.797 309.672 319.49 309.609 319.125 309.609C318.766 309.609 318.438 309.685 318.141 309.836C317.849 309.987 317.596 310.195 317.383 310.461C317.174 310.727 317.01 311.031 316.891 311.375C316.776 311.714 316.719 312.073 316.719 312.453ZM327.938 317.156C327.349 317.156 326.815 317.057 326.336 316.859C325.862 316.656 325.453 316.372 325.109 316.008C324.771 315.643 324.51 315.211 324.328 314.711C324.146 314.211 324.055 313.664 324.055 313.07V312.742C324.055 312.055 324.156 311.443 324.359 310.906C324.562 310.365 324.839 309.906 325.188 309.531C325.536 309.156 325.932 308.872 326.375 308.68C326.818 308.487 327.276 308.391 327.75 308.391C328.354 308.391 328.875 308.495 329.312 308.703C329.755 308.911 330.117 309.203 330.398 309.578C330.68 309.948 330.888 310.385 331.023 310.891C331.159 311.391 331.227 311.938 331.227 312.531V313.18H324.914V312H329.781V311.891C329.76 311.516 329.682 311.151 329.547 310.797C329.417 310.443 329.208 310.151 328.922 309.922C328.635 309.693 328.245 309.578 327.75 309.578C327.422 309.578 327.12 309.648 326.844 309.789C326.568 309.924 326.331 310.128 326.133 310.398C325.935 310.669 325.781 311 325.672 311.391C325.562 311.781 325.508 312.232 325.508 312.742V313.07C325.508 313.471 325.562 313.849 325.672 314.203C325.786 314.552 325.951 314.859 326.164 315.125C326.383 315.391 326.646 315.599 326.953 315.75C327.266 315.901 327.62 315.977 328.016 315.977C328.526 315.977 328.958 315.872 329.312 315.664C329.667 315.456 329.977 315.177 330.242 314.828L331.117 315.523C330.935 315.799 330.703 316.062 330.422 316.312C330.141 316.562 329.794 316.766 329.383 316.922C328.977 317.078 328.495 317.156 327.938 317.156ZM336.297 315.969C336.641 315.969 336.958 315.898 337.25 315.758C337.542 315.617 337.781 315.424 337.969 315.18C338.156 314.93 338.263 314.646 338.289 314.328H339.664C339.638 314.828 339.469 315.294 339.156 315.727C338.849 316.154 338.445 316.5 337.945 316.766C337.445 317.026 336.896 317.156 336.297 317.156C335.661 317.156 335.107 317.044 334.633 316.82C334.164 316.596 333.773 316.289 333.461 315.898C333.154 315.508 332.922 315.06 332.766 314.555C332.615 314.044 332.539 313.505 332.539 312.938V312.609C332.539 312.042 332.615 311.505 332.766 311C332.922 310.49 333.154 310.039 333.461 309.648C333.773 309.258 334.164 308.951 334.633 308.727C335.107 308.503 335.661 308.391 336.297 308.391C336.958 308.391 337.536 308.526 338.031 308.797C338.526 309.062 338.914 309.427 339.195 309.891C339.482 310.349 339.638 310.87 339.664 311.453H338.289C338.263 311.104 338.164 310.789 337.992 310.508C337.826 310.227 337.596 310.003 337.305 309.836C337.018 309.664 336.682 309.578 336.297 309.578C335.854 309.578 335.482 309.667 335.18 309.844C334.883 310.016 334.646 310.25 334.469 310.547C334.297 310.839 334.172 311.164 334.094 311.523C334.021 311.878 333.984 312.24 333.984 312.609V312.938C333.984 313.307 334.021 313.672 334.094 314.031C334.167 314.391 334.289 314.716 334.461 315.008C334.638 315.299 334.875 315.534 335.172 315.711C335.474 315.883 335.849 315.969 336.297 315.969ZM342.742 305V317H341.289V305H342.742ZM347.906 308.547L344.219 312.492L342.156 314.633L342.039 313.094L343.516 311.328L346.141 308.547H347.906ZM346.586 317L343.57 312.969L344.32 311.68L348.289 317H346.586ZM352.75 317.156C352.161 317.156 351.628 317.057 351.148 316.859C350.674 316.656 350.266 316.372 349.922 316.008C349.583 315.643 349.323 315.211 349.141 314.711C348.958 314.211 348.867 313.664 348.867 313.07V312.742C348.867 312.055 348.969 311.443 349.172 310.906C349.375 310.365 349.651 309.906 350 309.531C350.349 309.156 350.745 308.872 351.188 308.68C351.63 308.487 352.089 308.391 352.562 308.391C353.167 308.391 353.688 308.495 354.125 308.703C354.568 308.911 354.93 309.203 355.211 309.578C355.492 309.948 355.701 310.385 355.836 310.891C355.971 311.391 356.039 311.938 356.039 312.531V313.18H349.727V312H354.594V311.891C354.573 311.516 354.495 311.151 354.359 310.797C354.229 310.443 354.021 310.151 353.734 309.922C353.448 309.693 353.057 309.578 352.562 309.578C352.234 309.578 351.932 309.648 351.656 309.789C351.38 309.924 351.143 310.128 350.945 310.398C350.747 310.669 350.594 311 350.484 311.391C350.375 311.781 350.32 312.232 350.32 312.742V313.07C350.32 313.471 350.375 313.849 350.484 314.203C350.599 314.552 350.763 314.859 350.977 315.125C351.195 315.391 351.458 315.599 351.766 315.75C352.078 315.901 352.432 315.977 352.828 315.977C353.339 315.977 353.771 315.872 354.125 315.664C354.479 315.456 354.789 315.177 355.055 314.828L355.93 315.523C355.747 315.799 355.516 316.062 355.234 316.312C354.953 316.562 354.607 316.766 354.195 316.922C353.789 317.078 353.307 317.156 352.75 317.156ZM363.055 315.359V305H364.508V317H363.18L363.055 315.359ZM357.367 312.867V312.703C357.367 312.057 357.445 311.471 357.602 310.945C357.763 310.414 357.99 309.958 358.281 309.578C358.578 309.198 358.93 308.906 359.336 308.703C359.747 308.495 360.206 308.391 360.711 308.391C361.242 308.391 361.706 308.484 362.102 308.672C362.503 308.854 362.841 309.122 363.117 309.477C363.398 309.826 363.62 310.247 363.781 310.742C363.943 311.237 364.055 311.797 364.117 312.422V313.141C364.06 313.76 363.948 314.318 363.781 314.812C363.62 315.307 363.398 315.729 363.117 316.078C362.841 316.427 362.503 316.695 362.102 316.883C361.701 317.065 361.232 317.156 360.695 317.156C360.201 317.156 359.747 317.049 359.336 316.836C358.93 316.622 358.578 316.323 358.281 315.938C357.99 315.552 357.763 315.099 357.602 314.578C357.445 314.052 357.367 313.482 357.367 312.867ZM358.82 312.703V312.867C358.82 313.289 358.862 313.685 358.945 314.055C359.034 314.424 359.169 314.75 359.352 315.031C359.534 315.312 359.766 315.534 360.047 315.695C360.328 315.852 360.664 315.93 361.055 315.93C361.534 315.93 361.927 315.828 362.234 315.625C362.547 315.422 362.797 315.154 362.984 314.82C363.172 314.487 363.318 314.125 363.422 313.734V311.852C363.359 311.565 363.268 311.289 363.148 311.023C363.034 310.753 362.883 310.513 362.695 310.305C362.513 310.091 362.286 309.922 362.016 309.797C361.75 309.672 361.435 309.609 361.07 309.609C360.674 309.609 360.333 309.693 360.047 309.859C359.766 310.021 359.534 310.245 359.352 310.531C359.169 310.812 359.034 311.141 358.945 311.516C358.862 311.885 358.82 312.281 358.82 312.703ZM373.359 309.383V310.641H366.844V309.383H373.359ZM373.359 312.625V313.883H366.844V312.625H373.359ZM376.609 305V306.062L376.375 308.852H375.508V306.133V305H376.609ZM378.719 305V306.062L378.484 308.852H377.617V306.078V305H378.719ZM384.203 308.547V309.656H379.633V308.547H384.203ZM381.18 306.492H382.625V314.906C382.625 315.193 382.669 315.409 382.758 315.555C382.846 315.701 382.961 315.797 383.102 315.844C383.242 315.891 383.393 315.914 383.555 315.914C383.674 315.914 383.799 315.904 383.93 315.883C384.065 315.857 384.167 315.836 384.234 315.82L384.242 317C384.128 317.036 383.977 317.07 383.789 317.102C383.607 317.138 383.385 317.156 383.125 317.156C382.771 317.156 382.445 317.086 382.148 316.945C381.852 316.805 381.615 316.57 381.438 316.242C381.266 315.909 381.18 315.461 381.18 314.898V306.492ZM387.344 309.875V317H385.898V308.547H387.305L387.344 309.875ZM389.984 308.5L389.977 309.844C389.857 309.818 389.742 309.802 389.633 309.797C389.529 309.786 389.409 309.781 389.273 309.781C388.94 309.781 388.646 309.833 388.391 309.938C388.135 310.042 387.919 310.188 387.742 310.375C387.565 310.562 387.424 310.786 387.32 311.047C387.221 311.302 387.156 311.583 387.125 311.891L386.719 312.125C386.719 311.615 386.768 311.135 386.867 310.688C386.971 310.24 387.13 309.844 387.344 309.5C387.557 309.151 387.828 308.88 388.156 308.688C388.49 308.49 388.885 308.391 389.344 308.391C389.448 308.391 389.568 308.404 389.703 308.43C389.839 308.451 389.932 308.474 389.984 308.5ZM396.492 315.047V308.547H397.945V317H396.562L396.492 315.047ZM396.766 313.266L397.367 313.25C397.367 313.812 397.307 314.333 397.188 314.812C397.073 315.286 396.885 315.698 396.625 316.047C396.365 316.396 396.023 316.669 395.602 316.867C395.18 317.06 394.667 317.156 394.062 317.156C393.651 317.156 393.273 317.096 392.93 316.977C392.591 316.857 392.299 316.672 392.055 316.422C391.81 316.172 391.62 315.846 391.484 315.445C391.354 315.044 391.289 314.562 391.289 314V308.547H392.734V314.016C392.734 314.396 392.776 314.711 392.859 314.961C392.948 315.206 393.065 315.401 393.211 315.547C393.362 315.688 393.529 315.786 393.711 315.844C393.898 315.901 394.091 315.93 394.289 315.93C394.904 315.93 395.391 315.812 395.75 315.578C396.109 315.339 396.367 315.018 396.523 314.617C396.685 314.211 396.766 313.76 396.766 313.266ZM403.656 317.156C403.068 317.156 402.534 317.057 402.055 316.859C401.581 316.656 401.172 316.372 400.828 316.008C400.49 315.643 400.229 315.211 400.047 314.711C399.865 314.211 399.773 313.664 399.773 313.07V312.742C399.773 312.055 399.875 311.443 400.078 310.906C400.281 310.365 400.557 309.906 400.906 309.531C401.255 309.156 401.651 308.872 402.094 308.68C402.536 308.487 402.995 308.391 403.469 308.391C404.073 308.391 404.594 308.495 405.031 308.703C405.474 308.911 405.836 309.203 406.117 309.578C406.398 309.948 406.607 310.385 406.742 310.891C406.878 311.391 406.945 311.938 406.945 312.531V313.18H400.633V312H405.5V311.891C405.479 311.516 405.401 311.151 405.266 310.797C405.135 310.443 404.927 310.151 404.641 309.922C404.354 309.693 403.964 309.578 403.469 309.578C403.141 309.578 402.839 309.648 402.562 309.789C402.286 309.924 402.049 310.128 401.852 310.398C401.654 310.669 401.5 311 401.391 311.391C401.281 311.781 401.227 312.232 401.227 312.742V313.07C401.227 313.471 401.281 313.849 401.391 314.203C401.505 314.552 401.669 314.859 401.883 315.125C402.102 315.391 402.365 315.599 402.672 315.75C402.984 315.901 403.339 315.977 403.734 315.977C404.245 315.977 404.677 315.872 405.031 315.664C405.385 315.456 405.695 315.177 405.961 314.828L406.836 315.523C406.654 315.799 406.422 316.062 406.141 316.312C405.859 316.562 405.513 316.766 405.102 316.922C404.695 317.078 404.214 317.156 403.656 317.156ZM409.594 305V306.062L409.359 308.852H408.492V306.133V305H409.594ZM411.703 305V306.062L411.469 308.852H410.602V306.078V305H411.703Z" fill="white"/>
<path d="M317 298L360 298L338.5 273L317 298Z" fill="#D83898"/>
<rect width="123" height="43" transform="translate(416 187)" fill="#D83898"/>
<path d="M434.641 205.547V206.656H430.07V205.547H434.641ZM431.617 203.492H433.062V211.906C433.062 212.193 433.107 212.409 433.195 212.555C433.284 212.701 433.398 212.797 433.539 212.844C433.68 212.891 433.831 212.914 433.992 212.914C434.112 212.914 434.237 212.904 434.367 212.883C434.503 212.857 434.604 212.836 434.672 212.82L434.68 214C434.565 214.036 434.414 214.07 434.227 214.102C434.044 214.138 433.823 214.156 433.562 214.156C433.208 214.156 432.883 214.086 432.586 213.945C432.289 213.805 432.052 213.57 431.875 213.242C431.703 212.909 431.617 212.461 431.617 211.898V203.492ZM438.711 213.125L441.062 205.547H442.609L439.219 215.305C439.141 215.513 439.036 215.737 438.906 215.977C438.781 216.221 438.62 216.453 438.422 216.672C438.224 216.891 437.984 217.068 437.703 217.203C437.427 217.344 437.096 217.414 436.711 217.414C436.596 217.414 436.451 217.398 436.273 217.367C436.096 217.336 435.971 217.31 435.898 217.289L435.891 216.117C435.932 216.122 435.997 216.128 436.086 216.133C436.18 216.143 436.245 216.148 436.281 216.148C436.609 216.148 436.888 216.104 437.117 216.016C437.346 215.932 437.539 215.789 437.695 215.586C437.857 215.388 437.995 215.115 438.109 214.766L438.711 213.125ZM436.984 205.547L439.18 212.109L439.555 213.633L438.516 214.164L435.406 205.547H436.984ZM445.359 207.172V217.25H443.906V205.547H445.234L445.359 207.172ZM451.055 209.703V209.867C451.055 210.482 450.982 211.052 450.836 211.578C450.69 212.099 450.477 212.552 450.195 212.938C449.919 213.323 449.578 213.622 449.172 213.836C448.766 214.049 448.299 214.156 447.773 214.156C447.237 214.156 446.763 214.068 446.352 213.891C445.94 213.714 445.591 213.456 445.305 213.117C445.018 212.779 444.789 212.372 444.617 211.898C444.451 211.424 444.336 210.891 444.273 210.297V209.422C444.336 208.797 444.453 208.237 444.625 207.742C444.797 207.247 445.023 206.826 445.305 206.477C445.591 206.122 445.938 205.854 446.344 205.672C446.75 205.484 447.219 205.391 447.75 205.391C448.281 205.391 448.753 205.495 449.164 205.703C449.576 205.906 449.922 206.198 450.203 206.578C450.484 206.958 450.695 207.414 450.836 207.945C450.982 208.471 451.055 209.057 451.055 209.703ZM449.602 209.867V209.703C449.602 209.281 449.557 208.885 449.469 208.516C449.38 208.141 449.242 207.812 449.055 207.531C448.872 207.245 448.638 207.021 448.352 206.859C448.065 206.693 447.724 206.609 447.328 206.609C446.964 206.609 446.646 206.672 446.375 206.797C446.109 206.922 445.883 207.091 445.695 207.305C445.508 207.513 445.354 207.753 445.234 208.023C445.12 208.289 445.034 208.565 444.977 208.852V210.875C445.081 211.24 445.227 211.583 445.414 211.906C445.602 212.224 445.852 212.482 446.164 212.68C446.477 212.872 446.87 212.969 447.344 212.969C447.734 212.969 448.07 212.888 448.352 212.727C448.638 212.56 448.872 212.333 449.055 212.047C449.242 211.76 449.38 211.432 449.469 211.062C449.557 210.688 449.602 210.289 449.602 209.867ZM456.406 214.156C455.818 214.156 455.284 214.057 454.805 213.859C454.331 213.656 453.922 213.372 453.578 213.008C453.24 212.643 452.979 212.211 452.797 211.711C452.615 211.211 452.523 210.664 452.523 210.07V209.742C452.523 209.055 452.625 208.443 452.828 207.906C453.031 207.365 453.307 206.906 453.656 206.531C454.005 206.156 454.401 205.872 454.844 205.68C455.286 205.487 455.745 205.391 456.219 205.391C456.823 205.391 457.344 205.495 457.781 205.703C458.224 205.911 458.586 206.203 458.867 206.578C459.148 206.948 459.357 207.385 459.492 207.891C459.628 208.391 459.695 208.938 459.695 209.531V210.18H453.383V209H458.25V208.891C458.229 208.516 458.151 208.151 458.016 207.797C457.885 207.443 457.677 207.151 457.391 206.922C457.104 206.693 456.714 206.578 456.219 206.578C455.891 206.578 455.589 206.648 455.312 206.789C455.036 206.924 454.799 207.128 454.602 207.398C454.404 207.669 454.25 208 454.141 208.391C454.031 208.781 453.977 209.232 453.977 209.742V210.07C453.977 210.471 454.031 210.849 454.141 211.203C454.255 211.552 454.419 211.859 454.633 212.125C454.852 212.391 455.115 212.599 455.422 212.75C455.734 212.901 456.089 212.977 456.484 212.977C456.995 212.977 457.427 212.872 457.781 212.664C458.135 212.456 458.445 212.177 458.711 211.828L459.586 212.523C459.404 212.799 459.172 213.062 458.891 213.312C458.609 213.562 458.263 213.766 457.852 213.922C457.445 214.078 456.964 214.156 456.406 214.156ZM467.984 206.383V207.641H461.469V206.383H467.984ZM467.984 209.625V210.883H461.469V209.625H467.984ZM471.234 202V203.062L471 205.852H470.133V203.133V202H471.234ZM473.344 202V203.062L473.109 205.852H472.242V203.078V202H473.344ZM475.281 202H476.734V212.359L476.609 214H475.281V202ZM482.445 209.703V209.867C482.445 210.482 482.372 211.052 482.227 211.578C482.081 212.099 481.867 212.552 481.586 212.938C481.305 213.323 480.961 213.622 480.555 213.836C480.148 214.049 479.682 214.156 479.156 214.156C478.62 214.156 478.148 214.065 477.742 213.883C477.341 213.695 477.003 213.427 476.727 213.078C476.451 212.729 476.229 212.307 476.062 211.812C475.901 211.318 475.789 210.76 475.727 210.141V209.422C475.789 208.797 475.901 208.237 476.062 207.742C476.229 207.247 476.451 206.826 476.727 206.477C477.003 206.122 477.341 205.854 477.742 205.672C478.143 205.484 478.609 205.391 479.141 205.391C479.672 205.391 480.143 205.495 480.555 205.703C480.966 205.906 481.31 206.198 481.586 206.578C481.867 206.958 482.081 207.414 482.227 207.945C482.372 208.471 482.445 209.057 482.445 209.703ZM480.992 209.867V209.703C480.992 209.281 480.953 208.885 480.875 208.516C480.797 208.141 480.672 207.812 480.5 207.531C480.328 207.245 480.102 207.021 479.82 206.859C479.539 206.693 479.193 206.609 478.781 206.609C478.417 206.609 478.099 206.672 477.828 206.797C477.562 206.922 477.336 207.091 477.148 207.305C476.961 207.513 476.807 207.753 476.688 208.023C476.573 208.289 476.487 208.565 476.43 208.852V210.734C476.513 211.099 476.648 211.451 476.836 211.789C477.029 212.122 477.284 212.396 477.602 212.609C477.924 212.823 478.323 212.93 478.797 212.93C479.188 212.93 479.521 212.852 479.797 212.695C480.078 212.534 480.305 212.312 480.477 212.031C480.654 211.75 480.784 211.424 480.867 211.055C480.951 210.685 480.992 210.289 480.992 209.867ZM489.445 212.047V205.547H490.898V214H489.516L489.445 212.047ZM489.719 210.266L490.32 210.25C490.32 210.812 490.26 211.333 490.141 211.812C490.026 212.286 489.839 212.698 489.578 213.047C489.318 213.396 488.977 213.669 488.555 213.867C488.133 214.06 487.62 214.156 487.016 214.156C486.604 214.156 486.227 214.096 485.883 213.977C485.544 213.857 485.253 213.672 485.008 213.422C484.763 213.172 484.573 212.846 484.438 212.445C484.307 212.044 484.242 211.562 484.242 211V205.547H485.688V211.016C485.688 211.396 485.729 211.711 485.812 211.961C485.901 212.206 486.018 212.401 486.164 212.547C486.315 212.688 486.482 212.786 486.664 212.844C486.852 212.901 487.044 212.93 487.242 212.93C487.857 212.93 488.344 212.812 488.703 212.578C489.062 212.339 489.32 212.018 489.477 211.617C489.638 211.211 489.719 210.76 489.719 210.266ZM496.641 205.547V206.656H492.07V205.547H496.641ZM493.617 203.492H495.062V211.906C495.062 212.193 495.107 212.409 495.195 212.555C495.284 212.701 495.398 212.797 495.539 212.844C495.68 212.891 495.831 212.914 495.992 212.914C496.112 212.914 496.237 212.904 496.367 212.883C496.503 212.857 496.604 212.836 496.672 212.82L496.68 214C496.565 214.036 496.414 214.07 496.227 214.102C496.044 214.138 495.823 214.156 495.562 214.156C495.208 214.156 494.883 214.086 494.586 213.945C494.289 213.805 494.052 213.57 493.875 213.242C493.703 212.909 493.617 212.461 493.617 211.898V203.492ZM501.875 205.547V206.656H497.305V205.547H501.875ZM498.852 203.492H500.297V211.906C500.297 212.193 500.341 212.409 500.43 212.555C500.518 212.701 500.633 212.797 500.773 212.844C500.914 212.891 501.065 212.914 501.227 212.914C501.346 212.914 501.471 212.904 501.602 212.883C501.737 212.857 501.839 212.836 501.906 212.82L501.914 214C501.799 214.036 501.648 214.07 501.461 214.102C501.279 214.138 501.057 214.156 500.797 214.156C500.443 214.156 500.117 214.086 499.82 213.945C499.523 213.805 499.286 213.57 499.109 213.242C498.938 212.909 498.852 212.461 498.852 211.898V203.492ZM503.031 209.867V209.688C503.031 209.078 503.12 208.513 503.297 207.992C503.474 207.466 503.729 207.01 504.062 206.625C504.396 206.234 504.799 205.932 505.273 205.719C505.747 205.5 506.279 205.391 506.867 205.391C507.461 205.391 507.995 205.5 508.469 205.719C508.948 205.932 509.354 206.234 509.688 206.625C510.026 207.01 510.284 207.466 510.461 207.992C510.638 208.513 510.727 209.078 510.727 209.688V209.867C510.727 210.477 510.638 211.042 510.461 211.562C510.284 212.083 510.026 212.539 509.688 212.93C509.354 213.315 508.951 213.617 508.477 213.836C508.008 214.049 507.477 214.156 506.883 214.156C506.289 214.156 505.755 214.049 505.281 213.836C504.807 213.617 504.401 213.315 504.062 212.93C503.729 212.539 503.474 212.083 503.297 211.562C503.12 211.042 503.031 210.477 503.031 209.867ZM504.477 209.688V209.867C504.477 210.289 504.526 210.688 504.625 211.062C504.724 211.432 504.872 211.76 505.07 212.047C505.273 212.333 505.526 212.56 505.828 212.727C506.13 212.888 506.482 212.969 506.883 212.969C507.279 212.969 507.625 212.888 507.922 212.727C508.224 212.56 508.474 212.333 508.672 212.047C508.87 211.76 509.018 211.432 509.117 211.062C509.221 210.688 509.273 210.289 509.273 209.867V209.688C509.273 209.271 509.221 208.878 509.117 208.508C509.018 208.133 508.867 207.802 508.664 207.516C508.466 207.224 508.216 206.995 507.914 206.828C507.617 206.661 507.268 206.578 506.867 206.578C506.471 206.578 506.122 206.661 505.82 206.828C505.523 206.995 505.273 207.224 505.07 207.516C504.872 207.802 504.724 208.133 504.625 208.508C504.526 208.878 504.477 209.271 504.477 209.688ZM513.984 207.352V214H512.539V205.547H513.906L513.984 207.352ZM513.641 209.453L513.039 209.43C513.044 208.852 513.13 208.318 513.297 207.828C513.464 207.333 513.698 206.904 514 206.539C514.302 206.174 514.661 205.893 515.078 205.695C515.5 205.492 515.966 205.391 516.477 205.391C516.893 205.391 517.268 205.448 517.602 205.562C517.935 205.672 518.219 205.849 518.453 206.094C518.693 206.339 518.875 206.656 519 207.047C519.125 207.432 519.188 207.904 519.188 208.461V214H517.734V208.445C517.734 208.003 517.669 207.648 517.539 207.383C517.409 207.112 517.219 206.917 516.969 206.797C516.719 206.672 516.411 206.609 516.047 206.609C515.688 206.609 515.359 206.685 515.062 206.836C514.771 206.987 514.518 207.195 514.305 207.461C514.096 207.727 513.932 208.031 513.812 208.375C513.698 208.714 513.641 209.073 513.641 209.453ZM521.641 202V203.062L521.406 205.852H520.539V203.133V202H521.641ZM523.75 202V203.062L523.516 205.852H522.648V203.078V202H523.75Z" fill="white"/>
<path d="M426 230V187L401 208.5L426 230Z" fill="#D83898"/>
<rect x="143" y="208" width="20" height="20" transform="rotate(-45 143 208)" fill="#6D6D6D"/>
<path d="M46 194C46 190.134 49.134 187 53 187H159V230H53C49.134 230 46 226.866 46 223V194Z" fill="#6D6D6D"/>
<path d="M72.75 208.75L78.1484 210.938V212.469L71.7578 209.508V208.609L72.75 208.75ZM78.1484 206.953L72.7578 209.172L71.7578 209.281V208.375L78.1484 205.422V206.953ZM80.4297 202H81.8828V212.359L81.7578 214H80.4297V202ZM87.5938 209.703V209.867C87.5938 210.482 87.5208 211.052 87.375 211.578C87.2292 212.099 87.0156 212.552 86.7344 212.938C86.4531 213.323 86.1094 213.622 85.7031 213.836C85.2969 214.049 84.8307 214.156 84.3047 214.156C83.7682 214.156 83.2969 214.065 82.8906 213.883C82.4896 213.695 82.151 213.427 81.875 213.078C81.599 212.729 81.3776 212.307 81.2109 211.812C81.0495 211.318 80.9375 210.76 80.875 210.141V209.422C80.9375 208.797 81.0495 208.237 81.2109 207.742C81.3776 207.247 81.599 206.826 81.875 206.477C82.151 206.122 82.4896 205.854 82.8906 205.672C83.2917 205.484 83.7578 205.391 84.2891 205.391C84.8203 205.391 85.2917 205.495 85.7031 205.703C86.1146 205.906 86.4583 206.198 86.7344 206.578C87.0156 206.958 87.2292 207.414 87.375 207.945C87.5208 208.471 87.5938 209.057 87.5938 209.703ZM86.1406 209.867V209.703C86.1406 209.281 86.1016 208.885 86.0234 208.516C85.9453 208.141 85.8203 207.812 85.6484 207.531C85.4766 207.245 85.25 207.021 84.9688 206.859C84.6875 206.693 84.3411 206.609 83.9297 206.609C83.5651 206.609 83.2474 206.672 82.9766 206.797C82.7109 206.922 82.4844 207.091 82.2969 207.305C82.1094 207.513 81.9557 207.753 81.8359 208.023C81.7214 208.289 81.6354 208.565 81.5781 208.852V210.734C81.6615 211.099 81.7969 211.451 81.9844 211.789C82.1771 212.122 82.4323 212.396 82.75 212.609C83.0729 212.823 83.4714 212.93 83.9453 212.93C84.3359 212.93 84.6693 212.852 84.9453 212.695C85.2266 212.534 85.4531 212.312 85.625 212.031C85.8021 211.75 85.9323 211.424 86.0156 211.055C86.099 210.685 86.1406 210.289 86.1406 209.867ZM94.5938 212.047V205.547H96.0469V214H94.6641L94.5938 212.047ZM94.8672 210.266L95.4688 210.25C95.4688 210.812 95.4089 211.333 95.2891 211.812C95.1745 212.286 94.987 212.698 94.7266 213.047C94.4661 213.396 94.125 213.669 93.7031 213.867C93.2812 214.06 92.7682 214.156 92.1641 214.156C91.7526 214.156 91.375 214.096 91.0312 213.977C90.6927 213.857 90.401 213.672 90.1562 213.422C89.9115 213.172 89.7214 212.846 89.5859 212.445C89.4557 212.044 89.3906 211.562 89.3906 211V205.547H90.8359V211.016C90.8359 211.396 90.8776 211.711 90.9609 211.961C91.0495 212.206 91.1667 212.401 91.3125 212.547C91.4635 212.688 91.6302 212.786 91.8125 212.844C92 212.901 92.1927 212.93 92.3906 212.93C93.0052 212.93 93.4922 212.812 93.8516 212.578C94.2109 212.339 94.4688 212.018 94.625 211.617C94.7865 211.211 94.8672 210.76 94.8672 210.266ZM101.789 205.547V206.656H97.2188V205.547H101.789ZM98.7656 203.492H100.211V211.906C100.211 212.193 100.255 212.409 100.344 212.555C100.432 212.701 100.547 212.797 100.688 212.844C100.828 212.891 100.979 212.914 101.141 212.914C101.26 212.914 101.385 212.904 101.516 212.883C101.651 212.857 101.753 212.836 101.82 212.82L101.828 214C101.714 214.036 101.562 214.07 101.375 214.102C101.193 214.138 100.971 214.156 100.711 214.156C100.357 214.156 100.031 214.086 99.7344 213.945C99.4375 213.805 99.2005 213.57 99.0234 213.242C98.8516 212.909 98.7656 212.461 98.7656 211.898V203.492ZM107.023 205.547V206.656H102.453V205.547H107.023ZM104 203.492H105.445V211.906C105.445 212.193 105.49 212.409 105.578 212.555C105.667 212.701 105.781 212.797 105.922 212.844C106.062 212.891 106.214 212.914 106.375 212.914C106.495 212.914 106.62 212.904 106.75 212.883C106.885 212.857 106.987 212.836 107.055 212.82L107.062 214C106.948 214.036 106.797 214.07 106.609 214.102C106.427 214.138 106.206 214.156 105.945 214.156C105.591 214.156 105.266 214.086 104.969 213.945C104.672 213.805 104.435 213.57 104.258 213.242C104.086 212.909 104 212.461 104 211.898V203.492ZM108.18 209.867V209.688C108.18 209.078 108.268 208.513 108.445 207.992C108.622 207.466 108.878 207.01 109.211 206.625C109.544 206.234 109.948 205.932 110.422 205.719C110.896 205.5 111.427 205.391 112.016 205.391C112.609 205.391 113.143 205.5 113.617 205.719C114.096 205.932 114.503 206.234 114.836 206.625C115.174 207.01 115.432 207.466 115.609 207.992C115.786 208.513 115.875 209.078 115.875 209.688V209.867C115.875 210.477 115.786 211.042 115.609 211.562C115.432 212.083 115.174 212.539 114.836 212.93C114.503 213.315 114.099 213.617 113.625 213.836C113.156 214.049 112.625 214.156 112.031 214.156C111.438 214.156 110.904 214.049 110.43 213.836C109.956 213.617 109.549 213.315 109.211 212.93C108.878 212.539 108.622 212.083 108.445 211.562C108.268 211.042 108.18 210.477 108.18 209.867ZM109.625 209.688V209.867C109.625 210.289 109.674 210.688 109.773 211.062C109.872 211.432 110.021 211.76 110.219 212.047C110.422 212.333 110.674 212.56 110.977 212.727C111.279 212.888 111.63 212.969 112.031 212.969C112.427 212.969 112.773 212.888 113.07 212.727C113.372 212.56 113.622 212.333 113.82 212.047C114.018 211.76 114.167 211.432 114.266 211.062C114.37 210.688 114.422 210.289 114.422 209.867V209.688C114.422 209.271 114.37 208.878 114.266 208.508C114.167 208.133 114.016 207.802 113.812 207.516C113.615 207.224 113.365 206.995 113.062 206.828C112.766 206.661 112.417 206.578 112.016 206.578C111.62 206.578 111.271 206.661 110.969 206.828C110.672 206.995 110.422 207.224 110.219 207.516C110.021 207.802 109.872 208.133 109.773 208.508C109.674 208.878 109.625 209.271 109.625 209.688ZM119.133 207.352V214H117.688V205.547H119.055L119.133 207.352ZM118.789 209.453L118.188 209.43C118.193 208.852 118.279 208.318 118.445 207.828C118.612 207.333 118.846 206.904 119.148 206.539C119.451 206.174 119.81 205.893 120.227 205.695C120.648 205.492 121.115 205.391 121.625 205.391C122.042 205.391 122.417 205.448 122.75 205.562C123.083 205.672 123.367 205.849 123.602 206.094C123.841 206.339 124.023 206.656 124.148 207.047C124.273 207.432 124.336 207.904 124.336 208.461V214H122.883V208.445C122.883 208.003 122.818 207.648 122.688 207.383C122.557 207.112 122.367 206.917 122.117 206.797C121.867 206.672 121.56 206.609 121.195 206.609C120.836 206.609 120.508 206.685 120.211 206.836C119.919 206.987 119.667 207.195 119.453 207.461C119.245 207.727 119.081 208.031 118.961 208.375C118.846 208.714 118.789 209.073 118.789 209.453ZM132.039 209.062L126.484 206.898V205.406L133.156 208.359V209.273L132.039 209.062ZM126.484 210.969L132.055 208.758L133.156 208.594V209.5L126.484 212.461V210.969Z" fill="white"/>
<rect x="186" y="157" width="200" height="103.077" rx="51.5385" fill="url(#paint0_linear_57_102)"/>
<ellipse cx="332.925" cy="208.925" rx="41.925" ry="41.925" fill="white"/>
</g>
<defs>
<linearGradient id="paint0_linear_57_102" x1="186" y1="157" x2="386" y2="260" gradientUnits="userSpaceOnUse">
<stop stop-color="#52860C"/>
<stop offset="1" stop-color="#3B6D07"/>
</linearGradient>
<clipPath id="clip0_57_102">
<rect width="573" height="416" fill="white"/>
</clipPath>
</defs>
</svg>
