<svg width="593" height="435" viewBox="0 0 593 435" fill="none" xmlns="http://www.w3.org/2000/svg">
<rect width="593" height="435" fill="white"/>
<rect x="10.5" y="28.5" width="572" height="396" fill="#FBFBFB" stroke="#E5E5E5"/>
<rect width="123" height="43" transform="translate(235 101)" fill="#137EAD"/>
<path d="M253.562 120.875V128H252.117V119.547H253.523L253.562 120.875ZM256.203 119.5L256.195 120.844C256.076 120.818 255.961 120.802 255.852 120.797C255.747 120.786 255.628 120.781 255.492 120.781C255.159 120.781 254.865 120.833 254.609 120.938C254.354 121.042 254.138 121.188 253.961 121.375C253.784 121.562 253.643 121.786 253.539 122.047C253.44 122.302 253.375 122.583 253.344 122.891L252.938 123.125C252.938 122.615 252.987 122.135 253.086 121.688C253.19 121.24 253.349 120.844 253.562 120.5C253.776 120.151 254.047 119.88 254.375 119.688C254.708 119.49 255.104 119.391 255.562 119.391C255.667 119.391 255.786 119.404 255.922 119.43C256.057 119.451 256.151 119.474 256.203 119.5ZM257 123.867V123.688C257 123.078 257.089 122.513 257.266 121.992C257.443 121.466 257.698 121.01 258.031 120.625C258.365 120.234 258.768 119.932 259.242 119.719C259.716 119.5 260.247 119.391 260.836 119.391C261.43 119.391 261.964 119.5 262.438 119.719C262.917 119.932 263.323 120.234 263.656 120.625C263.995 121.01 264.253 121.466 264.43 121.992C264.607 122.513 264.695 123.078 264.695 123.688V123.867C264.695 124.477 264.607 125.042 264.43 125.562C264.253 126.083 263.995 126.539 263.656 126.93C263.323 127.315 262.919 127.617 262.445 127.836C261.977 128.049 261.445 128.156 260.852 128.156C260.258 128.156 259.724 128.049 259.25 127.836C258.776 127.617 258.37 127.315 258.031 126.93C257.698 126.539 257.443 126.083 257.266 125.562C257.089 125.042 257 124.477 257 123.867ZM258.445 123.688V123.867C258.445 124.289 258.495 124.688 258.594 125.062C258.693 125.432 258.841 125.76 259.039 126.047C259.242 126.333 259.495 126.56 259.797 126.727C260.099 126.888 260.451 126.969 260.852 126.969C261.247 126.969 261.594 126.888 261.891 126.727C262.193 126.56 262.443 126.333 262.641 126.047C262.839 125.76 262.987 125.432 263.086 125.062C263.19 124.688 263.242 124.289 263.242 123.867V123.688C263.242 123.271 263.19 122.878 263.086 122.508C262.987 122.133 262.836 121.802 262.633 121.516C262.435 121.224 262.185 120.995 261.883 120.828C261.586 120.661 261.237 120.578 260.836 120.578C260.44 120.578 260.091 120.661 259.789 120.828C259.492 120.995 259.242 121.224 259.039 121.516C258.841 121.802 258.693 122.133 258.594 122.508C258.495 122.878 258.445 123.271 258.445 123.688ZM268.078 116V128H266.625V116H268.078ZM273.906 128.156C273.318 128.156 272.784 128.057 272.305 127.859C271.831 127.656 271.422 127.372 271.078 127.008C270.74 126.643 270.479 126.211 270.297 125.711C270.115 125.211 270.023 124.664 270.023 124.07V123.742C270.023 123.055 270.125 122.443 270.328 121.906C270.531 121.365 270.807 120.906 271.156 120.531C271.505 120.156 271.901 119.872 272.344 119.68C272.786 119.487 273.245 119.391 273.719 119.391C274.323 119.391 274.844 119.495 275.281 119.703C275.724 119.911 276.086 120.203 276.367 120.578C276.648 120.948 276.857 121.385 276.992 121.891C277.128 122.391 277.195 122.938 277.195 123.531V124.18H270.883V123H275.75V122.891C275.729 122.516 275.651 122.151 275.516 121.797C275.385 121.443 275.177 121.151 274.891 120.922C274.604 120.693 274.214 120.578 273.719 120.578C273.391 120.578 273.089 120.648 272.812 120.789C272.536 120.924 272.299 121.128 272.102 121.398C271.904 121.669 271.75 122 271.641 122.391C271.531 122.781 271.477 123.232 271.477 123.742V124.07C271.477 124.471 271.531 124.849 271.641 125.203C271.755 125.552 271.919 125.859 272.133 126.125C272.352 126.391 272.615 126.599 272.922 126.75C273.234 126.901 273.589 126.977 273.984 126.977C274.495 126.977 274.927 126.872 275.281 126.664C275.635 126.456 275.945 126.177 276.211 125.828L277.086 126.523C276.904 126.799 276.672 127.062 276.391 127.312C276.109 127.562 275.763 127.766 275.352 127.922C274.945 128.078 274.464 128.156 273.906 128.156ZM285.484 120.383V121.641H278.969V120.383H285.484ZM285.484 123.625V124.883H278.969V123.625H285.484ZM288.734 116V117.062L288.5 119.852H287.633V117.133V116H288.734ZM290.844 116V117.062L290.609 119.852H289.742V117.078V116H290.844ZM297.086 125.758C297.086 125.549 297.039 125.357 296.945 125.18C296.857 124.997 296.672 124.833 296.391 124.688C296.115 124.536 295.698 124.406 295.141 124.297C294.672 124.198 294.247 124.081 293.867 123.945C293.492 123.81 293.172 123.646 292.906 123.453C292.646 123.26 292.445 123.034 292.305 122.773C292.164 122.513 292.094 122.208 292.094 121.859C292.094 121.526 292.167 121.211 292.312 120.914C292.464 120.617 292.674 120.354 292.945 120.125C293.221 119.896 293.552 119.716 293.938 119.586C294.323 119.456 294.753 119.391 295.227 119.391C295.904 119.391 296.482 119.51 296.961 119.75C297.44 119.99 297.807 120.31 298.062 120.711C298.318 121.107 298.445 121.547 298.445 122.031H297C297 121.797 296.93 121.57 296.789 121.352C296.654 121.128 296.453 120.943 296.188 120.797C295.927 120.651 295.607 120.578 295.227 120.578C294.826 120.578 294.5 120.641 294.25 120.766C294.005 120.885 293.826 121.039 293.711 121.227C293.602 121.414 293.547 121.612 293.547 121.82C293.547 121.977 293.573 122.117 293.625 122.242C293.682 122.362 293.781 122.474 293.922 122.578C294.062 122.677 294.26 122.771 294.516 122.859C294.771 122.948 295.096 123.036 295.492 123.125C296.185 123.281 296.755 123.469 297.203 123.688C297.651 123.906 297.984 124.174 298.203 124.492C298.422 124.81 298.531 125.195 298.531 125.648C298.531 126.018 298.453 126.357 298.297 126.664C298.146 126.971 297.924 127.237 297.633 127.461C297.346 127.68 297.003 127.852 296.602 127.977C296.206 128.096 295.76 128.156 295.266 128.156C294.521 128.156 293.891 128.023 293.375 127.758C292.859 127.492 292.469 127.148 292.203 126.727C291.938 126.305 291.805 125.859 291.805 125.391H293.258C293.279 125.786 293.393 126.102 293.602 126.336C293.81 126.565 294.065 126.729 294.367 126.828C294.669 126.922 294.969 126.969 295.266 126.969C295.661 126.969 295.992 126.917 296.258 126.812C296.529 126.708 296.734 126.565 296.875 126.383C297.016 126.201 297.086 125.992 297.086 125.758ZM302.57 126.5L304.742 119.547H305.695L305.508 120.93L303.297 128H302.367L302.57 126.5ZM301.109 119.547L302.961 126.578L303.094 128H302.117L299.664 119.547H301.109ZM307.773 126.523L309.539 119.547H310.977L308.523 128H307.555L307.773 126.523ZM305.906 119.547L308.031 126.383L308.273 128H307.352L305.078 120.914L304.891 119.547H305.906ZM314.031 119.547V128H312.578V119.547H314.031ZM312.469 117.305C312.469 117.07 312.539 116.872 312.68 116.711C312.826 116.549 313.039 116.469 313.32 116.469C313.596 116.469 313.807 116.549 313.953 116.711C314.104 116.872 314.18 117.07 314.18 117.305C314.18 117.529 314.104 117.721 313.953 117.883C313.807 118.039 313.596 118.117 313.32 118.117C313.039 118.117 312.826 118.039 312.68 117.883C312.539 117.721 312.469 117.529 312.469 117.305ZM319.891 119.547V120.656H315.32V119.547H319.891ZM316.867 117.492H318.312V125.906C318.312 126.193 318.357 126.409 318.445 126.555C318.534 126.701 318.648 126.797 318.789 126.844C318.93 126.891 319.081 126.914 319.242 126.914C319.362 126.914 319.487 126.904 319.617 126.883C319.753 126.857 319.854 126.836 319.922 126.82L319.93 128C319.815 128.036 319.664 128.07 319.477 128.102C319.294 128.138 319.073 128.156 318.812 128.156C318.458 128.156 318.133 128.086 317.836 127.945C317.539 127.805 317.302 127.57 317.125 127.242C316.953 126.909 316.867 126.461 316.867 125.898V117.492ZM324.969 126.969C325.312 126.969 325.63 126.898 325.922 126.758C326.214 126.617 326.453 126.424 326.641 126.18C326.828 125.93 326.935 125.646 326.961 125.328H328.336C328.31 125.828 328.141 126.294 327.828 126.727C327.521 127.154 327.117 127.5 326.617 127.766C326.117 128.026 325.568 128.156 324.969 128.156C324.333 128.156 323.779 128.044 323.305 127.82C322.836 127.596 322.445 127.289 322.133 126.898C321.826 126.508 321.594 126.06 321.438 125.555C321.286 125.044 321.211 124.505 321.211 123.938V123.609C321.211 123.042 321.286 122.505 321.438 122C321.594 121.49 321.826 121.039 322.133 120.648C322.445 120.258 322.836 119.951 323.305 119.727C323.779 119.503 324.333 119.391 324.969 119.391C325.63 119.391 326.208 119.526 326.703 119.797C327.198 120.062 327.586 120.427 327.867 120.891C328.154 121.349 328.31 121.87 328.336 122.453H326.961C326.935 122.104 326.836 121.789 326.664 121.508C326.497 121.227 326.268 121.003 325.977 120.836C325.69 120.664 325.354 120.578 324.969 120.578C324.526 120.578 324.154 120.667 323.852 120.844C323.555 121.016 323.318 121.25 323.141 121.547C322.969 121.839 322.844 122.164 322.766 122.523C322.693 122.878 322.656 123.24 322.656 123.609V123.938C322.656 124.307 322.693 124.672 322.766 125.031C322.839 125.391 322.961 125.716 323.133 126.008C323.31 126.299 323.547 126.534 323.844 126.711C324.146 126.883 324.521 126.969 324.969 126.969ZM331.406 116V128H329.961V116H331.406ZM331.062 123.453L330.461 123.43C330.466 122.852 330.552 122.318 330.719 121.828C330.885 121.333 331.12 120.904 331.422 120.539C331.724 120.174 332.083 119.893 332.5 119.695C332.922 119.492 333.388 119.391 333.898 119.391C334.315 119.391 334.69 119.448 335.023 119.562C335.357 119.672 335.641 119.849 335.875 120.094C336.115 120.339 336.297 120.656 336.422 121.047C336.547 121.432 336.609 121.904 336.609 122.461V128H335.156V122.445C335.156 122.003 335.091 121.648 334.961 121.383C334.831 121.112 334.641 120.917 334.391 120.797C334.141 120.672 333.833 120.609 333.469 120.609C333.109 120.609 332.781 120.685 332.484 120.836C332.193 120.987 331.94 121.195 331.727 121.461C331.518 121.727 331.354 122.031 331.234 122.375C331.12 122.714 331.062 123.073 331.062 123.453ZM339.031 116V117.062L338.797 119.852H337.93V117.133V116H339.031ZM341.141 116V117.062L340.906 119.852H340.039V117.078V116H341.141Z" fill="white"/>
<circle cx="296" cy="140" r="12" fill="#137EAD"/>
<path d="M12.1211 11.4688V20H10.9902V11.4688H12.1211ZM15.6953 15.3066V16.2324H11.875V15.3066H15.6953ZM16.2754 11.4688V12.3945H11.875V11.4688H16.2754ZM18.3906 14.6562V20H17.3066V13.6602H18.3613L18.3906 14.6562ZM20.3711 13.625L20.3652 14.6328C20.2754 14.6133 20.1895 14.6016 20.1074 14.5977C20.0293 14.5898 19.9395 14.5859 19.8379 14.5859C19.5879 14.5859 19.3672 14.625 19.1758 14.7031C18.9844 14.7812 18.8223 14.8906 18.6895 15.0312C18.5566 15.1719 18.4512 15.3398 18.373 15.5352C18.2988 15.7266 18.25 15.9375 18.2266 16.168L17.9219 16.3438C17.9219 15.9609 17.959 15.6016 18.0332 15.2656C18.1113 14.9297 18.2305 14.6328 18.3906 14.375C18.5508 14.1133 18.7539 13.9102 19 13.7656C19.25 13.6172 19.5469 13.543 19.8906 13.543C19.9688 13.543 20.0586 13.5527 20.1602 13.5723C20.2617 13.5879 20.332 13.6055 20.3711 13.625ZM24.877 18.916V15.6523C24.877 15.4023 24.8262 15.1855 24.7246 15.002C24.627 14.8145 24.4785 14.6699 24.2793 14.5684C24.0801 14.4668 23.834 14.416 23.541 14.416C23.2676 14.416 23.0273 14.4629 22.8203 14.5566C22.6172 14.6504 22.457 14.7734 22.3398 14.9258C22.2266 15.0781 22.1699 15.2422 22.1699 15.418H21.0859C21.0859 15.1914 21.1445 14.9668 21.2617 14.7441C21.3789 14.5215 21.5469 14.3203 21.7656 14.1406C21.9883 13.957 22.2539 13.8125 22.5625 13.707C22.875 13.5977 23.2227 13.543 23.6055 13.543C24.0664 13.543 24.4727 13.6211 24.8242 13.7773C25.1797 13.9336 25.457 14.1699 25.6562 14.4863C25.8594 14.7988 25.9609 15.1914 25.9609 15.6641V18.6172C25.9609 18.8281 25.9785 19.0527 26.0137 19.291C26.0527 19.5293 26.1094 19.7344 26.1836 19.9062V20H25.0527C24.998 19.875 24.9551 19.709 24.9238 19.502C24.8926 19.291 24.877 19.0957 24.877 18.916ZM25.0645 16.1562L25.0762 16.918H23.9805C23.6719 16.918 23.3965 16.9434 23.1543 16.9941C22.9121 17.041 22.709 17.1133 22.5449 17.2109C22.3809 17.3086 22.2559 17.4316 22.1699 17.5801C22.084 17.7246 22.041 17.8945 22.041 18.0898C22.041 18.2891 22.0859 18.4707 22.1758 18.6348C22.2656 18.7988 22.4004 18.9297 22.5801 19.0273C22.7637 19.1211 22.9883 19.168 23.2539 19.168C23.5859 19.168 23.8789 19.0977 24.1328 18.957C24.3867 18.8164 24.5879 18.6445 24.7363 18.4414C24.8887 18.2383 24.9707 18.041 24.9824 17.8496L25.4453 18.3711C25.418 18.5352 25.3438 18.7168 25.2227 18.916C25.1016 19.1152 24.9395 19.3066 24.7363 19.4902C24.5371 19.6699 24.2988 19.8203 24.0215 19.9414C23.748 20.0586 23.4395 20.1172 23.0957 20.1172C22.666 20.1172 22.2891 20.0332 21.9648 19.8652C21.6445 19.6973 21.3945 19.4727 21.2148 19.1914C21.0391 18.9062 20.9512 18.5879 20.9512 18.2363C20.9512 17.8965 21.0176 17.5977 21.1504 17.3398C21.2832 17.0781 21.4746 16.8613 21.7246 16.6895C21.9746 16.5137 22.2754 16.3809 22.627 16.291C22.9785 16.2012 23.3711 16.1562 23.8047 16.1562H25.0645ZM28.7441 14.9199V20H27.6543V13.6602H28.6855L28.7441 14.9199ZM28.5215 16.5898L28.0176 16.5723C28.0215 16.1387 28.0781 15.7383 28.1875 15.3711C28.2969 15 28.459 14.6777 28.6738 14.4043C28.8887 14.1309 29.1562 13.9199 29.4766 13.7715C29.7969 13.6191 30.168 13.543 30.5898 13.543C30.8867 13.543 31.1602 13.5859 31.4102 13.6719C31.6602 13.7539 31.877 13.8848 32.0605 14.0645C32.2441 14.2441 32.3867 14.4746 32.4883 14.7559C32.5898 15.0371 32.6406 15.377 32.6406 15.7754V20H31.5566V15.8281C31.5566 15.4961 31.5 15.2305 31.3867 15.0312C31.2773 14.832 31.1211 14.6875 30.918 14.5977C30.7148 14.5039 30.4766 14.457 30.2031 14.457C29.8828 14.457 29.6152 14.5137 29.4004 14.627C29.1855 14.7402 29.0137 14.8965 28.8848 15.0957C28.7559 15.2949 28.6621 15.5234 28.6035 15.7812C28.5488 16.0352 28.5215 16.3047 28.5215 16.5898ZM32.6289 15.9922L31.9023 16.2148C31.9062 15.8672 31.9629 15.5332 32.0723 15.2129C32.1855 14.8926 32.3477 14.6074 32.5586 14.3574C32.7734 14.1074 33.0371 13.9102 33.3496 13.7656C33.6621 13.6172 34.0195 13.543 34.4219 13.543C34.7617 13.543 35.0625 13.5879 35.3242 13.6777C35.5898 13.7676 35.8125 13.9062 35.9922 14.0938C36.1758 14.2773 36.3145 14.5137 36.4082 14.8027C36.502 15.0918 36.5488 15.4355 36.5488 15.834V20H35.459V15.8223C35.459 15.4668 35.4023 15.1914 35.2891 14.9961C35.1797 14.7969 35.0234 14.6582 34.8203 14.5801C34.6211 14.498 34.3828 14.457 34.1055 14.457C33.8672 14.457 33.6562 14.498 33.4727 14.5801C33.2891 14.6621 33.1348 14.7754 33.0098 14.9199C32.8848 15.0605 32.7891 15.2227 32.7227 15.4062C32.6602 15.5898 32.6289 15.7852 32.6289 15.9922ZM40.8203 20.1172C40.3789 20.1172 39.9785 20.043 39.6191 19.8945C39.2637 19.7422 38.957 19.5293 38.6992 19.2559C38.4453 18.9824 38.25 18.6582 38.1133 18.2832C37.9766 17.9082 37.9082 17.498 37.9082 17.0527V16.8066C37.9082 16.291 37.9844 15.832 38.1367 15.4297C38.2891 15.0234 38.4961 14.6797 38.7578 14.3984C39.0195 14.1172 39.3164 13.9043 39.6484 13.7598C39.9805 13.6152 40.3242 13.543 40.6797 13.543C41.1328 13.543 41.5234 13.6211 41.8516 13.7773C42.1836 13.9336 42.4551 14.1523 42.666 14.4336C42.877 14.7109 43.0332 15.0391 43.1348 15.418C43.2363 15.793 43.2871 16.2031 43.2871 16.6484V17.1348H38.5527V16.25H42.2031V16.168C42.1875 15.8867 42.1289 15.6133 42.0273 15.3477C41.9297 15.082 41.7734 14.8633 41.5586 14.6914C41.3438 14.5195 41.0508 14.4336 40.6797 14.4336C40.4336 14.4336 40.207 14.4863 40 14.5918C39.793 14.6934 39.6152 14.8457 39.4668 15.0488C39.3184 15.252 39.2031 15.5 39.1211 15.793C39.0391 16.0859 38.998 16.4238 38.998 16.8066V17.0527C38.998 17.3535 39.0391 17.6367 39.1211 17.9023C39.207 18.1641 39.3301 18.3945 39.4902 18.5938C39.6543 18.793 39.8516 18.9492 40.082 19.0625C40.3164 19.1758 40.582 19.2324 40.8789 19.2324C41.2617 19.2324 41.5859 19.1543 41.8516 18.998C42.1172 18.8418 42.3496 18.6328 42.5488 18.3711L43.2051 18.8926C43.0684 19.0996 42.8945 19.2969 42.6836 19.4844C42.4727 19.6719 42.2129 19.8242 41.9043 19.9414C41.5996 20.0586 41.2383 20.1172 40.8203 20.1172ZM52.9258 11.4688V12.0781L49.3926 20H48.25L51.7773 12.3594H47.1602V11.4688H52.9258Z" fill="#858585"/>
<rect width="166" height="43" transform="translate(271 299)" fill="#D83898"/>
<path d="M291.086 324.555V320.203C291.086 319.87 291.018 319.581 290.883 319.336C290.753 319.086 290.555 318.893 290.289 318.758C290.023 318.622 289.695 318.555 289.305 318.555C288.94 318.555 288.62 318.617 288.344 318.742C288.073 318.867 287.859 319.031 287.703 319.234C287.552 319.438 287.477 319.656 287.477 319.891H286.031C286.031 319.589 286.109 319.289 286.266 318.992C286.422 318.695 286.646 318.427 286.938 318.188C287.234 317.943 287.589 317.75 288 317.609C288.417 317.464 288.88 317.391 289.391 317.391C290.005 317.391 290.547 317.495 291.016 317.703C291.49 317.911 291.859 318.227 292.125 318.648C292.396 319.065 292.531 319.589 292.531 320.219V324.156C292.531 324.438 292.555 324.737 292.602 325.055C292.654 325.372 292.729 325.646 292.828 325.875V326H291.32C291.247 325.833 291.19 325.612 291.148 325.336C291.107 325.055 291.086 324.794 291.086 324.555ZM291.336 320.875L291.352 321.891H289.891C289.479 321.891 289.112 321.924 288.789 321.992C288.466 322.055 288.195 322.151 287.977 322.281C287.758 322.411 287.591 322.576 287.477 322.773C287.362 322.966 287.305 323.193 287.305 323.453C287.305 323.719 287.365 323.961 287.484 324.18C287.604 324.398 287.784 324.573 288.023 324.703C288.268 324.828 288.568 324.891 288.922 324.891C289.365 324.891 289.755 324.797 290.094 324.609C290.432 324.422 290.701 324.193 290.898 323.922C291.102 323.651 291.211 323.388 291.227 323.133L291.844 323.828C291.807 324.047 291.708 324.289 291.547 324.555C291.385 324.82 291.169 325.076 290.898 325.32C290.633 325.56 290.315 325.76 289.945 325.922C289.581 326.078 289.169 326.156 288.711 326.156C288.138 326.156 287.635 326.044 287.203 325.82C286.776 325.596 286.443 325.297 286.203 324.922C285.969 324.542 285.852 324.117 285.852 323.648C285.852 323.195 285.94 322.797 286.117 322.453C286.294 322.104 286.549 321.815 286.883 321.586C287.216 321.352 287.617 321.174 288.086 321.055C288.555 320.935 289.078 320.875 289.656 320.875H291.336ZM296.25 318.875V326H294.805V317.547H296.211L296.25 318.875ZM298.891 317.5L298.883 318.844C298.763 318.818 298.648 318.802 298.539 318.797C298.435 318.786 298.315 318.781 298.18 318.781C297.846 318.781 297.552 318.833 297.297 318.938C297.042 319.042 296.826 319.188 296.648 319.375C296.471 319.562 296.331 319.786 296.227 320.047C296.128 320.302 296.062 320.583 296.031 320.891L295.625 321.125C295.625 320.615 295.674 320.135 295.773 319.688C295.878 319.24 296.036 318.844 296.25 318.5C296.464 318.151 296.734 317.88 297.062 317.688C297.396 317.49 297.792 317.391 298.25 317.391C298.354 317.391 298.474 317.404 298.609 317.43C298.745 317.451 298.839 317.474 298.891 317.5ZM301.797 317.547V326H300.344V317.547H301.797ZM300.234 315.305C300.234 315.07 300.305 314.872 300.445 314.711C300.591 314.549 300.805 314.469 301.086 314.469C301.362 314.469 301.573 314.549 301.719 314.711C301.87 314.872 301.945 315.07 301.945 315.305C301.945 315.529 301.87 315.721 301.719 315.883C301.573 316.039 301.362 316.117 301.086 316.117C300.805 316.117 300.591 316.039 300.445 315.883C300.305 315.721 300.234 315.529 300.234 315.305ZM309.102 324.555V320.203C309.102 319.87 309.034 319.581 308.898 319.336C308.768 319.086 308.57 318.893 308.305 318.758C308.039 318.622 307.711 318.555 307.32 318.555C306.956 318.555 306.635 318.617 306.359 318.742C306.089 318.867 305.875 319.031 305.719 319.234C305.568 319.438 305.492 319.656 305.492 319.891H304.047C304.047 319.589 304.125 319.289 304.281 318.992C304.438 318.695 304.661 318.427 304.953 318.188C305.25 317.943 305.604 317.75 306.016 317.609C306.432 317.464 306.896 317.391 307.406 317.391C308.021 317.391 308.562 317.495 309.031 317.703C309.505 317.911 309.875 318.227 310.141 318.648C310.411 319.065 310.547 319.589 310.547 320.219V324.156C310.547 324.438 310.57 324.737 310.617 325.055C310.669 325.372 310.745 325.646 310.844 325.875V326H309.336C309.263 325.833 309.206 325.612 309.164 325.336C309.122 325.055 309.102 324.794 309.102 324.555ZM309.352 320.875L309.367 321.891H307.906C307.495 321.891 307.128 321.924 306.805 321.992C306.482 322.055 306.211 322.151 305.992 322.281C305.773 322.411 305.607 322.576 305.492 322.773C305.378 322.966 305.32 323.193 305.32 323.453C305.32 323.719 305.38 323.961 305.5 324.18C305.62 324.398 305.799 324.573 306.039 324.703C306.284 324.828 306.583 324.891 306.938 324.891C307.38 324.891 307.771 324.797 308.109 324.609C308.448 324.422 308.716 324.193 308.914 323.922C309.117 323.651 309.227 323.388 309.242 323.133L309.859 323.828C309.823 324.047 309.724 324.289 309.562 324.555C309.401 324.82 309.185 325.076 308.914 325.32C308.648 325.56 308.331 325.76 307.961 325.922C307.596 326.078 307.185 326.156 306.727 326.156C306.154 326.156 305.651 326.044 305.219 325.82C304.792 325.596 304.458 325.297 304.219 324.922C303.984 324.542 303.867 324.117 303.867 323.648C303.867 323.195 303.956 322.797 304.133 322.453C304.31 322.104 304.565 321.815 304.898 321.586C305.232 321.352 305.633 321.174 306.102 321.055C306.57 320.935 307.094 320.875 307.672 320.875H309.352ZM315.828 320.57V321.758H312.016V320.57H315.828ZM320.625 324.969C320.969 324.969 321.286 324.898 321.578 324.758C321.87 324.617 322.109 324.424 322.297 324.18C322.484 323.93 322.591 323.646 322.617 323.328H323.992C323.966 323.828 323.797 324.294 323.484 324.727C323.177 325.154 322.773 325.5 322.273 325.766C321.773 326.026 321.224 326.156 320.625 326.156C319.99 326.156 319.435 326.044 318.961 325.82C318.492 325.596 318.102 325.289 317.789 324.898C317.482 324.508 317.25 324.06 317.094 323.555C316.943 323.044 316.867 322.505 316.867 321.938V321.609C316.867 321.042 316.943 320.505 317.094 320C317.25 319.49 317.482 319.039 317.789 318.648C318.102 318.258 318.492 317.951 318.961 317.727C319.435 317.503 319.99 317.391 320.625 317.391C321.286 317.391 321.865 317.526 322.359 317.797C322.854 318.062 323.242 318.427 323.523 318.891C323.81 319.349 323.966 319.87 323.992 320.453H322.617C322.591 320.104 322.492 319.789 322.32 319.508C322.154 319.227 321.924 319.003 321.633 318.836C321.346 318.664 321.01 318.578 320.625 318.578C320.182 318.578 319.81 318.667 319.508 318.844C319.211 319.016 318.974 319.25 318.797 319.547C318.625 319.839 318.5 320.164 318.422 320.523C318.349 320.878 318.312 321.24 318.312 321.609V321.938C318.312 322.307 318.349 322.672 318.422 323.031C318.495 323.391 318.617 323.716 318.789 324.008C318.966 324.299 319.203 324.534 319.5 324.711C319.802 324.883 320.177 324.969 320.625 324.969ZM327.062 314V326H325.617V314H327.062ZM326.719 321.453L326.117 321.43C326.122 320.852 326.208 320.318 326.375 319.828C326.542 319.333 326.776 318.904 327.078 318.539C327.38 318.174 327.74 317.893 328.156 317.695C328.578 317.492 329.044 317.391 329.555 317.391C329.971 317.391 330.346 317.448 330.68 317.562C331.013 317.672 331.297 317.849 331.531 318.094C331.771 318.339 331.953 318.656 332.078 319.047C332.203 319.432 332.266 319.904 332.266 320.461V326H330.812V320.445C330.812 320.003 330.747 319.648 330.617 319.383C330.487 319.112 330.297 318.917 330.047 318.797C329.797 318.672 329.49 318.609 329.125 318.609C328.766 318.609 328.438 318.685 328.141 318.836C327.849 318.987 327.596 319.195 327.383 319.461C327.174 319.727 327.01 320.031 326.891 320.375C326.776 320.714 326.719 321.073 326.719 321.453ZM337.938 326.156C337.349 326.156 336.815 326.057 336.336 325.859C335.862 325.656 335.453 325.372 335.109 325.008C334.771 324.643 334.51 324.211 334.328 323.711C334.146 323.211 334.055 322.664 334.055 322.07V321.742C334.055 321.055 334.156 320.443 334.359 319.906C334.562 319.365 334.839 318.906 335.188 318.531C335.536 318.156 335.932 317.872 336.375 317.68C336.818 317.487 337.276 317.391 337.75 317.391C338.354 317.391 338.875 317.495 339.312 317.703C339.755 317.911 340.117 318.203 340.398 318.578C340.68 318.948 340.888 319.385 341.023 319.891C341.159 320.391 341.227 320.938 341.227 321.531V322.18H334.914V321H339.781V320.891C339.76 320.516 339.682 320.151 339.547 319.797C339.417 319.443 339.208 319.151 338.922 318.922C338.635 318.693 338.245 318.578 337.75 318.578C337.422 318.578 337.12 318.648 336.844 318.789C336.568 318.924 336.331 319.128 336.133 319.398C335.935 319.669 335.781 320 335.672 320.391C335.562 320.781 335.508 321.232 335.508 321.742V322.07C335.508 322.471 335.562 322.849 335.672 323.203C335.786 323.552 335.951 323.859 336.164 324.125C336.383 324.391 336.646 324.599 336.953 324.75C337.266 324.901 337.62 324.977 338.016 324.977C338.526 324.977 338.958 324.872 339.312 324.664C339.667 324.456 339.977 324.177 340.242 323.828L341.117 324.523C340.935 324.799 340.703 325.062 340.422 325.312C340.141 325.562 339.794 325.766 339.383 325.922C338.977 326.078 338.495 326.156 337.938 326.156ZM346.297 324.969C346.641 324.969 346.958 324.898 347.25 324.758C347.542 324.617 347.781 324.424 347.969 324.18C348.156 323.93 348.263 323.646 348.289 323.328H349.664C349.638 323.828 349.469 324.294 349.156 324.727C348.849 325.154 348.445 325.5 347.945 325.766C347.445 326.026 346.896 326.156 346.297 326.156C345.661 326.156 345.107 326.044 344.633 325.82C344.164 325.596 343.773 325.289 343.461 324.898C343.154 324.508 342.922 324.06 342.766 323.555C342.615 323.044 342.539 322.505 342.539 321.938V321.609C342.539 321.042 342.615 320.505 342.766 320C342.922 319.49 343.154 319.039 343.461 318.648C343.773 318.258 344.164 317.951 344.633 317.727C345.107 317.503 345.661 317.391 346.297 317.391C346.958 317.391 347.536 317.526 348.031 317.797C348.526 318.062 348.914 318.427 349.195 318.891C349.482 319.349 349.638 319.87 349.664 320.453H348.289C348.263 320.104 348.164 319.789 347.992 319.508C347.826 319.227 347.596 319.003 347.305 318.836C347.018 318.664 346.682 318.578 346.297 318.578C345.854 318.578 345.482 318.667 345.18 318.844C344.883 319.016 344.646 319.25 344.469 319.547C344.297 319.839 344.172 320.164 344.094 320.523C344.021 320.878 343.984 321.24 343.984 321.609V321.938C343.984 322.307 344.021 322.672 344.094 323.031C344.167 323.391 344.289 323.716 344.461 324.008C344.638 324.299 344.875 324.534 345.172 324.711C345.474 324.883 345.849 324.969 346.297 324.969ZM352.742 314V326H351.289V314H352.742ZM357.906 317.547L354.219 321.492L352.156 323.633L352.039 322.094L353.516 320.328L356.141 317.547H357.906ZM356.586 326L353.57 321.969L354.32 320.68L358.289 326H356.586ZM362.75 326.156C362.161 326.156 361.628 326.057 361.148 325.859C360.674 325.656 360.266 325.372 359.922 325.008C359.583 324.643 359.323 324.211 359.141 323.711C358.958 323.211 358.867 322.664 358.867 322.07V321.742C358.867 321.055 358.969 320.443 359.172 319.906C359.375 319.365 359.651 318.906 360 318.531C360.349 318.156 360.745 317.872 361.188 317.68C361.63 317.487 362.089 317.391 362.562 317.391C363.167 317.391 363.688 317.495 364.125 317.703C364.568 317.911 364.93 318.203 365.211 318.578C365.492 318.948 365.701 319.385 365.836 319.891C365.971 320.391 366.039 320.938 366.039 321.531V322.18H359.727V321H364.594V320.891C364.573 320.516 364.495 320.151 364.359 319.797C364.229 319.443 364.021 319.151 363.734 318.922C363.448 318.693 363.057 318.578 362.562 318.578C362.234 318.578 361.932 318.648 361.656 318.789C361.38 318.924 361.143 319.128 360.945 319.398C360.747 319.669 360.594 320 360.484 320.391C360.375 320.781 360.32 321.232 360.32 321.742V322.07C360.32 322.471 360.375 322.849 360.484 323.203C360.599 323.552 360.763 323.859 360.977 324.125C361.195 324.391 361.458 324.599 361.766 324.75C362.078 324.901 362.432 324.977 362.828 324.977C363.339 324.977 363.771 324.872 364.125 324.664C364.479 324.456 364.789 324.177 365.055 323.828L365.93 324.523C365.747 324.799 365.516 325.062 365.234 325.312C364.953 325.562 364.607 325.766 364.195 325.922C363.789 326.078 363.307 326.156 362.75 326.156ZM373.055 324.359V314H374.508V326H373.18L373.055 324.359ZM367.367 321.867V321.703C367.367 321.057 367.445 320.471 367.602 319.945C367.763 319.414 367.99 318.958 368.281 318.578C368.578 318.198 368.93 317.906 369.336 317.703C369.747 317.495 370.206 317.391 370.711 317.391C371.242 317.391 371.706 317.484 372.102 317.672C372.503 317.854 372.841 318.122 373.117 318.477C373.398 318.826 373.62 319.247 373.781 319.742C373.943 320.237 374.055 320.797 374.117 321.422V322.141C374.06 322.76 373.948 323.318 373.781 323.812C373.62 324.307 373.398 324.729 373.117 325.078C372.841 325.427 372.503 325.695 372.102 325.883C371.701 326.065 371.232 326.156 370.695 326.156C370.201 326.156 369.747 326.049 369.336 325.836C368.93 325.622 368.578 325.323 368.281 324.938C367.99 324.552 367.763 324.099 367.602 323.578C367.445 323.052 367.367 322.482 367.367 321.867ZM368.82 321.703V321.867C368.82 322.289 368.862 322.685 368.945 323.055C369.034 323.424 369.169 323.75 369.352 324.031C369.534 324.312 369.766 324.534 370.047 324.695C370.328 324.852 370.664 324.93 371.055 324.93C371.534 324.93 371.927 324.828 372.234 324.625C372.547 324.422 372.797 324.154 372.984 323.82C373.172 323.487 373.318 323.125 373.422 322.734V320.852C373.359 320.565 373.268 320.289 373.148 320.023C373.034 319.753 372.883 319.513 372.695 319.305C372.513 319.091 372.286 318.922 372.016 318.797C371.75 318.672 371.435 318.609 371.07 318.609C370.674 318.609 370.333 318.693 370.047 318.859C369.766 319.021 369.534 319.245 369.352 319.531C369.169 319.812 369.034 320.141 368.945 320.516C368.862 320.885 368.82 321.281 368.82 321.703ZM383.359 318.383V319.641H376.844V318.383H383.359ZM383.359 321.625V322.883H376.844V321.625H383.359ZM386.609 314V315.062L386.375 317.852H385.508V315.133V314H386.609ZM388.719 314V315.062L388.484 317.852H387.617V315.078V314H388.719ZM394.203 317.547V318.656H389.633V317.547H394.203ZM391.18 315.492H392.625V323.906C392.625 324.193 392.669 324.409 392.758 324.555C392.846 324.701 392.961 324.797 393.102 324.844C393.242 324.891 393.393 324.914 393.555 324.914C393.674 324.914 393.799 324.904 393.93 324.883C394.065 324.857 394.167 324.836 394.234 324.82L394.242 326C394.128 326.036 393.977 326.07 393.789 326.102C393.607 326.138 393.385 326.156 393.125 326.156C392.771 326.156 392.445 326.086 392.148 325.945C391.852 325.805 391.615 325.57 391.438 325.242C391.266 324.909 391.18 324.461 391.18 323.898V315.492ZM397.344 318.875V326H395.898V317.547H397.305L397.344 318.875ZM399.984 317.5L399.977 318.844C399.857 318.818 399.742 318.802 399.633 318.797C399.529 318.786 399.409 318.781 399.273 318.781C398.94 318.781 398.646 318.833 398.391 318.938C398.135 319.042 397.919 319.188 397.742 319.375C397.565 319.562 397.424 319.786 397.32 320.047C397.221 320.302 397.156 320.583 397.125 320.891L396.719 321.125C396.719 320.615 396.768 320.135 396.867 319.688C396.971 319.24 397.13 318.844 397.344 318.5C397.557 318.151 397.828 317.88 398.156 317.688C398.49 317.49 398.885 317.391 399.344 317.391C399.448 317.391 399.568 317.404 399.703 317.43C399.839 317.451 399.932 317.474 399.984 317.5ZM406.492 324.047V317.547H407.945V326H406.562L406.492 324.047ZM406.766 322.266L407.367 322.25C407.367 322.812 407.307 323.333 407.188 323.812C407.073 324.286 406.885 324.698 406.625 325.047C406.365 325.396 406.023 325.669 405.602 325.867C405.18 326.06 404.667 326.156 404.062 326.156C403.651 326.156 403.273 326.096 402.93 325.977C402.591 325.857 402.299 325.672 402.055 325.422C401.81 325.172 401.62 324.846 401.484 324.445C401.354 324.044 401.289 323.562 401.289 323V317.547H402.734V323.016C402.734 323.396 402.776 323.711 402.859 323.961C402.948 324.206 403.065 324.401 403.211 324.547C403.362 324.688 403.529 324.786 403.711 324.844C403.898 324.901 404.091 324.93 404.289 324.93C404.904 324.93 405.391 324.812 405.75 324.578C406.109 324.339 406.367 324.018 406.523 323.617C406.685 323.211 406.766 322.76 406.766 322.266ZM413.656 326.156C413.068 326.156 412.534 326.057 412.055 325.859C411.581 325.656 411.172 325.372 410.828 325.008C410.49 324.643 410.229 324.211 410.047 323.711C409.865 323.211 409.773 322.664 409.773 322.07V321.742C409.773 321.055 409.875 320.443 410.078 319.906C410.281 319.365 410.557 318.906 410.906 318.531C411.255 318.156 411.651 317.872 412.094 317.68C412.536 317.487 412.995 317.391 413.469 317.391C414.073 317.391 414.594 317.495 415.031 317.703C415.474 317.911 415.836 318.203 416.117 318.578C416.398 318.948 416.607 319.385 416.742 319.891C416.878 320.391 416.945 320.938 416.945 321.531V322.18H410.633V321H415.5V320.891C415.479 320.516 415.401 320.151 415.266 319.797C415.135 319.443 414.927 319.151 414.641 318.922C414.354 318.693 413.964 318.578 413.469 318.578C413.141 318.578 412.839 318.648 412.562 318.789C412.286 318.924 412.049 319.128 411.852 319.398C411.654 319.669 411.5 320 411.391 320.391C411.281 320.781 411.227 321.232 411.227 321.742V322.07C411.227 322.471 411.281 322.849 411.391 323.203C411.505 323.552 411.669 323.859 411.883 324.125C412.102 324.391 412.365 324.599 412.672 324.75C412.984 324.901 413.339 324.977 413.734 324.977C414.245 324.977 414.677 324.872 415.031 324.664C415.385 324.456 415.695 324.177 415.961 323.828L416.836 324.523C416.654 324.799 416.422 325.062 416.141 325.312C415.859 325.562 415.513 325.766 415.102 325.922C414.695 326.078 414.214 326.156 413.656 326.156ZM419.594 314V315.062L419.359 317.852H418.492V315.133V314H419.594ZM421.703 314V315.062L421.469 317.852H420.602V315.078V314H421.703Z" fill="white"/>
<path d="M327 307L370 307L348.5 282L327 307Z" fill="#D83898"/>
<rect width="123" height="43" transform="translate(426 196)" fill="#D83898"/>
<path d="M444.641 214.547V215.656H440.07V214.547H444.641ZM441.617 212.492H443.062V220.906C443.062 221.193 443.107 221.409 443.195 221.555C443.284 221.701 443.398 221.797 443.539 221.844C443.68 221.891 443.831 221.914 443.992 221.914C444.112 221.914 444.237 221.904 444.367 221.883C444.503 221.857 444.604 221.836 444.672 221.82L444.68 223C444.565 223.036 444.414 223.07 444.227 223.102C444.044 223.138 443.823 223.156 443.562 223.156C443.208 223.156 442.883 223.086 442.586 222.945C442.289 222.805 442.052 222.57 441.875 222.242C441.703 221.909 441.617 221.461 441.617 220.898V212.492ZM448.711 222.125L451.062 214.547H452.609L449.219 224.305C449.141 224.513 449.036 224.737 448.906 224.977C448.781 225.221 448.62 225.453 448.422 225.672C448.224 225.891 447.984 226.068 447.703 226.203C447.427 226.344 447.096 226.414 446.711 226.414C446.596 226.414 446.451 226.398 446.273 226.367C446.096 226.336 445.971 226.31 445.898 226.289L445.891 225.117C445.932 225.122 445.997 225.128 446.086 225.133C446.18 225.143 446.245 225.148 446.281 225.148C446.609 225.148 446.888 225.104 447.117 225.016C447.346 224.932 447.539 224.789 447.695 224.586C447.857 224.388 447.995 224.115 448.109 223.766L448.711 222.125ZM446.984 214.547L449.18 221.109L449.555 222.633L448.516 223.164L445.406 214.547H446.984ZM455.359 216.172V226.25H453.906V214.547H455.234L455.359 216.172ZM461.055 218.703V218.867C461.055 219.482 460.982 220.052 460.836 220.578C460.69 221.099 460.477 221.552 460.195 221.938C459.919 222.323 459.578 222.622 459.172 222.836C458.766 223.049 458.299 223.156 457.773 223.156C457.237 223.156 456.763 223.068 456.352 222.891C455.94 222.714 455.591 222.456 455.305 222.117C455.018 221.779 454.789 221.372 454.617 220.898C454.451 220.424 454.336 219.891 454.273 219.297V218.422C454.336 217.797 454.453 217.237 454.625 216.742C454.797 216.247 455.023 215.826 455.305 215.477C455.591 215.122 455.938 214.854 456.344 214.672C456.75 214.484 457.219 214.391 457.75 214.391C458.281 214.391 458.753 214.495 459.164 214.703C459.576 214.906 459.922 215.198 460.203 215.578C460.484 215.958 460.695 216.414 460.836 216.945C460.982 217.471 461.055 218.057 461.055 218.703ZM459.602 218.867V218.703C459.602 218.281 459.557 217.885 459.469 217.516C459.38 217.141 459.242 216.812 459.055 216.531C458.872 216.245 458.638 216.021 458.352 215.859C458.065 215.693 457.724 215.609 457.328 215.609C456.964 215.609 456.646 215.672 456.375 215.797C456.109 215.922 455.883 216.091 455.695 216.305C455.508 216.513 455.354 216.753 455.234 217.023C455.12 217.289 455.034 217.565 454.977 217.852V219.875C455.081 220.24 455.227 220.583 455.414 220.906C455.602 221.224 455.852 221.482 456.164 221.68C456.477 221.872 456.87 221.969 457.344 221.969C457.734 221.969 458.07 221.888 458.352 221.727C458.638 221.56 458.872 221.333 459.055 221.047C459.242 220.76 459.38 220.432 459.469 220.062C459.557 219.688 459.602 219.289 459.602 218.867ZM466.406 223.156C465.818 223.156 465.284 223.057 464.805 222.859C464.331 222.656 463.922 222.372 463.578 222.008C463.24 221.643 462.979 221.211 462.797 220.711C462.615 220.211 462.523 219.664 462.523 219.07V218.742C462.523 218.055 462.625 217.443 462.828 216.906C463.031 216.365 463.307 215.906 463.656 215.531C464.005 215.156 464.401 214.872 464.844 214.68C465.286 214.487 465.745 214.391 466.219 214.391C466.823 214.391 467.344 214.495 467.781 214.703C468.224 214.911 468.586 215.203 468.867 215.578C469.148 215.948 469.357 216.385 469.492 216.891C469.628 217.391 469.695 217.938 469.695 218.531V219.18H463.383V218H468.25V217.891C468.229 217.516 468.151 217.151 468.016 216.797C467.885 216.443 467.677 216.151 467.391 215.922C467.104 215.693 466.714 215.578 466.219 215.578C465.891 215.578 465.589 215.648 465.312 215.789C465.036 215.924 464.799 216.128 464.602 216.398C464.404 216.669 464.25 217 464.141 217.391C464.031 217.781 463.977 218.232 463.977 218.742V219.07C463.977 219.471 464.031 219.849 464.141 220.203C464.255 220.552 464.419 220.859 464.633 221.125C464.852 221.391 465.115 221.599 465.422 221.75C465.734 221.901 466.089 221.977 466.484 221.977C466.995 221.977 467.427 221.872 467.781 221.664C468.135 221.456 468.445 221.177 468.711 220.828L469.586 221.523C469.404 221.799 469.172 222.062 468.891 222.312C468.609 222.562 468.263 222.766 467.852 222.922C467.445 223.078 466.964 223.156 466.406 223.156ZM477.984 215.383V216.641H471.469V215.383H477.984ZM477.984 218.625V219.883H471.469V218.625H477.984ZM481.234 211V212.062L481 214.852H480.133V212.133V211H481.234ZM483.344 211V212.062L483.109 214.852H482.242V212.078V211H483.344ZM485.281 211H486.734V221.359L486.609 223H485.281V211ZM492.445 218.703V218.867C492.445 219.482 492.372 220.052 492.227 220.578C492.081 221.099 491.867 221.552 491.586 221.938C491.305 222.323 490.961 222.622 490.555 222.836C490.148 223.049 489.682 223.156 489.156 223.156C488.62 223.156 488.148 223.065 487.742 222.883C487.341 222.695 487.003 222.427 486.727 222.078C486.451 221.729 486.229 221.307 486.062 220.812C485.901 220.318 485.789 219.76 485.727 219.141V218.422C485.789 217.797 485.901 217.237 486.062 216.742C486.229 216.247 486.451 215.826 486.727 215.477C487.003 215.122 487.341 214.854 487.742 214.672C488.143 214.484 488.609 214.391 489.141 214.391C489.672 214.391 490.143 214.495 490.555 214.703C490.966 214.906 491.31 215.198 491.586 215.578C491.867 215.958 492.081 216.414 492.227 216.945C492.372 217.471 492.445 218.057 492.445 218.703ZM490.992 218.867V218.703C490.992 218.281 490.953 217.885 490.875 217.516C490.797 217.141 490.672 216.812 490.5 216.531C490.328 216.245 490.102 216.021 489.82 215.859C489.539 215.693 489.193 215.609 488.781 215.609C488.417 215.609 488.099 215.672 487.828 215.797C487.562 215.922 487.336 216.091 487.148 216.305C486.961 216.513 486.807 216.753 486.688 217.023C486.573 217.289 486.487 217.565 486.43 217.852V219.734C486.513 220.099 486.648 220.451 486.836 220.789C487.029 221.122 487.284 221.396 487.602 221.609C487.924 221.823 488.323 221.93 488.797 221.93C489.188 221.93 489.521 221.852 489.797 221.695C490.078 221.534 490.305 221.312 490.477 221.031C490.654 220.75 490.784 220.424 490.867 220.055C490.951 219.685 490.992 219.289 490.992 218.867ZM499.445 221.047V214.547H500.898V223H499.516L499.445 221.047ZM499.719 219.266L500.32 219.25C500.32 219.812 500.26 220.333 500.141 220.812C500.026 221.286 499.839 221.698 499.578 222.047C499.318 222.396 498.977 222.669 498.555 222.867C498.133 223.06 497.62 223.156 497.016 223.156C496.604 223.156 496.227 223.096 495.883 222.977C495.544 222.857 495.253 222.672 495.008 222.422C494.763 222.172 494.573 221.846 494.438 221.445C494.307 221.044 494.242 220.562 494.242 220V214.547H495.688V220.016C495.688 220.396 495.729 220.711 495.812 220.961C495.901 221.206 496.018 221.401 496.164 221.547C496.315 221.688 496.482 221.786 496.664 221.844C496.852 221.901 497.044 221.93 497.242 221.93C497.857 221.93 498.344 221.812 498.703 221.578C499.062 221.339 499.32 221.018 499.477 220.617C499.638 220.211 499.719 219.76 499.719 219.266ZM506.641 214.547V215.656H502.07V214.547H506.641ZM503.617 212.492H505.062V220.906C505.062 221.193 505.107 221.409 505.195 221.555C505.284 221.701 505.398 221.797 505.539 221.844C505.68 221.891 505.831 221.914 505.992 221.914C506.112 221.914 506.237 221.904 506.367 221.883C506.503 221.857 506.604 221.836 506.672 221.82L506.68 223C506.565 223.036 506.414 223.07 506.227 223.102C506.044 223.138 505.823 223.156 505.562 223.156C505.208 223.156 504.883 223.086 504.586 222.945C504.289 222.805 504.052 222.57 503.875 222.242C503.703 221.909 503.617 221.461 503.617 220.898V212.492ZM511.875 214.547V215.656H507.305V214.547H511.875ZM508.852 212.492H510.297V220.906C510.297 221.193 510.341 221.409 510.43 221.555C510.518 221.701 510.633 221.797 510.773 221.844C510.914 221.891 511.065 221.914 511.227 221.914C511.346 221.914 511.471 221.904 511.602 221.883C511.737 221.857 511.839 221.836 511.906 221.82L511.914 223C511.799 223.036 511.648 223.07 511.461 223.102C511.279 223.138 511.057 223.156 510.797 223.156C510.443 223.156 510.117 223.086 509.82 222.945C509.523 222.805 509.286 222.57 509.109 222.242C508.938 221.909 508.852 221.461 508.852 220.898V212.492ZM513.031 218.867V218.688C513.031 218.078 513.12 217.513 513.297 216.992C513.474 216.466 513.729 216.01 514.062 215.625C514.396 215.234 514.799 214.932 515.273 214.719C515.747 214.5 516.279 214.391 516.867 214.391C517.461 214.391 517.995 214.5 518.469 214.719C518.948 214.932 519.354 215.234 519.688 215.625C520.026 216.01 520.284 216.466 520.461 216.992C520.638 217.513 520.727 218.078 520.727 218.688V218.867C520.727 219.477 520.638 220.042 520.461 220.562C520.284 221.083 520.026 221.539 519.688 221.93C519.354 222.315 518.951 222.617 518.477 222.836C518.008 223.049 517.477 223.156 516.883 223.156C516.289 223.156 515.755 223.049 515.281 222.836C514.807 222.617 514.401 222.315 514.062 221.93C513.729 221.539 513.474 221.083 513.297 220.562C513.12 220.042 513.031 219.477 513.031 218.867ZM514.477 218.688V218.867C514.477 219.289 514.526 219.688 514.625 220.062C514.724 220.432 514.872 220.76 515.07 221.047C515.273 221.333 515.526 221.56 515.828 221.727C516.13 221.888 516.482 221.969 516.883 221.969C517.279 221.969 517.625 221.888 517.922 221.727C518.224 221.56 518.474 221.333 518.672 221.047C518.87 220.76 519.018 220.432 519.117 220.062C519.221 219.688 519.273 219.289 519.273 218.867V218.688C519.273 218.271 519.221 217.878 519.117 217.508C519.018 217.133 518.867 216.802 518.664 216.516C518.466 216.224 518.216 215.995 517.914 215.828C517.617 215.661 517.268 215.578 516.867 215.578C516.471 215.578 516.122 215.661 515.82 215.828C515.523 215.995 515.273 216.224 515.07 216.516C514.872 216.802 514.724 217.133 514.625 217.508C514.526 217.878 514.477 218.271 514.477 218.688ZM523.984 216.352V223H522.539V214.547H523.906L523.984 216.352ZM523.641 218.453L523.039 218.43C523.044 217.852 523.13 217.318 523.297 216.828C523.464 216.333 523.698 215.904 524 215.539C524.302 215.174 524.661 214.893 525.078 214.695C525.5 214.492 525.966 214.391 526.477 214.391C526.893 214.391 527.268 214.448 527.602 214.562C527.935 214.672 528.219 214.849 528.453 215.094C528.693 215.339 528.875 215.656 529 216.047C529.125 216.432 529.188 216.904 529.188 217.461V223H527.734V217.445C527.734 217.003 527.669 216.648 527.539 216.383C527.409 216.112 527.219 215.917 526.969 215.797C526.719 215.672 526.411 215.609 526.047 215.609C525.688 215.609 525.359 215.685 525.062 215.836C524.771 215.987 524.518 216.195 524.305 216.461C524.096 216.727 523.932 217.031 523.812 217.375C523.698 217.714 523.641 218.073 523.641 218.453ZM531.641 211V212.062L531.406 214.852H530.539V212.133V211H531.641ZM533.75 211V212.062L533.516 214.852H532.648V212.078V211H533.75Z" fill="white"/>
<path d="M436 239V196L411 217.5L436 239Z" fill="#D83898"/>
<rect x="153" y="217" width="20" height="20" transform="rotate(-45 153 217)" fill="#6D6D6D"/>
<path d="M56 203C56 199.134 59.134 196 63 196H169V239H63C59.134 239 56 235.866 56 232V203Z" fill="#6D6D6D"/>
<path d="M82.75 217.75L88.1484 219.938V221.469L81.7578 218.508V217.609L82.75 217.75ZM88.1484 215.953L82.7578 218.172L81.7578 218.281V217.375L88.1484 214.422V215.953ZM90.4297 211H91.8828V221.359L91.7578 223H90.4297V211ZM97.5938 218.703V218.867C97.5938 219.482 97.5208 220.052 97.375 220.578C97.2292 221.099 97.0156 221.552 96.7344 221.938C96.4531 222.323 96.1094 222.622 95.7031 222.836C95.2969 223.049 94.8307 223.156 94.3047 223.156C93.7682 223.156 93.2969 223.065 92.8906 222.883C92.4896 222.695 92.151 222.427 91.875 222.078C91.599 221.729 91.3776 221.307 91.2109 220.812C91.0495 220.318 90.9375 219.76 90.875 219.141V218.422C90.9375 217.797 91.0495 217.237 91.2109 216.742C91.3776 216.247 91.599 215.826 91.875 215.477C92.151 215.122 92.4896 214.854 92.8906 214.672C93.2917 214.484 93.7578 214.391 94.2891 214.391C94.8203 214.391 95.2917 214.495 95.7031 214.703C96.1146 214.906 96.4583 215.198 96.7344 215.578C97.0156 215.958 97.2292 216.414 97.375 216.945C97.5208 217.471 97.5938 218.057 97.5938 218.703ZM96.1406 218.867V218.703C96.1406 218.281 96.1016 217.885 96.0234 217.516C95.9453 217.141 95.8203 216.812 95.6484 216.531C95.4766 216.245 95.25 216.021 94.9688 215.859C94.6875 215.693 94.3411 215.609 93.9297 215.609C93.5651 215.609 93.2474 215.672 92.9766 215.797C92.7109 215.922 92.4844 216.091 92.2969 216.305C92.1094 216.513 91.9557 216.753 91.8359 217.023C91.7214 217.289 91.6354 217.565 91.5781 217.852V219.734C91.6615 220.099 91.7969 220.451 91.9844 220.789C92.1771 221.122 92.4323 221.396 92.75 221.609C93.0729 221.823 93.4714 221.93 93.9453 221.93C94.3359 221.93 94.6693 221.852 94.9453 221.695C95.2266 221.534 95.4531 221.312 95.625 221.031C95.8021 220.75 95.9323 220.424 96.0156 220.055C96.099 219.685 96.1406 219.289 96.1406 218.867ZM104.594 221.047V214.547H106.047V223H104.664L104.594 221.047ZM104.867 219.266L105.469 219.25C105.469 219.812 105.409 220.333 105.289 220.812C105.174 221.286 104.987 221.698 104.727 222.047C104.466 222.396 104.125 222.669 103.703 222.867C103.281 223.06 102.768 223.156 102.164 223.156C101.753 223.156 101.375 223.096 101.031 222.977C100.693 222.857 100.401 222.672 100.156 222.422C99.9115 222.172 99.7214 221.846 99.5859 221.445C99.4557 221.044 99.3906 220.562 99.3906 220V214.547H100.836V220.016C100.836 220.396 100.878 220.711 100.961 220.961C101.049 221.206 101.167 221.401 101.312 221.547C101.464 221.688 101.63 221.786 101.812 221.844C102 221.901 102.193 221.93 102.391 221.93C103.005 221.93 103.492 221.812 103.852 221.578C104.211 221.339 104.469 221.018 104.625 220.617C104.786 220.211 104.867 219.76 104.867 219.266ZM111.789 214.547V215.656H107.219V214.547H111.789ZM108.766 212.492H110.211V220.906C110.211 221.193 110.255 221.409 110.344 221.555C110.432 221.701 110.547 221.797 110.688 221.844C110.828 221.891 110.979 221.914 111.141 221.914C111.26 221.914 111.385 221.904 111.516 221.883C111.651 221.857 111.753 221.836 111.82 221.82L111.828 223C111.714 223.036 111.562 223.07 111.375 223.102C111.193 223.138 110.971 223.156 110.711 223.156C110.357 223.156 110.031 223.086 109.734 222.945C109.438 222.805 109.201 222.57 109.023 222.242C108.852 221.909 108.766 221.461 108.766 220.898V212.492ZM117.023 214.547V215.656H112.453V214.547H117.023ZM114 212.492H115.445V220.906C115.445 221.193 115.49 221.409 115.578 221.555C115.667 221.701 115.781 221.797 115.922 221.844C116.062 221.891 116.214 221.914 116.375 221.914C116.495 221.914 116.62 221.904 116.75 221.883C116.885 221.857 116.987 221.836 117.055 221.82L117.062 223C116.948 223.036 116.797 223.07 116.609 223.102C116.427 223.138 116.206 223.156 115.945 223.156C115.591 223.156 115.266 223.086 114.969 222.945C114.672 222.805 114.435 222.57 114.258 222.242C114.086 221.909 114 221.461 114 220.898V212.492ZM118.18 218.867V218.688C118.18 218.078 118.268 217.513 118.445 216.992C118.622 216.466 118.878 216.01 119.211 215.625C119.544 215.234 119.948 214.932 120.422 214.719C120.896 214.5 121.427 214.391 122.016 214.391C122.609 214.391 123.143 214.5 123.617 214.719C124.096 214.932 124.503 215.234 124.836 215.625C125.174 216.01 125.432 216.466 125.609 216.992C125.786 217.513 125.875 218.078 125.875 218.688V218.867C125.875 219.477 125.786 220.042 125.609 220.562C125.432 221.083 125.174 221.539 124.836 221.93C124.503 222.315 124.099 222.617 123.625 222.836C123.156 223.049 122.625 223.156 122.031 223.156C121.438 223.156 120.904 223.049 120.43 222.836C119.956 222.617 119.549 222.315 119.211 221.93C118.878 221.539 118.622 221.083 118.445 220.562C118.268 220.042 118.18 219.477 118.18 218.867ZM119.625 218.688V218.867C119.625 219.289 119.674 219.688 119.773 220.062C119.872 220.432 120.021 220.76 120.219 221.047C120.422 221.333 120.674 221.56 120.977 221.727C121.279 221.888 121.63 221.969 122.031 221.969C122.427 221.969 122.773 221.888 123.07 221.727C123.372 221.56 123.622 221.333 123.82 221.047C124.018 220.76 124.167 220.432 124.266 220.062C124.37 219.688 124.422 219.289 124.422 218.867V218.688C124.422 218.271 124.37 217.878 124.266 217.508C124.167 217.133 124.016 216.802 123.812 216.516C123.615 216.224 123.365 215.995 123.062 215.828C122.766 215.661 122.417 215.578 122.016 215.578C121.62 215.578 121.271 215.661 120.969 215.828C120.672 215.995 120.422 216.224 120.219 216.516C120.021 216.802 119.872 217.133 119.773 217.508C119.674 217.878 119.625 218.271 119.625 218.688ZM129.133 216.352V223H127.688V214.547H129.055L129.133 216.352ZM128.789 218.453L128.188 218.43C128.193 217.852 128.279 217.318 128.445 216.828C128.612 216.333 128.846 215.904 129.148 215.539C129.451 215.174 129.81 214.893 130.227 214.695C130.648 214.492 131.115 214.391 131.625 214.391C132.042 214.391 132.417 214.448 132.75 214.562C133.083 214.672 133.367 214.849 133.602 215.094C133.841 215.339 134.023 215.656 134.148 216.047C134.273 216.432 134.336 216.904 134.336 217.461V223H132.883V217.445C132.883 217.003 132.818 216.648 132.688 216.383C132.557 216.112 132.367 215.917 132.117 215.797C131.867 215.672 131.56 215.609 131.195 215.609C130.836 215.609 130.508 215.685 130.211 215.836C129.919 215.987 129.667 216.195 129.453 216.461C129.245 216.727 129.081 217.031 128.961 217.375C128.846 217.714 128.789 218.073 128.789 218.453ZM142.039 218.062L136.484 215.898V214.406L143.156 217.359V218.273L142.039 218.062ZM136.484 219.969L142.055 217.758L143.156 217.594V218.5L136.484 221.461V219.969Z" fill="white"/>
<rect x="196" y="166" width="200" height="103.077" rx="51.5385" fill="url(#paint0_linear_57_102)"/>
<ellipse cx="342.923" cy="217.539" rx="46.9231" ry="46.9231" fill="white"/>
<defs>
<linearGradient id="paint0_linear_57_102" x1="196" y1="166" x2="396" y2="269" gradientUnits="userSpaceOnUse">
<stop stop-color="#52860C"/>
<stop offset="1" stop-color="#3B6D07"/>
</linearGradient>
</defs>
</svg>
