<svg fill="none" height="783" viewBox="0 0 1200 783" width="1200" xmlns="http://www.w3.org/2000/svg" xmlns:xlink="http://www.w3.org/1999/xlink"><clipPath id="a"><path d="m0 0h1200v783h-1200z"/></clipPath><g clip-path="url(#a)"><path d="m0 0h1200v783h-1200z" fill="#fff"/><path d="m.5.5h1199v785h-1199z" stroke="#ededed"/><path d="m0 0h1200v128h-1200z" fill="#d9d9d9"/><path d="m238.5 128v655" stroke="#c4c4c4"/><path d="m998.5 128v655" stroke="#c4c4c4"/><rect fill="#d9d9d9" height="10.2345" rx="5.11727" width="115.139" x="1036.25" y="179.104"/><rect fill="#d9d9d9" height="10.2345" rx="5.11727" width="97.2281" x="1036.25" y="204.691"/><rect fill="#999" height="10.2345" rx="5.11727" width="71.6418" x="1036.25" y="230.277"/><rect fill="#d9d9d9" height="10.2345" rx="5.11727" width="97.2281" x="1036.25" y="255.864"/><rect fill="#d9d9d9" height="10.2345" rx="5.11727" width="97.2281" x="1036.25" y="281.45"/><rect fill="#d9d9d9" height="10.2345" rx="5.11727" width="71.6418" x="1036.25" y="307.036"/><rect fill="#d9d9d9" height="10.2345" rx="5.11727" width="115.139" x="1036.25" y="332.623"/><rect fill="#d9d9d9" height="10.2345" rx="5.11727" width="97.2281" x="1036.25" y="358.209"/><rect fill="#d9d9d9" height="10.2345" rx="5.11727" width="97.2281" x="1036.25" y="383.795"/><rect fill="#999" height="45" rx="6" width="254" x="35" y="41"/><rect fill="#d9d9d9" height="30.7036" rx="6" width="115.139" x="35.8209" y="179.104"/><rect fill="#d9d9d9" height="30.7036" rx="6" width="115.139" x="35.8209" y="179.104"/><rect fill="#d9d9d9" height="30.7036" rx="6" width="115.139" x="35.8209" y="434.968"/><rect fill="#d9d9d9" height="30.7036" rx="6" width="145.842" x="35.8209" y="230.277"/><rect fill="#d9d9d9" height="30.7036" rx="6" width="145.842" x="35.8209" y="486.141"/><rect fill="#999" height="30.7036" rx="6" width="125.373" x="35.8209" y="281.45"/><rect fill="#d9d9d9" height="30.7036" rx="6" width="125.373" x="35.8209" y="537.313"/><rect fill="#d9d9d9" height="30.7036" rx="6" width="81.8763" x="35.8209" y="332.623"/><rect fill="#d9d9d9" height="30.7036" rx="6" width="81.8763" x="35.8209" y="588.486"/><rect fill="#d9d9d9" height="30.7036" rx="6" width="145.842" x="35.8209" y="383.795"/><rect fill="#d9d9d9" height="30.7036" rx="6" width="145.842" x="35.8209" y="639.659"/><rect fill="#fff" height="51" rx="25.5" width="458" x="707" y="39"/><g fill="#d9d9d9"><rect height="21" rx="6" width="151" x="317" y="179"/><rect height="21" rx="6" width="57" x="478" y="179"/><rect height="21" rx="6" width="225" x="545" y="179"/><rect height="10.2345" rx="5.11727" width="197.015" x="317.271" y="210"/><rect height="10.2345" rx="5.11727" width="69.0832" x="524.52" y="210"/><rect height="10.2345" rx="5.11727" width="150.959" x="317.271" y="662.687"/><rect height="10.2345" rx="5.11727" width="56.29" x="478.465" y="662.687"/><rect height="10.2345" rx="5.11727" width="225.16" x="544.989" y="662.687"/><rect height="10.2345" rx="5.11727" width="189.339" x="317.271" y="683.156"/><rect height="10.2345" rx="5.11727" width="71.6418" x="516.844" y="683.156"/><rect height="10.2345" rx="5.11727" width="71.6418" x="598.721" y="683.156"/><rect height="10.2345" rx="5.11727" width="130.49" x="680.597" y="683.156"/><rect height="10.2345" rx="5.11727" width="225.16" x="417.058" y="703.625"/><rect height="10.2345" rx="5.11727" width="89.5522" x="317.271" y="703.625"/><rect height="10.2345" rx="5.11727" width="117.697" x="652.452" y="703.625"/><rect height="10.2345" rx="5.11727" width="197.015" x="317.271" y="724.094"/><rect height="10.2345" rx="5.11727" width="69.0832" x="524.52" y="724.094"/><rect height="10.2345" rx="5.11727" width="207.249" x="603.838" y="724.094"/><rect height="10.2345" rx="5.11727" width="150.959" x="317.271" y="580.81"/><rect height="10.2345" rx="5.11727" width="56.29" x="478.465" y="580.81"/><rect height="10.2345" rx="5.11727" width="225.16" x="544.989" y="580.81"/><rect height="10.2345" rx="5.11727" width="189.339" x="317.271" y="601.279"/><rect height="10.2345" rx="5.11727" width="71.6418" x="516.844" y="601.279"/><rect height="10.2345" rx="5.11727" width="71.6418" x="598.721" y="601.279"/><rect height="10.2345" rx="5.11727" width="130.49" x="680.597" y="601.279"/><rect height="10.2345" rx="5.11727" width="225.16" x="417.058" y="621.748"/><rect height="10.2345" rx="5.11727" width="89.5522" x="317.271" y="621.748"/><rect height="10.2345" rx="5.11727" width="117.697" x="652.452" y="621.748"/><rect height="10.2345" rx="5.11727" width="197.015" x="317.271" y="642.217"/><rect height="10.2345" rx="5.11727" width="69.0832" x="524.52" y="642.217"/><rect height="10.2345" rx="5.11727" width="207.249" x="603.838" y="642.217"/></g><path d="m0 0h1200v782.942h-1200z" fill="#4c4c4c" fill-opacity=".35"/><rect fill="#fff" height="322.505" rx="3.5" stroke="#ededed" stroke-width="5" width="598.838" x="301.86" y="239.598"/><path d="m304 243.75c0-.966.784-1.75 1.75-1.75h590.5c.966 0 1.75.784 1.75 1.75v70.25h-594z" fill="#ffaf37"/><rect fill="#4c4c4c" height="51.1727" rx="6" width="135.608" x="724.094" y="475.051"/><circle cx="342.857" cy="278.036" fill="#fff" r="23.0277"/><path d="m342.857 288.271v-10.235" stroke="#4c4c4c" stroke-linecap="round" stroke-linejoin="round" stroke-width="5"/><path d="m342.857 267.802h.025" stroke="#4c4c4c" stroke-linecap="round" stroke-linejoin="round" stroke-width="5"/><path d="m850.029 268.364c.178-.178.39-.32.622-.416.233-.097.483-.146.734-.146.252 0 .502.049.735.146.232.096.444.238.622.416l6.96 6.958 6.96-6.958c.178-.178.389-.319.622-.416.233-.096.482-.146.734-.146s.501.05.734.146c.233.097.444.238.622.416s.32.39.416.622c.096.233.146.482.146.734s-.05.502-.146.734c-.096.233-.238.444-.416.622l-6.957 6.961 6.957 6.96c.36.359.562.847.562 1.356s-.202.996-.562 1.356c-.359.36-.847.562-1.356.562s-.996-.202-1.356-.562l-6.96-6.957-6.96 6.957c-.36.36-.848.562-1.357.562-.508 0-.996-.202-1.356-.562-.359-.36-.562-.847-.562-1.356s.203-.997.562-1.356l6.958-6.96-6.958-6.961c-.178-.178-.319-.389-.416-.622-.096-.232-.146-.482-.146-.734s.05-.501.146-.734c.097-.233.238-.444.416-.622z" fill="#fff"/><rect fill="#fff" height="59.4072" rx="3" stroke="#d9d9d9" stroke-width="2" width="514.844" x="343.857" y="389.058"/><circle cx="376.119" cy="418.761" fill="#4c4c4c" r="7.67591"/><circle cx="399.147" cy="418.761" fill="#4c4c4c" r="7.67591"/><circle cx="422.175" cy="418.761" fill="#4c4c4c" r="7.67591"/><circle cx="445.203" cy="418.761" fill="#4c4c4c" r="7.67591"/><circle cx="468.23" cy="418.761" fill="#4c4c4c" r="7.67591"/><circle cx="491.258" cy="418.761" fill="#4c4c4c" r="7.67591"/><circle cx="514.286" cy="418.761" fill="#4c4c4c" r="7.67591"/><circle cx="537.313" cy="418.761" fill="#4c4c4c" r="7.67591"/><circle cx="560.341" cy="418.761" fill="#4c4c4c" r="7.67591"/><rect fill="#d9d9d9" height="23.0277" rx="3" width="324.947" x="342.857" y="352.237"/></g></svg>