<svg width="32" height="32" xmlns="http://www.w3.org/2000/svg">
  <style>
    .favicon {
      fill: #4a4a4a;
    }
    @media (prefers-color-scheme: dark) {
      .favicon {
        fill: #ffffff;
      }
    }
  </style>
  <g id="favicon" stroke="none" stroke-width="1" fill="none" fill-rule="evenodd">
    <path class="favicon" d="M14.216,26.197 C17.004,26.197 19.669,25.746 21.924,24.885 L21.924,20.867 C19.997,21.646 17.906,22.097 15.938,22.097 C13.109,22.097 12.166,21.4 12.166,19.063 C12.166,18.612 12.248,17.915 12.289,17.464 C20.284,17.218 25.204,14.84 25.204,9.961 C25.204,7.501 23.646,5 18.603,5 C12.166,5 7,10.781 7,19.309 C7,23.819 9.05,26.197 14.216,26.197 Z M12.863,13.979 C13.601,11.314 15.282,8.854 17.947,8.854 C19.259,8.854 19.997,9.51 19.997,10.658 C19.997,12.626 17.701,13.815 12.863,13.979 Z" id="e" fill="#4A4A4A" fill-rule="nonzero"></path>
  </g>
</svg>
