<svg xmlns="http://www.w3.org/2000/svg" viewBox="0 0 480 480"><g fill="none" fill-rule="evenodd"><path d="M0 0h480v480H0z"/><g fill="#FF8764"><path d="M107 84v276h11.99v36h239.82v-36h11.99V84H107zm227.828 300h-11.99v-12h11.99v12zM142.973 144c0-13.248 10.743-24 23.982-24h143.89c13.238 0 23.982 10.752 23.982 24v108c0 13.25-10.744 24-23.983 24H166.952c-13.24 0-23.982-10.75-23.982-24V144h.003zm191.855 168v12h-83.936v-12h83.936zm-191.855 0h11.99v12H142.97v-12h.003z"/><path d="M170.912 184.982h10.642v2.324h-10.642v-2.324zm16.67-1.008l8.578 23.197h-3.546l-8.55-23.196h3.52zm6.678 27.108v-1.544h17.05v1.544h-17.05zm20.134-20.737c.787-1.875 1.94-3.892 3.457-6.05h3.218l-.913 1.71c-1.256 2.353-2.13 4.816-2.62 7.395-.318 1.688-.477 3.53-.477 5.525 0 3.117.444 5.983 1.33 8.6.52 1.546 1.438 3.532 2.755 5.955h-3.158l-1.063-1.482c-.69-.895-1.422-2.23-2.198-4-1.387-3.168-2.083-6.282-2.083-9.346 0-2.792.586-5.56 1.752-8.31l.002.003zm21.823-6.505l-2.884 1.72c.89 1.283 1.777 2.69 2.638 4.222.49.874 1.257 2.314 2.33 4.377l2.852-1.877c-1.688-3.315-3.342-6.13-4.936-8.445v.002zm11.956 1.19c-.982 5.35-2.7 9.663-5.09 12.916-2.698 3.628-6.5 6.286-11.374 8.038l2.144 3.034c5.273-1.876 9.38-4.942 12.385-9.163 2.605-3.724 4.445-8.477 5.486-14.232l-3.554-.593zm-19.1 1.094l-2.912 1.845c.89 1.282 1.778 2.72 2.667 4.283.768 1.314 1.534 2.753 2.27 4.254l2.942-1.783c-1.715-3.44-3.372-6.287-4.967-8.6zm33.572 4.22c1.17 2.745 1.753 5.516 1.753 8.305 0 3.064-.693 6.18-2.08 9.343-.78 1.774-1.512 3.108-2.198 4.005l-1.065 1.482h-3.158c1.317-2.423 2.236-4.41 2.755-5.956.888-2.616 1.33-5.483 1.33-8.6 0-1.996-.158-3.836-.478-5.527-.488-2.574-1.36-5.04-2.618-7.392l-.912-1.71h3.217c1.516 2.158 2.667 4.174 3.457 6.047l-.002.002zm3.145 20.737v-1.544h17.045v1.545h-17.047.002zm23.92-27.107h3.546l-8.577 23.197h-3.52l8.548-23.197h.002zm6.177 1.007h10.642v2.325h-10.643v-2.325z"/></g></g></svg>