<svg xmlns="http://www.w3.org/2000/svg" viewBox="0 0 480 480"><g fill="none" fill-rule="evenodd"><path d="M0 0h480v480H0z"/><path fill="#48D7E7" d="M240 84c-86.16 0-156 69.842-156 156 0 86.16 69.842 156 156 156 86.16 0 156-69.842 156-156 0-86.16-69.85-156-156-156zm-2.365 30.982c11.175 0 20.223 9.042 20.223 20.148 0 11.176-9.042 20.22-20.22 20.22-11.097 0-20.142-9.048-20.148-20.22 0-11.106 9.04-20.148 20.148-20.148h-.003zm87.42 65.153l-60.017 7.583.025 60.082 29.077 97.063c1.533 6.132-2.15 12.264-8.213 13.78-6.06 1.513-12.257-1.825-13.784-7.954l-29.784-88.36h-9.177l-27.406 90.19c-2.29 5.88-8.845 8.59-14.724 6.297-5.82-2.268-9.376-8.895-7.08-14.78l25.17-95.255v-61.064l-55.294-7.524c-5.677-.457-9.53-5.453-9.068-11.128.416-5.72 5.578-9.965 11.25-9.51l67.18 5.787h29.462l71.538-5.897c5.684-.23 10.502 4.192 10.693 9.917.23 5.694-4.16 10.537-9.85 10.772z"/></g></svg>