<svg xmlns="http://www.w3.org/2000/svg" viewBox="0 0 312 312"><path fill="#FFF" fill-opacity=".18" fill-rule="evenodd" d="M164.164.214C78.122-4.296 4.724 61.796.214 147.836c-4.51 86.042 61.582 159.44 147.622 163.95 86.042 4.51 159.44-61.582 163.95-147.622 4.51-86.042-61.59-159.44-147.622-163.95zM160.18 31.03c11.16.584 19.723 10.088 19.142 21.178-.585 11.16-10.088 19.72-21.25 19.134-11.082-.58-19.64-10.09-19.063-21.246.58-11.09 10.08-19.648 21.174-19.066h-.003zm83.892 69.638L183.74 105.1l-3.12 60 23.958 98.453c1.21 6.204-2.79 12.134-8.923 13.33-6.13 1.195-12.145-2.463-13.35-8.663l-25.118-89.798-9.165-.48-32.09 88.632c-2.593 5.752-9.28 8.115-15.032 5.516-5.694-2.57-8.898-9.373-6.297-15.13l30.12-93.807 3.197-60.98-54.825-10.407c-5.645-.753-9.23-5.944-8.473-11.587.715-5.692 6.092-9.66 11.732-8.91l66.785 9.296 29.42 1.54 71.75-2.143c5.688.067 10.268 4.735 10.16 10.463-.07 5.698-4.707 10.304-10.4 10.24l.002.002z"/></svg>