<svg xmlns="http://www.w3.org/2000/svg" viewBox="0 0 480 480"><g fill="none" fill-rule="evenodd"><path d="M0 0h480v480H0z"/><g fill="#69DDAE"><path d="M274.992 215.95h-95.016c-2.603 0-4.88-2.275-4.88-4.875V198.4c0-2.6 2.277-4.875 4.88-4.875h94.69c2.604 0 4.882 2.275 4.882 4.875v12.675c.325 2.6-1.953 4.875-4.556 4.875zm-55.643-82.225v3.25c-1.628 0-3.255.65-4.556 1.95-1.953 2.275-1.627 5.85.65 7.8l3.58 2.925v3.575c-1.627 0-3.254.65-4.556 1.95-1.952 2.275-1.627 5.85.65 7.8l3.58 2.925v2.6h19.524c-.325-.975-.976-1.625-1.627-2.275l-3.58-2.925v-3.575c1.628 0 3.255-.65 4.23-1.95 1.953-2.275 1.628-5.85-.65-7.8l-3.58-2.925v-3.25c1.628 0 3.255-.65 4.23-1.95 1.953-2.275 1.628-5.85-.65-7.8l-3.58-2.925H215.77l3.58 2.6zm14.317-18.525v-2.925c1.627 0 3.254-.65 4.23-1.95 1.952-2.275 1.627-5.85-.65-7.8l-3.58-2.925v-8.125c0-3.575-3.254-6.5-7.16-6.5-3.253 0-5.856 1.95-6.832 4.55-1.627-.325-3.58.65-4.88 1.95-1.954 2.275-1.628 5.85.975 7.8l3.58 2.925v2.925c-1.628 0-3.255.65-4.556 1.95-1.953 2.275-1.627 5.85.65 7.8l1.302.975h17.246l-.325-.65zm101.198 60.45h-91.11c-2.604 0-4.882 2.275-4.882 4.875s2.278 4.875 4.88 4.875h91.112c2.603 0 4.88-2.275 4.88-4.875s-2.277-4.875-4.88-4.875z"/><path d="M237.57 180.525c0-3.25 2.605-6.175 6.184-6.175h1.952v-.65c0-2.275-2.277-4.225-5.206-4.225h-26.032c-2.928 0-5.206 1.95-5.206 4.225v13.65c0 2.275 2.278 4.225 5.206 4.225H240.5c2.93 0 5.206-1.95 5.206-4.225v-.65h-1.952c-3.58 0-6.183-2.925-6.183-6.175zm68.01 75.075v-68.9H291.26v59.475h-.325l.325.65 3.905 13.325v.325h5.206c2.93 0 5.206-2.275 5.206-4.875z"/><path d="M154.595 260.475h5.532l4.23-14.3h-.325V130.15h127.23v44.2h14.317v-65c0-2.6-2.278-4.875-4.882-4.875h-4.555c-2.603 0-4.88 2.275-4.88 4.875v7.475h-127.23v-7.475c0-2.6-2.28-4.875-4.882-4.875h-4.555c-2.603 0-4.88 2.275-4.88 4.875v145.925c0 2.925 2.277 5.2 4.88 5.2zm161.722 34.775c0-3.9-2.603-6.825-5.857-6.825h-5.206V269.9c0-2.6-2.278-4.875-4.88-4.875h-3.906l6.183 20.475c0 .975 0 1.625-.65 2.275-.976.975-2.278 1.625-3.905 1.625H157.198c-1.627 0-3.254-.65-3.904-1.625-.65-.65-.65-1.625-.65-2.275l5.856-20.475h-4.23c-2.603 0-4.88 2.275-4.88 4.875v18.525h-4.882c-3.254 0-5.857 2.925-5.857 6.825v91.65c0 3.9 3.255 7.15 7.16 7.15h6.507c3.905 0 7.16-3.25 7.16-7.15v-53.625c2.602-.325 4.555-2.275 4.555-4.875v-20.15h127.23v20.15c0 2.6 1.952 4.55 4.555 4.875v53.3c0 3.9 3.254 7.15 7.16 7.15h6.507c3.905 0 7.16-3.25 7.16-7.15V295.25h-.327z"/><path d="M300.698 285.825l-6.182-20.8-1.302-4.55v-.325l-.325-1.3-.652-2.275-.976-3.25-.65-2.6-1.628-5.2H277.92l-2.928-13H194.62c-7.16 0-9.437-3.575-9.437-3.9l-1.302-2.275-1.3 2.275c0 .325-3.255 5.525-4.556 10.725-.326.975-.65 3.25-1.627 5.85H166.31l-11.715 39.975c0 .325 0 .65.326.65.326.65 1.302.975 2.604.975h140.57c.977 0 1.954-.325 2.604-.975 0 .325 0 .325 0 0zM281.5 279c-.325.325-.65.325-.976.325h-107.38c-.652 0-.977-.325-.977-.325 0-.325-.326-.65-.326-.975.327-.975 2.28-9.1 4.23-17.225l3.58-14.3v-.325c.652-2.275.977-4.225 1.302-5.2.65-2.925 2.278-5.85 3.254-7.8 1.953 1.625 5.207 3.575 10.738 3.575h77.77l2.278 9.75v.325l3.254 14.3 3.905 17.225c-.325 0-.65.325-.65.65z"/></g></g></svg>