<svg id="Layer_1" data-name="Layer 1" xmlns="http://www.w3.org/2000/svg" width="72" height="86.34" viewBox="0 0 72 86.34">
  <title>Artboard 1</title>
  <g>
    <path d="M52.045,40.613H12.735a1.542,1.542,0,0,1-1.5-1.5V35.2a1.542,1.542,0,0,1,1.5-1.5H51.944a1.542,1.542,0,0,1,1.5,1.5v3.911A1.4,1.4,0,0,1,52.045,40.613Z" fill="#4a4a4a"/>
    <path d="M34.3,9.326v-.9h0a1.617,1.617,0,0,0,1.3-.6,1.732,1.732,0,0,0-.2-2.407l-1.1-.9V2.006A2.126,2.126,0,0,0,32.089,0a2.216,2.216,0,0,0-2.106,1.4,1.831,1.831,0,0,0-1.5.6,1.658,1.658,0,0,0,.3,2.407l1.1.9v.9a1.98,1.98,0,0,0-1.4.6,1.732,1.732,0,0,0,.2,2.407l.4.3H34.4Z" fill="#4a4a4a"/>
    <g>
      <path d="M70.5,27.978H37.4a1.5,1.5,0,0,0,0,3.008H70.5a1.5,1.5,0,0,0,0-3.008Z" fill="#4a4a4a"/>
      <path d="M35.5,29.482A1.9,1.9,0,0,1,37.4,27.577h.6v-.2a1.48,1.48,0,0,0-1.6-1.3H28.379a1.48,1.48,0,0,0-1.6,1.3v4.212a1.48,1.48,0,0,0,1.6,1.3H36.4a1.48,1.48,0,0,0,1.6-1.3v-.2h-.6A1.9,1.9,0,0,1,35.5,29.482Z" fill="#4a4a4a"/>
    </g>
    <path d="M61.471,52.646V31.788H57.058v17.95h0v.2l1.2,4.111v.1h1.6A1.565,1.565,0,0,0,61.471,52.646Z" fill="#4a4a4a"/>
    <path d="M4.914,54.15h1.6l1.3-4.412h0v-36.3H57.058V27.175h4.412V7.521a1.542,1.542,0,0,0-1.5-1.5h-1.4a1.542,1.542,0,0,0-1.5,1.5v2.808H7.822V7.521a1.542,1.542,0,0,0-1.5-1.5h-1.4a1.542,1.542,0,0,0-1.5,1.5V52.546A1.565,1.565,0,0,0,4.914,54.15Z" fill="#4a4a4a"/>
    <path d="M64.78,64.88a1.944,1.944,0,0,0-1.805-2.106h-1.6V57.058a1.542,1.542,0,0,0-1.5-1.5h-1.2l1.905,6.318a.846.846,0,0,1-.2.7,1.661,1.661,0,0,1-1.2.5H5.716a1.5,1.5,0,0,1-1.2-.5.955.955,0,0,1-.2-.7h0l1.805-6.318h-1.3a1.542,1.542,0,0,0-1.5,1.5v5.716h-1.5A1.944,1.944,0,0,0,0,64.88V84.134A2.226,2.226,0,0,0,2.206,86.34H4.212a2.226,2.226,0,0,0,2.206-2.206V76.613a1.524,1.524,0,0,0,1.4-1.5V68.891H57.058v6.217a1.524,1.524,0,0,0,1.4,1.5v7.421a2.226,2.226,0,0,0,2.206,2.206h2.006a2.141,2.141,0,0,0,2.106-2.206" fill="#4a4a4a"/>
    <path d="M59.419,61.793,57.551,55.5l-.393-1.376v-.1l-.1-.393-.2-.688-.295-.983-.2-.786-.491-1.573H52.539l-.885-3.931H17.55c-2.162,0-2.85-1.081-2.85-1.179l-.393-.688-.393.688a14.82,14.82,0,0,0-1.5,3.246c-.1.295-.259.98-.553,1.766H9L5.461,61.6c0,.1,0,.2.1.2.1.2.393.295.786.295H58.633a1.116,1.116,0,0,0,.786-.295Q59.419,61.94,59.419,61.793Zm-5.8-2.064a.361.361,0,0,1-.295.1H11.064a.43.43,0,0,1-.295-.1c0-.1-.1-.2-.1-.295.1-.295.688-2.752,1.278-5.209L13.029,49.9v-.1c.2-.688.295-1.278.393-1.573a10.651,10.651,0,0,1,.983-2.359,4.808,4.808,0,0,0,3.243,1.081H50.966l.688,2.948V50l.983,4.324,1.179,5.209A.211.211,0,0,0,53.62,59.729Z" fill="#4a4a4a"/>
    <path d="M35.2,25.07l-1.1-.9v-1.1a1.617,1.617,0,0,0,1.3-.6,1.732,1.732,0,0,0-.2-2.407l-1.1-.9v-1a1.617,1.617,0,0,0,1.3-.6,1.732,1.732,0,0,0-.2-2.407l-1.1-.9H28.78l1.1.8v1a1.98,1.98,0,0,0-1.4.6,1.732,1.732,0,0,0,.2,2.407l1.1.9v1.1a1.98,1.98,0,0,0-1.4.6,1.732,1.732,0,0,0,.2,2.407l1.1.9v.3h5.7C35.321,25.2,35.262,25.134,35.2,25.07Z" fill="#4a4a4a"/>
  </g>
</svg>
