<svg width="530" height="350" viewBox="0 0 530 350" fill="none" xmlns="http://www.w3.org/2000/svg">
<g clip-path="url(#clip0_9_423)">
<rect width="530" height="350" fill="white"/>
<rect width="530" height="350" fill="#FBFBFB"/>
<rect y="21" width="530" height="24" fill="#EEEEEE"/>
<path d="M19.9036 8.50862C20.5559 6.42125 22.489 5 24.676 5H114.324C116.511 5 118.444 6.42125 119.096 8.50863L123 21H16L19.9036 8.50862Z" fill="#EEEEEE"/>
<path d="M131 9V17" stroke="#6A6A6A" stroke-linecap="round" stroke-linejoin="round"/>
<path d="M127 13H135" stroke="#6A6A6A" stroke-linecap="round" stroke-linejoin="round"/>
<path d="M517 9L520 12L523 9" stroke="#6A6A6A" stroke-linecap="round" stroke-linejoin="round"/>
<rect x="71" y="26" width="446" height="14" rx="7" fill="#6A6A6A"/>
<path d="M30.3629 33.0625L24.5 33.0625" stroke="#6A6A6A" stroke-linecap="round" stroke-linejoin="round"/>
<path d="M27.4314 36L24.5 33.0625L27.4314 30.125" stroke="#6A6A6A" stroke-linecap="round" stroke-linejoin="round"/>
<path d="M39.3442 33.0625L45.2071 33.0625" stroke="#6A6A6A" stroke-linecap="round" stroke-linejoin="round"/>
<path d="M42.2756 36L45.2071 33.0625L42.2756 30.125" stroke="#6A6A6A" stroke-linecap="round" stroke-linejoin="round"/>
<path d="M54.3134 31.8L57.9059 29L61.4985 31.8V36.2C61.4985 36.4122 61.4144 36.6157 61.2647 36.7657C61.1149 36.9157 60.9119 37 60.7001 37H55.1117C54.9 37 54.6969 36.9157 54.5472 36.7657C54.3975 36.6157 54.3134 36.4122 54.3134 36.2V31.8Z" stroke="#6A6A6A" stroke-linecap="round" stroke-linejoin="round"/>
<path d="M56.7083 37V33H59.1034V37" stroke="#6A6A6A" stroke-linecap="round" stroke-linejoin="round"/>
<path d="M511 30.2994V32.0998H509.199" stroke="#FBFBFB" stroke-width="0.75" stroke-linecap="round" stroke-linejoin="round"/>
<path d="M510.247 33.6001C510.052 34.1522 509.683 34.626 509.195 34.95C508.707 35.274 508.127 35.4307 507.543 35.3965C506.958 35.3623 506.401 35.139 505.954 34.7604C505.508 34.3817 505.196 33.8682 505.067 33.2971C504.937 32.726 504.997 32.1284 505.237 31.5943C505.477 31.0601 505.884 30.6184 506.397 30.3357C506.909 30.053 507.5 29.9445 508.08 30.0268C508.66 30.109 509.197 30.3774 509.611 30.7916L511 32.0998" stroke="#FBFBFB" stroke-width="0.75" stroke-linecap="round" stroke-linejoin="round"/>
<rect x="0.5" y="45.5" width="529" height="304" stroke="#FBFBFB"/>
<rect x="24" y="69" width="90" height="24" rx="3" fill="#E6E6E6"/>
<rect x="158" y="77" width="202" height="16" rx="3" fill="#E6E6E6"/>
<rect x="24" y="109" width="76" height="9" rx="3" fill="#E6E6E6"/>
<rect x="24" y="123" width="72" height="9" rx="3" fill="#E6E6E6"/>
<rect x="24" y="137" width="76" height="9" rx="3" fill="#E6E6E6"/>
<rect x="24" y="151" width="68" height="9" rx="3" fill="#E6E6E6"/>
<rect x="24" y="165" width="76" height="9" rx="3" fill="#E6E6E6"/>
<rect x="24" y="179" width="76" height="9" rx="3" fill="#E6E6E6"/>
<rect x="158" y="109" width="274" height="6.26582" rx="3" fill="#E6E6E6"/>
<rect x="158" y="118.747" width="259.579" height="6.26582" rx="3" fill="#E6E6E6"/>
<rect x="158" y="176.747" width="259.579" height="6.26582" rx="3" fill="#E6E6E6"/>
<rect x="158" y="128.494" width="274" height="6.26582" rx="3" fill="#E6E6E6"/>
<rect x="158" y="186.494" width="274" height="6.26582" rx="3" fill="#E6E6E6"/>
<rect x="158" y="138" width="266" height="7" rx="3" fill="#E6E6E6"/>
<rect x="158" y="196" width="272" height="7" rx="3" fill="#E6E6E6"/>
<rect x="158" y="147.987" width="274" height="6.26582" rx="3" fill="#E6E6E6"/>
<rect x="158" y="205.987" width="274" height="6.26582" rx="3" fill="#E6E6E6"/>
<rect x="158" y="158" width="266" height="6" rx="3" fill="#E6E6E6"/>
<rect x="158" y="216" width="269" height="6" rx="3" fill="#E6E6E6"/>
<path d="M158 241C158 239.343 159.343 238 161 238H424C425.657 238 427 239.343 427 241V350H158V241Z" fill="#E6E6E6"/>
<g filter="url(#filter0_d_9_423)">
<rect x="173" y="62" width="200" height="98" rx="3" fill="white"/>
<rect x="172.5" y="61.5" width="201" height="99" rx="3.5" stroke="#6A6A6A"/>
</g>
<path d="M365 70L361 74" stroke="#6A6A6A" stroke-width="2" stroke-linecap="round" stroke-linejoin="round"/>
<path d="M361 70L365 74" stroke="#6A6A6A" stroke-width="2" stroke-linecap="round" stroke-linejoin="round"/>
<path d="M190.886 88H189.238L191.749 80.7273H193.73L196.237 88H194.589L192.768 82.3892H192.711L190.886 88ZM190.783 85.1413H194.675V86.3416H190.783V85.1413ZM198.84 88.0888C198.426 88.0888 198.051 87.9822 197.714 87.7692C197.381 87.5537 197.116 87.2377 196.919 86.821C196.725 86.402 196.628 85.8883 196.628 85.2798C196.628 84.6548 196.728 84.1352 196.93 83.7209C197.131 83.3042 197.398 82.9929 197.732 82.7869C198.068 82.5786 198.437 82.4744 198.837 82.4744C199.142 82.4744 199.397 82.5265 199.6 82.6307C199.806 82.7325 199.972 82.8603 200.097 83.0142C200.225 83.1657 200.322 83.3149 200.388 83.4616H200.435V80.7273H201.944V88H200.452V87.1264H200.388C200.317 87.2779 200.217 87.4283 200.087 87.5774C199.959 87.7242 199.792 87.8461 199.586 87.9432C199.382 88.0402 199.134 88.0888 198.84 88.0888ZM199.32 86.8849C199.563 86.8849 199.769 86.8187 199.938 86.6861C200.108 86.5511 200.238 86.3629 200.328 86.1214C200.42 85.88 200.467 85.5971 200.467 85.2727C200.467 84.9484 200.422 84.6667 200.332 84.4276C200.242 84.1884 200.112 84.0038 199.941 83.8736C199.771 83.7434 199.563 83.6783 199.32 83.6783C199.071 83.6783 198.862 83.7457 198.691 83.8807C198.521 84.0156 198.392 84.2027 198.304 84.4418C198.216 84.6809 198.173 84.9579 198.173 85.2727C198.173 85.59 198.216 85.8705 198.304 86.1143C198.394 86.3558 198.523 86.5452 198.691 86.6825C198.862 86.8175 199.071 86.8849 199.32 86.8849ZM203.188 82.5455H204.7V88.2699C204.7 88.6913 204.618 89.0322 204.452 89.2926C204.286 89.553 204.048 89.7436 203.738 89.8643C203.43 89.9851 203.062 90.0455 202.634 90.0455C202.582 90.0455 202.532 90.0443 202.485 90.0419C202.435 90.0419 202.383 90.0407 202.328 90.0384V88.8558C202.369 88.8582 202.404 88.8594 202.435 88.8594C202.463 88.8617 202.494 88.8629 202.527 88.8629C202.771 88.8629 202.941 88.8108 203.039 88.7067C203.138 88.6049 203.188 88.451 203.188 88.245V82.5455ZM203.941 81.8423C203.718 81.8423 203.526 81.7678 203.365 81.6186C203.204 81.4671 203.124 81.286 203.124 81.0753C203.124 80.867 203.204 80.6882 203.365 80.5391C203.526 80.3875 203.718 80.3118 203.941 80.3118C204.168 80.3118 204.361 80.3875 204.519 80.5391C204.68 80.6882 204.761 80.867 204.761 81.0753C204.761 81.286 204.68 81.4671 204.519 81.6186C204.361 81.7678 204.168 81.8423 203.941 81.8423ZM209.41 85.6776V82.5455H210.923V88H209.471V87.0092H209.414C209.291 87.3288 209.086 87.5857 208.799 87.7798C208.515 87.974 208.168 88.071 207.759 88.071C207.394 88.071 207.074 87.9882 206.797 87.8224C206.52 87.6567 206.303 87.4212 206.147 87.1158C205.993 86.8104 205.915 86.4446 205.912 86.0185V82.5455H207.425V85.7486C207.427 86.0705 207.514 86.325 207.684 86.5121C207.855 86.6991 208.083 86.7926 208.37 86.7926C208.552 86.7926 208.722 86.7512 208.881 86.6683C209.04 86.5831 209.167 86.4576 209.265 86.2919C209.364 86.1262 209.413 85.9214 209.41 85.6776ZM216.671 84.1009L215.286 84.1861C215.263 84.0677 215.212 83.9612 215.134 83.8665C215.056 83.7694 214.953 83.6925 214.825 83.6357C214.699 83.5765 214.549 83.5469 214.374 83.5469C214.139 83.5469 213.942 83.5966 213.781 83.696C213.62 83.7931 213.539 83.9233 213.539 84.0866C213.539 84.2169 213.591 84.3269 213.695 84.4169C213.8 84.5069 213.978 84.5791 214.232 84.6335L215.219 84.8324C215.749 84.9413 216.145 85.1165 216.405 85.358C216.665 85.5994 216.796 85.9167 216.796 86.3097C216.796 86.6671 216.69 86.9808 216.48 87.2507C216.271 87.5206 215.985 87.7313 215.62 87.8828C215.258 88.032 214.84 88.1065 214.367 88.1065C213.645 88.1065 213.069 87.9562 212.641 87.6555C212.215 87.3525 211.965 86.9406 211.892 86.4197L213.379 86.3416C213.424 86.5618 213.533 86.7299 213.706 86.8459C213.879 86.9595 214.1 87.0163 214.37 87.0163C214.635 87.0163 214.848 86.9654 215.009 86.8636C215.173 86.7595 215.256 86.6257 215.258 86.4624C215.256 86.325 215.198 86.2126 215.084 86.125C214.97 86.035 214.795 85.9664 214.558 85.919L213.614 85.7308C213.081 85.6243 212.685 85.4396 212.424 85.1768C212.166 84.9141 212.037 84.5791 212.037 84.1719C212.037 83.8215 212.132 83.5196 212.321 83.2663C212.513 83.013 212.782 82.8177 213.127 82.6804C213.475 82.5431 213.883 82.4744 214.349 82.4744C215.038 82.4744 215.58 82.62 215.975 82.9112C216.373 83.2024 216.605 83.599 216.671 84.1009ZM220.65 82.5455V83.6818H217.365V82.5455H220.65ZM218.11 81.2386H219.623V86.3239C219.623 86.4635 219.645 86.5724 219.687 86.6506C219.73 86.7263 219.789 86.7796 219.865 86.8104C219.943 86.8411 220.033 86.8565 220.135 86.8565C220.206 86.8565 220.277 86.8506 220.348 86.8388C220.419 86.8246 220.473 86.8139 220.511 86.8068L220.749 87.9325C220.673 87.9562 220.567 87.9834 220.429 88.0142C220.292 88.0473 220.125 88.0675 219.929 88.0746C219.564 88.0888 219.244 88.0402 218.97 87.929C218.698 87.8177 218.486 87.6449 218.334 87.4105C218.183 87.1761 218.108 86.8802 218.11 86.5227V81.2386ZM226.414 88.1065C225.855 88.1065 225.375 87.9882 224.972 87.7514C224.572 87.5123 224.264 87.1809 224.049 86.7571C223.836 86.3333 223.729 85.8456 223.729 85.294C223.729 84.7353 223.837 84.2453 224.052 83.8239C224.27 83.4001 224.579 83.0698 224.979 82.8331C225.379 82.594 225.855 82.4744 226.407 82.4744C226.883 82.4744 227.299 82.5608 227.657 82.7337C228.014 82.9065 228.297 83.1491 228.506 83.4616C228.714 83.7741 228.829 84.1411 228.85 84.5625H227.422C227.382 84.2902 227.276 84.0713 227.103 83.9055C226.932 83.7375 226.709 83.6534 226.432 83.6534C226.197 83.6534 225.992 83.7173 225.817 83.8452C225.644 83.9706 225.51 84.1541 225.412 84.3956C225.315 84.6371 225.267 84.9295 225.267 85.2727C225.267 85.6207 225.314 85.9167 225.409 86.1605C225.506 86.4044 225.642 86.5902 225.817 86.718C225.992 86.8459 226.197 86.9098 226.432 86.9098C226.604 86.9098 226.76 86.8743 226.897 86.8033C227.037 86.7322 227.151 86.6293 227.241 86.4943C227.334 86.357 227.394 86.1925 227.422 86.0007H228.85C228.826 86.4174 228.713 86.7843 228.509 87.1016C228.308 87.4164 228.03 87.6626 227.675 87.8402C227.319 88.0178 226.899 88.1065 226.414 88.1065ZM232.283 88.1065C231.731 88.1065 231.254 87.9893 230.852 87.755C230.452 87.5182 230.143 87.1892 229.925 86.7678C229.707 86.344 229.598 85.8527 229.598 85.294C229.598 84.7306 229.707 84.2382 229.925 83.8168C230.143 83.393 230.452 83.0639 230.852 82.8295C231.254 82.5928 231.731 82.4744 232.283 82.4744C232.835 82.4744 233.31 82.5928 233.711 82.8295C234.113 83.0639 234.423 83.393 234.641 83.8168C234.859 84.2382 234.968 84.7306 234.968 85.294C234.968 85.8527 234.859 86.344 234.641 86.7678C234.423 87.1892 234.113 87.5182 233.711 87.755C233.31 87.9893 232.835 88.1065 232.283 88.1065ZM232.29 86.9347C232.541 86.9347 232.751 86.8636 232.919 86.7216C233.087 86.5772 233.213 86.3807 233.299 86.1321C233.386 85.8835 233.43 85.6006 233.43 85.2834C233.43 84.9661 233.386 84.6832 233.299 84.4347C233.213 84.1861 233.087 83.9896 232.919 83.8452C232.751 83.7008 232.541 83.6286 232.29 83.6286C232.037 83.6286 231.824 83.7008 231.651 83.8452C231.48 83.9896 231.351 84.1861 231.264 84.4347C231.179 84.6832 231.136 84.9661 231.136 85.2834C231.136 85.6006 231.179 85.8835 231.264 86.1321C231.351 86.3807 231.48 86.5772 231.651 86.7216C231.824 86.8636 232.037 86.9347 232.29 86.9347ZM237.464 84.8466V88H235.951V82.5455H237.393V83.5078H237.457C237.578 83.1906 237.78 82.9396 238.064 82.755C238.348 82.5679 238.693 82.4744 239.098 82.4744C239.476 82.4744 239.807 82.5573 240.088 82.723C240.37 82.8887 240.589 83.1255 240.745 83.4332C240.902 83.7386 240.98 84.1032 240.98 84.527V88H239.467V84.7969C239.469 84.4631 239.384 84.2027 239.211 84.0156C239.038 83.8262 238.801 83.7315 238.498 83.7315C238.294 83.7315 238.114 83.7753 237.958 83.8629C237.804 83.9505 237.683 84.0784 237.596 84.2464C237.51 84.4122 237.467 84.6122 237.464 84.8466ZM245.073 82.5455V83.6818H241.789V82.5455H245.073ZM242.534 81.2386H244.047V86.3239C244.047 86.4635 244.068 86.5724 244.111 86.6506C244.154 86.7263 244.213 86.7796 244.289 86.8104C244.367 86.8411 244.457 86.8565 244.558 86.8565C244.629 86.8565 244.7 86.8506 244.771 86.8388C244.843 86.8246 244.897 86.8139 244.935 86.8068L245.173 87.9325C245.097 87.9562 244.99 87.9834 244.853 88.0142C244.716 88.0473 244.549 88.0675 244.352 88.0746C243.988 88.0888 243.668 88.0402 243.394 87.929C243.121 87.8177 242.91 87.6449 242.758 87.4105C242.606 87.1761 242.532 86.8802 242.534 86.5227V81.2386ZM246.059 88V82.5455H247.525V83.4972H247.582C247.682 83.1586 247.849 82.9029 248.083 82.7301C248.317 82.5549 248.587 82.4673 248.893 82.4673C248.968 82.4673 249.05 82.4721 249.138 82.4815C249.225 82.491 249.302 82.504 249.368 82.5206V83.8629C249.297 83.8416 249.199 83.8227 249.074 83.8061C248.948 83.7895 248.833 83.7812 248.729 83.7812C248.507 83.7812 248.308 83.8298 248.133 83.9268C247.96 84.0215 247.823 84.1541 247.721 84.3246C247.621 84.495 247.572 84.6915 247.572 84.9141V88H246.059ZM251.55 88.103C251.202 88.103 250.892 88.0426 250.619 87.9219C250.347 87.7988 250.132 87.6177 249.973 87.3786C249.817 87.1371 249.739 86.8364 249.739 86.4766C249.739 86.1735 249.794 85.919 249.906 85.7131C250.017 85.5071 250.168 85.3414 250.36 85.2159C250.552 85.0904 250.77 84.9957 251.013 84.9318C251.26 84.8679 251.518 84.8229 251.788 84.7969C252.105 84.7637 252.361 84.733 252.555 84.7045C252.749 84.6738 252.89 84.6288 252.977 84.5696C253.065 84.5104 253.109 84.4228 253.109 84.3068V84.2855C253.109 84.0606 253.038 83.8866 252.896 83.7635C252.756 83.6404 252.557 83.5788 252.299 83.5788C252.027 83.5788 251.81 83.6392 251.649 83.7599C251.488 83.8783 251.382 84.0275 251.33 84.2074L249.93 84.0938C250.001 83.7623 250.141 83.4759 250.349 83.2344C250.558 82.9905 250.826 82.8035 251.156 82.6733C251.487 82.5407 251.871 82.4744 252.306 82.4744C252.609 82.4744 252.899 82.5099 253.176 82.581C253.455 82.652 253.703 82.7621 253.918 82.9112C254.136 83.0604 254.308 83.2521 254.433 83.4865C254.559 83.7185 254.621 83.9967 254.621 84.321V88H253.187V87.2436H253.144C253.057 87.4141 252.939 87.5644 252.793 87.6946C252.646 87.8224 252.469 87.9231 252.263 87.9964C252.058 88.0675 251.82 88.103 251.55 88.103ZM251.983 87.0589C252.205 87.0589 252.402 87.0152 252.572 86.9276C252.743 86.8376 252.877 86.7169 252.974 86.5653C253.071 86.4138 253.119 86.2422 253.119 86.0504V85.4716C253.072 85.5024 253.007 85.5308 252.924 85.5568C252.844 85.5805 252.752 85.603 252.651 85.6243C252.549 85.6432 252.447 85.661 252.345 85.6776C252.243 85.6918 252.151 85.7048 252.068 85.7166C251.891 85.7427 251.736 85.7841 251.603 85.8409C251.47 85.8977 251.367 85.9747 251.294 86.0717C251.221 86.1664 251.184 86.2848 251.184 86.4268C251.184 86.6328 251.259 86.7902 251.408 86.8991C251.559 87.0057 251.751 87.0589 251.983 87.0589ZM260.333 84.1009L258.949 84.1861C258.925 84.0677 258.874 83.9612 258.796 83.8665C258.718 83.7694 258.615 83.6925 258.487 83.6357C258.361 83.5765 258.211 83.5469 258.036 83.5469C257.801 83.5469 257.604 83.5966 257.443 83.696C257.282 83.7931 257.201 83.9233 257.201 84.0866C257.201 84.2169 257.253 84.3269 257.358 84.4169C257.462 84.5069 257.641 84.5791 257.894 84.6335L258.881 84.8324C259.411 84.9413 259.807 85.1165 260.067 85.358C260.328 85.5994 260.458 85.9167 260.458 86.3097C260.458 86.6671 260.352 86.9808 260.142 87.2507C259.933 87.5206 259.647 87.7313 259.282 87.8828C258.92 88.032 258.502 88.1065 258.029 88.1065C257.307 88.1065 256.731 87.9562 256.303 87.6555C255.877 87.3525 255.627 86.9406 255.554 86.4197L257.042 86.3416C257.087 86.5618 257.195 86.7299 257.368 86.8459C257.541 86.9595 257.762 87.0163 258.032 87.0163C258.297 87.0163 258.511 86.9654 258.672 86.8636C258.835 86.7595 258.918 86.6257 258.92 86.4624C258.918 86.325 258.86 86.2126 258.746 86.125C258.632 86.035 258.457 85.9664 258.221 85.919L257.276 85.7308C256.743 85.6243 256.347 85.4396 256.086 85.1768C255.828 84.9141 255.699 84.5791 255.699 84.1719C255.699 83.8215 255.794 83.5196 255.983 83.2663C256.175 83.013 256.444 82.8177 256.789 82.6804C257.137 82.5431 257.545 82.4744 258.011 82.4744C258.7 82.4744 259.242 82.62 259.637 82.9112C260.035 83.2024 260.267 83.599 260.333 84.1009ZM264.312 82.5455V83.6818H261.027V82.5455H264.312ZM261.773 81.2386H263.285V86.3239C263.285 86.4635 263.307 86.5724 263.349 86.6506C263.392 86.7263 263.451 86.7796 263.527 86.8104C263.605 86.8411 263.695 86.8565 263.797 86.8565C263.868 86.8565 263.939 86.8506 264.01 86.8388C264.081 86.8246 264.135 86.8139 264.173 86.8068L264.411 87.9325C264.335 87.9562 264.229 87.9834 264.091 88.0142C263.954 88.0473 263.787 88.0675 263.591 88.0746C263.226 88.0888 262.907 88.0402 262.632 87.929C262.36 87.8177 262.148 87.6449 261.996 87.4105C261.845 87.1761 261.77 86.8802 261.773 86.5227V81.2386ZM266.597 85.8196V85.6989C266.599 85.2846 266.636 84.9543 266.707 84.7081C266.78 84.4619 266.887 84.263 267.026 84.1115C267.166 83.96 267.334 83.8227 267.531 83.6996C267.677 83.6049 267.809 83.5066 267.925 83.4048C268.041 83.303 268.133 83.1906 268.202 83.0675C268.271 82.942 268.305 82.8023 268.305 82.6484C268.305 82.4851 268.266 82.3419 268.188 82.2188C268.11 82.0956 268.004 82.0009 267.872 81.9347C267.741 81.8684 267.597 81.8352 267.438 81.8352C267.285 81.8352 267.139 81.8696 267.002 81.9382C266.864 82.0045 266.752 82.1039 266.664 82.2365C266.577 82.3667 266.529 82.5289 266.522 82.723H265.073C265.085 82.2495 265.199 81.8589 265.414 81.5511C265.63 81.241 265.915 81.0102 266.27 80.8587C266.625 80.7048 267.017 80.6278 267.445 80.6278C267.917 80.6278 268.333 80.706 268.695 80.8622C269.058 81.0161 269.342 81.2398 269.548 81.5334C269.754 81.8269 269.857 82.1809 269.857 82.5952C269.857 82.8722 269.811 83.1184 269.718 83.3338C269.628 83.5469 269.502 83.7363 269.338 83.902C269.175 84.0653 268.982 84.2133 268.759 84.3459C268.572 84.4571 268.419 84.5732 268.298 84.6939C268.179 84.8146 268.091 84.9543 268.031 85.1129C267.975 85.2715 267.945 85.4669 267.943 85.6989V85.8196H266.597ZM267.3 88.0923C267.063 88.0923 266.861 88.0095 266.693 87.8438C266.527 87.6757 266.445 87.4744 266.448 87.2401C266.445 87.008 266.527 86.8092 266.693 86.6435C266.861 86.4777 267.063 86.3949 267.3 86.3949C267.525 86.3949 267.722 86.4777 267.893 86.6435C268.063 86.8092 268.15 87.008 268.152 87.2401C268.15 87.3963 268.108 87.5395 268.028 87.6697C267.95 87.7976 267.847 87.9006 267.719 87.9787C267.591 88.0545 267.451 88.0923 267.3 88.0923Z" fill="#6A6A6A"/>
<path d="M190.131 104H189.199L191.293 98.1818H192.307L194.401 104H193.469L191.824 99.2386H191.778L190.131 104ZM190.287 101.722H193.31V102.46H190.287V101.722ZM197.937 102.19V99.6364H198.789V104H197.954V103.244H197.908C197.808 103.477 197.647 103.671 197.425 103.827C197.206 103.98 196.932 104.057 196.604 104.057C196.324 104.057 196.076 103.995 195.86 103.872C195.646 103.747 195.478 103.562 195.354 103.318C195.233 103.074 195.173 102.772 195.173 102.412V99.6364H196.022V102.31C196.022 102.607 196.104 102.844 196.269 103.02C196.434 103.196 196.648 103.284 196.911 103.284C197.07 103.284 197.228 103.244 197.386 103.165C197.545 103.085 197.676 102.965 197.781 102.804C197.887 102.643 197.939 102.438 197.937 102.19ZM201.967 99.6364V100.318H199.584V99.6364H201.967ZM200.223 98.5909H201.072V102.719C201.072 102.884 201.097 103.008 201.146 103.091C201.196 103.172 201.259 103.228 201.337 103.259C201.416 103.287 201.502 103.301 201.595 103.301C201.663 103.301 201.723 103.296 201.774 103.287C201.825 103.277 201.865 103.27 201.893 103.264L202.047 103.966C201.998 103.985 201.928 104.004 201.837 104.023C201.746 104.044 201.632 104.055 201.496 104.057C201.272 104.061 201.064 104.021 200.871 103.938C200.678 103.854 200.521 103.725 200.402 103.551C200.283 103.377 200.223 103.158 200.223 102.895V98.5909ZM204.698 104.088C204.289 104.088 203.932 103.994 203.627 103.807C203.322 103.619 203.085 103.357 202.917 103.02C202.748 102.683 202.664 102.289 202.664 101.838C202.664 101.385 202.748 100.99 202.917 100.651C203.085 100.312 203.322 100.048 203.627 99.8608C203.932 99.6733 204.289 99.5795 204.698 99.5795C205.107 99.5795 205.464 99.6733 205.769 99.8608C206.074 100.048 206.311 100.312 206.479 100.651C206.648 100.99 206.732 101.385 206.732 101.838C206.732 102.289 206.648 102.683 206.479 103.02C206.311 103.357 206.074 103.619 205.769 103.807C205.464 103.994 205.107 104.088 204.698 104.088ZM204.701 103.375C204.966 103.375 205.186 103.305 205.36 103.165C205.534 103.025 205.663 102.838 205.746 102.605C205.832 102.372 205.874 102.116 205.874 101.835C205.874 101.557 205.832 101.301 205.746 101.068C205.663 100.833 205.534 100.645 205.36 100.503C205.186 100.361 204.966 100.29 204.701 100.29C204.434 100.29 204.212 100.361 204.036 100.503C203.862 100.645 203.732 100.833 203.647 101.068C203.564 101.301 203.522 101.557 203.522 101.835C203.522 102.116 203.564 102.372 203.647 102.605C203.732 102.838 203.862 103.025 204.036 103.165C204.212 103.305 204.434 103.375 204.701 103.375ZM207.68 104V99.6364H208.496V100.347H208.55C208.641 100.106 208.789 99.9186 208.996 99.7841C209.202 99.6477 209.449 99.5795 209.737 99.5795C210.029 99.5795 210.273 99.6477 210.47 99.7841C210.669 99.9205 210.816 100.108 210.911 100.347H210.956C211.06 100.114 211.226 99.928 211.453 99.7898C211.68 99.6496 211.951 99.5795 212.266 99.5795C212.661 99.5795 212.984 99.7036 213.234 99.9517C213.486 100.2 213.612 100.574 213.612 101.074V104H212.763V101.153C212.763 100.858 212.682 100.644 212.521 100.511C212.36 100.379 212.168 100.312 211.945 100.312C211.668 100.312 211.453 100.398 211.3 100.568C211.146 100.737 211.07 100.954 211.07 101.219V104H210.223V101.099C210.223 100.863 210.149 100.672 210.001 100.528C209.854 100.384 209.661 100.312 209.425 100.312C209.264 100.312 209.115 100.355 208.979 100.44C208.844 100.524 208.735 100.64 208.652 100.79C208.571 100.939 208.53 101.113 208.53 101.31V104H207.68ZM216.021 104.097C215.744 104.097 215.494 104.045 215.271 103.943C215.047 103.839 214.87 103.688 214.739 103.491C214.611 103.295 214.546 103.053 214.546 102.767C214.546 102.521 214.594 102.318 214.688 102.159C214.783 102 214.911 101.874 215.072 101.781C215.233 101.688 215.413 101.618 215.612 101.571C215.81 101.524 216.013 101.488 216.219 101.463C216.481 101.433 216.693 101.408 216.856 101.389C217.019 101.368 217.137 101.335 217.211 101.29C217.285 101.244 217.322 101.17 217.322 101.068V101.048C217.322 100.8 217.252 100.608 217.112 100.472C216.973 100.335 216.767 100.267 216.492 100.267C216.206 100.267 215.981 100.33 215.816 100.457C215.653 100.582 215.54 100.722 215.478 100.875L214.68 100.693C214.774 100.428 214.913 100.214 215.094 100.051C215.278 99.8864 215.489 99.767 215.728 99.6932C215.967 99.6174 216.218 99.5795 216.481 99.5795C216.655 99.5795 216.84 99.6004 217.035 99.642C217.232 99.6818 217.415 99.7557 217.586 99.8636C217.758 99.9716 217.899 100.126 218.009 100.327C218.119 100.526 218.174 100.784 218.174 101.102V104H217.344V103.403H217.31C217.255 103.513 217.173 103.621 217.063 103.727C216.953 103.833 216.812 103.921 216.64 103.991C216.468 104.062 216.261 104.097 216.021 104.097ZM216.205 103.415C216.44 103.415 216.641 103.368 216.808 103.276C216.976 103.183 217.104 103.062 217.191 102.912C217.28 102.76 217.325 102.598 217.325 102.426V101.864C217.294 101.894 217.236 101.922 217.148 101.949C217.063 101.973 216.966 101.995 216.856 102.014C216.746 102.031 216.639 102.047 216.535 102.062C216.431 102.076 216.344 102.087 216.273 102.097C216.109 102.117 215.958 102.152 215.822 102.202C215.687 102.251 215.579 102.322 215.498 102.415C215.418 102.506 215.379 102.627 215.379 102.778C215.379 102.989 215.456 103.148 215.612 103.256C215.767 103.362 215.965 103.415 216.205 103.415ZM221.342 99.6364V100.318H218.959V99.6364H221.342ZM219.598 98.5909H220.447V102.719C220.447 102.884 220.472 103.008 220.521 103.091C220.571 103.172 220.634 103.228 220.712 103.259C220.791 103.287 220.877 103.301 220.97 103.301C221.038 103.301 221.098 103.296 221.149 103.287C221.2 103.277 221.24 103.27 221.268 103.264L221.422 103.966C221.373 103.985 221.303 104.004 221.212 104.023C221.121 104.044 221.007 104.055 220.871 104.057C220.647 104.061 220.439 104.021 220.246 103.938C220.053 103.854 219.896 103.725 219.777 103.551C219.658 103.377 219.598 103.158 219.598 102.895V98.5909ZM222.282 104V99.6364H223.131V104H222.282ZM222.711 98.9631C222.563 98.9631 222.436 98.9138 222.33 98.8153C222.226 98.715 222.174 98.5956 222.174 98.4574C222.174 98.3172 222.226 98.1979 222.33 98.0994C222.436 97.9991 222.563 97.9489 222.711 97.9489C222.859 97.9489 222.985 97.9991 223.089 98.0994C223.195 98.1979 223.248 98.3172 223.248 98.4574C223.248 98.5956 223.195 98.715 223.089 98.8153C222.985 98.9138 222.859 98.9631 222.711 98.9631ZM226.112 104.088C225.69 104.088 225.326 103.992 225.021 103.801C224.718 103.608 224.485 103.342 224.322 103.003C224.16 102.664 224.078 102.276 224.078 101.838C224.078 101.395 224.161 101.004 224.328 100.665C224.495 100.324 224.73 100.058 225.033 99.8665C225.336 99.6752 225.693 99.5795 226.104 99.5795C226.435 99.5795 226.731 99.6411 226.99 99.7642C227.25 99.8854 227.459 100.056 227.618 100.276C227.779 100.495 227.875 100.752 227.905 101.045H227.078C227.033 100.841 226.929 100.665 226.766 100.517C226.605 100.369 226.389 100.295 226.118 100.295C225.881 100.295 225.674 100.358 225.496 100.483C225.32 100.606 225.182 100.782 225.084 101.011C224.985 101.239 224.936 101.508 224.936 101.818C224.936 102.136 224.984 102.411 225.081 102.642C225.178 102.873 225.314 103.052 225.49 103.179C225.668 103.306 225.877 103.369 226.118 103.369C226.279 103.369 226.425 103.34 226.555 103.281C226.688 103.221 226.799 103.134 226.888 103.023C226.979 102.911 227.042 102.777 227.078 102.619H227.905C227.875 102.902 227.783 103.153 227.629 103.375C227.476 103.597 227.27 103.771 227.013 103.898C226.757 104.025 226.457 104.088 226.112 104.088ZM230.083 104.097C229.807 104.097 229.557 104.045 229.333 103.943C229.11 103.839 228.933 103.688 228.802 103.491C228.673 103.295 228.609 103.053 228.609 102.767C228.609 102.521 228.656 102.318 228.751 102.159C228.845 102 228.973 101.874 229.134 101.781C229.295 101.688 229.475 101.618 229.674 101.571C229.873 101.524 230.076 101.488 230.282 101.463C230.543 101.433 230.755 101.408 230.918 101.389C231.081 101.368 231.2 101.335 231.273 101.29C231.347 101.244 231.384 101.17 231.384 101.068V101.048C231.384 100.8 231.314 100.608 231.174 100.472C231.036 100.335 230.829 100.267 230.555 100.267C230.269 100.267 230.043 100.33 229.879 100.457C229.716 100.582 229.603 100.722 229.54 100.875L228.742 100.693C228.837 100.428 228.975 100.214 229.157 100.051C229.341 99.8864 229.552 99.767 229.79 99.6932C230.029 99.6174 230.28 99.5795 230.543 99.5795C230.718 99.5795 230.902 99.6004 231.097 99.642C231.294 99.6818 231.478 99.7557 231.648 99.8636C231.821 99.9716 231.962 100.126 232.072 100.327C232.182 100.526 232.237 100.784 232.237 101.102V104H231.407V103.403H231.373C231.318 103.513 231.236 103.621 231.126 103.727C231.016 103.833 230.875 103.921 230.702 103.991C230.53 104.062 230.324 104.097 230.083 104.097ZM230.268 103.415C230.503 103.415 230.703 103.368 230.87 103.276C231.039 103.183 231.166 103.062 231.254 102.912C231.343 102.76 231.387 102.598 231.387 102.426V101.864C231.357 101.894 231.298 101.922 231.211 101.949C231.126 101.973 231.028 101.995 230.918 102.014C230.808 102.031 230.701 102.047 230.597 102.062C230.493 102.076 230.406 102.087 230.336 102.097C230.171 102.117 230.021 102.152 229.884 102.202C229.75 102.251 229.642 102.322 229.56 102.415C229.481 102.506 229.441 102.627 229.441 102.778C229.441 102.989 229.519 103.148 229.674 103.256C229.829 103.362 230.027 103.415 230.268 103.415ZM234.217 98.1818V104H233.368V98.1818H234.217ZM236.21 98.1818V104H235.36V98.1818H236.21ZM237.889 105.636C237.762 105.636 237.647 105.626 237.543 105.605C237.438 105.586 237.361 105.565 237.31 105.543L237.514 104.847C237.67 104.888 237.808 104.906 237.929 104.901C238.05 104.895 238.157 104.849 238.25 104.764C238.345 104.679 238.428 104.54 238.5 104.347L238.605 104.057L237.009 99.6364H237.918L239.023 103.023H239.068L240.173 99.6364H241.085L239.287 104.582C239.204 104.81 239.098 105.002 238.969 105.159C238.84 105.318 238.687 105.438 238.509 105.517C238.33 105.597 238.124 105.636 237.889 105.636ZM246.765 102.19V99.6364H247.617V104H246.782V103.244H246.737C246.636 103.477 246.475 103.671 246.254 103.827C246.034 103.98 245.76 104.057 245.433 104.057C245.152 104.057 244.904 103.995 244.688 103.872C244.474 103.747 244.306 103.562 244.183 103.318C244.061 103.074 244.001 102.772 244.001 102.412V99.6364H244.85V102.31C244.85 102.607 244.933 102.844 245.097 103.02C245.262 103.196 245.476 103.284 245.739 103.284C245.898 103.284 246.057 103.244 246.214 103.165C246.373 103.085 246.504 102.965 246.609 102.804C246.715 102.643 246.767 102.438 246.765 102.19ZM248.759 105.636V99.6364H249.588V100.344H249.659C249.708 100.253 249.779 100.148 249.872 100.028C249.965 99.9091 250.094 99.8049 250.259 99.7159C250.423 99.625 250.641 99.5795 250.912 99.5795C251.264 99.5795 251.579 99.6686 251.855 99.8466C252.132 100.025 252.348 100.281 252.506 100.616C252.665 100.952 252.744 101.355 252.744 101.827C252.744 102.298 252.666 102.703 252.509 103.04C252.351 103.375 252.135 103.634 251.861 103.815C251.586 103.995 251.273 104.085 250.92 104.085C250.655 104.085 250.438 104.041 250.27 103.952C250.103 103.863 249.973 103.759 249.878 103.639C249.783 103.52 249.71 103.414 249.659 103.321H249.608V105.636H248.759ZM249.591 101.818C249.591 102.125 249.635 102.394 249.724 102.625C249.813 102.856 249.942 103.037 250.111 103.168C250.279 103.296 250.486 103.361 250.73 103.361C250.984 103.361 251.196 103.294 251.366 103.159C251.537 103.023 251.666 102.838 251.753 102.605C251.842 102.372 251.886 102.11 251.886 101.818C251.886 101.53 251.843 101.272 251.756 101.043C251.67 100.813 251.542 100.633 251.369 100.5C251.199 100.367 250.986 100.301 250.73 100.301C250.484 100.301 250.276 100.365 250.105 100.491C249.937 100.618 249.809 100.795 249.722 101.023C249.634 101.25 249.591 101.515 249.591 101.818ZM255.33 104.085C254.977 104.085 254.663 103.995 254.386 103.815C254.112 103.634 253.896 103.375 253.739 103.04C253.583 102.703 253.506 102.298 253.506 101.827C253.506 101.355 253.584 100.952 253.741 100.616C253.901 100.281 254.118 100.025 254.395 99.8466C254.671 99.6686 254.985 99.5795 255.335 99.5795C255.606 99.5795 255.824 99.625 255.989 99.7159C256.155 99.8049 256.284 99.9091 256.375 100.028C256.468 100.148 256.54 100.253 256.591 100.344H256.642V98.1818H257.491V104H256.662V103.321H256.591C256.54 103.414 256.466 103.52 256.369 103.639C256.275 103.759 256.144 103.863 255.977 103.952C255.811 104.041 255.595 104.085 255.33 104.085ZM255.517 103.361C255.761 103.361 255.968 103.296 256.136 103.168C256.307 103.037 256.436 102.856 256.523 102.625C256.612 102.394 256.656 102.125 256.656 101.818C256.656 101.515 256.613 101.25 256.526 101.023C256.438 100.795 256.311 100.618 256.142 100.491C255.973 100.365 255.765 100.301 255.517 100.301C255.261 100.301 255.048 100.367 254.878 100.5C254.707 100.633 254.579 100.813 254.491 101.043C254.406 101.272 254.364 101.53 254.364 101.818C254.364 102.11 254.407 102.372 254.494 102.605C254.581 102.838 254.71 103.023 254.881 103.159C255.053 103.294 255.265 103.361 255.517 103.361ZM259.974 104.097C259.697 104.097 259.447 104.045 259.224 103.943C259 103.839 258.823 103.688 258.692 103.491C258.564 103.295 258.499 103.053 258.499 102.767C258.499 102.521 258.547 102.318 258.641 102.159C258.736 102 258.864 101.874 259.025 101.781C259.186 101.688 259.366 101.618 259.565 101.571C259.763 101.524 259.966 101.488 260.173 101.463C260.434 101.433 260.646 101.408 260.809 101.389C260.972 101.368 261.09 101.335 261.164 101.29C261.238 101.244 261.275 101.17 261.275 101.068V101.048C261.275 100.8 261.205 100.608 261.065 100.472C260.926 100.335 260.72 100.267 260.445 100.267C260.159 100.267 259.934 100.33 259.769 100.457C259.606 100.582 259.494 100.722 259.431 100.875L258.633 100.693C258.728 100.428 258.866 100.214 259.048 100.051C259.231 99.8864 259.442 99.767 259.681 99.6932C259.92 99.6174 260.171 99.5795 260.434 99.5795C260.608 99.5795 260.793 99.6004 260.988 99.642C261.185 99.6818 261.369 99.7557 261.539 99.8636C261.711 99.9716 261.853 100.126 261.962 100.327C262.072 100.526 262.127 100.784 262.127 101.102V104H261.298V103.403H261.263C261.209 103.513 261.126 103.621 261.016 103.727C260.906 103.833 260.765 103.921 260.593 103.991C260.421 104.062 260.214 104.097 259.974 104.097ZM260.158 103.415C260.393 103.415 260.594 103.368 260.761 103.276C260.929 103.183 261.057 103.062 261.144 102.912C261.233 102.76 261.278 102.598 261.278 102.426V101.864C261.247 101.894 261.189 101.922 261.102 101.949C261.016 101.973 260.919 101.995 260.809 102.014C260.699 102.031 260.592 102.047 260.488 102.062C260.384 102.076 260.297 102.087 260.227 102.097C260.062 102.117 259.911 102.152 259.775 102.202C259.64 102.251 259.532 102.322 259.451 102.415C259.371 102.506 259.332 102.627 259.332 102.778C259.332 102.989 259.409 103.148 259.565 103.256C259.72 103.362 259.918 103.415 260.158 103.415ZM265.295 99.6364V100.318H262.912V99.6364H265.295ZM263.551 98.5909H264.401V102.719C264.401 102.884 264.425 103.008 264.474 103.091C264.524 103.172 264.587 103.228 264.665 103.259C264.744 103.287 264.83 103.301 264.923 103.301C264.991 103.301 265.051 103.296 265.102 103.287C265.153 103.277 265.193 103.27 265.222 103.264L265.375 103.966C265.326 103.985 265.256 104.004 265.165 104.023C265.074 104.044 264.96 104.055 264.824 104.057C264.6 104.061 264.392 104.021 264.199 103.938C264.006 103.854 263.849 103.725 263.73 103.551C263.611 103.377 263.551 103.158 263.551 102.895V98.5909ZM268.069 104.088C267.639 104.088 267.269 103.996 266.958 103.812C266.649 103.627 266.411 103.366 266.242 103.031C266.076 102.694 265.992 102.299 265.992 101.847C265.992 101.4 266.076 101.006 266.242 100.665C266.411 100.324 266.646 100.058 266.947 99.8665C267.25 99.6752 267.604 99.5795 268.009 99.5795C268.255 99.5795 268.494 99.6203 268.725 99.7017C268.956 99.7831 269.164 99.911 269.347 100.085C269.531 100.259 269.676 100.486 269.782 100.764C269.888 101.041 269.941 101.377 269.941 101.773V102.074H266.472V101.438H269.109C269.109 101.214 269.063 101.016 268.972 100.844C268.881 100.67 268.754 100.532 268.589 100.432C268.426 100.331 268.235 100.281 268.015 100.281C267.776 100.281 267.568 100.34 267.39 100.457C267.214 100.573 267.077 100.724 266.981 100.912C266.886 101.098 266.839 101.299 266.839 101.517V102.014C266.839 102.306 266.89 102.554 266.992 102.759C267.096 102.963 267.241 103.119 267.427 103.227C267.612 103.333 267.829 103.386 268.077 103.386C268.238 103.386 268.385 103.364 268.518 103.318C268.65 103.271 268.765 103.201 268.862 103.108C268.958 103.015 269.032 102.901 269.083 102.764L269.887 102.909C269.823 103.146 269.707 103.353 269.54 103.531C269.376 103.707 269.168 103.845 268.918 103.943C268.67 104.04 268.387 104.088 268.069 104.088ZM275.038 99.6364V100.318H272.654V99.6364H275.038ZM273.293 98.5909H274.143V102.719C274.143 102.884 274.167 103.008 274.217 103.091C274.266 103.172 274.329 103.228 274.407 103.259C274.487 103.287 274.573 103.301 274.665 103.301C274.734 103.301 274.793 103.296 274.844 103.287C274.896 103.277 274.935 103.27 274.964 103.264L275.117 103.966C275.068 103.985 274.998 104.004 274.907 104.023C274.816 104.044 274.702 104.055 274.566 104.057C274.343 104.061 274.134 104.021 273.941 103.938C273.748 103.854 273.592 103.725 273.472 103.551C273.353 103.377 273.293 103.158 273.293 102.895V98.5909ZM277.811 104.088C277.381 104.088 277.011 103.996 276.7 103.812C276.392 103.627 276.153 103.366 275.984 103.031C275.818 102.694 275.734 102.299 275.734 101.847C275.734 101.4 275.818 101.006 275.984 100.665C276.153 100.324 276.388 100.058 276.689 99.8665C276.992 99.6752 277.346 99.5795 277.751 99.5795C277.998 99.5795 278.236 99.6203 278.467 99.7017C278.698 99.7831 278.906 99.911 279.089 100.085C279.273 100.259 279.418 100.486 279.524 100.764C279.63 101.041 279.683 101.377 279.683 101.773V102.074H276.214V101.438H278.851C278.851 101.214 278.805 101.016 278.714 100.844C278.624 100.67 278.496 100.532 278.331 100.432C278.168 100.331 277.977 100.281 277.757 100.281C277.518 100.281 277.31 100.34 277.132 100.457C276.956 100.573 276.82 100.724 276.723 100.912C276.628 101.098 276.581 101.299 276.581 101.517V102.014C276.581 102.306 276.632 102.554 276.734 102.759C276.839 102.963 276.983 103.119 277.169 103.227C277.355 103.333 277.571 103.386 277.82 103.386C277.981 103.386 278.127 103.364 278.26 103.318C278.393 103.271 278.507 103.201 278.604 103.108C278.7 103.015 278.774 102.901 278.825 102.764L279.629 102.909C279.565 103.146 279.449 103.353 279.283 103.531C279.118 103.707 278.911 103.845 278.661 103.943C278.412 104.04 278.129 104.088 277.811 104.088ZM281.195 99.6364L282.158 101.335L283.129 99.6364H284.058L282.697 101.818L284.07 104H283.141L282.158 102.369L281.178 104H280.246L281.604 101.818L280.263 99.6364H281.195ZM286.967 99.6364V100.318H284.584V99.6364H286.967ZM285.223 98.5909H286.072V102.719C286.072 102.884 286.097 103.008 286.146 103.091C286.196 103.172 286.259 103.228 286.337 103.259C286.416 103.287 286.502 103.301 286.595 103.301C286.663 103.301 286.723 103.296 286.774 103.287C286.825 103.277 286.865 103.27 286.893 103.264L287.047 103.966C286.998 103.985 286.928 104.004 286.837 104.023C286.746 104.044 286.632 104.055 286.496 104.057C286.272 104.061 286.064 104.021 285.871 103.938C285.678 103.854 285.521 103.725 285.402 103.551C285.283 103.377 285.223 103.158 285.223 102.895V98.5909ZM291.294 104.097C291.018 104.097 290.768 104.045 290.544 103.943C290.321 103.839 290.143 103.688 290.013 103.491C289.884 103.295 289.82 103.053 289.82 102.767C289.82 102.521 289.867 102.318 289.962 102.159C290.056 102 290.184 101.874 290.345 101.781C290.506 101.688 290.686 101.618 290.885 101.571C291.084 101.524 291.286 101.488 291.493 101.463C291.754 101.433 291.966 101.408 292.129 101.389C292.292 101.368 292.411 101.335 292.484 101.29C292.558 101.244 292.595 101.17 292.595 101.068V101.048C292.595 100.8 292.525 100.608 292.385 100.472C292.247 100.335 292.04 100.267 291.766 100.267C291.48 100.267 291.254 100.33 291.089 100.457C290.927 100.582 290.814 100.722 290.751 100.875L289.953 100.693C290.048 100.428 290.186 100.214 290.368 100.051C290.552 99.8864 290.763 99.767 291.001 99.6932C291.24 99.6174 291.491 99.5795 291.754 99.5795C291.929 99.5795 292.113 99.6004 292.308 99.642C292.505 99.6818 292.689 99.7557 292.859 99.8636C293.032 99.9716 293.173 100.126 293.283 100.327C293.393 100.526 293.447 100.784 293.447 101.102V104H292.618V103.403H292.584C292.529 103.513 292.446 103.621 292.337 103.727C292.227 103.833 292.086 103.921 291.913 103.991C291.741 104.062 291.535 104.097 291.294 104.097ZM291.479 103.415C291.714 103.415 291.914 103.368 292.081 103.276C292.25 103.183 292.377 103.062 292.464 102.912C292.554 102.76 292.598 102.598 292.598 102.426V101.864C292.568 101.894 292.509 101.922 292.422 101.949C292.337 101.973 292.239 101.995 292.129 102.014C292.019 102.031 291.912 102.047 291.808 102.062C291.704 102.076 291.617 102.087 291.547 102.097C291.382 102.117 291.232 102.152 291.095 102.202C290.961 102.251 290.853 102.322 290.771 102.415C290.692 102.506 290.652 102.627 290.652 102.778C290.652 102.989 290.73 103.148 290.885 103.256C291.04 103.362 291.238 103.415 291.479 103.415ZM295.428 101.409V104H294.579V99.6364H295.394V100.347H295.448C295.549 100.116 295.706 99.9299 295.92 99.7898C296.136 99.6496 296.407 99.5795 296.735 99.5795C297.032 99.5795 297.293 99.642 297.516 99.767C297.74 99.8902 297.913 100.074 298.036 100.318C298.159 100.562 298.221 100.865 298.221 101.224V104H297.371V101.327C297.371 101.01 297.289 100.763 297.124 100.585C296.96 100.405 296.733 100.315 296.445 100.315C296.248 100.315 296.073 100.358 295.92 100.443C295.768 100.528 295.648 100.653 295.559 100.818C295.472 100.981 295.428 101.178 295.428 101.409ZM300.994 104.085C300.641 104.085 300.327 103.995 300.05 103.815C299.776 103.634 299.56 103.375 299.403 103.04C299.247 102.703 299.17 102.298 299.17 101.827C299.17 101.355 299.248 100.952 299.406 100.616C299.565 100.281 299.782 100.025 300.059 99.8466C300.335 99.6686 300.649 99.5795 300.999 99.5795C301.27 99.5795 301.488 99.625 301.653 99.7159C301.819 99.8049 301.948 99.9091 302.039 100.028C302.132 100.148 302.204 100.253 302.255 100.344H302.306V98.1818H303.156V104H302.326V103.321H302.255C302.204 103.414 302.13 103.52 302.033 103.639C301.939 103.759 301.808 103.863 301.641 103.952C301.475 104.041 301.259 104.085 300.994 104.085ZM301.181 103.361C301.425 103.361 301.632 103.296 301.8 103.168C301.971 103.037 302.1 102.856 302.187 102.625C302.276 102.394 302.32 102.125 302.32 101.818C302.32 101.515 302.277 101.25 302.19 101.023C302.103 100.795 301.975 100.618 301.806 100.491C301.638 100.365 301.429 100.301 301.181 100.301C300.925 100.301 300.712 100.367 300.542 100.5C300.371 100.633 300.243 100.813 300.156 101.043C300.07 101.272 300.028 101.53 300.028 101.818C300.028 102.11 300.071 102.372 300.158 102.605C300.246 102.838 300.374 103.023 300.545 103.159C300.717 103.294 300.929 103.361 301.181 103.361ZM189.639 114V108.182H190.489V110.344H190.54C190.589 110.253 190.66 110.148 190.753 110.028C190.846 109.909 190.974 109.805 191.139 109.716C191.304 109.625 191.522 109.58 191.793 109.58C192.145 109.58 192.459 109.669 192.736 109.847C193.012 110.025 193.229 110.281 193.386 110.616C193.545 110.952 193.625 111.355 193.625 111.827C193.625 112.298 193.546 112.703 193.389 113.04C193.232 113.375 193.016 113.634 192.741 113.815C192.467 113.995 192.153 114.085 191.801 114.085C191.536 114.085 191.319 114.041 191.151 113.952C190.984 113.863 190.853 113.759 190.759 113.639C190.664 113.52 190.591 113.414 190.54 113.321H190.469V114H189.639ZM190.472 111.818C190.472 112.125 190.516 112.394 190.605 112.625C190.694 112.856 190.823 113.037 190.991 113.168C191.16 113.296 191.366 113.361 191.611 113.361C191.865 113.361 192.077 113.294 192.247 113.159C192.418 113.023 192.546 112.838 192.634 112.605C192.723 112.372 192.767 112.11 192.767 111.818C192.767 111.53 192.723 111.272 192.636 111.043C192.551 110.813 192.422 110.633 192.25 110.5C192.08 110.367 191.866 110.301 191.611 110.301C191.365 110.301 191.156 110.365 190.986 110.491C190.817 110.618 190.689 110.795 190.602 111.023C190.515 111.25 190.472 111.515 190.472 111.818ZM195.849 114.097C195.572 114.097 195.322 114.045 195.099 113.943C194.875 113.839 194.698 113.688 194.567 113.491C194.439 113.295 194.374 113.053 194.374 112.767C194.374 112.521 194.422 112.318 194.516 112.159C194.611 112 194.739 111.874 194.9 111.781C195.061 111.688 195.241 111.618 195.44 111.571C195.638 111.524 195.841 111.488 196.048 111.463C196.309 111.433 196.521 111.408 196.684 111.389C196.847 111.368 196.965 111.335 197.039 111.29C197.113 111.244 197.15 111.17 197.15 111.068V111.048C197.15 110.8 197.08 110.608 196.94 110.472C196.801 110.335 196.595 110.267 196.32 110.267C196.034 110.267 195.809 110.33 195.644 110.457C195.481 110.582 195.369 110.722 195.306 110.875L194.508 110.693C194.603 110.428 194.741 110.214 194.923 110.051C195.106 109.886 195.317 109.767 195.556 109.693C195.795 109.617 196.046 109.58 196.309 109.58C196.483 109.58 196.668 109.6 196.863 109.642C197.06 109.682 197.244 109.756 197.414 109.864C197.586 109.972 197.728 110.126 197.837 110.327C197.947 110.526 198.002 110.784 198.002 111.102V114H197.173V113.403H197.138C197.084 113.513 197.001 113.621 196.891 113.727C196.781 113.833 196.64 113.921 196.468 113.991C196.296 114.062 196.089 114.097 195.849 114.097ZM196.033 113.415C196.268 113.415 196.469 113.368 196.636 113.276C196.804 113.183 196.932 113.062 197.019 112.912C197.108 112.76 197.153 112.598 197.153 112.426V111.864C197.122 111.894 197.064 111.922 196.977 111.949C196.891 111.973 196.794 111.995 196.684 112.014C196.574 112.031 196.467 112.047 196.363 112.062C196.259 112.076 196.172 112.087 196.102 112.097C195.937 112.117 195.786 112.152 195.65 112.202C195.515 112.251 195.407 112.322 195.326 112.415C195.246 112.506 195.207 112.627 195.207 112.778C195.207 112.989 195.284 113.148 195.44 113.256C195.595 113.362 195.793 113.415 196.033 113.415ZM200.972 114.088C200.549 114.088 200.186 113.992 199.881 113.801C199.578 113.608 199.345 113.342 199.182 113.003C199.019 112.664 198.938 112.276 198.938 111.838C198.938 111.395 199.021 111.004 199.188 110.665C199.354 110.324 199.589 110.058 199.892 109.866C200.195 109.675 200.552 109.58 200.963 109.58C201.295 109.58 201.59 109.641 201.849 109.764C202.109 109.885 202.318 110.056 202.477 110.276C202.638 110.495 202.734 110.752 202.764 111.045H201.938C201.892 110.841 201.788 110.665 201.625 110.517C201.464 110.369 201.248 110.295 200.977 110.295C200.741 110.295 200.533 110.358 200.355 110.483C200.179 110.606 200.042 110.782 199.943 111.011C199.845 111.239 199.795 111.508 199.795 111.818C199.795 112.136 199.844 112.411 199.94 112.642C200.037 112.873 200.173 113.052 200.349 113.179C200.527 113.306 200.737 113.369 200.977 113.369C201.138 113.369 201.284 113.34 201.415 113.281C201.547 113.221 201.658 113.134 201.747 113.023C201.838 112.911 201.902 112.777 201.938 112.619H202.764C202.734 112.902 202.642 113.153 202.489 113.375C202.335 113.597 202.13 113.771 201.872 113.898C201.616 114.025 201.316 114.088 200.972 114.088ZM204.454 112.52L204.448 111.483H204.596L206.335 109.636H207.352L205.369 111.739H205.235L204.454 112.52ZM203.673 114V108.182H204.522V114H203.673ZM206.428 114L204.866 111.926L205.451 111.332L207.471 114H206.428ZM209.776 115.727C209.429 115.727 209.131 115.682 208.881 115.591C208.633 115.5 208.43 115.38 208.273 115.23C208.116 115.08 207.998 114.917 207.92 114.739L208.651 114.438C208.702 114.521 208.77 114.609 208.855 114.702C208.942 114.796 209.06 114.877 209.207 114.943C209.357 115.009 209.549 115.043 209.784 115.043C210.106 115.043 210.372 114.964 210.582 114.807C210.793 114.652 210.898 114.403 210.898 114.062V113.205H210.844C210.793 113.297 210.719 113.401 210.622 113.514C210.527 113.628 210.397 113.726 210.23 113.81C210.063 113.893 209.847 113.935 209.58 113.935C209.235 113.935 208.924 113.854 208.648 113.693C208.373 113.53 208.155 113.291 207.994 112.974C207.835 112.656 207.756 112.265 207.756 111.801C207.756 111.337 207.834 110.939 207.991 110.608C208.151 110.277 208.368 110.023 208.645 109.847C208.921 109.669 209.235 109.58 209.585 109.58C209.856 109.58 210.075 109.625 210.241 109.716C210.408 109.805 210.538 109.909 210.631 110.028C210.725 110.148 210.798 110.253 210.849 110.344H210.912V109.636H211.744V114.097C211.744 114.472 211.657 114.779 211.483 115.02C211.309 115.26 211.073 115.438 210.776 115.554C210.48 115.67 210.147 115.727 209.776 115.727ZM209.767 113.23C210.011 113.23 210.218 113.173 210.386 113.06C210.557 112.944 210.686 112.779 210.773 112.565C210.862 112.349 210.906 112.091 210.906 111.79C210.906 111.496 210.863 111.238 210.776 111.014C210.688 110.791 210.561 110.616 210.392 110.491C210.223 110.365 210.015 110.301 209.767 110.301C209.511 110.301 209.298 110.367 209.128 110.5C208.957 110.631 208.829 110.809 208.741 111.034C208.656 111.259 208.614 111.511 208.614 111.79C208.614 112.076 208.657 112.327 208.744 112.543C208.831 112.759 208.96 112.927 209.131 113.048C209.303 113.17 209.515 113.23 209.767 113.23ZM212.884 114V109.636H213.705V110.33H213.75C213.83 110.095 213.97 109.91 214.17 109.776C214.373 109.639 214.602 109.571 214.858 109.571C214.911 109.571 214.973 109.573 215.045 109.577C215.119 109.58 215.177 109.585 215.219 109.591V110.403C215.185 110.394 215.124 110.384 215.037 110.372C214.95 110.359 214.863 110.352 214.776 110.352C214.575 110.352 214.396 110.395 214.239 110.48C214.083 110.563 213.96 110.68 213.869 110.83C213.778 110.977 213.733 111.146 213.733 111.335V114H212.884ZM217.636 114.088C217.227 114.088 216.87 113.994 216.565 113.807C216.26 113.619 216.023 113.357 215.854 113.02C215.686 112.683 215.602 112.289 215.602 111.838C215.602 111.385 215.686 110.99 215.854 110.651C216.023 110.312 216.26 110.048 216.565 109.861C216.87 109.673 217.227 109.58 217.636 109.58C218.045 109.58 218.402 109.673 218.707 109.861C219.012 110.048 219.248 110.312 219.417 110.651C219.585 110.99 219.67 111.385 219.67 111.838C219.67 112.289 219.585 112.683 219.417 113.02C219.248 113.357 219.012 113.619 218.707 113.807C218.402 113.994 218.045 114.088 217.636 114.088ZM217.638 113.375C217.904 113.375 218.123 113.305 218.298 113.165C218.472 113.025 218.601 112.838 218.684 112.605C218.769 112.372 218.812 112.116 218.812 111.835C218.812 111.557 218.769 111.301 218.684 111.068C218.601 110.833 218.472 110.645 218.298 110.503C218.123 110.361 217.904 110.29 217.638 110.29C217.371 110.29 217.15 110.361 216.974 110.503C216.799 110.645 216.67 110.833 216.585 111.068C216.501 111.301 216.46 111.557 216.46 111.835C216.46 112.116 216.501 112.372 216.585 112.605C216.67 112.838 216.799 113.025 216.974 113.165C217.15 113.305 217.371 113.375 217.638 113.375ZM223.382 112.19V109.636H224.234V114H223.399V113.244H223.354C223.253 113.477 223.092 113.671 222.871 113.827C222.651 113.98 222.377 114.057 222.05 114.057C221.769 114.057 221.521 113.995 221.305 113.872C221.091 113.747 220.923 113.562 220.8 113.318C220.679 113.074 220.618 112.772 220.618 112.412V109.636H221.467V112.31C221.467 112.607 221.55 112.844 221.714 113.02C221.879 113.196 222.093 113.284 222.357 113.284C222.516 113.284 222.674 113.244 222.831 113.165C222.99 113.085 223.122 112.965 223.226 112.804C223.332 112.643 223.384 112.438 223.382 112.19ZM226.225 111.409V114H225.376V109.636H226.191V110.347H226.245C226.345 110.116 226.503 109.93 226.717 109.79C226.933 109.65 227.204 109.58 227.532 109.58C227.829 109.58 228.09 109.642 228.313 109.767C228.537 109.89 228.71 110.074 228.833 110.318C228.956 110.562 229.018 110.865 229.018 111.224V114H228.168V111.327C228.168 111.01 228.086 110.763 227.921 110.585C227.756 110.405 227.53 110.315 227.242 110.315C227.045 110.315 226.87 110.358 226.717 110.443C226.565 110.528 226.445 110.653 226.356 110.818C226.269 110.981 226.225 111.178 226.225 111.409ZM231.79 114.085C231.438 114.085 231.124 113.995 230.847 113.815C230.573 113.634 230.357 113.375 230.2 113.04C230.044 112.703 229.967 112.298 229.967 111.827C229.967 111.355 230.045 110.952 230.202 110.616C230.362 110.281 230.579 110.025 230.856 109.847C231.132 109.669 231.446 109.58 231.796 109.58C232.067 109.58 232.285 109.625 232.45 109.716C232.616 109.805 232.745 109.909 232.836 110.028C232.929 110.148 233.001 110.253 233.052 110.344H233.103V108.182H233.952V114H233.123V113.321H233.052C233.001 113.414 232.927 113.52 232.83 113.639C232.736 113.759 232.605 113.863 232.438 113.952C232.272 114.041 232.056 114.085 231.79 114.085ZM231.978 113.361C232.222 113.361 232.429 113.296 232.597 113.168C232.768 113.037 232.897 112.856 232.984 112.625C233.073 112.394 233.117 112.125 233.117 111.818C233.117 111.515 233.074 111.25 232.987 111.023C232.899 110.795 232.772 110.618 232.603 110.491C232.434 110.365 232.226 110.301 231.978 110.301C231.722 110.301 231.509 110.367 231.339 110.5C231.168 110.633 231.04 110.813 230.952 111.043C230.867 111.272 230.825 111.53 230.825 111.818C230.825 112.11 230.868 112.372 230.955 112.605C231.042 112.838 231.171 113.023 231.342 113.159C231.514 113.294 231.726 113.361 231.978 113.361ZM239.12 114.088C238.698 114.088 238.334 113.992 238.029 113.801C237.726 113.608 237.493 113.342 237.33 113.003C237.167 112.664 237.086 112.276 237.086 111.838C237.086 111.395 237.169 111.004 237.336 110.665C237.503 110.324 237.737 110.058 238.04 109.866C238.344 109.675 238.701 109.58 239.112 109.58C239.443 109.58 239.738 109.641 239.998 109.764C240.257 109.885 240.467 110.056 240.626 110.276C240.787 110.495 240.882 110.752 240.913 111.045H240.086C240.04 110.841 239.936 110.665 239.773 110.517C239.612 110.369 239.397 110.295 239.126 110.295C238.889 110.295 238.682 110.358 238.504 110.483C238.327 110.606 238.19 110.782 238.092 111.011C237.993 111.239 237.944 111.508 237.944 111.818C237.944 112.136 237.992 112.411 238.089 112.642C238.185 112.873 238.322 113.052 238.498 113.179C238.676 113.306 238.885 113.369 239.126 113.369C239.287 113.369 239.433 113.34 239.563 113.281C239.696 113.221 239.807 113.134 239.896 113.023C239.987 112.911 240.05 112.777 240.086 112.619H240.913C240.882 112.902 240.79 113.153 240.637 113.375C240.484 113.597 240.278 113.771 240.021 113.898C239.765 114.025 239.465 114.088 239.12 114.088ZM243.659 114.088C243.25 114.088 242.893 113.994 242.588 113.807C242.283 113.619 242.046 113.357 241.878 113.02C241.709 112.683 241.625 112.289 241.625 111.838C241.625 111.385 241.709 110.99 241.878 110.651C242.046 110.312 242.283 110.048 242.588 109.861C242.893 109.673 243.25 109.58 243.659 109.58C244.068 109.58 244.425 109.673 244.73 109.861C245.035 110.048 245.272 110.312 245.44 110.651C245.609 110.99 245.693 111.385 245.693 111.838C245.693 112.289 245.609 112.683 245.44 113.02C245.272 113.357 245.035 113.619 244.73 113.807C244.425 113.994 244.068 114.088 243.659 114.088ZM243.662 113.375C243.927 113.375 244.147 113.305 244.321 113.165C244.495 113.025 244.624 112.838 244.707 112.605C244.793 112.372 244.835 112.116 244.835 111.835C244.835 111.557 244.793 111.301 244.707 111.068C244.624 110.833 244.495 110.645 244.321 110.503C244.147 110.361 243.927 110.29 243.662 110.29C243.395 110.29 243.173 110.361 242.997 110.503C242.823 110.645 242.693 110.833 242.608 111.068C242.525 111.301 242.483 111.557 242.483 111.835C242.483 112.116 242.525 112.372 242.608 112.605C242.693 112.838 242.823 113.025 242.997 113.165C243.173 113.305 243.395 113.375 243.662 113.375ZM247.491 108.182V114H246.641V108.182H247.491ZM250.472 114.088C250.063 114.088 249.705 113.994 249.401 113.807C249.096 113.619 248.859 113.357 248.69 113.02C248.522 112.683 248.438 112.289 248.438 111.838C248.438 111.385 248.522 110.99 248.69 110.651C248.859 110.312 249.096 110.048 249.401 109.861C249.705 109.673 250.063 109.58 250.472 109.58C250.881 109.58 251.238 109.673 251.543 109.861C251.848 110.048 252.084 110.312 252.253 110.651C252.421 110.99 252.506 111.385 252.506 111.838C252.506 112.289 252.421 112.683 252.253 113.02C252.084 113.357 251.848 113.619 251.543 113.807C251.238 113.994 250.881 114.088 250.472 114.088ZM250.474 113.375C250.74 113.375 250.959 113.305 251.134 113.165C251.308 113.025 251.437 112.838 251.52 112.605C251.605 112.372 251.648 112.116 251.648 111.835C251.648 111.557 251.605 111.301 251.52 111.068C251.437 110.833 251.308 110.645 251.134 110.503C250.959 110.361 250.74 110.29 250.474 110.29C250.207 110.29 249.986 110.361 249.81 110.503C249.635 110.645 249.506 110.833 249.42 111.068C249.337 111.301 249.295 111.557 249.295 111.835C249.295 112.116 249.337 112.372 249.42 112.605C249.506 112.838 249.635 113.025 249.81 113.165C249.986 113.305 250.207 113.375 250.474 113.375ZM253.454 114V109.636H254.275V110.33H254.32C254.4 110.095 254.54 109.91 254.741 109.776C254.943 109.639 255.173 109.571 255.428 109.571C255.481 109.571 255.544 109.573 255.616 109.577C255.69 109.58 255.747 109.585 255.789 109.591V110.403C255.755 110.394 255.694 110.384 255.607 110.372C255.52 110.359 255.433 110.352 255.346 110.352C255.145 110.352 254.966 110.395 254.809 110.48C254.654 110.563 254.531 110.68 254.44 110.83C254.349 110.977 254.303 111.146 254.303 111.335V114H253.454ZM259.794 110.702L259.024 110.838C258.992 110.74 258.941 110.646 258.871 110.557C258.803 110.468 258.71 110.395 258.592 110.338C258.475 110.281 258.328 110.253 258.152 110.253C257.911 110.253 257.711 110.307 257.55 110.415C257.389 110.521 257.308 110.658 257.308 110.827C257.308 110.973 257.362 111.09 257.47 111.179C257.578 111.268 257.752 111.341 257.993 111.398L258.686 111.557C259.088 111.65 259.387 111.793 259.584 111.986C259.781 112.179 259.879 112.43 259.879 112.739C259.879 113 259.804 113.233 259.652 113.438C259.502 113.64 259.293 113.799 259.024 113.915C258.757 114.03 258.447 114.088 258.095 114.088C257.607 114.088 257.208 113.984 256.899 113.776C256.59 113.565 256.401 113.267 256.331 112.881L257.152 112.756C257.203 112.97 257.308 113.132 257.467 113.241C257.626 113.349 257.834 113.403 258.089 113.403C258.368 113.403 258.59 113.346 258.757 113.23C258.924 113.113 259.007 112.97 259.007 112.801C259.007 112.665 258.956 112.55 258.854 112.457C258.753 112.365 258.599 112.295 258.391 112.247L257.652 112.085C257.245 111.992 256.944 111.845 256.749 111.642C256.555 111.439 256.459 111.183 256.459 110.872C256.459 110.615 256.531 110.389 256.675 110.196C256.819 110.003 257.018 109.852 257.271 109.744C257.525 109.634 257.816 109.58 258.143 109.58C258.615 109.58 258.986 109.682 259.257 109.886C259.528 110.089 259.707 110.361 259.794 110.702ZM264.967 109.636V110.318H262.584V109.636H264.967ZM263.223 108.591H264.072V112.719C264.072 112.884 264.097 113.008 264.146 113.091C264.196 113.172 264.259 113.228 264.337 113.259C264.416 113.287 264.502 113.301 264.595 113.301C264.663 113.301 264.723 113.296 264.774 113.287C264.825 113.277 264.865 113.27 264.893 113.264L265.047 113.966C264.998 113.985 264.928 114.004 264.837 114.023C264.746 114.044 264.632 114.055 264.496 114.057C264.272 114.061 264.064 114.021 263.871 113.938C263.678 113.854 263.521 113.725 263.402 113.551C263.283 113.377 263.223 113.158 263.223 112.895V108.591ZM267.698 114.088C267.289 114.088 266.932 113.994 266.627 113.807C266.322 113.619 266.085 113.357 265.917 113.02C265.748 112.683 265.664 112.289 265.664 111.838C265.664 111.385 265.748 110.99 265.917 110.651C266.085 110.312 266.322 110.048 266.627 109.861C266.932 109.673 267.289 109.58 267.698 109.58C268.107 109.58 268.464 109.673 268.769 109.861C269.074 110.048 269.311 110.312 269.479 110.651C269.648 110.99 269.732 111.385 269.732 111.838C269.732 112.289 269.648 112.683 269.479 113.02C269.311 113.357 269.074 113.619 268.769 113.807C268.464 113.994 268.107 114.088 267.698 114.088ZM267.701 113.375C267.966 113.375 268.186 113.305 268.36 113.165C268.534 113.025 268.663 112.838 268.746 112.605C268.832 112.372 268.874 112.116 268.874 111.835C268.874 111.557 268.832 111.301 268.746 111.068C268.663 110.833 268.534 110.645 268.36 110.503C268.186 110.361 267.966 110.29 267.701 110.29C267.434 110.29 267.212 110.361 267.036 110.503C266.862 110.645 266.732 110.833 266.647 111.068C266.564 111.301 266.522 111.557 266.522 111.835C266.522 112.116 266.564 112.372 266.647 112.605C266.732 112.838 266.862 113.025 267.036 113.165C267.212 113.305 267.434 113.375 267.701 113.375ZM272.866 114V108.182H273.715V110.344H273.766C273.816 110.253 273.887 110.148 273.979 110.028C274.072 109.909 274.201 109.805 274.366 109.716C274.531 109.625 274.748 109.58 275.019 109.58C275.371 109.58 275.686 109.669 275.962 109.847C276.239 110.025 276.456 110.281 276.613 110.616C276.772 110.952 276.852 111.355 276.852 111.827C276.852 112.298 276.773 112.703 276.616 113.04C276.459 113.375 276.243 113.634 275.968 113.815C275.693 113.995 275.38 114.085 275.028 114.085C274.763 114.085 274.546 114.041 274.377 113.952C274.21 113.863 274.08 113.759 273.985 113.639C273.89 113.52 273.817 113.414 273.766 113.321H273.695V114H272.866ZM273.698 111.818C273.698 112.125 273.743 112.394 273.832 112.625C273.921 112.856 274.049 113.037 274.218 113.168C274.387 113.296 274.593 113.361 274.837 113.361C275.091 113.361 275.303 113.294 275.474 113.159C275.644 113.023 275.773 112.838 275.86 112.605C275.949 112.372 275.994 112.11 275.994 111.818C275.994 111.53 275.95 111.272 275.863 111.043C275.778 110.813 275.649 110.633 275.477 110.5C275.306 110.367 275.093 110.301 274.837 110.301C274.591 110.301 274.383 110.365 274.212 110.491C274.044 110.618 273.916 110.795 273.829 111.023C273.742 111.25 273.698 111.515 273.698 111.818ZM279.686 114.088C279.256 114.088 278.886 113.996 278.575 113.812C278.267 113.627 278.028 113.366 277.859 113.031C277.693 112.694 277.609 112.299 277.609 111.847C277.609 111.4 277.693 111.006 277.859 110.665C278.028 110.324 278.263 110.058 278.564 109.866C278.867 109.675 279.221 109.58 279.626 109.58C279.873 109.58 280.111 109.62 280.342 109.702C280.573 109.783 280.781 109.911 280.964 110.085C281.148 110.259 281.293 110.486 281.399 110.764C281.505 111.041 281.558 111.377 281.558 111.773V112.074H278.089V111.438H280.726C280.726 111.214 280.68 111.016 280.589 110.844C280.499 110.67 280.371 110.532 280.206 110.432C280.043 110.331 279.852 110.281 279.632 110.281C279.393 110.281 279.185 110.34 279.007 110.457C278.831 110.573 278.695 110.724 278.598 110.912C278.503 111.098 278.456 111.299 278.456 111.517V112.014C278.456 112.306 278.507 112.554 278.609 112.759C278.714 112.963 278.858 113.119 279.044 113.227C279.23 113.333 279.446 113.386 279.695 113.386C279.856 113.386 280.002 113.364 280.135 113.318C280.268 113.271 280.382 113.201 280.479 113.108C280.575 113.015 280.649 112.901 280.7 112.764L281.504 112.909C281.44 113.146 281.324 113.353 281.158 113.531C280.993 113.707 280.786 113.845 280.536 113.943C280.287 114.04 280.004 114.088 279.686 114.088ZM284.618 114V109.636H285.433V110.347H285.487C285.578 110.106 285.727 109.919 285.933 109.784C286.14 109.648 286.387 109.58 286.675 109.58C286.966 109.58 287.211 109.648 287.408 109.784C287.607 109.92 287.753 110.108 287.848 110.347H287.893C287.998 110.114 288.163 109.928 288.391 109.79C288.618 109.65 288.889 109.58 289.203 109.58C289.599 109.58 289.922 109.704 290.172 109.952C290.424 110.2 290.55 110.574 290.55 111.074V114H289.7V111.153C289.7 110.858 289.62 110.644 289.459 110.511C289.298 110.379 289.106 110.312 288.882 110.312C288.606 110.312 288.391 110.398 288.237 110.568C288.084 110.737 288.007 110.954 288.007 111.219V114H287.161V111.099C287.161 110.863 287.087 110.672 286.939 110.528C286.791 110.384 286.599 110.312 286.362 110.312C286.201 110.312 286.053 110.355 285.916 110.44C285.782 110.524 285.673 110.64 285.589 110.79C285.508 110.939 285.467 111.113 285.467 111.31V114H284.618ZM293.526 114.088C293.117 114.088 292.76 113.994 292.455 113.807C292.15 113.619 291.914 113.357 291.745 113.02C291.576 112.683 291.492 112.289 291.492 111.838C291.492 111.385 291.576 110.99 291.745 110.651C291.914 110.312 292.15 110.048 292.455 109.861C292.76 109.673 293.117 109.58 293.526 109.58C293.935 109.58 294.292 109.673 294.597 109.861C294.902 110.048 295.139 110.312 295.308 110.651C295.476 110.99 295.56 111.385 295.56 111.838C295.56 112.289 295.476 112.683 295.308 113.02C295.139 113.357 294.902 113.619 294.597 113.807C294.292 113.994 293.935 114.088 293.526 114.088ZM293.529 113.375C293.794 113.375 294.014 113.305 294.188 113.165C294.362 113.025 294.491 112.838 294.575 112.605C294.66 112.372 294.702 112.116 294.702 111.835C294.702 111.557 294.66 111.301 294.575 111.068C294.491 110.833 294.362 110.645 294.188 110.503C294.014 110.361 293.794 110.29 293.529 110.29C293.262 110.29 293.04 110.361 292.864 110.503C292.69 110.645 292.56 110.833 292.475 111.068C292.392 111.301 292.35 111.557 292.35 111.835C292.35 112.116 292.392 112.372 292.475 112.605C292.56 112.838 292.69 113.025 292.864 113.165C293.04 113.305 293.262 113.375 293.529 113.375ZM296.509 114V109.636H297.33V110.33H297.375C297.455 110.095 297.595 109.91 297.795 109.776C297.998 109.639 298.227 109.571 298.483 109.571C298.536 109.571 298.598 109.573 298.67 109.577C298.744 109.58 298.802 109.585 298.844 109.591V110.403C298.81 110.394 298.749 110.384 298.662 110.372C298.575 110.359 298.488 110.352 298.401 110.352C298.2 110.352 298.021 110.395 297.864 110.48C297.708 110.563 297.585 110.68 297.494 110.83C297.403 110.977 297.358 111.146 297.358 111.335V114H296.509ZM301.303 114.088C300.873 114.088 300.503 113.996 300.192 113.812C299.884 113.627 299.645 113.366 299.477 113.031C299.31 112.694 299.227 112.299 299.227 111.847C299.227 111.4 299.31 111.006 299.477 110.665C299.645 110.324 299.88 110.058 300.181 109.866C300.484 109.675 300.838 109.58 301.244 109.58C301.49 109.58 301.728 109.62 301.96 109.702C302.191 109.783 302.398 109.911 302.582 110.085C302.765 110.259 302.91 110.486 303.016 110.764C303.122 111.041 303.175 111.377 303.175 111.773V112.074H299.707V111.438H302.343C302.343 111.214 302.298 111.016 302.207 110.844C302.116 110.67 301.988 110.532 301.823 110.432C301.66 110.331 301.469 110.281 301.249 110.281C301.011 110.281 300.802 110.34 300.624 110.457C300.448 110.573 300.312 110.724 300.215 110.912C300.121 111.098 300.073 111.299 300.073 111.517V112.014C300.073 112.306 300.124 112.554 300.227 112.759C300.331 112.963 300.476 113.119 300.661 113.227C300.847 113.333 301.064 113.386 301.312 113.386C301.473 113.386 301.62 113.364 301.752 113.318C301.885 113.271 301.999 113.201 302.096 113.108C302.192 113.015 302.266 112.901 302.317 112.764L303.121 112.909C303.057 113.146 302.942 113.353 302.775 113.531C302.61 113.707 302.403 113.845 302.153 113.943C301.905 114.04 301.621 114.088 301.303 114.088ZM307.085 108.182V114H306.235V108.182H307.085ZM310.108 114.088C309.678 114.088 309.308 113.996 308.997 113.812C308.688 113.627 308.45 113.366 308.281 113.031C308.115 112.694 308.031 112.299 308.031 111.847C308.031 111.4 308.115 111.006 308.281 110.665C308.45 110.324 308.685 110.058 308.986 109.866C309.289 109.675 309.643 109.58 310.048 109.58C310.295 109.58 310.533 109.62 310.764 109.702C310.995 109.783 311.203 109.911 311.386 110.085C311.57 110.259 311.715 110.486 311.821 110.764C311.927 111.041 311.98 111.377 311.98 111.773V112.074H308.511V111.438H311.148C311.148 111.214 311.102 111.016 311.011 110.844C310.92 110.67 310.793 110.532 310.628 110.432C310.465 110.331 310.274 110.281 310.054 110.281C309.815 110.281 309.607 110.34 309.429 110.457C309.253 110.573 309.116 110.724 309.02 110.912C308.925 111.098 308.878 111.299 308.878 111.517V112.014C308.878 112.306 308.929 112.554 309.031 112.759C309.135 112.963 309.28 113.119 309.466 113.227C309.652 113.333 309.868 113.386 310.116 113.386C310.277 113.386 310.424 113.364 310.557 113.318C310.689 113.271 310.804 113.201 310.901 113.108C310.997 113.015 311.071 112.901 311.122 112.764L311.926 112.909C311.862 113.146 311.746 113.353 311.58 113.531C311.415 113.707 311.207 113.845 310.957 113.943C310.709 114.04 310.426 114.088 310.108 114.088ZM314.752 115.727C314.406 115.727 314.107 115.682 313.857 115.591C313.609 115.5 313.406 115.38 313.249 115.23C313.092 115.08 312.975 114.917 312.897 114.739L313.627 114.438C313.678 114.521 313.746 114.609 313.832 114.702C313.919 114.796 314.036 114.877 314.184 114.943C314.334 115.009 314.526 115.043 314.761 115.043C315.083 115.043 315.349 114.964 315.559 114.807C315.769 114.652 315.874 114.403 315.874 114.062V113.205H315.82C315.769 113.297 315.695 113.401 315.599 113.514C315.504 113.628 315.373 113.726 315.207 113.81C315.04 113.893 314.823 113.935 314.556 113.935C314.211 113.935 313.901 113.854 313.624 113.693C313.35 113.53 313.132 113.291 312.971 112.974C312.812 112.656 312.732 112.265 312.732 111.801C312.732 111.337 312.811 110.939 312.968 110.608C313.127 110.277 313.345 110.023 313.621 109.847C313.898 109.669 314.211 109.58 314.562 109.58C314.833 109.58 315.051 109.625 315.218 109.716C315.385 109.805 315.514 109.909 315.607 110.028C315.702 110.148 315.775 110.253 315.826 110.344H315.888V109.636H316.721V114.097C316.721 114.472 316.634 114.779 316.46 115.02C316.285 115.26 316.049 115.438 315.752 115.554C315.457 115.67 315.123 115.727 314.752 115.727ZM314.744 113.23C314.988 113.23 315.194 113.173 315.363 113.06C315.533 112.944 315.662 112.779 315.749 112.565C315.838 112.349 315.883 112.091 315.883 111.79C315.883 111.496 315.839 111.238 315.752 111.014C315.665 110.791 315.537 110.616 315.369 110.491C315.2 110.365 314.992 110.301 314.744 110.301C314.488 110.301 314.275 110.367 314.104 110.5C313.934 110.631 313.805 110.809 313.718 111.034C313.633 111.259 313.59 111.511 313.59 111.79C313.59 112.076 313.634 112.327 313.721 112.543C313.808 112.759 313.937 112.927 314.107 113.048C314.28 113.17 314.492 113.23 314.744 113.23ZM317.86 114V109.636H318.71V114H317.86ZM318.289 108.963C318.141 108.963 318.014 108.914 317.908 108.815C317.804 108.715 317.752 108.596 317.752 108.457C317.752 108.317 317.804 108.198 317.908 108.099C318.014 107.999 318.141 107.949 318.289 107.949C318.437 107.949 318.563 107.999 318.667 108.099C318.773 108.198 318.826 108.317 318.826 108.457C318.826 108.596 318.773 108.715 318.667 108.815C318.563 108.914 318.437 108.963 318.289 108.963ZM319.92 114V108.182H320.77V110.344H320.821C320.87 110.253 320.941 110.148 321.034 110.028C321.127 109.909 321.256 109.805 321.42 109.716C321.585 109.625 321.803 109.58 322.074 109.58C322.426 109.58 322.741 109.669 323.017 109.847C323.294 110.025 323.51 110.281 323.668 110.616C323.827 110.952 323.906 111.355 323.906 111.827C323.906 112.298 323.828 112.703 323.67 113.04C323.513 113.375 323.297 113.634 323.023 113.815C322.748 113.995 322.435 114.085 322.082 114.085C321.817 114.085 321.6 114.041 321.432 113.952C321.265 113.863 321.134 113.759 321.04 113.639C320.945 113.52 320.872 113.414 320.821 113.321H320.75V114H319.92ZM320.753 111.818C320.753 112.125 320.797 112.394 320.886 112.625C320.975 112.856 321.104 113.037 321.273 113.168C321.441 113.296 321.648 113.361 321.892 113.361C322.146 113.361 322.358 113.294 322.528 113.159C322.699 113.023 322.828 112.838 322.915 112.605C323.004 112.372 323.048 112.11 323.048 111.818C323.048 111.53 323.005 111.272 322.918 111.043C322.832 110.813 322.704 110.633 322.531 110.5C322.361 110.367 322.148 110.301 321.892 110.301C321.646 110.301 321.438 110.365 321.267 110.491C321.098 110.618 320.971 110.795 320.884 111.023C320.796 111.25 320.753 111.515 320.753 111.818ZM325.71 108.182V114H324.86V108.182H325.71ZM328.733 114.088C328.303 114.088 327.933 113.996 327.622 113.812C327.313 113.627 327.075 113.366 326.906 113.031C326.74 112.694 326.656 112.299 326.656 111.847C326.656 111.4 326.74 111.006 326.906 110.665C327.075 110.324 327.31 110.058 327.611 109.866C327.914 109.675 328.268 109.58 328.673 109.58C328.92 109.58 329.158 109.62 329.389 109.702C329.62 109.783 329.828 109.911 330.011 110.085C330.195 110.259 330.34 110.486 330.446 110.764C330.552 111.041 330.605 111.377 330.605 111.773V112.074H327.136V111.438H329.773C329.773 111.214 329.727 111.016 329.636 110.844C329.545 110.67 329.418 110.532 329.253 110.432C329.09 110.331 328.899 110.281 328.679 110.281C328.44 110.281 328.232 110.34 328.054 110.457C327.878 110.573 327.741 110.724 327.645 110.912C327.55 111.098 327.503 111.299 327.503 111.517V112.014C327.503 112.306 327.554 112.554 327.656 112.759C327.76 112.963 327.905 113.119 328.091 113.227C328.277 113.333 328.493 113.386 328.741 113.386C328.902 113.386 329.049 113.364 329.182 113.318C329.314 113.271 329.429 113.201 329.526 113.108C329.622 113.015 329.696 112.901 329.747 112.764L330.551 112.909C330.487 113.146 330.371 113.353 330.205 113.531C330.04 113.707 329.832 113.845 329.582 113.943C329.334 114.04 329.051 114.088 328.733 114.088ZM332.107 114.054C331.952 114.054 331.818 113.999 331.707 113.889C331.595 113.777 331.539 113.643 331.539 113.486C331.539 113.33 331.595 113.198 331.707 113.088C331.818 112.976 331.952 112.92 332.107 112.92C332.263 112.92 332.396 112.976 332.508 113.088C332.62 113.198 332.675 113.33 332.675 113.486C332.675 113.59 332.649 113.686 332.596 113.773C332.545 113.858 332.477 113.926 332.391 113.977C332.306 114.028 332.211 114.054 332.107 114.054Z" fill="#6A6A6A"/>
<rect x="306" y="126" width="51" height="18" rx="9" fill="#6A6A6A"/>
<path d="M321.869 132.182H322.75V136.009C322.75 136.416 322.654 136.777 322.463 137.091C322.271 137.403 322.002 137.65 321.656 137.83C321.309 138.008 320.903 138.097 320.437 138.097C319.973 138.097 319.568 138.008 319.221 137.83C318.875 137.65 318.606 137.403 318.414 137.091C318.223 136.777 318.127 136.416 318.127 136.009V132.182H319.005V135.938C319.005 136.201 319.063 136.435 319.179 136.639C319.296 136.844 319.462 137.005 319.676 137.122C319.89 137.238 320.144 137.295 320.437 137.295C320.733 137.295 320.987 137.238 321.201 137.122C321.417 137.005 321.582 136.844 321.696 136.639C321.811 136.435 321.869 136.201 321.869 135.938V132.182ZM323.958 139.636V133.636H324.787V134.344H324.858C324.908 134.253 324.979 134.148 325.071 134.028C325.164 133.909 325.293 133.805 325.458 133.716C325.623 133.625 325.84 133.58 326.111 133.58C326.463 133.58 326.778 133.669 327.054 133.847C327.331 134.025 327.548 134.281 327.705 134.616C327.864 134.952 327.944 135.355 327.944 135.827C327.944 136.298 327.865 136.703 327.708 137.04C327.551 137.375 327.335 137.634 327.06 137.815C326.785 137.995 326.472 138.085 326.12 138.085C325.855 138.085 325.638 138.041 325.469 137.952C325.302 137.863 325.172 137.759 325.077 137.639C324.982 137.52 324.909 137.414 324.858 137.321H324.807V139.636H323.958ZM324.79 135.818C324.79 136.125 324.835 136.394 324.924 136.625C325.013 136.856 325.141 137.037 325.31 137.168C325.479 137.296 325.685 137.361 325.929 137.361C326.183 137.361 326.395 137.294 326.566 137.159C326.736 137.023 326.865 136.838 326.952 136.605C327.041 136.372 327.086 136.11 327.086 135.818C327.086 135.53 327.042 135.272 326.955 135.043C326.87 134.813 326.741 134.633 326.569 134.5C326.398 134.367 326.185 134.301 325.929 134.301C325.683 134.301 325.475 134.365 325.304 134.491C325.136 134.618 325.008 134.795 324.921 135.023C324.834 135.25 324.79 135.515 324.79 135.818ZM330.529 138.085C330.176 138.085 329.862 137.995 329.586 137.815C329.311 137.634 329.095 137.375 328.938 137.04C328.783 136.703 328.705 136.298 328.705 135.827C328.705 135.355 328.783 134.952 328.941 134.616C329.1 134.281 329.318 134.025 329.594 133.847C329.871 133.669 330.184 133.58 330.534 133.58C330.805 133.58 331.023 133.625 331.188 133.716C331.355 133.805 331.483 133.909 331.574 134.028C331.667 134.148 331.739 134.253 331.79 134.344H331.841V132.182H332.691V138H331.861V137.321H331.79C331.739 137.414 331.665 137.52 331.569 137.639C331.474 137.759 331.343 137.863 331.176 137.952C331.01 138.041 330.794 138.085 330.529 138.085ZM330.716 137.361C330.961 137.361 331.167 137.296 331.336 137.168C331.506 137.037 331.635 136.856 331.722 136.625C331.811 136.394 331.855 136.125 331.855 135.818C331.855 135.515 331.812 135.25 331.725 135.023C331.638 134.795 331.51 134.618 331.341 134.491C331.173 134.365 330.964 134.301 330.716 134.301C330.461 134.301 330.248 134.367 330.077 134.5C329.907 134.633 329.778 134.813 329.691 135.043C329.605 135.272 329.563 135.53 329.563 135.818C329.563 136.11 329.606 136.372 329.694 136.605C329.781 136.838 329.909 137.023 330.08 137.159C330.252 137.294 330.464 137.361 330.716 137.361ZM335.173 138.097C334.896 138.097 334.646 138.045 334.423 137.943C334.199 137.839 334.022 137.688 333.892 137.491C333.763 137.295 333.699 137.053 333.699 136.767C333.699 136.521 333.746 136.318 333.841 136.159C333.935 136 334.063 135.874 334.224 135.781C334.385 135.688 334.565 135.618 334.764 135.571C334.963 135.524 335.165 135.488 335.372 135.463C335.633 135.433 335.845 135.408 336.008 135.389C336.171 135.368 336.289 135.335 336.363 135.29C336.437 135.244 336.474 135.17 336.474 135.068V135.048C336.474 134.8 336.404 134.608 336.264 134.472C336.126 134.335 335.919 134.267 335.645 134.267C335.359 134.267 335.133 134.33 334.968 134.457C334.806 134.582 334.693 134.722 334.63 134.875L333.832 134.693C333.927 134.428 334.065 134.214 334.247 134.051C334.431 133.886 334.642 133.767 334.88 133.693C335.119 133.617 335.37 133.58 335.633 133.58C335.807 133.58 335.992 133.6 336.187 133.642C336.384 133.682 336.568 133.756 336.738 133.864C336.911 133.972 337.052 134.126 337.162 134.327C337.271 134.526 337.326 134.784 337.326 135.102V138H336.497V137.403H336.463C336.408 137.513 336.325 137.621 336.216 137.727C336.106 137.833 335.965 137.921 335.792 137.991C335.62 138.062 335.413 138.097 335.173 138.097ZM335.358 137.415C335.592 137.415 335.793 137.368 335.96 137.276C336.128 137.183 336.256 137.062 336.343 136.912C336.432 136.76 336.477 136.598 336.477 136.426V135.864C336.447 135.894 336.388 135.922 336.301 135.949C336.216 135.973 336.118 135.995 336.008 136.014C335.898 136.031 335.791 136.047 335.687 136.062C335.583 136.076 335.496 136.087 335.426 136.097C335.261 136.117 335.11 136.152 334.974 136.202C334.84 136.251 334.732 136.322 334.65 136.415C334.571 136.506 334.531 136.627 334.531 136.778C334.531 136.989 334.609 137.148 334.764 137.256C334.919 137.362 335.117 137.415 335.358 137.415ZM340.495 133.636V134.318H338.111V133.636H340.495ZM338.75 132.591H339.6V136.719C339.6 136.884 339.624 137.008 339.674 137.091C339.723 137.172 339.786 137.228 339.864 137.259C339.944 137.287 340.03 137.301 340.123 137.301C340.191 137.301 340.25 137.296 340.301 137.287C340.353 137.277 340.392 137.27 340.421 137.264L340.574 137.966C340.525 137.985 340.455 138.004 340.364 138.023C340.273 138.044 340.159 138.055 340.023 138.057C339.8 138.061 339.591 138.021 339.398 137.938C339.205 137.854 339.049 137.725 338.929 137.551C338.81 137.377 338.75 137.158 338.75 136.895V132.591ZM343.268 138.088C342.838 138.088 342.468 137.996 342.157 137.812C341.849 137.627 341.61 137.366 341.441 137.031C341.275 136.694 341.191 136.299 341.191 135.847C341.191 135.4 341.275 135.006 341.441 134.665C341.61 134.324 341.845 134.058 342.146 133.866C342.449 133.675 342.803 133.58 343.208 133.58C343.455 133.58 343.693 133.62 343.924 133.702C344.155 133.783 344.363 133.911 344.547 134.085C344.73 134.259 344.875 134.486 344.981 134.764C345.087 135.041 345.14 135.377 345.14 135.773V136.074H341.672V135.438H344.308C344.308 135.214 344.262 135.016 344.172 134.844C344.081 134.67 343.953 134.532 343.788 134.432C343.625 134.331 343.434 134.281 343.214 134.281C342.975 134.281 342.767 134.34 342.589 134.457C342.413 134.573 342.277 134.724 342.18 134.912C342.085 135.098 342.038 135.299 342.038 135.517V136.014C342.038 136.306 342.089 136.554 342.191 136.759C342.296 136.963 342.44 137.119 342.626 137.227C342.812 137.333 343.029 137.386 343.277 137.386C343.438 137.386 343.584 137.364 343.717 137.318C343.85 137.271 343.964 137.201 344.061 137.108C344.157 137.015 344.231 136.901 344.282 136.764L345.086 136.909C345.022 137.146 344.906 137.353 344.74 137.531C344.575 137.707 344.368 137.845 344.118 137.943C343.869 138.04 343.586 138.088 343.268 138.088Z" fill="white"/>
<rect x="251" y="126" width="49" height="18" rx="9" fill="#EEEEEE"/>
<path d="M267.749 134.074H266.863C266.828 133.884 266.765 133.718 266.672 133.574C266.579 133.43 266.466 133.308 266.331 133.207C266.197 133.107 266.046 133.031 265.88 132.98C265.715 132.929 265.54 132.903 265.354 132.903C265.019 132.903 264.719 132.988 264.453 133.156C264.19 133.325 263.982 133.572 263.828 133.898C263.677 134.223 263.601 134.621 263.601 135.091C263.601 135.564 263.677 135.964 263.828 136.29C263.982 136.616 264.191 136.862 264.456 137.028C264.721 137.195 265.02 137.278 265.351 137.278C265.535 137.278 265.709 137.254 265.874 137.205C266.041 137.153 266.191 137.079 266.326 136.98C266.46 136.882 266.574 136.761 266.667 136.619C266.761 136.475 266.827 136.311 266.863 136.125L267.749 136.128C267.702 136.414 267.61 136.677 267.473 136.918C267.339 137.156 267.166 137.363 266.953 137.537C266.743 137.709 266.503 137.843 266.232 137.938C265.961 138.032 265.666 138.08 265.346 138.08C264.842 138.08 264.393 137.96 263.999 137.722C263.605 137.481 263.294 137.137 263.067 136.69C262.842 136.243 262.729 135.71 262.729 135.091C262.729 134.47 262.843 133.937 263.07 133.491C263.297 133.045 263.608 132.702 264.002 132.463C264.396 132.223 264.844 132.102 265.346 132.102C265.654 132.102 265.942 132.147 266.209 132.236C266.478 132.323 266.72 132.452 266.934 132.622C267.148 132.791 267.325 132.997 267.465 133.241C267.605 133.484 267.7 133.761 267.749 134.074ZM270.001 138.097C269.725 138.097 269.475 138.045 269.251 137.943C269.028 137.839 268.85 137.688 268.72 137.491C268.591 137.295 268.527 137.053 268.527 136.767C268.527 136.521 268.574 136.318 268.669 136.159C268.763 136 268.891 135.874 269.052 135.781C269.213 135.688 269.393 135.618 269.592 135.571C269.791 135.524 269.993 135.488 270.2 135.463C270.461 135.433 270.673 135.408 270.836 135.389C270.999 135.368 271.118 135.335 271.191 135.29C271.265 135.244 271.302 135.17 271.302 135.068V135.048C271.302 134.8 271.232 134.608 271.092 134.472C270.954 134.335 270.747 134.267 270.473 134.267C270.187 134.267 269.961 134.33 269.797 134.457C269.634 134.582 269.521 134.722 269.458 134.875L268.66 134.693C268.755 134.428 268.893 134.214 269.075 134.051C269.259 133.886 269.47 133.767 269.708 133.693C269.947 133.617 270.198 133.58 270.461 133.58C270.636 133.58 270.82 133.6 271.015 133.642C271.212 133.682 271.396 133.756 271.566 133.864C271.739 133.972 271.88 134.126 271.99 134.327C272.1 134.526 272.154 134.784 272.154 135.102V138H271.325V137.403H271.291C271.236 137.513 271.154 137.621 271.044 137.727C270.934 137.833 270.793 137.921 270.62 137.991C270.448 138.062 270.242 138.097 270.001 138.097ZM270.186 137.415C270.421 137.415 270.621 137.368 270.788 137.276C270.957 137.183 271.084 137.062 271.172 136.912C271.261 136.76 271.305 136.598 271.305 136.426V135.864C271.275 135.894 271.216 135.922 271.129 135.949C271.044 135.973 270.946 135.995 270.836 136.014C270.726 136.031 270.619 136.047 270.515 136.062C270.411 136.076 270.324 136.087 270.254 136.097C270.089 136.117 269.939 136.152 269.802 136.202C269.668 136.251 269.56 136.322 269.478 136.415C269.399 136.506 269.359 136.627 269.359 136.778C269.359 136.989 269.437 137.148 269.592 137.256C269.747 137.362 269.945 137.415 270.186 137.415ZM274.135 135.409V138H273.286V133.636H274.101V134.347H274.155C274.256 134.116 274.413 133.93 274.627 133.79C274.843 133.65 275.114 133.58 275.442 133.58C275.739 133.58 276 133.642 276.223 133.767C276.447 133.89 276.62 134.074 276.743 134.318C276.866 134.562 276.928 134.865 276.928 135.224V138H276.078V135.327C276.078 135.01 275.996 134.763 275.831 134.585C275.667 134.405 275.44 134.315 275.152 134.315C274.955 134.315 274.78 134.358 274.627 134.443C274.475 134.528 274.355 134.653 274.266 134.818C274.179 134.981 274.135 135.178 274.135 135.409ZM279.905 138.088C279.483 138.088 279.119 137.992 278.814 137.801C278.511 137.608 278.278 137.342 278.115 137.003C277.953 136.664 277.871 136.276 277.871 135.838C277.871 135.395 277.954 135.004 278.121 134.665C278.288 134.324 278.523 134.058 278.826 133.866C279.129 133.675 279.486 133.58 279.897 133.58C280.228 133.58 280.524 133.641 280.783 133.764C281.042 133.885 281.252 134.056 281.411 134.276C281.572 134.495 281.667 134.752 281.698 135.045H280.871C280.826 134.841 280.721 134.665 280.559 134.517C280.398 134.369 280.182 134.295 279.911 134.295C279.674 134.295 279.467 134.358 279.289 134.483C279.113 134.606 278.975 134.782 278.877 135.011C278.778 135.239 278.729 135.508 278.729 135.818C278.729 136.136 278.777 136.411 278.874 136.642C278.971 136.873 279.107 137.052 279.283 137.179C279.461 137.306 279.67 137.369 279.911 137.369C280.072 137.369 280.218 137.34 280.348 137.281C280.481 137.221 280.592 137.134 280.681 137.023C280.772 136.911 280.835 136.777 280.871 136.619H281.698C281.667 136.902 281.576 137.153 281.422 137.375C281.269 137.597 281.063 137.771 280.806 137.898C280.55 138.025 280.25 138.088 279.905 138.088ZM284.487 138.088C284.057 138.088 283.687 137.996 283.376 137.812C283.067 137.627 282.829 137.366 282.66 137.031C282.493 136.694 282.41 136.299 282.41 135.847C282.41 135.4 282.493 135.006 282.66 134.665C282.829 134.324 283.064 134.058 283.365 133.866C283.668 133.675 284.022 133.58 284.427 133.58C284.673 133.58 284.912 133.62 285.143 133.702C285.374 133.783 285.582 133.911 285.765 134.085C285.949 134.259 286.094 134.486 286.2 134.764C286.306 135.041 286.359 135.377 286.359 135.773V136.074H282.89V135.438H285.527C285.527 135.214 285.481 135.016 285.39 134.844C285.299 134.67 285.172 134.532 285.007 134.432C284.844 134.331 284.653 134.281 284.433 134.281C284.194 134.281 283.986 134.34 283.808 134.457C283.632 134.573 283.495 134.724 283.399 134.912C283.304 135.098 283.257 135.299 283.257 135.517V136.014C283.257 136.306 283.308 136.554 283.41 136.759C283.514 136.963 283.659 137.119 283.845 137.227C284.03 137.333 284.247 137.386 284.495 137.386C284.656 137.386 284.803 137.364 284.936 137.318C285.068 137.271 285.183 137.201 285.279 137.108C285.376 137.015 285.45 136.901 285.501 136.764L286.305 136.909C286.241 137.146 286.125 137.353 285.958 137.531C285.794 137.707 285.586 137.845 285.336 137.943C285.088 138.04 284.805 138.088 284.487 138.088ZM288.151 132.182V138H287.301V132.182H288.151Z" fill="black"/>
<path d="M189.6 133.636H190.4L191.789 137.028H191.84L193.229 133.636H194.028V138H193.402V134.842H193.361L192.074 137.994H191.554L190.267 134.84H190.227V138H189.6V133.636ZM196.313 138.066C196.006 138.066 195.738 137.996 195.509 137.855C195.281 137.714 195.103 137.518 194.977 137.265C194.85 137.012 194.787 136.717 194.787 136.379C194.787 136.039 194.85 135.742 194.977 135.488C195.103 135.234 195.281 135.036 195.509 134.896C195.738 134.755 196.006 134.685 196.313 134.685C196.619 134.685 196.887 134.755 197.116 134.896C197.345 135.036 197.522 135.234 197.649 135.488C197.775 135.742 197.838 136.039 197.838 136.379C197.838 136.717 197.775 137.012 197.649 137.265C197.522 137.518 197.345 137.714 197.116 137.855C196.887 137.996 196.619 138.066 196.313 138.066ZM196.315 137.531C196.514 137.531 196.678 137.479 196.809 137.374C196.94 137.268 197.036 137.129 197.099 136.954C197.163 136.779 197.195 136.587 197.195 136.376C197.195 136.168 197.163 135.976 197.099 135.801C197.036 135.625 196.94 135.484 196.809 135.377C196.678 135.271 196.514 135.217 196.315 135.217C196.115 135.217 195.948 135.271 195.816 135.377C195.686 135.484 195.588 135.625 195.524 135.801C195.462 135.976 195.431 136.168 195.431 136.376C195.431 136.587 195.462 136.779 195.524 136.954C195.588 137.129 195.686 137.268 195.816 137.374C195.948 137.479 196.115 137.531 196.315 137.531ZM198.549 138V134.727H199.165V135.247H199.199C199.259 135.071 199.364 134.933 199.515 134.832C199.667 134.729 199.838 134.678 200.03 134.678C200.07 134.678 200.117 134.68 200.171 134.683C200.226 134.685 200.27 134.689 200.301 134.693V135.303C200.275 135.295 200.23 135.288 200.164 135.279C200.099 135.269 200.034 135.264 199.968 135.264C199.818 135.264 199.684 135.296 199.566 135.36C199.449 135.423 199.357 135.51 199.289 135.622C199.221 135.733 199.186 135.859 199.186 136.001V138H198.549ZM202.145 138.066C201.823 138.066 201.545 137.997 201.312 137.859C201.081 137.72 200.902 137.525 200.775 137.273C200.65 137.021 200.588 136.724 200.588 136.385C200.588 136.05 200.65 135.754 200.775 135.499C200.902 135.243 201.078 135.043 201.304 134.9C201.531 134.756 201.797 134.685 202.101 134.685C202.285 134.685 202.464 134.715 202.638 134.776C202.811 134.837 202.966 134.933 203.104 135.064C203.242 135.195 203.351 135.364 203.43 135.573C203.51 135.781 203.55 136.033 203.55 136.33V136.555H200.948V136.078H202.925C202.925 135.911 202.891 135.762 202.823 135.633C202.755 135.502 202.659 135.399 202.535 135.324C202.413 135.249 202.27 135.211 202.105 135.211C201.926 135.211 201.77 135.255 201.636 135.343C201.504 135.43 201.402 135.543 201.329 135.684C201.258 135.823 201.223 135.974 201.223 136.138V136.511C201.223 136.729 201.261 136.915 201.338 137.069C201.416 137.222 201.525 137.339 201.664 137.42C201.803 137.5 201.966 137.54 202.152 137.54C202.273 137.54 202.383 137.523 202.482 137.489C202.581 137.453 202.667 137.401 202.74 137.331C202.812 137.261 202.868 137.175 202.906 137.073L203.509 137.182C203.461 137.359 203.374 137.515 203.249 137.648C203.126 137.781 202.97 137.884 202.782 137.957C202.596 138.03 202.384 138.066 202.145 138.066ZM207.223 138.066C206.916 138.066 206.648 137.996 206.42 137.855C206.191 137.714 206.013 137.518 205.887 137.265C205.76 137.012 205.697 136.717 205.697 136.379C205.697 136.039 205.76 135.742 205.887 135.488C206.013 135.234 206.191 135.036 206.42 134.896C206.648 134.755 206.916 134.685 207.223 134.685C207.53 134.685 207.797 134.755 208.026 134.896C208.255 135.036 208.432 135.234 208.559 135.488C208.685 135.742 208.748 136.039 208.748 136.379C208.748 136.717 208.685 137.012 208.559 137.265C208.432 137.518 208.255 137.714 208.026 137.855C207.797 137.996 207.53 138.066 207.223 138.066ZM207.225 137.531C207.424 137.531 207.589 137.479 207.719 137.374C207.85 137.268 207.947 137.129 208.009 136.954C208.073 136.779 208.105 136.587 208.105 136.376C208.105 136.168 208.073 135.976 208.009 135.801C207.947 135.625 207.85 135.484 207.719 135.377C207.589 135.271 207.424 135.217 207.225 135.217C207.025 135.217 206.858 135.271 206.726 135.377C206.596 135.484 206.498 135.625 206.434 135.801C206.372 135.976 206.341 136.168 206.341 136.376C206.341 136.587 206.372 136.779 206.434 136.954C206.498 137.129 206.596 137.268 206.726 137.374C206.858 137.479 207.025 137.531 207.225 137.531ZM209.46 139.227V134.727H210.082V135.258H210.135C210.172 135.19 210.225 135.111 210.295 135.021C210.364 134.932 210.461 134.854 210.585 134.787C210.708 134.719 210.871 134.685 211.075 134.685C211.339 134.685 211.575 134.751 211.782 134.885C211.989 135.018 212.152 135.211 212.27 135.462C212.389 135.714 212.449 136.016 212.449 136.37C212.449 136.724 212.39 137.027 212.272 137.28C212.154 137.531 211.992 137.725 211.786 137.862C211.58 137.996 211.345 138.064 211.081 138.064C210.882 138.064 210.719 138.031 210.593 137.964C210.468 137.897 210.37 137.819 210.299 137.729C210.228 137.64 210.173 137.56 210.135 137.491H210.097V139.227H209.46ZM210.084 136.364C210.084 136.594 210.117 136.795 210.184 136.969C210.251 137.142 210.347 137.278 210.474 137.376C210.6 137.472 210.755 137.521 210.938 137.521C211.129 137.521 211.288 137.47 211.415 137.369C211.543 137.267 211.64 137.129 211.705 136.954C211.772 136.779 211.805 136.582 211.805 136.364C211.805 136.148 211.773 135.954 211.707 135.782C211.643 135.61 211.547 135.474 211.418 135.375C211.29 135.276 211.13 135.226 210.938 135.226C210.754 135.226 210.597 135.273 210.469 135.369C210.343 135.464 210.247 135.597 210.182 135.767C210.116 135.937 210.084 136.136 210.084 136.364ZM214.69 134.727V135.239H212.903V134.727H214.69ZM213.382 133.943H214.019V137.039C214.019 137.163 214.038 137.256 214.075 137.318C214.112 137.379 214.159 137.421 214.217 137.444C214.277 137.465 214.342 137.476 214.411 137.476C214.462 137.476 214.507 137.472 214.545 137.465C214.584 137.458 214.614 137.452 214.635 137.448L214.75 137.974C214.713 137.989 214.661 138.003 214.592 138.017C214.524 138.033 214.439 138.041 214.337 138.043C214.169 138.045 214.013 138.016 213.868 137.953C213.723 137.891 213.606 137.794 213.516 137.663C213.427 137.533 213.382 137.369 213.382 137.171V133.943ZM215.395 138V134.727H216.032V138H215.395ZM215.717 134.222C215.606 134.222 215.511 134.185 215.431 134.112C215.353 134.036 215.314 133.947 215.314 133.843C215.314 133.738 215.353 133.648 215.431 133.575C215.511 133.499 215.606 133.462 215.717 133.462C215.828 133.462 215.922 133.499 216 133.575C216.08 133.648 216.119 133.738 216.119 133.843C216.119 133.947 216.08 134.036 216 134.112C215.922 134.185 215.828 134.222 215.717 134.222ZM218.268 138.066C217.961 138.066 217.693 137.996 217.464 137.855C217.236 137.714 217.058 137.518 216.932 137.265C216.805 137.012 216.742 136.717 216.742 136.379C216.742 136.039 216.805 135.742 216.932 135.488C217.058 135.234 217.236 135.036 217.464 134.896C217.693 134.755 217.961 134.685 218.268 134.685C218.575 134.685 218.842 134.755 219.071 134.896C219.3 135.036 219.477 135.234 219.604 135.488C219.73 135.742 219.793 136.039 219.793 136.379C219.793 136.717 219.73 137.012 219.604 137.265C219.477 137.518 219.3 137.714 219.071 137.855C218.842 137.996 218.575 138.066 218.268 138.066ZM218.27 137.531C218.469 137.531 218.634 137.479 218.764 137.374C218.895 137.268 218.991 137.129 219.054 136.954C219.118 136.779 219.15 136.587 219.15 136.376C219.15 136.168 219.118 135.976 219.054 135.801C218.991 135.625 218.895 135.484 218.764 135.377C218.634 135.271 218.469 135.217 218.27 135.217C218.07 135.217 217.903 135.271 217.771 135.377C217.641 135.484 217.543 135.625 217.479 135.801C217.417 135.976 217.386 136.168 217.386 136.376C217.386 136.587 217.417 136.779 217.479 136.954C217.543 137.129 217.641 137.268 217.771 137.374C217.903 137.479 218.07 137.531 218.27 137.531ZM221.142 136.057V138H220.504V134.727H221.116V135.26H221.156C221.232 135.087 221.35 134.947 221.51 134.842C221.672 134.737 221.876 134.685 222.122 134.685C222.345 134.685 222.54 134.732 222.708 134.825C222.875 134.918 223.005 135.055 223.097 135.239C223.19 135.422 223.236 135.648 223.236 135.918V138H222.599V135.995C222.599 135.758 222.537 135.572 222.414 135.439C222.29 135.304 222.12 135.237 221.904 135.237C221.757 135.237 221.625 135.268 221.51 135.332C221.396 135.396 221.306 135.49 221.24 135.614C221.174 135.736 221.142 135.884 221.142 136.057ZM226.543 135.526L225.965 135.629C225.941 135.555 225.903 135.484 225.85 135.418C225.799 135.351 225.73 135.296 225.642 135.254C225.553 135.211 225.443 135.19 225.311 135.19C225.131 135.19 224.98 135.23 224.86 135.311C224.739 135.391 224.678 135.494 224.678 135.62C224.678 135.729 224.719 135.817 224.8 135.884C224.881 135.951 225.012 136.006 225.192 136.048L225.712 136.168C226.013 136.237 226.237 136.344 226.385 136.489C226.533 136.634 226.607 136.822 226.607 137.054C226.607 137.25 226.55 137.425 226.436 137.578C226.324 137.73 226.167 137.849 225.965 137.936C225.765 138.023 225.533 138.066 225.269 138.066C224.902 138.066 224.603 137.988 224.372 137.832C224.14 137.674 223.998 137.45 223.945 137.161L224.561 137.067C224.6 137.227 224.678 137.349 224.798 137.431C224.917 137.512 225.073 137.553 225.264 137.553C225.473 137.553 225.64 137.509 225.765 137.423C225.89 137.335 225.953 137.227 225.953 137.101C225.953 136.999 225.914 136.913 225.838 136.843C225.762 136.773 225.646 136.721 225.49 136.685L224.936 136.564C224.631 136.494 224.405 136.384 224.259 136.232C224.114 136.08 224.041 135.887 224.041 135.654C224.041 135.461 224.095 135.292 224.203 135.147C224.311 135.002 224.46 134.889 224.651 134.808C224.841 134.726 225.059 134.685 225.305 134.685C225.659 134.685 225.937 134.761 226.14 134.915C226.343 135.067 226.477 135.271 226.543 135.526Z" fill="#6A6A6A"/>
<path d="M189.121 139.193H226.877V139.602H189.121V139.193Z" fill="#6A6A6A"/>
</g>
<defs>
<filter id="filter0_d_9_423" x="162" y="56" width="222" height="120" filterUnits="userSpaceOnUse" color-interpolation-filters="sRGB">
<feFlood flood-opacity="0" result="BackgroundImageFix"/>
<feColorMatrix in="SourceAlpha" type="matrix" values="0 0 0 0 0 0 0 0 0 0 0 0 0 0 0 0 0 0 127 0" result="hardAlpha"/>
<feOffset dy="5"/>
<feGaussianBlur stdDeviation="5"/>
<feComposite in2="hardAlpha" operator="out"/>
<feColorMatrix type="matrix" values="0 0 0 0 0 0 0 0 0 0 0 0 0 0 0 0 0 0 0.5 0"/>
<feBlend mode="normal" in2="BackgroundImageFix" result="effect1_dropShadow_9_423"/>
<feBlend mode="normal" in="SourceGraphic" in2="effect1_dropShadow_9_423" result="shape"/>
</filter>
<clipPath id="clip0_9_423">
<rect width="530" height="350" fill="white"/>
</clipPath>
</defs>
</svg>
