<svg xmlns="http://www.w3.org/2000/svg" viewBox="0 0 240 240"><path d="M206.71 55.647c-22.566-16.994-51.4-25.212-86.64-25.212-35.52 0-64.354 8.358-86.5 25.35C11.142 72.363 0 93.676 0 120.14q0 40.115 33.71 65.188c18.246 13.79 41.37 21.87 68.95 24.237h34.96q41.16-3.552 69.09-24.237c22.007-16.715 33.29-38.305 33.29-65.19 0-26.464-11.283-47.776-33.29-64.49zm-16.716 42.345L173 101.612c-2.507.7-9.472 5.85-21.312 15.6-12.676 10.17-19.222 16.716-20.337 19.92l-.7 9.054-.417 5.432 1.393 13.79 22.426.418-.418 6.825h-36.35l-32.594.42 1.114-6.548 10.447-.418c5.433-.418 8.637-1.114 9.75-2.23.7-.7 1.115-5.014 1.115-12.675v-4.737l-.418-9.472c-.7-2.228-6.547-10.167-17.69-23.957-11.56-13.927-19.222-22.284-22.843-25.07L45.27 85.038v-6.13c1.114-.7 12.676-.7 33.987-.417 14.9-.417 27.162-.417 36.912.42l-.7 5.014-22.144 2.228c6.965 10.03 17.41 24.237 31.48 41.927 18.526-14.07 28.276-23.123 28.555-27.163l-18.8-2.925-1.392-6.547h31.48l29.67.418z"/></svg>
