<svg xmlns="http://www.w3.org/2000/svg" viewBox="0 0 240 240"><path d="M15.22 66.12a.063.063 0 0 1-.066.064v.065A121.2 121.2 0 0 0 4.766 96.315a119.422 119.422 0 0 0 10.518 77.56c-.065 0-.065.064-.13.064a120.832 120.832 0 0 0 32.522 40.006 118.593 118.593 0 0 0 43.62 22c20 5.356 41.3 5.227 61.427.645a108.585 108.585 0 0 0 49.1-25.486h.065a109.046 109.046 0 0 0 30.39-49.813 141.814 141.814 0 0 0 3.034-63.685H122.395v46.78h65.364v.066h.064a56.545 56.545 0 0 1-23.94 37.038h-.064a68.752 68.752 0 0 1-26.455 10.453 79.174 79.174 0 0 1-28.65-.064A71.054 71.054 0 0 1 82 180.328a73.968 73.968 0 0 1-26.326-33.682c-.452-1.1-.84-2.194-1.226-3.29a72.872 72.872 0 0 1 .065-46.588V96.7c0-.065 0-.065.065-.13a75.133 75.133 0 0 1 17.357-28.2 71.718 71.718 0 0 1 35.876-19.937 70.857 70.857 0 0 1 35.232 1.42 65.368 65.368 0 0 1 25.875 15.228l22.068-22.067c3.872-3.936 7.937-7.743 11.615-11.744a117.414 117.414 0 0 0-38.586-23.934 121.136 121.136 0 0 0-80.85-.774l-2.71.968c-.452.194-.9.323-1.29.516-.453.194-.9.323-1.356.516-.516.194-1.032.452-1.55.645-.386.13-.773.323-1.16.452-.774.322-1.613.71-2.387 1.03-.064.066-.193.066-.257.13a121.668 121.668 0 0 0-57.234 55.3z"/></svg>
