<svg xmlns="http://www.w3.org/2000/svg" data-name="Layer 1" viewBox="0 0 240 240"><path d="M185.507 127.52c-.3-30.393 24.787-44.97 25.908-45.7-14.1-20.63-36.06-23.455-43.884-23.78-18.69-1.893-36.467 11-45.952 11-9.46 0-24.1-10.725-39.6-10.443-20.37.3-39.154 11.845-49.643 30.09-21.165 36.726-5.42 91.133 15.21 120.92 10.08 14.58 22.1 30.954 37.88 30.37 15.2-.608 20.944-9.835 39.318-9.835s23.538 9.834 39.62 9.532c16.355-.3 26.716-14.86 36.726-29.483a132.336 132.336 0 0 0 16.622-34.13c-.363-.16-31.89-12.234-32.205-48.54zm-30.22-89.2c8.376-10.157 14.03-24.255 12.488-38.32-12.065.49-26.69 8.037-35.346 18.176-7.768 8.994-14.567 23.35-12.745 37.133 13.468 1.05 27.215-6.846 35.602-16.985z"/></svg>