<svg xmlns="http://www.w3.org/2000/svg" viewBox="0 0 240 240"><path d="M32.512 240h145.094a20.48 20.48 0 0 0 20.482-20.478v-.008H12.03A20.484 20.484 0 0 0 32.512 240zM193.094 112.07h-6.84v-4.47a7.987 7.987 0 0 0-7.988-7.986H23.456a7.982 7.982 0 0 0-7.982 7.982v9.577c0 23.7 1.558 48.306 12.845 67.692a62.9 62.9 0 0 0 26.787 25.008h91.6a62.917 62.917 0 0 0 26.787-25.007c.512-.877.98-1.775 1.447-2.672h18.154a35.064 35.064 0 0 0 0-70.127zm0 56.046h-12.44c4-13.143 5.276-27.57 5.6-41.962h6.84a20.98 20.98 0 1 1 0 41.962zM63.222 85.974a4.622 4.622 0 0 0 3.466-7.674c-7.06-8.03-7.974-20.342-2.227-29.93.924-1.54 1.947-3.138 3.007-4.794C74.74 32.22 84.7 16.643 73.367 1.82a4.622 4.622 0 1 0-7.348 5.61c6.874 8.985 1.704 18.585-6.34 31.16-1.11 1.735-2.186 3.415-3.146 5.025C48.74 56.61 50.064 73.38 59.747 84.4a4.613 4.613 0 0 0 3.475 1.574zM137.364 85.974a4.62 4.62 0 0 0 3.47-7.676c-7.058-8.03-7.973-20.342-2.23-29.93.927-1.54 1.95-3.138 3.01-4.794 7.273-11.357 17.232-26.933 5.9-41.757a4.624 4.624 0 0 0-7.35 5.61c6.877 8.987 1.71 18.587-6.333 31.162-1.107 1.734-2.18 3.414-3.144 5.024-7.79 12.994-6.47 29.764 3.21 40.784a4.592 4.592 0 0 0 3.468 1.576zM100.208 85.974a4.622 4.622 0 0 0 3.47-7.676c-7.062-8.03-7.977-20.342-2.23-29.93.917-1.54 1.945-3.138 3-4.794 7.276-11.357 17.236-26.933 5.9-41.757a4.62 4.62 0 1 0-7.343 5.61c6.87 8.987 1.7 18.587-6.342 31.162-1.108 1.734-2.182 3.414-3.146 5.024C85.727 56.61 87.05 73.38 96.734 84.4a4.613 4.613 0 0 0 3.474 1.574z"/></svg>
