<svg xmlns="http://www.w3.org/2000/svg" viewBox="0 0 240 240"><path d="M32.422 240h145.09a20.48 20.48 0 0 0 20.482-20.486H11.936A20.484 20.484 0 0 0 32.422 240zM193 116.072h-6.84v-4.467a7.987 7.987 0 0 0-7.988-7.986H23.362a7.982 7.982 0 0 0-7.982 7.985v9.574c0 23.7 1.558 48.306 12.845 67.692a62.9 62.9 0 0 0 26.788 25.008h91.6a62.918 62.918 0 0 0 26.787-25.007c.512-.877.98-1.775 1.447-2.672H193a35.064 35.064 0 0 0 0-70.127zm0 56.045h-12.44c4-13.143 5.276-27.57 5.6-41.962H193a20.98 20.98 0 0 1 0 41.962z"/><g><path d="M63.128 85.975a4.613 4.613 0 0 1-3.475-1.575C49.97 73.38 48.646 56.61 56.44 43.616c.96-1.61 2.037-3.29 3.145-5.025C67.63 26.016 72.8 16.416 65.925 7.43a4.622 4.622 0 0 1 7.348-5.61c11.332 14.824 1.373 30.4-5.9 41.757-1.06 1.656-2.083 3.255-3.006 4.794-5.747 9.588-4.832 21.9 2.227 29.93a4.622 4.622 0 0 1-3.467 7.676zM100.114 85.975A4.613 4.613 0 0 1 96.64 84.4c-9.684-11.02-11.007-27.79-3.215-40.784.964-1.61 2.038-3.29 3.146-5.025 8.047-12.575 13.212-22.175 6.342-31.162a4.62 4.62 0 0 1 7.343-5.61c11.336 14.824 1.376 30.4-5.9 41.757-1.055 1.656-2.083 3.255-3 4.794-5.747 9.588-4.832 21.9 2.23 29.93a4.622 4.622 0 0 1-3.47 7.676zM137.27 85.975a4.592 4.592 0 0 1-3.47-1.575c-9.68-11.02-11-27.79-3.21-40.784.963-1.61 2.037-3.29 3.145-5.025 8.042-12.575 13.21-22.175 6.333-31.162a4.624 4.624 0 0 1 7.35-5.61c11.332 14.824 1.373 30.4-5.9 41.757-1.06 1.656-2.083 3.255-3.01 4.794-5.743 9.588-4.828 21.9 2.23 29.93a4.62 4.62 0 0 1-3.47 7.676z"/></g></svg>
